<?xml version="1.0" encoding="UTF-8" standalone="no"?>
<!DOCTYPE svg PUBLIC "-//W3C//DTD SVG 1.1//EN"
 "http://www.w3.org/Graphics/SVG/1.1/DTD/svg11.dtd">
<!-- Generated by graphviz version 2.40.1 (20161225.0304)
 -->
<!-- Title: unix Pages: 1 -->
<svg width="259pt" height="432pt"
 viewBox="0.00 0.00 259.12 432.00" xmlns="http://www.w3.org/2000/svg" xmlns:xlink="http://www.w3.org/1999/xlink">
<g id="graph0" class="graph" transform="scale(.6968 .6968) rotate(0) translate(4 616)">
<title>unix</title>
<polygon fill="#ffffff" stroke="transparent" points="-4,4 -4,-616 367.8847,-616 367.8847,4 -4,4"/>
<!-- alphabet.n.01 -->
<g id="node1" class="node">
<title>alphabet.n.01</title>
<ellipse fill="#b2dfee" stroke="#b2dfee" cx="163.1448" cy="-594" rx="58.4896" ry="18"/>
<text text-anchor="middle" x="163.1448" y="-590.3" font-family="Times,serif" font-size="14.00" fill="#000000">alphabet.n.01</text>
</g>
<!-- character_set.n.01 -->
<g id="node2" class="node">
<title>character_set.n.01</title>
<ellipse fill="#b2dfee" stroke="#b2dfee" cx="112.1448" cy="-522" rx="75.2868" ry="18"/>
<text text-anchor="middle" x="112.1448" y="-518.3" font-family="Times,serif" font-size="14.00" fill="#000000">character_set.n.01</text>
</g>
<!-- alphabet.n.01&#45;&gt;character_set.n.01 -->
<g id="edge1" class="edge">
<title>alphabet.n.01&#45;&gt;character_set.n.01</title>
<path fill="none" stroke="#000000" d="M150.538,-576.2022C144.5307,-567.7214 137.2279,-557.4115 130.6107,-548.0696"/>
<polygon fill="#000000" stroke="#000000" points="133.4195,-545.9797 124.7832,-539.8425 127.7073,-550.0259 133.4195,-545.9797"/>
</g>
<!-- script.n.03 -->
<g id="node10" class="node">
<title>script.n.03</title>
<ellipse fill="#b2dfee" stroke="#b2dfee" cx="228.1448" cy="-450" rx="48.1917" ry="18"/>
<text text-anchor="middle" x="228.1448" y="-446.3" font-family="Times,serif" font-size="14.00" fill="#000000">script.n.03</text>
</g>
<!-- alphabet.n.01&#45;&gt;script.n.03 -->
<g id="edge9" class="edge">
<title>alphabet.n.01&#45;&gt;script.n.03</title>
<path fill="none" stroke="#000000" d="M175.4206,-576.0335C182.0973,-565.7716 190.1846,-552.4949 196.1448,-540 205.7986,-519.7615 214.1817,-495.7943 219.9433,-477.6834"/>
<polygon fill="#000000" stroke="#000000" points="223.3186,-478.6158 222.944,-468.0276 216.6339,-476.5384 223.3186,-478.6158"/>
</g>
<!-- list.n.01 -->
<g id="node3" class="node">
<title>list.n.01</title>
<ellipse fill="#b2dfee" stroke="#b2dfee" cx="111.1448" cy="-450" rx="39.7935" ry="18"/>
<text text-anchor="middle" x="111.1448" y="-446.3" font-family="Times,serif" font-size="14.00" fill="#000000">list.n.01</text>
</g>
<!-- character_set.n.01&#45;&gt;list.n.01 -->
<g id="edge2" class="edge">
<title>character_set.n.01&#45;&gt;list.n.01</title>
<path fill="none" stroke="#000000" d="M111.8924,-503.8314C111.7855,-496.131 111.6583,-486.9743 111.5394,-478.4166"/>
<polygon fill="#000000" stroke="#000000" points="115.0391,-478.3637 111.4005,-468.4133 108.0398,-478.4609 115.0391,-478.3637"/>
</g>
<!-- database.n.01 -->
<g id="node4" class="node">
<title>database.n.01</title>
<ellipse fill="#b2dfee" stroke="#b2dfee" cx="90.1448" cy="-378" rx="59.2899" ry="18"/>
<text text-anchor="middle" x="90.1448" y="-374.3" font-family="Times,serif" font-size="14.00" fill="#000000">database.n.01</text>
</g>
<!-- list.n.01&#45;&gt;database.n.01 -->
<g id="edge3" class="edge">
<title>list.n.01&#45;&gt;database.n.01</title>
<path fill="none" stroke="#000000" d="M105.8456,-431.8314C103.5749,-424.0463 100.8702,-414.7729 98.3507,-406.1347"/>
<polygon fill="#000000" stroke="#000000" points="101.6754,-405.0332 95.5153,-396.4133 94.9554,-406.9933 101.6754,-405.0332"/>
</g>
<!-- information.n.01 -->
<g id="node5" class="node">
<title>information.n.01</title>
<ellipse fill="#b2dfee" stroke="#b2dfee" cx="80.1448" cy="-306" rx="70.6878" ry="18"/>
<text text-anchor="middle" x="80.1448" y="-302.3" font-family="Times,serif" font-size="14.00" fill="#000000">information.n.01</text>
</g>
<!-- database.n.01&#45;&gt;information.n.01 -->
<g id="edge4" class="edge">
<title>database.n.01&#45;&gt;information.n.01</title>
<path fill="none" stroke="#000000" d="M87.6213,-359.8314C86.5518,-352.131 85.2801,-342.9743 84.0915,-334.4166"/>
<polygon fill="#000000" stroke="#000000" points="87.5446,-333.8367 82.7022,-324.4133 80.6112,-334.7997 87.5446,-333.8367"/>
</g>
<!-- message.n.02 -->
<g id="node6" class="node">
<title>message.n.02</title>
<ellipse fill="#b2dfee" stroke="#b2dfee" cx="59.1448" cy="-234" rx="59.2899" ry="18"/>
<text text-anchor="middle" x="59.1448" y="-230.3" font-family="Times,serif" font-size="14.00" fill="#000000">message.n.02</text>
</g>
<!-- information.n.01&#45;&gt;message.n.02 -->
<g id="edge5" class="edge">
<title>information.n.01&#45;&gt;message.n.02</title>
<path fill="none" stroke="#000000" d="M74.8456,-287.8314C72.5749,-280.0463 69.8702,-270.7729 67.3507,-262.1347"/>
<polygon fill="#000000" stroke="#000000" points="70.6754,-261.0332 64.5153,-252.4133 63.9554,-262.9933 70.6754,-261.0332"/>
</g>
<!-- communication.n.02 -->
<g id="node7" class="node">
<title>communication.n.02</title>
<ellipse fill="#b2dfee" stroke="#b2dfee" cx="154.1448" cy="-162" rx="84.485" ry="18"/>
<text text-anchor="middle" x="154.1448" y="-158.3" font-family="Times,serif" font-size="14.00" fill="#000000">communication.n.02</text>
</g>
<!-- message.n.02&#45;&gt;communication.n.02 -->
<g id="edge6" class="edge">
<title>message.n.02&#45;&gt;communication.n.02</title>
<path fill="none" stroke="#000000" d="M81.6584,-216.937C94.0176,-207.57 109.5318,-195.8119 123.0328,-185.5796"/>
<polygon fill="#000000" stroke="#000000" points="125.2771,-188.2703 131.1328,-179.4407 121.049,-182.6915 125.2771,-188.2703"/>
</g>
<!-- abstraction.n.06 -->
<g id="node8" class="node">
<title>abstraction.n.06</title>
<ellipse fill="#b2dfee" stroke="#b2dfee" cx="154.1448" cy="-90" rx="67.6881" ry="18"/>
<text text-anchor="middle" x="154.1448" y="-86.3" font-family="Times,serif" font-size="14.00" fill="#000000">abstraction.n.06</text>
</g>
<!-- communication.n.02&#45;&gt;abstraction.n.06 -->
<g id="edge7" class="edge">
<title>communication.n.02&#45;&gt;abstraction.n.06</title>
<path fill="none" stroke="#000000" d="M154.1448,-143.8314C154.1448,-136.131 154.1448,-126.9743 154.1448,-118.4166"/>
<polygon fill="#000000" stroke="#000000" points="157.6449,-118.4132 154.1448,-108.4133 150.6449,-118.4133 157.6449,-118.4132"/>
</g>
<!-- entity.n.01 -->
<g id="node9" class="node">
<title>entity.n.01</title>
<ellipse fill="#b2dfee" stroke="#b2dfee" cx="154.1448" cy="-18" rx="48.9926" ry="18"/>
<text text-anchor="middle" x="154.1448" y="-14.3" font-family="Times,serif" font-size="14.00" fill="#000000">entity.n.01</text>
</g>
<!-- abstraction.n.06&#45;&gt;entity.n.01 -->
<g id="edge8" class="edge">
<title>abstraction.n.06&#45;&gt;entity.n.01</title>
<path fill="none" stroke="#000000" d="M154.1448,-71.8314C154.1448,-64.131 154.1448,-54.9743 154.1448,-46.4166"/>
<polygon fill="#000000" stroke="#000000" points="157.6449,-46.4132 154.1448,-36.4133 150.6449,-46.4133 157.6449,-46.4132"/>
</g>
<!-- orthography.n.01 -->
<g id="node11" class="node">
<title>orthography.n.01</title>
<ellipse fill="#b2dfee" stroke="#b2dfee" cx="244.1448" cy="-378" rx="71.4873" ry="18"/>
<text text-anchor="middle" x="244.1448" y="-374.3" font-family="Times,serif" font-size="14.00" fill="#000000">orthography.n.01</text>
</g>
<!-- script.n.03&#45;&gt;orthography.n.01 -->
<g id="edge10" class="edge">
<title>script.n.03&#45;&gt;orthography.n.01</title>
<path fill="none" stroke="#000000" d="M232.1822,-431.8314C233.8934,-424.131 235.9282,-414.9743 237.8299,-406.4166"/>
<polygon fill="#000000" stroke="#000000" points="241.3002,-406.9344 240.0529,-396.4133 234.4669,-405.4159 241.3002,-406.9344"/>
</g>
<!-- writing.n.04 -->
<g id="node12" class="node">
<title>writing.n.04</title>
<ellipse fill="#b2dfee" stroke="#b2dfee" cx="247.1448" cy="-306" rx="53.8905" ry="18"/>
<text text-anchor="middle" x="247.1448" y="-302.3" font-family="Times,serif" font-size="14.00" fill="#000000">writing.n.04</text>
</g>
<!-- orthography.n.01&#45;&gt;writing.n.04 -->
<g id="edge11" class="edge">
<title>orthography.n.01&#45;&gt;writing.n.04</title>
<path fill="none" stroke="#000000" d="M244.9018,-359.8314C245.2226,-352.131 245.6042,-342.9743 245.9607,-334.4166"/>
<polygon fill="#000000" stroke="#000000" points="249.4581,-334.5503 246.3775,-324.4133 242.4642,-334.2589 249.4581,-334.5503"/>
</g>
<!-- written_communication.n.01 -->
<g id="node13" class="node">
<title>written_communication.n.01</title>
<ellipse fill="#b2dfee" stroke="#b2dfee" cx="250.1448" cy="-234" rx="113.9803" ry="18"/>
<text text-anchor="middle" x="250.1448" y="-230.3" font-family="Times,serif" font-size="14.00" fill="#000000">written_communication.n.01</text>
</g>
<!-- writing.n.04&#45;&gt;written_communication.n.01 -->
<g id="edge12" class="edge">
<title>writing.n.04&#45;&gt;written_communication.n.01</title>
<path fill="none" stroke="#000000" d="M247.9018,-287.8314C248.2226,-280.131 248.6042,-270.9743 248.9607,-262.4166"/>
<polygon fill="#000000" stroke="#000000" points="252.4581,-262.5503 249.3775,-252.4133 245.4642,-262.2589 252.4581,-262.5503"/>
</g>
<!-- written_communication.n.01&#45;&gt;communication.n.02 -->
<g id="edge13" class="edge">
<title>written_communication.n.01&#45;&gt;communication.n.02</title>
<path fill="none" stroke="#000000" d="M226.4144,-216.2022C213.9996,-206.8911 198.6453,-195.3754 185.2866,-185.3564"/>
<polygon fill="#000000" stroke="#000000" points="187.3709,-182.5446 177.2709,-179.3446 183.1709,-188.1446 187.3709,-182.5446"/>
</g>
</g>
</svg>
