<?xml version="1.0" encoding="UTF-8" standalone="no"?>
<!DOCTYPE svg PUBLIC "-//W3C//DTD SVG 1.1//EN"
 "http://www.w3.org/Graphics/SVG/1.1/DTD/svg11.dtd">
<!-- Generated by graphviz version 2.40.1 (20161225.0304)
 -->
<!-- Title: unix Pages: 1 -->
<svg width="276pt" height="432pt"
 viewBox="0.00 0.00 275.56 432.00" xmlns="http://www.w3.org/2000/svg" xmlns:xlink="http://www.w3.org/1999/xlink">
<g id="graph0" class="graph" transform="scale(.6968 .6968) rotate(0) translate(4 616)">
<title>unix</title>
<polygon fill="#ffffff" stroke="transparent" points="-4,4 -4,-616 391.4821,-616 391.4821,4 -4,4"/>
<!-- city.n.01 -->
<g id="node1" class="node">
<title>city.n.01</title>
<ellipse fill="#b2dfee" stroke="#b2dfee" cx="205.5404" cy="-594" rx="42.4939" ry="18"/>
<text text-anchor="middle" x="205.5404" y="-590.3" font-family="Times,serif" font-size="14.00" fill="#000000">city.n.01</text>
</g>
<!-- municipality.n.01 -->
<g id="node2" class="node">
<title>municipality.n.01</title>
<ellipse fill="#b2dfee" stroke="#b2dfee" cx="205.5404" cy="-522" rx="73.387" ry="18"/>
<text text-anchor="middle" x="205.5404" y="-518.3" font-family="Times,serif" font-size="14.00" fill="#000000">municipality.n.01</text>
</g>
<!-- city.n.01&#45;&gt;municipality.n.01 -->
<g id="edge1" class="edge">
<title>city.n.01&#45;&gt;municipality.n.01</title>
<path fill="none" stroke="#000000" d="M205.5404,-575.8314C205.5404,-568.131 205.5404,-558.9743 205.5404,-550.4166"/>
<polygon fill="#000000" stroke="#000000" points="209.0405,-550.4132 205.5404,-540.4133 202.0405,-550.4133 209.0405,-550.4132"/>
</g>
<!-- administrative_district.n.01 -->
<g id="node3" class="node">
<title>administrative_district.n.01</title>
<ellipse fill="#b2dfee" stroke="#b2dfee" cx="108.5404" cy="-450" rx="108.5808" ry="18"/>
<text text-anchor="middle" x="108.5404" y="-446.3" font-family="Times,serif" font-size="14.00" fill="#000000">administrative_district.n.01</text>
</g>
<!-- municipality.n.01&#45;&gt;administrative_district.n.01 -->
<g id="edge2" class="edge">
<title>municipality.n.01&#45;&gt;administrative_district.n.01</title>
<path fill="none" stroke="#000000" d="M182.0594,-504.5708C169.6155,-495.3341 154.1457,-483.8514 140.6115,-473.8054"/>
<polygon fill="#000000" stroke="#000000" points="142.5948,-470.9187 132.479,-467.7689 138.4226,-476.5395 142.5948,-470.9187"/>
</g>
<!-- urban_area.n.01 -->
<g id="node10" class="node">
<title>urban_area.n.01</title>
<ellipse fill="#b2dfee" stroke="#b2dfee" cx="302.5404" cy="-450" rx="67.6881" ry="18"/>
<text text-anchor="middle" x="302.5404" y="-446.3" font-family="Times,serif" font-size="14.00" fill="#000000">urban_area.n.01</text>
</g>
<!-- municipality.n.01&#45;&gt;urban_area.n.01 -->
<g id="edge9" class="edge">
<title>municipality.n.01&#45;&gt;urban_area.n.01</title>
<path fill="none" stroke="#000000" d="M229.0214,-504.5708C241.7438,-495.1273 257.6292,-483.3361 271.3753,-473.1328"/>
<polygon fill="#000000" stroke="#000000" points="273.6667,-475.7909 279.6103,-467.0202 269.4945,-470.1701 273.6667,-475.7909"/>
</g>
<!-- district.n.01 -->
<g id="node4" class="node">
<title>district.n.01</title>
<ellipse fill="#b2dfee" stroke="#b2dfee" cx="115.5404" cy="-378" rx="53.0913" ry="18"/>
<text text-anchor="middle" x="115.5404" y="-374.3" font-family="Times,serif" font-size="14.00" fill="#000000">district.n.01</text>
</g>
<!-- administrative_district.n.01&#45;&gt;district.n.01 -->
<g id="edge3" class="edge">
<title>administrative_district.n.01&#45;&gt;district.n.01</title>
<path fill="none" stroke="#000000" d="M110.3068,-431.8314C111.0554,-424.131 111.9456,-414.9743 112.7776,-406.4166"/>
<polygon fill="#000000" stroke="#000000" points="116.266,-406.7051 113.7502,-396.4133 109.2989,-406.0276 116.266,-406.7051"/>
</g>
<!-- region.n.03 -->
<g id="node5" class="node">
<title>region.n.03</title>
<ellipse fill="#b2dfee" stroke="#b2dfee" cx="204.5404" cy="-306" rx="51.1914" ry="18"/>
<text text-anchor="middle" x="204.5404" y="-302.3" font-family="Times,serif" font-size="14.00" fill="#000000">region.n.03</text>
</g>
<!-- district.n.01&#45;&gt;region.n.03 -->
<g id="edge4" class="edge">
<title>district.n.01&#45;&gt;region.n.03</title>
<path fill="none" stroke="#000000" d="M136.1825,-361.3008C147.977,-351.7591 162.9463,-339.6491 175.8683,-329.1954"/>
<polygon fill="#000000" stroke="#000000" points="178.437,-331.6192 184.0102,-322.6087 174.0344,-326.1771 178.437,-331.6192"/>
</g>
<!-- location.n.01 -->
<g id="node6" class="node">
<title>location.n.01</title>
<ellipse fill="#b2dfee" stroke="#b2dfee" cx="204.5404" cy="-234" rx="57.3905" ry="18"/>
<text text-anchor="middle" x="204.5404" y="-230.3" font-family="Times,serif" font-size="14.00" fill="#000000">location.n.01</text>
</g>
<!-- region.n.03&#45;&gt;location.n.01 -->
<g id="edge5" class="edge">
<title>region.n.03&#45;&gt;location.n.01</title>
<path fill="none" stroke="#000000" d="M204.5404,-287.8314C204.5404,-280.131 204.5404,-270.9743 204.5404,-262.4166"/>
<polygon fill="#000000" stroke="#000000" points="208.0405,-262.4132 204.5404,-252.4133 201.0405,-262.4133 208.0405,-262.4132"/>
</g>
<!-- object.n.01 -->
<g id="node7" class="node">
<title>object.n.01</title>
<ellipse fill="#b2dfee" stroke="#b2dfee" cx="204.5404" cy="-162" rx="50.0912" ry="18"/>
<text text-anchor="middle" x="204.5404" y="-158.3" font-family="Times,serif" font-size="14.00" fill="#000000">object.n.01</text>
</g>
<!-- location.n.01&#45;&gt;object.n.01 -->
<g id="edge6" class="edge">
<title>location.n.01&#45;&gt;object.n.01</title>
<path fill="none" stroke="#000000" d="M204.5404,-215.8314C204.5404,-208.131 204.5404,-198.9743 204.5404,-190.4166"/>
<polygon fill="#000000" stroke="#000000" points="208.0405,-190.4132 204.5404,-180.4133 201.0405,-190.4133 208.0405,-190.4132"/>
</g>
<!-- physical_entity.n.01 -->
<g id="node8" class="node">
<title>physical_entity.n.01</title>
<ellipse fill="#b2dfee" stroke="#b2dfee" cx="204.5404" cy="-90" rx="82.5854" ry="18"/>
<text text-anchor="middle" x="204.5404" y="-86.3" font-family="Times,serif" font-size="14.00" fill="#000000">physical_entity.n.01</text>
</g>
<!-- object.n.01&#45;&gt;physical_entity.n.01 -->
<g id="edge7" class="edge">
<title>object.n.01&#45;&gt;physical_entity.n.01</title>
<path fill="none" stroke="#000000" d="M204.5404,-143.8314C204.5404,-136.131 204.5404,-126.9743 204.5404,-118.4166"/>
<polygon fill="#000000" stroke="#000000" points="208.0405,-118.4132 204.5404,-108.4133 201.0405,-118.4133 208.0405,-118.4132"/>
</g>
<!-- entity.n.01 -->
<g id="node9" class="node">
<title>entity.n.01</title>
<ellipse fill="#b2dfee" stroke="#b2dfee" cx="204.5404" cy="-18" rx="48.9926" ry="18"/>
<text text-anchor="middle" x="204.5404" y="-14.3" font-family="Times,serif" font-size="14.00" fill="#000000">entity.n.01</text>
</g>
<!-- physical_entity.n.01&#45;&gt;entity.n.01 -->
<g id="edge8" class="edge">
<title>physical_entity.n.01&#45;&gt;entity.n.01</title>
<path fill="none" stroke="#000000" d="M204.5404,-71.8314C204.5404,-64.131 204.5404,-54.9743 204.5404,-46.4166"/>
<polygon fill="#000000" stroke="#000000" points="208.0405,-46.4132 204.5404,-36.4133 201.0405,-46.4133 208.0405,-46.4132"/>
</g>
<!-- geographical_area.n.01 -->
<g id="node11" class="node">
<title>geographical_area.n.01</title>
<ellipse fill="#b2dfee" stroke="#b2dfee" cx="294.5404" cy="-378" rx="92.8835" ry="18"/>
<text text-anchor="middle" x="294.5404" y="-374.3" font-family="Times,serif" font-size="14.00" fill="#000000">geographical_area.n.01</text>
</g>
<!-- urban_area.n.01&#45;&gt;geographical_area.n.01 -->
<g id="edge10" class="edge">
<title>urban_area.n.01&#45;&gt;geographical_area.n.01</title>
<path fill="none" stroke="#000000" d="M300.5216,-431.8314C299.666,-424.131 298.6486,-414.9743 297.6978,-406.4166"/>
<polygon fill="#000000" stroke="#000000" points="301.1693,-405.9656 296.5863,-396.4133 294.2121,-406.7386 301.1693,-405.9656"/>
</g>
<!-- geographical_area.n.01&#45;&gt;region.n.03 -->
<g id="edge11" class="edge">
<title>geographical_area.n.01&#45;&gt;region.n.03</title>
<path fill="none" stroke="#000000" d="M272.2932,-360.2022C260.5079,-350.774 245.897,-339.0853 233.2641,-328.979"/>
<polygon fill="#000000" stroke="#000000" points="235.2928,-326.1198 225.2977,-322.6058 230.9199,-331.5859 235.2928,-326.1198"/>
</g>
</g>
</svg>
