<?xml version="1.0" encoding="UTF-8" standalone="no"?>
<!DOCTYPE svg PUBLIC "-//W3C//DTD SVG 1.1//EN"
 "http://www.w3.org/Graphics/SVG/1.1/DTD/svg11.dtd">
<!-- Generated by graphviz version 2.40.1 (20161225.0304)
 -->
<!-- Title: unix Pages: 1 -->
<svg width="234pt" height="432pt"
 viewBox="0.00 0.00 234.00 432.00" xmlns="http://www.w3.org/2000/svg" xmlns:xlink="http://www.w3.org/1999/xlink">
<g id="graph0" class="graph" transform="scale(.7883 .7883) rotate(0) translate(4 544)">
<title>unix</title>
<polygon fill="#ffffff" stroke="transparent" points="-4,4 -4,-544 292.8368,-544 292.8368,4 -4,4"/>
<!-- clothing.n.01 -->
<g id="node1" class="node">
<title>clothing.n.01</title>
<ellipse fill="#b2dfee" stroke="#b2dfee" cx="155.0421" cy="-522" rx="57.6901" ry="18"/>
<text text-anchor="middle" x="155.0421" y="-518.3" font-family="Times,serif" font-size="14.00" fill="#000000">clothing.n.01</text>
</g>
<!-- consumer_goods.n.01 -->
<g id="node2" class="node">
<title>consumer_goods.n.01</title>
<ellipse fill="#b2dfee" stroke="#b2dfee" cx="89.0421" cy="-450" rx="89.0842" ry="18"/>
<text text-anchor="middle" x="89.0421" y="-446.3" font-family="Times,serif" font-size="14.00" fill="#000000">consumer_goods.n.01</text>
</g>
<!-- clothing.n.01&#45;&gt;consumer_goods.n.01 -->
<g id="edge1" class="edge">
<title>clothing.n.01&#45;&gt;consumer_goods.n.01</title>
<path fill="none" stroke="#000000" d="M139.0653,-504.5708C130.9978,-495.7698 121.061,-484.9297 112.1753,-475.2362"/>
<polygon fill="#000000" stroke="#000000" points="114.6676,-472.7754 105.3302,-467.7689 109.5075,-477.5055 114.6676,-472.7754"/>
</g>
<!-- covering.n.02 -->
<g id="node9" class="node">
<title>covering.n.02</title>
<ellipse fill="#b2dfee" stroke="#b2dfee" cx="229.0421" cy="-378" rx="59.5901" ry="18"/>
<text text-anchor="middle" x="229.0421" y="-374.3" font-family="Times,serif" font-size="14.00" fill="#000000">covering.n.02</text>
</g>
<!-- clothing.n.01&#45;&gt;covering.n.02 -->
<g id="edge8" class="edge">
<title>clothing.n.01&#45;&gt;covering.n.02</title>
<path fill="none" stroke="#000000" d="M166.1575,-504.2512C172.5293,-493.835 180.5293,-480.335 187.0421,-468 197.9106,-447.4155 208.9961,-423.513 217.0472,-405.5163"/>
<polygon fill="#000000" stroke="#000000" points="220.3313,-406.7445 221.1873,-396.1843 213.9327,-403.9058 220.3313,-406.7445"/>
</g>
<!-- commodity.n.01 -->
<g id="node3" class="node">
<title>commodity.n.01</title>
<ellipse fill="#b2dfee" stroke="#b2dfee" cx="82.0421" cy="-378" rx="69.5877" ry="18"/>
<text text-anchor="middle" x="82.0421" y="-374.3" font-family="Times,serif" font-size="14.00" fill="#000000">commodity.n.01</text>
</g>
<!-- consumer_goods.n.01&#45;&gt;commodity.n.01 -->
<g id="edge2" class="edge">
<title>consumer_goods.n.01&#45;&gt;commodity.n.01</title>
<path fill="none" stroke="#000000" d="M87.2757,-431.8314C86.5271,-424.131 85.6368,-414.9743 84.8048,-406.4166"/>
<polygon fill="#000000" stroke="#000000" points="88.2836,-406.0276 83.8323,-396.4133 81.3165,-406.7051 88.2836,-406.0276"/>
</g>
<!-- artifact.n.01 -->
<g id="node4" class="node">
<title>artifact.n.01</title>
<ellipse fill="#b2dfee" stroke="#b2dfee" cx="155.0421" cy="-306" rx="53.8905" ry="18"/>
<text text-anchor="middle" x="155.0421" y="-302.3" font-family="Times,serif" font-size="14.00" fill="#000000">artifact.n.01</text>
</g>
<!-- commodity.n.01&#45;&gt;artifact.n.01 -->
<g id="edge3" class="edge">
<title>commodity.n.01&#45;&gt;artifact.n.01</title>
<path fill="none" stroke="#000000" d="M99.7134,-360.5708C108.8594,-351.55 120.1775,-340.387 130.1895,-330.5121"/>
<polygon fill="#000000" stroke="#000000" points="132.8716,-332.7827 137.5336,-323.2687 127.9561,-327.799 132.8716,-332.7827"/>
</g>
<!-- whole.n.02 -->
<g id="node5" class="node">
<title>whole.n.02</title>
<ellipse fill="#b2dfee" stroke="#b2dfee" cx="155.0421" cy="-234" rx="50.0912" ry="18"/>
<text text-anchor="middle" x="155.0421" y="-230.3" font-family="Times,serif" font-size="14.00" fill="#000000">whole.n.02</text>
</g>
<!-- artifact.n.01&#45;&gt;whole.n.02 -->
<g id="edge4" class="edge">
<title>artifact.n.01&#45;&gt;whole.n.02</title>
<path fill="none" stroke="#000000" d="M155.0421,-287.8314C155.0421,-280.131 155.0421,-270.9743 155.0421,-262.4166"/>
<polygon fill="#000000" stroke="#000000" points="158.5422,-262.4132 155.0421,-252.4133 151.5422,-262.4133 158.5422,-262.4132"/>
</g>
<!-- object.n.01 -->
<g id="node6" class="node">
<title>object.n.01</title>
<ellipse fill="#b2dfee" stroke="#b2dfee" cx="155.0421" cy="-162" rx="50.0912" ry="18"/>
<text text-anchor="middle" x="155.0421" y="-158.3" font-family="Times,serif" font-size="14.00" fill="#000000">object.n.01</text>
</g>
<!-- whole.n.02&#45;&gt;object.n.01 -->
<g id="edge5" class="edge">
<title>whole.n.02&#45;&gt;object.n.01</title>
<path fill="none" stroke="#000000" d="M155.0421,-215.8314C155.0421,-208.131 155.0421,-198.9743 155.0421,-190.4166"/>
<polygon fill="#000000" stroke="#000000" points="158.5422,-190.4132 155.0421,-180.4133 151.5422,-190.4133 158.5422,-190.4132"/>
</g>
<!-- physical_entity.n.01 -->
<g id="node7" class="node">
<title>physical_entity.n.01</title>
<ellipse fill="#b2dfee" stroke="#b2dfee" cx="155.0421" cy="-90" rx="82.5854" ry="18"/>
<text text-anchor="middle" x="155.0421" y="-86.3" font-family="Times,serif" font-size="14.00" fill="#000000">physical_entity.n.01</text>
</g>
<!-- object.n.01&#45;&gt;physical_entity.n.01 -->
<g id="edge6" class="edge">
<title>object.n.01&#45;&gt;physical_entity.n.01</title>
<path fill="none" stroke="#000000" d="M155.0421,-143.8314C155.0421,-136.131 155.0421,-126.9743 155.0421,-118.4166"/>
<polygon fill="#000000" stroke="#000000" points="158.5422,-118.4132 155.0421,-108.4133 151.5422,-118.4133 158.5422,-118.4132"/>
</g>
<!-- entity.n.01 -->
<g id="node8" class="node">
<title>entity.n.01</title>
<ellipse fill="#b2dfee" stroke="#b2dfee" cx="155.0421" cy="-18" rx="48.9926" ry="18"/>
<text text-anchor="middle" x="155.0421" y="-14.3" font-family="Times,serif" font-size="14.00" fill="#000000">entity.n.01</text>
</g>
<!-- physical_entity.n.01&#45;&gt;entity.n.01 -->
<g id="edge7" class="edge">
<title>physical_entity.n.01&#45;&gt;entity.n.01</title>
<path fill="none" stroke="#000000" d="M155.0421,-71.8314C155.0421,-64.131 155.0421,-54.9743 155.0421,-46.4166"/>
<polygon fill="#000000" stroke="#000000" points="158.5422,-46.4132 155.0421,-36.4133 151.5422,-46.4133 158.5422,-46.4132"/>
</g>
<!-- covering.n.02&#45;&gt;artifact.n.01 -->
<g id="edge9" class="edge">
<title>covering.n.02&#45;&gt;artifact.n.01</title>
<path fill="none" stroke="#000000" d="M211.1288,-360.5708C201.8574,-351.55 190.3843,-340.387 180.2351,-330.5121"/>
<polygon fill="#000000" stroke="#000000" points="182.3985,-327.7337 172.7905,-323.2687 177.517,-332.7508 182.3985,-327.7337"/>
</g>
</g>
</svg>
