<?xml version="1.0" encoding="UTF-8" standalone="no"?>
<!DOCTYPE svg PUBLIC "-//W3C//DTD SVG 1.1//EN"
 "http://www.w3.org/Graphics/SVG/1.1/DTD/svg11.dtd">
<!-- Generated by graphviz version 2.40.1 (20161225.0304)
 -->
<!-- Title: unix Pages: 1 -->
<svg width="139pt" height="432pt"
 viewBox="0.00 0.00 139.39 432.00" xmlns="http://www.w3.org/2000/svg" xmlns:xlink="http://www.w3.org/1999/xlink">
<g id="graph0" class="graph" transform="scale(.9076 .9076) rotate(0) translate(4 472)">
<title>unix</title>
<polygon fill="#ffffff" stroke="transparent" points="-4,4 -4,-472 149.5871,-472 149.5871,4 -4,4"/>
<!-- expression.n.01 -->
<g id="node1" class="node">
<title>expression.n.01</title>
<ellipse fill="#b2dfee" stroke="#b2dfee" cx="72.7935" cy="-450" rx="66.0889" ry="18"/>
<text text-anchor="middle" x="72.7935" y="-446.3" font-family="Times,serif" font-size="14.00" fill="#000000">expression.n.01</text>
</g>
<!-- countenance.n.01 -->
<g id="node2" class="node">
<title>countenance.n.01</title>
<ellipse fill="#b2dfee" stroke="#b2dfee" cx="72.7935" cy="-378" rx="72.5877" ry="18"/>
<text text-anchor="middle" x="72.7935" y="-374.3" font-family="Times,serif" font-size="14.00" fill="#000000">countenance.n.01</text>
</g>
<!-- expression.n.01&#45;&gt;countenance.n.01 -->
<g id="edge1" class="edge">
<title>expression.n.01&#45;&gt;countenance.n.01</title>
<path fill="none" stroke="#000000" d="M72.7935,-431.8314C72.7935,-424.131 72.7935,-414.9743 72.7935,-406.4166"/>
<polygon fill="#000000" stroke="#000000" points="76.2936,-406.4132 72.7935,-396.4133 69.2936,-406.4133 76.2936,-406.4132"/>
</g>
<!-- appearance.n.01 -->
<g id="node3" class="node">
<title>appearance.n.01</title>
<ellipse fill="#b2dfee" stroke="#b2dfee" cx="72.7935" cy="-306" rx="68.4888" ry="18"/>
<text text-anchor="middle" x="72.7935" y="-302.3" font-family="Times,serif" font-size="14.00" fill="#000000">appearance.n.01</text>
</g>
<!-- countenance.n.01&#45;&gt;appearance.n.01 -->
<g id="edge2" class="edge">
<title>countenance.n.01&#45;&gt;appearance.n.01</title>
<path fill="none" stroke="#000000" d="M72.7935,-359.8314C72.7935,-352.131 72.7935,-342.9743 72.7935,-334.4166"/>
<polygon fill="#000000" stroke="#000000" points="76.2936,-334.4132 72.7935,-324.4133 69.2936,-334.4133 76.2936,-334.4132"/>
</g>
<!-- quality.n.01 -->
<g id="node4" class="node">
<title>quality.n.01</title>
<ellipse fill="#b2dfee" stroke="#b2dfee" cx="72.7935" cy="-234" rx="53.0913" ry="18"/>
<text text-anchor="middle" x="72.7935" y="-230.3" font-family="Times,serif" font-size="14.00" fill="#000000">quality.n.01</text>
</g>
<!-- appearance.n.01&#45;&gt;quality.n.01 -->
<g id="edge3" class="edge">
<title>appearance.n.01&#45;&gt;quality.n.01</title>
<path fill="none" stroke="#000000" d="M72.7935,-287.8314C72.7935,-280.131 72.7935,-270.9743 72.7935,-262.4166"/>
<polygon fill="#000000" stroke="#000000" points="76.2936,-262.4132 72.7935,-252.4133 69.2936,-262.4133 76.2936,-262.4132"/>
</g>
<!-- attribute.n.02 -->
<g id="node5" class="node">
<title>attribute.n.02</title>
<ellipse fill="#b2dfee" stroke="#b2dfee" cx="72.7935" cy="-162" rx="57.6901" ry="18"/>
<text text-anchor="middle" x="72.7935" y="-158.3" font-family="Times,serif" font-size="14.00" fill="#000000">attribute.n.02</text>
</g>
<!-- quality.n.01&#45;&gt;attribute.n.02 -->
<g id="edge4" class="edge">
<title>quality.n.01&#45;&gt;attribute.n.02</title>
<path fill="none" stroke="#000000" d="M72.7935,-215.8314C72.7935,-208.131 72.7935,-198.9743 72.7935,-190.4166"/>
<polygon fill="#000000" stroke="#000000" points="76.2936,-190.4132 72.7935,-180.4133 69.2936,-190.4133 76.2936,-190.4132"/>
</g>
<!-- abstraction.n.06 -->
<g id="node6" class="node">
<title>abstraction.n.06</title>
<ellipse fill="#b2dfee" stroke="#b2dfee" cx="72.7935" cy="-90" rx="67.6881" ry="18"/>
<text text-anchor="middle" x="72.7935" y="-86.3" font-family="Times,serif" font-size="14.00" fill="#000000">abstraction.n.06</text>
</g>
<!-- attribute.n.02&#45;&gt;abstraction.n.06 -->
<g id="edge5" class="edge">
<title>attribute.n.02&#45;&gt;abstraction.n.06</title>
<path fill="none" stroke="#000000" d="M72.7935,-143.8314C72.7935,-136.131 72.7935,-126.9743 72.7935,-118.4166"/>
<polygon fill="#000000" stroke="#000000" points="76.2936,-118.4132 72.7935,-108.4133 69.2936,-118.4133 76.2936,-118.4132"/>
</g>
<!-- entity.n.01 -->
<g id="node7" class="node">
<title>entity.n.01</title>
<ellipse fill="#b2dfee" stroke="#b2dfee" cx="72.7935" cy="-18" rx="48.9926" ry="18"/>
<text text-anchor="middle" x="72.7935" y="-14.3" font-family="Times,serif" font-size="14.00" fill="#000000">entity.n.01</text>
</g>
<!-- abstraction.n.06&#45;&gt;entity.n.01 -->
<g id="edge6" class="edge">
<title>abstraction.n.06&#45;&gt;entity.n.01</title>
<path fill="none" stroke="#000000" d="M72.7935,-71.8314C72.7935,-64.131 72.7935,-54.9743 72.7935,-46.4166"/>
<polygon fill="#000000" stroke="#000000" points="76.2936,-46.4132 72.7935,-36.4133 69.2936,-46.4133 76.2936,-46.4132"/>
</g>
</g>
</svg>
