<?xml version="1.0" encoding="UTF-8" standalone="no"?>
<!DOCTYPE svg PUBLIC "-//W3C//DTD SVG 1.1//EN"
 "http://www.w3.org/Graphics/SVG/1.1/DTD/svg11.dtd">
<!-- Generated by graphviz version 2.40.1 (20161225.0304)
 -->
<!-- Title: unix Pages: 1 -->
<svg width="174pt" height="432pt"
 viewBox="0.00 0.00 174.36 432.00" xmlns="http://www.w3.org/2000/svg" xmlns:xlink="http://www.w3.org/1999/xlink">
<g id="graph0" class="graph" transform="scale(.7883 .7883) rotate(0) translate(4 544)">
<title>unix</title>
<polygon fill="#ffffff" stroke="transparent" points="-4,4 -4,-544 217.1811,-544 217.1811,4 -4,4"/>
<!-- game.n.03 -->
<g id="node1" class="node">
<title>game.n.03</title>
<ellipse fill="#b2dfee" stroke="#b2dfee" cx="106.5905" cy="-522" rx="48.1917" ry="18"/>
<text text-anchor="middle" x="106.5905" y="-518.3" font-family="Times,serif" font-size="14.00" fill="#000000">game.n.03</text>
</g>
<!-- diversion.n.01 -->
<g id="node2" class="node">
<title>diversion.n.01</title>
<ellipse fill="#b2dfee" stroke="#b2dfee" cx="106.5905" cy="-450" rx="61.99" ry="18"/>
<text text-anchor="middle" x="106.5905" y="-446.3" font-family="Times,serif" font-size="14.00" fill="#000000">diversion.n.01</text>
</g>
<!-- game.n.03&#45;&gt;diversion.n.01 -->
<g id="edge1" class="edge">
<title>game.n.03&#45;&gt;diversion.n.01</title>
<path fill="none" stroke="#000000" d="M106.5905,-503.8314C106.5905,-496.131 106.5905,-486.9743 106.5905,-478.4166"/>
<polygon fill="#000000" stroke="#000000" points="110.0906,-478.4132 106.5905,-468.4133 103.0906,-478.4133 110.0906,-478.4132"/>
</g>
<!-- activity.n.01 -->
<g id="node3" class="node">
<title>activity.n.01</title>
<ellipse fill="#b2dfee" stroke="#b2dfee" cx="106.5905" cy="-378" rx="55.4913" ry="18"/>
<text text-anchor="middle" x="106.5905" y="-374.3" font-family="Times,serif" font-size="14.00" fill="#000000">activity.n.01</text>
</g>
<!-- diversion.n.01&#45;&gt;activity.n.01 -->
<g id="edge2" class="edge">
<title>diversion.n.01&#45;&gt;activity.n.01</title>
<path fill="none" stroke="#000000" d="M106.5905,-431.8314C106.5905,-424.131 106.5905,-414.9743 106.5905,-406.4166"/>
<polygon fill="#000000" stroke="#000000" points="110.0906,-406.4132 106.5905,-396.4133 103.0906,-406.4133 110.0906,-406.4132"/>
</g>
<!-- act.n.02 -->
<g id="node4" class="node">
<title>act.n.02</title>
<ellipse fill="#b2dfee" stroke="#b2dfee" cx="106.5905" cy="-306" rx="38.9931" ry="18"/>
<text text-anchor="middle" x="106.5905" y="-302.3" font-family="Times,serif" font-size="14.00" fill="#000000">act.n.02</text>
</g>
<!-- activity.n.01&#45;&gt;act.n.02 -->
<g id="edge3" class="edge">
<title>activity.n.01&#45;&gt;act.n.02</title>
<path fill="none" stroke="#000000" d="M106.5905,-359.8314C106.5905,-352.131 106.5905,-342.9743 106.5905,-334.4166"/>
<polygon fill="#000000" stroke="#000000" points="110.0906,-334.4132 106.5905,-324.4133 103.0906,-334.4133 110.0906,-334.4132"/>
</g>
<!-- event.n.01 -->
<g id="node5" class="node">
<title>event.n.01</title>
<ellipse fill="#b2dfee" stroke="#b2dfee" cx="106.5905" cy="-234" rx="48.1917" ry="18"/>
<text text-anchor="middle" x="106.5905" y="-230.3" font-family="Times,serif" font-size="14.00" fill="#000000">event.n.01</text>
</g>
<!-- act.n.02&#45;&gt;event.n.01 -->
<g id="edge4" class="edge">
<title>act.n.02&#45;&gt;event.n.01</title>
<path fill="none" stroke="#000000" d="M106.5905,-287.8314C106.5905,-280.131 106.5905,-270.9743 106.5905,-262.4166"/>
<polygon fill="#000000" stroke="#000000" points="110.0906,-262.4132 106.5905,-252.4133 103.0906,-262.4133 110.0906,-262.4132"/>
</g>
<!-- psychological_feature.n.01 -->
<g id="node6" class="node">
<title>psychological_feature.n.01</title>
<ellipse fill="#b2dfee" stroke="#b2dfee" cx="106.5905" cy="-162" rx="106.6812" ry="18"/>
<text text-anchor="middle" x="106.5905" y="-158.3" font-family="Times,serif" font-size="14.00" fill="#000000">psychological_feature.n.01</text>
</g>
<!-- event.n.01&#45;&gt;psychological_feature.n.01 -->
<g id="edge5" class="edge">
<title>event.n.01&#45;&gt;psychological_feature.n.01</title>
<path fill="none" stroke="#000000" d="M106.5905,-215.8314C106.5905,-208.131 106.5905,-198.9743 106.5905,-190.4166"/>
<polygon fill="#000000" stroke="#000000" points="110.0906,-190.4132 106.5905,-180.4133 103.0906,-190.4133 110.0906,-190.4132"/>
</g>
<!-- abstraction.n.06 -->
<g id="node7" class="node">
<title>abstraction.n.06</title>
<ellipse fill="#b2dfee" stroke="#b2dfee" cx="106.5905" cy="-90" rx="67.6881" ry="18"/>
<text text-anchor="middle" x="106.5905" y="-86.3" font-family="Times,serif" font-size="14.00" fill="#000000">abstraction.n.06</text>
</g>
<!-- psychological_feature.n.01&#45;&gt;abstraction.n.06 -->
<g id="edge6" class="edge">
<title>psychological_feature.n.01&#45;&gt;abstraction.n.06</title>
<path fill="none" stroke="#000000" d="M106.5905,-143.8314C106.5905,-136.131 106.5905,-126.9743 106.5905,-118.4166"/>
<polygon fill="#000000" stroke="#000000" points="110.0906,-118.4132 106.5905,-108.4133 103.0906,-118.4133 110.0906,-118.4132"/>
</g>
<!-- entity.n.01 -->
<g id="node8" class="node">
<title>entity.n.01</title>
<ellipse fill="#b2dfee" stroke="#b2dfee" cx="106.5905" cy="-18" rx="48.9926" ry="18"/>
<text text-anchor="middle" x="106.5905" y="-14.3" font-family="Times,serif" font-size="14.00" fill="#000000">entity.n.01</text>
</g>
<!-- abstraction.n.06&#45;&gt;entity.n.01 -->
<g id="edge7" class="edge">
<title>abstraction.n.06&#45;&gt;entity.n.01</title>
<path fill="none" stroke="#000000" d="M106.5905,-71.8314C106.5905,-64.131 106.5905,-54.9743 106.5905,-46.4166"/>
<polygon fill="#000000" stroke="#000000" points="110.0906,-46.4132 106.5905,-36.4133 103.0906,-46.4133 110.0906,-46.4132"/>
</g>
</g>
</svg>
