<?xml version="1.0" encoding="UTF-8" standalone="no"?>
<!DOCTYPE svg PUBLIC "-//W3C//DTD SVG 1.1//EN"
 "http://www.w3.org/Graphics/SVG/1.1/DTD/svg11.dtd">
<!-- Generated by graphviz version 2.40.1 (20161225.0304)
 -->
<!-- Title: unix Pages: 1 -->
<svg width="165pt" height="404pt"
 viewBox="0.00 0.00 165.29 404.00" xmlns="http://www.w3.org/2000/svg" xmlns:xlink="http://www.w3.org/1999/xlink">
<g id="graph0" class="graph" transform="scale(1 1) rotate(0) translate(4 400)">
<title>unix</title>
<polygon fill="#ffffff" stroke="transparent" points="-4,4 -4,-400 161.286,-400 161.286,4 -4,4"/>
<!-- name.n.01 -->
<g id="node1" class="node">
<title>name.n.01</title>
<ellipse fill="#b2dfee" stroke="#b2dfee" cx="78.643" cy="-378" rx="48.1917" ry="18"/>
<text text-anchor="middle" x="78.643" y="-374.3" font-family="Times,serif" font-size="14.00" fill="#000000">name.n.01</text>
</g>
<!-- language_unit.n.01 -->
<g id="node2" class="node">
<title>language_unit.n.01</title>
<ellipse fill="#b2dfee" stroke="#b2dfee" cx="78.643" cy="-306" rx="78.7863" ry="18"/>
<text text-anchor="middle" x="78.643" y="-302.3" font-family="Times,serif" font-size="14.00" fill="#000000">language_unit.n.01</text>
</g>
<!-- name.n.01&#45;&gt;language_unit.n.01 -->
<g id="edge1" class="edge">
<title>name.n.01&#45;&gt;language_unit.n.01</title>
<path fill="none" stroke="#000000" d="M78.643,-359.8314C78.643,-352.131 78.643,-342.9743 78.643,-334.4166"/>
<polygon fill="#000000" stroke="#000000" points="82.1431,-334.4132 78.643,-324.4133 75.1431,-334.4133 82.1431,-334.4132"/>
</g>
<!-- part.n.01 -->
<g id="node3" class="node">
<title>part.n.01</title>
<ellipse fill="#b2dfee" stroke="#b2dfee" cx="78.643" cy="-234" rx="42.4939" ry="18"/>
<text text-anchor="middle" x="78.643" y="-230.3" font-family="Times,serif" font-size="14.00" fill="#000000">part.n.01</text>
</g>
<!-- language_unit.n.01&#45;&gt;part.n.01 -->
<g id="edge2" class="edge">
<title>language_unit.n.01&#45;&gt;part.n.01</title>
<path fill="none" stroke="#000000" d="M78.643,-287.8314C78.643,-280.131 78.643,-270.9743 78.643,-262.4166"/>
<polygon fill="#000000" stroke="#000000" points="82.1431,-262.4132 78.643,-252.4133 75.1431,-262.4133 82.1431,-262.4132"/>
</g>
<!-- relation.n.01 -->
<g id="node4" class="node">
<title>relation.n.01</title>
<ellipse fill="#b2dfee" stroke="#b2dfee" cx="78.643" cy="-162" rx="55.7903" ry="18"/>
<text text-anchor="middle" x="78.643" y="-158.3" font-family="Times,serif" font-size="14.00" fill="#000000">relation.n.01</text>
</g>
<!-- part.n.01&#45;&gt;relation.n.01 -->
<g id="edge3" class="edge">
<title>part.n.01&#45;&gt;relation.n.01</title>
<path fill="none" stroke="#000000" d="M78.643,-215.8314C78.643,-208.131 78.643,-198.9743 78.643,-190.4166"/>
<polygon fill="#000000" stroke="#000000" points="82.1431,-190.4132 78.643,-180.4133 75.1431,-190.4133 82.1431,-190.4132"/>
</g>
<!-- abstraction.n.06 -->
<g id="node5" class="node">
<title>abstraction.n.06</title>
<ellipse fill="#b2dfee" stroke="#b2dfee" cx="78.643" cy="-90" rx="67.6881" ry="18"/>
<text text-anchor="middle" x="78.643" y="-86.3" font-family="Times,serif" font-size="14.00" fill="#000000">abstraction.n.06</text>
</g>
<!-- relation.n.01&#45;&gt;abstraction.n.06 -->
<g id="edge4" class="edge">
<title>relation.n.01&#45;&gt;abstraction.n.06</title>
<path fill="none" stroke="#000000" d="M78.643,-143.8314C78.643,-136.131 78.643,-126.9743 78.643,-118.4166"/>
<polygon fill="#000000" stroke="#000000" points="82.1431,-118.4132 78.643,-108.4133 75.1431,-118.4133 82.1431,-118.4132"/>
</g>
<!-- entity.n.01 -->
<g id="node6" class="node">
<title>entity.n.01</title>
<ellipse fill="#b2dfee" stroke="#b2dfee" cx="78.643" cy="-18" rx="48.9926" ry="18"/>
<text text-anchor="middle" x="78.643" y="-14.3" font-family="Times,serif" font-size="14.00" fill="#000000">entity.n.01</text>
</g>
<!-- abstraction.n.06&#45;&gt;entity.n.01 -->
<g id="edge5" class="edge">
<title>abstraction.n.06&#45;&gt;entity.n.01</title>
<path fill="none" stroke="#000000" d="M78.643,-71.8314C78.643,-64.131 78.643,-54.9743 78.643,-46.4166"/>
<polygon fill="#000000" stroke="#000000" points="82.1431,-46.4132 78.643,-36.4133 75.1431,-46.4133 82.1431,-46.4132"/>
</g>
</g>
</svg>
