<?xml version="1.0" encoding="UTF-8" standalone="no"?>
<!DOCTYPE svg PUBLIC "-//W3C//DTD SVG 1.1//EN"
 "http://www.w3.org/Graphics/SVG/1.1/DTD/svg11.dtd">
<!-- Generated by graphviz version 2.40.1 (20161225.0304)
 -->
<!-- Title: unix Pages: 1 -->
<svg width="157pt" height="432pt"
 viewBox="0.00 0.00 157.09 432.00" xmlns="http://www.w3.org/2000/svg" xmlns:xlink="http://www.w3.org/1999/xlink">
<g id="graph0" class="graph" transform="scale(.9076 .9076) rotate(0) translate(4 472)">
<title>unix</title>
<polygon fill="#ffffff" stroke="transparent" points="-4,4 -4,-472 169.0854,-472 169.0854,4 -4,4"/>
<!-- nature.n.03 -->
<g id="node1" class="node">
<title>nature.n.03</title>
<ellipse fill="#b2dfee" stroke="#b2dfee" cx="82.5427" cy="-450" rx="50.8918" ry="18"/>
<text text-anchor="middle" x="82.5427" y="-446.3" font-family="Times,serif" font-size="14.00" fill="#000000">nature.n.03</text>
</g>
<!-- universe.n.01 -->
<g id="node2" class="node">
<title>universe.n.01</title>
<ellipse fill="#b2dfee" stroke="#b2dfee" cx="82.5427" cy="-378" rx="58.4896" ry="18"/>
<text text-anchor="middle" x="82.5427" y="-374.3" font-family="Times,serif" font-size="14.00" fill="#000000">universe.n.01</text>
</g>
<!-- nature.n.03&#45;&gt;universe.n.01 -->
<g id="edge1" class="edge">
<title>nature.n.03&#45;&gt;universe.n.01</title>
<path fill="none" stroke="#000000" d="M82.5427,-431.8314C82.5427,-424.131 82.5427,-414.9743 82.5427,-406.4166"/>
<polygon fill="#000000" stroke="#000000" points="86.0428,-406.4132 82.5427,-396.4133 79.0428,-406.4133 86.0428,-406.4132"/>
</g>
<!-- natural_object.n.01 -->
<g id="node3" class="node">
<title>natural_object.n.01</title>
<ellipse fill="#b2dfee" stroke="#b2dfee" cx="82.5427" cy="-306" rx="79.0865" ry="18"/>
<text text-anchor="middle" x="82.5427" y="-302.3" font-family="Times,serif" font-size="14.00" fill="#000000">natural_object.n.01</text>
</g>
<!-- universe.n.01&#45;&gt;natural_object.n.01 -->
<g id="edge2" class="edge">
<title>universe.n.01&#45;&gt;natural_object.n.01</title>
<path fill="none" stroke="#000000" d="M82.5427,-359.8314C82.5427,-352.131 82.5427,-342.9743 82.5427,-334.4166"/>
<polygon fill="#000000" stroke="#000000" points="86.0428,-334.4132 82.5427,-324.4133 79.0428,-334.4133 86.0428,-334.4132"/>
</g>
<!-- whole.n.02 -->
<g id="node4" class="node">
<title>whole.n.02</title>
<ellipse fill="#b2dfee" stroke="#b2dfee" cx="82.5427" cy="-234" rx="50.0912" ry="18"/>
<text text-anchor="middle" x="82.5427" y="-230.3" font-family="Times,serif" font-size="14.00" fill="#000000">whole.n.02</text>
</g>
<!-- natural_object.n.01&#45;&gt;whole.n.02 -->
<g id="edge3" class="edge">
<title>natural_object.n.01&#45;&gt;whole.n.02</title>
<path fill="none" stroke="#000000" d="M82.5427,-287.8314C82.5427,-280.131 82.5427,-270.9743 82.5427,-262.4166"/>
<polygon fill="#000000" stroke="#000000" points="86.0428,-262.4132 82.5427,-252.4133 79.0428,-262.4133 86.0428,-262.4132"/>
</g>
<!-- object.n.01 -->
<g id="node5" class="node">
<title>object.n.01</title>
<ellipse fill="#b2dfee" stroke="#b2dfee" cx="82.5427" cy="-162" rx="50.0912" ry="18"/>
<text text-anchor="middle" x="82.5427" y="-158.3" font-family="Times,serif" font-size="14.00" fill="#000000">object.n.01</text>
</g>
<!-- whole.n.02&#45;&gt;object.n.01 -->
<g id="edge4" class="edge">
<title>whole.n.02&#45;&gt;object.n.01</title>
<path fill="none" stroke="#000000" d="M82.5427,-215.8314C82.5427,-208.131 82.5427,-198.9743 82.5427,-190.4166"/>
<polygon fill="#000000" stroke="#000000" points="86.0428,-190.4132 82.5427,-180.4133 79.0428,-190.4133 86.0428,-190.4132"/>
</g>
<!-- physical_entity.n.01 -->
<g id="node6" class="node">
<title>physical_entity.n.01</title>
<ellipse fill="#b2dfee" stroke="#b2dfee" cx="82.5427" cy="-90" rx="82.5854" ry="18"/>
<text text-anchor="middle" x="82.5427" y="-86.3" font-family="Times,serif" font-size="14.00" fill="#000000">physical_entity.n.01</text>
</g>
<!-- object.n.01&#45;&gt;physical_entity.n.01 -->
<g id="edge5" class="edge">
<title>object.n.01&#45;&gt;physical_entity.n.01</title>
<path fill="none" stroke="#000000" d="M82.5427,-143.8314C82.5427,-136.131 82.5427,-126.9743 82.5427,-118.4166"/>
<polygon fill="#000000" stroke="#000000" points="86.0428,-118.4132 82.5427,-108.4133 79.0428,-118.4133 86.0428,-118.4132"/>
</g>
<!-- entity.n.01 -->
<g id="node7" class="node">
<title>entity.n.01</title>
<ellipse fill="#b2dfee" stroke="#b2dfee" cx="82.5427" cy="-18" rx="48.9926" ry="18"/>
<text text-anchor="middle" x="82.5427" y="-14.3" font-family="Times,serif" font-size="14.00" fill="#000000">entity.n.01</text>
</g>
<!-- physical_entity.n.01&#45;&gt;entity.n.01 -->
<g id="edge6" class="edge">
<title>physical_entity.n.01&#45;&gt;entity.n.01</title>
<path fill="none" stroke="#000000" d="M82.5427,-71.8314C82.5427,-64.131 82.5427,-54.9743 82.5427,-46.4166"/>
<polygon fill="#000000" stroke="#000000" points="86.0428,-46.4132 82.5427,-36.4133 79.0428,-46.4133 86.0428,-46.4132"/>
</g>
</g>
</svg>
