<?xml version="1.0" encoding="UTF-8" standalone="no"?>
<!DOCTYPE svg PUBLIC "-//W3C//DTD SVG 1.1//EN"
 "http://www.w3.org/Graphics/SVG/1.1/DTD/svg11.dtd">
<!-- Generated by graphviz version 2.40.1 (20161225.0304)
 -->
<!-- Title: unix Pages: 1 -->
<svg width="186pt" height="332pt"
 viewBox="0.00 0.00 186.08 332.00" xmlns="http://www.w3.org/2000/svg" xmlns:xlink="http://www.w3.org/1999/xlink">
<g id="graph0" class="graph" transform="scale(1 1) rotate(0) translate(4 328)">
<title>unix</title>
<polygon fill="#ffffff" stroke="transparent" points="-4,4 -4,-328 182.0842,-328 182.0842,4 -4,4"/>
<!-- number.n.02 -->
<g id="node1" class="node">
<title>number.n.02</title>
<ellipse fill="#b2dfee" stroke="#b2dfee" cx="89.0421" cy="-306" rx="55.7903" ry="18"/>
<text text-anchor="middle" x="89.0421" y="-302.3" font-family="Times,serif" font-size="14.00" fill="#000000">number.n.02</text>
</g>
<!-- definite_quantity.n.01 -->
<g id="node2" class="node">
<title>definite_quantity.n.01</title>
<ellipse fill="#b2dfee" stroke="#b2dfee" cx="89.0421" cy="-234" rx="89.0842" ry="18"/>
<text text-anchor="middle" x="89.0421" y="-230.3" font-family="Times,serif" font-size="14.00" fill="#000000">definite_quantity.n.01</text>
</g>
<!-- number.n.02&#45;&gt;definite_quantity.n.01 -->
<g id="edge1" class="edge">
<title>number.n.02&#45;&gt;definite_quantity.n.01</title>
<path fill="none" stroke="#000000" d="M89.0421,-287.8314C89.0421,-280.131 89.0421,-270.9743 89.0421,-262.4166"/>
<polygon fill="#000000" stroke="#000000" points="92.5422,-262.4132 89.0421,-252.4133 85.5422,-262.4133 92.5422,-262.4132"/>
</g>
<!-- measure.n.02 -->
<g id="node3" class="node">
<title>measure.n.02</title>
<ellipse fill="#b2dfee" stroke="#b2dfee" cx="89.0421" cy="-162" rx="58.4896" ry="18"/>
<text text-anchor="middle" x="89.0421" y="-158.3" font-family="Times,serif" font-size="14.00" fill="#000000">measure.n.02</text>
</g>
<!-- definite_quantity.n.01&#45;&gt;measure.n.02 -->
<g id="edge2" class="edge">
<title>definite_quantity.n.01&#45;&gt;measure.n.02</title>
<path fill="none" stroke="#000000" d="M89.0421,-215.8314C89.0421,-208.131 89.0421,-198.9743 89.0421,-190.4166"/>
<polygon fill="#000000" stroke="#000000" points="92.5422,-190.4132 89.0421,-180.4133 85.5422,-190.4133 92.5422,-190.4132"/>
</g>
<!-- abstraction.n.06 -->
<g id="node4" class="node">
<title>abstraction.n.06</title>
<ellipse fill="#b2dfee" stroke="#b2dfee" cx="89.0421" cy="-90" rx="67.6881" ry="18"/>
<text text-anchor="middle" x="89.0421" y="-86.3" font-family="Times,serif" font-size="14.00" fill="#000000">abstraction.n.06</text>
</g>
<!-- measure.n.02&#45;&gt;abstraction.n.06 -->
<g id="edge3" class="edge">
<title>measure.n.02&#45;&gt;abstraction.n.06</title>
<path fill="none" stroke="#000000" d="M89.0421,-143.8314C89.0421,-136.131 89.0421,-126.9743 89.0421,-118.4166"/>
<polygon fill="#000000" stroke="#000000" points="92.5422,-118.4132 89.0421,-108.4133 85.5422,-118.4133 92.5422,-118.4132"/>
</g>
<!-- entity.n.01 -->
<g id="node5" class="node">
<title>entity.n.01</title>
<ellipse fill="#b2dfee" stroke="#b2dfee" cx="89.0421" cy="-18" rx="48.9926" ry="18"/>
<text text-anchor="middle" x="89.0421" y="-14.3" font-family="Times,serif" font-size="14.00" fill="#000000">entity.n.01</text>
</g>
<!-- abstraction.n.06&#45;&gt;entity.n.01 -->
<g id="edge4" class="edge">
<title>abstraction.n.06&#45;&gt;entity.n.01</title>
<path fill="none" stroke="#000000" d="M89.0421,-71.8314C89.0421,-64.131 89.0421,-54.9743 89.0421,-46.4166"/>
<polygon fill="#000000" stroke="#000000" points="92.5422,-46.4132 89.0421,-36.4133 85.5422,-46.4133 92.5422,-46.4132"/>
</g>
</g>
</svg>
