<?xml version="1.0" encoding="UTF-8" standalone="no"?>
<!DOCTYPE svg PUBLIC "-//W3C//DTD SVG 1.1//EN"
 "http://www.w3.org/Graphics/SVG/1.1/DTD/svg11.dtd">
<!-- Generated by graphviz version 2.40.1 (20161225.0304)
 -->
<!-- Title: unix Pages: 1 -->
<svg width="164pt" height="432pt"
 viewBox="0.00 0.00 164.11 432.00" xmlns="http://www.w3.org/2000/svg" xmlns:xlink="http://www.w3.org/1999/xlink">
<g id="graph0" class="graph" transform="scale(.5167 .5167) rotate(0) translate(4 832)">
<title>unix</title>
<polygon fill="#ffffff" stroke="transparent" points="-4,4 -4,-832 313.5871,-832 313.5871,4 -4,4"/>
<!-- parent.n.01 -->
<g id="node1" class="node">
<title>parent.n.01</title>
<ellipse fill="#b2dfee" stroke="#b2dfee" cx="156.0934" cy="-810" rx="50.8918" ry="18"/>
<text text-anchor="middle" x="156.0934" y="-806.3" font-family="Times,serif" font-size="14.00" fill="#000000">parent.n.01</text>
</g>
<!-- genitor.n.01 -->
<g id="node2" class="node">
<title>genitor.n.01</title>
<ellipse fill="#b2dfee" stroke="#b2dfee" cx="156.0934" cy="-738" rx="53.8905" ry="18"/>
<text text-anchor="middle" x="156.0934" y="-734.3" font-family="Times,serif" font-size="14.00" fill="#000000">genitor.n.01</text>
</g>
<!-- parent.n.01&#45;&gt;genitor.n.01 -->
<g id="edge1" class="edge">
<title>parent.n.01&#45;&gt;genitor.n.01</title>
<path fill="none" stroke="#000000" d="M156.0934,-791.8314C156.0934,-784.131 156.0934,-774.9743 156.0934,-766.4166"/>
<polygon fill="#000000" stroke="#000000" points="159.5935,-766.4132 156.0934,-756.4133 152.5935,-766.4133 159.5935,-766.4132"/>
</g>
<!-- progenitor.n.01 -->
<g id="node3" class="node">
<title>progenitor.n.01</title>
<ellipse fill="#b2dfee" stroke="#b2dfee" cx="156.0934" cy="-666" rx="65.7887" ry="18"/>
<text text-anchor="middle" x="156.0934" y="-662.3" font-family="Times,serif" font-size="14.00" fill="#000000">progenitor.n.01</text>
</g>
<!-- genitor.n.01&#45;&gt;progenitor.n.01 -->
<g id="edge2" class="edge">
<title>genitor.n.01&#45;&gt;progenitor.n.01</title>
<path fill="none" stroke="#000000" d="M156.0934,-719.8314C156.0934,-712.131 156.0934,-702.9743 156.0934,-694.4166"/>
<polygon fill="#000000" stroke="#000000" points="159.5935,-694.4132 156.0934,-684.4133 152.5935,-694.4133 159.5935,-694.4132"/>
</g>
<!-- ancestor.n.01 -->
<g id="node4" class="node">
<title>ancestor.n.01</title>
<ellipse fill="#b2dfee" stroke="#b2dfee" cx="156.0934" cy="-594" rx="57.6901" ry="18"/>
<text text-anchor="middle" x="156.0934" y="-590.3" font-family="Times,serif" font-size="14.00" fill="#000000">ancestor.n.01</text>
</g>
<!-- progenitor.n.01&#45;&gt;ancestor.n.01 -->
<g id="edge3" class="edge">
<title>progenitor.n.01&#45;&gt;ancestor.n.01</title>
<path fill="none" stroke="#000000" d="M156.0934,-647.8314C156.0934,-640.131 156.0934,-630.9743 156.0934,-622.4166"/>
<polygon fill="#000000" stroke="#000000" points="159.5935,-622.4132 156.0934,-612.4133 152.5935,-622.4133 159.5935,-622.4132"/>
</g>
<!-- relative.n.01 -->
<g id="node5" class="node">
<title>relative.n.01</title>
<ellipse fill="#b2dfee" stroke="#b2dfee" cx="156.0934" cy="-522" rx="55.4913" ry="18"/>
<text text-anchor="middle" x="156.0934" y="-518.3" font-family="Times,serif" font-size="14.00" fill="#000000">relative.n.01</text>
</g>
<!-- ancestor.n.01&#45;&gt;relative.n.01 -->
<g id="edge4" class="edge">
<title>ancestor.n.01&#45;&gt;relative.n.01</title>
<path fill="none" stroke="#000000" d="M156.0934,-575.8314C156.0934,-568.131 156.0934,-558.9743 156.0934,-550.4166"/>
<polygon fill="#000000" stroke="#000000" points="159.5935,-550.4132 156.0934,-540.4133 152.5935,-550.4133 159.5935,-550.4132"/>
</g>
<!-- person.n.01 -->
<g id="node6" class="node">
<title>person.n.01</title>
<ellipse fill="#b2dfee" stroke="#b2dfee" cx="156.0934" cy="-450" rx="51.9908" ry="18"/>
<text text-anchor="middle" x="156.0934" y="-446.3" font-family="Times,serif" font-size="14.00" fill="#000000">person.n.01</text>
</g>
<!-- relative.n.01&#45;&gt;person.n.01 -->
<g id="edge5" class="edge">
<title>relative.n.01&#45;&gt;person.n.01</title>
<path fill="none" stroke="#000000" d="M156.0934,-503.8314C156.0934,-496.131 156.0934,-486.9743 156.0934,-478.4166"/>
<polygon fill="#000000" stroke="#000000" points="159.5935,-478.4132 156.0934,-468.4133 152.5935,-478.4133 159.5935,-478.4132"/>
</g>
<!-- causal_agent.n.01 -->
<g id="node7" class="node">
<title>causal_agent.n.01</title>
<ellipse fill="#b2dfee" stroke="#b2dfee" cx="74.0934" cy="-306" rx="74.187" ry="18"/>
<text text-anchor="middle" x="74.0934" y="-302.3" font-family="Times,serif" font-size="14.00" fill="#000000">causal_agent.n.01</text>
</g>
<!-- person.n.01&#45;&gt;causal_agent.n.01 -->
<g id="edge6" class="edge">
<title>person.n.01&#45;&gt;causal_agent.n.01</title>
<path fill="none" stroke="#000000" d="M145.8739,-432.0535C131.695,-407.154 105.9422,-361.9295 89.446,-332.9606"/>
<polygon fill="#000000" stroke="#000000" points="92.4317,-331.1306 84.4418,-324.1727 86.3488,-334.5945 92.4317,-331.1306"/>
</g>
<!-- organism.n.01 -->
<g id="node10" class="node">
<title>organism.n.01</title>
<ellipse fill="#b2dfee" stroke="#b2dfee" cx="219.0934" cy="-378" rx="61.99" ry="18"/>
<text text-anchor="middle" x="219.0934" y="-374.3" font-family="Times,serif" font-size="14.00" fill="#000000">organism.n.01</text>
</g>
<!-- person.n.01&#45;&gt;organism.n.01 -->
<g id="edge9" class="edge">
<title>person.n.01&#45;&gt;organism.n.01</title>
<path fill="none" stroke="#000000" d="M171.344,-432.5708C179.0255,-423.7919 188.4823,-412.9841 196.9478,-403.3093"/>
<polygon fill="#000000" stroke="#000000" points="199.8139,-405.3488 203.765,-395.5182 194.5459,-400.7393 199.8139,-405.3488"/>
</g>
<!-- physical_entity.n.01 -->
<g id="node8" class="node">
<title>physical_entity.n.01</title>
<ellipse fill="#b2dfee" stroke="#b2dfee" cx="156.0934" cy="-90" rx="82.5854" ry="18"/>
<text text-anchor="middle" x="156.0934" y="-86.3" font-family="Times,serif" font-size="14.00" fill="#000000">physical_entity.n.01</text>
</g>
<!-- causal_agent.n.01&#45;&gt;physical_entity.n.01 -->
<g id="edge7" class="edge">
<title>causal_agent.n.01&#45;&gt;physical_entity.n.01</title>
<path fill="none" stroke="#000000" d="M80.9437,-287.9555C95.2936,-250.1556 128.589,-162.4506 145.6322,-117.5564"/>
<polygon fill="#000000" stroke="#000000" points="148.928,-118.7363 149.205,-108.1451 142.3837,-116.2518 148.928,-118.7363"/>
</g>
<!-- entity.n.01 -->
<g id="node9" class="node">
<title>entity.n.01</title>
<ellipse fill="#b2dfee" stroke="#b2dfee" cx="156.0934" cy="-18" rx="48.9926" ry="18"/>
<text text-anchor="middle" x="156.0934" y="-14.3" font-family="Times,serif" font-size="14.00" fill="#000000">entity.n.01</text>
</g>
<!-- physical_entity.n.01&#45;&gt;entity.n.01 -->
<g id="edge8" class="edge">
<title>physical_entity.n.01&#45;&gt;entity.n.01</title>
<path fill="none" stroke="#000000" d="M156.0934,-71.8314C156.0934,-64.131 156.0934,-54.9743 156.0934,-46.4166"/>
<polygon fill="#000000" stroke="#000000" points="159.5935,-46.4132 156.0934,-36.4133 152.5935,-46.4133 159.5935,-46.4132"/>
</g>
<!-- living_thing.n.01 -->
<g id="node11" class="node">
<title>living_thing.n.01</title>
<ellipse fill="#b2dfee" stroke="#b2dfee" cx="238.0934" cy="-306" rx="71.4873" ry="18"/>
<text text-anchor="middle" x="238.0934" y="-302.3" font-family="Times,serif" font-size="14.00" fill="#000000">living_thing.n.01</text>
</g>
<!-- organism.n.01&#45;&gt;living_thing.n.01 -->
<g id="edge10" class="edge">
<title>organism.n.01&#45;&gt;living_thing.n.01</title>
<path fill="none" stroke="#000000" d="M223.8879,-359.8314C225.9423,-352.0463 228.3895,-342.7729 230.669,-334.1347"/>
<polygon fill="#000000" stroke="#000000" points="234.0669,-334.9753 233.2344,-324.4133 227.2986,-333.1892 234.0669,-334.9753"/>
</g>
<!-- whole.n.02 -->
<g id="node12" class="node">
<title>whole.n.02</title>
<ellipse fill="#b2dfee" stroke="#b2dfee" cx="216.0934" cy="-234" rx="50.0912" ry="18"/>
<text text-anchor="middle" x="216.0934" y="-230.3" font-family="Times,serif" font-size="14.00" fill="#000000">whole.n.02</text>
</g>
<!-- living_thing.n.01&#45;&gt;whole.n.02 -->
<g id="edge11" class="edge">
<title>living_thing.n.01&#45;&gt;whole.n.02</title>
<path fill="none" stroke="#000000" d="M232.5419,-287.8314C230.1265,-279.9266 227.2423,-270.4872 224.5685,-261.7365"/>
<polygon fill="#000000" stroke="#000000" points="227.8365,-260.4541 221.567,-251.9134 221.142,-262.4997 227.8365,-260.4541"/>
</g>
<!-- object.n.01 -->
<g id="node13" class="node">
<title>object.n.01</title>
<ellipse fill="#b2dfee" stroke="#b2dfee" cx="205.0934" cy="-162" rx="50.0912" ry="18"/>
<text text-anchor="middle" x="205.0934" y="-158.3" font-family="Times,serif" font-size="14.00" fill="#000000">object.n.01</text>
</g>
<!-- whole.n.02&#45;&gt;object.n.01 -->
<g id="edge12" class="edge">
<title>whole.n.02&#45;&gt;object.n.01</title>
<path fill="none" stroke="#000000" d="M213.3177,-215.8314C212.1412,-208.131 210.7423,-198.9743 209.4349,-190.4166"/>
<polygon fill="#000000" stroke="#000000" points="212.8768,-189.7699 207.9066,-180.4133 205.957,-190.8272 212.8768,-189.7699"/>
</g>
<!-- object.n.01&#45;&gt;physical_entity.n.01 -->
<g id="edge13" class="edge">
<title>object.n.01&#45;&gt;physical_entity.n.01</title>
<path fill="none" stroke="#000000" d="M192.9811,-144.2022C187.2683,-135.8079 180.336,-125.6218 174.03,-116.3558"/>
<polygon fill="#000000" stroke="#000000" points="176.7561,-114.1405 168.2363,-107.8425 170.9691,-118.0789 176.7561,-114.1405"/>
</g>
</g>
</svg>
