<?xml version="1.0" encoding="UTF-8" standalone="no"?>
<!DOCTYPE svg PUBLIC "-//W3C//DTD SVG 1.1//EN"
 "http://www.w3.org/Graphics/SVG/1.1/DTD/svg11.dtd">
<!-- Generated by graphviz version 2.40.1 (20161225.0304)
 -->
<!-- Title: unix Pages: 1 -->
<svg width="187pt" height="432pt"
 viewBox="0.00 0.00 186.58 432.00" xmlns="http://www.w3.org/2000/svg" xmlns:xlink="http://www.w3.org/1999/xlink">
<g id="graph0" class="graph" transform="scale(.9076 .9076) rotate(0) translate(4 472)">
<title>unix</title>
<polygon fill="#ffffff" stroke="transparent" points="-4,4 -4,-472 201.5825,-472 201.5825,4 -4,4"/>
<!-- profession.n.01 -->
<g id="node1" class="node">
<title>profession.n.01</title>
<ellipse fill="#b2dfee" stroke="#b2dfee" cx="98.7912" cy="-450" rx="65.7887" ry="18"/>
<text text-anchor="middle" x="98.7912" y="-446.3" font-family="Times,serif" font-size="14.00" fill="#000000">profession.n.01</text>
</g>
<!-- occupational_group.n.01 -->
<g id="node2" class="node">
<title>occupational_group.n.01</title>
<ellipse fill="#b2dfee" stroke="#b2dfee" cx="98.7912" cy="-378" rx="98.5829" ry="18"/>
<text text-anchor="middle" x="98.7912" y="-374.3" font-family="Times,serif" font-size="14.00" fill="#000000">occupational_group.n.01</text>
</g>
<!-- profession.n.01&#45;&gt;occupational_group.n.01 -->
<g id="edge1" class="edge">
<title>profession.n.01&#45;&gt;occupational_group.n.01</title>
<path fill="none" stroke="#000000" d="M98.7912,-431.8314C98.7912,-424.131 98.7912,-414.9743 98.7912,-406.4166"/>
<polygon fill="#000000" stroke="#000000" points="102.2913,-406.4132 98.7912,-396.4133 95.2913,-406.4133 102.2913,-406.4132"/>
</g>
<!-- body.n.02 -->
<g id="node3" class="node">
<title>body.n.02</title>
<ellipse fill="#b2dfee" stroke="#b2dfee" cx="98.7912" cy="-306" rx="46.2923" ry="18"/>
<text text-anchor="middle" x="98.7912" y="-302.3" font-family="Times,serif" font-size="14.00" fill="#000000">body.n.02</text>
</g>
<!-- occupational_group.n.01&#45;&gt;body.n.02 -->
<g id="edge2" class="edge">
<title>occupational_group.n.01&#45;&gt;body.n.02</title>
<path fill="none" stroke="#000000" d="M98.7912,-359.8314C98.7912,-352.131 98.7912,-342.9743 98.7912,-334.4166"/>
<polygon fill="#000000" stroke="#000000" points="102.2913,-334.4132 98.7912,-324.4133 95.2913,-334.4133 102.2913,-334.4132"/>
</g>
<!-- social_group.n.01 -->
<g id="node4" class="node">
<title>social_group.n.01</title>
<ellipse fill="#b2dfee" stroke="#b2dfee" cx="98.7912" cy="-234" rx="74.187" ry="18"/>
<text text-anchor="middle" x="98.7912" y="-230.3" font-family="Times,serif" font-size="14.00" fill="#000000">social_group.n.01</text>
</g>
<!-- body.n.02&#45;&gt;social_group.n.01 -->
<g id="edge3" class="edge">
<title>body.n.02&#45;&gt;social_group.n.01</title>
<path fill="none" stroke="#000000" d="M98.7912,-287.8314C98.7912,-280.131 98.7912,-270.9743 98.7912,-262.4166"/>
<polygon fill="#000000" stroke="#000000" points="102.2913,-262.4132 98.7912,-252.4133 95.2913,-262.4133 102.2913,-262.4132"/>
</g>
<!-- group.n.01 -->
<g id="node5" class="node">
<title>group.n.01</title>
<ellipse fill="#b2dfee" stroke="#b2dfee" cx="98.7912" cy="-162" rx="49.2915" ry="18"/>
<text text-anchor="middle" x="98.7912" y="-158.3" font-family="Times,serif" font-size="14.00" fill="#000000">group.n.01</text>
</g>
<!-- social_group.n.01&#45;&gt;group.n.01 -->
<g id="edge4" class="edge">
<title>social_group.n.01&#45;&gt;group.n.01</title>
<path fill="none" stroke="#000000" d="M98.7912,-215.8314C98.7912,-208.131 98.7912,-198.9743 98.7912,-190.4166"/>
<polygon fill="#000000" stroke="#000000" points="102.2913,-190.4132 98.7912,-180.4133 95.2913,-190.4133 102.2913,-190.4132"/>
</g>
<!-- abstraction.n.06 -->
<g id="node6" class="node">
<title>abstraction.n.06</title>
<ellipse fill="#b2dfee" stroke="#b2dfee" cx="98.7912" cy="-90" rx="67.6881" ry="18"/>
<text text-anchor="middle" x="98.7912" y="-86.3" font-family="Times,serif" font-size="14.00" fill="#000000">abstraction.n.06</text>
</g>
<!-- group.n.01&#45;&gt;abstraction.n.06 -->
<g id="edge5" class="edge">
<title>group.n.01&#45;&gt;abstraction.n.06</title>
<path fill="none" stroke="#000000" d="M98.7912,-143.8314C98.7912,-136.131 98.7912,-126.9743 98.7912,-118.4166"/>
<polygon fill="#000000" stroke="#000000" points="102.2913,-118.4132 98.7912,-108.4133 95.2913,-118.4133 102.2913,-118.4132"/>
</g>
<!-- entity.n.01 -->
<g id="node7" class="node">
<title>entity.n.01</title>
<ellipse fill="#b2dfee" stroke="#b2dfee" cx="98.7912" cy="-18" rx="48.9926" ry="18"/>
<text text-anchor="middle" x="98.7912" y="-14.3" font-family="Times,serif" font-size="14.00" fill="#000000">entity.n.01</text>
</g>
<!-- abstraction.n.06&#45;&gt;entity.n.01 -->
<g id="edge6" class="edge">
<title>abstraction.n.06&#45;&gt;entity.n.01</title>
<path fill="none" stroke="#000000" d="M98.7912,-71.8314C98.7912,-64.131 98.7912,-54.9743 98.7912,-46.4166"/>
<polygon fill="#000000" stroke="#000000" points="102.2913,-46.4132 98.7912,-36.4133 95.2913,-46.4133 102.2913,-46.4132"/>
</g>
</g>
</svg>
