<?xml version="1.0" encoding="UTF-8" standalone="no"?>
<!DOCTYPE svg PUBLIC "-//W3C//DTD SVG 1.1//EN"
 "http://www.w3.org/Graphics/SVG/1.1/DTD/svg11.dtd">
<!-- Generated by graphviz version 2.40.1 (20161225.0304)
 -->
<!-- Title: unix Pages: 1 -->
<svg width="204pt" height="404pt"
 viewBox="0.00 0.00 204.28 404.00" xmlns="http://www.w3.org/2000/svg" xmlns:xlink="http://www.w3.org/1999/xlink">
<g id="graph0" class="graph" transform="scale(1 1) rotate(0) translate(4 400)">
<title>unix</title>
<polygon fill="#ffffff" stroke="transparent" points="-4,4 -4,-400 200.2826,-400 200.2826,4 -4,4"/>
<!-- psychological_state.n.01 -->
<g id="node1" class="node">
<title>psychological_state.n.01</title>
<ellipse fill="#b2dfee" stroke="#b2dfee" cx="98.1413" cy="-378" rx="98.2828" ry="18"/>
<text text-anchor="middle" x="98.1413" y="-374.3" font-family="Times,serif" font-size="14.00" fill="#000000">psychological_state.n.01</text>
</g>
<!-- condition.n.01 -->
<g id="node2" class="node">
<title>condition.n.01</title>
<ellipse fill="#b2dfee" stroke="#b2dfee" cx="98.1413" cy="-306" rx="61.99" ry="18"/>
<text text-anchor="middle" x="98.1413" y="-302.3" font-family="Times,serif" font-size="14.00" fill="#000000">condition.n.01</text>
</g>
<!-- psychological_state.n.01&#45;&gt;condition.n.01 -->
<g id="edge1" class="edge">
<title>psychological_state.n.01&#45;&gt;condition.n.01</title>
<path fill="none" stroke="#000000" d="M98.1413,-359.8314C98.1413,-352.131 98.1413,-342.9743 98.1413,-334.4166"/>
<polygon fill="#000000" stroke="#000000" points="101.6414,-334.4132 98.1413,-324.4133 94.6414,-334.4133 101.6414,-334.4132"/>
</g>
<!-- state.n.02 -->
<g id="node3" class="node">
<title>state.n.02</title>
<ellipse fill="#b2dfee" stroke="#b2dfee" cx="98.1413" cy="-234" rx="44.6926" ry="18"/>
<text text-anchor="middle" x="98.1413" y="-230.3" font-family="Times,serif" font-size="14.00" fill="#000000">state.n.02</text>
</g>
<!-- condition.n.01&#45;&gt;state.n.02 -->
<g id="edge2" class="edge">
<title>condition.n.01&#45;&gt;state.n.02</title>
<path fill="none" stroke="#000000" d="M98.1413,-287.8314C98.1413,-280.131 98.1413,-270.9743 98.1413,-262.4166"/>
<polygon fill="#000000" stroke="#000000" points="101.6414,-262.4132 98.1413,-252.4133 94.6414,-262.4133 101.6414,-262.4132"/>
</g>
<!-- attribute.n.02 -->
<g id="node4" class="node">
<title>attribute.n.02</title>
<ellipse fill="#b2dfee" stroke="#b2dfee" cx="98.1413" cy="-162" rx="57.6901" ry="18"/>
<text text-anchor="middle" x="98.1413" y="-158.3" font-family="Times,serif" font-size="14.00" fill="#000000">attribute.n.02</text>
</g>
<!-- state.n.02&#45;&gt;attribute.n.02 -->
<g id="edge3" class="edge">
<title>state.n.02&#45;&gt;attribute.n.02</title>
<path fill="none" stroke="#000000" d="M98.1413,-215.8314C98.1413,-208.131 98.1413,-198.9743 98.1413,-190.4166"/>
<polygon fill="#000000" stroke="#000000" points="101.6414,-190.4132 98.1413,-180.4133 94.6414,-190.4133 101.6414,-190.4132"/>
</g>
<!-- abstraction.n.06 -->
<g id="node5" class="node">
<title>abstraction.n.06</title>
<ellipse fill="#b2dfee" stroke="#b2dfee" cx="98.1413" cy="-90" rx="67.6881" ry="18"/>
<text text-anchor="middle" x="98.1413" y="-86.3" font-family="Times,serif" font-size="14.00" fill="#000000">abstraction.n.06</text>
</g>
<!-- attribute.n.02&#45;&gt;abstraction.n.06 -->
<g id="edge4" class="edge">
<title>attribute.n.02&#45;&gt;abstraction.n.06</title>
<path fill="none" stroke="#000000" d="M98.1413,-143.8314C98.1413,-136.131 98.1413,-126.9743 98.1413,-118.4166"/>
<polygon fill="#000000" stroke="#000000" points="101.6414,-118.4132 98.1413,-108.4133 94.6414,-118.4133 101.6414,-118.4132"/>
</g>
<!-- entity.n.01 -->
<g id="node6" class="node">
<title>entity.n.01</title>
<ellipse fill="#b2dfee" stroke="#b2dfee" cx="98.1413" cy="-18" rx="48.9926" ry="18"/>
<text text-anchor="middle" x="98.1413" y="-14.3" font-family="Times,serif" font-size="14.00" fill="#000000">entity.n.01</text>
</g>
<!-- abstraction.n.06&#45;&gt;entity.n.01 -->
<g id="edge5" class="edge">
<title>abstraction.n.06&#45;&gt;entity.n.01</title>
<path fill="none" stroke="#000000" d="M98.1413,-71.8314C98.1413,-64.131 98.1413,-54.9743 98.1413,-46.4166"/>
<polygon fill="#000000" stroke="#000000" points="101.6414,-46.4132 98.1413,-36.4133 94.6414,-46.4133 101.6414,-46.4132"/>
</g>
</g>
</svg>
