<?xml version="1.0" encoding="UTF-8" standalone="no"?>
<!DOCTYPE svg PUBLIC "-//W3C//DTD SVG 1.1//EN"
 "http://www.w3.org/Graphics/SVG/1.1/DTD/svg11.dtd">
<!-- Generated by graphviz version 2.40.1 (20161225.0304)
 -->
<!-- Title: unix Pages: 1 -->
<svg width="141pt" height="432pt"
 viewBox="0.00 0.00 140.57 432.00" xmlns="http://www.w3.org/2000/svg" xmlns:xlink="http://www.w3.org/1999/xlink">
<g id="graph0" class="graph" transform="scale(.9076 .9076) rotate(0) translate(4 472)">
<title>unix</title>
<polygon fill="#ffffff" stroke="transparent" points="-4,4 -4,-472 150.887,-472 150.887,4 -4,4"/>
<!-- sequence.n.01 -->
<g id="node1" class="node">
<title>sequence.n.01</title>
<ellipse fill="#b2dfee" stroke="#b2dfee" cx="73.4435" cy="-450" rx="61.1893" ry="18"/>
<text text-anchor="middle" x="73.4435" y="-446.3" font-family="Times,serif" font-size="14.00" fill="#000000">sequence.n.01</text>
</g>
<!-- series.n.01 -->
<g id="node2" class="node">
<title>series.n.01</title>
<ellipse fill="#b2dfee" stroke="#b2dfee" cx="73.4435" cy="-378" rx="48.9926" ry="18"/>
<text text-anchor="middle" x="73.4435" y="-374.3" font-family="Times,serif" font-size="14.00" fill="#000000">series.n.01</text>
</g>
<!-- sequence.n.01&#45;&gt;series.n.01 -->
<g id="edge1" class="edge">
<title>sequence.n.01&#45;&gt;series.n.01</title>
<path fill="none" stroke="#000000" d="M73.4435,-431.8314C73.4435,-424.131 73.4435,-414.9743 73.4435,-406.4166"/>
<polygon fill="#000000" stroke="#000000" points="76.9436,-406.4132 73.4435,-396.4133 69.9436,-406.4133 76.9436,-406.4132"/>
</g>
<!-- ordering.n.01 -->
<g id="node3" class="node">
<title>ordering.n.01</title>
<ellipse fill="#b2dfee" stroke="#b2dfee" cx="73.4435" cy="-306" rx="58.4896" ry="18"/>
<text text-anchor="middle" x="73.4435" y="-302.3" font-family="Times,serif" font-size="14.00" fill="#000000">ordering.n.01</text>
</g>
<!-- series.n.01&#45;&gt;ordering.n.01 -->
<g id="edge2" class="edge">
<title>series.n.01&#45;&gt;ordering.n.01</title>
<path fill="none" stroke="#000000" d="M73.4435,-359.8314C73.4435,-352.131 73.4435,-342.9743 73.4435,-334.4166"/>
<polygon fill="#000000" stroke="#000000" points="76.9436,-334.4132 73.4435,-324.4133 69.9436,-334.4133 76.9436,-334.4132"/>
</g>
<!-- arrangement.n.02 -->
<g id="node4" class="node">
<title>arrangement.n.02</title>
<ellipse fill="#b2dfee" stroke="#b2dfee" cx="73.4435" cy="-234" rx="73.387" ry="18"/>
<text text-anchor="middle" x="73.4435" y="-230.3" font-family="Times,serif" font-size="14.00" fill="#000000">arrangement.n.02</text>
</g>
<!-- ordering.n.01&#45;&gt;arrangement.n.02 -->
<g id="edge3" class="edge">
<title>ordering.n.01&#45;&gt;arrangement.n.02</title>
<path fill="none" stroke="#000000" d="M73.4435,-287.8314C73.4435,-280.131 73.4435,-270.9743 73.4435,-262.4166"/>
<polygon fill="#000000" stroke="#000000" points="76.9436,-262.4132 73.4435,-252.4133 69.9436,-262.4133 76.9436,-262.4132"/>
</g>
<!-- group.n.01 -->
<g id="node5" class="node">
<title>group.n.01</title>
<ellipse fill="#b2dfee" stroke="#b2dfee" cx="73.4435" cy="-162" rx="49.2915" ry="18"/>
<text text-anchor="middle" x="73.4435" y="-158.3" font-family="Times,serif" font-size="14.00" fill="#000000">group.n.01</text>
</g>
<!-- arrangement.n.02&#45;&gt;group.n.01 -->
<g id="edge4" class="edge">
<title>arrangement.n.02&#45;&gt;group.n.01</title>
<path fill="none" stroke="#000000" d="M73.4435,-215.8314C73.4435,-208.131 73.4435,-198.9743 73.4435,-190.4166"/>
<polygon fill="#000000" stroke="#000000" points="76.9436,-190.4132 73.4435,-180.4133 69.9436,-190.4133 76.9436,-190.4132"/>
</g>
<!-- abstraction.n.06 -->
<g id="node6" class="node">
<title>abstraction.n.06</title>
<ellipse fill="#b2dfee" stroke="#b2dfee" cx="73.4435" cy="-90" rx="67.6881" ry="18"/>
<text text-anchor="middle" x="73.4435" y="-86.3" font-family="Times,serif" font-size="14.00" fill="#000000">abstraction.n.06</text>
</g>
<!-- group.n.01&#45;&gt;abstraction.n.06 -->
<g id="edge5" class="edge">
<title>group.n.01&#45;&gt;abstraction.n.06</title>
<path fill="none" stroke="#000000" d="M73.4435,-143.8314C73.4435,-136.131 73.4435,-126.9743 73.4435,-118.4166"/>
<polygon fill="#000000" stroke="#000000" points="76.9436,-118.4132 73.4435,-108.4133 69.9436,-118.4133 76.9436,-118.4132"/>
</g>
<!-- entity.n.01 -->
<g id="node7" class="node">
<title>entity.n.01</title>
<ellipse fill="#b2dfee" stroke="#b2dfee" cx="73.4435" cy="-18" rx="48.9926" ry="18"/>
<text text-anchor="middle" x="73.4435" y="-14.3" font-family="Times,serif" font-size="14.00" fill="#000000">entity.n.01</text>
</g>
<!-- abstraction.n.06&#45;&gt;entity.n.01 -->
<g id="edge6" class="edge">
<title>abstraction.n.06&#45;&gt;entity.n.01</title>
<path fill="none" stroke="#000000" d="M73.4435,-71.8314C73.4435,-64.131 73.4435,-54.9743 73.4435,-46.4166"/>
<polygon fill="#000000" stroke="#000000" points="76.9436,-46.4132 73.4435,-36.4133 69.9436,-46.4133 76.9436,-46.4132"/>
</g>
</g>
</svg>
