<?xml version="1.0" encoding="UTF-8" standalone="no"?>
<!DOCTYPE svg PUBLIC "-//W3C//DTD SVG 1.1//EN"
 "http://www.w3.org/Graphics/SVG/1.1/DTD/svg11.dtd">
<!-- Generated by graphviz version 2.40.1 (20161225.0304)
 -->
<!-- Title: unix Pages: 1 -->
<svg width="177pt" height="432pt"
 viewBox="0.00 0.00 177.44 432.00" xmlns="http://www.w3.org/2000/svg" xmlns:xlink="http://www.w3.org/1999/xlink">
<g id="graph0" class="graph" transform="scale(.7883 .7883) rotate(0) translate(4 544)">
<title>unix</title>
<polygon fill="#ffffff" stroke="transparent" points="-4,4 -4,-544 221.0807,-544 221.0807,4 -4,4"/>
<!-- state.n.01 -->
<g id="node1" class="node">
<title>state.n.01</title>
<ellipse fill="#b2dfee" stroke="#b2dfee" cx="108.5404" cy="-522" rx="44.6926" ry="18"/>
<text text-anchor="middle" x="108.5404" y="-518.3" font-family="Times,serif" font-size="14.00" fill="#000000">state.n.01</text>
</g>
<!-- administrative_district.n.01 -->
<g id="node2" class="node">
<title>administrative_district.n.01</title>
<ellipse fill="#b2dfee" stroke="#b2dfee" cx="108.5404" cy="-450" rx="108.5808" ry="18"/>
<text text-anchor="middle" x="108.5404" y="-446.3" font-family="Times,serif" font-size="14.00" fill="#000000">administrative_district.n.01</text>
</g>
<!-- state.n.01&#45;&gt;administrative_district.n.01 -->
<g id="edge1" class="edge">
<title>state.n.01&#45;&gt;administrative_district.n.01</title>
<path fill="none" stroke="#000000" d="M108.5404,-503.8314C108.5404,-496.131 108.5404,-486.9743 108.5404,-478.4166"/>
<polygon fill="#000000" stroke="#000000" points="112.0405,-478.4132 108.5404,-468.4133 105.0405,-478.4133 112.0405,-478.4132"/>
</g>
<!-- district.n.01 -->
<g id="node3" class="node">
<title>district.n.01</title>
<ellipse fill="#b2dfee" stroke="#b2dfee" cx="108.5404" cy="-378" rx="53.0913" ry="18"/>
<text text-anchor="middle" x="108.5404" y="-374.3" font-family="Times,serif" font-size="14.00" fill="#000000">district.n.01</text>
</g>
<!-- administrative_district.n.01&#45;&gt;district.n.01 -->
<g id="edge2" class="edge">
<title>administrative_district.n.01&#45;&gt;district.n.01</title>
<path fill="none" stroke="#000000" d="M108.5404,-431.8314C108.5404,-424.131 108.5404,-414.9743 108.5404,-406.4166"/>
<polygon fill="#000000" stroke="#000000" points="112.0405,-406.4132 108.5404,-396.4133 105.0405,-406.4133 112.0405,-406.4132"/>
</g>
<!-- region.n.03 -->
<g id="node4" class="node">
<title>region.n.03</title>
<ellipse fill="#b2dfee" stroke="#b2dfee" cx="108.5404" cy="-306" rx="51.1914" ry="18"/>
<text text-anchor="middle" x="108.5404" y="-302.3" font-family="Times,serif" font-size="14.00" fill="#000000">region.n.03</text>
</g>
<!-- district.n.01&#45;&gt;region.n.03 -->
<g id="edge3" class="edge">
<title>district.n.01&#45;&gt;region.n.03</title>
<path fill="none" stroke="#000000" d="M108.5404,-359.8314C108.5404,-352.131 108.5404,-342.9743 108.5404,-334.4166"/>
<polygon fill="#000000" stroke="#000000" points="112.0405,-334.4132 108.5404,-324.4133 105.0405,-334.4133 112.0405,-334.4132"/>
</g>
<!-- location.n.01 -->
<g id="node5" class="node">
<title>location.n.01</title>
<ellipse fill="#b2dfee" stroke="#b2dfee" cx="108.5404" cy="-234" rx="57.3905" ry="18"/>
<text text-anchor="middle" x="108.5404" y="-230.3" font-family="Times,serif" font-size="14.00" fill="#000000">location.n.01</text>
</g>
<!-- region.n.03&#45;&gt;location.n.01 -->
<g id="edge4" class="edge">
<title>region.n.03&#45;&gt;location.n.01</title>
<path fill="none" stroke="#000000" d="M108.5404,-287.8314C108.5404,-280.131 108.5404,-270.9743 108.5404,-262.4166"/>
<polygon fill="#000000" stroke="#000000" points="112.0405,-262.4132 108.5404,-252.4133 105.0405,-262.4133 112.0405,-262.4132"/>
</g>
<!-- object.n.01 -->
<g id="node6" class="node">
<title>object.n.01</title>
<ellipse fill="#b2dfee" stroke="#b2dfee" cx="108.5404" cy="-162" rx="50.0912" ry="18"/>
<text text-anchor="middle" x="108.5404" y="-158.3" font-family="Times,serif" font-size="14.00" fill="#000000">object.n.01</text>
</g>
<!-- location.n.01&#45;&gt;object.n.01 -->
<g id="edge5" class="edge">
<title>location.n.01&#45;&gt;object.n.01</title>
<path fill="none" stroke="#000000" d="M108.5404,-215.8314C108.5404,-208.131 108.5404,-198.9743 108.5404,-190.4166"/>
<polygon fill="#000000" stroke="#000000" points="112.0405,-190.4132 108.5404,-180.4133 105.0405,-190.4133 112.0405,-190.4132"/>
</g>
<!-- physical_entity.n.01 -->
<g id="node7" class="node">
<title>physical_entity.n.01</title>
<ellipse fill="#b2dfee" stroke="#b2dfee" cx="108.5404" cy="-90" rx="82.5854" ry="18"/>
<text text-anchor="middle" x="108.5404" y="-86.3" font-family="Times,serif" font-size="14.00" fill="#000000">physical_entity.n.01</text>
</g>
<!-- object.n.01&#45;&gt;physical_entity.n.01 -->
<g id="edge6" class="edge">
<title>object.n.01&#45;&gt;physical_entity.n.01</title>
<path fill="none" stroke="#000000" d="M108.5404,-143.8314C108.5404,-136.131 108.5404,-126.9743 108.5404,-118.4166"/>
<polygon fill="#000000" stroke="#000000" points="112.0405,-118.4132 108.5404,-108.4133 105.0405,-118.4133 112.0405,-118.4132"/>
</g>
<!-- entity.n.01 -->
<g id="node8" class="node">
<title>entity.n.01</title>
<ellipse fill="#b2dfee" stroke="#b2dfee" cx="108.5404" cy="-18" rx="48.9926" ry="18"/>
<text text-anchor="middle" x="108.5404" y="-14.3" font-family="Times,serif" font-size="14.00" fill="#000000">entity.n.01</text>
</g>
<!-- physical_entity.n.01&#45;&gt;entity.n.01 -->
<g id="edge7" class="edge">
<title>physical_entity.n.01&#45;&gt;entity.n.01</title>
<path fill="none" stroke="#000000" d="M108.5404,-71.8314C108.5404,-64.131 108.5404,-54.9743 108.5404,-46.4166"/>
<polygon fill="#000000" stroke="#000000" points="112.0405,-46.4132 108.5404,-36.4133 105.0405,-46.4133 112.0405,-46.4132"/>
</g>
</g>
</svg>
