<?xml version="1.0" encoding="UTF-8" standalone="no"?>
<!DOCTYPE svg PUBLIC "-//W3C//DTD SVG 1.1//EN"
 "http://www.w3.org/Graphics/SVG/1.1/DTD/svg11.dtd">
<!-- Generated by graphviz version 2.40.1 (20161225.0304)
 -->
<!-- Title: unix Pages: 1 -->
<svg width="123pt" height="432pt"
 viewBox="0.00 0.00 123.32 432.00" xmlns="http://www.w3.org/2000/svg" xmlns:xlink="http://www.w3.org/1999/xlink">
<g id="graph0" class="graph" transform="scale(.6968 .6968) rotate(0) translate(4 616)">
<title>unix</title>
<polygon fill="#ffffff" stroke="transparent" points="-4,4 -4,-616 172.985,-616 172.985,4 -4,4"/>
<!-- associate_in_nursing -->
<g id="node1" class="node">
<title>associate_in_nursing</title>
<ellipse fill="#b2dfee" stroke="#b2dfee" cx="84.4925" cy="-594" rx="84.485" ry="18"/>
<text text-anchor="middle" x="84.4925" y="-590.3" font-family="Times,serif" font-size="14.00" fill="#000000">associate_in_nursing</text>
</g>
<!-- associate_degree -->
<g id="node2" class="node">
<title>associate_degree</title>
<ellipse fill="#b2dfee" stroke="#b2dfee" cx="84.4925" cy="-522" rx="70.3881" ry="18"/>
<text text-anchor="middle" x="84.4925" y="-518.3" font-family="Times,serif" font-size="14.00" fill="#000000">associate_degree</text>
</g>
<!-- associate_in_nursing&#45;&gt;associate_degree -->
<g id="edge1" class="edge">
<title>associate_in_nursing&#45;&gt;associate_degree</title>
<path fill="none" stroke="#000000" d="M84.4925,-575.8314C84.4925,-568.131 84.4925,-558.9743 84.4925,-550.4166"/>
<polygon fill="#000000" stroke="#000000" points="87.9926,-550.4132 84.4925,-540.4133 80.9926,-550.4133 87.9926,-550.4132"/>
</g>
<!-- academic_degree -->
<g id="node3" class="node">
<title>academic_degree</title>
<ellipse fill="#b2dfee" stroke="#b2dfee" cx="84.4925" cy="-450" rx="72.2875" ry="18"/>
<text text-anchor="middle" x="84.4925" y="-446.3" font-family="Times,serif" font-size="14.00" fill="#000000">academic_degree</text>
</g>
<!-- associate_degree&#45;&gt;academic_degree -->
<g id="edge2" class="edge">
<title>associate_degree&#45;&gt;academic_degree</title>
<path fill="none" stroke="#000000" d="M84.4925,-503.8314C84.4925,-496.131 84.4925,-486.9743 84.4925,-478.4166"/>
<polygon fill="#000000" stroke="#000000" points="87.9926,-478.4132 84.4925,-468.4133 80.9926,-478.4133 87.9926,-478.4132"/>
</g>
<!-- award -->
<g id="node4" class="node">
<title>award</title>
<ellipse fill="#b2dfee" stroke="#b2dfee" cx="84.4925" cy="-378" rx="32.4942" ry="18"/>
<text text-anchor="middle" x="84.4925" y="-374.3" font-family="Times,serif" font-size="14.00" fill="#000000">award</text>
</g>
<!-- academic_degree&#45;&gt;award -->
<g id="edge3" class="edge">
<title>academic_degree&#45;&gt;award</title>
<path fill="none" stroke="#000000" d="M84.4925,-431.8314C84.4925,-424.131 84.4925,-414.9743 84.4925,-406.4166"/>
<polygon fill="#000000" stroke="#000000" points="87.9926,-406.4132 84.4925,-396.4133 80.9926,-406.4133 87.9926,-406.4132"/>
</g>
<!-- symbol -->
<g id="node5" class="node">
<title>symbol</title>
<ellipse fill="#b2dfee" stroke="#b2dfee" cx="84.4925" cy="-306" rx="37.0935" ry="18"/>
<text text-anchor="middle" x="84.4925" y="-302.3" font-family="Times,serif" font-size="14.00" fill="#000000">symbol</text>
</g>
<!-- award&#45;&gt;symbol -->
<g id="edge4" class="edge">
<title>award&#45;&gt;symbol</title>
<path fill="none" stroke="#000000" d="M84.4925,-359.8314C84.4925,-352.131 84.4925,-342.9743 84.4925,-334.4166"/>
<polygon fill="#000000" stroke="#000000" points="87.9926,-334.4132 84.4925,-324.4133 80.9926,-334.4133 87.9926,-334.4132"/>
</g>
<!-- signal -->
<g id="node6" class="node">
<title>signal</title>
<ellipse fill="#b2dfee" stroke="#b2dfee" cx="84.4925" cy="-234" rx="31.6951" ry="18"/>
<text text-anchor="middle" x="84.4925" y="-230.3" font-family="Times,serif" font-size="14.00" fill="#000000">signal</text>
</g>
<!-- symbol&#45;&gt;signal -->
<g id="edge5" class="edge">
<title>symbol&#45;&gt;signal</title>
<path fill="none" stroke="#000000" d="M84.4925,-287.8314C84.4925,-280.131 84.4925,-270.9743 84.4925,-262.4166"/>
<polygon fill="#000000" stroke="#000000" points="87.9926,-262.4132 84.4925,-252.4133 80.9926,-262.4133 87.9926,-262.4132"/>
</g>
<!-- communication -->
<g id="node7" class="node">
<title>communication</title>
<ellipse fill="#b2dfee" stroke="#b2dfee" cx="84.4925" cy="-162" rx="66.0889" ry="18"/>
<text text-anchor="middle" x="84.4925" y="-158.3" font-family="Times,serif" font-size="14.00" fill="#000000">communication</text>
</g>
<!-- signal&#45;&gt;communication -->
<g id="edge6" class="edge">
<title>signal&#45;&gt;communication</title>
<path fill="none" stroke="#000000" d="M84.4925,-215.8314C84.4925,-208.131 84.4925,-198.9743 84.4925,-190.4166"/>
<polygon fill="#000000" stroke="#000000" points="87.9926,-190.4132 84.4925,-180.4133 80.9926,-190.4133 87.9926,-190.4132"/>
</g>
<!-- abstraction -->
<g id="node8" class="node">
<title>abstraction</title>
<ellipse fill="#b2dfee" stroke="#b2dfee" cx="84.4925" cy="-90" rx="49.2915" ry="18"/>
<text text-anchor="middle" x="84.4925" y="-86.3" font-family="Times,serif" font-size="14.00" fill="#000000">abstraction</text>
</g>
<!-- communication&#45;&gt;abstraction -->
<g id="edge7" class="edge">
<title>communication&#45;&gt;abstraction</title>
<path fill="none" stroke="#000000" d="M84.4925,-143.8314C84.4925,-136.131 84.4925,-126.9743 84.4925,-118.4166"/>
<polygon fill="#000000" stroke="#000000" points="87.9926,-118.4132 84.4925,-108.4133 80.9926,-118.4133 87.9926,-118.4132"/>
</g>
<!-- entity -->
<g id="node9" class="node">
<title>entity</title>
<ellipse fill="#b2dfee" stroke="#b2dfee" cx="84.4925" cy="-18" rx="30.5947" ry="18"/>
<text text-anchor="middle" x="84.4925" y="-14.3" font-family="Times,serif" font-size="14.00" fill="#000000">entity</text>
</g>
<!-- abstraction&#45;&gt;entity -->
<g id="edge8" class="edge">
<title>abstraction&#45;&gt;entity</title>
<path fill="none" stroke="#000000" d="M84.4925,-71.8314C84.4925,-64.131 84.4925,-54.9743 84.4925,-46.4166"/>
<polygon fill="#000000" stroke="#000000" points="87.9926,-46.4132 84.4925,-36.4133 80.9926,-46.4133 87.9926,-46.4132"/>
</g>
</g>
</svg>
