<?xml version="1.0" encoding="UTF-8" standalone="no"?>
<!DOCTYPE svg PUBLIC "-//W3C//DTD SVG 1.1//EN"
 "http://www.w3.org/Graphics/SVG/1.1/DTD/svg11.dtd">
<!-- Generated by graphviz version 2.40.1 (20161225.0304)
 -->
<!-- Title: unix Pages: 1 -->
<svg width="98pt" height="432pt"
 viewBox="0.00 0.00 97.50 432.00" xmlns="http://www.w3.org/2000/svg" xmlns:xlink="http://www.w3.org/1999/xlink">
<g id="graph0" class="graph" transform="scale(.5167 .5167) rotate(0) translate(4 832)">
<title>unix</title>
<polygon fill="#ffffff" stroke="transparent" points="-4,4 -4,-832 184.684,-832 184.684,4 -4,4"/>
<!-- ant -->
<g id="node1" class="node">
<title>ant</title>
<ellipse fill="#b2dfee" stroke="#b2dfee" cx="90.342" cy="-810" rx="27" ry="18"/>
<text text-anchor="middle" x="90.342" y="-806.3" font-family="Times,serif" font-size="14.00" fill="#000000">ant</text>
</g>
<!-- hymenopterous_insect -->
<g id="node2" class="node">
<title>hymenopterous_insect</title>
<ellipse fill="#b2dfee" stroke="#b2dfee" cx="90.342" cy="-738" rx="90.1842" ry="18"/>
<text text-anchor="middle" x="90.342" y="-734.3" font-family="Times,serif" font-size="14.00" fill="#000000">hymenopterous_insect</text>
</g>
<!-- ant&#45;&gt;hymenopterous_insect -->
<g id="edge1" class="edge">
<title>ant&#45;&gt;hymenopterous_insect</title>
<path fill="none" stroke="#000000" d="M90.342,-791.8314C90.342,-784.131 90.342,-774.9743 90.342,-766.4166"/>
<polygon fill="#000000" stroke="#000000" points="93.8421,-766.4132 90.342,-756.4133 86.8421,-766.4133 93.8421,-766.4132"/>
</g>
<!-- insect -->
<g id="node3" class="node">
<title>insect</title>
<ellipse fill="#b2dfee" stroke="#b2dfee" cx="90.342" cy="-666" rx="31.3957" ry="18"/>
<text text-anchor="middle" x="90.342" y="-662.3" font-family="Times,serif" font-size="14.00" fill="#000000">insect</text>
</g>
<!-- hymenopterous_insect&#45;&gt;insect -->
<g id="edge2" class="edge">
<title>hymenopterous_insect&#45;&gt;insect</title>
<path fill="none" stroke="#000000" d="M90.342,-719.8314C90.342,-712.131 90.342,-702.9743 90.342,-694.4166"/>
<polygon fill="#000000" stroke="#000000" points="93.8421,-694.4132 90.342,-684.4133 86.8421,-694.4133 93.8421,-694.4132"/>
</g>
<!-- arthropod -->
<g id="node4" class="node">
<title>arthropod</title>
<ellipse fill="#b2dfee" stroke="#b2dfee" cx="90.342" cy="-594" rx="44.6926" ry="18"/>
<text text-anchor="middle" x="90.342" y="-590.3" font-family="Times,serif" font-size="14.00" fill="#000000">arthropod</text>
</g>
<!-- insect&#45;&gt;arthropod -->
<g id="edge3" class="edge">
<title>insect&#45;&gt;arthropod</title>
<path fill="none" stroke="#000000" d="M90.342,-647.8314C90.342,-640.131 90.342,-630.9743 90.342,-622.4166"/>
<polygon fill="#000000" stroke="#000000" points="93.8421,-622.4132 90.342,-612.4133 86.8421,-622.4133 93.8421,-622.4132"/>
</g>
<!-- invertebrate -->
<g id="node5" class="node">
<title>invertebrate</title>
<ellipse fill="#b2dfee" stroke="#b2dfee" cx="90.342" cy="-522" rx="52.7911" ry="18"/>
<text text-anchor="middle" x="90.342" y="-518.3" font-family="Times,serif" font-size="14.00" fill="#000000">invertebrate</text>
</g>
<!-- arthropod&#45;&gt;invertebrate -->
<g id="edge4" class="edge">
<title>arthropod&#45;&gt;invertebrate</title>
<path fill="none" stroke="#000000" d="M90.342,-575.8314C90.342,-568.131 90.342,-558.9743 90.342,-550.4166"/>
<polygon fill="#000000" stroke="#000000" points="93.8421,-550.4132 90.342,-540.4133 86.8421,-550.4133 93.8421,-550.4132"/>
</g>
<!-- animal -->
<g id="node6" class="node">
<title>animal</title>
<ellipse fill="#b2dfee" stroke="#b2dfee" cx="90.342" cy="-450" rx="35.194" ry="18"/>
<text text-anchor="middle" x="90.342" y="-446.3" font-family="Times,serif" font-size="14.00" fill="#000000">animal</text>
</g>
<!-- invertebrate&#45;&gt;animal -->
<g id="edge5" class="edge">
<title>invertebrate&#45;&gt;animal</title>
<path fill="none" stroke="#000000" d="M90.342,-503.8314C90.342,-496.131 90.342,-486.9743 90.342,-478.4166"/>
<polygon fill="#000000" stroke="#000000" points="93.8421,-478.4132 90.342,-468.4133 86.8421,-478.4133 93.8421,-478.4132"/>
</g>
<!-- organism -->
<g id="node7" class="node">
<title>organism</title>
<ellipse fill="#b2dfee" stroke="#b2dfee" cx="90.342" cy="-378" rx="44.393" ry="18"/>
<text text-anchor="middle" x="90.342" y="-374.3" font-family="Times,serif" font-size="14.00" fill="#000000">organism</text>
</g>
<!-- animal&#45;&gt;organism -->
<g id="edge6" class="edge">
<title>animal&#45;&gt;organism</title>
<path fill="none" stroke="#000000" d="M90.342,-431.8314C90.342,-424.131 90.342,-414.9743 90.342,-406.4166"/>
<polygon fill="#000000" stroke="#000000" points="93.8421,-406.4132 90.342,-396.4133 86.8421,-406.4133 93.8421,-406.4132"/>
</g>
<!-- living_thing -->
<g id="node8" class="node">
<title>living_thing</title>
<ellipse fill="#b2dfee" stroke="#b2dfee" cx="90.342" cy="-306" rx="53.8905" ry="18"/>
<text text-anchor="middle" x="90.342" y="-302.3" font-family="Times,serif" font-size="14.00" fill="#000000">living_thing</text>
</g>
<!-- organism&#45;&gt;living_thing -->
<g id="edge7" class="edge">
<title>organism&#45;&gt;living_thing</title>
<path fill="none" stroke="#000000" d="M90.342,-359.8314C90.342,-352.131 90.342,-342.9743 90.342,-334.4166"/>
<polygon fill="#000000" stroke="#000000" points="93.8421,-334.4132 90.342,-324.4133 86.8421,-334.4133 93.8421,-334.4132"/>
</g>
<!-- whole -->
<g id="node9" class="node">
<title>whole</title>
<ellipse fill="#b2dfee" stroke="#b2dfee" cx="90.342" cy="-234" rx="32.4942" ry="18"/>
<text text-anchor="middle" x="90.342" y="-230.3" font-family="Times,serif" font-size="14.00" fill="#000000">whole</text>
</g>
<!-- living_thing&#45;&gt;whole -->
<g id="edge8" class="edge">
<title>living_thing&#45;&gt;whole</title>
<path fill="none" stroke="#000000" d="M90.342,-287.8314C90.342,-280.131 90.342,-270.9743 90.342,-262.4166"/>
<polygon fill="#000000" stroke="#000000" points="93.8421,-262.4132 90.342,-252.4133 86.8421,-262.4133 93.8421,-262.4132"/>
</g>
<!-- object -->
<g id="node10" class="node">
<title>object</title>
<ellipse fill="#b2dfee" stroke="#b2dfee" cx="90.342" cy="-162" rx="32.4942" ry="18"/>
<text text-anchor="middle" x="90.342" y="-158.3" font-family="Times,serif" font-size="14.00" fill="#000000">object</text>
</g>
<!-- whole&#45;&gt;object -->
<g id="edge9" class="edge">
<title>whole&#45;&gt;object</title>
<path fill="none" stroke="#000000" d="M90.342,-215.8314C90.342,-208.131 90.342,-198.9743 90.342,-190.4166"/>
<polygon fill="#000000" stroke="#000000" points="93.8421,-190.4132 90.342,-180.4133 86.8421,-190.4133 93.8421,-190.4132"/>
</g>
<!-- physical_entity -->
<g id="node11" class="node">
<title>physical_entity</title>
<ellipse fill="#b2dfee" stroke="#b2dfee" cx="90.342" cy="-90" rx="64.189" ry="18"/>
<text text-anchor="middle" x="90.342" y="-86.3" font-family="Times,serif" font-size="14.00" fill="#000000">physical_entity</text>
</g>
<!-- object&#45;&gt;physical_entity -->
<g id="edge10" class="edge">
<title>object&#45;&gt;physical_entity</title>
<path fill="none" stroke="#000000" d="M90.342,-143.8314C90.342,-136.131 90.342,-126.9743 90.342,-118.4166"/>
<polygon fill="#000000" stroke="#000000" points="93.8421,-118.4132 90.342,-108.4133 86.8421,-118.4133 93.8421,-118.4132"/>
</g>
<!-- entity -->
<g id="node12" class="node">
<title>entity</title>
<ellipse fill="#b2dfee" stroke="#b2dfee" cx="90.342" cy="-18" rx="30.5947" ry="18"/>
<text text-anchor="middle" x="90.342" y="-14.3" font-family="Times,serif" font-size="14.00" fill="#000000">entity</text>
</g>
<!-- physical_entity&#45;&gt;entity -->
<g id="edge11" class="edge">
<title>physical_entity&#45;&gt;entity</title>
<path fill="none" stroke="#000000" d="M90.342,-71.8314C90.342,-64.131 90.342,-54.9743 90.342,-46.4166"/>
<polygon fill="#000000" stroke="#000000" points="93.8421,-46.4132 90.342,-36.4133 86.8421,-46.4133 93.8421,-46.4132"/>
</g>
</g>
</svg>
