<?xml version="1.0" encoding="UTF-8" standalone="no"?>
<!DOCTYPE svg PUBLIC "-//W3C//DTD SVG 1.1//EN"
 "http://www.w3.org/Graphics/SVG/1.1/DTD/svg11.dtd">
<!-- Generated by graphviz version 2.40.1 (20161225.0304)
 -->
<!-- Title: unix Pages: 1 -->
<svg width="161pt" height="432pt"
 viewBox="0.00 0.00 160.78 432.00" xmlns="http://www.w3.org/2000/svg" xmlns:xlink="http://www.w3.org/1999/xlink">
<g id="graph0" class="graph" transform="scale(.5654 .5654) rotate(0) translate(4 760)">
<title>unix</title>
<polygon fill="#ffffff" stroke="transparent" points="-4,4 -4,-760 280.3385,-760 280.3385,4 -4,4"/>
<!-- apple -->
<g id="node1" class="node">
<title>apple</title>
<ellipse fill="#b2dfee" stroke="#b2dfee" cx="163.342" cy="-738" rx="29.795" ry="18"/>
<text text-anchor="middle" x="163.342" y="-734.3" font-family="Times,serif" font-size="14.00" fill="#000000">apple</text>
</g>
<!-- edible_fruit -->
<g id="node2" class="node">
<title>edible_fruit</title>
<ellipse fill="#b2dfee" stroke="#b2dfee" cx="214.342" cy="-666" rx="51.9908" ry="18"/>
<text text-anchor="middle" x="214.342" y="-662.3" font-family="Times,serif" font-size="14.00" fill="#000000">edible_fruit</text>
</g>
<!-- apple&#45;&gt;edible_fruit -->
<g id="edge1" class="edge">
<title>apple&#45;&gt;edible_fruit</title>
<path fill="none" stroke="#000000" d="M175.1706,-721.3008C181.361,-712.5614 189.0776,-701.6674 196.021,-691.8649"/>
<polygon fill="#000000" stroke="#000000" points="198.9419,-693.7965 201.866,-683.6132 193.2297,-689.7504 198.9419,-693.7965"/>
</g>
<!-- pome -->
<g id="node16" class="node">
<title>pome</title>
<ellipse fill="#b2dfee" stroke="#b2dfee" cx="113.342" cy="-666" rx="30.5947" ry="18"/>
<text text-anchor="middle" x="113.342" y="-662.3" font-family="Times,serif" font-size="14.00" fill="#000000">pome</text>
</g>
<!-- apple&#45;&gt;pome -->
<g id="edge16" class="edge">
<title>apple&#45;&gt;pome</title>
<path fill="none" stroke="#000000" d="M151.7453,-721.3008C145.587,-712.4329 137.8882,-701.3465 131.0039,-691.4332"/>
<polygon fill="#000000" stroke="#000000" points="133.8018,-689.326 125.223,-683.1086 128.0522,-693.3188 133.8018,-689.326"/>
</g>
<!-- fruit -->
<g id="node3" class="node">
<title>fruit</title>
<ellipse fill="#b2dfee" stroke="#b2dfee" cx="113.342" cy="-594" rx="27" ry="18"/>
<text text-anchor="middle" x="113.342" y="-590.3" font-family="Times,serif" font-size="14.00" fill="#000000">fruit</text>
</g>
<!-- edible_fruit&#45;&gt;fruit -->
<g id="edge2" class="edge">
<title>edible_fruit&#45;&gt;fruit</title>
<path fill="none" stroke="#000000" d="M191.4235,-649.6621C176.2002,-638.8098 156.153,-624.5188 140.1838,-613.1347"/>
<polygon fill="#000000" stroke="#000000" points="141.9625,-610.1045 131.788,-607.1496 137.8991,-615.8044 141.9625,-610.1045"/>
</g>
<!-- produce -->
<g id="node12" class="node">
<title>produce</title>
<ellipse fill="#b2dfee" stroke="#b2dfee" cx="237.342" cy="-522" rx="38.9931" ry="18"/>
<text text-anchor="middle" x="237.342" y="-518.3" font-family="Times,serif" font-size="14.00" fill="#000000">produce</text>
</g>
<!-- edible_fruit&#45;&gt;produce -->
<g id="edge11" class="edge">
<title>edible_fruit&#45;&gt;produce</title>
<path fill="none" stroke="#000000" d="M217.2549,-647.7623C221.1952,-623.0928 228.2602,-578.8598 232.8741,-549.9731"/>
<polygon fill="#000000" stroke="#000000" points="236.3315,-550.5165 234.4527,-540.0896 229.4192,-549.4124 236.3315,-550.5165"/>
</g>
<!-- reproductive_structure -->
<g id="node4" class="node">
<title>reproductive_structure</title>
<ellipse fill="#b2dfee" stroke="#b2dfee" cx="90.342" cy="-522" rx="90.1842" ry="18"/>
<text text-anchor="middle" x="90.342" y="-518.3" font-family="Times,serif" font-size="14.00" fill="#000000">reproductive_structure</text>
</g>
<!-- fruit&#45;&gt;reproductive_structure -->
<g id="edge3" class="edge">
<title>fruit&#45;&gt;reproductive_structure</title>
<path fill="none" stroke="#000000" d="M107.6566,-576.2022C105.105,-568.2146 102.0351,-558.6045 99.1934,-549.7087"/>
<polygon fill="#000000" stroke="#000000" points="102.4988,-548.5538 96.1217,-540.0931 95.8307,-550.684 102.4988,-548.5538"/>
</g>
<!-- plant_organ -->
<g id="node5" class="node">
<title>plant_organ</title>
<ellipse fill="#b2dfee" stroke="#b2dfee" cx="107.342" cy="-450" rx="52.7911" ry="18"/>
<text text-anchor="middle" x="107.342" y="-446.3" font-family="Times,serif" font-size="14.00" fill="#000000">plant_organ</text>
</g>
<!-- reproductive_structure&#45;&gt;plant_organ -->
<g id="edge4" class="edge">
<title>reproductive_structure&#45;&gt;plant_organ</title>
<path fill="none" stroke="#000000" d="M94.6318,-503.8314C96.45,-496.131 98.6119,-486.9743 100.6325,-478.4166"/>
<polygon fill="#000000" stroke="#000000" points="104.1027,-478.95 102.9944,-468.4133 97.2901,-477.3414 104.1027,-478.95"/>
</g>
<!-- plant_part -->
<g id="node6" class="node">
<title>plant_part</title>
<ellipse fill="#b2dfee" stroke="#b2dfee" cx="115.342" cy="-378" rx="46.2923" ry="18"/>
<text text-anchor="middle" x="115.342" y="-374.3" font-family="Times,serif" font-size="14.00" fill="#000000">plant_part</text>
</g>
<!-- plant_organ&#45;&gt;plant_part -->
<g id="edge5" class="edge">
<title>plant_organ&#45;&gt;plant_part</title>
<path fill="none" stroke="#000000" d="M109.3607,-431.8314C110.2163,-424.131 111.2337,-414.9743 112.1846,-406.4166"/>
<polygon fill="#000000" stroke="#000000" points="115.6703,-406.7386 113.2961,-396.4133 108.7131,-405.9656 115.6703,-406.7386"/>
</g>
<!-- natural_object -->
<g id="node7" class="node">
<title>natural_object</title>
<ellipse fill="#b2dfee" stroke="#b2dfee" cx="119.342" cy="-306" rx="61.1893" ry="18"/>
<text text-anchor="middle" x="119.342" y="-302.3" font-family="Times,serif" font-size="14.00" fill="#000000">natural_object</text>
</g>
<!-- plant_part&#45;&gt;natural_object -->
<g id="edge6" class="edge">
<title>plant_part&#45;&gt;natural_object</title>
<path fill="none" stroke="#000000" d="M116.3514,-359.8314C116.7792,-352.131 117.2879,-342.9743 117.7633,-334.4166"/>
<polygon fill="#000000" stroke="#000000" points="121.2588,-334.592 118.319,-324.4133 114.2696,-334.2037 121.2588,-334.592"/>
</g>
<!-- whole -->
<g id="node8" class="node">
<title>whole</title>
<ellipse fill="#b2dfee" stroke="#b2dfee" cx="145.342" cy="-234" rx="32.4942" ry="18"/>
<text text-anchor="middle" x="145.342" y="-230.3" font-family="Times,serif" font-size="14.00" fill="#000000">whole</text>
</g>
<!-- natural_object&#45;&gt;whole -->
<g id="edge7" class="edge">
<title>natural_object&#45;&gt;whole</title>
<path fill="none" stroke="#000000" d="M125.9029,-287.8314C128.7884,-279.8406 132.2402,-270.2819 135.429,-261.4514"/>
<polygon fill="#000000" stroke="#000000" points="138.7687,-262.5077 138.8733,-251.9134 132.1848,-260.1302 138.7687,-262.5077"/>
</g>
<!-- object -->
<g id="node9" class="node">
<title>object</title>
<ellipse fill="#b2dfee" stroke="#b2dfee" cx="158.342" cy="-162" rx="32.4942" ry="18"/>
<text text-anchor="middle" x="158.342" y="-158.3" font-family="Times,serif" font-size="14.00" fill="#000000">object</text>
</g>
<!-- whole&#45;&gt;object -->
<g id="edge8" class="edge">
<title>whole&#45;&gt;object</title>
<path fill="none" stroke="#000000" d="M148.6224,-215.8314C150.0342,-208.0125 151.717,-198.6923 153.2824,-190.0221"/>
<polygon fill="#000000" stroke="#000000" points="156.775,-190.3762 155.1076,-179.9134 149.8864,-189.1324 156.775,-190.3762"/>
</g>
<!-- physical_entity -->
<g id="node10" class="node">
<title>physical_entity</title>
<ellipse fill="#b2dfee" stroke="#b2dfee" cx="188.342" cy="-90" rx="64.189" ry="18"/>
<text text-anchor="middle" x="188.342" y="-86.3" font-family="Times,serif" font-size="14.00" fill="#000000">physical_entity</text>
</g>
<!-- object&#45;&gt;physical_entity -->
<g id="edge9" class="edge">
<title>object&#45;&gt;physical_entity</title>
<path fill="none" stroke="#000000" d="M165.7577,-144.2022C169.1217,-136.1287 173.1763,-126.3976 176.9162,-117.422"/>
<polygon fill="#000000" stroke="#000000" points="180.1877,-118.6701 180.8032,-108.0931 173.7262,-115.9777 180.1877,-118.6701"/>
</g>
<!-- entity -->
<g id="node11" class="node">
<title>entity</title>
<ellipse fill="#b2dfee" stroke="#b2dfee" cx="188.342" cy="-18" rx="30.5947" ry="18"/>
<text text-anchor="middle" x="188.342" y="-14.3" font-family="Times,serif" font-size="14.00" fill="#000000">entity</text>
</g>
<!-- physical_entity&#45;&gt;entity -->
<g id="edge10" class="edge">
<title>physical_entity&#45;&gt;entity</title>
<path fill="none" stroke="#000000" d="M188.342,-71.8314C188.342,-64.131 188.342,-54.9743 188.342,-46.4166"/>
<polygon fill="#000000" stroke="#000000" points="191.8421,-46.4132 188.342,-36.4133 184.8421,-46.4133 191.8421,-46.4132"/>
</g>
<!-- food -->
<g id="node13" class="node">
<title>food</title>
<ellipse fill="#b2dfee" stroke="#b2dfee" cx="236.342" cy="-450" rx="27" ry="18"/>
<text text-anchor="middle" x="236.342" y="-446.3" font-family="Times,serif" font-size="14.00" fill="#000000">food</text>
</g>
<!-- produce&#45;&gt;food -->
<g id="edge12" class="edge">
<title>produce&#45;&gt;food</title>
<path fill="none" stroke="#000000" d="M237.0896,-503.8314C236.9827,-496.131 236.8555,-486.9743 236.7367,-478.4166"/>
<polygon fill="#000000" stroke="#000000" points="240.2364,-478.3637 236.5977,-468.4133 233.237,-478.4609 240.2364,-478.3637"/>
</g>
<!-- solid -->
<g id="node14" class="node">
<title>solid</title>
<ellipse fill="#b2dfee" stroke="#b2dfee" cx="235.342" cy="-378" rx="27.8951" ry="18"/>
<text text-anchor="middle" x="235.342" y="-374.3" font-family="Times,serif" font-size="14.00" fill="#000000">solid</text>
</g>
<!-- food&#45;&gt;solid -->
<g id="edge13" class="edge">
<title>food&#45;&gt;solid</title>
<path fill="none" stroke="#000000" d="M236.0896,-431.8314C235.9827,-424.131 235.8555,-414.9743 235.7367,-406.4166"/>
<polygon fill="#000000" stroke="#000000" points="239.2364,-406.3637 235.5977,-396.4133 232.237,-406.4609 239.2364,-406.3637"/>
</g>
<!-- matter -->
<g id="node15" class="node">
<title>matter</title>
<ellipse fill="#b2dfee" stroke="#b2dfee" cx="234.342" cy="-306" rx="33.5952" ry="18"/>
<text text-anchor="middle" x="234.342" y="-302.3" font-family="Times,serif" font-size="14.00" fill="#000000">matter</text>
</g>
<!-- solid&#45;&gt;matter -->
<g id="edge14" class="edge">
<title>solid&#45;&gt;matter</title>
<path fill="none" stroke="#000000" d="M235.0896,-359.8314C234.9827,-352.131 234.8555,-342.9743 234.7367,-334.4166"/>
<polygon fill="#000000" stroke="#000000" points="238.2364,-334.3637 234.5977,-324.4133 231.237,-334.4609 238.2364,-334.3637"/>
</g>
<!-- matter&#45;&gt;physical_entity -->
<g id="edge15" class="edge">
<title>matter&#45;&gt;physical_entity</title>
<path fill="none" stroke="#000000" d="M230.4992,-287.9555C222.483,-250.3144 203.928,-163.1867 194.3315,-118.1246"/>
<polygon fill="#000000" stroke="#000000" points="197.7124,-117.1967 192.2062,-108.1451 190.866,-118.6548 197.7124,-117.1967"/>
</g>
<!-- pome&#45;&gt;fruit -->
<g id="edge17" class="edge">
<title>pome&#45;&gt;fruit</title>
<path fill="none" stroke="#000000" d="M113.342,-647.8314C113.342,-640.131 113.342,-630.9743 113.342,-622.4166"/>
<polygon fill="#000000" stroke="#000000" points="116.8421,-622.4132 113.342,-612.4133 109.8421,-622.4133 116.8421,-622.4132"/>
</g>
</g>
</svg>
