<?xml version="1.0" encoding="UTF-8" standalone="no"?>
<!DOCTYPE svg PUBLIC "-//W3C//DTD SVG 1.1//EN"
 "http://www.w3.org/Graphics/SVG/1.1/DTD/svg11.dtd">
<!-- Generated by graphviz version 2.40.1 (20161225.0304)
 -->
<!-- Title: unix Pages: 1 -->
<svg width="126pt" height="260pt"
 viewBox="0.00 0.00 126.29 260.00" xmlns="http://www.w3.org/2000/svg" xmlns:xlink="http://www.w3.org/1999/xlink">
<g id="graph0" class="graph" transform="scale(1 1) rotate(0) translate(4 256)">
<title>unix</title>
<polygon fill="#ffffff" stroke="transparent" points="-4,4 -4,-256 122.2895,-256 122.2895,4 -4,4"/>
<!-- ask -->
<g id="node1" class="node">
<title>ask</title>
<ellipse fill="#b2dfee" stroke="#b2dfee" cx="59.1448" cy="-234" rx="27" ry="18"/>
<text text-anchor="middle" x="59.1448" y="-230.3" font-family="Times,serif" font-size="14.00" fill="#000000">ask</text>
</g>
<!-- communicate -->
<g id="node2" class="node">
<title>communicate</title>
<ellipse fill="#b2dfee" stroke="#b2dfee" cx="59.1448" cy="-162" rx="59.2899" ry="18"/>
<text text-anchor="middle" x="59.1448" y="-158.3" font-family="Times,serif" font-size="14.00" fill="#000000">communicate</text>
</g>
<!-- ask&#45;&gt;communicate -->
<g id="edge1" class="edge">
<title>ask&#45;&gt;communicate</title>
<path fill="none" stroke="#000000" d="M59.1448,-215.8314C59.1448,-208.131 59.1448,-198.9743 59.1448,-190.4166"/>
<polygon fill="#000000" stroke="#000000" points="62.6449,-190.4132 59.1448,-180.4133 55.6449,-190.4133 62.6449,-190.4132"/>
</g>
<!-- interact -->
<g id="node3" class="node">
<title>interact</title>
<ellipse fill="#b2dfee" stroke="#b2dfee" cx="59.1448" cy="-90" rx="37.0935" ry="18"/>
<text text-anchor="middle" x="59.1448" y="-86.3" font-family="Times,serif" font-size="14.00" fill="#000000">interact</text>
</g>
<!-- communicate&#45;&gt;interact -->
<g id="edge2" class="edge">
<title>communicate&#45;&gt;interact</title>
<path fill="none" stroke="#000000" d="M59.1448,-143.8314C59.1448,-136.131 59.1448,-126.9743 59.1448,-118.4166"/>
<polygon fill="#000000" stroke="#000000" points="62.6449,-118.4132 59.1448,-108.4133 55.6449,-118.4133 62.6449,-118.4132"/>
</g>
<!-- act -->
<g id="node4" class="node">
<title>act</title>
<ellipse fill="#b2dfee" stroke="#b2dfee" cx="59.1448" cy="-18" rx="27" ry="18"/>
<text text-anchor="middle" x="59.1448" y="-14.3" font-family="Times,serif" font-size="14.00" fill="#000000">act</text>
</g>
<!-- interact&#45;&gt;act -->
<g id="edge3" class="edge">
<title>interact&#45;&gt;act</title>
<path fill="none" stroke="#000000" d="M59.1448,-71.8314C59.1448,-64.131 59.1448,-54.9743 59.1448,-46.4166"/>
<polygon fill="#000000" stroke="#000000" points="62.6449,-46.4132 59.1448,-36.4133 55.6449,-46.4133 62.6449,-46.4132"/>
</g>
</g>
</svg>
