<?xml version="1.0" encoding="UTF-8" standalone="no"?>
<!DOCTYPE svg PUBLIC "-//W3C//DTD SVG 1.1//EN"
 "http://www.w3.org/Graphics/SVG/1.1/DTD/svg11.dtd">
<!-- Generated by graphviz version 2.40.1 (20161225.0304)
 -->
<!-- Title: unix Pages: 1 -->
<svg width="251pt" height="432pt"
 viewBox="0.00 0.00 251.11 432.00" xmlns="http://www.w3.org/2000/svg" xmlns:xlink="http://www.w3.org/1999/xlink">
<g id="graph0" class="graph" transform="scale(.9076 .9076) rotate(0) translate(4 472)">
<title>unix</title>
<polygon fill="#ffffff" stroke="transparent" points="-4,4 -4,-472 272.6909,-472 272.6909,4 -4,4"/>
<!-- astatine -->
<g id="node1" class="node">
<title>astatine</title>
<ellipse fill="#b2dfee" stroke="#b2dfee" cx="178.3443" cy="-450" rx="37.8943" ry="18"/>
<text text-anchor="middle" x="178.3443" y="-446.3" font-family="Times,serif" font-size="14.00" fill="#000000">astatine</text>
</g>
<!-- chemical_element -->
<g id="node2" class="node">
<title>chemical_element</title>
<ellipse fill="#b2dfee" stroke="#b2dfee" cx="127.3443" cy="-378" rx="75.2868" ry="18"/>
<text text-anchor="middle" x="127.3443" y="-374.3" font-family="Times,serif" font-size="14.00" fill="#000000">chemical_element</text>
</g>
<!-- astatine&#45;&gt;chemical_element -->
<g id="edge1" class="edge">
<title>astatine&#45;&gt;chemical_element</title>
<path fill="none" stroke="#000000" d="M166.258,-432.937C160.214,-424.4043 152.7646,-413.8875 146.0069,-404.3472"/>
<polygon fill="#000000" stroke="#000000" points="148.6918,-402.0824 140.0555,-395.9453 142.9796,-406.1286 148.6918,-402.0824"/>
</g>
<!-- halogen -->
<g id="node10" class="node">
<title>halogen</title>
<ellipse fill="#b2dfee" stroke="#b2dfee" cx="230.3443" cy="-306" rx="38.1938" ry="18"/>
<text text-anchor="middle" x="230.3443" y="-302.3" font-family="Times,serif" font-size="14.00" fill="#000000">halogen</text>
</g>
<!-- astatine&#45;&gt;halogen -->
<g id="edge10" class="edge">
<title>astatine&#45;&gt;halogen</title>
<path fill="none" stroke="#000000" d="M190.9486,-432.8017C197.9001,-422.569 206.1501,-409.069 211.3443,-396 219.2824,-376.0271 224.1254,-352.1798 226.9336,-334.0522"/>
<polygon fill="#000000" stroke="#000000" points="230.4039,-334.5081 228.3599,-324.1123 223.4749,-333.5138 230.4039,-334.5081"/>
</g>
<!-- substance -->
<g id="node3" class="node">
<title>substance</title>
<ellipse fill="#b2dfee" stroke="#b2dfee" cx="127.3443" cy="-306" rx="44.6926" ry="18"/>
<text text-anchor="middle" x="127.3443" y="-302.3" font-family="Times,serif" font-size="14.00" fill="#000000">substance</text>
</g>
<!-- chemical_element&#45;&gt;substance -->
<g id="edge2" class="edge">
<title>chemical_element&#45;&gt;substance</title>
<path fill="none" stroke="#000000" d="M127.3443,-359.8314C127.3443,-352.131 127.3443,-342.9743 127.3443,-334.4166"/>
<polygon fill="#000000" stroke="#000000" points="130.8444,-334.4132 127.3443,-324.4133 123.8444,-334.4133 130.8444,-334.4132"/>
</g>
<!-- matter -->
<g id="node4" class="node">
<title>matter</title>
<ellipse fill="#b2dfee" stroke="#b2dfee" cx="64.3443" cy="-234" rx="33.5952" ry="18"/>
<text text-anchor="middle" x="64.3443" y="-230.3" font-family="Times,serif" font-size="14.00" fill="#000000">matter</text>
</g>
<!-- substance&#45;&gt;matter -->
<g id="edge3" class="edge">
<title>substance&#45;&gt;matter</title>
<path fill="none" stroke="#000000" d="M112.4142,-288.937C104.375,-279.7494 94.3229,-268.2613 85.4921,-258.1689"/>
<polygon fill="#000000" stroke="#000000" points="87.9527,-255.6659 78.7336,-250.4449 82.6846,-260.2755 87.9527,-255.6659"/>
</g>
<!-- part -->
<g id="node7" class="node">
<title>part</title>
<ellipse fill="#b2dfee" stroke="#b2dfee" cx="143.3443" cy="-234" rx="27" ry="18"/>
<text text-anchor="middle" x="143.3443" y="-230.3" font-family="Times,serif" font-size="14.00" fill="#000000">part</text>
</g>
<!-- substance&#45;&gt;part -->
<g id="edge6" class="edge">
<title>substance&#45;&gt;part</title>
<path fill="none" stroke="#000000" d="M131.3818,-287.8314C133.1384,-279.9266 135.236,-270.4872 137.1806,-261.7365"/>
<polygon fill="#000000" stroke="#000000" points="140.6108,-262.4346 139.3635,-251.9134 133.7775,-260.916 140.6108,-262.4346"/>
</g>
<!-- physical_entity -->
<g id="node5" class="node">
<title>physical_entity</title>
<ellipse fill="#b2dfee" stroke="#b2dfee" cx="64.3443" cy="-90" rx="64.189" ry="18"/>
<text text-anchor="middle" x="64.3443" y="-86.3" font-family="Times,serif" font-size="14.00" fill="#000000">physical_entity</text>
</g>
<!-- matter&#45;&gt;physical_entity -->
<g id="edge4" class="edge">
<title>matter&#45;&gt;physical_entity</title>
<path fill="none" stroke="#000000" d="M64.3443,-215.7623C64.3443,-191.201 64.3443,-147.2474 64.3443,-118.3541"/>
<polygon fill="#000000" stroke="#000000" points="67.8444,-118.0896 64.3443,-108.0896 60.8444,-118.0897 67.8444,-118.0896"/>
</g>
<!-- entity -->
<g id="node6" class="node">
<title>entity</title>
<ellipse fill="#b2dfee" stroke="#b2dfee" cx="130.3443" cy="-18" rx="30.5947" ry="18"/>
<text text-anchor="middle" x="130.3443" y="-14.3" font-family="Times,serif" font-size="14.00" fill="#000000">entity</text>
</g>
<!-- physical_entity&#45;&gt;entity -->
<g id="edge5" class="edge">
<title>physical_entity&#45;&gt;entity</title>
<path fill="none" stroke="#000000" d="M80.6589,-72.2022C89.0927,-63.0017 99.4997,-51.6487 108.6064,-41.7141"/>
<polygon fill="#000000" stroke="#000000" points="111.3913,-43.8556 115.5686,-34.119 106.2312,-39.1255 111.3913,-43.8556"/>
</g>
<!-- relation -->
<g id="node8" class="node">
<title>relation</title>
<ellipse fill="#b2dfee" stroke="#b2dfee" cx="143.3443" cy="-162" rx="37.8943" ry="18"/>
<text text-anchor="middle" x="143.3443" y="-158.3" font-family="Times,serif" font-size="14.00" fill="#000000">relation</text>
</g>
<!-- part&#45;&gt;relation -->
<g id="edge7" class="edge">
<title>part&#45;&gt;relation</title>
<path fill="none" stroke="#000000" d="M143.3443,-215.8314C143.3443,-208.131 143.3443,-198.9743 143.3443,-190.4166"/>
<polygon fill="#000000" stroke="#000000" points="146.8444,-190.4132 143.3443,-180.4133 139.8444,-190.4133 146.8444,-190.4132"/>
</g>
<!-- abstraction -->
<g id="node9" class="node">
<title>abstraction</title>
<ellipse fill="#b2dfee" stroke="#b2dfee" cx="196.3443" cy="-90" rx="49.2915" ry="18"/>
<text text-anchor="middle" x="196.3443" y="-86.3" font-family="Times,serif" font-size="14.00" fill="#000000">abstraction</text>
</g>
<!-- relation&#45;&gt;abstraction -->
<g id="edge8" class="edge">
<title>relation&#45;&gt;abstraction</title>
<path fill="none" stroke="#000000" d="M155.9046,-144.937C162.3443,-136.1886 170.3195,-125.3545 177.481,-115.6256"/>
<polygon fill="#000000" stroke="#000000" points="180.3965,-117.5689 183.506,-107.4407 174.7591,-113.4192 180.3965,-117.5689"/>
</g>
<!-- abstraction&#45;&gt;entity -->
<g id="edge9" class="edge">
<title>abstraction&#45;&gt;entity</title>
<path fill="none" stroke="#000000" d="M180.3675,-72.5708C171.9387,-63.3758 161.4696,-51.9548 152.2904,-41.9413"/>
<polygon fill="#000000" stroke="#000000" points="154.6065,-39.2882 145.2692,-34.2817 149.4464,-44.0183 154.6065,-39.2882"/>
</g>
<!-- group -->
<g id="node11" class="node">
<title>group</title>
<ellipse fill="#b2dfee" stroke="#b2dfee" cx="230.3443" cy="-162" rx="31.3957" ry="18"/>
<text text-anchor="middle" x="230.3443" y="-158.3" font-family="Times,serif" font-size="14.00" fill="#000000">group</text>
</g>
<!-- halogen&#45;&gt;group -->
<g id="edge11" class="edge">
<title>halogen&#45;&gt;group</title>
<path fill="none" stroke="#000000" d="M230.3443,-287.7623C230.3443,-263.201 230.3443,-219.2474 230.3443,-190.3541"/>
<polygon fill="#000000" stroke="#000000" points="233.8444,-190.0896 230.3443,-180.0896 226.8444,-190.0897 233.8444,-190.0896"/>
</g>
<!-- group&#45;&gt;abstraction -->
<g id="edge12" class="edge">
<title>group&#45;&gt;abstraction</title>
<path fill="none" stroke="#000000" d="M222.1138,-144.5708C218.2047,-136.2927 213.4437,-126.2104 209.0826,-116.9752"/>
<polygon fill="#000000" stroke="#000000" points="212.1701,-115.3168 204.7352,-107.7689 205.8404,-118.3059 212.1701,-115.3168"/>
</g>
</g>
</svg>
