<?xml version="1.0" encoding="UTF-8" standalone="no"?>
<!DOCTYPE svg PUBLIC "-//W3C//DTD SVG 1.1//EN"
 "http://www.w3.org/Graphics/SVG/1.1/DTD/svg11.dtd">
<!-- Generated by graphviz version 2.40.1 (20161225.0304)
 -->
<!-- Title: unix Pages: 1 -->
<svg width="106pt" height="432pt"
 viewBox="0.00 0.00 106.11 432.00" xmlns="http://www.w3.org/2000/svg" xmlns:xlink="http://www.w3.org/1999/xlink">
<g id="graph0" class="graph" transform="scale(.6968 .6968) rotate(0) translate(4 616)">
<title>unix</title>
<polygon fill="#ffffff" stroke="transparent" points="-4,4 -4,-616 148.2872,-616 148.2872,4 -4,4"/>
<!-- ball -->
<g id="node1" class="node">
<title>ball</title>
<ellipse fill="#b2dfee" stroke="#b2dfee" cx="72.1436" cy="-594" rx="27" ry="18"/>
<text text-anchor="middle" x="72.1436" y="-590.3" font-family="Times,serif" font-size="14.00" fill="#000000">ball</text>
</g>
<!-- game_equipment -->
<g id="node2" class="node">
<title>game_equipment</title>
<ellipse fill="#b2dfee" stroke="#b2dfee" cx="72.1436" cy="-522" rx="72.2875" ry="18"/>
<text text-anchor="middle" x="72.1436" y="-518.3" font-family="Times,serif" font-size="14.00" fill="#000000">game_equipment</text>
</g>
<!-- ball&#45;&gt;game_equipment -->
<g id="edge1" class="edge">
<title>ball&#45;&gt;game_equipment</title>
<path fill="none" stroke="#000000" d="M72.1436,-575.8314C72.1436,-568.131 72.1436,-558.9743 72.1436,-550.4166"/>
<polygon fill="#000000" stroke="#000000" points="75.6437,-550.4132 72.1436,-540.4133 68.6437,-550.4133 75.6437,-550.4132"/>
</g>
<!-- equipment -->
<g id="node3" class="node">
<title>equipment</title>
<ellipse fill="#b2dfee" stroke="#b2dfee" cx="72.1436" cy="-450" rx="48.1917" ry="18"/>
<text text-anchor="middle" x="72.1436" y="-446.3" font-family="Times,serif" font-size="14.00" fill="#000000">equipment</text>
</g>
<!-- game_equipment&#45;&gt;equipment -->
<g id="edge2" class="edge">
<title>game_equipment&#45;&gt;equipment</title>
<path fill="none" stroke="#000000" d="M72.1436,-503.8314C72.1436,-496.131 72.1436,-486.9743 72.1436,-478.4166"/>
<polygon fill="#000000" stroke="#000000" points="75.6437,-478.4132 72.1436,-468.4133 68.6437,-478.4133 75.6437,-478.4132"/>
</g>
<!-- instrumentality -->
<g id="node4" class="node">
<title>instrumentality</title>
<ellipse fill="#b2dfee" stroke="#b2dfee" cx="72.1436" cy="-378" rx="64.189" ry="18"/>
<text text-anchor="middle" x="72.1436" y="-374.3" font-family="Times,serif" font-size="14.00" fill="#000000">instrumentality</text>
</g>
<!-- equipment&#45;&gt;instrumentality -->
<g id="edge3" class="edge">
<title>equipment&#45;&gt;instrumentality</title>
<path fill="none" stroke="#000000" d="M72.1436,-431.8314C72.1436,-424.131 72.1436,-414.9743 72.1436,-406.4166"/>
<polygon fill="#000000" stroke="#000000" points="75.6437,-406.4132 72.1436,-396.4133 68.6437,-406.4133 75.6437,-406.4132"/>
</g>
<!-- artifact -->
<g id="node5" class="node">
<title>artifact</title>
<ellipse fill="#b2dfee" stroke="#b2dfee" cx="72.1436" cy="-306" rx="35.9954" ry="18"/>
<text text-anchor="middle" x="72.1436" y="-302.3" font-family="Times,serif" font-size="14.00" fill="#000000">artifact</text>
</g>
<!-- instrumentality&#45;&gt;artifact -->
<g id="edge4" class="edge">
<title>instrumentality&#45;&gt;artifact</title>
<path fill="none" stroke="#000000" d="M72.1436,-359.8314C72.1436,-352.131 72.1436,-342.9743 72.1436,-334.4166"/>
<polygon fill="#000000" stroke="#000000" points="75.6437,-334.4132 72.1436,-324.4133 68.6437,-334.4133 75.6437,-334.4132"/>
</g>
<!-- whole -->
<g id="node6" class="node">
<title>whole</title>
<ellipse fill="#b2dfee" stroke="#b2dfee" cx="72.1436" cy="-234" rx="32.4942" ry="18"/>
<text text-anchor="middle" x="72.1436" y="-230.3" font-family="Times,serif" font-size="14.00" fill="#000000">whole</text>
</g>
<!-- artifact&#45;&gt;whole -->
<g id="edge5" class="edge">
<title>artifact&#45;&gt;whole</title>
<path fill="none" stroke="#000000" d="M72.1436,-287.8314C72.1436,-280.131 72.1436,-270.9743 72.1436,-262.4166"/>
<polygon fill="#000000" stroke="#000000" points="75.6437,-262.4132 72.1436,-252.4133 68.6437,-262.4133 75.6437,-262.4132"/>
</g>
<!-- object -->
<g id="node7" class="node">
<title>object</title>
<ellipse fill="#b2dfee" stroke="#b2dfee" cx="72.1436" cy="-162" rx="32.4942" ry="18"/>
<text text-anchor="middle" x="72.1436" y="-158.3" font-family="Times,serif" font-size="14.00" fill="#000000">object</text>
</g>
<!-- whole&#45;&gt;object -->
<g id="edge6" class="edge">
<title>whole&#45;&gt;object</title>
<path fill="none" stroke="#000000" d="M72.1436,-215.8314C72.1436,-208.131 72.1436,-198.9743 72.1436,-190.4166"/>
<polygon fill="#000000" stroke="#000000" points="75.6437,-190.4132 72.1436,-180.4133 68.6437,-190.4133 75.6437,-190.4132"/>
</g>
<!-- physical_entity -->
<g id="node8" class="node">
<title>physical_entity</title>
<ellipse fill="#b2dfee" stroke="#b2dfee" cx="72.1436" cy="-90" rx="64.189" ry="18"/>
<text text-anchor="middle" x="72.1436" y="-86.3" font-family="Times,serif" font-size="14.00" fill="#000000">physical_entity</text>
</g>
<!-- object&#45;&gt;physical_entity -->
<g id="edge7" class="edge">
<title>object&#45;&gt;physical_entity</title>
<path fill="none" stroke="#000000" d="M72.1436,-143.8314C72.1436,-136.131 72.1436,-126.9743 72.1436,-118.4166"/>
<polygon fill="#000000" stroke="#000000" points="75.6437,-118.4132 72.1436,-108.4133 68.6437,-118.4133 75.6437,-118.4132"/>
</g>
<!-- entity -->
<g id="node9" class="node">
<title>entity</title>
<ellipse fill="#b2dfee" stroke="#b2dfee" cx="72.1436" cy="-18" rx="30.5947" ry="18"/>
<text text-anchor="middle" x="72.1436" y="-14.3" font-family="Times,serif" font-size="14.00" fill="#000000">entity</text>
</g>
<!-- physical_entity&#45;&gt;entity -->
<g id="edge8" class="edge">
<title>physical_entity&#45;&gt;entity</title>
<path fill="none" stroke="#000000" d="M72.1436,-71.8314C72.1436,-64.131 72.1436,-54.9743 72.1436,-46.4166"/>
<polygon fill="#000000" stroke="#000000" points="75.6437,-46.4132 72.1436,-36.4133 68.6437,-46.4133 75.6437,-46.4132"/>
</g>
</g>
</svg>
