<?xml version="1.0" encoding="UTF-8" standalone="no"?>
<!DOCTYPE svg PUBLIC "-//W3C//DTD SVG 1.1//EN"
 "http://www.w3.org/Graphics/SVG/1.1/DTD/svg11.dtd">
<!-- Generated by graphviz version 2.40.1 (20161225.0304)
 -->
<!-- Title: unix Pages: 1 -->
<svg width="95pt" height="432pt"
 viewBox="0.00 0.00 95.24 432.00" xmlns="http://www.w3.org/2000/svg" xmlns:xlink="http://www.w3.org/1999/xlink">
<g id="graph0" class="graph" transform="scale(.6968 .6968) rotate(0) translate(4 616)">
<title>unix</title>
<polygon fill="#ffffff" stroke="transparent" points="-4,4 -4,-616 132.6886,-616 132.6886,4 -4,4"/>
<!-- bean -->
<g id="node1" class="node">
<title>bean</title>
<ellipse fill="#b2dfee" stroke="#b2dfee" cx="64.3443" cy="-594" rx="27.0966" ry="18"/>
<text text-anchor="middle" x="64.3443" y="-590.3" font-family="Times,serif" font-size="14.00" fill="#000000">bean</text>
</g>
<!-- legume -->
<g id="node2" class="node">
<title>legume</title>
<ellipse fill="#b2dfee" stroke="#b2dfee" cx="64.3443" cy="-522" rx="37.0935" ry="18"/>
<text text-anchor="middle" x="64.3443" y="-518.3" font-family="Times,serif" font-size="14.00" fill="#000000">legume</text>
</g>
<!-- bean&#45;&gt;legume -->
<g id="edge1" class="edge">
<title>bean&#45;&gt;legume</title>
<path fill="none" stroke="#000000" d="M64.3443,-575.8314C64.3443,-568.131 64.3443,-558.9743 64.3443,-550.4166"/>
<polygon fill="#000000" stroke="#000000" points="67.8444,-550.4132 64.3443,-540.4133 60.8444,-550.4133 67.8444,-550.4132"/>
</g>
<!-- vegetable -->
<g id="node3" class="node">
<title>vegetable</title>
<ellipse fill="#b2dfee" stroke="#b2dfee" cx="64.3443" cy="-450" rx="44.393" ry="18"/>
<text text-anchor="middle" x="64.3443" y="-446.3" font-family="Times,serif" font-size="14.00" fill="#000000">vegetable</text>
</g>
<!-- legume&#45;&gt;vegetable -->
<g id="edge2" class="edge">
<title>legume&#45;&gt;vegetable</title>
<path fill="none" stroke="#000000" d="M64.3443,-503.8314C64.3443,-496.131 64.3443,-486.9743 64.3443,-478.4166"/>
<polygon fill="#000000" stroke="#000000" points="67.8444,-478.4132 64.3443,-468.4133 60.8444,-478.4133 67.8444,-478.4132"/>
</g>
<!-- produce -->
<g id="node4" class="node">
<title>produce</title>
<ellipse fill="#b2dfee" stroke="#b2dfee" cx="64.3443" cy="-378" rx="38.9931" ry="18"/>
<text text-anchor="middle" x="64.3443" y="-374.3" font-family="Times,serif" font-size="14.00" fill="#000000">produce</text>
</g>
<!-- vegetable&#45;&gt;produce -->
<g id="edge3" class="edge">
<title>vegetable&#45;&gt;produce</title>
<path fill="none" stroke="#000000" d="M64.3443,-431.8314C64.3443,-424.131 64.3443,-414.9743 64.3443,-406.4166"/>
<polygon fill="#000000" stroke="#000000" points="67.8444,-406.4132 64.3443,-396.4133 60.8444,-406.4133 67.8444,-406.4132"/>
</g>
<!-- food -->
<g id="node5" class="node">
<title>food</title>
<ellipse fill="#b2dfee" stroke="#b2dfee" cx="64.3443" cy="-306" rx="27" ry="18"/>
<text text-anchor="middle" x="64.3443" y="-302.3" font-family="Times,serif" font-size="14.00" fill="#000000">food</text>
</g>
<!-- produce&#45;&gt;food -->
<g id="edge4" class="edge">
<title>produce&#45;&gt;food</title>
<path fill="none" stroke="#000000" d="M64.3443,-359.8314C64.3443,-352.131 64.3443,-342.9743 64.3443,-334.4166"/>
<polygon fill="#000000" stroke="#000000" points="67.8444,-334.4132 64.3443,-324.4133 60.8444,-334.4133 67.8444,-334.4132"/>
</g>
<!-- solid -->
<g id="node6" class="node">
<title>solid</title>
<ellipse fill="#b2dfee" stroke="#b2dfee" cx="64.3443" cy="-234" rx="27.8951" ry="18"/>
<text text-anchor="middle" x="64.3443" y="-230.3" font-family="Times,serif" font-size="14.00" fill="#000000">solid</text>
</g>
<!-- food&#45;&gt;solid -->
<g id="edge5" class="edge">
<title>food&#45;&gt;solid</title>
<path fill="none" stroke="#000000" d="M64.3443,-287.8314C64.3443,-280.131 64.3443,-270.9743 64.3443,-262.4166"/>
<polygon fill="#000000" stroke="#000000" points="67.8444,-262.4132 64.3443,-252.4133 60.8444,-262.4133 67.8444,-262.4132"/>
</g>
<!-- matter -->
<g id="node7" class="node">
<title>matter</title>
<ellipse fill="#b2dfee" stroke="#b2dfee" cx="64.3443" cy="-162" rx="33.5952" ry="18"/>
<text text-anchor="middle" x="64.3443" y="-158.3" font-family="Times,serif" font-size="14.00" fill="#000000">matter</text>
</g>
<!-- solid&#45;&gt;matter -->
<g id="edge6" class="edge">
<title>solid&#45;&gt;matter</title>
<path fill="none" stroke="#000000" d="M64.3443,-215.8314C64.3443,-208.131 64.3443,-198.9743 64.3443,-190.4166"/>
<polygon fill="#000000" stroke="#000000" points="67.8444,-190.4132 64.3443,-180.4133 60.8444,-190.4133 67.8444,-190.4132"/>
</g>
<!-- physical_entity -->
<g id="node8" class="node">
<title>physical_entity</title>
<ellipse fill="#b2dfee" stroke="#b2dfee" cx="64.3443" cy="-90" rx="64.189" ry="18"/>
<text text-anchor="middle" x="64.3443" y="-86.3" font-family="Times,serif" font-size="14.00" fill="#000000">physical_entity</text>
</g>
<!-- matter&#45;&gt;physical_entity -->
<g id="edge7" class="edge">
<title>matter&#45;&gt;physical_entity</title>
<path fill="none" stroke="#000000" d="M64.3443,-143.8314C64.3443,-136.131 64.3443,-126.9743 64.3443,-118.4166"/>
<polygon fill="#000000" stroke="#000000" points="67.8444,-118.4132 64.3443,-108.4133 60.8444,-118.4133 67.8444,-118.4132"/>
</g>
<!-- entity -->
<g id="node9" class="node">
<title>entity</title>
<ellipse fill="#b2dfee" stroke="#b2dfee" cx="64.3443" cy="-18" rx="30.5947" ry="18"/>
<text text-anchor="middle" x="64.3443" y="-14.3" font-family="Times,serif" font-size="14.00" fill="#000000">entity</text>
</g>
<!-- physical_entity&#45;&gt;entity -->
<g id="edge8" class="edge">
<title>physical_entity&#45;&gt;entity</title>
<path fill="none" stroke="#000000" d="M64.3443,-71.8314C64.3443,-64.131 64.3443,-54.9743 64.3443,-46.4166"/>
<polygon fill="#000000" stroke="#000000" points="67.8444,-46.4132 64.3443,-36.4133 60.8444,-46.4133 67.8444,-46.4132"/>
</g>
</g>
</svg>
