<?xml version="1.0" encoding="UTF-8" standalone="no"?>
<!DOCTYPE svg PUBLIC "-//W3C//DTD SVG 1.1//EN"
 "http://www.w3.org/Graphics/SVG/1.1/DTD/svg11.dtd">
<!-- Generated by graphviz version 2.40.1 (20161225.0304)
 -->
<!-- Title: unix Pages: 1 -->
<svg width="102pt" height="432pt"
 viewBox="0.00 0.00 101.56 432.00" xmlns="http://www.w3.org/2000/svg" xmlns:xlink="http://www.w3.org/1999/xlink">
<g id="graph0" class="graph" transform="scale(.6243 .6243) rotate(0) translate(4 688)">
<title>unix</title>
<polygon fill="#ffffff" stroke="transparent" points="-4,4 -4,-688 158.6863,-688 158.6863,4 -4,4"/>
<!-- bed -->
<g id="node1" class="node">
<title>bed</title>
<ellipse fill="#b2dfee" stroke="#b2dfee" cx="77.3431" cy="-666" rx="27" ry="18"/>
<text text-anchor="middle" x="77.3431" y="-662.3" font-family="Times,serif" font-size="14.00" fill="#000000">bed</text>
</g>
<!-- bedroom_furniture -->
<g id="node2" class="node">
<title>bedroom_furniture</title>
<ellipse fill="#b2dfee" stroke="#b2dfee" cx="77.3431" cy="-594" rx="77.1866" ry="18"/>
<text text-anchor="middle" x="77.3431" y="-590.3" font-family="Times,serif" font-size="14.00" fill="#000000">bedroom_furniture</text>
</g>
<!-- bed&#45;&gt;bedroom_furniture -->
<g id="edge1" class="edge">
<title>bed&#45;&gt;bedroom_furniture</title>
<path fill="none" stroke="#000000" d="M77.3431,-647.8314C77.3431,-640.131 77.3431,-630.9743 77.3431,-622.4166"/>
<polygon fill="#000000" stroke="#000000" points="80.8432,-622.4132 77.3431,-612.4133 73.8432,-622.4133 80.8432,-622.4132"/>
</g>
<!-- furniture -->
<g id="node3" class="node">
<title>furniture</title>
<ellipse fill="#b2dfee" stroke="#b2dfee" cx="77.3431" cy="-522" rx="41.6928" ry="18"/>
<text text-anchor="middle" x="77.3431" y="-518.3" font-family="Times,serif" font-size="14.00" fill="#000000">furniture</text>
</g>
<!-- bedroom_furniture&#45;&gt;furniture -->
<g id="edge2" class="edge">
<title>bedroom_furniture&#45;&gt;furniture</title>
<path fill="none" stroke="#000000" d="M77.3431,-575.8314C77.3431,-568.131 77.3431,-558.9743 77.3431,-550.4166"/>
<polygon fill="#000000" stroke="#000000" points="80.8432,-550.4132 77.3431,-540.4133 73.8432,-550.4133 80.8432,-550.4132"/>
</g>
<!-- furnishing -->
<g id="node4" class="node">
<title>furnishing</title>
<ellipse fill="#b2dfee" stroke="#b2dfee" cx="77.3431" cy="-450" rx="46.5926" ry="18"/>
<text text-anchor="middle" x="77.3431" y="-446.3" font-family="Times,serif" font-size="14.00" fill="#000000">furnishing</text>
</g>
<!-- furniture&#45;&gt;furnishing -->
<g id="edge3" class="edge">
<title>furniture&#45;&gt;furnishing</title>
<path fill="none" stroke="#000000" d="M77.3431,-503.8314C77.3431,-496.131 77.3431,-486.9743 77.3431,-478.4166"/>
<polygon fill="#000000" stroke="#000000" points="80.8432,-478.4132 77.3431,-468.4133 73.8432,-478.4133 80.8432,-478.4132"/>
</g>
<!-- instrumentality -->
<g id="node5" class="node">
<title>instrumentality</title>
<ellipse fill="#b2dfee" stroke="#b2dfee" cx="77.3431" cy="-378" rx="64.189" ry="18"/>
<text text-anchor="middle" x="77.3431" y="-374.3" font-family="Times,serif" font-size="14.00" fill="#000000">instrumentality</text>
</g>
<!-- furnishing&#45;&gt;instrumentality -->
<g id="edge4" class="edge">
<title>furnishing&#45;&gt;instrumentality</title>
<path fill="none" stroke="#000000" d="M77.3431,-431.8314C77.3431,-424.131 77.3431,-414.9743 77.3431,-406.4166"/>
<polygon fill="#000000" stroke="#000000" points="80.8432,-406.4132 77.3431,-396.4133 73.8432,-406.4133 80.8432,-406.4132"/>
</g>
<!-- artifact -->
<g id="node6" class="node">
<title>artifact</title>
<ellipse fill="#b2dfee" stroke="#b2dfee" cx="77.3431" cy="-306" rx="35.9954" ry="18"/>
<text text-anchor="middle" x="77.3431" y="-302.3" font-family="Times,serif" font-size="14.00" fill="#000000">artifact</text>
</g>
<!-- instrumentality&#45;&gt;artifact -->
<g id="edge5" class="edge">
<title>instrumentality&#45;&gt;artifact</title>
<path fill="none" stroke="#000000" d="M77.3431,-359.8314C77.3431,-352.131 77.3431,-342.9743 77.3431,-334.4166"/>
<polygon fill="#000000" stroke="#000000" points="80.8432,-334.4132 77.3431,-324.4133 73.8432,-334.4133 80.8432,-334.4132"/>
</g>
<!-- whole -->
<g id="node7" class="node">
<title>whole</title>
<ellipse fill="#b2dfee" stroke="#b2dfee" cx="77.3431" cy="-234" rx="32.4942" ry="18"/>
<text text-anchor="middle" x="77.3431" y="-230.3" font-family="Times,serif" font-size="14.00" fill="#000000">whole</text>
</g>
<!-- artifact&#45;&gt;whole -->
<g id="edge6" class="edge">
<title>artifact&#45;&gt;whole</title>
<path fill="none" stroke="#000000" d="M77.3431,-287.8314C77.3431,-280.131 77.3431,-270.9743 77.3431,-262.4166"/>
<polygon fill="#000000" stroke="#000000" points="80.8432,-262.4132 77.3431,-252.4133 73.8432,-262.4133 80.8432,-262.4132"/>
</g>
<!-- object -->
<g id="node8" class="node">
<title>object</title>
<ellipse fill="#b2dfee" stroke="#b2dfee" cx="77.3431" cy="-162" rx="32.4942" ry="18"/>
<text text-anchor="middle" x="77.3431" y="-158.3" font-family="Times,serif" font-size="14.00" fill="#000000">object</text>
</g>
<!-- whole&#45;&gt;object -->
<g id="edge7" class="edge">
<title>whole&#45;&gt;object</title>
<path fill="none" stroke="#000000" d="M77.3431,-215.8314C77.3431,-208.131 77.3431,-198.9743 77.3431,-190.4166"/>
<polygon fill="#000000" stroke="#000000" points="80.8432,-190.4132 77.3431,-180.4133 73.8432,-190.4133 80.8432,-190.4132"/>
</g>
<!-- physical_entity -->
<g id="node9" class="node">
<title>physical_entity</title>
<ellipse fill="#b2dfee" stroke="#b2dfee" cx="77.3431" cy="-90" rx="64.189" ry="18"/>
<text text-anchor="middle" x="77.3431" y="-86.3" font-family="Times,serif" font-size="14.00" fill="#000000">physical_entity</text>
</g>
<!-- object&#45;&gt;physical_entity -->
<g id="edge8" class="edge">
<title>object&#45;&gt;physical_entity</title>
<path fill="none" stroke="#000000" d="M77.3431,-143.8314C77.3431,-136.131 77.3431,-126.9743 77.3431,-118.4166"/>
<polygon fill="#000000" stroke="#000000" points="80.8432,-118.4132 77.3431,-108.4133 73.8432,-118.4133 80.8432,-118.4132"/>
</g>
<!-- entity -->
<g id="node10" class="node">
<title>entity</title>
<ellipse fill="#b2dfee" stroke="#b2dfee" cx="77.3431" cy="-18" rx="30.5947" ry="18"/>
<text text-anchor="middle" x="77.3431" y="-14.3" font-family="Times,serif" font-size="14.00" fill="#000000">entity</text>
</g>
<!-- physical_entity&#45;&gt;entity -->
<g id="edge9" class="edge">
<title>physical_entity&#45;&gt;entity</title>
<path fill="none" stroke="#000000" d="M77.3431,-71.8314C77.3431,-64.131 77.3431,-54.9743 77.3431,-46.4166"/>
<polygon fill="#000000" stroke="#000000" points="80.8432,-46.4132 77.3431,-36.4133 73.8432,-46.4133 80.8432,-46.4132"/>
</g>
</g>
</svg>
