<?xml version="1.0" encoding="UTF-8" standalone="no"?>
<!DOCTYPE svg PUBLIC "-//W3C//DTD SVG 1.1//EN"
 "http://www.w3.org/Graphics/SVG/1.1/DTD/svg11.dtd">
<!-- Generated by graphviz version 2.40.1 (20161225.0304)
 -->
<!-- Title: unix Pages: 1 -->
<svg width="76pt" height="432pt"
 viewBox="0.00 0.00 76.22 432.00" xmlns="http://www.w3.org/2000/svg" xmlns:xlink="http://www.w3.org/1999/xlink">
<g id="graph0" class="graph" transform="scale(.6968 .6968) rotate(0) translate(4 616)">
<title>unix</title>
<polygon fill="#ffffff" stroke="transparent" points="-4,4 -4,-616 105.391,-616 105.391,4 -4,4"/>
<!-- stake -->
<g id="node1" class="node">
<title>stake</title>
<ellipse fill="#b2dfee" stroke="#b2dfee" cx="50.6955" cy="-594" rx="28.6953" ry="18"/>
<text text-anchor="middle" x="50.6955" y="-590.3" font-family="Times,serif" font-size="14.00" fill="#000000">stake</text>
</g>
<!-- gamble -->
<g id="node2" class="node">
<title>gamble</title>
<ellipse fill="#b2dfee" stroke="#b2dfee" cx="50.6955" cy="-522" rx="37.0935" ry="18"/>
<text text-anchor="middle" x="50.6955" y="-518.3" font-family="Times,serif" font-size="14.00" fill="#000000">gamble</text>
</g>
<!-- stake&#45;&gt;gamble -->
<g id="edge1" class="edge">
<title>stake&#45;&gt;gamble</title>
<path fill="none" stroke="#000000" d="M50.6955,-575.8314C50.6955,-568.131 50.6955,-558.9743 50.6955,-550.4166"/>
<polygon fill="#000000" stroke="#000000" points="54.1956,-550.4132 50.6955,-540.4133 47.1956,-550.4133 54.1956,-550.4132"/>
</g>
<!-- speculation -->
<g id="node3" class="node">
<title>speculation</title>
<ellipse fill="#b2dfee" stroke="#b2dfee" cx="50.6955" cy="-450" rx="50.8918" ry="18"/>
<text text-anchor="middle" x="50.6955" y="-446.3" font-family="Times,serif" font-size="14.00" fill="#000000">speculation</text>
</g>
<!-- gamble&#45;&gt;speculation -->
<g id="edge2" class="edge">
<title>gamble&#45;&gt;speculation</title>
<path fill="none" stroke="#000000" d="M50.6955,-503.8314C50.6955,-496.131 50.6955,-486.9743 50.6955,-478.4166"/>
<polygon fill="#000000" stroke="#000000" points="54.1956,-478.4132 50.6955,-468.4133 47.1956,-478.4133 54.1956,-478.4132"/>
</g>
<!-- investment -->
<g id="node4" class="node">
<title>investment</title>
<ellipse fill="#b2dfee" stroke="#b2dfee" cx="50.6955" cy="-378" rx="50.0912" ry="18"/>
<text text-anchor="middle" x="50.6955" y="-374.3" font-family="Times,serif" font-size="14.00" fill="#000000">investment</text>
</g>
<!-- speculation&#45;&gt;investment -->
<g id="edge3" class="edge">
<title>speculation&#45;&gt;investment</title>
<path fill="none" stroke="#000000" d="M50.6955,-431.8314C50.6955,-424.131 50.6955,-414.9743 50.6955,-406.4166"/>
<polygon fill="#000000" stroke="#000000" points="54.1956,-406.4132 50.6955,-396.4133 47.1956,-406.4133 54.1956,-406.4132"/>
</g>
<!-- assets -->
<g id="node5" class="node">
<title>assets</title>
<ellipse fill="#b2dfee" stroke="#b2dfee" cx="50.6955" cy="-306" rx="31.3957" ry="18"/>
<text text-anchor="middle" x="50.6955" y="-302.3" font-family="Times,serif" font-size="14.00" fill="#000000">assets</text>
</g>
<!-- investment&#45;&gt;assets -->
<g id="edge4" class="edge">
<title>investment&#45;&gt;assets</title>
<path fill="none" stroke="#000000" d="M50.6955,-359.8314C50.6955,-352.131 50.6955,-342.9743 50.6955,-334.4166"/>
<polygon fill="#000000" stroke="#000000" points="54.1956,-334.4132 50.6955,-324.4133 47.1956,-334.4133 54.1956,-334.4132"/>
</g>
<!-- possession -->
<g id="node6" class="node">
<title>possession</title>
<ellipse fill="#b2dfee" stroke="#b2dfee" cx="50.6955" cy="-234" rx="48.1917" ry="18"/>
<text text-anchor="middle" x="50.6955" y="-230.3" font-family="Times,serif" font-size="14.00" fill="#000000">possession</text>
</g>
<!-- assets&#45;&gt;possession -->
<g id="edge5" class="edge">
<title>assets&#45;&gt;possession</title>
<path fill="none" stroke="#000000" d="M50.6955,-287.8314C50.6955,-280.131 50.6955,-270.9743 50.6955,-262.4166"/>
<polygon fill="#000000" stroke="#000000" points="54.1956,-262.4132 50.6955,-252.4133 47.1956,-262.4133 54.1956,-262.4132"/>
</g>
<!-- relation -->
<g id="node7" class="node">
<title>relation</title>
<ellipse fill="#b2dfee" stroke="#b2dfee" cx="50.6955" cy="-162" rx="37.8943" ry="18"/>
<text text-anchor="middle" x="50.6955" y="-158.3" font-family="Times,serif" font-size="14.00" fill="#000000">relation</text>
</g>
<!-- possession&#45;&gt;relation -->
<g id="edge6" class="edge">
<title>possession&#45;&gt;relation</title>
<path fill="none" stroke="#000000" d="M50.6955,-215.8314C50.6955,-208.131 50.6955,-198.9743 50.6955,-190.4166"/>
<polygon fill="#000000" stroke="#000000" points="54.1956,-190.4132 50.6955,-180.4133 47.1956,-190.4133 54.1956,-190.4132"/>
</g>
<!-- abstraction -->
<g id="node8" class="node">
<title>abstraction</title>
<ellipse fill="#b2dfee" stroke="#b2dfee" cx="50.6955" cy="-90" rx="49.2915" ry="18"/>
<text text-anchor="middle" x="50.6955" y="-86.3" font-family="Times,serif" font-size="14.00" fill="#000000">abstraction</text>
</g>
<!-- relation&#45;&gt;abstraction -->
<g id="edge7" class="edge">
<title>relation&#45;&gt;abstraction</title>
<path fill="none" stroke="#000000" d="M50.6955,-143.8314C50.6955,-136.131 50.6955,-126.9743 50.6955,-118.4166"/>
<polygon fill="#000000" stroke="#000000" points="54.1956,-118.4132 50.6955,-108.4133 47.1956,-118.4133 54.1956,-118.4132"/>
</g>
<!-- entity -->
<g id="node9" class="node">
<title>entity</title>
<ellipse fill="#b2dfee" stroke="#b2dfee" cx="50.6955" cy="-18" rx="30.5947" ry="18"/>
<text text-anchor="middle" x="50.6955" y="-14.3" font-family="Times,serif" font-size="14.00" fill="#000000">entity</text>
</g>
<!-- abstraction&#45;&gt;entity -->
<g id="edge8" class="edge">
<title>abstraction&#45;&gt;entity</title>
<path fill="none" stroke="#000000" d="M50.6955,-71.8314C50.6955,-64.131 50.6955,-54.9743 50.6955,-46.4166"/>
<polygon fill="#000000" stroke="#000000" points="54.1956,-46.4132 50.6955,-36.4133 47.1956,-46.4133 54.1956,-46.4132"/>
</g>
</g>
</svg>
