<?xml version="1.0" encoding="UTF-8" standalone="no"?>
<!DOCTYPE svg PUBLIC "-//W3C//DTD SVG 1.1//EN"
 "http://www.w3.org/Graphics/SVG/1.1/DTD/svg11.dtd">
<!-- Generated by graphviz version 2.40.1 (20161225.0304)
 -->
<!-- Title: unix Pages: 1 -->
<svg width="121pt" height="432pt"
 viewBox="0.00 0.00 121.08 432.00" xmlns="http://www.w3.org/2000/svg" xmlns:xlink="http://www.w3.org/1999/xlink">
<g id="graph0" class="graph" transform="scale(.7883 .7883) rotate(0) translate(4 544)">
<title>unix</title>
<polygon fill="#ffffff" stroke="transparent" points="-4,4 -4,-544 149.5871,-544 149.5871,4 -4,4"/>
<!-- black -->
<g id="node1" class="node">
<title>black</title>
<ellipse fill="#b2dfee" stroke="#b2dfee" cx="72.7935" cy="-522" rx="29.795" ry="18"/>
<text text-anchor="middle" x="72.7935" y="-518.3" font-family="Times,serif" font-size="14.00" fill="#000000">black</text>
</g>
<!-- achromatic_color -->
<g id="node2" class="node">
<title>achromatic_color</title>
<ellipse fill="#b2dfee" stroke="#b2dfee" cx="72.7935" cy="-450" rx="72.5877" ry="18"/>
<text text-anchor="middle" x="72.7935" y="-446.3" font-family="Times,serif" font-size="14.00" fill="#000000">achromatic_color</text>
</g>
<!-- black&#45;&gt;achromatic_color -->
<g id="edge1" class="edge">
<title>black&#45;&gt;achromatic_color</title>
<path fill="none" stroke="#000000" d="M72.7935,-503.8314C72.7935,-496.131 72.7935,-486.9743 72.7935,-478.4166"/>
<polygon fill="#000000" stroke="#000000" points="76.2936,-478.4132 72.7935,-468.4133 69.2936,-478.4133 76.2936,-478.4132"/>
</g>
<!-- color -->
<g id="node3" class="node">
<title>color</title>
<ellipse fill="#b2dfee" stroke="#b2dfee" cx="72.7935" cy="-378" rx="28.6953" ry="18"/>
<text text-anchor="middle" x="72.7935" y="-374.3" font-family="Times,serif" font-size="14.00" fill="#000000">color</text>
</g>
<!-- achromatic_color&#45;&gt;color -->
<g id="edge2" class="edge">
<title>achromatic_color&#45;&gt;color</title>
<path fill="none" stroke="#000000" d="M72.7935,-431.8314C72.7935,-424.131 72.7935,-414.9743 72.7935,-406.4166"/>
<polygon fill="#000000" stroke="#000000" points="76.2936,-406.4132 72.7935,-396.4133 69.2936,-406.4133 76.2936,-406.4132"/>
</g>
<!-- visual_property -->
<g id="node4" class="node">
<title>visual_property</title>
<ellipse fill="#b2dfee" stroke="#b2dfee" cx="72.7935" cy="-306" rx="65.7887" ry="18"/>
<text text-anchor="middle" x="72.7935" y="-302.3" font-family="Times,serif" font-size="14.00" fill="#000000">visual_property</text>
</g>
<!-- color&#45;&gt;visual_property -->
<g id="edge3" class="edge">
<title>color&#45;&gt;visual_property</title>
<path fill="none" stroke="#000000" d="M72.7935,-359.8314C72.7935,-352.131 72.7935,-342.9743 72.7935,-334.4166"/>
<polygon fill="#000000" stroke="#000000" points="76.2936,-334.4132 72.7935,-324.4133 69.2936,-334.4133 76.2936,-334.4132"/>
</g>
<!-- property -->
<g id="node5" class="node">
<title>property</title>
<ellipse fill="#b2dfee" stroke="#b2dfee" cx="72.7935" cy="-234" rx="40.0939" ry="18"/>
<text text-anchor="middle" x="72.7935" y="-230.3" font-family="Times,serif" font-size="14.00" fill="#000000">property</text>
</g>
<!-- visual_property&#45;&gt;property -->
<g id="edge4" class="edge">
<title>visual_property&#45;&gt;property</title>
<path fill="none" stroke="#000000" d="M72.7935,-287.8314C72.7935,-280.131 72.7935,-270.9743 72.7935,-262.4166"/>
<polygon fill="#000000" stroke="#000000" points="76.2936,-262.4132 72.7935,-252.4133 69.2936,-262.4133 76.2936,-262.4132"/>
</g>
<!-- attribute -->
<g id="node6" class="node">
<title>attribute</title>
<ellipse fill="#b2dfee" stroke="#b2dfee" cx="72.7935" cy="-162" rx="40.0939" ry="18"/>
<text text-anchor="middle" x="72.7935" y="-158.3" font-family="Times,serif" font-size="14.00" fill="#000000">attribute</text>
</g>
<!-- property&#45;&gt;attribute -->
<g id="edge5" class="edge">
<title>property&#45;&gt;attribute</title>
<path fill="none" stroke="#000000" d="M72.7935,-215.8314C72.7935,-208.131 72.7935,-198.9743 72.7935,-190.4166"/>
<polygon fill="#000000" stroke="#000000" points="76.2936,-190.4132 72.7935,-180.4133 69.2936,-190.4133 76.2936,-190.4132"/>
</g>
<!-- abstraction -->
<g id="node7" class="node">
<title>abstraction</title>
<ellipse fill="#b2dfee" stroke="#b2dfee" cx="72.7935" cy="-90" rx="49.2915" ry="18"/>
<text text-anchor="middle" x="72.7935" y="-86.3" font-family="Times,serif" font-size="14.00" fill="#000000">abstraction</text>
</g>
<!-- attribute&#45;&gt;abstraction -->
<g id="edge6" class="edge">
<title>attribute&#45;&gt;abstraction</title>
<path fill="none" stroke="#000000" d="M72.7935,-143.8314C72.7935,-136.131 72.7935,-126.9743 72.7935,-118.4166"/>
<polygon fill="#000000" stroke="#000000" points="76.2936,-118.4132 72.7935,-108.4133 69.2936,-118.4133 76.2936,-118.4132"/>
</g>
<!-- entity -->
<g id="node8" class="node">
<title>entity</title>
<ellipse fill="#b2dfee" stroke="#b2dfee" cx="72.7935" cy="-18" rx="30.5947" ry="18"/>
<text text-anchor="middle" x="72.7935" y="-14.3" font-family="Times,serif" font-size="14.00" fill="#000000">entity</text>
</g>
<!-- abstraction&#45;&gt;entity -->
<g id="edge7" class="edge">
<title>abstraction&#45;&gt;entity</title>
<path fill="none" stroke="#000000" d="M72.7935,-71.8314C72.7935,-64.131 72.7935,-54.9743 72.7935,-46.4166"/>
<polygon fill="#000000" stroke="#000000" points="76.2936,-46.4132 72.7935,-36.4133 69.2936,-46.4133 76.2936,-46.4132"/>
</g>
</g>
</svg>
