<?xml version="1.0" encoding="UTF-8" standalone="no"?>
<!DOCTYPE svg PUBLIC "-//W3C//DTD SVG 1.1//EN"
 "http://www.w3.org/Graphics/SVG/1.1/DTD/svg11.dtd">
<!-- Generated by graphviz version 2.40.1 (20161225.0304)
 -->
<!-- Title: unix Pages: 1 -->
<svg width="92pt" height="188pt"
 viewBox="0.00 0.00 92.49 188.00" xmlns="http://www.w3.org/2000/svg" xmlns:xlink="http://www.w3.org/1999/xlink">
<g id="graph0" class="graph" transform="scale(1 1) rotate(0) translate(4 184)">
<title>unix</title>
<polygon fill="#ffffff" stroke="transparent" points="-4,4 -4,-184 88.4925,-184 88.4925,4 -4,4"/>
<!-- bring -->
<g id="node1" class="node">
<title>bring</title>
<ellipse fill="#b2dfee" stroke="#b2dfee" cx="42.2463" cy="-162" rx="29.4969" ry="18"/>
<text text-anchor="middle" x="42.2463" y="-158.3" font-family="Times,serif" font-size="14.00" fill="#000000">bring</text>
</g>
<!-- transport -->
<g id="node2" class="node">
<title>transport</title>
<ellipse fill="#b2dfee" stroke="#b2dfee" cx="42.2463" cy="-90" rx="42.4939" ry="18"/>
<text text-anchor="middle" x="42.2463" y="-86.3" font-family="Times,serif" font-size="14.00" fill="#000000">transport</text>
</g>
<!-- bring&#45;&gt;transport -->
<g id="edge1" class="edge">
<title>bring&#45;&gt;transport</title>
<path fill="none" stroke="#000000" d="M42.2463,-143.8314C42.2463,-136.131 42.2463,-126.9743 42.2463,-118.4166"/>
<polygon fill="#000000" stroke="#000000" points="45.7464,-118.4132 42.2463,-108.4133 38.7464,-118.4133 45.7464,-118.4132"/>
</g>
<!-- move -->
<g id="node3" class="node">
<title>move</title>
<ellipse fill="#b2dfee" stroke="#b2dfee" cx="42.2463" cy="-18" rx="30.5947" ry="18"/>
<text text-anchor="middle" x="42.2463" y="-14.3" font-family="Times,serif" font-size="14.00" fill="#000000">move</text>
</g>
<!-- transport&#45;&gt;move -->
<g id="edge2" class="edge">
<title>transport&#45;&gt;move</title>
<path fill="none" stroke="#000000" d="M42.2463,-71.8314C42.2463,-64.131 42.2463,-54.9743 42.2463,-46.4166"/>
<polygon fill="#000000" stroke="#000000" points="45.7464,-46.4132 42.2463,-36.4133 38.7464,-46.4133 45.7464,-46.4132"/>
</g>
</g>
</svg>
