<?xml version="1.0" encoding="UTF-8" standalone="no"?>
<!DOCTYPE svg PUBLIC "-//W3C//DTD SVG 1.1//EN"
 "http://www.w3.org/Graphics/SVG/1.1/DTD/svg11.dtd">
<!-- Generated by graphviz version 2.40.1 (20161225.0304)
 -->
<!-- Title: unix Pages: 1 -->
<svg width="90pt" height="188pt"
 viewBox="0.00 0.00 89.89 188.00" xmlns="http://www.w3.org/2000/svg" xmlns:xlink="http://www.w3.org/1999/xlink">
<g id="graph0" class="graph" transform="scale(1 1) rotate(0) translate(4 184)">
<title>unix</title>
<polygon fill="#ffffff" stroke="transparent" points="-4,4 -4,-184 85.8927,-184 85.8927,4 -4,4"/>
<!-- interrupt -->
<g id="node1" class="node">
<title>interrupt</title>
<ellipse fill="#b2dfee" stroke="#b2dfee" cx="40.9464" cy="-162" rx="40.8928" ry="18"/>
<text text-anchor="middle" x="40.9464" y="-158.3" font-family="Times,serif" font-size="14.00" fill="#000000">interrupt</text>
</g>
<!-- end -->
<g id="node2" class="node">
<title>end</title>
<ellipse fill="#b2dfee" stroke="#b2dfee" cx="40.9464" cy="-90" rx="27" ry="18"/>
<text text-anchor="middle" x="40.9464" y="-86.3" font-family="Times,serif" font-size="14.00" fill="#000000">end</text>
</g>
<!-- interrupt&#45;&gt;end -->
<g id="edge1" class="edge">
<title>interrupt&#45;&gt;end</title>
<path fill="none" stroke="#000000" d="M40.9464,-143.8314C40.9464,-136.131 40.9464,-126.9743 40.9464,-118.4166"/>
<polygon fill="#000000" stroke="#000000" points="44.4465,-118.4132 40.9464,-108.4133 37.4465,-118.4133 44.4465,-118.4132"/>
</g>
<!-- change -->
<g id="node3" class="node">
<title>change</title>
<ellipse fill="#b2dfee" stroke="#b2dfee" cx="40.9464" cy="-18" rx="35.9954" ry="18"/>
<text text-anchor="middle" x="40.9464" y="-14.3" font-family="Times,serif" font-size="14.00" fill="#000000">change</text>
</g>
<!-- end&#45;&gt;change -->
<g id="edge2" class="edge">
<title>end&#45;&gt;change</title>
<path fill="none" stroke="#000000" d="M40.9464,-71.8314C40.9464,-64.131 40.9464,-54.9743 40.9464,-46.4166"/>
<polygon fill="#000000" stroke="#000000" points="44.4465,-46.4132 40.9464,-36.4133 37.4465,-46.4133 44.4465,-46.4132"/>
</g>
</g>
</svg>
