<?xml version="1.0" encoding="UTF-8" standalone="no"?>
<!DOCTYPE svg PUBLIC "-//W3C//DTD SVG 1.1//EN"
 "http://www.w3.org/Graphics/SVG/1.1/DTD/svg11.dtd">
<!-- Generated by graphviz version 2.40.1 (20161225.0304)
 -->
<!-- Title: unix Pages: 1 -->
<svg width="117pt" height="432pt"
 viewBox="0.00 0.00 116.96 432.00" xmlns="http://www.w3.org/2000/svg" xmlns:xlink="http://www.w3.org/1999/xlink">
<g id="graph0" class="graph" transform="scale(.4758 .4758) rotate(0) translate(4 904)">
<title>unix</title>
<polygon fill="#ffffff" stroke="transparent" points="-4,4 -4,-904 241.8403,-904 241.8403,4 -4,4"/>
<!-- bunny -->
<g id="node1" class="node">
<title>bunny</title>
<ellipse fill="#b2dfee" stroke="#b2dfee" cx="119.895" cy="-882" rx="32.4942" ry="18"/>
<text text-anchor="middle" x="119.895" y="-878.3" font-family="Times,serif" font-size="14.00" fill="#000000">bunny</text>
</g>
<!-- waitress -->
<g id="node2" class="node">
<title>waitress</title>
<ellipse fill="#b2dfee" stroke="#b2dfee" cx="119.895" cy="-810" rx="39.7935" ry="18"/>
<text text-anchor="middle" x="119.895" y="-806.3" font-family="Times,serif" font-size="14.00" fill="#000000">waitress</text>
</g>
<!-- bunny&#45;&gt;waitress -->
<g id="edge1" class="edge">
<title>bunny&#45;&gt;waitress</title>
<path fill="none" stroke="#000000" d="M119.895,-863.8314C119.895,-856.131 119.895,-846.9743 119.895,-838.4166"/>
<polygon fill="#000000" stroke="#000000" points="123.3951,-838.4132 119.895,-828.4133 116.3951,-838.4133 123.3951,-838.4132"/>
</g>
<!-- waiter -->
<g id="node3" class="node">
<title>waiter</title>
<ellipse fill="#b2dfee" stroke="#b2dfee" cx="119.895" cy="-738" rx="32.4942" ry="18"/>
<text text-anchor="middle" x="119.895" y="-734.3" font-family="Times,serif" font-size="14.00" fill="#000000">waiter</text>
</g>
<!-- waitress&#45;&gt;waiter -->
<g id="edge2" class="edge">
<title>waitress&#45;&gt;waiter</title>
<path fill="none" stroke="#000000" d="M119.895,-791.8314C119.895,-784.131 119.895,-774.9743 119.895,-766.4166"/>
<polygon fill="#000000" stroke="#000000" points="123.3951,-766.4132 119.895,-756.4133 116.3951,-766.4133 123.3951,-766.4132"/>
</g>
<!-- dining&#45;room_attendant -->
<g id="node4" class="node">
<title>dining&#45;room_attendant</title>
<ellipse fill="#b2dfee" stroke="#b2dfee" cx="119.895" cy="-666" rx="91.784" ry="18"/>
<text text-anchor="middle" x="119.895" y="-662.3" font-family="Times,serif" font-size="14.00" fill="#000000">dining&#45;room_attendant</text>
</g>
<!-- waiter&#45;&gt;dining&#45;room_attendant -->
<g id="edge3" class="edge">
<title>waiter&#45;&gt;dining&#45;room_attendant</title>
<path fill="none" stroke="#000000" d="M119.895,-719.8314C119.895,-712.131 119.895,-702.9743 119.895,-694.4166"/>
<polygon fill="#000000" stroke="#000000" points="123.3951,-694.4132 119.895,-684.4133 116.3951,-694.4133 123.3951,-694.4132"/>
</g>
<!-- employee -->
<g id="node5" class="node">
<title>employee</title>
<ellipse fill="#b2dfee" stroke="#b2dfee" cx="119.895" cy="-594" rx="45.4919" ry="18"/>
<text text-anchor="middle" x="119.895" y="-590.3" font-family="Times,serif" font-size="14.00" fill="#000000">employee</text>
</g>
<!-- dining&#45;room_attendant&#45;&gt;employee -->
<g id="edge4" class="edge">
<title>dining&#45;room_attendant&#45;&gt;employee</title>
<path fill="none" stroke="#000000" d="M119.895,-647.8314C119.895,-640.131 119.895,-630.9743 119.895,-622.4166"/>
<polygon fill="#000000" stroke="#000000" points="123.3951,-622.4132 119.895,-612.4133 116.3951,-622.4133 123.3951,-622.4132"/>
</g>
<!-- worker -->
<g id="node6" class="node">
<title>worker</title>
<ellipse fill="#b2dfee" stroke="#b2dfee" cx="119.895" cy="-522" rx="35.9954" ry="18"/>
<text text-anchor="middle" x="119.895" y="-518.3" font-family="Times,serif" font-size="14.00" fill="#000000">worker</text>
</g>
<!-- employee&#45;&gt;worker -->
<g id="edge5" class="edge">
<title>employee&#45;&gt;worker</title>
<path fill="none" stroke="#000000" d="M119.895,-575.8314C119.895,-568.131 119.895,-558.9743 119.895,-550.4166"/>
<polygon fill="#000000" stroke="#000000" points="123.3951,-550.4132 119.895,-540.4133 116.3951,-550.4133 123.3951,-550.4132"/>
</g>
<!-- person -->
<g id="node7" class="node">
<title>person</title>
<ellipse fill="#b2dfee" stroke="#b2dfee" cx="119.895" cy="-450" rx="34.394" ry="18"/>
<text text-anchor="middle" x="119.895" y="-446.3" font-family="Times,serif" font-size="14.00" fill="#000000">person</text>
</g>
<!-- worker&#45;&gt;person -->
<g id="edge6" class="edge">
<title>worker&#45;&gt;person</title>
<path fill="none" stroke="#000000" d="M119.895,-503.8314C119.895,-496.131 119.895,-486.9743 119.895,-478.4166"/>
<polygon fill="#000000" stroke="#000000" points="123.3951,-478.4132 119.895,-468.4133 116.3951,-478.4133 123.3951,-478.4132"/>
</g>
<!-- causal_agent -->
<g id="node8" class="node">
<title>causal_agent</title>
<ellipse fill="#b2dfee" stroke="#b2dfee" cx="55.895" cy="-306" rx="55.7903" ry="18"/>
<text text-anchor="middle" x="55.895" y="-302.3" font-family="Times,serif" font-size="14.00" fill="#000000">causal_agent</text>
</g>
<!-- person&#45;&gt;causal_agent -->
<g id="edge7" class="edge">
<title>person&#45;&gt;causal_agent</title>
<path fill="none" stroke="#000000" d="M112.0474,-432.3428C101.0716,-407.6472 81.0326,-362.5594 68.0992,-333.4592"/>
<polygon fill="#000000" stroke="#000000" points="71.2686,-331.9726 64.0088,-324.256 64.8719,-334.8156 71.2686,-331.9726"/>
</g>
<!-- organism -->
<g id="node11" class="node">
<title>organism</title>
<ellipse fill="#b2dfee" stroke="#b2dfee" cx="169.895" cy="-378" rx="44.393" ry="18"/>
<text text-anchor="middle" x="169.895" y="-374.3" font-family="Times,serif" font-size="14.00" fill="#000000">organism</text>
</g>
<!-- person&#45;&gt;organism -->
<g id="edge10" class="edge">
<title>person&#45;&gt;organism</title>
<path fill="none" stroke="#000000" d="M131.7443,-432.937C137.7582,-424.277 145.1915,-413.5731 151.8945,-403.9207"/>
<polygon fill="#000000" stroke="#000000" points="154.9543,-405.6508 157.7835,-395.4407 149.2047,-401.658 154.9543,-405.6508"/>
</g>
<!-- physical_entity -->
<g id="node9" class="node">
<title>physical_entity</title>
<ellipse fill="#b2dfee" stroke="#b2dfee" cx="119.895" cy="-90" rx="64.189" ry="18"/>
<text text-anchor="middle" x="119.895" y="-86.3" font-family="Times,serif" font-size="14.00" fill="#000000">physical_entity</text>
</g>
<!-- causal_agent&#45;&gt;physical_entity -->
<g id="edge8" class="edge">
<title>causal_agent&#45;&gt;physical_entity</title>
<path fill="none" stroke="#000000" d="M61.2416,-287.9555C72.418,-250.235 98.3191,-162.8188 111.6462,-117.8399"/>
<polygon fill="#000000" stroke="#000000" points="115.0336,-118.7274 114.5187,-108.1451 108.322,-116.7387 115.0336,-118.7274"/>
</g>
<!-- entity -->
<g id="node10" class="node">
<title>entity</title>
<ellipse fill="#b2dfee" stroke="#b2dfee" cx="119.895" cy="-18" rx="30.5947" ry="18"/>
<text text-anchor="middle" x="119.895" y="-14.3" font-family="Times,serif" font-size="14.00" fill="#000000">entity</text>
</g>
<!-- physical_entity&#45;&gt;entity -->
<g id="edge9" class="edge">
<title>physical_entity&#45;&gt;entity</title>
<path fill="none" stroke="#000000" d="M119.895,-71.8314C119.895,-64.131 119.895,-54.9743 119.895,-46.4166"/>
<polygon fill="#000000" stroke="#000000" points="123.3951,-46.4132 119.895,-36.4133 116.3951,-46.4133 123.3951,-46.4132"/>
</g>
<!-- living_thing -->
<g id="node12" class="node">
<title>living_thing</title>
<ellipse fill="#b2dfee" stroke="#b2dfee" cx="183.895" cy="-306" rx="53.8905" ry="18"/>
<text text-anchor="middle" x="183.895" y="-302.3" font-family="Times,serif" font-size="14.00" fill="#000000">living_thing</text>
</g>
<!-- organism&#45;&gt;living_thing -->
<g id="edge11" class="edge">
<title>organism&#45;&gt;living_thing</title>
<path fill="none" stroke="#000000" d="M173.4278,-359.8314C174.9251,-352.131 176.7056,-342.9743 178.3696,-334.4166"/>
<polygon fill="#000000" stroke="#000000" points="181.8416,-334.8975 180.3147,-324.4133 174.9703,-333.5614 181.8416,-334.8975"/>
</g>
<!-- whole -->
<g id="node13" class="node">
<title>whole</title>
<ellipse fill="#b2dfee" stroke="#b2dfee" cx="166.895" cy="-234" rx="32.4942" ry="18"/>
<text text-anchor="middle" x="166.895" y="-230.3" font-family="Times,serif" font-size="14.00" fill="#000000">whole</text>
</g>
<!-- living_thing&#45;&gt;whole -->
<g id="edge12" class="edge">
<title>living_thing&#45;&gt;whole</title>
<path fill="none" stroke="#000000" d="M179.6052,-287.8314C177.7388,-279.9266 175.5101,-270.4872 173.4439,-261.7365"/>
<polygon fill="#000000" stroke="#000000" points="176.8289,-260.8415 171.1246,-251.9134 170.0163,-262.4501 176.8289,-260.8415"/>
</g>
<!-- object -->
<g id="node14" class="node">
<title>object</title>
<ellipse fill="#b2dfee" stroke="#b2dfee" cx="157.895" cy="-162" rx="32.4942" ry="18"/>
<text text-anchor="middle" x="157.895" y="-158.3" font-family="Times,serif" font-size="14.00" fill="#000000">object</text>
</g>
<!-- whole&#45;&gt;object -->
<g id="edge13" class="edge">
<title>whole&#45;&gt;object</title>
<path fill="none" stroke="#000000" d="M164.624,-215.8314C163.6614,-208.131 162.5168,-198.9743 161.4471,-190.4166"/>
<polygon fill="#000000" stroke="#000000" points="164.9101,-189.9019 160.1967,-180.4133 157.9642,-190.7702 164.9101,-189.9019"/>
</g>
<!-- object&#45;&gt;physical_entity -->
<g id="edge14" class="edge">
<title>object&#45;&gt;physical_entity</title>
<path fill="none" stroke="#000000" d="M148.6963,-144.5708C144.3142,-136.2679 138.9743,-126.1502 134.0883,-116.8925"/>
<polygon fill="#000000" stroke="#000000" points="137.1689,-115.2308 129.4059,-108.0206 130.9782,-118.4981 137.1689,-115.2308"/>
</g>
</g>
</svg>
