<?xml version="1.0" encoding="UTF-8" standalone="no"?>
<!DOCTYPE svg PUBLIC "-//W3C//DTD SVG 1.1//EN"
 "http://www.w3.org/Graphics/SVG/1.1/DTD/svg11.dtd">
<!-- Generated by graphviz version 2.40.1 (20161225.0304)
 -->
<!-- Title: unix Pages: 1 -->
<svg width="146pt" height="432pt"
 viewBox="0.00 0.00 146.42 432.00" xmlns="http://www.w3.org/2000/svg" xmlns:xlink="http://www.w3.org/1999/xlink">
<g id="graph0" class="graph" transform="scale(.7883 .7883) rotate(0) translate(4 544)">
<title>unix</title>
<polygon fill="#ffffff" stroke="transparent" points="-4,4 -4,-544 181.7422,-544 181.7422,4 -4,4"/>
<!-- butter -->
<g id="node1" class="node">
<title>butter</title>
<ellipse fill="#b2dfee" stroke="#b2dfee" cx="103.7947" cy="-522" rx="31.3957" ry="18"/>
<text text-anchor="middle" x="103.7947" y="-518.3" font-family="Times,serif" font-size="14.00" fill="#000000">butter</text>
</g>
<!-- dairy_product -->
<g id="node2" class="node">
<title>dairy_product</title>
<ellipse fill="#b2dfee" stroke="#b2dfee" cx="59.7947" cy="-450" rx="59.5901" ry="18"/>
<text text-anchor="middle" x="59.7947" y="-446.3" font-family="Times,serif" font-size="14.00" fill="#000000">dairy_product</text>
</g>
<!-- butter&#45;&gt;dairy_product -->
<g id="edge1" class="edge">
<title>butter&#45;&gt;dairy_product</title>
<path fill="none" stroke="#000000" d="M93.3673,-504.937C88.2061,-496.4914 81.857,-486.1019 76.0744,-476.6396"/>
<polygon fill="#000000" stroke="#000000" points="78.9623,-474.653 70.7612,-467.9453 72.9893,-478.3032 78.9623,-474.653"/>
</g>
<!-- food -->
<g id="node4" class="node">
<title>food</title>
<ellipse fill="#b2dfee" stroke="#b2dfee" cx="103.7947" cy="-306" rx="27" ry="18"/>
<text text-anchor="middle" x="103.7947" y="-302.3" font-family="Times,serif" font-size="14.00" fill="#000000">food</text>
</g>
<!-- butter&#45;&gt;food -->
<g id="edge8" class="edge">
<title>butter&#45;&gt;food</title>
<path fill="none" stroke="#000000" d="M114.1614,-504.6856C119.7003,-494.4141 125.9503,-480.9141 128.7947,-468 139.1235,-421.1046 124.9747,-365.6478 114.129,-333.2898"/>
<polygon fill="#000000" stroke="#000000" points="117.3592,-331.9235 110.7589,-323.6358 110.7503,-334.2306 117.3592,-331.9235"/>
</g>
<!-- foodstuff -->
<g id="node3" class="node">
<title>foodstuff</title>
<ellipse fill="#b2dfee" stroke="#b2dfee" cx="68.7947" cy="-378" rx="42.7926" ry="18"/>
<text text-anchor="middle" x="68.7947" y="-374.3" font-family="Times,serif" font-size="14.00" fill="#000000">foodstuff</text>
</g>
<!-- dairy_product&#45;&gt;foodstuff -->
<g id="edge2" class="edge">
<title>dairy_product&#45;&gt;foodstuff</title>
<path fill="none" stroke="#000000" d="M62.0658,-431.8314C63.0283,-424.131 64.1729,-414.9743 65.2426,-406.4166"/>
<polygon fill="#000000" stroke="#000000" points="68.7256,-406.7702 66.493,-396.4133 61.7796,-405.9019 68.7256,-406.7702"/>
</g>
<!-- foodstuff&#45;&gt;food -->
<g id="edge3" class="edge">
<title>foodstuff&#45;&gt;food</title>
<path fill="none" stroke="#000000" d="M77.4464,-360.2022C81.5029,-351.8574 86.4203,-341.7417 90.9032,-332.5197"/>
<polygon fill="#000000" stroke="#000000" points="94.1391,-333.8685 95.3633,-323.3446 87.8435,-330.8081 94.1391,-333.8685"/>
</g>
<!-- substance -->
<g id="node5" class="node">
<title>substance</title>
<ellipse fill="#b2dfee" stroke="#b2dfee" cx="58.7947" cy="-234" rx="44.6926" ry="18"/>
<text text-anchor="middle" x="58.7947" y="-230.3" font-family="Times,serif" font-size="14.00" fill="#000000">substance</text>
</g>
<!-- food&#45;&gt;substance -->
<g id="edge4" class="edge">
<title>food&#45;&gt;substance</title>
<path fill="none" stroke="#000000" d="M93.3577,-289.3008C87.9507,-280.6496 81.2242,-269.8873 75.1461,-260.1623"/>
<polygon fill="#000000" stroke="#000000" points="78.071,-258.2382 69.8029,-251.6132 72.135,-261.9482 78.071,-258.2382"/>
</g>
<!-- solid -->
<g id="node9" class="node">
<title>solid</title>
<ellipse fill="#b2dfee" stroke="#b2dfee" cx="149.7947" cy="-234" rx="27.8951" ry="18"/>
<text text-anchor="middle" x="149.7947" y="-230.3" font-family="Times,serif" font-size="14.00" fill="#000000">solid</text>
</g>
<!-- food&#45;&gt;solid -->
<g id="edge9" class="edge">
<title>food&#45;&gt;solid</title>
<path fill="none" stroke="#000000" d="M114.4636,-289.3008C120.072,-280.5224 127.0692,-269.5703 133.3536,-259.7339"/>
<polygon fill="#000000" stroke="#000000" points="136.4297,-261.42 138.8642,-251.1086 130.5308,-257.6512 136.4297,-261.42"/>
</g>
<!-- matter -->
<g id="node6" class="node">
<title>matter</title>
<ellipse fill="#b2dfee" stroke="#b2dfee" cx="103.7947" cy="-162" rx="33.5952" ry="18"/>
<text text-anchor="middle" x="103.7947" y="-158.3" font-family="Times,serif" font-size="14.00" fill="#000000">matter</text>
</g>
<!-- substance&#45;&gt;matter -->
<g id="edge5" class="edge">
<title>substance&#45;&gt;matter</title>
<path fill="none" stroke="#000000" d="M69.9183,-216.2022C75.2831,-207.6186 81.8189,-197.1613 87.7133,-187.7303"/>
<polygon fill="#000000" stroke="#000000" points="90.7769,-189.4322 93.1089,-179.0972 84.8409,-185.7222 90.7769,-189.4322"/>
</g>
<!-- physical_entity -->
<g id="node7" class="node">
<title>physical_entity</title>
<ellipse fill="#b2dfee" stroke="#b2dfee" cx="103.7947" cy="-90" rx="64.189" ry="18"/>
<text text-anchor="middle" x="103.7947" y="-86.3" font-family="Times,serif" font-size="14.00" fill="#000000">physical_entity</text>
</g>
<!-- matter&#45;&gt;physical_entity -->
<g id="edge6" class="edge">
<title>matter&#45;&gt;physical_entity</title>
<path fill="none" stroke="#000000" d="M103.7947,-143.8314C103.7947,-136.131 103.7947,-126.9743 103.7947,-118.4166"/>
<polygon fill="#000000" stroke="#000000" points="107.2948,-118.4132 103.7947,-108.4133 100.2948,-118.4133 107.2948,-118.4132"/>
</g>
<!-- entity -->
<g id="node8" class="node">
<title>entity</title>
<ellipse fill="#b2dfee" stroke="#b2dfee" cx="103.7947" cy="-18" rx="30.5947" ry="18"/>
<text text-anchor="middle" x="103.7947" y="-14.3" font-family="Times,serif" font-size="14.00" fill="#000000">entity</text>
</g>
<!-- physical_entity&#45;&gt;entity -->
<g id="edge7" class="edge">
<title>physical_entity&#45;&gt;entity</title>
<path fill="none" stroke="#000000" d="M103.7947,-71.8314C103.7947,-64.131 103.7947,-54.9743 103.7947,-46.4166"/>
<polygon fill="#000000" stroke="#000000" points="107.2948,-46.4132 103.7947,-36.4133 100.2948,-46.4133 107.2948,-46.4132"/>
</g>
<!-- solid&#45;&gt;matter -->
<g id="edge10" class="edge">
<title>solid&#45;&gt;matter</title>
<path fill="none" stroke="#000000" d="M139.1257,-217.3008C133.5174,-208.5224 126.5201,-197.5703 120.2358,-187.7339"/>
<polygon fill="#000000" stroke="#000000" points="123.0586,-185.6512 114.7252,-179.1086 117.1597,-189.42 123.0586,-185.6512"/>
</g>
</g>
</svg>
