<?xml version="1.0" encoding="UTF-8" standalone="no"?>
<!DOCTYPE svg PUBLIC "-//W3C//DTD SVG 1.1//EN"
 "http://www.w3.org/Graphics/SVG/1.1/DTD/svg11.dtd">
<!-- Generated by graphviz version 2.40.1 (20161225.0304)
 -->
<!-- Title: unix Pages: 1 -->
<svg width="104pt" height="432pt"
 viewBox="0.00 0.00 104.00 432.00" xmlns="http://www.w3.org/2000/svg" xmlns:xlink="http://www.w3.org/1999/xlink">
<g id="graph0" class="graph" transform="scale(.6243 .6243) rotate(0) translate(4 688)">
<title>unix</title>
<polygon fill="#ffffff" stroke="transparent" points="-4,4 -4,-688 162.5859,-688 162.5859,4 -4,4"/>
<!-- call -->
<g id="node1" class="node">
<title>call</title>
<ellipse fill="#b2dfee" stroke="#b2dfee" cx="79.293" cy="-666" rx="27" ry="18"/>
<text text-anchor="middle" x="79.293" y="-662.3" font-family="Times,serif" font-size="14.00" fill="#000000">call</text>
</g>
<!-- telephone -->
<g id="node2" class="node">
<title>telephone</title>
<ellipse fill="#b2dfee" stroke="#b2dfee" cx="79.293" cy="-594" rx="44.6926" ry="18"/>
<text text-anchor="middle" x="79.293" y="-590.3" font-family="Times,serif" font-size="14.00" fill="#000000">telephone</text>
</g>
<!-- call&#45;&gt;telephone -->
<g id="edge1" class="edge">
<title>call&#45;&gt;telephone</title>
<path fill="none" stroke="#000000" d="M79.293,-647.8314C79.293,-640.131 79.293,-630.9743 79.293,-622.4166"/>
<polygon fill="#000000" stroke="#000000" points="82.7931,-622.4132 79.293,-612.4133 75.7931,-622.4133 82.7931,-622.4132"/>
</g>
<!-- telecommunication -->
<g id="node3" class="node">
<title>telecommunication</title>
<ellipse fill="#b2dfee" stroke="#b2dfee" cx="79.293" cy="-522" rx="79.0865" ry="18"/>
<text text-anchor="middle" x="79.293" y="-518.3" font-family="Times,serif" font-size="14.00" fill="#000000">telecommunication</text>
</g>
<!-- telephone&#45;&gt;telecommunication -->
<g id="edge2" class="edge">
<title>telephone&#45;&gt;telecommunication</title>
<path fill="none" stroke="#000000" d="M79.293,-575.8314C79.293,-568.131 79.293,-558.9743 79.293,-550.4166"/>
<polygon fill="#000000" stroke="#000000" points="82.7931,-550.4132 79.293,-540.4133 75.7931,-550.4133 82.7931,-550.4132"/>
</g>
<!-- medium -->
<g id="node4" class="node">
<title>medium</title>
<ellipse fill="#b2dfee" stroke="#b2dfee" cx="79.293" cy="-450" rx="40.0939" ry="18"/>
<text text-anchor="middle" x="79.293" y="-446.3" font-family="Times,serif" font-size="14.00" fill="#000000">medium</text>
</g>
<!-- telecommunication&#45;&gt;medium -->
<g id="edge3" class="edge">
<title>telecommunication&#45;&gt;medium</title>
<path fill="none" stroke="#000000" d="M79.293,-503.8314C79.293,-496.131 79.293,-486.9743 79.293,-478.4166"/>
<polygon fill="#000000" stroke="#000000" points="82.7931,-478.4132 79.293,-468.4133 75.7931,-478.4133 82.7931,-478.4132"/>
</g>
<!-- instrumentality -->
<g id="node5" class="node">
<title>instrumentality</title>
<ellipse fill="#b2dfee" stroke="#b2dfee" cx="79.293" cy="-378" rx="64.189" ry="18"/>
<text text-anchor="middle" x="79.293" y="-374.3" font-family="Times,serif" font-size="14.00" fill="#000000">instrumentality</text>
</g>
<!-- medium&#45;&gt;instrumentality -->
<g id="edge4" class="edge">
<title>medium&#45;&gt;instrumentality</title>
<path fill="none" stroke="#000000" d="M79.293,-431.8314C79.293,-424.131 79.293,-414.9743 79.293,-406.4166"/>
<polygon fill="#000000" stroke="#000000" points="82.7931,-406.4132 79.293,-396.4133 75.7931,-406.4133 82.7931,-406.4132"/>
</g>
<!-- artifact -->
<g id="node6" class="node">
<title>artifact</title>
<ellipse fill="#b2dfee" stroke="#b2dfee" cx="79.293" cy="-306" rx="35.9954" ry="18"/>
<text text-anchor="middle" x="79.293" y="-302.3" font-family="Times,serif" font-size="14.00" fill="#000000">artifact</text>
</g>
<!-- instrumentality&#45;&gt;artifact -->
<g id="edge5" class="edge">
<title>instrumentality&#45;&gt;artifact</title>
<path fill="none" stroke="#000000" d="M79.293,-359.8314C79.293,-352.131 79.293,-342.9743 79.293,-334.4166"/>
<polygon fill="#000000" stroke="#000000" points="82.7931,-334.4132 79.293,-324.4133 75.7931,-334.4133 82.7931,-334.4132"/>
</g>
<!-- whole -->
<g id="node7" class="node">
<title>whole</title>
<ellipse fill="#b2dfee" stroke="#b2dfee" cx="79.293" cy="-234" rx="32.4942" ry="18"/>
<text text-anchor="middle" x="79.293" y="-230.3" font-family="Times,serif" font-size="14.00" fill="#000000">whole</text>
</g>
<!-- artifact&#45;&gt;whole -->
<g id="edge6" class="edge">
<title>artifact&#45;&gt;whole</title>
<path fill="none" stroke="#000000" d="M79.293,-287.8314C79.293,-280.131 79.293,-270.9743 79.293,-262.4166"/>
<polygon fill="#000000" stroke="#000000" points="82.7931,-262.4132 79.293,-252.4133 75.7931,-262.4133 82.7931,-262.4132"/>
</g>
<!-- object -->
<g id="node8" class="node">
<title>object</title>
<ellipse fill="#b2dfee" stroke="#b2dfee" cx="79.293" cy="-162" rx="32.4942" ry="18"/>
<text text-anchor="middle" x="79.293" y="-158.3" font-family="Times,serif" font-size="14.00" fill="#000000">object</text>
</g>
<!-- whole&#45;&gt;object -->
<g id="edge7" class="edge">
<title>whole&#45;&gt;object</title>
<path fill="none" stroke="#000000" d="M79.293,-215.8314C79.293,-208.131 79.293,-198.9743 79.293,-190.4166"/>
<polygon fill="#000000" stroke="#000000" points="82.7931,-190.4132 79.293,-180.4133 75.7931,-190.4133 82.7931,-190.4132"/>
</g>
<!-- physical_entity -->
<g id="node9" class="node">
<title>physical_entity</title>
<ellipse fill="#b2dfee" stroke="#b2dfee" cx="79.293" cy="-90" rx="64.189" ry="18"/>
<text text-anchor="middle" x="79.293" y="-86.3" font-family="Times,serif" font-size="14.00" fill="#000000">physical_entity</text>
</g>
<!-- object&#45;&gt;physical_entity -->
<g id="edge8" class="edge">
<title>object&#45;&gt;physical_entity</title>
<path fill="none" stroke="#000000" d="M79.293,-143.8314C79.293,-136.131 79.293,-126.9743 79.293,-118.4166"/>
<polygon fill="#000000" stroke="#000000" points="82.7931,-118.4132 79.293,-108.4133 75.7931,-118.4133 82.7931,-118.4132"/>
</g>
<!-- entity -->
<g id="node10" class="node">
<title>entity</title>
<ellipse fill="#b2dfee" stroke="#b2dfee" cx="79.293" cy="-18" rx="30.5947" ry="18"/>
<text text-anchor="middle" x="79.293" y="-14.3" font-family="Times,serif" font-size="14.00" fill="#000000">entity</text>
</g>
<!-- physical_entity&#45;&gt;entity -->
<g id="edge9" class="edge">
<title>physical_entity&#45;&gt;entity</title>
<path fill="none" stroke="#000000" d="M79.293,-71.8314C79.293,-64.131 79.293,-54.9743 79.293,-46.4166"/>
<polygon fill="#000000" stroke="#000000" points="82.7931,-46.4132 79.293,-36.4133 75.7931,-46.4133 82.7931,-46.4132"/>
</g>
</g>
</svg>
