<?xml version="1.0" encoding="UTF-8" standalone="no"?>
<!DOCTYPE svg PUBLIC "-//W3C//DTD SVG 1.1//EN"
 "http://www.w3.org/Graphics/SVG/1.1/DTD/svg11.dtd">
<!-- Generated by graphviz version 2.40.1 (20161225.0304)
 -->
<!-- Title: unix Pages: 1 -->
<svg width="96pt" height="188pt"
 viewBox="0.00 0.00 96.39 188.00" xmlns="http://www.w3.org/2000/svg" xmlns:xlink="http://www.w3.org/1999/xlink">
<g id="graph0" class="graph" transform="scale(1 1) rotate(0) translate(4 184)">
<title>unix</title>
<polygon fill="#ffffff" stroke="transparent" points="-4,4 -4,-184 92.3922,-184 92.3922,4 -4,4"/>
<!-- name -->
<g id="node1" class="node">
<title>name</title>
<ellipse fill="#b2dfee" stroke="#b2dfee" cx="44.1961" cy="-162" rx="30.5947" ry="18"/>
<text text-anchor="middle" x="44.1961" y="-158.3" font-family="Times,serif" font-size="14.00" fill="#000000">name</text>
</g>
<!-- label -->
<g id="node2" class="node">
<title>label</title>
<ellipse fill="#b2dfee" stroke="#b2dfee" cx="44.1961" cy="-90" rx="27.8951" ry="18"/>
<text text-anchor="middle" x="44.1961" y="-86.3" font-family="Times,serif" font-size="14.00" fill="#000000">label</text>
</g>
<!-- name&#45;&gt;label -->
<g id="edge1" class="edge">
<title>name&#45;&gt;label</title>
<path fill="none" stroke="#000000" d="M44.1961,-143.8314C44.1961,-136.131 44.1961,-126.9743 44.1961,-118.4166"/>
<polygon fill="#000000" stroke="#000000" points="47.6962,-118.4132 44.1961,-108.4133 40.6962,-118.4133 47.6962,-118.4132"/>
</g>
<!-- designate -->
<g id="node3" class="node">
<title>designate</title>
<ellipse fill="#b2dfee" stroke="#b2dfee" cx="44.1961" cy="-18" rx="44.393" ry="18"/>
<text text-anchor="middle" x="44.1961" y="-14.3" font-family="Times,serif" font-size="14.00" fill="#000000">designate</text>
</g>
<!-- label&#45;&gt;designate -->
<g id="edge2" class="edge">
<title>label&#45;&gt;designate</title>
<path fill="none" stroke="#000000" d="M44.1961,-71.8314C44.1961,-64.131 44.1961,-54.9743 44.1961,-46.4166"/>
<polygon fill="#000000" stroke="#000000" points="47.6962,-46.4132 44.1961,-36.4133 40.6962,-46.4133 47.6962,-46.4132"/>
</g>
</g>
</svg>
