<?xml version="1.0" encoding="UTF-8" standalone="no"?>
<!DOCTYPE svg PUBLIC "-//W3C//DTD SVG 1.1//EN"
 "http://www.w3.org/Graphics/SVG/1.1/DTD/svg11.dtd">
<!-- Generated by graphviz version 2.40.1 (20161225.0304)
 -->
<!-- Title: unix Pages: 1 -->
<svg width="84pt" height="432pt"
 viewBox="0.00 0.00 84.37 432.00" xmlns="http://www.w3.org/2000/svg" xmlns:xlink="http://www.w3.org/1999/xlink">
<g id="graph0" class="graph" transform="scale(.6968 .6968) rotate(0) translate(4 616)">
<title>unix</title>
<polygon fill="#ffffff" stroke="transparent" points="-4,4 -4,-616 117.09,-616 117.09,4 -4,4"/>
<!-- catch -->
<g id="node1" class="node">
<title>catch</title>
<ellipse fill="#b2dfee" stroke="#b2dfee" cx="56.545" cy="-594" rx="29.4969" ry="18"/>
<text text-anchor="middle" x="56.545" y="-590.3" font-family="Times,serif" font-size="14.00" fill="#000000">catch</text>
</g>
<!-- drawback -->
<g id="node2" class="node">
<title>drawback</title>
<ellipse fill="#b2dfee" stroke="#b2dfee" cx="56.545" cy="-522" rx="44.6926" ry="18"/>
<text text-anchor="middle" x="56.545" y="-518.3" font-family="Times,serif" font-size="14.00" fill="#000000">drawback</text>
</g>
<!-- catch&#45;&gt;drawback -->
<g id="edge1" class="edge">
<title>catch&#45;&gt;drawback</title>
<path fill="none" stroke="#000000" d="M56.545,-575.8314C56.545,-568.131 56.545,-558.9743 56.545,-550.4166"/>
<polygon fill="#000000" stroke="#000000" points="60.0451,-550.4132 56.545,-540.4133 53.0451,-550.4133 60.0451,-550.4132"/>
</g>
<!-- disadvantage -->
<g id="node3" class="node">
<title>disadvantage</title>
<ellipse fill="#b2dfee" stroke="#b2dfee" cx="56.545" cy="-450" rx="56.59" ry="18"/>
<text text-anchor="middle" x="56.545" y="-446.3" font-family="Times,serif" font-size="14.00" fill="#000000">disadvantage</text>
</g>
<!-- drawback&#45;&gt;disadvantage -->
<g id="edge2" class="edge">
<title>drawback&#45;&gt;disadvantage</title>
<path fill="none" stroke="#000000" d="M56.545,-503.8314C56.545,-496.131 56.545,-486.9743 56.545,-478.4166"/>
<polygon fill="#000000" stroke="#000000" points="60.0451,-478.4132 56.545,-468.4133 53.0451,-478.4133 60.0451,-478.4132"/>
</g>
<!-- liability -->
<g id="node4" class="node">
<title>liability</title>
<ellipse fill="#b2dfee" stroke="#b2dfee" cx="56.545" cy="-378" rx="38.1938" ry="18"/>
<text text-anchor="middle" x="56.545" y="-374.3" font-family="Times,serif" font-size="14.00" fill="#000000">liability</text>
</g>
<!-- disadvantage&#45;&gt;liability -->
<g id="edge3" class="edge">
<title>disadvantage&#45;&gt;liability</title>
<path fill="none" stroke="#000000" d="M56.545,-431.8314C56.545,-424.131 56.545,-414.9743 56.545,-406.4166"/>
<polygon fill="#000000" stroke="#000000" points="60.0451,-406.4132 56.545,-396.4133 53.0451,-406.4133 60.0451,-406.4132"/>
</g>
<!-- bad -->
<g id="node5" class="node">
<title>bad</title>
<ellipse fill="#b2dfee" stroke="#b2dfee" cx="56.545" cy="-306" rx="27" ry="18"/>
<text text-anchor="middle" x="56.545" y="-302.3" font-family="Times,serif" font-size="14.00" fill="#000000">bad</text>
</g>
<!-- liability&#45;&gt;bad -->
<g id="edge4" class="edge">
<title>liability&#45;&gt;bad</title>
<path fill="none" stroke="#000000" d="M56.545,-359.8314C56.545,-352.131 56.545,-342.9743 56.545,-334.4166"/>
<polygon fill="#000000" stroke="#000000" points="60.0451,-334.4132 56.545,-324.4133 53.0451,-334.4133 60.0451,-334.4132"/>
</g>
<!-- quality -->
<g id="node6" class="node">
<title>quality</title>
<ellipse fill="#b2dfee" stroke="#b2dfee" cx="56.545" cy="-234" rx="35.194" ry="18"/>
<text text-anchor="middle" x="56.545" y="-230.3" font-family="Times,serif" font-size="14.00" fill="#000000">quality</text>
</g>
<!-- bad&#45;&gt;quality -->
<g id="edge5" class="edge">
<title>bad&#45;&gt;quality</title>
<path fill="none" stroke="#000000" d="M56.545,-287.8314C56.545,-280.131 56.545,-270.9743 56.545,-262.4166"/>
<polygon fill="#000000" stroke="#000000" points="60.0451,-262.4132 56.545,-252.4133 53.0451,-262.4133 60.0451,-262.4132"/>
</g>
<!-- attribute -->
<g id="node7" class="node">
<title>attribute</title>
<ellipse fill="#b2dfee" stroke="#b2dfee" cx="56.545" cy="-162" rx="40.0939" ry="18"/>
<text text-anchor="middle" x="56.545" y="-158.3" font-family="Times,serif" font-size="14.00" fill="#000000">attribute</text>
</g>
<!-- quality&#45;&gt;attribute -->
<g id="edge6" class="edge">
<title>quality&#45;&gt;attribute</title>
<path fill="none" stroke="#000000" d="M56.545,-215.8314C56.545,-208.131 56.545,-198.9743 56.545,-190.4166"/>
<polygon fill="#000000" stroke="#000000" points="60.0451,-190.4132 56.545,-180.4133 53.0451,-190.4133 60.0451,-190.4132"/>
</g>
<!-- abstraction -->
<g id="node8" class="node">
<title>abstraction</title>
<ellipse fill="#b2dfee" stroke="#b2dfee" cx="56.545" cy="-90" rx="49.2915" ry="18"/>
<text text-anchor="middle" x="56.545" y="-86.3" font-family="Times,serif" font-size="14.00" fill="#000000">abstraction</text>
</g>
<!-- attribute&#45;&gt;abstraction -->
<g id="edge7" class="edge">
<title>attribute&#45;&gt;abstraction</title>
<path fill="none" stroke="#000000" d="M56.545,-143.8314C56.545,-136.131 56.545,-126.9743 56.545,-118.4166"/>
<polygon fill="#000000" stroke="#000000" points="60.0451,-118.4132 56.545,-108.4133 53.0451,-118.4133 60.0451,-118.4132"/>
</g>
<!-- entity -->
<g id="node9" class="node">
<title>entity</title>
<ellipse fill="#b2dfee" stroke="#b2dfee" cx="56.545" cy="-18" rx="30.5947" ry="18"/>
<text text-anchor="middle" x="56.545" y="-14.3" font-family="Times,serif" font-size="14.00" fill="#000000">entity</text>
</g>
<!-- abstraction&#45;&gt;entity -->
<g id="edge8" class="edge">
<title>abstraction&#45;&gt;entity</title>
<path fill="none" stroke="#000000" d="M56.545,-71.8314C56.545,-64.131 56.545,-54.9743 56.545,-46.4166"/>
<polygon fill="#000000" stroke="#000000" points="60.0451,-46.4132 56.545,-36.4133 53.0451,-46.4133 60.0451,-46.4132"/>
</g>
</g>
</svg>
