<?xml version="1.0" encoding="UTF-8" standalone="no"?>
<!DOCTYPE svg PUBLIC "-//W3C//DTD SVG 1.1//EN"
 "http://www.w3.org/Graphics/SVG/1.1/DTD/svg11.dtd">
<!-- Generated by graphviz version 2.40.1 (20161225.0304)
 -->
<!-- Title: unix Pages: 1 -->
<svg width="88pt" height="432pt"
 viewBox="0.00 0.00 87.92 432.00" xmlns="http://www.w3.org/2000/svg" xmlns:xlink="http://www.w3.org/1999/xlink">
<g id="graph0" class="graph" transform="scale(.4758 .4758) rotate(0) translate(4 904)">
<title>unix</title>
<polygon fill="#ffffff" stroke="transparent" points="-4,4 -4,-904 180.7843,-904 180.7843,4 -4,4"/>
<!-- clean_and_jerk -->
<g id="node1" class="node">
<title>clean_and_jerk</title>
<ellipse fill="#b2dfee" stroke="#b2dfee" cx="88.3922" cy="-882" rx="64.189" ry="18"/>
<text text-anchor="middle" x="88.3922" y="-878.3" font-family="Times,serif" font-size="14.00" fill="#000000">clean_and_jerk</text>
</g>
<!-- weightlift -->
<g id="node2" class="node">
<title>weightlift</title>
<ellipse fill="#b2dfee" stroke="#b2dfee" cx="88.3922" cy="-810" rx="44.6926" ry="18"/>
<text text-anchor="middle" x="88.3922" y="-806.3" font-family="Times,serif" font-size="14.00" fill="#000000">weightlift</text>
</g>
<!-- clean_and_jerk&#45;&gt;weightlift -->
<g id="edge1" class="edge">
<title>clean_and_jerk&#45;&gt;weightlift</title>
<path fill="none" stroke="#000000" d="M88.3922,-863.8314C88.3922,-856.131 88.3922,-846.9743 88.3922,-838.4166"/>
<polygon fill="#000000" stroke="#000000" points="91.8923,-838.4132 88.3922,-828.4133 84.8923,-838.4133 91.8923,-838.4132"/>
</g>
<!-- bodybuilding -->
<g id="node3" class="node">
<title>bodybuilding</title>
<ellipse fill="#b2dfee" stroke="#b2dfee" cx="88.3922" cy="-738" rx="57.6901" ry="18"/>
<text text-anchor="middle" x="88.3922" y="-734.3" font-family="Times,serif" font-size="14.00" fill="#000000">bodybuilding</text>
</g>
<!-- weightlift&#45;&gt;bodybuilding -->
<g id="edge2" class="edge">
<title>weightlift&#45;&gt;bodybuilding</title>
<path fill="none" stroke="#000000" d="M88.3922,-791.8314C88.3922,-784.131 88.3922,-774.9743 88.3922,-766.4166"/>
<polygon fill="#000000" stroke="#000000" points="91.8923,-766.4132 88.3922,-756.4133 84.8923,-766.4133 91.8923,-766.4132"/>
</g>
<!-- exercise -->
<g id="node4" class="node">
<title>exercise</title>
<ellipse fill="#b2dfee" stroke="#b2dfee" cx="88.3922" cy="-666" rx="39.7935" ry="18"/>
<text text-anchor="middle" x="88.3922" y="-662.3" font-family="Times,serif" font-size="14.00" fill="#000000">exercise</text>
</g>
<!-- bodybuilding&#45;&gt;exercise -->
<g id="edge3" class="edge">
<title>bodybuilding&#45;&gt;exercise</title>
<path fill="none" stroke="#000000" d="M88.3922,-719.8314C88.3922,-712.131 88.3922,-702.9743 88.3922,-694.4166"/>
<polygon fill="#000000" stroke="#000000" points="91.8923,-694.4132 88.3922,-684.4133 84.8923,-694.4133 91.8923,-694.4132"/>
</g>
<!-- effort -->
<g id="node5" class="node">
<title>effort</title>
<ellipse fill="#b2dfee" stroke="#b2dfee" cx="88.3922" cy="-594" rx="30.5947" ry="18"/>
<text text-anchor="middle" x="88.3922" y="-590.3" font-family="Times,serif" font-size="14.00" fill="#000000">effort</text>
</g>
<!-- exercise&#45;&gt;effort -->
<g id="edge4" class="edge">
<title>exercise&#45;&gt;effort</title>
<path fill="none" stroke="#000000" d="M88.3922,-647.8314C88.3922,-640.131 88.3922,-630.9743 88.3922,-622.4166"/>
<polygon fill="#000000" stroke="#000000" points="91.8923,-622.4132 88.3922,-612.4133 84.8923,-622.4133 91.8923,-622.4132"/>
</g>
<!-- labor -->
<g id="node6" class="node">
<title>labor</title>
<ellipse fill="#b2dfee" stroke="#b2dfee" cx="88.3922" cy="-522" rx="28.6953" ry="18"/>
<text text-anchor="middle" x="88.3922" y="-518.3" font-family="Times,serif" font-size="14.00" fill="#000000">labor</text>
</g>
<!-- effort&#45;&gt;labor -->
<g id="edge5" class="edge">
<title>effort&#45;&gt;labor</title>
<path fill="none" stroke="#000000" d="M88.3922,-575.8314C88.3922,-568.131 88.3922,-558.9743 88.3922,-550.4166"/>
<polygon fill="#000000" stroke="#000000" points="91.8923,-550.4132 88.3922,-540.4133 84.8923,-550.4133 91.8923,-550.4132"/>
</g>
<!-- work -->
<g id="node7" class="node">
<title>work</title>
<ellipse fill="#b2dfee" stroke="#b2dfee" cx="88.3922" cy="-450" rx="28.6953" ry="18"/>
<text text-anchor="middle" x="88.3922" y="-446.3" font-family="Times,serif" font-size="14.00" fill="#000000">work</text>
</g>
<!-- labor&#45;&gt;work -->
<g id="edge6" class="edge">
<title>labor&#45;&gt;work</title>
<path fill="none" stroke="#000000" d="M88.3922,-503.8314C88.3922,-496.131 88.3922,-486.9743 88.3922,-478.4166"/>
<polygon fill="#000000" stroke="#000000" points="91.8923,-478.4132 88.3922,-468.4133 84.8923,-478.4133 91.8923,-478.4132"/>
</g>
<!-- activity -->
<g id="node8" class="node">
<title>activity</title>
<ellipse fill="#b2dfee" stroke="#b2dfee" cx="88.3922" cy="-378" rx="37.0935" ry="18"/>
<text text-anchor="middle" x="88.3922" y="-374.3" font-family="Times,serif" font-size="14.00" fill="#000000">activity</text>
</g>
<!-- work&#45;&gt;activity -->
<g id="edge7" class="edge">
<title>work&#45;&gt;activity</title>
<path fill="none" stroke="#000000" d="M88.3922,-431.8314C88.3922,-424.131 88.3922,-414.9743 88.3922,-406.4166"/>
<polygon fill="#000000" stroke="#000000" points="91.8923,-406.4132 88.3922,-396.4133 84.8923,-406.4133 91.8923,-406.4132"/>
</g>
<!-- act -->
<g id="node9" class="node">
<title>act</title>
<ellipse fill="#b2dfee" stroke="#b2dfee" cx="88.3922" cy="-306" rx="27" ry="18"/>
<text text-anchor="middle" x="88.3922" y="-302.3" font-family="Times,serif" font-size="14.00" fill="#000000">act</text>
</g>
<!-- activity&#45;&gt;act -->
<g id="edge8" class="edge">
<title>activity&#45;&gt;act</title>
<path fill="none" stroke="#000000" d="M88.3922,-359.8314C88.3922,-352.131 88.3922,-342.9743 88.3922,-334.4166"/>
<polygon fill="#000000" stroke="#000000" points="91.8923,-334.4132 88.3922,-324.4133 84.8923,-334.4133 91.8923,-334.4132"/>
</g>
<!-- event -->
<g id="node10" class="node">
<title>event</title>
<ellipse fill="#b2dfee" stroke="#b2dfee" cx="88.3922" cy="-234" rx="29.795" ry="18"/>
<text text-anchor="middle" x="88.3922" y="-230.3" font-family="Times,serif" font-size="14.00" fill="#000000">event</text>
</g>
<!-- act&#45;&gt;event -->
<g id="edge9" class="edge">
<title>act&#45;&gt;event</title>
<path fill="none" stroke="#000000" d="M88.3922,-287.8314C88.3922,-280.131 88.3922,-270.9743 88.3922,-262.4166"/>
<polygon fill="#000000" stroke="#000000" points="91.8923,-262.4132 88.3922,-252.4133 84.8923,-262.4133 91.8923,-262.4132"/>
</g>
<!-- psychological_feature -->
<g id="node11" class="node">
<title>psychological_feature</title>
<ellipse fill="#b2dfee" stroke="#b2dfee" cx="88.3922" cy="-162" rx="88.2844" ry="18"/>
<text text-anchor="middle" x="88.3922" y="-158.3" font-family="Times,serif" font-size="14.00" fill="#000000">psychological_feature</text>
</g>
<!-- event&#45;&gt;psychological_feature -->
<g id="edge10" class="edge">
<title>event&#45;&gt;psychological_feature</title>
<path fill="none" stroke="#000000" d="M88.3922,-215.8314C88.3922,-208.131 88.3922,-198.9743 88.3922,-190.4166"/>
<polygon fill="#000000" stroke="#000000" points="91.8923,-190.4132 88.3922,-180.4133 84.8923,-190.4133 91.8923,-190.4132"/>
</g>
<!-- abstraction -->
<g id="node12" class="node">
<title>abstraction</title>
<ellipse fill="#b2dfee" stroke="#b2dfee" cx="88.3922" cy="-90" rx="49.2915" ry="18"/>
<text text-anchor="middle" x="88.3922" y="-86.3" font-family="Times,serif" font-size="14.00" fill="#000000">abstraction</text>
</g>
<!-- psychological_feature&#45;&gt;abstraction -->
<g id="edge11" class="edge">
<title>psychological_feature&#45;&gt;abstraction</title>
<path fill="none" stroke="#000000" d="M88.3922,-143.8314C88.3922,-136.131 88.3922,-126.9743 88.3922,-118.4166"/>
<polygon fill="#000000" stroke="#000000" points="91.8923,-118.4132 88.3922,-108.4133 84.8923,-118.4133 91.8923,-118.4132"/>
</g>
<!-- entity -->
<g id="node13" class="node">
<title>entity</title>
<ellipse fill="#b2dfee" stroke="#b2dfee" cx="88.3922" cy="-18" rx="30.5947" ry="18"/>
<text text-anchor="middle" x="88.3922" y="-14.3" font-family="Times,serif" font-size="14.00" fill="#000000">entity</text>
</g>
<!-- abstraction&#45;&gt;entity -->
<g id="edge12" class="edge">
<title>abstraction&#45;&gt;entity</title>
<path fill="none" stroke="#000000" d="M88.3922,-71.8314C88.3922,-64.131 88.3922,-54.9743 88.3922,-46.4166"/>
<polygon fill="#000000" stroke="#000000" points="91.8923,-46.4132 88.3922,-36.4133 84.8923,-46.4133 91.8923,-46.4132"/>
</g>
</g>
</svg>
