<?xml version="1.0" encoding="UTF-8" standalone="no"?>
<!DOCTYPE svg PUBLIC "-//W3C//DTD SVG 1.1//EN"
 "http://www.w3.org/Graphics/SVG/1.1/DTD/svg11.dtd">
<!-- Generated by graphviz version 2.40.1 (20161225.0304)
 -->
<!-- Title: unix Pages: 1 -->
<svg width="135pt" height="404pt"
 viewBox="0.00 0.00 135.39 404.00" xmlns="http://www.w3.org/2000/svg" xmlns:xlink="http://www.w3.org/1999/xlink">
<g id="graph0" class="graph" transform="scale(1 1) rotate(0) translate(4 400)">
<title>unix</title>
<polygon fill="#ffffff" stroke="transparent" points="-4,4 -4,-400 131.3887,-400 131.3887,4 -4,4"/>
<!-- stopping_point -->
<g id="node1" class="node">
<title>stopping_point</title>
<ellipse fill="#b2dfee" stroke="#b2dfee" cx="63.6943" cy="-378" rx="63.8893" ry="18"/>
<text text-anchor="middle" x="63.6943" y="-374.3" font-family="Times,serif" font-size="14.00" fill="#000000">stopping_point</text>
</g>
<!-- end -->
<g id="node2" class="node">
<title>end</title>
<ellipse fill="#b2dfee" stroke="#b2dfee" cx="63.6943" cy="-306" rx="27" ry="18"/>
<text text-anchor="middle" x="63.6943" y="-302.3" font-family="Times,serif" font-size="14.00" fill="#000000">end</text>
</g>
<!-- stopping_point&#45;&gt;end -->
<g id="edge1" class="edge">
<title>stopping_point&#45;&gt;end</title>
<path fill="none" stroke="#000000" d="M63.6943,-359.8314C63.6943,-352.131 63.6943,-342.9743 63.6943,-334.4166"/>
<polygon fill="#000000" stroke="#000000" points="67.1944,-334.4132 63.6943,-324.4133 60.1944,-334.4133 67.1944,-334.4132"/>
</g>
<!-- point -->
<g id="node3" class="node">
<title>point</title>
<ellipse fill="#b2dfee" stroke="#b2dfee" cx="63.6943" cy="-234" rx="28.6953" ry="18"/>
<text text-anchor="middle" x="63.6943" y="-230.3" font-family="Times,serif" font-size="14.00" fill="#000000">point</text>
</g>
<!-- end&#45;&gt;point -->
<g id="edge2" class="edge">
<title>end&#45;&gt;point</title>
<path fill="none" stroke="#000000" d="M63.6943,-287.8314C63.6943,-280.131 63.6943,-270.9743 63.6943,-262.4166"/>
<polygon fill="#000000" stroke="#000000" points="67.1944,-262.4132 63.6943,-252.4133 60.1944,-262.4133 67.1944,-262.4132"/>
</g>
<!-- measure -->
<g id="node4" class="node">
<title>measure</title>
<ellipse fill="#b2dfee" stroke="#b2dfee" cx="63.6943" cy="-162" rx="40.0939" ry="18"/>
<text text-anchor="middle" x="63.6943" y="-158.3" font-family="Times,serif" font-size="14.00" fill="#000000">measure</text>
</g>
<!-- point&#45;&gt;measure -->
<g id="edge3" class="edge">
<title>point&#45;&gt;measure</title>
<path fill="none" stroke="#000000" d="M63.6943,-215.8314C63.6943,-208.131 63.6943,-198.9743 63.6943,-190.4166"/>
<polygon fill="#000000" stroke="#000000" points="67.1944,-190.4132 63.6943,-180.4133 60.1944,-190.4133 67.1944,-190.4132"/>
</g>
<!-- abstraction -->
<g id="node5" class="node">
<title>abstraction</title>
<ellipse fill="#b2dfee" stroke="#b2dfee" cx="63.6943" cy="-90" rx="49.2915" ry="18"/>
<text text-anchor="middle" x="63.6943" y="-86.3" font-family="Times,serif" font-size="14.00" fill="#000000">abstraction</text>
</g>
<!-- measure&#45;&gt;abstraction -->
<g id="edge4" class="edge">
<title>measure&#45;&gt;abstraction</title>
<path fill="none" stroke="#000000" d="M63.6943,-143.8314C63.6943,-136.131 63.6943,-126.9743 63.6943,-118.4166"/>
<polygon fill="#000000" stroke="#000000" points="67.1944,-118.4132 63.6943,-108.4133 60.1944,-118.4133 67.1944,-118.4132"/>
</g>
<!-- entity -->
<g id="node6" class="node">
<title>entity</title>
<ellipse fill="#b2dfee" stroke="#b2dfee" cx="63.6943" cy="-18" rx="30.5947" ry="18"/>
<text text-anchor="middle" x="63.6943" y="-14.3" font-family="Times,serif" font-size="14.00" fill="#000000">entity</text>
</g>
<!-- abstraction&#45;&gt;entity -->
<g id="edge5" class="edge">
<title>abstraction&#45;&gt;entity</title>
<path fill="none" stroke="#000000" d="M63.6943,-71.8314C63.6943,-64.131 63.6943,-54.9743 63.6943,-46.4166"/>
<polygon fill="#000000" stroke="#000000" points="67.1944,-46.4132 63.6943,-36.4133 60.1944,-46.4133 67.1944,-46.4132"/>
</g>
</g>
</svg>
