<?xml version="1.0" encoding="UTF-8" standalone="no"?>
<!DOCTYPE svg PUBLIC "-//W3C//DTD SVG 1.1//EN"
 "http://www.w3.org/Graphics/SVG/1.1/DTD/svg11.dtd">
<!-- Generated by graphviz version 2.40.1 (20161225.0304)
 -->
<!-- Title: unix Pages: 1 -->
<svg width="191pt" height="432pt"
 viewBox="0.00 0.00 190.98 432.00" xmlns="http://www.w3.org/2000/svg" xmlns:xlink="http://www.w3.org/1999/xlink">
<g id="graph0" class="graph" transform="scale(.5167 .5167) rotate(0) translate(4 832)">
<title>unix</title>
<polygon fill="#ffffff" stroke="transparent" points="-4,4 -4,-832 365.5848,-832 365.5848,4 -4,4"/>
<!-- cold -->
<g id="node1" class="node">
<title>cold</title>
<ellipse fill="#b2dfee" stroke="#b2dfee" cx="187.9418" cy="-810" rx="27" ry="18"/>
<text text-anchor="middle" x="187.9418" y="-806.3" font-family="Times,serif" font-size="14.00" fill="#000000">cold</text>
</g>
<!-- communicable_disease -->
<g id="node2" class="node">
<title>communicable_disease</title>
<ellipse fill="#b2dfee" stroke="#b2dfee" cx="92.9418" cy="-738" rx="92.8835" ry="18"/>
<text text-anchor="middle" x="92.9418" y="-734.3" font-family="Times,serif" font-size="14.00" fill="#000000">communicable_disease</text>
</g>
<!-- cold&#45;&gt;communicable_disease -->
<g id="edge1" class="edge">
<title>cold&#45;&gt;communicable_disease</title>
<path fill="none" stroke="#000000" d="M170.073,-796.4574C157.1935,-786.6961 139.4748,-773.2672 124.2677,-761.7418"/>
<polygon fill="#000000" stroke="#000000" points="126.2082,-758.8208 116.1244,-755.57 121.98,-764.3996 126.2082,-758.8208"/>
</g>
<!-- respiratory_disease -->
<g id="node13" class="node">
<title>respiratory_disease</title>
<ellipse fill="#b2dfee" stroke="#b2dfee" cx="282.9418" cy="-738" rx="78.7863" ry="18"/>
<text text-anchor="middle" x="282.9418" y="-734.3" font-family="Times,serif" font-size="14.00" fill="#000000">respiratory_disease</text>
</g>
<!-- cold&#45;&gt;respiratory_disease -->
<g id="edge12" class="edge">
<title>cold&#45;&gt;respiratory_disease</title>
<path fill="none" stroke="#000000" d="M205.8105,-796.4574C218.7807,-786.6273 236.6585,-773.0779 251.9367,-761.4986"/>
<polygon fill="#000000" stroke="#000000" points="254.2538,-764.1341 260.1095,-755.3045 250.0257,-758.5553 254.2538,-764.1341"/>
</g>
<!-- disease -->
<g id="node3" class="node">
<title>disease</title>
<ellipse fill="#b2dfee" stroke="#b2dfee" cx="187.9418" cy="-666" rx="36.2938" ry="18"/>
<text text-anchor="middle" x="187.9418" y="-662.3" font-family="Times,serif" font-size="14.00" fill="#000000">disease</text>
</g>
<!-- communicable_disease&#45;&gt;disease -->
<g id="edge2" class="edge">
<title>communicable_disease&#45;&gt;disease</title>
<path fill="none" stroke="#000000" d="M116.4249,-720.2022C129.5295,-710.2704 145.9436,-697.8302 159.7405,-687.3736"/>
<polygon fill="#000000" stroke="#000000" points="162.0841,-689.989 167.9398,-681.1594 157.856,-684.4102 162.0841,-689.989"/>
</g>
<!-- illness -->
<g id="node4" class="node">
<title>illness</title>
<ellipse fill="#b2dfee" stroke="#b2dfee" cx="187.9418" cy="-594" rx="33.2948" ry="18"/>
<text text-anchor="middle" x="187.9418" y="-590.3" font-family="Times,serif" font-size="14.00" fill="#000000">illness</text>
</g>
<!-- disease&#45;&gt;illness -->
<g id="edge3" class="edge">
<title>disease&#45;&gt;illness</title>
<path fill="none" stroke="#000000" d="M187.9418,-647.8314C187.9418,-640.131 187.9418,-630.9743 187.9418,-622.4166"/>
<polygon fill="#000000" stroke="#000000" points="191.4419,-622.4132 187.9418,-612.4133 184.4419,-622.4133 191.4419,-622.4132"/>
</g>
<!-- ill_health -->
<g id="node5" class="node">
<title>ill_health</title>
<ellipse fill="#b2dfee" stroke="#b2dfee" cx="187.9418" cy="-522" rx="44.393" ry="18"/>
<text text-anchor="middle" x="187.9418" y="-518.3" font-family="Times,serif" font-size="14.00" fill="#000000">ill_health</text>
</g>
<!-- illness&#45;&gt;ill_health -->
<g id="edge4" class="edge">
<title>illness&#45;&gt;ill_health</title>
<path fill="none" stroke="#000000" d="M187.9418,-575.8314C187.9418,-568.131 187.9418,-558.9743 187.9418,-550.4166"/>
<polygon fill="#000000" stroke="#000000" points="191.4419,-550.4132 187.9418,-540.4133 184.4419,-550.4133 191.4419,-550.4132"/>
</g>
<!-- pathological_state -->
<g id="node6" class="node">
<title>pathological_state</title>
<ellipse fill="#b2dfee" stroke="#b2dfee" cx="187.9418" cy="-450" rx="74.9875" ry="18"/>
<text text-anchor="middle" x="187.9418" y="-446.3" font-family="Times,serif" font-size="14.00" fill="#000000">pathological_state</text>
</g>
<!-- ill_health&#45;&gt;pathological_state -->
<g id="edge5" class="edge">
<title>ill_health&#45;&gt;pathological_state</title>
<path fill="none" stroke="#000000" d="M187.9418,-503.8314C187.9418,-496.131 187.9418,-486.9743 187.9418,-478.4166"/>
<polygon fill="#000000" stroke="#000000" points="191.4419,-478.4132 187.9418,-468.4133 184.4419,-478.4133 191.4419,-478.4132"/>
</g>
<!-- physical_condition -->
<g id="node7" class="node">
<title>physical_condition</title>
<ellipse fill="#b2dfee" stroke="#b2dfee" cx="187.9418" cy="-378" rx="77.1866" ry="18"/>
<text text-anchor="middle" x="187.9418" y="-374.3" font-family="Times,serif" font-size="14.00" fill="#000000">physical_condition</text>
</g>
<!-- pathological_state&#45;&gt;physical_condition -->
<g id="edge6" class="edge">
<title>pathological_state&#45;&gt;physical_condition</title>
<path fill="none" stroke="#000000" d="M187.9418,-431.8314C187.9418,-424.131 187.9418,-414.9743 187.9418,-406.4166"/>
<polygon fill="#000000" stroke="#000000" points="191.4419,-406.4132 187.9418,-396.4133 184.4419,-406.4133 191.4419,-406.4132"/>
</g>
<!-- condition -->
<g id="node8" class="node">
<title>condition</title>
<ellipse fill="#b2dfee" stroke="#b2dfee" cx="187.9418" cy="-306" rx="44.393" ry="18"/>
<text text-anchor="middle" x="187.9418" y="-302.3" font-family="Times,serif" font-size="14.00" fill="#000000">condition</text>
</g>
<!-- physical_condition&#45;&gt;condition -->
<g id="edge7" class="edge">
<title>physical_condition&#45;&gt;condition</title>
<path fill="none" stroke="#000000" d="M187.9418,-359.8314C187.9418,-352.131 187.9418,-342.9743 187.9418,-334.4166"/>
<polygon fill="#000000" stroke="#000000" points="191.4419,-334.4132 187.9418,-324.4133 184.4419,-334.4133 191.4419,-334.4132"/>
</g>
<!-- state -->
<g id="node9" class="node">
<title>state</title>
<ellipse fill="#b2dfee" stroke="#b2dfee" cx="187.9418" cy="-234" rx="27" ry="18"/>
<text text-anchor="middle" x="187.9418" y="-230.3" font-family="Times,serif" font-size="14.00" fill="#000000">state</text>
</g>
<!-- condition&#45;&gt;state -->
<g id="edge8" class="edge">
<title>condition&#45;&gt;state</title>
<path fill="none" stroke="#000000" d="M187.9418,-287.8314C187.9418,-280.131 187.9418,-270.9743 187.9418,-262.4166"/>
<polygon fill="#000000" stroke="#000000" points="191.4419,-262.4132 187.9418,-252.4133 184.4419,-262.4133 191.4419,-262.4132"/>
</g>
<!-- attribute -->
<g id="node10" class="node">
<title>attribute</title>
<ellipse fill="#b2dfee" stroke="#b2dfee" cx="187.9418" cy="-162" rx="40.0939" ry="18"/>
<text text-anchor="middle" x="187.9418" y="-158.3" font-family="Times,serif" font-size="14.00" fill="#000000">attribute</text>
</g>
<!-- state&#45;&gt;attribute -->
<g id="edge9" class="edge">
<title>state&#45;&gt;attribute</title>
<path fill="none" stroke="#000000" d="M187.9418,-215.8314C187.9418,-208.131 187.9418,-198.9743 187.9418,-190.4166"/>
<polygon fill="#000000" stroke="#000000" points="191.4419,-190.4132 187.9418,-180.4133 184.4419,-190.4133 191.4419,-190.4132"/>
</g>
<!-- abstraction -->
<g id="node11" class="node">
<title>abstraction</title>
<ellipse fill="#b2dfee" stroke="#b2dfee" cx="187.9418" cy="-90" rx="49.2915" ry="18"/>
<text text-anchor="middle" x="187.9418" y="-86.3" font-family="Times,serif" font-size="14.00" fill="#000000">abstraction</text>
</g>
<!-- attribute&#45;&gt;abstraction -->
<g id="edge10" class="edge">
<title>attribute&#45;&gt;abstraction</title>
<path fill="none" stroke="#000000" d="M187.9418,-143.8314C187.9418,-136.131 187.9418,-126.9743 187.9418,-118.4166"/>
<polygon fill="#000000" stroke="#000000" points="191.4419,-118.4132 187.9418,-108.4133 184.4419,-118.4133 191.4419,-118.4132"/>
</g>
<!-- entity -->
<g id="node12" class="node">
<title>entity</title>
<ellipse fill="#b2dfee" stroke="#b2dfee" cx="187.9418" cy="-18" rx="30.5947" ry="18"/>
<text text-anchor="middle" x="187.9418" y="-14.3" font-family="Times,serif" font-size="14.00" fill="#000000">entity</text>
</g>
<!-- abstraction&#45;&gt;entity -->
<g id="edge11" class="edge">
<title>abstraction&#45;&gt;entity</title>
<path fill="none" stroke="#000000" d="M187.9418,-71.8314C187.9418,-64.131 187.9418,-54.9743 187.9418,-46.4166"/>
<polygon fill="#000000" stroke="#000000" points="191.4419,-46.4132 187.9418,-36.4133 184.4419,-46.4133 191.4419,-46.4132"/>
</g>
<!-- respiratory_disease&#45;&gt;disease -->
<g id="edge13" class="edge">
<title>respiratory_disease&#45;&gt;disease</title>
<path fill="none" stroke="#000000" d="M259.9449,-720.5708C246.8481,-710.6448 230.329,-698.1251 216.4177,-687.5818"/>
<polygon fill="#000000" stroke="#000000" points="218.2307,-684.5642 208.1469,-681.3134 214.0026,-690.143 218.2307,-684.5642"/>
</g>
</g>
</svg>
