<?xml version="1.0" encoding="UTF-8" standalone="no"?>
<!DOCTYPE svg PUBLIC "-//W3C//DTD SVG 1.1//EN"
 "http://www.w3.org/Graphics/SVG/1.1/DTD/svg11.dtd">
<!-- Generated by graphviz version 2.40.1 (20161225.0304)
 -->
<!-- Title: unix Pages: 1 -->
<svg width="366pt" height="432pt"
 viewBox="0.00 0.00 366.36 432.00" xmlns="http://www.w3.org/2000/svg" xmlns:xlink="http://www.w3.org/1999/xlink">
<g id="graph0" class="graph" transform="scale(.7883 .7883) rotate(0) translate(4 544)">
<title>unix</title>
<polygon fill="#ffffff" stroke="transparent" points="-4,4 -4,-544 460.7364,-544 460.7364,4 -4,4"/>
<!-- cool -->
<g id="node1" class="node">
<title>cool</title>
<ellipse fill="#b2dfee" stroke="#b2dfee" cx="324.3922" cy="-522" rx="27" ry="18"/>
<text text-anchor="middle" x="324.3922" y="-518.3" font-family="Times,serif" font-size="14.00" fill="#000000">cool</text>
</g>
<!-- coldness -->
<g id="node2" class="node">
<title>coldness</title>
<ellipse fill="#b2dfee" stroke="#b2dfee" cx="324.3922" cy="-450" rx="40.8928" ry="18"/>
<text text-anchor="middle" x="324.3922" y="-446.3" font-family="Times,serif" font-size="14.00" fill="#000000">coldness</text>
</g>
<!-- cool&#45;&gt;coldness -->
<g id="edge1" class="edge">
<title>cool&#45;&gt;coldness</title>
<path fill="none" stroke="#000000" d="M324.3922,-503.8314C324.3922,-496.131 324.3922,-486.9743 324.3922,-478.4166"/>
<polygon fill="#000000" stroke="#000000" points="327.8923,-478.4132 324.3922,-468.4133 320.8923,-478.4133 327.8923,-478.4132"/>
</g>
<!-- temperature -->
<g id="node3" class="node">
<title>temperature</title>
<ellipse fill="#b2dfee" stroke="#b2dfee" cx="256.3922" cy="-378" rx="53.0913" ry="18"/>
<text text-anchor="middle" x="256.3922" y="-374.3" font-family="Times,serif" font-size="14.00" fill="#000000">temperature</text>
</g>
<!-- coldness&#45;&gt;temperature -->
<g id="edge2" class="edge">
<title>coldness&#45;&gt;temperature</title>
<path fill="none" stroke="#000000" d="M308.6207,-433.3008C300.1167,-424.2965 289.4526,-413.0052 279.9814,-402.9769"/>
<polygon fill="#000000" stroke="#000000" points="282.4377,-400.4801 273.0268,-395.6132 277.3485,-405.2865 282.4377,-400.4801"/>
</g>
<!-- vasoconstrictor -->
<g id="node11" class="node">
<title>vasoconstrictor</title>
<ellipse fill="#b2dfee" stroke="#b2dfee" cx="392.3922" cy="-378" rx="64.189" ry="18"/>
<text text-anchor="middle" x="392.3922" y="-374.3" font-family="Times,serif" font-size="14.00" fill="#000000">vasoconstrictor</text>
</g>
<!-- coldness&#45;&gt;vasoconstrictor -->
<g id="edge11" class="edge">
<title>coldness&#45;&gt;vasoconstrictor</title>
<path fill="none" stroke="#000000" d="M340.1636,-433.3008C348.6676,-424.2965 359.3317,-413.0052 368.8029,-402.9769"/>
<polygon fill="#000000" stroke="#000000" points="371.4358,-405.2865 375.7575,-395.6132 366.3467,-400.4801 371.4358,-405.2865"/>
</g>
<!-- fundamental_quantity -->
<g id="node4" class="node">
<title>fundamental_quantity</title>
<ellipse fill="#b2dfee" stroke="#b2dfee" cx="88.3922" cy="-306" rx="88.2844" ry="18"/>
<text text-anchor="middle" x="88.3922" y="-302.3" font-family="Times,serif" font-size="14.00" fill="#000000">fundamental_quantity</text>
</g>
<!-- temperature&#45;&gt;fundamental_quantity -->
<g id="edge3" class="edge">
<title>temperature&#45;&gt;fundamental_quantity</title>
<path fill="none" stroke="#000000" d="M223.2008,-363.7751C198.3086,-353.107 163.8814,-338.3525 136.0489,-326.4243"/>
<polygon fill="#000000" stroke="#000000" points="137.0759,-323.0566 126.5058,-322.3344 134.3185,-329.4907 137.0759,-323.0566"/>
</g>
<!-- physical_property -->
<g id="node8" class="node">
<title>physical_property</title>
<ellipse fill="#b2dfee" stroke="#b2dfee" cx="268.3922" cy="-306" rx="74.187" ry="18"/>
<text text-anchor="middle" x="268.3922" y="-302.3" font-family="Times,serif" font-size="14.00" fill="#000000">physical_property</text>
</g>
<!-- temperature&#45;&gt;physical_property -->
<g id="edge7" class="edge">
<title>temperature&#45;&gt;physical_property</title>
<path fill="none" stroke="#000000" d="M259.4203,-359.8314C260.7037,-352.131 262.2298,-342.9743 263.6561,-334.4166"/>
<polygon fill="#000000" stroke="#000000" points="267.1316,-334.8526 265.3233,-324.4133 260.2268,-333.7018 267.1316,-334.8526"/>
</g>
<!-- measure -->
<g id="node5" class="node">
<title>measure</title>
<ellipse fill="#b2dfee" stroke="#b2dfee" cx="144.3922" cy="-162" rx="40.0939" ry="18"/>
<text text-anchor="middle" x="144.3922" y="-158.3" font-family="Times,serif" font-size="14.00" fill="#000000">measure</text>
</g>
<!-- fundamental_quantity&#45;&gt;measure -->
<g id="edge4" class="edge">
<title>fundamental_quantity&#45;&gt;measure</title>
<path fill="none" stroke="#000000" d="M95.3714,-288.0535C104.9707,-263.3696 122.3378,-218.7111 133.6134,-189.7167"/>
<polygon fill="#000000" stroke="#000000" points="136.9625,-190.7613 137.325,-180.1727 130.4384,-188.2242 136.9625,-190.7613"/>
</g>
<!-- abstraction -->
<g id="node6" class="node">
<title>abstraction</title>
<ellipse fill="#b2dfee" stroke="#b2dfee" cx="260.3922" cy="-90" rx="49.2915" ry="18"/>
<text text-anchor="middle" x="260.3922" y="-86.3" font-family="Times,serif" font-size="14.00" fill="#000000">abstraction</text>
</g>
<!-- measure&#45;&gt;abstraction -->
<g id="edge5" class="edge">
<title>measure&#45;&gt;abstraction</title>
<path fill="none" stroke="#000000" d="M168.1464,-147.256C184.9696,-136.814 207.7814,-122.6549 226.5107,-111.0299"/>
<polygon fill="#000000" stroke="#000000" points="228.4114,-113.9696 235.062,-105.7222 224.7198,-108.0221 228.4114,-113.9696"/>
</g>
<!-- entity -->
<g id="node7" class="node">
<title>entity</title>
<ellipse fill="#b2dfee" stroke="#b2dfee" cx="326.3922" cy="-18" rx="30.5947" ry="18"/>
<text text-anchor="middle" x="326.3922" y="-14.3" font-family="Times,serif" font-size="14.00" fill="#000000">entity</text>
</g>
<!-- abstraction&#45;&gt;entity -->
<g id="edge6" class="edge">
<title>abstraction&#45;&gt;entity</title>
<path fill="none" stroke="#000000" d="M276.3689,-72.5708C284.7977,-63.3758 295.2669,-51.9548 304.446,-41.9413"/>
<polygon fill="#000000" stroke="#000000" points="307.29,-44.0183 311.4673,-34.2817 302.13,-39.2882 307.29,-44.0183"/>
</g>
<!-- property -->
<g id="node9" class="node">
<title>property</title>
<ellipse fill="#b2dfee" stroke="#b2dfee" cx="263.3922" cy="-234" rx="40.0939" ry="18"/>
<text text-anchor="middle" x="263.3922" y="-230.3" font-family="Times,serif" font-size="14.00" fill="#000000">property</text>
</g>
<!-- physical_property&#45;&gt;property -->
<g id="edge8" class="edge">
<title>physical_property&#45;&gt;property</title>
<path fill="none" stroke="#000000" d="M267.1304,-287.8314C266.5957,-280.131 265.9598,-270.9743 265.3655,-262.4166"/>
<polygon fill="#000000" stroke="#000000" points="268.8553,-262.1467 264.6709,-252.4133 261.8721,-262.6317 268.8553,-262.1467"/>
</g>
<!-- attribute -->
<g id="node10" class="node">
<title>attribute</title>
<ellipse fill="#b2dfee" stroke="#b2dfee" cx="262.3922" cy="-162" rx="40.0939" ry="18"/>
<text text-anchor="middle" x="262.3922" y="-158.3" font-family="Times,serif" font-size="14.00" fill="#000000">attribute</text>
</g>
<!-- property&#45;&gt;attribute -->
<g id="edge9" class="edge">
<title>property&#45;&gt;attribute</title>
<path fill="none" stroke="#000000" d="M263.1398,-215.8314C263.0329,-208.131 262.9057,-198.9743 262.7868,-190.4166"/>
<polygon fill="#000000" stroke="#000000" points="266.2865,-190.3637 262.6479,-180.4133 259.2872,-190.4609 266.2865,-190.3637"/>
</g>
<!-- attribute&#45;&gt;abstraction -->
<g id="edge10" class="edge">
<title>attribute&#45;&gt;abstraction</title>
<path fill="none" stroke="#000000" d="M261.8875,-143.8314C261.6736,-136.131 261.4192,-126.9743 261.1815,-118.4166"/>
<polygon fill="#000000" stroke="#000000" points="264.6801,-118.3122 260.9036,-108.4133 257.6828,-118.5066 264.6801,-118.3122"/>
</g>
<!-- agent -->
<g id="node12" class="node">
<title>agent</title>
<ellipse fill="#b2dfee" stroke="#b2dfee" cx="392.3922" cy="-306" rx="29.795" ry="18"/>
<text text-anchor="middle" x="392.3922" y="-302.3" font-family="Times,serif" font-size="14.00" fill="#000000">agent</text>
</g>
<!-- vasoconstrictor&#45;&gt;agent -->
<g id="edge12" class="edge">
<title>vasoconstrictor&#45;&gt;agent</title>
<path fill="none" stroke="#000000" d="M392.3922,-359.8314C392.3922,-352.131 392.3922,-342.9743 392.3922,-334.4166"/>
<polygon fill="#000000" stroke="#000000" points="395.8923,-334.4132 392.3922,-324.4133 388.8923,-334.4133 395.8923,-334.4132"/>
</g>
<!-- causal_agent -->
<g id="node13" class="node">
<title>causal_agent</title>
<ellipse fill="#b2dfee" stroke="#b2dfee" cx="392.3922" cy="-234" rx="55.7903" ry="18"/>
<text text-anchor="middle" x="392.3922" y="-230.3" font-family="Times,serif" font-size="14.00" fill="#000000">causal_agent</text>
</g>
<!-- agent&#45;&gt;causal_agent -->
<g id="edge13" class="edge">
<title>agent&#45;&gt;causal_agent</title>
<path fill="none" stroke="#000000" d="M392.3922,-287.8314C392.3922,-280.131 392.3922,-270.9743 392.3922,-262.4166"/>
<polygon fill="#000000" stroke="#000000" points="395.8923,-262.4132 392.3922,-252.4133 388.8923,-262.4133 395.8923,-262.4132"/>
</g>
<!-- physical_entity -->
<g id="node14" class="node">
<title>physical_entity</title>
<ellipse fill="#b2dfee" stroke="#b2dfee" cx="392.3922" cy="-90" rx="64.189" ry="18"/>
<text text-anchor="middle" x="392.3922" y="-86.3" font-family="Times,serif" font-size="14.00" fill="#000000">physical_entity</text>
</g>
<!-- causal_agent&#45;&gt;physical_entity -->
<g id="edge14" class="edge">
<title>causal_agent&#45;&gt;physical_entity</title>
<path fill="none" stroke="#000000" d="M392.3922,-215.7623C392.3922,-191.201 392.3922,-147.2474 392.3922,-118.3541"/>
<polygon fill="#000000" stroke="#000000" points="395.8923,-118.0896 392.3922,-108.0896 388.8923,-118.0897 395.8923,-118.0896"/>
</g>
<!-- physical_entity&#45;&gt;entity -->
<g id="edge15" class="edge">
<title>physical_entity&#45;&gt;entity</title>
<path fill="none" stroke="#000000" d="M376.0775,-72.2022C367.6437,-63.0017 357.2368,-51.6487 348.13,-41.7141"/>
<polygon fill="#000000" stroke="#000000" points="350.5052,-39.1255 341.1679,-34.119 345.3451,-43.8556 350.5052,-39.1255"/>
</g>
</g>
</svg>
