<?xml version="1.0" encoding="UTF-8" standalone="no"?>
<!DOCTYPE svg PUBLIC "-//W3C//DTD SVG 1.1//EN"
 "http://www.w3.org/Graphics/SVG/1.1/DTD/svg11.dtd">
<!-- Generated by graphviz version 2.40.1 (20161225.0304)
 -->
<!-- Title: unix Pages: 1 -->
<svg width="74pt" height="432pt"
 viewBox="0.00 0.00 74.31 432.00" xmlns="http://www.w3.org/2000/svg" xmlns:xlink="http://www.w3.org/1999/xlink">
<g id="graph0" class="graph" transform="scale(.4758 .4758) rotate(0) translate(4 904)">
<title>unix</title>
<polygon fill="#ffffff" stroke="transparent" points="-4,4 -4,-904 152.1869,-904 152.1869,4 -4,4"/>
<!-- corn -->
<g id="node1" class="node">
<title>corn</title>
<ellipse fill="#b2dfee" stroke="#b2dfee" cx="74.0934" cy="-882" rx="27" ry="18"/>
<text text-anchor="middle" x="74.0934" y="-878.3" font-family="Times,serif" font-size="14.00" fill="#000000">corn</text>
</g>
<!-- cereal -->
<g id="node2" class="node">
<title>cereal</title>
<ellipse fill="#b2dfee" stroke="#b2dfee" cx="74.0934" cy="-810" rx="31.6951" ry="18"/>
<text text-anchor="middle" x="74.0934" y="-806.3" font-family="Times,serif" font-size="14.00" fill="#000000">cereal</text>
</g>
<!-- corn&#45;&gt;cereal -->
<g id="edge1" class="edge">
<title>corn&#45;&gt;cereal</title>
<path fill="none" stroke="#000000" d="M74.0934,-863.8314C74.0934,-856.131 74.0934,-846.9743 74.0934,-838.4166"/>
<polygon fill="#000000" stroke="#000000" points="77.5935,-838.4132 74.0934,-828.4133 70.5935,-838.4133 77.5935,-838.4132"/>
</g>
<!-- grass -->
<g id="node3" class="node">
<title>grass</title>
<ellipse fill="#b2dfee" stroke="#b2dfee" cx="74.0934" cy="-738" rx="28.6953" ry="18"/>
<text text-anchor="middle" x="74.0934" y="-734.3" font-family="Times,serif" font-size="14.00" fill="#000000">grass</text>
</g>
<!-- cereal&#45;&gt;grass -->
<g id="edge2" class="edge">
<title>cereal&#45;&gt;grass</title>
<path fill="none" stroke="#000000" d="M74.0934,-791.8314C74.0934,-784.131 74.0934,-774.9743 74.0934,-766.4166"/>
<polygon fill="#000000" stroke="#000000" points="77.5935,-766.4132 74.0934,-756.4133 70.5935,-766.4133 77.5935,-766.4132"/>
</g>
<!-- gramineous_plant -->
<g id="node4" class="node">
<title>gramineous_plant</title>
<ellipse fill="#b2dfee" stroke="#b2dfee" cx="74.0934" cy="-666" rx="74.187" ry="18"/>
<text text-anchor="middle" x="74.0934" y="-662.3" font-family="Times,serif" font-size="14.00" fill="#000000">gramineous_plant</text>
</g>
<!-- grass&#45;&gt;gramineous_plant -->
<g id="edge3" class="edge">
<title>grass&#45;&gt;gramineous_plant</title>
<path fill="none" stroke="#000000" d="M74.0934,-719.8314C74.0934,-712.131 74.0934,-702.9743 74.0934,-694.4166"/>
<polygon fill="#000000" stroke="#000000" points="77.5935,-694.4132 74.0934,-684.4133 70.5935,-694.4133 77.5935,-694.4132"/>
</g>
<!-- herb -->
<g id="node5" class="node">
<title>herb</title>
<ellipse fill="#b2dfee" stroke="#b2dfee" cx="74.0934" cy="-594" rx="27" ry="18"/>
<text text-anchor="middle" x="74.0934" y="-590.3" font-family="Times,serif" font-size="14.00" fill="#000000">herb</text>
</g>
<!-- gramineous_plant&#45;&gt;herb -->
<g id="edge4" class="edge">
<title>gramineous_plant&#45;&gt;herb</title>
<path fill="none" stroke="#000000" d="M74.0934,-647.8314C74.0934,-640.131 74.0934,-630.9743 74.0934,-622.4166"/>
<polygon fill="#000000" stroke="#000000" points="77.5935,-622.4132 74.0934,-612.4133 70.5935,-622.4133 77.5935,-622.4132"/>
</g>
<!-- vascular_plant -->
<g id="node6" class="node">
<title>vascular_plant</title>
<ellipse fill="#b2dfee" stroke="#b2dfee" cx="74.0934" cy="-522" rx="61.99" ry="18"/>
<text text-anchor="middle" x="74.0934" y="-518.3" font-family="Times,serif" font-size="14.00" fill="#000000">vascular_plant</text>
</g>
<!-- herb&#45;&gt;vascular_plant -->
<g id="edge5" class="edge">
<title>herb&#45;&gt;vascular_plant</title>
<path fill="none" stroke="#000000" d="M74.0934,-575.8314C74.0934,-568.131 74.0934,-558.9743 74.0934,-550.4166"/>
<polygon fill="#000000" stroke="#000000" points="77.5935,-550.4132 74.0934,-540.4133 70.5935,-550.4133 77.5935,-550.4132"/>
</g>
<!-- plant -->
<g id="node7" class="node">
<title>plant</title>
<ellipse fill="#b2dfee" stroke="#b2dfee" cx="74.0934" cy="-450" rx="28.6953" ry="18"/>
<text text-anchor="middle" x="74.0934" y="-446.3" font-family="Times,serif" font-size="14.00" fill="#000000">plant</text>
</g>
<!-- vascular_plant&#45;&gt;plant -->
<g id="edge6" class="edge">
<title>vascular_plant&#45;&gt;plant</title>
<path fill="none" stroke="#000000" d="M74.0934,-503.8314C74.0934,-496.131 74.0934,-486.9743 74.0934,-478.4166"/>
<polygon fill="#000000" stroke="#000000" points="77.5935,-478.4132 74.0934,-468.4133 70.5935,-478.4133 77.5935,-478.4132"/>
</g>
<!-- organism -->
<g id="node8" class="node">
<title>organism</title>
<ellipse fill="#b2dfee" stroke="#b2dfee" cx="74.0934" cy="-378" rx="44.393" ry="18"/>
<text text-anchor="middle" x="74.0934" y="-374.3" font-family="Times,serif" font-size="14.00" fill="#000000">organism</text>
</g>
<!-- plant&#45;&gt;organism -->
<g id="edge7" class="edge">
<title>plant&#45;&gt;organism</title>
<path fill="none" stroke="#000000" d="M74.0934,-431.8314C74.0934,-424.131 74.0934,-414.9743 74.0934,-406.4166"/>
<polygon fill="#000000" stroke="#000000" points="77.5935,-406.4132 74.0934,-396.4133 70.5935,-406.4133 77.5935,-406.4132"/>
</g>
<!-- living_thing -->
<g id="node9" class="node">
<title>living_thing</title>
<ellipse fill="#b2dfee" stroke="#b2dfee" cx="74.0934" cy="-306" rx="53.8905" ry="18"/>
<text text-anchor="middle" x="74.0934" y="-302.3" font-family="Times,serif" font-size="14.00" fill="#000000">living_thing</text>
</g>
<!-- organism&#45;&gt;living_thing -->
<g id="edge8" class="edge">
<title>organism&#45;&gt;living_thing</title>
<path fill="none" stroke="#000000" d="M74.0934,-359.8314C74.0934,-352.131 74.0934,-342.9743 74.0934,-334.4166"/>
<polygon fill="#000000" stroke="#000000" points="77.5935,-334.4132 74.0934,-324.4133 70.5935,-334.4133 77.5935,-334.4132"/>
</g>
<!-- whole -->
<g id="node10" class="node">
<title>whole</title>
<ellipse fill="#b2dfee" stroke="#b2dfee" cx="74.0934" cy="-234" rx="32.4942" ry="18"/>
<text text-anchor="middle" x="74.0934" y="-230.3" font-family="Times,serif" font-size="14.00" fill="#000000">whole</text>
</g>
<!-- living_thing&#45;&gt;whole -->
<g id="edge9" class="edge">
<title>living_thing&#45;&gt;whole</title>
<path fill="none" stroke="#000000" d="M74.0934,-287.8314C74.0934,-280.131 74.0934,-270.9743 74.0934,-262.4166"/>
<polygon fill="#000000" stroke="#000000" points="77.5935,-262.4132 74.0934,-252.4133 70.5935,-262.4133 77.5935,-262.4132"/>
</g>
<!-- object -->
<g id="node11" class="node">
<title>object</title>
<ellipse fill="#b2dfee" stroke="#b2dfee" cx="74.0934" cy="-162" rx="32.4942" ry="18"/>
<text text-anchor="middle" x="74.0934" y="-158.3" font-family="Times,serif" font-size="14.00" fill="#000000">object</text>
</g>
<!-- whole&#45;&gt;object -->
<g id="edge10" class="edge">
<title>whole&#45;&gt;object</title>
<path fill="none" stroke="#000000" d="M74.0934,-215.8314C74.0934,-208.131 74.0934,-198.9743 74.0934,-190.4166"/>
<polygon fill="#000000" stroke="#000000" points="77.5935,-190.4132 74.0934,-180.4133 70.5935,-190.4133 77.5935,-190.4132"/>
</g>
<!-- physical_entity -->
<g id="node12" class="node">
<title>physical_entity</title>
<ellipse fill="#b2dfee" stroke="#b2dfee" cx="74.0934" cy="-90" rx="64.189" ry="18"/>
<text text-anchor="middle" x="74.0934" y="-86.3" font-family="Times,serif" font-size="14.00" fill="#000000">physical_entity</text>
</g>
<!-- object&#45;&gt;physical_entity -->
<g id="edge11" class="edge">
<title>object&#45;&gt;physical_entity</title>
<path fill="none" stroke="#000000" d="M74.0934,-143.8314C74.0934,-136.131 74.0934,-126.9743 74.0934,-118.4166"/>
<polygon fill="#000000" stroke="#000000" points="77.5935,-118.4132 74.0934,-108.4133 70.5935,-118.4133 77.5935,-118.4132"/>
</g>
<!-- entity -->
<g id="node13" class="node">
<title>entity</title>
<ellipse fill="#b2dfee" stroke="#b2dfee" cx="74.0934" cy="-18" rx="30.5947" ry="18"/>
<text text-anchor="middle" x="74.0934" y="-14.3" font-family="Times,serif" font-size="14.00" fill="#000000">entity</text>
</g>
<!-- physical_entity&#45;&gt;entity -->
<g id="edge12" class="edge">
<title>physical_entity&#45;&gt;entity</title>
<path fill="none" stroke="#000000" d="M74.0934,-71.8314C74.0934,-64.131 74.0934,-54.9743 74.0934,-46.4166"/>
<polygon fill="#000000" stroke="#000000" points="77.5935,-46.4132 74.0934,-36.4133 70.5935,-46.4133 77.5935,-46.4132"/>
</g>
</g>
</svg>
