<?xml version="1.0" encoding="UTF-8" standalone="no"?>
<!DOCTYPE svg PUBLIC "-//W3C//DTD SVG 1.1//EN"
 "http://www.w3.org/Graphics/SVG/1.1/DTD/svg11.dtd">
<!-- Generated by graphviz version 2.40.1 (20161225.0304)
 -->
<!-- Title: unix Pages: 1 -->
<svg width="57pt" height="432pt"
 viewBox="0.00 0.00 57.20 432.00" xmlns="http://www.w3.org/2000/svg" xmlns:xlink="http://www.w3.org/1999/xlink">
<g id="graph0" class="graph" transform="scale(.3407 .3407) rotate(0) translate(4 1264)">
<title>unix</title>
<polygon fill="#ffffff" stroke="transparent" points="-4,4 -4,-1264 163.8858,-1264 163.8858,4 -4,4"/>
<!-- cow -->
<g id="node1" class="node">
<title>cow</title>
<ellipse fill="#b2dfee" stroke="#b2dfee" cx="79.9429" cy="-1242" rx="27" ry="18"/>
<text text-anchor="middle" x="79.9429" y="-1238.3" font-family="Times,serif" font-size="14.00" fill="#000000">cow</text>
</g>
<!-- cattle -->
<g id="node2" class="node">
<title>cattle</title>
<ellipse fill="#b2dfee" stroke="#b2dfee" cx="79.9429" cy="-1170" rx="29.795" ry="18"/>
<text text-anchor="middle" x="79.9429" y="-1166.3" font-family="Times,serif" font-size="14.00" fill="#000000">cattle</text>
</g>
<!-- cow&#45;&gt;cattle -->
<g id="edge1" class="edge">
<title>cow&#45;&gt;cattle</title>
<path fill="none" stroke="#000000" d="M79.9429,-1223.8314C79.9429,-1216.131 79.9429,-1206.9743 79.9429,-1198.4166"/>
<polygon fill="#000000" stroke="#000000" points="83.443,-1198.4132 79.9429,-1188.4133 76.443,-1198.4133 83.443,-1198.4132"/>
</g>
<!-- bovine -->
<g id="node3" class="node">
<title>bovine</title>
<ellipse fill="#b2dfee" stroke="#b2dfee" cx="79.9429" cy="-1098" rx="34.394" ry="18"/>
<text text-anchor="middle" x="79.9429" y="-1094.3" font-family="Times,serif" font-size="14.00" fill="#000000">bovine</text>
</g>
<!-- cattle&#45;&gt;bovine -->
<g id="edge2" class="edge">
<title>cattle&#45;&gt;bovine</title>
<path fill="none" stroke="#000000" d="M79.9429,-1151.8314C79.9429,-1144.131 79.9429,-1134.9743 79.9429,-1126.4166"/>
<polygon fill="#000000" stroke="#000000" points="83.443,-1126.4132 79.9429,-1116.4133 76.443,-1126.4133 83.443,-1126.4132"/>
</g>
<!-- bovid -->
<g id="node4" class="node">
<title>bovid</title>
<ellipse fill="#b2dfee" stroke="#b2dfee" cx="79.9429" cy="-1026" rx="30.5947" ry="18"/>
<text text-anchor="middle" x="79.9429" y="-1022.3" font-family="Times,serif" font-size="14.00" fill="#000000">bovid</text>
</g>
<!-- bovine&#45;&gt;bovid -->
<g id="edge3" class="edge">
<title>bovine&#45;&gt;bovid</title>
<path fill="none" stroke="#000000" d="M79.9429,-1079.8314C79.9429,-1072.131 79.9429,-1062.9743 79.9429,-1054.4166"/>
<polygon fill="#000000" stroke="#000000" points="83.443,-1054.4132 79.9429,-1044.4133 76.443,-1054.4133 83.443,-1054.4132"/>
</g>
<!-- ruminant -->
<g id="node5" class="node">
<title>ruminant</title>
<ellipse fill="#b2dfee" stroke="#b2dfee" cx="79.9429" cy="-954" rx="42.7926" ry="18"/>
<text text-anchor="middle" x="79.9429" y="-950.3" font-family="Times,serif" font-size="14.00" fill="#000000">ruminant</text>
</g>
<!-- bovid&#45;&gt;ruminant -->
<g id="edge4" class="edge">
<title>bovid&#45;&gt;ruminant</title>
<path fill="none" stroke="#000000" d="M79.9429,-1007.8314C79.9429,-1000.131 79.9429,-990.9743 79.9429,-982.4166"/>
<polygon fill="#000000" stroke="#000000" points="83.443,-982.4132 79.9429,-972.4133 76.443,-982.4133 83.443,-982.4132"/>
</g>
<!-- even&#45;toed_ungulate -->
<g id="node6" class="node">
<title>even&#45;toed_ungulate</title>
<ellipse fill="#b2dfee" stroke="#b2dfee" cx="79.9429" cy="-882" rx="79.8859" ry="18"/>
<text text-anchor="middle" x="79.9429" y="-878.3" font-family="Times,serif" font-size="14.00" fill="#000000">even&#45;toed_ungulate</text>
</g>
<!-- ruminant&#45;&gt;even&#45;toed_ungulate -->
<g id="edge5" class="edge">
<title>ruminant&#45;&gt;even&#45;toed_ungulate</title>
<path fill="none" stroke="#000000" d="M79.9429,-935.8314C79.9429,-928.131 79.9429,-918.9743 79.9429,-910.4166"/>
<polygon fill="#000000" stroke="#000000" points="83.443,-910.4132 79.9429,-900.4133 76.443,-910.4133 83.443,-910.4132"/>
</g>
<!-- ungulate -->
<g id="node7" class="node">
<title>ungulate</title>
<ellipse fill="#b2dfee" stroke="#b2dfee" cx="79.9429" cy="-810" rx="40.8928" ry="18"/>
<text text-anchor="middle" x="79.9429" y="-806.3" font-family="Times,serif" font-size="14.00" fill="#000000">ungulate</text>
</g>
<!-- even&#45;toed_ungulate&#45;&gt;ungulate -->
<g id="edge6" class="edge">
<title>even&#45;toed_ungulate&#45;&gt;ungulate</title>
<path fill="none" stroke="#000000" d="M79.9429,-863.8314C79.9429,-856.131 79.9429,-846.9743 79.9429,-838.4166"/>
<polygon fill="#000000" stroke="#000000" points="83.443,-838.4132 79.9429,-828.4133 76.443,-838.4133 83.443,-838.4132"/>
</g>
<!-- placental -->
<g id="node8" class="node">
<title>placental</title>
<ellipse fill="#b2dfee" stroke="#b2dfee" cx="79.9429" cy="-738" rx="42.4939" ry="18"/>
<text text-anchor="middle" x="79.9429" y="-734.3" font-family="Times,serif" font-size="14.00" fill="#000000">placental</text>
</g>
<!-- ungulate&#45;&gt;placental -->
<g id="edge7" class="edge">
<title>ungulate&#45;&gt;placental</title>
<path fill="none" stroke="#000000" d="M79.9429,-791.8314C79.9429,-784.131 79.9429,-774.9743 79.9429,-766.4166"/>
<polygon fill="#000000" stroke="#000000" points="83.443,-766.4132 79.9429,-756.4133 76.443,-766.4133 83.443,-766.4132"/>
</g>
<!-- mammal -->
<g id="node9" class="node">
<title>mammal</title>
<ellipse fill="#b2dfee" stroke="#b2dfee" cx="79.9429" cy="-666" rx="42.7926" ry="18"/>
<text text-anchor="middle" x="79.9429" y="-662.3" font-family="Times,serif" font-size="14.00" fill="#000000">mammal</text>
</g>
<!-- placental&#45;&gt;mammal -->
<g id="edge8" class="edge">
<title>placental&#45;&gt;mammal</title>
<path fill="none" stroke="#000000" d="M79.9429,-719.8314C79.9429,-712.131 79.9429,-702.9743 79.9429,-694.4166"/>
<polygon fill="#000000" stroke="#000000" points="83.443,-694.4132 79.9429,-684.4133 76.443,-694.4133 83.443,-694.4132"/>
</g>
<!-- vertebrate -->
<g id="node10" class="node">
<title>vertebrate</title>
<ellipse fill="#b2dfee" stroke="#b2dfee" cx="79.9429" cy="-594" rx="46.2923" ry="18"/>
<text text-anchor="middle" x="79.9429" y="-590.3" font-family="Times,serif" font-size="14.00" fill="#000000">vertebrate</text>
</g>
<!-- mammal&#45;&gt;vertebrate -->
<g id="edge9" class="edge">
<title>mammal&#45;&gt;vertebrate</title>
<path fill="none" stroke="#000000" d="M79.9429,-647.8314C79.9429,-640.131 79.9429,-630.9743 79.9429,-622.4166"/>
<polygon fill="#000000" stroke="#000000" points="83.443,-622.4132 79.9429,-612.4133 76.443,-622.4133 83.443,-622.4132"/>
</g>
<!-- chordate -->
<g id="node11" class="node">
<title>chordate</title>
<ellipse fill="#b2dfee" stroke="#b2dfee" cx="79.9429" cy="-522" rx="40.8928" ry="18"/>
<text text-anchor="middle" x="79.9429" y="-518.3" font-family="Times,serif" font-size="14.00" fill="#000000">chordate</text>
</g>
<!-- vertebrate&#45;&gt;chordate -->
<g id="edge10" class="edge">
<title>vertebrate&#45;&gt;chordate</title>
<path fill="none" stroke="#000000" d="M79.9429,-575.8314C79.9429,-568.131 79.9429,-558.9743 79.9429,-550.4166"/>
<polygon fill="#000000" stroke="#000000" points="83.443,-550.4132 79.9429,-540.4133 76.443,-550.4133 83.443,-550.4132"/>
</g>
<!-- animal -->
<g id="node12" class="node">
<title>animal</title>
<ellipse fill="#b2dfee" stroke="#b2dfee" cx="79.9429" cy="-450" rx="35.194" ry="18"/>
<text text-anchor="middle" x="79.9429" y="-446.3" font-family="Times,serif" font-size="14.00" fill="#000000">animal</text>
</g>
<!-- chordate&#45;&gt;animal -->
<g id="edge11" class="edge">
<title>chordate&#45;&gt;animal</title>
<path fill="none" stroke="#000000" d="M79.9429,-503.8314C79.9429,-496.131 79.9429,-486.9743 79.9429,-478.4166"/>
<polygon fill="#000000" stroke="#000000" points="83.443,-478.4132 79.9429,-468.4133 76.443,-478.4133 83.443,-478.4132"/>
</g>
<!-- organism -->
<g id="node13" class="node">
<title>organism</title>
<ellipse fill="#b2dfee" stroke="#b2dfee" cx="79.9429" cy="-378" rx="44.393" ry="18"/>
<text text-anchor="middle" x="79.9429" y="-374.3" font-family="Times,serif" font-size="14.00" fill="#000000">organism</text>
</g>
<!-- animal&#45;&gt;organism -->
<g id="edge12" class="edge">
<title>animal&#45;&gt;organism</title>
<path fill="none" stroke="#000000" d="M79.9429,-431.8314C79.9429,-424.131 79.9429,-414.9743 79.9429,-406.4166"/>
<polygon fill="#000000" stroke="#000000" points="83.443,-406.4132 79.9429,-396.4133 76.443,-406.4133 83.443,-406.4132"/>
</g>
<!-- living_thing -->
<g id="node14" class="node">
<title>living_thing</title>
<ellipse fill="#b2dfee" stroke="#b2dfee" cx="79.9429" cy="-306" rx="53.8905" ry="18"/>
<text text-anchor="middle" x="79.9429" y="-302.3" font-family="Times,serif" font-size="14.00" fill="#000000">living_thing</text>
</g>
<!-- organism&#45;&gt;living_thing -->
<g id="edge13" class="edge">
<title>organism&#45;&gt;living_thing</title>
<path fill="none" stroke="#000000" d="M79.9429,-359.8314C79.9429,-352.131 79.9429,-342.9743 79.9429,-334.4166"/>
<polygon fill="#000000" stroke="#000000" points="83.443,-334.4132 79.9429,-324.4133 76.443,-334.4133 83.443,-334.4132"/>
</g>
<!-- whole -->
<g id="node15" class="node">
<title>whole</title>
<ellipse fill="#b2dfee" stroke="#b2dfee" cx="79.9429" cy="-234" rx="32.4942" ry="18"/>
<text text-anchor="middle" x="79.9429" y="-230.3" font-family="Times,serif" font-size="14.00" fill="#000000">whole</text>
</g>
<!-- living_thing&#45;&gt;whole -->
<g id="edge14" class="edge">
<title>living_thing&#45;&gt;whole</title>
<path fill="none" stroke="#000000" d="M79.9429,-287.8314C79.9429,-280.131 79.9429,-270.9743 79.9429,-262.4166"/>
<polygon fill="#000000" stroke="#000000" points="83.443,-262.4132 79.9429,-252.4133 76.443,-262.4133 83.443,-262.4132"/>
</g>
<!-- object -->
<g id="node16" class="node">
<title>object</title>
<ellipse fill="#b2dfee" stroke="#b2dfee" cx="79.9429" cy="-162" rx="32.4942" ry="18"/>
<text text-anchor="middle" x="79.9429" y="-158.3" font-family="Times,serif" font-size="14.00" fill="#000000">object</text>
</g>
<!-- whole&#45;&gt;object -->
<g id="edge15" class="edge">
<title>whole&#45;&gt;object</title>
<path fill="none" stroke="#000000" d="M79.9429,-215.8314C79.9429,-208.131 79.9429,-198.9743 79.9429,-190.4166"/>
<polygon fill="#000000" stroke="#000000" points="83.443,-190.4132 79.9429,-180.4133 76.443,-190.4133 83.443,-190.4132"/>
</g>
<!-- physical_entity -->
<g id="node17" class="node">
<title>physical_entity</title>
<ellipse fill="#b2dfee" stroke="#b2dfee" cx="79.9429" cy="-90" rx="64.189" ry="18"/>
<text text-anchor="middle" x="79.9429" y="-86.3" font-family="Times,serif" font-size="14.00" fill="#000000">physical_entity</text>
</g>
<!-- object&#45;&gt;physical_entity -->
<g id="edge16" class="edge">
<title>object&#45;&gt;physical_entity</title>
<path fill="none" stroke="#000000" d="M79.9429,-143.8314C79.9429,-136.131 79.9429,-126.9743 79.9429,-118.4166"/>
<polygon fill="#000000" stroke="#000000" points="83.443,-118.4132 79.9429,-108.4133 76.443,-118.4133 83.443,-118.4132"/>
</g>
<!-- entity -->
<g id="node18" class="node">
<title>entity</title>
<ellipse fill="#b2dfee" stroke="#b2dfee" cx="79.9429" cy="-18" rx="30.5947" ry="18"/>
<text text-anchor="middle" x="79.9429" y="-14.3" font-family="Times,serif" font-size="14.00" fill="#000000">entity</text>
</g>
<!-- physical_entity&#45;&gt;entity -->
<g id="edge17" class="edge">
<title>physical_entity&#45;&gt;entity</title>
<path fill="none" stroke="#000000" d="M79.9429,-71.8314C79.9429,-64.131 79.9429,-54.9743 79.9429,-46.4166"/>
<polygon fill="#000000" stroke="#000000" points="83.443,-46.4132 79.9429,-36.4133 76.443,-46.4133 83.443,-46.4132"/>
</g>
</g>
</svg>
