<?xml version="1.0" encoding="UTF-8" standalone="no"?>
<!DOCTYPE svg PUBLIC "-//W3C//DTD SVG 1.1//EN"
 "http://www.w3.org/Graphics/SVG/1.1/DTD/svg11.dtd">
<!-- Generated by graphviz version 2.40.1 (20161225.0304)
 -->
<!-- Title: unix Pages: 1 -->
<svg width="158pt" height="432pt"
 viewBox="0.00 0.00 157.53 432.00" xmlns="http://www.w3.org/2000/svg" xmlns:xlink="http://www.w3.org/1999/xlink">
<g id="graph0" class="graph" transform="scale(.6968 .6968) rotate(0) translate(4 616)">
<title>unix</title>
<polygon fill="#ffffff" stroke="transparent" points="-4,4 -4,-616 222.0911,-616 222.0911,4 -4,4"/>
<!-- cracker -->
<g id="node1" class="node">
<title>cracker</title>
<ellipse fill="#b2dfee" stroke="#b2dfee" cx="115.1949" cy="-594" rx="36.2938" ry="18"/>
<text text-anchor="middle" x="115.1949" y="-590.3" font-family="Times,serif" font-size="14.00" fill="#000000">cracker</text>
</g>
<!-- bread -->
<g id="node2" class="node">
<title>bread</title>
<ellipse fill="#b2dfee" stroke="#b2dfee" cx="115.1949" cy="-522" rx="30.5947" ry="18"/>
<text text-anchor="middle" x="115.1949" y="-518.3" font-family="Times,serif" font-size="14.00" fill="#000000">bread</text>
</g>
<!-- cracker&#45;&gt;bread -->
<g id="edge1" class="edge">
<title>cracker&#45;&gt;bread</title>
<path fill="none" stroke="#000000" d="M115.1949,-575.8314C115.1949,-568.131 115.1949,-558.9743 115.1949,-550.4166"/>
<polygon fill="#000000" stroke="#000000" points="118.695,-550.4132 115.1949,-540.4133 111.695,-550.4133 118.695,-550.4132"/>
</g>
<!-- baked_goods -->
<g id="node3" class="node">
<title>baked_goods</title>
<ellipse fill="#b2dfee" stroke="#b2dfee" cx="57.1949" cy="-378" rx="57.3905" ry="18"/>
<text text-anchor="middle" x="57.1949" y="-374.3" font-family="Times,serif" font-size="14.00" fill="#000000">baked_goods</text>
</g>
<!-- bread&#45;&gt;baked_goods -->
<g id="edge2" class="edge">
<title>bread&#45;&gt;baked_goods</title>
<path fill="none" stroke="#000000" d="M108.083,-504.3428C98.1794,-479.7545 80.1336,-434.9511 68.4081,-405.8397"/>
<polygon fill="#000000" stroke="#000000" points="71.5307,-404.2242 64.548,-396.256 65.0376,-406.8395 71.5307,-404.2242"/>
</g>
<!-- starches -->
<g id="node9" class="node">
<title>starches</title>
<ellipse fill="#b2dfee" stroke="#b2dfee" cx="162.1949" cy="-450" rx="38.9931" ry="18"/>
<text text-anchor="middle" x="162.1949" y="-446.3" font-family="Times,serif" font-size="14.00" fill="#000000">starches</text>
</g>
<!-- bread&#45;&gt;starches -->
<g id="edge8" class="edge">
<title>bread&#45;&gt;starches</title>
<path fill="none" stroke="#000000" d="M126.3333,-504.937C131.9863,-496.277 138.9736,-485.5731 145.2744,-475.9207"/>
<polygon fill="#000000" stroke="#000000" points="148.2746,-477.7277 150.81,-467.4407 142.4129,-473.9013 148.2746,-477.7277"/>
</g>
<!-- food -->
<g id="node4" class="node">
<title>food</title>
<ellipse fill="#b2dfee" stroke="#b2dfee" cx="116.1949" cy="-306" rx="27" ry="18"/>
<text text-anchor="middle" x="116.1949" y="-302.3" font-family="Times,serif" font-size="14.00" fill="#000000">food</text>
</g>
<!-- baked_goods&#45;&gt;food -->
<g id="edge3" class="edge">
<title>baked_goods&#45;&gt;food</title>
<path fill="none" stroke="#000000" d="M71.7792,-360.2022C79.2439,-351.0928 88.4376,-339.8733 96.5204,-330.0096"/>
<polygon fill="#000000" stroke="#000000" points="99.3552,-332.0722 102.9863,-322.119 93.9409,-327.6354 99.3552,-332.0722"/>
</g>
<!-- solid -->
<g id="node5" class="node">
<title>solid</title>
<ellipse fill="#b2dfee" stroke="#b2dfee" cx="71.1949" cy="-234" rx="27.8951" ry="18"/>
<text text-anchor="middle" x="71.1949" y="-230.3" font-family="Times,serif" font-size="14.00" fill="#000000">solid</text>
</g>
<!-- food&#45;&gt;solid -->
<g id="edge4" class="edge">
<title>food&#45;&gt;solid</title>
<path fill="none" stroke="#000000" d="M105.7579,-289.3008C100.2714,-280.5224 93.4263,-269.5703 87.2786,-259.7339"/>
<polygon fill="#000000" stroke="#000000" points="90.1559,-257.7336 81.8878,-251.1086 84.2199,-261.4436 90.1559,-257.7336"/>
</g>
<!-- substance -->
<g id="node11" class="node">
<title>substance</title>
<ellipse fill="#b2dfee" stroke="#b2dfee" cx="162.1949" cy="-234" rx="44.6926" ry="18"/>
<text text-anchor="middle" x="162.1949" y="-230.3" font-family="Times,serif" font-size="14.00" fill="#000000">substance</text>
</g>
<!-- food&#45;&gt;substance -->
<g id="edge11" class="edge">
<title>food&#45;&gt;substance</title>
<path fill="none" stroke="#000000" d="M126.8639,-289.3008C132.391,-280.6496 139.2669,-269.8873 145.4801,-260.1623"/>
<polygon fill="#000000" stroke="#000000" points="148.5076,-261.9245 150.9421,-251.6132 142.6087,-258.1558 148.5076,-261.9245"/>
</g>
<!-- matter -->
<g id="node6" class="node">
<title>matter</title>
<ellipse fill="#b2dfee" stroke="#b2dfee" cx="116.1949" cy="-162" rx="33.5952" ry="18"/>
<text text-anchor="middle" x="116.1949" y="-158.3" font-family="Times,serif" font-size="14.00" fill="#000000">matter</text>
</g>
<!-- solid&#45;&gt;matter -->
<g id="edge5" class="edge">
<title>solid&#45;&gt;matter</title>
<path fill="none" stroke="#000000" d="M81.6319,-217.3008C87.1184,-208.5224 93.9635,-197.5703 100.1112,-187.7339"/>
<polygon fill="#000000" stroke="#000000" points="103.17,-189.4436 105.502,-179.1086 97.234,-185.7336 103.17,-189.4436"/>
</g>
<!-- physical_entity -->
<g id="node7" class="node">
<title>physical_entity</title>
<ellipse fill="#b2dfee" stroke="#b2dfee" cx="116.1949" cy="-90" rx="64.189" ry="18"/>
<text text-anchor="middle" x="116.1949" y="-86.3" font-family="Times,serif" font-size="14.00" fill="#000000">physical_entity</text>
</g>
<!-- matter&#45;&gt;physical_entity -->
<g id="edge6" class="edge">
<title>matter&#45;&gt;physical_entity</title>
<path fill="none" stroke="#000000" d="M116.1949,-143.8314C116.1949,-136.131 116.1949,-126.9743 116.1949,-118.4166"/>
<polygon fill="#000000" stroke="#000000" points="119.695,-118.4132 116.1949,-108.4133 112.695,-118.4133 119.695,-118.4132"/>
</g>
<!-- entity -->
<g id="node8" class="node">
<title>entity</title>
<ellipse fill="#b2dfee" stroke="#b2dfee" cx="116.1949" cy="-18" rx="30.5947" ry="18"/>
<text text-anchor="middle" x="116.1949" y="-14.3" font-family="Times,serif" font-size="14.00" fill="#000000">entity</text>
</g>
<!-- physical_entity&#45;&gt;entity -->
<g id="edge7" class="edge">
<title>physical_entity&#45;&gt;entity</title>
<path fill="none" stroke="#000000" d="M116.1949,-71.8314C116.1949,-64.131 116.1949,-54.9743 116.1949,-46.4166"/>
<polygon fill="#000000" stroke="#000000" points="119.695,-46.4132 116.1949,-36.4133 112.695,-46.4133 119.695,-46.4132"/>
</g>
<!-- foodstuff -->
<g id="node10" class="node">
<title>foodstuff</title>
<ellipse fill="#b2dfee" stroke="#b2dfee" cx="175.1949" cy="-378" rx="42.7926" ry="18"/>
<text text-anchor="middle" x="175.1949" y="-374.3" font-family="Times,serif" font-size="14.00" fill="#000000">foodstuff</text>
</g>
<!-- starches&#45;&gt;foodstuff -->
<g id="edge9" class="edge">
<title>starches&#45;&gt;foodstuff</title>
<path fill="none" stroke="#000000" d="M165.4754,-431.8314C166.8657,-424.131 168.519,-414.9743 170.0641,-406.4166"/>
<polygon fill="#000000" stroke="#000000" points="173.5377,-406.8761 171.8703,-396.4133 166.6491,-405.6322 173.5377,-406.8761"/>
</g>
<!-- foodstuff&#45;&gt;food -->
<g id="edge10" class="edge">
<title>foodstuff&#45;&gt;food</title>
<path fill="none" stroke="#000000" d="M161.2127,-360.937C153.5764,-351.6181 144.0008,-339.9326 135.6463,-329.7373"/>
<polygon fill="#000000" stroke="#000000" points="138.3138,-327.4704 129.2683,-321.954 132.8994,-331.9072 138.3138,-327.4704"/>
</g>
<!-- substance&#45;&gt;matter -->
<g id="edge12" class="edge">
<title>substance&#45;&gt;matter</title>
<path fill="none" stroke="#000000" d="M150.8241,-216.2022C145.3401,-207.6186 138.6591,-197.1613 132.6337,-187.7303"/>
<polygon fill="#000000" stroke="#000000" points="135.4515,-185.6398 127.1182,-179.0972 129.5526,-189.4086 135.4515,-185.6398"/>
</g>
</g>
</svg>
