<?xml version="1.0" encoding="UTF-8" standalone="no"?>
<!DOCTYPE svg PUBLIC "-//W3C//DTD SVG 1.1//EN"
 "http://www.w3.org/Graphics/SVG/1.1/DTD/svg11.dtd">
<!-- Generated by graphviz version 2.40.1 (20161225.0304)
 -->
<!-- Title: unix Pages: 1 -->
<svg width="200pt" height="432pt"
 viewBox="0.00 0.00 200.30 432.00" xmlns="http://www.w3.org/2000/svg" xmlns:xlink="http://www.w3.org/1999/xlink">
<g id="graph0" class="graph" transform="scale(.7883 .7883) rotate(0) translate(4 544)">
<title>unix</title>
<polygon fill="#ffffff" stroke="transparent" points="-4,4 -4,-544 250.0877,-544 250.0877,4 -4,4"/>
<!-- crack -->
<g id="node1" class="node">
<title>crack</title>
<ellipse fill="#b2dfee" stroke="#b2dfee" cx="125.7434" cy="-522" rx="29.795" ry="18"/>
<text text-anchor="middle" x="125.7434" y="-518.3" font-family="Times,serif" font-size="14.00" fill="#000000">crack</text>
</g>
<!-- opening -->
<g id="node2" class="node">
<title>opening</title>
<ellipse fill="#b2dfee" stroke="#b2dfee" cx="125.7434" cy="-450" rx="38.9931" ry="18"/>
<text text-anchor="middle" x="125.7434" y="-446.3" font-family="Times,serif" font-size="14.00" fill="#000000">opening</text>
</g>
<!-- crack&#45;&gt;opening -->
<g id="edge1" class="edge">
<title>crack&#45;&gt;opening</title>
<path fill="none" stroke="#000000" d="M125.7434,-503.8314C125.7434,-496.131 125.7434,-486.9743 125.7434,-478.4166"/>
<polygon fill="#000000" stroke="#000000" points="129.2435,-478.4132 125.7434,-468.4133 122.2435,-478.4133 129.2435,-478.4132"/>
</g>
<!-- space -->
<g id="node3" class="node">
<title>space</title>
<ellipse fill="#b2dfee" stroke="#b2dfee" cx="125.7434" cy="-378" rx="30.5947" ry="18"/>
<text text-anchor="middle" x="125.7434" y="-374.3" font-family="Times,serif" font-size="14.00" fill="#000000">space</text>
</g>
<!-- opening&#45;&gt;space -->
<g id="edge2" class="edge">
<title>opening&#45;&gt;space</title>
<path fill="none" stroke="#000000" d="M125.7434,-431.8314C125.7434,-424.131 125.7434,-414.9743 125.7434,-406.4166"/>
<polygon fill="#000000" stroke="#000000" points="129.2435,-406.4132 125.7434,-396.4133 122.2435,-406.4133 129.2435,-406.4132"/>
</g>
<!-- amorphous_shape -->
<g id="node4" class="node">
<title>amorphous_shape</title>
<ellipse fill="#b2dfee" stroke="#b2dfee" cx="74.7434" cy="-306" rx="74.9875" ry="18"/>
<text text-anchor="middle" x="74.7434" y="-302.3" font-family="Times,serif" font-size="14.00" fill="#000000">amorphous_shape</text>
</g>
<!-- space&#45;&gt;amorphous_shape -->
<g id="edge3" class="edge">
<title>space&#45;&gt;amorphous_shape</title>
<path fill="none" stroke="#000000" d="M113.9148,-361.3008C107.7699,-352.6256 100.1212,-341.8275 93.2176,-332.0813"/>
<polygon fill="#000000" stroke="#000000" points="96.0356,-330.0043 87.3992,-323.8671 90.3234,-334.0505 96.0356,-330.0043"/>
</g>
<!-- location -->
<g id="node9" class="node">
<title>location</title>
<ellipse fill="#b2dfee" stroke="#b2dfee" cx="179.7434" cy="-234" rx="38.9931" ry="18"/>
<text text-anchor="middle" x="179.7434" y="-230.3" font-family="Times,serif" font-size="14.00" fill="#000000">location</text>
</g>
<!-- space&#45;&gt;location -->
<g id="edge8" class="edge">
<title>space&#45;&gt;location</title>
<path fill="none" stroke="#000000" d="M137.9209,-361.2378C144.9026,-350.9352 153.3278,-337.2166 158.7434,-324 166.931,-304.0185 172.3138,-280.1717 175.5781,-262.0464"/>
<polygon fill="#000000" stroke="#000000" points="179.0422,-262.552 177.2604,-252.1081 172.1404,-261.3836 179.0422,-262.552"/>
</g>
<!-- shape -->
<g id="node5" class="node">
<title>shape</title>
<ellipse fill="#b2dfee" stroke="#b2dfee" cx="70.7434" cy="-234" rx="30.5947" ry="18"/>
<text text-anchor="middle" x="70.7434" y="-230.3" font-family="Times,serif" font-size="14.00" fill="#000000">shape</text>
</g>
<!-- amorphous_shape&#45;&gt;shape -->
<g id="edge4" class="edge">
<title>amorphous_shape&#45;&gt;shape</title>
<path fill="none" stroke="#000000" d="M73.734,-287.8314C73.3062,-280.131 72.7975,-270.9743 72.3221,-262.4166"/>
<polygon fill="#000000" stroke="#000000" points="75.8157,-262.2037 71.7663,-252.4133 68.8265,-262.592 75.8157,-262.2037"/>
</g>
<!-- attribute -->
<g id="node6" class="node">
<title>attribute</title>
<ellipse fill="#b2dfee" stroke="#b2dfee" cx="63.7434" cy="-162" rx="40.0939" ry="18"/>
<text text-anchor="middle" x="63.7434" y="-158.3" font-family="Times,serif" font-size="14.00" fill="#000000">attribute</text>
</g>
<!-- shape&#45;&gt;attribute -->
<g id="edge5" class="edge">
<title>shape&#45;&gt;attribute</title>
<path fill="none" stroke="#000000" d="M68.977,-215.8314C68.2283,-208.131 67.3381,-198.9743 66.5061,-190.4166"/>
<polygon fill="#000000" stroke="#000000" points="69.9849,-190.0276 65.5335,-180.4133 63.0177,-190.7051 69.9849,-190.0276"/>
</g>
<!-- abstraction -->
<g id="node7" class="node">
<title>abstraction</title>
<ellipse fill="#b2dfee" stroke="#b2dfee" cx="49.7434" cy="-90" rx="49.2915" ry="18"/>
<text text-anchor="middle" x="49.7434" y="-86.3" font-family="Times,serif" font-size="14.00" fill="#000000">abstraction</text>
</g>
<!-- attribute&#45;&gt;abstraction -->
<g id="edge6" class="edge">
<title>attribute&#45;&gt;abstraction</title>
<path fill="none" stroke="#000000" d="M60.2106,-143.8314C58.7133,-136.131 56.9328,-126.9743 55.2688,-118.4166"/>
<polygon fill="#000000" stroke="#000000" points="58.6682,-117.5614 53.3237,-108.4133 51.7968,-118.8975 58.6682,-117.5614"/>
</g>
<!-- entity -->
<g id="node8" class="node">
<title>entity</title>
<ellipse fill="#b2dfee" stroke="#b2dfee" cx="115.7434" cy="-18" rx="30.5947" ry="18"/>
<text text-anchor="middle" x="115.7434" y="-14.3" font-family="Times,serif" font-size="14.00" fill="#000000">entity</text>
</g>
<!-- abstraction&#45;&gt;entity -->
<g id="edge7" class="edge">
<title>abstraction&#45;&gt;entity</title>
<path fill="none" stroke="#000000" d="M65.7201,-72.5708C74.1489,-63.3758 84.6181,-51.9548 93.7972,-41.9413"/>
<polygon fill="#000000" stroke="#000000" points="96.6413,-44.0183 100.8185,-34.2817 91.4812,-39.2882 96.6413,-44.0183"/>
</g>
<!-- object -->
<g id="node10" class="node">
<title>object</title>
<ellipse fill="#b2dfee" stroke="#b2dfee" cx="180.7434" cy="-162" rx="32.4942" ry="18"/>
<text text-anchor="middle" x="180.7434" y="-158.3" font-family="Times,serif" font-size="14.00" fill="#000000">object</text>
</g>
<!-- location&#45;&gt;object -->
<g id="edge9" class="edge">
<title>location&#45;&gt;object</title>
<path fill="none" stroke="#000000" d="M179.9957,-215.8314C180.1027,-208.131 180.2298,-198.9743 180.3487,-190.4166"/>
<polygon fill="#000000" stroke="#000000" points="183.8483,-190.4609 180.4876,-180.4133 176.849,-190.3637 183.8483,-190.4609"/>
</g>
<!-- physical_entity -->
<g id="node11" class="node">
<title>physical_entity</title>
<ellipse fill="#b2dfee" stroke="#b2dfee" cx="181.7434" cy="-90" rx="64.189" ry="18"/>
<text text-anchor="middle" x="181.7434" y="-86.3" font-family="Times,serif" font-size="14.00" fill="#000000">physical_entity</text>
</g>
<!-- object&#45;&gt;physical_entity -->
<g id="edge10" class="edge">
<title>object&#45;&gt;physical_entity</title>
<path fill="none" stroke="#000000" d="M180.9957,-143.8314C181.1027,-136.131 181.2298,-126.9743 181.3487,-118.4166"/>
<polygon fill="#000000" stroke="#000000" points="184.8483,-118.4609 181.4876,-108.4133 177.849,-118.3637 184.8483,-118.4609"/>
</g>
<!-- physical_entity&#45;&gt;entity -->
<g id="edge11" class="edge">
<title>physical_entity&#45;&gt;entity</title>
<path fill="none" stroke="#000000" d="M165.4288,-72.2022C156.9949,-63.0017 146.588,-51.6487 137.4812,-41.7141"/>
<polygon fill="#000000" stroke="#000000" points="139.8564,-39.1255 130.5191,-34.119 134.6963,-43.8556 139.8564,-39.1255"/>
</g>
</g>
</svg>
