<?xml version="1.0" encoding="UTF-8" standalone="no"?>
<!DOCTYPE svg PUBLIC "-//W3C//DTD SVG 1.1//EN"
 "http://www.w3.org/Graphics/SVG/1.1/DTD/svg11.dtd">
<!-- Generated by graphviz version 2.40.1 (20161225.0304)
 -->
<!-- Title: unix Pages: 1 -->
<svg width="128pt" height="404pt"
 viewBox="0.00 0.00 127.59 404.00" xmlns="http://www.w3.org/2000/svg" xmlns:xlink="http://www.w3.org/1999/xlink">
<g id="graph0" class="graph" transform="scale(1 1) rotate(0) translate(4 400)">
<title>unix</title>
<polygon fill="#ffffff" stroke="transparent" points="-4,4 -4,-400 123.5894,-400 123.5894,4 -4,4"/>
<!-- damn -->
<g id="node1" class="node">
<title>damn</title>
<ellipse fill="#b2dfee" stroke="#b2dfee" cx="59.7947" cy="-378" rx="30.5947" ry="18"/>
<text text-anchor="middle" x="59.7947" y="-374.3" font-family="Times,serif" font-size="14.00" fill="#000000">damn</text>
</g>
<!-- worthlessness -->
<g id="node2" class="node">
<title>worthlessness</title>
<ellipse fill="#b2dfee" stroke="#b2dfee" cx="59.7947" cy="-306" rx="59.5901" ry="18"/>
<text text-anchor="middle" x="59.7947" y="-302.3" font-family="Times,serif" font-size="14.00" fill="#000000">worthlessness</text>
</g>
<!-- damn&#45;&gt;worthlessness -->
<g id="edge1" class="edge">
<title>damn&#45;&gt;worthlessness</title>
<path fill="none" stroke="#000000" d="M59.7947,-359.8314C59.7947,-352.131 59.7947,-342.9743 59.7947,-334.4166"/>
<polygon fill="#000000" stroke="#000000" points="63.2948,-334.4132 59.7947,-324.4133 56.2948,-334.4133 63.2948,-334.4132"/>
</g>
<!-- quality -->
<g id="node3" class="node">
<title>quality</title>
<ellipse fill="#b2dfee" stroke="#b2dfee" cx="59.7947" cy="-234" rx="35.194" ry="18"/>
<text text-anchor="middle" x="59.7947" y="-230.3" font-family="Times,serif" font-size="14.00" fill="#000000">quality</text>
</g>
<!-- worthlessness&#45;&gt;quality -->
<g id="edge2" class="edge">
<title>worthlessness&#45;&gt;quality</title>
<path fill="none" stroke="#000000" d="M59.7947,-287.8314C59.7947,-280.131 59.7947,-270.9743 59.7947,-262.4166"/>
<polygon fill="#000000" stroke="#000000" points="63.2948,-262.4132 59.7947,-252.4133 56.2948,-262.4133 63.2948,-262.4132"/>
</g>
<!-- attribute -->
<g id="node4" class="node">
<title>attribute</title>
<ellipse fill="#b2dfee" stroke="#b2dfee" cx="59.7947" cy="-162" rx="40.0939" ry="18"/>
<text text-anchor="middle" x="59.7947" y="-158.3" font-family="Times,serif" font-size="14.00" fill="#000000">attribute</text>
</g>
<!-- quality&#45;&gt;attribute -->
<g id="edge3" class="edge">
<title>quality&#45;&gt;attribute</title>
<path fill="none" stroke="#000000" d="M59.7947,-215.8314C59.7947,-208.131 59.7947,-198.9743 59.7947,-190.4166"/>
<polygon fill="#000000" stroke="#000000" points="63.2948,-190.4132 59.7947,-180.4133 56.2948,-190.4133 63.2948,-190.4132"/>
</g>
<!-- abstraction -->
<g id="node5" class="node">
<title>abstraction</title>
<ellipse fill="#b2dfee" stroke="#b2dfee" cx="59.7947" cy="-90" rx="49.2915" ry="18"/>
<text text-anchor="middle" x="59.7947" y="-86.3" font-family="Times,serif" font-size="14.00" fill="#000000">abstraction</text>
</g>
<!-- attribute&#45;&gt;abstraction -->
<g id="edge4" class="edge">
<title>attribute&#45;&gt;abstraction</title>
<path fill="none" stroke="#000000" d="M59.7947,-143.8314C59.7947,-136.131 59.7947,-126.9743 59.7947,-118.4166"/>
<polygon fill="#000000" stroke="#000000" points="63.2948,-118.4132 59.7947,-108.4133 56.2948,-118.4133 63.2948,-118.4132"/>
</g>
<!-- entity -->
<g id="node6" class="node">
<title>entity</title>
<ellipse fill="#b2dfee" stroke="#b2dfee" cx="59.7947" cy="-18" rx="30.5947" ry="18"/>
<text text-anchor="middle" x="59.7947" y="-14.3" font-family="Times,serif" font-size="14.00" fill="#000000">entity</text>
</g>
<!-- abstraction&#45;&gt;entity -->
<g id="edge5" class="edge">
<title>abstraction&#45;&gt;entity</title>
<path fill="none" stroke="#000000" d="M59.7947,-71.8314C59.7947,-64.131 59.7947,-54.9743 59.7947,-46.4166"/>
<polygon fill="#000000" stroke="#000000" points="63.2948,-46.4132 59.7947,-36.4133 56.2948,-46.4133 63.2948,-46.4132"/>
</g>
</g>
</svg>
