<?xml version="1.0" encoding="UTF-8" standalone="no"?>
<!DOCTYPE svg PUBLIC "-//W3C//DTD SVG 1.1//EN"
 "http://www.w3.org/Graphics/SVG/1.1/DTD/svg11.dtd">
<!-- Generated by graphviz version 2.40.1 (20161225.0304)
 -->
<!-- Title: unix Pages: 1 -->
<svg width="111pt" height="432pt"
 viewBox="0.00 0.00 110.64 432.00" xmlns="http://www.w3.org/2000/svg" xmlns:xlink="http://www.w3.org/1999/xlink">
<g id="graph0" class="graph" transform="scale(.6968 .6968) rotate(0) translate(4 616)">
<title>unix</title>
<polygon fill="#ffffff" stroke="transparent" points="-4,4 -4,-616 154.7866,-616 154.7866,4 -4,4"/>
<!-- dig -->
<g id="node1" class="node">
<title>dig</title>
<ellipse fill="#b2dfee" stroke="#b2dfee" cx="75.3933" cy="-594" rx="27" ry="18"/>
<text text-anchor="middle" x="75.3933" y="-590.3" font-family="Times,serif" font-size="14.00" fill="#000000">dig</text>
</g>
<!-- site -->
<g id="node2" class="node">
<title>site</title>
<ellipse fill="#b2dfee" stroke="#b2dfee" cx="75.3933" cy="-522" rx="27" ry="18"/>
<text text-anchor="middle" x="75.3933" y="-518.3" font-family="Times,serif" font-size="14.00" fill="#000000">site</text>
</g>
<!-- dig&#45;&gt;site -->
<g id="edge1" class="edge">
<title>dig&#45;&gt;site</title>
<path fill="none" stroke="#000000" d="M75.3933,-575.8314C75.3933,-568.131 75.3933,-558.9743 75.3933,-550.4166"/>
<polygon fill="#000000" stroke="#000000" points="78.8934,-550.4132 75.3933,-540.4133 71.8934,-550.4133 78.8934,-550.4132"/>
</g>
<!-- tract -->
<g id="node3" class="node">
<title>tract</title>
<ellipse fill="#b2dfee" stroke="#b2dfee" cx="75.3933" cy="-450" rx="27" ry="18"/>
<text text-anchor="middle" x="75.3933" y="-446.3" font-family="Times,serif" font-size="14.00" fill="#000000">tract</text>
</g>
<!-- site&#45;&gt;tract -->
<g id="edge2" class="edge">
<title>site&#45;&gt;tract</title>
<path fill="none" stroke="#000000" d="M75.3933,-503.8314C75.3933,-496.131 75.3933,-486.9743 75.3933,-478.4166"/>
<polygon fill="#000000" stroke="#000000" points="78.8934,-478.4132 75.3933,-468.4133 71.8934,-478.4133 78.8934,-478.4132"/>
</g>
<!-- geographical_area -->
<g id="node4" class="node">
<title>geographical_area</title>
<ellipse fill="#b2dfee" stroke="#b2dfee" cx="75.3933" cy="-378" rx="75.2868" ry="18"/>
<text text-anchor="middle" x="75.3933" y="-374.3" font-family="Times,serif" font-size="14.00" fill="#000000">geographical_area</text>
</g>
<!-- tract&#45;&gt;geographical_area -->
<g id="edge3" class="edge">
<title>tract&#45;&gt;geographical_area</title>
<path fill="none" stroke="#000000" d="M75.3933,-431.8314C75.3933,-424.131 75.3933,-414.9743 75.3933,-406.4166"/>
<polygon fill="#000000" stroke="#000000" points="78.8934,-406.4132 75.3933,-396.4133 71.8934,-406.4133 78.8934,-406.4132"/>
</g>
<!-- region -->
<g id="node5" class="node">
<title>region</title>
<ellipse fill="#b2dfee" stroke="#b2dfee" cx="75.3933" cy="-306" rx="33.2948" ry="18"/>
<text text-anchor="middle" x="75.3933" y="-302.3" font-family="Times,serif" font-size="14.00" fill="#000000">region</text>
</g>
<!-- geographical_area&#45;&gt;region -->
<g id="edge4" class="edge">
<title>geographical_area&#45;&gt;region</title>
<path fill="none" stroke="#000000" d="M75.3933,-359.8314C75.3933,-352.131 75.3933,-342.9743 75.3933,-334.4166"/>
<polygon fill="#000000" stroke="#000000" points="78.8934,-334.4132 75.3933,-324.4133 71.8934,-334.4133 78.8934,-334.4132"/>
</g>
<!-- location -->
<g id="node6" class="node">
<title>location</title>
<ellipse fill="#b2dfee" stroke="#b2dfee" cx="75.3933" cy="-234" rx="38.9931" ry="18"/>
<text text-anchor="middle" x="75.3933" y="-230.3" font-family="Times,serif" font-size="14.00" fill="#000000">location</text>
</g>
<!-- region&#45;&gt;location -->
<g id="edge5" class="edge">
<title>region&#45;&gt;location</title>
<path fill="none" stroke="#000000" d="M75.3933,-287.8314C75.3933,-280.131 75.3933,-270.9743 75.3933,-262.4166"/>
<polygon fill="#000000" stroke="#000000" points="78.8934,-262.4132 75.3933,-252.4133 71.8934,-262.4133 78.8934,-262.4132"/>
</g>
<!-- object -->
<g id="node7" class="node">
<title>object</title>
<ellipse fill="#b2dfee" stroke="#b2dfee" cx="75.3933" cy="-162" rx="32.4942" ry="18"/>
<text text-anchor="middle" x="75.3933" y="-158.3" font-family="Times,serif" font-size="14.00" fill="#000000">object</text>
</g>
<!-- location&#45;&gt;object -->
<g id="edge6" class="edge">
<title>location&#45;&gt;object</title>
<path fill="none" stroke="#000000" d="M75.3933,-215.8314C75.3933,-208.131 75.3933,-198.9743 75.3933,-190.4166"/>
<polygon fill="#000000" stroke="#000000" points="78.8934,-190.4132 75.3933,-180.4133 71.8934,-190.4133 78.8934,-190.4132"/>
</g>
<!-- physical_entity -->
<g id="node8" class="node">
<title>physical_entity</title>
<ellipse fill="#b2dfee" stroke="#b2dfee" cx="75.3933" cy="-90" rx="64.189" ry="18"/>
<text text-anchor="middle" x="75.3933" y="-86.3" font-family="Times,serif" font-size="14.00" fill="#000000">physical_entity</text>
</g>
<!-- object&#45;&gt;physical_entity -->
<g id="edge7" class="edge">
<title>object&#45;&gt;physical_entity</title>
<path fill="none" stroke="#000000" d="M75.3933,-143.8314C75.3933,-136.131 75.3933,-126.9743 75.3933,-118.4166"/>
<polygon fill="#000000" stroke="#000000" points="78.8934,-118.4132 75.3933,-108.4133 71.8934,-118.4133 78.8934,-118.4132"/>
</g>
<!-- entity -->
<g id="node9" class="node">
<title>entity</title>
<ellipse fill="#b2dfee" stroke="#b2dfee" cx="75.3933" cy="-18" rx="30.5947" ry="18"/>
<text text-anchor="middle" x="75.3933" y="-14.3" font-family="Times,serif" font-size="14.00" fill="#000000">entity</text>
</g>
<!-- physical_entity&#45;&gt;entity -->
<g id="edge8" class="edge">
<title>physical_entity&#45;&gt;entity</title>
<path fill="none" stroke="#000000" d="M75.3933,-71.8314C75.3933,-64.131 75.3933,-54.9743 75.3933,-46.4166"/>
<polygon fill="#000000" stroke="#000000" points="78.8934,-46.4132 75.3933,-36.4133 71.8934,-46.4133 78.8934,-46.4132"/>
</g>
</g>
</svg>
