<?xml version="1.0" encoding="UTF-8" standalone="no"?>
<!DOCTYPE svg PUBLIC "-//W3C//DTD SVG 1.1//EN"
 "http://www.w3.org/Graphics/SVG/1.1/DTD/svg11.dtd">
<!-- Generated by graphviz version 2.40.1 (20161225.0304)
 -->
<!-- Title: unix Pages: 1 -->
<svg width="114pt" height="432pt"
 viewBox="0.00 0.00 113.59 432.00" xmlns="http://www.w3.org/2000/svg" xmlns:xlink="http://www.w3.org/1999/xlink">
<g id="graph0" class="graph" transform="scale(.4408 .4408) rotate(0) translate(4 976)">
<title>unix</title>
<polygon fill="#ffffff" stroke="transparent" points="-4,4 -4,-976 253.6897,-976 253.6897,4 -4,4"/>
<!-- dog -->
<g id="node1" class="node">
<title>dog</title>
<ellipse fill="#b2dfee" stroke="#b2dfee" cx="111.1961" cy="-954" rx="27" ry="18"/>
<text text-anchor="middle" x="111.1961" y="-950.3" font-family="Times,serif" font-size="14.00" fill="#000000">dog</text>
</g>
<!-- canine -->
<g id="node2" class="node">
<title>canine</title>
<ellipse fill="#b2dfee" stroke="#b2dfee" cx="80.1961" cy="-882" rx="33.5952" ry="18"/>
<text text-anchor="middle" x="80.1961" y="-878.3" font-family="Times,serif" font-size="14.00" fill="#000000">canine</text>
</g>
<!-- dog&#45;&gt;canine -->
<g id="edge1" class="edge">
<title>dog&#45;&gt;canine</title>
<path fill="none" stroke="#000000" d="M103.6918,-936.5708C100.1276,-928.2927 95.7867,-918.2104 91.8104,-908.9752"/>
<polygon fill="#000000" stroke="#000000" points="95.0159,-907.5696 87.8466,-899.7689 88.5865,-910.3379 95.0159,-907.5696"/>
</g>
<!-- domestic_animal -->
<g id="node15" class="node">
<title>domestic_animal</title>
<ellipse fill="#b2dfee" stroke="#b2dfee" cx="178.1961" cy="-810" rx="71.4873" ry="18"/>
<text text-anchor="middle" x="178.1961" y="-806.3" font-family="Times,serif" font-size="14.00" fill="#000000">domestic_animal</text>
</g>
<!-- dog&#45;&gt;domestic_animal -->
<g id="edge14" class="edge">
<title>dog&#45;&gt;domestic_animal</title>
<path fill="none" stroke="#000000" d="M119.2778,-936.6302C130.7851,-911.8982 151.9993,-866.3034 165.5855,-837.1034"/>
<polygon fill="#000000" stroke="#000000" points="168.8302,-838.4263 169.8755,-827.8831 162.4836,-835.4733 168.8302,-838.4263"/>
</g>
<!-- carnivore -->
<g id="node3" class="node">
<title>carnivore</title>
<ellipse fill="#b2dfee" stroke="#b2dfee" cx="44.1961" cy="-810" rx="44.393" ry="18"/>
<text text-anchor="middle" x="44.1961" y="-806.3" font-family="Times,serif" font-size="14.00" fill="#000000">carnivore</text>
</g>
<!-- canine&#45;&gt;carnivore -->
<g id="edge2" class="edge">
<title>canine&#45;&gt;carnivore</title>
<path fill="none" stroke="#000000" d="M71.4815,-864.5708C67.3424,-856.2927 62.3013,-846.2104 57.6837,-836.9752"/>
<polygon fill="#000000" stroke="#000000" points="60.6832,-835.1479 53.0805,-827.7689 54.4222,-838.2784 60.6832,-835.1479"/>
</g>
<!-- placental -->
<g id="node4" class="node">
<title>placental</title>
<ellipse fill="#b2dfee" stroke="#b2dfee" cx="51.1961" cy="-738" rx="42.4939" ry="18"/>
<text text-anchor="middle" x="51.1961" y="-734.3" font-family="Times,serif" font-size="14.00" fill="#000000">placental</text>
</g>
<!-- carnivore&#45;&gt;placental -->
<g id="edge3" class="edge">
<title>carnivore&#45;&gt;placental</title>
<path fill="none" stroke="#000000" d="M45.9625,-791.8314C46.7111,-784.131 47.6014,-774.9743 48.4334,-766.4166"/>
<polygon fill="#000000" stroke="#000000" points="51.9217,-766.7051 49.4059,-756.4133 44.9546,-766.0276 51.9217,-766.7051"/>
</g>
<!-- mammal -->
<g id="node5" class="node">
<title>mammal</title>
<ellipse fill="#b2dfee" stroke="#b2dfee" cx="66.1961" cy="-666" rx="42.7926" ry="18"/>
<text text-anchor="middle" x="66.1961" y="-662.3" font-family="Times,serif" font-size="14.00" fill="#000000">mammal</text>
</g>
<!-- placental&#45;&gt;mammal -->
<g id="edge4" class="edge">
<title>placental&#45;&gt;mammal</title>
<path fill="none" stroke="#000000" d="M54.9812,-719.8314C56.5855,-712.131 58.4931,-702.9743 60.2759,-694.4166"/>
<polygon fill="#000000" stroke="#000000" points="63.7468,-694.9169 62.36,-684.4133 56.8939,-693.4892 63.7468,-694.9169"/>
</g>
<!-- vertebrate -->
<g id="node6" class="node">
<title>vertebrate</title>
<ellipse fill="#b2dfee" stroke="#b2dfee" cx="96.1961" cy="-594" rx="46.2923" ry="18"/>
<text text-anchor="middle" x="96.1961" y="-590.3" font-family="Times,serif" font-size="14.00" fill="#000000">vertebrate</text>
</g>
<!-- mammal&#45;&gt;vertebrate -->
<g id="edge5" class="edge">
<title>mammal&#45;&gt;vertebrate</title>
<path fill="none" stroke="#000000" d="M73.6118,-648.2022C77.0013,-640.0675 81.0919,-630.2501 84.8552,-621.2181"/>
<polygon fill="#000000" stroke="#000000" points="88.1462,-622.4195 88.7617,-611.8425 81.6847,-619.7271 88.1462,-622.4195"/>
</g>
<!-- chordate -->
<g id="node7" class="node">
<title>chordate</title>
<ellipse fill="#b2dfee" stroke="#b2dfee" cx="101.1961" cy="-522" rx="40.8928" ry="18"/>
<text text-anchor="middle" x="101.1961" y="-518.3" font-family="Times,serif" font-size="14.00" fill="#000000">chordate</text>
</g>
<!-- vertebrate&#45;&gt;chordate -->
<g id="edge6" class="edge">
<title>vertebrate&#45;&gt;chordate</title>
<path fill="none" stroke="#000000" d="M97.4578,-575.8314C97.9925,-568.131 98.6284,-558.9743 99.2227,-550.4166"/>
<polygon fill="#000000" stroke="#000000" points="102.7161,-550.6317 99.9174,-540.4133 95.7329,-550.1467 102.7161,-550.6317"/>
</g>
<!-- animal -->
<g id="node8" class="node">
<title>animal</title>
<ellipse fill="#b2dfee" stroke="#b2dfee" cx="135.1961" cy="-450" rx="35.194" ry="18"/>
<text text-anchor="middle" x="135.1961" y="-446.3" font-family="Times,serif" font-size="14.00" fill="#000000">animal</text>
</g>
<!-- chordate&#45;&gt;animal -->
<g id="edge7" class="edge">
<title>chordate&#45;&gt;animal</title>
<path fill="none" stroke="#000000" d="M109.6006,-504.2022C113.512,-495.9192 118.2473,-485.8915 122.576,-476.7248"/>
<polygon fill="#000000" stroke="#000000" points="125.783,-478.1301 126.8883,-467.593 119.4533,-475.141 125.783,-478.1301"/>
</g>
<!-- organism -->
<g id="node9" class="node">
<title>organism</title>
<ellipse fill="#b2dfee" stroke="#b2dfee" cx="135.1961" cy="-378" rx="44.393" ry="18"/>
<text text-anchor="middle" x="135.1961" y="-374.3" font-family="Times,serif" font-size="14.00" fill="#000000">organism</text>
</g>
<!-- animal&#45;&gt;organism -->
<g id="edge8" class="edge">
<title>animal&#45;&gt;organism</title>
<path fill="none" stroke="#000000" d="M135.1961,-431.8314C135.1961,-424.131 135.1961,-414.9743 135.1961,-406.4166"/>
<polygon fill="#000000" stroke="#000000" points="138.6962,-406.4132 135.1961,-396.4133 131.6962,-406.4133 138.6962,-406.4132"/>
</g>
<!-- living_thing -->
<g id="node10" class="node">
<title>living_thing</title>
<ellipse fill="#b2dfee" stroke="#b2dfee" cx="135.1961" cy="-306" rx="53.8905" ry="18"/>
<text text-anchor="middle" x="135.1961" y="-302.3" font-family="Times,serif" font-size="14.00" fill="#000000">living_thing</text>
</g>
<!-- organism&#45;&gt;living_thing -->
<g id="edge9" class="edge">
<title>organism&#45;&gt;living_thing</title>
<path fill="none" stroke="#000000" d="M135.1961,-359.8314C135.1961,-352.131 135.1961,-342.9743 135.1961,-334.4166"/>
<polygon fill="#000000" stroke="#000000" points="138.6962,-334.4132 135.1961,-324.4133 131.6962,-334.4133 138.6962,-334.4132"/>
</g>
<!-- whole -->
<g id="node11" class="node">
<title>whole</title>
<ellipse fill="#b2dfee" stroke="#b2dfee" cx="135.1961" cy="-234" rx="32.4942" ry="18"/>
<text text-anchor="middle" x="135.1961" y="-230.3" font-family="Times,serif" font-size="14.00" fill="#000000">whole</text>
</g>
<!-- living_thing&#45;&gt;whole -->
<g id="edge10" class="edge">
<title>living_thing&#45;&gt;whole</title>
<path fill="none" stroke="#000000" d="M135.1961,-287.8314C135.1961,-280.131 135.1961,-270.9743 135.1961,-262.4166"/>
<polygon fill="#000000" stroke="#000000" points="138.6962,-262.4132 135.1961,-252.4133 131.6962,-262.4133 138.6962,-262.4132"/>
</g>
<!-- object -->
<g id="node12" class="node">
<title>object</title>
<ellipse fill="#b2dfee" stroke="#b2dfee" cx="135.1961" cy="-162" rx="32.4942" ry="18"/>
<text text-anchor="middle" x="135.1961" y="-158.3" font-family="Times,serif" font-size="14.00" fill="#000000">object</text>
</g>
<!-- whole&#45;&gt;object -->
<g id="edge11" class="edge">
<title>whole&#45;&gt;object</title>
<path fill="none" stroke="#000000" d="M135.1961,-215.8314C135.1961,-208.131 135.1961,-198.9743 135.1961,-190.4166"/>
<polygon fill="#000000" stroke="#000000" points="138.6962,-190.4132 135.1961,-180.4133 131.6962,-190.4133 138.6962,-190.4132"/>
</g>
<!-- physical_entity -->
<g id="node13" class="node">
<title>physical_entity</title>
<ellipse fill="#b2dfee" stroke="#b2dfee" cx="135.1961" cy="-90" rx="64.189" ry="18"/>
<text text-anchor="middle" x="135.1961" y="-86.3" font-family="Times,serif" font-size="14.00" fill="#000000">physical_entity</text>
</g>
<!-- object&#45;&gt;physical_entity -->
<g id="edge12" class="edge">
<title>object&#45;&gt;physical_entity</title>
<path fill="none" stroke="#000000" d="M135.1961,-143.8314C135.1961,-136.131 135.1961,-126.9743 135.1961,-118.4166"/>
<polygon fill="#000000" stroke="#000000" points="138.6962,-118.4132 135.1961,-108.4133 131.6962,-118.4133 138.6962,-118.4132"/>
</g>
<!-- entity -->
<g id="node14" class="node">
<title>entity</title>
<ellipse fill="#b2dfee" stroke="#b2dfee" cx="135.1961" cy="-18" rx="30.5947" ry="18"/>
<text text-anchor="middle" x="135.1961" y="-14.3" font-family="Times,serif" font-size="14.00" fill="#000000">entity</text>
</g>
<!-- physical_entity&#45;&gt;entity -->
<g id="edge13" class="edge">
<title>physical_entity&#45;&gt;entity</title>
<path fill="none" stroke="#000000" d="M135.1961,-71.8314C135.1961,-64.131 135.1961,-54.9743 135.1961,-46.4166"/>
<polygon fill="#000000" stroke="#000000" points="138.6962,-46.4132 135.1961,-36.4133 131.6962,-46.4133 138.6962,-46.4132"/>
</g>
<!-- domestic_animal&#45;&gt;animal -->
<g id="edge15" class="edge">
<title>domestic_animal&#45;&gt;animal</title>
<path fill="none" stroke="#000000" d="M177.3673,-791.8191C176.1957,-764.5085 174.1961,-711.2675 174.1961,-666 174.1961,-666 174.1961,-666 174.1961,-594 174.1961,-552.0642 158.5958,-505.5729 147.1284,-477.063"/>
<polygon fill="#000000" stroke="#000000" points="150.3376,-475.6648 143.2769,-467.7656 143.8705,-478.3438 150.3376,-475.6648"/>
</g>
</g>
</svg>
