<?xml version="1.0" encoding="UTF-8" standalone="no"?>
<!DOCTYPE svg PUBLIC "-//W3C//DTD SVG 1.1//EN"
 "http://www.w3.org/Graphics/SVG/1.1/DTD/svg11.dtd">
<!-- Generated by graphviz version 2.40.1 (20161225.0304)
 -->
<!-- Title: unix Pages: 1 -->
<svg width="205pt" height="432pt"
 viewBox="0.00 0.00 204.91 432.00" xmlns="http://www.w3.org/2000/svg" xmlns:xlink="http://www.w3.org/1999/xlink">
<g id="graph0" class="graph" transform="scale(.6968 .6968) rotate(0) translate(4 616)">
<title>unix</title>
<polygon fill="#ffffff" stroke="transparent" points="-4,4 -4,-616 290.09,-616 290.09,4 -4,4"/>
<!-- down -->
<g id="node1" class="node">
<title>down</title>
<ellipse fill="#b2dfee" stroke="#b2dfee" cx="146.3956" cy="-594" rx="30.5947" ry="18"/>
<text text-anchor="middle" x="146.3956" y="-590.3" font-family="Times,serif" font-size="14.00" fill="#000000">down</text>
</g>
<!-- feather -->
<g id="node2" class="node">
<title>feather</title>
<ellipse fill="#b2dfee" stroke="#b2dfee" cx="146.3956" cy="-522" rx="35.194" ry="18"/>
<text text-anchor="middle" x="146.3956" y="-518.3" font-family="Times,serif" font-size="14.00" fill="#000000">feather</text>
</g>
<!-- down&#45;&gt;feather -->
<g id="edge1" class="edge">
<title>down&#45;&gt;feather</title>
<path fill="none" stroke="#000000" d="M146.3956,-575.8314C146.3956,-568.131 146.3956,-558.9743 146.3956,-550.4166"/>
<polygon fill="#000000" stroke="#000000" points="149.8957,-550.4132 146.3956,-540.4133 142.8957,-550.4133 149.8957,-550.4132"/>
</g>
<!-- animal_material -->
<g id="node3" class="node">
<title>animal_material</title>
<ellipse fill="#b2dfee" stroke="#b2dfee" cx="71.3956" cy="-450" rx="68.7879" ry="18"/>
<text text-anchor="middle" x="71.3956" y="-446.3" font-family="Times,serif" font-size="14.00" fill="#000000">animal_material</text>
</g>
<!-- feather&#45;&gt;animal_material -->
<g id="edge2" class="edge">
<title>feather&#45;&gt;animal_material</title>
<path fill="none" stroke="#000000" d="M129.7507,-506.0209C120.0731,-496.7304 107.6783,-484.8314 96.8031,-474.3912"/>
<polygon fill="#000000" stroke="#000000" points="99.2067,-471.8469 89.569,-467.4464 94.359,-476.8966 99.2067,-471.8469"/>
</g>
<!-- body_covering -->
<g id="node12" class="node">
<title>body_covering</title>
<ellipse fill="#b2dfee" stroke="#b2dfee" cx="222.3956" cy="-450" rx="63.8893" ry="18"/>
<text text-anchor="middle" x="222.3956" y="-446.3" font-family="Times,serif" font-size="14.00" fill="#000000">body_covering</text>
</g>
<!-- feather&#45;&gt;body_covering -->
<g id="edge12" class="edge">
<title>feather&#45;&gt;body_covering</title>
<path fill="none" stroke="#000000" d="M163.2625,-506.0209C173.0691,-496.7304 185.6291,-484.8314 196.6493,-474.3912"/>
<polygon fill="#000000" stroke="#000000" points="199.1275,-476.8647 203.98,-467.4464 194.3133,-471.783 199.1275,-476.8647"/>
</g>
<!-- material -->
<g id="node4" class="node">
<title>material</title>
<ellipse fill="#b2dfee" stroke="#b2dfee" cx="71.3956" cy="-378" rx="40.0939" ry="18"/>
<text text-anchor="middle" x="71.3956" y="-374.3" font-family="Times,serif" font-size="14.00" fill="#000000">material</text>
</g>
<!-- animal_material&#45;&gt;material -->
<g id="edge3" class="edge">
<title>animal_material&#45;&gt;material</title>
<path fill="none" stroke="#000000" d="M71.3956,-431.8314C71.3956,-424.131 71.3956,-414.9743 71.3956,-406.4166"/>
<polygon fill="#000000" stroke="#000000" points="74.8957,-406.4132 71.3956,-396.4133 67.8957,-406.4133 74.8957,-406.4132"/>
</g>
<!-- substance -->
<g id="node5" class="node">
<title>substance</title>
<ellipse fill="#b2dfee" stroke="#b2dfee" cx="71.3956" cy="-306" rx="44.6926" ry="18"/>
<text text-anchor="middle" x="71.3956" y="-302.3" font-family="Times,serif" font-size="14.00" fill="#000000">substance</text>
</g>
<!-- material&#45;&gt;substance -->
<g id="edge4" class="edge">
<title>material&#45;&gt;substance</title>
<path fill="none" stroke="#000000" d="M71.3956,-359.8314C71.3956,-352.131 71.3956,-342.9743 71.3956,-334.4166"/>
<polygon fill="#000000" stroke="#000000" points="74.8957,-334.4132 71.3956,-324.4133 67.8957,-334.4133 74.8957,-334.4132"/>
</g>
<!-- matter -->
<g id="node6" class="node">
<title>matter</title>
<ellipse fill="#b2dfee" stroke="#b2dfee" cx="138.3956" cy="-162" rx="33.5952" ry="18"/>
<text text-anchor="middle" x="138.3956" y="-158.3" font-family="Times,serif" font-size="14.00" fill="#000000">matter</text>
</g>
<!-- substance&#45;&gt;matter -->
<g id="edge5" class="edge">
<title>substance&#45;&gt;matter</title>
<path fill="none" stroke="#000000" d="M79.7457,-288.0535C91.3438,-263.1263 112.4197,-217.8289 125.8964,-188.8641"/>
<polygon fill="#000000" stroke="#000000" points="129.1055,-190.2635 130.1507,-179.7204 122.7588,-187.3105 129.1055,-190.2635"/>
</g>
<!-- part -->
<g id="node9" class="node">
<title>part</title>
<ellipse fill="#b2dfee" stroke="#b2dfee" cx="60.3956" cy="-234" rx="27" ry="18"/>
<text text-anchor="middle" x="60.3956" y="-230.3" font-family="Times,serif" font-size="14.00" fill="#000000">part</text>
</g>
<!-- substance&#45;&gt;part -->
<g id="edge8" class="edge">
<title>substance&#45;&gt;part</title>
<path fill="none" stroke="#000000" d="M68.6199,-287.8314C67.4253,-280.0125 66.0014,-270.6923 64.6768,-262.0221"/>
<polygon fill="#000000" stroke="#000000" points="68.1026,-261.2701 63.1324,-251.9134 61.1829,-262.3273 68.1026,-261.2701"/>
</g>
<!-- physical_entity -->
<g id="node7" class="node">
<title>physical_entity</title>
<ellipse fill="#b2dfee" stroke="#b2dfee" cx="181.3956" cy="-90" rx="64.189" ry="18"/>
<text text-anchor="middle" x="181.3956" y="-86.3" font-family="Times,serif" font-size="14.00" fill="#000000">physical_entity</text>
</g>
<!-- matter&#45;&gt;physical_entity -->
<g id="edge6" class="edge">
<title>matter&#45;&gt;physical_entity</title>
<path fill="none" stroke="#000000" d="M148.8047,-144.5708C153.8527,-136.1184 160.024,-125.7851 165.6331,-116.3931"/>
<polygon fill="#000000" stroke="#000000" points="168.6611,-118.1489 170.7836,-107.7689 162.6513,-114.5597 168.6611,-118.1489"/>
</g>
<!-- entity -->
<g id="node8" class="node">
<title>entity</title>
<ellipse fill="#b2dfee" stroke="#b2dfee" cx="115.3956" cy="-18" rx="30.5947" ry="18"/>
<text text-anchor="middle" x="115.3956" y="-14.3" font-family="Times,serif" font-size="14.00" fill="#000000">entity</text>
</g>
<!-- physical_entity&#45;&gt;entity -->
<g id="edge7" class="edge">
<title>physical_entity&#45;&gt;entity</title>
<path fill="none" stroke="#000000" d="M165.081,-72.2022C156.6472,-63.0017 146.2402,-51.6487 137.1335,-41.7141"/>
<polygon fill="#000000" stroke="#000000" points="139.5087,-39.1255 130.1713,-34.119 134.3486,-43.8556 139.5087,-39.1255"/>
</g>
<!-- relation -->
<g id="node10" class="node">
<title>relation</title>
<ellipse fill="#b2dfee" stroke="#b2dfee" cx="49.3956" cy="-162" rx="37.8943" ry="18"/>
<text text-anchor="middle" x="49.3956" y="-158.3" font-family="Times,serif" font-size="14.00" fill="#000000">relation</text>
</g>
<!-- part&#45;&gt;relation -->
<g id="edge9" class="edge">
<title>part&#45;&gt;relation</title>
<path fill="none" stroke="#000000" d="M57.6199,-215.8314C56.4434,-208.131 55.0445,-198.9743 53.737,-190.4166"/>
<polygon fill="#000000" stroke="#000000" points="57.1789,-189.7699 52.2088,-180.4133 50.2592,-190.8272 57.1789,-189.7699"/>
</g>
<!-- abstraction -->
<g id="node11" class="node">
<title>abstraction</title>
<ellipse fill="#b2dfee" stroke="#b2dfee" cx="49.3956" cy="-90" rx="49.2915" ry="18"/>
<text text-anchor="middle" x="49.3956" y="-86.3" font-family="Times,serif" font-size="14.00" fill="#000000">abstraction</text>
</g>
<!-- relation&#45;&gt;abstraction -->
<g id="edge10" class="edge">
<title>relation&#45;&gt;abstraction</title>
<path fill="none" stroke="#000000" d="M49.3956,-143.8314C49.3956,-136.131 49.3956,-126.9743 49.3956,-118.4166"/>
<polygon fill="#000000" stroke="#000000" points="52.8957,-118.4132 49.3956,-108.4133 45.8957,-118.4133 52.8957,-118.4132"/>
</g>
<!-- abstraction&#45;&gt;entity -->
<g id="edge11" class="edge">
<title>abstraction&#45;&gt;entity</title>
<path fill="none" stroke="#000000" d="M65.3724,-72.5708C73.8012,-63.3758 84.2704,-51.9548 93.4495,-41.9413"/>
<polygon fill="#000000" stroke="#000000" points="96.2935,-44.0183 100.4707,-34.2817 91.1334,-39.2882 96.2935,-44.0183"/>
</g>
<!-- covering -->
<g id="node13" class="node">
<title>covering</title>
<ellipse fill="#b2dfee" stroke="#b2dfee" cx="222.3956" cy="-378" rx="41.6928" ry="18"/>
<text text-anchor="middle" x="222.3956" y="-374.3" font-family="Times,serif" font-size="14.00" fill="#000000">covering</text>
</g>
<!-- body_covering&#45;&gt;covering -->
<g id="edge13" class="edge">
<title>body_covering&#45;&gt;covering</title>
<path fill="none" stroke="#000000" d="M222.3956,-431.8314C222.3956,-424.131 222.3956,-414.9743 222.3956,-406.4166"/>
<polygon fill="#000000" stroke="#000000" points="225.8957,-406.4132 222.3956,-396.4133 218.8957,-406.4133 225.8957,-406.4132"/>
</g>
<!-- natural_object -->
<g id="node14" class="node">
<title>natural_object</title>
<ellipse fill="#b2dfee" stroke="#b2dfee" cx="222.3956" cy="-306" rx="61.1893" ry="18"/>
<text text-anchor="middle" x="222.3956" y="-302.3" font-family="Times,serif" font-size="14.00" fill="#000000">natural_object</text>
</g>
<!-- covering&#45;&gt;natural_object -->
<g id="edge14" class="edge">
<title>covering&#45;&gt;natural_object</title>
<path fill="none" stroke="#000000" d="M222.3956,-359.8314C222.3956,-352.131 222.3956,-342.9743 222.3956,-334.4166"/>
<polygon fill="#000000" stroke="#000000" points="225.8957,-334.4132 222.3956,-324.4133 218.8957,-334.4133 225.8957,-334.4132"/>
</g>
<!-- whole -->
<g id="node15" class="node">
<title>whole</title>
<ellipse fill="#b2dfee" stroke="#b2dfee" cx="222.3956" cy="-234" rx="32.4942" ry="18"/>
<text text-anchor="middle" x="222.3956" y="-230.3" font-family="Times,serif" font-size="14.00" fill="#000000">whole</text>
</g>
<!-- natural_object&#45;&gt;whole -->
<g id="edge15" class="edge">
<title>natural_object&#45;&gt;whole</title>
<path fill="none" stroke="#000000" d="M222.3956,-287.8314C222.3956,-280.131 222.3956,-270.9743 222.3956,-262.4166"/>
<polygon fill="#000000" stroke="#000000" points="225.8957,-262.4132 222.3956,-252.4133 218.8957,-262.4133 225.8957,-262.4132"/>
</g>
<!-- object -->
<g id="node16" class="node">
<title>object</title>
<ellipse fill="#b2dfee" stroke="#b2dfee" cx="222.3956" cy="-162" rx="32.4942" ry="18"/>
<text text-anchor="middle" x="222.3956" y="-158.3" font-family="Times,serif" font-size="14.00" fill="#000000">object</text>
</g>
<!-- whole&#45;&gt;object -->
<g id="edge16" class="edge">
<title>whole&#45;&gt;object</title>
<path fill="none" stroke="#000000" d="M222.3956,-215.8314C222.3956,-208.131 222.3956,-198.9743 222.3956,-190.4166"/>
<polygon fill="#000000" stroke="#000000" points="225.8957,-190.4132 222.3956,-180.4133 218.8957,-190.4133 225.8957,-190.4132"/>
</g>
<!-- object&#45;&gt;physical_entity -->
<g id="edge17" class="edge">
<title>object&#45;&gt;physical_entity</title>
<path fill="none" stroke="#000000" d="M212.4707,-144.5708C207.7426,-136.2679 201.9812,-126.1502 196.7094,-116.8925"/>
<polygon fill="#000000" stroke="#000000" points="199.6472,-114.9785 191.6573,-108.0206 193.5643,-118.4424 199.6472,-114.9785"/>
</g>
</g>
</svg>
