<?xml version="1.0" encoding="UTF-8" standalone="no"?>
<!DOCTYPE svg PUBLIC "-//W3C//DTD SVG 1.1//EN"
 "http://www.w3.org/Graphics/SVG/1.1/DTD/svg11.dtd">
<!-- Generated by graphviz version 2.40.1 (20161225.0304)
 -->
<!-- Title: unix Pages: 1 -->
<svg width="144pt" height="432pt"
 viewBox="0.00 0.00 143.62 432.00" xmlns="http://www.w3.org/2000/svg" xmlns:xlink="http://www.w3.org/1999/xlink">
<g id="graph0" class="graph" transform="scale(.7883 .7883) rotate(0) translate(4 544)">
<title>unix</title>
<polygon fill="#ffffff" stroke="transparent" points="-4,4 -4,-544 178.1845,-544 178.1845,4 -4,4"/>
<!-- draw -->
<g id="node1" class="node">
<title>draw</title>
<ellipse fill="#b2dfee" stroke="#b2dfee" cx="87.0923" cy="-522" rx="28.6953" ry="18"/>
<text text-anchor="middle" x="87.0923" y="-518.3" font-family="Times,serif" font-size="14.00" fill="#000000">draw</text>
</g>
<!-- gully -->
<g id="node2" class="node">
<title>gully</title>
<ellipse fill="#b2dfee" stroke="#b2dfee" cx="87.0923" cy="-450" rx="28.6953" ry="18"/>
<text text-anchor="middle" x="87.0923" y="-446.3" font-family="Times,serif" font-size="14.00" fill="#000000">gully</text>
</g>
<!-- draw&#45;&gt;gully -->
<g id="edge1" class="edge">
<title>draw&#45;&gt;gully</title>
<path fill="none" stroke="#000000" d="M87.0923,-503.8314C87.0923,-496.131 87.0923,-486.9743 87.0923,-478.4166"/>
<polygon fill="#000000" stroke="#000000" points="90.5924,-478.4132 87.0923,-468.4133 83.5924,-478.4133 90.5924,-478.4132"/>
</g>
<!-- valley -->
<g id="node3" class="node">
<title>valley</title>
<ellipse fill="#b2dfee" stroke="#b2dfee" cx="87.0923" cy="-378" rx="32.4942" ry="18"/>
<text text-anchor="middle" x="87.0923" y="-374.3" font-family="Times,serif" font-size="14.00" fill="#000000">valley</text>
</g>
<!-- gully&#45;&gt;valley -->
<g id="edge2" class="edge">
<title>gully&#45;&gt;valley</title>
<path fill="none" stroke="#000000" d="M87.0923,-431.8314C87.0923,-424.131 87.0923,-414.9743 87.0923,-406.4166"/>
<polygon fill="#000000" stroke="#000000" points="90.5924,-406.4132 87.0923,-396.4133 83.5924,-406.4133 90.5924,-406.4132"/>
</g>
<!-- natural_depression -->
<g id="node4" class="node">
<title>natural_depression</title>
<ellipse fill="#b2dfee" stroke="#b2dfee" cx="87.0923" cy="-306" rx="77.1866" ry="18"/>
<text text-anchor="middle" x="87.0923" y="-302.3" font-family="Times,serif" font-size="14.00" fill="#000000">natural_depression</text>
</g>
<!-- valley&#45;&gt;natural_depression -->
<g id="edge3" class="edge">
<title>valley&#45;&gt;natural_depression</title>
<path fill="none" stroke="#000000" d="M87.0923,-359.8314C87.0923,-352.131 87.0923,-342.9743 87.0923,-334.4166"/>
<polygon fill="#000000" stroke="#000000" points="90.5924,-334.4132 87.0923,-324.4133 83.5924,-334.4133 90.5924,-334.4132"/>
</g>
<!-- geological_formation -->
<g id="node5" class="node">
<title>geological_formation</title>
<ellipse fill="#b2dfee" stroke="#b2dfee" cx="87.0923" cy="-234" rx="87.1846" ry="18"/>
<text text-anchor="middle" x="87.0923" y="-230.3" font-family="Times,serif" font-size="14.00" fill="#000000">geological_formation</text>
</g>
<!-- natural_depression&#45;&gt;geological_formation -->
<g id="edge4" class="edge">
<title>natural_depression&#45;&gt;geological_formation</title>
<path fill="none" stroke="#000000" d="M87.0923,-287.8314C87.0923,-280.131 87.0923,-270.9743 87.0923,-262.4166"/>
<polygon fill="#000000" stroke="#000000" points="90.5924,-262.4132 87.0923,-252.4133 83.5924,-262.4133 90.5924,-262.4132"/>
</g>
<!-- object -->
<g id="node6" class="node">
<title>object</title>
<ellipse fill="#b2dfee" stroke="#b2dfee" cx="87.0923" cy="-162" rx="32.4942" ry="18"/>
<text text-anchor="middle" x="87.0923" y="-158.3" font-family="Times,serif" font-size="14.00" fill="#000000">object</text>
</g>
<!-- geological_formation&#45;&gt;object -->
<g id="edge5" class="edge">
<title>geological_formation&#45;&gt;object</title>
<path fill="none" stroke="#000000" d="M87.0923,-215.8314C87.0923,-208.131 87.0923,-198.9743 87.0923,-190.4166"/>
<polygon fill="#000000" stroke="#000000" points="90.5924,-190.4132 87.0923,-180.4133 83.5924,-190.4133 90.5924,-190.4132"/>
</g>
<!-- physical_entity -->
<g id="node7" class="node">
<title>physical_entity</title>
<ellipse fill="#b2dfee" stroke="#b2dfee" cx="87.0923" cy="-90" rx="64.189" ry="18"/>
<text text-anchor="middle" x="87.0923" y="-86.3" font-family="Times,serif" font-size="14.00" fill="#000000">physical_entity</text>
</g>
<!-- object&#45;&gt;physical_entity -->
<g id="edge6" class="edge">
<title>object&#45;&gt;physical_entity</title>
<path fill="none" stroke="#000000" d="M87.0923,-143.8314C87.0923,-136.131 87.0923,-126.9743 87.0923,-118.4166"/>
<polygon fill="#000000" stroke="#000000" points="90.5924,-118.4132 87.0923,-108.4133 83.5924,-118.4133 90.5924,-118.4132"/>
</g>
<!-- entity -->
<g id="node8" class="node">
<title>entity</title>
<ellipse fill="#b2dfee" stroke="#b2dfee" cx="87.0923" cy="-18" rx="30.5947" ry="18"/>
<text text-anchor="middle" x="87.0923" y="-14.3" font-family="Times,serif" font-size="14.00" fill="#000000">entity</text>
</g>
<!-- physical_entity&#45;&gt;entity -->
<g id="edge7" class="edge">
<title>physical_entity&#45;&gt;entity</title>
<path fill="none" stroke="#000000" d="M87.0923,-71.8314C87.0923,-64.131 87.0923,-54.9743 87.0923,-46.4166"/>
<polygon fill="#000000" stroke="#000000" points="90.5924,-46.4132 87.0923,-36.4133 83.5924,-46.4133 90.5924,-46.4132"/>
</g>
</g>
</svg>
