<?xml version="1.0" encoding="UTF-8" standalone="no"?>
<!DOCTYPE svg PUBLIC "-//W3C//DTD SVG 1.1//EN"
 "http://www.w3.org/Graphics/SVG/1.1/DTD/svg11.dtd">
<!-- Generated by graphviz version 2.40.1 (20161225.0304)
 -->
<!-- Title: unix Pages: 1 -->
<svg width="191pt" height="432pt"
 viewBox="0.00 0.00 191.30 432.00" xmlns="http://www.w3.org/2000/svg" xmlns:xlink="http://www.w3.org/1999/xlink">
<g id="graph0" class="graph" transform="scale(.9076 .9076) rotate(0) translate(4 472)">
<title>unix</title>
<polygon fill="#ffffff" stroke="transparent" points="-4,4 -4,-472 206.782,-472 206.782,4 -4,4"/>
<!-- drink -->
<g id="node1" class="node">
<title>drink</title>
<ellipse fill="#b2dfee" stroke="#b2dfee" cx="101.391" cy="-450" rx="29.4969" ry="18"/>
<text text-anchor="middle" x="101.391" y="-446.3" font-family="Times,serif" font-size="14.00" fill="#000000">drink</text>
</g>
<!-- helping -->
<g id="node2" class="node">
<title>helping</title>
<ellipse fill="#b2dfee" stroke="#b2dfee" cx="101.391" cy="-378" rx="37.0935" ry="18"/>
<text text-anchor="middle" x="101.391" y="-374.3" font-family="Times,serif" font-size="14.00" fill="#000000">helping</text>
</g>
<!-- drink&#45;&gt;helping -->
<g id="edge1" class="edge">
<title>drink&#45;&gt;helping</title>
<path fill="none" stroke="#000000" d="M101.391,-431.8314C101.391,-424.131 101.391,-414.9743 101.391,-406.4166"/>
<polygon fill="#000000" stroke="#000000" points="104.8911,-406.4132 101.391,-396.4133 97.8911,-406.4133 104.8911,-406.4132"/>
</g>
<!-- small_indefinite_quantity -->
<g id="node3" class="node">
<title>small_indefinite_quantity</title>
<ellipse fill="#b2dfee" stroke="#b2dfee" cx="101.391" cy="-306" rx="101.2821" ry="18"/>
<text text-anchor="middle" x="101.391" y="-302.3" font-family="Times,serif" font-size="14.00" fill="#000000">small_indefinite_quantity</text>
</g>
<!-- helping&#45;&gt;small_indefinite_quantity -->
<g id="edge2" class="edge">
<title>helping&#45;&gt;small_indefinite_quantity</title>
<path fill="none" stroke="#000000" d="M101.391,-359.8314C101.391,-352.131 101.391,-342.9743 101.391,-334.4166"/>
<polygon fill="#000000" stroke="#000000" points="104.8911,-334.4132 101.391,-324.4133 97.8911,-334.4133 104.8911,-334.4132"/>
</g>
<!-- indefinite_quantity -->
<g id="node4" class="node">
<title>indefinite_quantity</title>
<ellipse fill="#b2dfee" stroke="#b2dfee" cx="101.391" cy="-234" rx="77.1866" ry="18"/>
<text text-anchor="middle" x="101.391" y="-230.3" font-family="Times,serif" font-size="14.00" fill="#000000">indefinite_quantity</text>
</g>
<!-- small_indefinite_quantity&#45;&gt;indefinite_quantity -->
<g id="edge3" class="edge">
<title>small_indefinite_quantity&#45;&gt;indefinite_quantity</title>
<path fill="none" stroke="#000000" d="M101.391,-287.8314C101.391,-280.131 101.391,-270.9743 101.391,-262.4166"/>
<polygon fill="#000000" stroke="#000000" points="104.8911,-262.4132 101.391,-252.4133 97.8911,-262.4133 104.8911,-262.4132"/>
</g>
<!-- measure -->
<g id="node5" class="node">
<title>measure</title>
<ellipse fill="#b2dfee" stroke="#b2dfee" cx="101.391" cy="-162" rx="40.0939" ry="18"/>
<text text-anchor="middle" x="101.391" y="-158.3" font-family="Times,serif" font-size="14.00" fill="#000000">measure</text>
</g>
<!-- indefinite_quantity&#45;&gt;measure -->
<g id="edge4" class="edge">
<title>indefinite_quantity&#45;&gt;measure</title>
<path fill="none" stroke="#000000" d="M101.391,-215.8314C101.391,-208.131 101.391,-198.9743 101.391,-190.4166"/>
<polygon fill="#000000" stroke="#000000" points="104.8911,-190.4132 101.391,-180.4133 97.8911,-190.4133 104.8911,-190.4132"/>
</g>
<!-- abstraction -->
<g id="node6" class="node">
<title>abstraction</title>
<ellipse fill="#b2dfee" stroke="#b2dfee" cx="101.391" cy="-90" rx="49.2915" ry="18"/>
<text text-anchor="middle" x="101.391" y="-86.3" font-family="Times,serif" font-size="14.00" fill="#000000">abstraction</text>
</g>
<!-- measure&#45;&gt;abstraction -->
<g id="edge5" class="edge">
<title>measure&#45;&gt;abstraction</title>
<path fill="none" stroke="#000000" d="M101.391,-143.8314C101.391,-136.131 101.391,-126.9743 101.391,-118.4166"/>
<polygon fill="#000000" stroke="#000000" points="104.8911,-118.4132 101.391,-108.4133 97.8911,-118.4133 104.8911,-118.4132"/>
</g>
<!-- entity -->
<g id="node7" class="node">
<title>entity</title>
<ellipse fill="#b2dfee" stroke="#b2dfee" cx="101.391" cy="-18" rx="30.5947" ry="18"/>
<text text-anchor="middle" x="101.391" y="-14.3" font-family="Times,serif" font-size="14.00" fill="#000000">entity</text>
</g>
<!-- abstraction&#45;&gt;entity -->
<g id="edge6" class="edge">
<title>abstraction&#45;&gt;entity</title>
<path fill="none" stroke="#000000" d="M101.391,-71.8314C101.391,-64.131 101.391,-54.9743 101.391,-46.4166"/>
<polygon fill="#000000" stroke="#000000" points="104.8911,-46.4132 101.391,-36.4133 97.8911,-46.4133 104.8911,-46.4132"/>
</g>
</g>
</svg>
