<?xml version="1.0" encoding="UTF-8" standalone="no"?>
<!DOCTYPE svg PUBLIC "-//W3C//DTD SVG 1.1//EN"
 "http://www.w3.org/Graphics/SVG/1.1/DTD/svg11.dtd">
<!-- Generated by graphviz version 2.40.1 (20161225.0304)
 -->
<!-- Title: unix Pages: 1 -->
<svg width="63pt" height="432pt"
 viewBox="0.00 0.00 63.12 432.00" xmlns="http://www.w3.org/2000/svg" xmlns:xlink="http://www.w3.org/1999/xlink">
<g id="graph0" class="graph" transform="scale(.4408 .4408) rotate(0) translate(4 976)">
<title>unix</title>
<polygon fill="#ffffff" stroke="transparent" points="-4,4 -4,-976 139.188,-976 139.188,4 -4,4"/>
<!-- duck -->
<g id="node1" class="node">
<title>duck</title>
<ellipse fill="#b2dfee" stroke="#b2dfee" cx="67.594" cy="-954" rx="27.8951" ry="18"/>
<text text-anchor="middle" x="67.594" y="-950.3" font-family="Times,serif" font-size="14.00" fill="#000000">duck</text>
</g>
<!-- anseriform_bird -->
<g id="node2" class="node">
<title>anseriform_bird</title>
<ellipse fill="#b2dfee" stroke="#b2dfee" cx="67.594" cy="-882" rx="67.6881" ry="18"/>
<text text-anchor="middle" x="67.594" y="-878.3" font-family="Times,serif" font-size="14.00" fill="#000000">anseriform_bird</text>
</g>
<!-- duck&#45;&gt;anseriform_bird -->
<g id="edge1" class="edge">
<title>duck&#45;&gt;anseriform_bird</title>
<path fill="none" stroke="#000000" d="M67.594,-935.8314C67.594,-928.131 67.594,-918.9743 67.594,-910.4166"/>
<polygon fill="#000000" stroke="#000000" points="71.0941,-910.4132 67.594,-900.4133 64.0941,-910.4133 71.0941,-910.4132"/>
</g>
<!-- waterfowl -->
<g id="node3" class="node">
<title>waterfowl</title>
<ellipse fill="#b2dfee" stroke="#b2dfee" cx="67.594" cy="-810" rx="46.2923" ry="18"/>
<text text-anchor="middle" x="67.594" y="-806.3" font-family="Times,serif" font-size="14.00" fill="#000000">waterfowl</text>
</g>
<!-- anseriform_bird&#45;&gt;waterfowl -->
<g id="edge2" class="edge">
<title>anseriform_bird&#45;&gt;waterfowl</title>
<path fill="none" stroke="#000000" d="M67.594,-863.8314C67.594,-856.131 67.594,-846.9743 67.594,-838.4166"/>
<polygon fill="#000000" stroke="#000000" points="71.0941,-838.4132 67.594,-828.4133 64.0941,-838.4133 71.0941,-838.4132"/>
</g>
<!-- aquatic_bird -->
<g id="node4" class="node">
<title>aquatic_bird</title>
<ellipse fill="#b2dfee" stroke="#b2dfee" cx="67.594" cy="-738" rx="54.6905" ry="18"/>
<text text-anchor="middle" x="67.594" y="-734.3" font-family="Times,serif" font-size="14.00" fill="#000000">aquatic_bird</text>
</g>
<!-- waterfowl&#45;&gt;aquatic_bird -->
<g id="edge3" class="edge">
<title>waterfowl&#45;&gt;aquatic_bird</title>
<path fill="none" stroke="#000000" d="M67.594,-791.8314C67.594,-784.131 67.594,-774.9743 67.594,-766.4166"/>
<polygon fill="#000000" stroke="#000000" points="71.0941,-766.4132 67.594,-756.4133 64.0941,-766.4133 71.0941,-766.4132"/>
</g>
<!-- bird -->
<g id="node5" class="node">
<title>bird</title>
<ellipse fill="#b2dfee" stroke="#b2dfee" cx="67.594" cy="-666" rx="27" ry="18"/>
<text text-anchor="middle" x="67.594" y="-662.3" font-family="Times,serif" font-size="14.00" fill="#000000">bird</text>
</g>
<!-- aquatic_bird&#45;&gt;bird -->
<g id="edge4" class="edge">
<title>aquatic_bird&#45;&gt;bird</title>
<path fill="none" stroke="#000000" d="M67.594,-719.8314C67.594,-712.131 67.594,-702.9743 67.594,-694.4166"/>
<polygon fill="#000000" stroke="#000000" points="71.0941,-694.4132 67.594,-684.4133 64.0941,-694.4133 71.0941,-694.4132"/>
</g>
<!-- vertebrate -->
<g id="node6" class="node">
<title>vertebrate</title>
<ellipse fill="#b2dfee" stroke="#b2dfee" cx="67.594" cy="-594" rx="46.2923" ry="18"/>
<text text-anchor="middle" x="67.594" y="-590.3" font-family="Times,serif" font-size="14.00" fill="#000000">vertebrate</text>
</g>
<!-- bird&#45;&gt;vertebrate -->
<g id="edge5" class="edge">
<title>bird&#45;&gt;vertebrate</title>
<path fill="none" stroke="#000000" d="M67.594,-647.8314C67.594,-640.131 67.594,-630.9743 67.594,-622.4166"/>
<polygon fill="#000000" stroke="#000000" points="71.0941,-622.4132 67.594,-612.4133 64.0941,-622.4133 71.0941,-622.4132"/>
</g>
<!-- chordate -->
<g id="node7" class="node">
<title>chordate</title>
<ellipse fill="#b2dfee" stroke="#b2dfee" cx="67.594" cy="-522" rx="40.8928" ry="18"/>
<text text-anchor="middle" x="67.594" y="-518.3" font-family="Times,serif" font-size="14.00" fill="#000000">chordate</text>
</g>
<!-- vertebrate&#45;&gt;chordate -->
<g id="edge6" class="edge">
<title>vertebrate&#45;&gt;chordate</title>
<path fill="none" stroke="#000000" d="M67.594,-575.8314C67.594,-568.131 67.594,-558.9743 67.594,-550.4166"/>
<polygon fill="#000000" stroke="#000000" points="71.0941,-550.4132 67.594,-540.4133 64.0941,-550.4133 71.0941,-550.4132"/>
</g>
<!-- animal -->
<g id="node8" class="node">
<title>animal</title>
<ellipse fill="#b2dfee" stroke="#b2dfee" cx="67.594" cy="-450" rx="35.194" ry="18"/>
<text text-anchor="middle" x="67.594" y="-446.3" font-family="Times,serif" font-size="14.00" fill="#000000">animal</text>
</g>
<!-- chordate&#45;&gt;animal -->
<g id="edge7" class="edge">
<title>chordate&#45;&gt;animal</title>
<path fill="none" stroke="#000000" d="M67.594,-503.8314C67.594,-496.131 67.594,-486.9743 67.594,-478.4166"/>
<polygon fill="#000000" stroke="#000000" points="71.0941,-478.4132 67.594,-468.4133 64.0941,-478.4133 71.0941,-478.4132"/>
</g>
<!-- organism -->
<g id="node9" class="node">
<title>organism</title>
<ellipse fill="#b2dfee" stroke="#b2dfee" cx="67.594" cy="-378" rx="44.393" ry="18"/>
<text text-anchor="middle" x="67.594" y="-374.3" font-family="Times,serif" font-size="14.00" fill="#000000">organism</text>
</g>
<!-- animal&#45;&gt;organism -->
<g id="edge8" class="edge">
<title>animal&#45;&gt;organism</title>
<path fill="none" stroke="#000000" d="M67.594,-431.8314C67.594,-424.131 67.594,-414.9743 67.594,-406.4166"/>
<polygon fill="#000000" stroke="#000000" points="71.0941,-406.4132 67.594,-396.4133 64.0941,-406.4133 71.0941,-406.4132"/>
</g>
<!-- living_thing -->
<g id="node10" class="node">
<title>living_thing</title>
<ellipse fill="#b2dfee" stroke="#b2dfee" cx="67.594" cy="-306" rx="53.8905" ry="18"/>
<text text-anchor="middle" x="67.594" y="-302.3" font-family="Times,serif" font-size="14.00" fill="#000000">living_thing</text>
</g>
<!-- organism&#45;&gt;living_thing -->
<g id="edge9" class="edge">
<title>organism&#45;&gt;living_thing</title>
<path fill="none" stroke="#000000" d="M67.594,-359.8314C67.594,-352.131 67.594,-342.9743 67.594,-334.4166"/>
<polygon fill="#000000" stroke="#000000" points="71.0941,-334.4132 67.594,-324.4133 64.0941,-334.4133 71.0941,-334.4132"/>
</g>
<!-- whole -->
<g id="node11" class="node">
<title>whole</title>
<ellipse fill="#b2dfee" stroke="#b2dfee" cx="67.594" cy="-234" rx="32.4942" ry="18"/>
<text text-anchor="middle" x="67.594" y="-230.3" font-family="Times,serif" font-size="14.00" fill="#000000">whole</text>
</g>
<!-- living_thing&#45;&gt;whole -->
<g id="edge10" class="edge">
<title>living_thing&#45;&gt;whole</title>
<path fill="none" stroke="#000000" d="M67.594,-287.8314C67.594,-280.131 67.594,-270.9743 67.594,-262.4166"/>
<polygon fill="#000000" stroke="#000000" points="71.0941,-262.4132 67.594,-252.4133 64.0941,-262.4133 71.0941,-262.4132"/>
</g>
<!-- object -->
<g id="node12" class="node">
<title>object</title>
<ellipse fill="#b2dfee" stroke="#b2dfee" cx="67.594" cy="-162" rx="32.4942" ry="18"/>
<text text-anchor="middle" x="67.594" y="-158.3" font-family="Times,serif" font-size="14.00" fill="#000000">object</text>
</g>
<!-- whole&#45;&gt;object -->
<g id="edge11" class="edge">
<title>whole&#45;&gt;object</title>
<path fill="none" stroke="#000000" d="M67.594,-215.8314C67.594,-208.131 67.594,-198.9743 67.594,-190.4166"/>
<polygon fill="#000000" stroke="#000000" points="71.0941,-190.4132 67.594,-180.4133 64.0941,-190.4133 71.0941,-190.4132"/>
</g>
<!-- physical_entity -->
<g id="node13" class="node">
<title>physical_entity</title>
<ellipse fill="#b2dfee" stroke="#b2dfee" cx="67.594" cy="-90" rx="64.189" ry="18"/>
<text text-anchor="middle" x="67.594" y="-86.3" font-family="Times,serif" font-size="14.00" fill="#000000">physical_entity</text>
</g>
<!-- object&#45;&gt;physical_entity -->
<g id="edge12" class="edge">
<title>object&#45;&gt;physical_entity</title>
<path fill="none" stroke="#000000" d="M67.594,-143.8314C67.594,-136.131 67.594,-126.9743 67.594,-118.4166"/>
<polygon fill="#000000" stroke="#000000" points="71.0941,-118.4132 67.594,-108.4133 64.0941,-118.4133 71.0941,-118.4132"/>
</g>
<!-- entity -->
<g id="node14" class="node">
<title>entity</title>
<ellipse fill="#b2dfee" stroke="#b2dfee" cx="67.594" cy="-18" rx="30.5947" ry="18"/>
<text text-anchor="middle" x="67.594" y="-14.3" font-family="Times,serif" font-size="14.00" fill="#000000">entity</text>
</g>
<!-- physical_entity&#45;&gt;entity -->
<g id="edge13" class="edge">
<title>physical_entity&#45;&gt;entity</title>
<path fill="none" stroke="#000000" d="M67.594,-71.8314C67.594,-64.131 67.594,-54.9743 67.594,-46.4166"/>
<polygon fill="#000000" stroke="#000000" points="71.0941,-46.4132 67.594,-36.4133 64.0941,-46.4133 71.0941,-46.4132"/>
</g>
</g>
</svg>
