<?xml version="1.0" encoding="UTF-8" standalone="no"?>
<!DOCTYPE svg PUBLIC "-//W3C//DTD SVG 1.1//EN"
 "http://www.w3.org/Graphics/SVG/1.1/DTD/svg11.dtd">
<!-- Generated by graphviz version 2.40.1 (20161225.0304)
 -->
<!-- Title: unix Pages: 1 -->
<svg width="95pt" height="116pt"
 viewBox="0.00 0.00 95.25 116.00" xmlns="http://www.w3.org/2000/svg" xmlns:xlink="http://www.w3.org/1999/xlink">
<g id="graph0" class="graph" transform="scale(1 1) rotate(0) translate(4 112)">
<title>unix</title>
<polygon fill="#ffffff" stroke="transparent" points="-4,4 -4,-112 91.2463,-112 91.2463,4 -4,4"/>
<!-- eat -->
<g id="node1" class="node">
<title>eat</title>
<ellipse fill="#b2dfee" stroke="#b2dfee" cx="42.2463" cy="-90" rx="27" ry="18"/>
<text text-anchor="middle" x="42.2463" y="-86.3" font-family="Times,serif" font-size="14.00" fill="#000000">eat</text>
</g>
<!-- eat&#45;&gt;eat -->
<g id="edge2" class="edge">
<title>eat&#45;&gt;eat</title>
<path fill="none" stroke="#000000" d="M62.1413,-102.4321C74.9342,-105.6753 87.2463,-101.5313 87.2463,-90 87.2463,-81.6218 80.7468,-77.1433 72.2858,-76.5644"/>
<polygon fill="#000000" stroke="#000000" points="71.7482,-73.1004 62.1413,-77.5679 72.4373,-80.0665 71.7482,-73.1004"/>
</g>
<!-- consume -->
<g id="node2" class="node">
<title>consume</title>
<ellipse fill="#b2dfee" stroke="#b2dfee" cx="42.2463" cy="-18" rx="42.4939" ry="18"/>
<text text-anchor="middle" x="42.2463" y="-14.3" font-family="Times,serif" font-size="14.00" fill="#000000">consume</text>
</g>
<!-- eat&#45;&gt;consume -->
<g id="edge1" class="edge">
<title>eat&#45;&gt;consume</title>
<path fill="none" stroke="#000000" d="M36.3305,-72.2022C35.5408,-64.3271 35.3117,-54.875 35.6434,-46.0852"/>
<polygon fill="#000000" stroke="#000000" points="39.1532,-46.0532 36.326,-35.8425 32.1687,-45.5876 39.1532,-46.0532"/>
</g>
<!-- eat&#45;&gt;consume -->
<g id="edge3" class="edge">
<title>eat&#45;&gt;consume</title>
<path fill="none" stroke="#000000" d="M48.162,-72.2022C48.9517,-64.3271 49.1808,-54.875 48.8491,-46.0852"/>
<polygon fill="#000000" stroke="#000000" points="52.3238,-45.5876 48.1665,-35.8425 45.3393,-46.0532 52.3238,-45.5876"/>
</g>
</g>
</svg>
