<?xml version="1.0" encoding="UTF-8" standalone="no"?>
<!DOCTYPE svg PUBLIC "-//W3C//DTD SVG 1.1//EN"
 "http://www.w3.org/Graphics/SVG/1.1/DTD/svg11.dtd">
<!-- Generated by graphviz version 2.40.1 (20161225.0304)
 -->
<!-- Title: unix Pages: 1 -->
<svg width="130pt" height="432pt"
 viewBox="0.00 0.00 129.95 432.00" xmlns="http://www.w3.org/2000/svg" xmlns:xlink="http://www.w3.org/1999/xlink">
<g id="graph0" class="graph" transform="scale(.9076 .9076) rotate(0) translate(4 472)">
<title>unix</title>
<polygon fill="#ffffff" stroke="transparent" points="-4,4 -4,-472 139.188,-472 139.188,4 -4,4"/>
<!-- eating -->
<g id="node1" class="node">
<title>eating</title>
<ellipse fill="#b2dfee" stroke="#b2dfee" cx="67.594" cy="-450" rx="32.4942" ry="18"/>
<text text-anchor="middle" x="67.594" y="-446.3" font-family="Times,serif" font-size="14.00" fill="#000000">eating</text>
</g>
<!-- consumption -->
<g id="node2" class="node">
<title>consumption</title>
<ellipse fill="#b2dfee" stroke="#b2dfee" cx="67.594" cy="-378" rx="56.59" ry="18"/>
<text text-anchor="middle" x="67.594" y="-374.3" font-family="Times,serif" font-size="14.00" fill="#000000">consumption</text>
</g>
<!-- eating&#45;&gt;consumption -->
<g id="edge1" class="edge">
<title>eating&#45;&gt;consumption</title>
<path fill="none" stroke="#000000" d="M67.594,-431.8314C67.594,-424.131 67.594,-414.9743 67.594,-406.4166"/>
<polygon fill="#000000" stroke="#000000" points="71.0941,-406.4132 67.594,-396.4133 64.0941,-406.4133 71.0941,-406.4132"/>
</g>
<!-- bodily_process -->
<g id="node3" class="node">
<title>bodily_process</title>
<ellipse fill="#b2dfee" stroke="#b2dfee" cx="67.594" cy="-306" rx="63.8893" ry="18"/>
<text text-anchor="middle" x="67.594" y="-302.3" font-family="Times,serif" font-size="14.00" fill="#000000">bodily_process</text>
</g>
<!-- consumption&#45;&gt;bodily_process -->
<g id="edge2" class="edge">
<title>consumption&#45;&gt;bodily_process</title>
<path fill="none" stroke="#000000" d="M67.594,-359.8314C67.594,-352.131 67.594,-342.9743 67.594,-334.4166"/>
<polygon fill="#000000" stroke="#000000" points="71.0941,-334.4132 67.594,-324.4133 64.0941,-334.4133 71.0941,-334.4132"/>
</g>
<!-- organic_process -->
<g id="node4" class="node">
<title>organic_process</title>
<ellipse fill="#b2dfee" stroke="#b2dfee" cx="67.594" cy="-234" rx="67.6881" ry="18"/>
<text text-anchor="middle" x="67.594" y="-230.3" font-family="Times,serif" font-size="14.00" fill="#000000">organic_process</text>
</g>
<!-- bodily_process&#45;&gt;organic_process -->
<g id="edge3" class="edge">
<title>bodily_process&#45;&gt;organic_process</title>
<path fill="none" stroke="#000000" d="M67.594,-287.8314C67.594,-280.131 67.594,-270.9743 67.594,-262.4166"/>
<polygon fill="#000000" stroke="#000000" points="71.0941,-262.4132 67.594,-252.4133 64.0941,-262.4133 71.0941,-262.4132"/>
</g>
<!-- process -->
<g id="node5" class="node">
<title>process</title>
<ellipse fill="#b2dfee" stroke="#b2dfee" cx="67.594" cy="-162" rx="37.0935" ry="18"/>
<text text-anchor="middle" x="67.594" y="-158.3" font-family="Times,serif" font-size="14.00" fill="#000000">process</text>
</g>
<!-- organic_process&#45;&gt;process -->
<g id="edge4" class="edge">
<title>organic_process&#45;&gt;process</title>
<path fill="none" stroke="#000000" d="M67.594,-215.8314C67.594,-208.131 67.594,-198.9743 67.594,-190.4166"/>
<polygon fill="#000000" stroke="#000000" points="71.0941,-190.4132 67.594,-180.4133 64.0941,-190.4133 71.0941,-190.4132"/>
</g>
<!-- physical_entity -->
<g id="node6" class="node">
<title>physical_entity</title>
<ellipse fill="#b2dfee" stroke="#b2dfee" cx="67.594" cy="-90" rx="64.189" ry="18"/>
<text text-anchor="middle" x="67.594" y="-86.3" font-family="Times,serif" font-size="14.00" fill="#000000">physical_entity</text>
</g>
<!-- process&#45;&gt;physical_entity -->
<g id="edge5" class="edge">
<title>process&#45;&gt;physical_entity</title>
<path fill="none" stroke="#000000" d="M67.594,-143.8314C67.594,-136.131 67.594,-126.9743 67.594,-118.4166"/>
<polygon fill="#000000" stroke="#000000" points="71.0941,-118.4132 67.594,-108.4133 64.0941,-118.4133 71.0941,-118.4132"/>
</g>
<!-- entity -->
<g id="node7" class="node">
<title>entity</title>
<ellipse fill="#b2dfee" stroke="#b2dfee" cx="67.594" cy="-18" rx="30.5947" ry="18"/>
<text text-anchor="middle" x="67.594" y="-14.3" font-family="Times,serif" font-size="14.00" fill="#000000">entity</text>
</g>
<!-- physical_entity&#45;&gt;entity -->
<g id="edge6" class="edge">
<title>physical_entity&#45;&gt;entity</title>
<path fill="none" stroke="#000000" d="M67.594,-71.8314C67.594,-64.131 67.594,-54.9743 67.594,-46.4166"/>
<polygon fill="#000000" stroke="#000000" points="71.0941,-46.4132 67.594,-36.4133 64.0941,-46.4133 71.0941,-46.4132"/>
</g>
</g>
</svg>
