<?xml version="1.0" encoding="UTF-8" standalone="no"?>
<!DOCTYPE svg PUBLIC "-//W3C//DTD SVG 1.1//EN"
 "http://www.w3.org/Graphics/SVG/1.1/DTD/svg11.dtd">
<!-- Generated by graphviz version 2.40.1 (20161225.0304)
 -->
<!-- Title: unix Pages: 1 -->
<svg width="95pt" height="432pt"
 viewBox="0.00 0.00 95.07 432.00" xmlns="http://www.w3.org/2000/svg" xmlns:xlink="http://www.w3.org/1999/xlink">
<g id="graph0" class="graph" transform="scale(.6243 .6243) rotate(0) translate(4 688)">
<title>unix</title>
<polygon fill="#ffffff" stroke="transparent" points="-4,4 -4,-688 148.2872,-688 148.2872,4 -4,4"/>
<!-- egg -->
<g id="node1" class="node">
<title>egg</title>
<ellipse fill="#b2dfee" stroke="#b2dfee" cx="72.1436" cy="-666" rx="27" ry="18"/>
<text text-anchor="middle" x="72.1436" y="-662.3" font-family="Times,serif" font-size="14.00" fill="#000000">egg</text>
</g>
<!-- ovum -->
<g id="node2" class="node">
<title>ovum</title>
<ellipse fill="#b2dfee" stroke="#b2dfee" cx="72.1436" cy="-594" rx="31.3957" ry="18"/>
<text text-anchor="middle" x="72.1436" y="-590.3" font-family="Times,serif" font-size="14.00" fill="#000000">ovum</text>
</g>
<!-- egg&#45;&gt;ovum -->
<g id="edge1" class="edge">
<title>egg&#45;&gt;ovum</title>
<path fill="none" stroke="#000000" d="M72.1436,-647.8314C72.1436,-640.131 72.1436,-630.9743 72.1436,-622.4166"/>
<polygon fill="#000000" stroke="#000000" points="75.6437,-622.4132 72.1436,-612.4133 68.6437,-622.4133 75.6437,-622.4132"/>
</g>
<!-- gamete -->
<g id="node3" class="node">
<title>gamete</title>
<ellipse fill="#b2dfee" stroke="#b2dfee" cx="72.1436" cy="-522" rx="36.2938" ry="18"/>
<text text-anchor="middle" x="72.1436" y="-518.3" font-family="Times,serif" font-size="14.00" fill="#000000">gamete</text>
</g>
<!-- ovum&#45;&gt;gamete -->
<g id="edge2" class="edge">
<title>ovum&#45;&gt;gamete</title>
<path fill="none" stroke="#000000" d="M72.1436,-575.8314C72.1436,-568.131 72.1436,-558.9743 72.1436,-550.4166"/>
<polygon fill="#000000" stroke="#000000" points="75.6437,-550.4132 72.1436,-540.4133 68.6437,-550.4133 75.6437,-550.4132"/>
</g>
<!-- reproductive_cell -->
<g id="node4" class="node">
<title>reproductive_cell</title>
<ellipse fill="#b2dfee" stroke="#b2dfee" cx="72.1436" cy="-450" rx="72.2875" ry="18"/>
<text text-anchor="middle" x="72.1436" y="-446.3" font-family="Times,serif" font-size="14.00" fill="#000000">reproductive_cell</text>
</g>
<!-- gamete&#45;&gt;reproductive_cell -->
<g id="edge3" class="edge">
<title>gamete&#45;&gt;reproductive_cell</title>
<path fill="none" stroke="#000000" d="M72.1436,-503.8314C72.1436,-496.131 72.1436,-486.9743 72.1436,-478.4166"/>
<polygon fill="#000000" stroke="#000000" points="75.6437,-478.4132 72.1436,-468.4133 68.6437,-478.4133 75.6437,-478.4132"/>
</g>
<!-- cell -->
<g id="node5" class="node">
<title>cell</title>
<ellipse fill="#b2dfee" stroke="#b2dfee" cx="72.1436" cy="-378" rx="27" ry="18"/>
<text text-anchor="middle" x="72.1436" y="-374.3" font-family="Times,serif" font-size="14.00" fill="#000000">cell</text>
</g>
<!-- reproductive_cell&#45;&gt;cell -->
<g id="edge4" class="edge">
<title>reproductive_cell&#45;&gt;cell</title>
<path fill="none" stroke="#000000" d="M72.1436,-431.8314C72.1436,-424.131 72.1436,-414.9743 72.1436,-406.4166"/>
<polygon fill="#000000" stroke="#000000" points="75.6437,-406.4132 72.1436,-396.4133 68.6437,-406.4133 75.6437,-406.4132"/>
</g>
<!-- living_thing -->
<g id="node6" class="node">
<title>living_thing</title>
<ellipse fill="#b2dfee" stroke="#b2dfee" cx="72.1436" cy="-306" rx="53.8905" ry="18"/>
<text text-anchor="middle" x="72.1436" y="-302.3" font-family="Times,serif" font-size="14.00" fill="#000000">living_thing</text>
</g>
<!-- cell&#45;&gt;living_thing -->
<g id="edge5" class="edge">
<title>cell&#45;&gt;living_thing</title>
<path fill="none" stroke="#000000" d="M72.1436,-359.8314C72.1436,-352.131 72.1436,-342.9743 72.1436,-334.4166"/>
<polygon fill="#000000" stroke="#000000" points="75.6437,-334.4132 72.1436,-324.4133 68.6437,-334.4133 75.6437,-334.4132"/>
</g>
<!-- whole -->
<g id="node7" class="node">
<title>whole</title>
<ellipse fill="#b2dfee" stroke="#b2dfee" cx="72.1436" cy="-234" rx="32.4942" ry="18"/>
<text text-anchor="middle" x="72.1436" y="-230.3" font-family="Times,serif" font-size="14.00" fill="#000000">whole</text>
</g>
<!-- living_thing&#45;&gt;whole -->
<g id="edge6" class="edge">
<title>living_thing&#45;&gt;whole</title>
<path fill="none" stroke="#000000" d="M72.1436,-287.8314C72.1436,-280.131 72.1436,-270.9743 72.1436,-262.4166"/>
<polygon fill="#000000" stroke="#000000" points="75.6437,-262.4132 72.1436,-252.4133 68.6437,-262.4133 75.6437,-262.4132"/>
</g>
<!-- object -->
<g id="node8" class="node">
<title>object</title>
<ellipse fill="#b2dfee" stroke="#b2dfee" cx="72.1436" cy="-162" rx="32.4942" ry="18"/>
<text text-anchor="middle" x="72.1436" y="-158.3" font-family="Times,serif" font-size="14.00" fill="#000000">object</text>
</g>
<!-- whole&#45;&gt;object -->
<g id="edge7" class="edge">
<title>whole&#45;&gt;object</title>
<path fill="none" stroke="#000000" d="M72.1436,-215.8314C72.1436,-208.131 72.1436,-198.9743 72.1436,-190.4166"/>
<polygon fill="#000000" stroke="#000000" points="75.6437,-190.4132 72.1436,-180.4133 68.6437,-190.4133 75.6437,-190.4132"/>
</g>
<!-- physical_entity -->
<g id="node9" class="node">
<title>physical_entity</title>
<ellipse fill="#b2dfee" stroke="#b2dfee" cx="72.1436" cy="-90" rx="64.189" ry="18"/>
<text text-anchor="middle" x="72.1436" y="-86.3" font-family="Times,serif" font-size="14.00" fill="#000000">physical_entity</text>
</g>
<!-- object&#45;&gt;physical_entity -->
<g id="edge8" class="edge">
<title>object&#45;&gt;physical_entity</title>
<path fill="none" stroke="#000000" d="M72.1436,-143.8314C72.1436,-136.131 72.1436,-126.9743 72.1436,-118.4166"/>
<polygon fill="#000000" stroke="#000000" points="75.6437,-118.4132 72.1436,-108.4133 68.6437,-118.4133 75.6437,-118.4132"/>
</g>
<!-- entity -->
<g id="node10" class="node">
<title>entity</title>
<ellipse fill="#b2dfee" stroke="#b2dfee" cx="72.1436" cy="-18" rx="30.5947" ry="18"/>
<text text-anchor="middle" x="72.1436" y="-14.3" font-family="Times,serif" font-size="14.00" fill="#000000">entity</text>
</g>
<!-- physical_entity&#45;&gt;entity -->
<g id="edge9" class="edge">
<title>physical_entity&#45;&gt;entity</title>
<path fill="none" stroke="#000000" d="M72.1436,-71.8314C72.1436,-64.131 72.1436,-54.9743 72.1436,-46.4166"/>
<polygon fill="#000000" stroke="#000000" points="75.6437,-46.4132 72.1436,-36.4133 68.6437,-46.4133 75.6437,-46.4132"/>
</g>
</g>
</svg>
