<?xml version="1.0" encoding="UTF-8" standalone="no"?>
<!DOCTYPE svg PUBLIC "-//W3C//DTD SVG 1.1//EN"
 "http://www.w3.org/Graphics/SVG/1.1/DTD/svg11.dtd">
<!-- Generated by graphviz version 2.40.1 (20161225.0304)
 -->
<!-- Title: unix Pages: 1 -->
<svg width="116pt" height="432pt"
 viewBox="0.00 0.00 116.07 432.00" xmlns="http://www.w3.org/2000/svg" xmlns:xlink="http://www.w3.org/1999/xlink">
<g id="graph0" class="graph" transform="scale(.6968 .6968) rotate(0) translate(4 616)">
<title>unix</title>
<polygon fill="#ffffff" stroke="transparent" points="-4,4 -4,-616 162.5859,-616 162.5859,4 -4,4"/>
<!-- finger -->
<g id="node1" class="node">
<title>finger</title>
<ellipse fill="#b2dfee" stroke="#b2dfee" cx="79.293" cy="-594" rx="31.6951" ry="18"/>
<text text-anchor="middle" x="79.293" y="-590.3" font-family="Times,serif" font-size="14.00" fill="#000000">finger</text>
</g>
<!-- digit -->
<g id="node2" class="node">
<title>digit</title>
<ellipse fill="#b2dfee" stroke="#b2dfee" cx="52.293" cy="-522" rx="27" ry="18"/>
<text text-anchor="middle" x="52.293" y="-518.3" font-family="Times,serif" font-size="14.00" fill="#000000">digit</text>
</g>
<!-- finger&#45;&gt;digit -->
<g id="edge1" class="edge">
<title>finger&#45;&gt;digit</title>
<path fill="none" stroke="#000000" d="M72.6188,-576.2022C69.5454,-568.0064 65.8314,-558.1024 62.4234,-549.0145"/>
<polygon fill="#000000" stroke="#000000" points="65.6788,-547.7274 58.8904,-539.593 59.1245,-550.1853 65.6788,-547.7274"/>
</g>
<!-- extremity -->
<g id="node3" class="node">
<title>extremity</title>
<ellipse fill="#b2dfee" stroke="#b2dfee" cx="79.293" cy="-450" rx="44.6926" ry="18"/>
<text text-anchor="middle" x="79.293" y="-446.3" font-family="Times,serif" font-size="14.00" fill="#000000">extremity</text>
</g>
<!-- finger&#45;&gt;extremity -->
<g id="edge9" class="edge">
<title>finger&#45;&gt;extremity</title>
<path fill="none" stroke="#000000" d="M83.0404,-576.0931C85.0395,-565.6241 87.2895,-552.1241 88.293,-540 89.6127,-524.0545 89.6127,-519.9455 88.293,-504 87.5985,-495.6085 86.3068,-486.5578 84.9144,-478.3092"/>
<polygon fill="#000000" stroke="#000000" points="88.3473,-477.6235 83.1343,-468.3999 81.4576,-478.8612 88.3473,-477.6235"/>
</g>
<!-- digit&#45;&gt;extremity -->
<g id="edge2" class="edge">
<title>digit&#45;&gt;extremity</title>
<path fill="none" stroke="#000000" d="M58.9671,-504.2022C62.0176,-496.0675 65.6992,-486.2501 69.0862,-477.2181"/>
<polygon fill="#000000" stroke="#000000" points="72.3679,-478.4348 72.602,-467.8425 65.8136,-475.9769 72.3679,-478.4348"/>
</g>
<!-- external_body_part -->
<g id="node4" class="node">
<title>external_body_part</title>
<ellipse fill="#b2dfee" stroke="#b2dfee" cx="79.293" cy="-378" rx="79.0865" ry="18"/>
<text text-anchor="middle" x="79.293" y="-374.3" font-family="Times,serif" font-size="14.00" fill="#000000">external_body_part</text>
</g>
<!-- extremity&#45;&gt;external_body_part -->
<g id="edge3" class="edge">
<title>extremity&#45;&gt;external_body_part</title>
<path fill="none" stroke="#000000" d="M73.3406,-431.8314C72.5901,-424.131 72.3692,-414.9743 72.6779,-406.4166"/>
<polygon fill="#000000" stroke="#000000" points="76.1722,-406.6161 73.317,-396.4133 69.1864,-406.1697 76.1722,-406.6161"/>
</g>
<!-- extremity&#45;&gt;external_body_part -->
<g id="edge10" class="edge">
<title>extremity&#45;&gt;external_body_part</title>
<path fill="none" stroke="#000000" d="M85.2454,-431.8314C85.9958,-424.131 86.2167,-414.9743 85.9081,-406.4166"/>
<polygon fill="#000000" stroke="#000000" points="89.3995,-406.1697 85.269,-396.4133 82.4138,-406.6161 89.3995,-406.1697"/>
</g>
<!-- body_part -->
<g id="node5" class="node">
<title>body_part</title>
<ellipse fill="#b2dfee" stroke="#b2dfee" cx="79.293" cy="-306" rx="46.2923" ry="18"/>
<text text-anchor="middle" x="79.293" y="-302.3" font-family="Times,serif" font-size="14.00" fill="#000000">body_part</text>
</g>
<!-- external_body_part&#45;&gt;body_part -->
<g id="edge4" class="edge">
<title>external_body_part&#45;&gt;body_part</title>
<path fill="none" stroke="#000000" d="M79.293,-359.8314C79.293,-352.131 79.293,-342.9743 79.293,-334.4166"/>
<polygon fill="#000000" stroke="#000000" points="82.7931,-334.4132 79.293,-324.4133 75.7931,-334.4133 82.7931,-334.4132"/>
</g>
<!-- part -->
<g id="node6" class="node">
<title>part</title>
<ellipse fill="#b2dfee" stroke="#b2dfee" cx="79.293" cy="-234" rx="27" ry="18"/>
<text text-anchor="middle" x="79.293" y="-230.3" font-family="Times,serif" font-size="14.00" fill="#000000">part</text>
</g>
<!-- body_part&#45;&gt;part -->
<g id="edge5" class="edge">
<title>body_part&#45;&gt;part</title>
<path fill="none" stroke="#000000" d="M79.293,-287.8314C79.293,-280.131 79.293,-270.9743 79.293,-262.4166"/>
<polygon fill="#000000" stroke="#000000" points="82.7931,-262.4132 79.293,-252.4133 75.7931,-262.4133 82.7931,-262.4132"/>
</g>
<!-- thing -->
<g id="node7" class="node">
<title>thing</title>
<ellipse fill="#b2dfee" stroke="#b2dfee" cx="79.293" cy="-162" rx="28.6953" ry="18"/>
<text text-anchor="middle" x="79.293" y="-158.3" font-family="Times,serif" font-size="14.00" fill="#000000">thing</text>
</g>
<!-- part&#45;&gt;thing -->
<g id="edge6" class="edge">
<title>part&#45;&gt;thing</title>
<path fill="none" stroke="#000000" d="M79.293,-215.8314C79.293,-208.131 79.293,-198.9743 79.293,-190.4166"/>
<polygon fill="#000000" stroke="#000000" points="82.7931,-190.4132 79.293,-180.4133 75.7931,-190.4133 82.7931,-190.4132"/>
</g>
<!-- physical_entity -->
<g id="node8" class="node">
<title>physical_entity</title>
<ellipse fill="#b2dfee" stroke="#b2dfee" cx="79.293" cy="-90" rx="64.189" ry="18"/>
<text text-anchor="middle" x="79.293" y="-86.3" font-family="Times,serif" font-size="14.00" fill="#000000">physical_entity</text>
</g>
<!-- thing&#45;&gt;physical_entity -->
<g id="edge7" class="edge">
<title>thing&#45;&gt;physical_entity</title>
<path fill="none" stroke="#000000" d="M79.293,-143.8314C79.293,-136.131 79.293,-126.9743 79.293,-118.4166"/>
<polygon fill="#000000" stroke="#000000" points="82.7931,-118.4132 79.293,-108.4133 75.7931,-118.4133 82.7931,-118.4132"/>
</g>
<!-- entity -->
<g id="node9" class="node">
<title>entity</title>
<ellipse fill="#b2dfee" stroke="#b2dfee" cx="79.293" cy="-18" rx="30.5947" ry="18"/>
<text text-anchor="middle" x="79.293" y="-14.3" font-family="Times,serif" font-size="14.00" fill="#000000">entity</text>
</g>
<!-- physical_entity&#45;&gt;entity -->
<g id="edge8" class="edge">
<title>physical_entity&#45;&gt;entity</title>
<path fill="none" stroke="#000000" d="M79.293,-71.8314C79.293,-64.131 79.293,-54.9743 79.293,-46.4166"/>
<polygon fill="#000000" stroke="#000000" points="82.7931,-46.4132 79.293,-36.4133 75.7931,-46.4133 82.7931,-46.4132"/>
</g>
</g>
</svg>
