<?xml version="1.0" encoding="UTF-8" standalone="no"?>
<!DOCTYPE svg PUBLIC "-//W3C//DTD SVG 1.1//EN"
 "http://www.w3.org/Graphics/SVG/1.1/DTD/svg11.dtd">
<!-- Generated by graphviz version 2.40.1 (20161225.0304)
 -->
<!-- Title: unix Pages: 1 -->
<svg width="121pt" height="432pt"
 viewBox="0.00 0.00 120.51 432.00" xmlns="http://www.w3.org/2000/svg" xmlns:xlink="http://www.w3.org/1999/xlink">
<g id="graph0" class="graph" transform="scale(.9076 .9076) rotate(0) translate(4 472)">
<title>unix</title>
<polygon fill="#ffffff" stroke="transparent" points="-4,4 -4,-472 128.7889,-472 128.7889,4 -4,4"/>
<!-- coating -->
<g id="node1" class="node">
<title>coating</title>
<ellipse fill="#b2dfee" stroke="#b2dfee" cx="62.3945" cy="-450" rx="36.2938" ry="18"/>
<text text-anchor="middle" x="62.3945" y="-446.3" font-family="Times,serif" font-size="14.00" fill="#000000">coating</text>
</g>
<!-- decorativeness -->
<g id="node2" class="node">
<title>decorativeness</title>
<ellipse fill="#b2dfee" stroke="#b2dfee" cx="62.3945" cy="-378" rx="62.2891" ry="18"/>
<text text-anchor="middle" x="62.3945" y="-374.3" font-family="Times,serif" font-size="14.00" fill="#000000">decorativeness</text>
</g>
<!-- coating&#45;&gt;decorativeness -->
<g id="edge1" class="edge">
<title>coating&#45;&gt;decorativeness</title>
<path fill="none" stroke="#000000" d="M62.3945,-431.8314C62.3945,-424.131 62.3945,-414.9743 62.3945,-406.4166"/>
<polygon fill="#000000" stroke="#000000" points="65.8946,-406.4132 62.3945,-396.4133 58.8946,-406.4133 65.8946,-406.4132"/>
</g>
<!-- appearance -->
<g id="node3" class="node">
<title>appearance</title>
<ellipse fill="#b2dfee" stroke="#b2dfee" cx="62.3945" cy="-306" rx="50.0912" ry="18"/>
<text text-anchor="middle" x="62.3945" y="-302.3" font-family="Times,serif" font-size="14.00" fill="#000000">appearance</text>
</g>
<!-- decorativeness&#45;&gt;appearance -->
<g id="edge2" class="edge">
<title>decorativeness&#45;&gt;appearance</title>
<path fill="none" stroke="#000000" d="M62.3945,-359.8314C62.3945,-352.131 62.3945,-342.9743 62.3945,-334.4166"/>
<polygon fill="#000000" stroke="#000000" points="65.8946,-334.4132 62.3945,-324.4133 58.8946,-334.4133 65.8946,-334.4132"/>
</g>
<!-- quality -->
<g id="node4" class="node">
<title>quality</title>
<ellipse fill="#b2dfee" stroke="#b2dfee" cx="62.3945" cy="-234" rx="35.194" ry="18"/>
<text text-anchor="middle" x="62.3945" y="-230.3" font-family="Times,serif" font-size="14.00" fill="#000000">quality</text>
</g>
<!-- appearance&#45;&gt;quality -->
<g id="edge3" class="edge">
<title>appearance&#45;&gt;quality</title>
<path fill="none" stroke="#000000" d="M62.3945,-287.8314C62.3945,-280.131 62.3945,-270.9743 62.3945,-262.4166"/>
<polygon fill="#000000" stroke="#000000" points="65.8946,-262.4132 62.3945,-252.4133 58.8946,-262.4133 65.8946,-262.4132"/>
</g>
<!-- attribute -->
<g id="node5" class="node">
<title>attribute</title>
<ellipse fill="#b2dfee" stroke="#b2dfee" cx="62.3945" cy="-162" rx="40.0939" ry="18"/>
<text text-anchor="middle" x="62.3945" y="-158.3" font-family="Times,serif" font-size="14.00" fill="#000000">attribute</text>
</g>
<!-- quality&#45;&gt;attribute -->
<g id="edge4" class="edge">
<title>quality&#45;&gt;attribute</title>
<path fill="none" stroke="#000000" d="M62.3945,-215.8314C62.3945,-208.131 62.3945,-198.9743 62.3945,-190.4166"/>
<polygon fill="#000000" stroke="#000000" points="65.8946,-190.4132 62.3945,-180.4133 58.8946,-190.4133 65.8946,-190.4132"/>
</g>
<!-- abstraction -->
<g id="node6" class="node">
<title>abstraction</title>
<ellipse fill="#b2dfee" stroke="#b2dfee" cx="62.3945" cy="-90" rx="49.2915" ry="18"/>
<text text-anchor="middle" x="62.3945" y="-86.3" font-family="Times,serif" font-size="14.00" fill="#000000">abstraction</text>
</g>
<!-- attribute&#45;&gt;abstraction -->
<g id="edge5" class="edge">
<title>attribute&#45;&gt;abstraction</title>
<path fill="none" stroke="#000000" d="M62.3945,-143.8314C62.3945,-136.131 62.3945,-126.9743 62.3945,-118.4166"/>
<polygon fill="#000000" stroke="#000000" points="65.8946,-118.4132 62.3945,-108.4133 58.8946,-118.4133 65.8946,-118.4132"/>
</g>
<!-- entity -->
<g id="node7" class="node">
<title>entity</title>
<ellipse fill="#b2dfee" stroke="#b2dfee" cx="62.3945" cy="-18" rx="30.5947" ry="18"/>
<text text-anchor="middle" x="62.3945" y="-14.3" font-family="Times,serif" font-size="14.00" fill="#000000">entity</text>
</g>
<!-- abstraction&#45;&gt;entity -->
<g id="edge6" class="edge">
<title>abstraction&#45;&gt;entity</title>
<path fill="none" stroke="#000000" d="M62.3945,-71.8314C62.3945,-64.131 62.3945,-54.9743 62.3945,-46.4166"/>
<polygon fill="#000000" stroke="#000000" points="65.8946,-46.4132 62.3945,-36.4133 58.8946,-46.4133 65.8946,-46.4132"/>
</g>
</g>
</svg>
