<?xml version="1.0" encoding="UTF-8" standalone="no"?>
<!DOCTYPE svg PUBLIC "-//W3C//DTD SVG 1.1//EN"
 "http://www.w3.org/Graphics/SVG/1.1/DTD/svg11.dtd">
<!-- Generated by graphviz version 2.40.1 (20161225.0304)
 -->
<!-- Title: unix Pages: 1 -->
<svg width="90pt" height="432pt"
 viewBox="0.00 0.00 89.79 432.00" xmlns="http://www.w3.org/2000/svg" xmlns:xlink="http://www.w3.org/1999/xlink">
<g id="graph0" class="graph" transform="scale(.5654 .5654) rotate(0) translate(4 760)">
<title>unix</title>
<polygon fill="#ffffff" stroke="transparent" points="-4,4 -4,-760 154.7866,-760 154.7866,4 -4,4"/>
<!-- fish -->
<g id="node1" class="node">
<title>fish</title>
<ellipse fill="#b2dfee" stroke="#b2dfee" cx="75.3933" cy="-738" rx="27" ry="18"/>
<text text-anchor="middle" x="75.3933" y="-734.3" font-family="Times,serif" font-size="14.00" fill="#000000">fish</text>
</g>
<!-- aquatic_vertebrate -->
<g id="node2" class="node">
<title>aquatic_vertebrate</title>
<ellipse fill="#b2dfee" stroke="#b2dfee" cx="75.3933" cy="-666" rx="75.2868" ry="18"/>
<text text-anchor="middle" x="75.3933" y="-662.3" font-family="Times,serif" font-size="14.00" fill="#000000">aquatic_vertebrate</text>
</g>
<!-- fish&#45;&gt;aquatic_vertebrate -->
<g id="edge1" class="edge">
<title>fish&#45;&gt;aquatic_vertebrate</title>
<path fill="none" stroke="#000000" d="M75.3933,-719.8314C75.3933,-712.131 75.3933,-702.9743 75.3933,-694.4166"/>
<polygon fill="#000000" stroke="#000000" points="78.8934,-694.4132 75.3933,-684.4133 71.8934,-694.4133 78.8934,-694.4132"/>
</g>
<!-- vertebrate -->
<g id="node3" class="node">
<title>vertebrate</title>
<ellipse fill="#b2dfee" stroke="#b2dfee" cx="75.3933" cy="-594" rx="46.2923" ry="18"/>
<text text-anchor="middle" x="75.3933" y="-590.3" font-family="Times,serif" font-size="14.00" fill="#000000">vertebrate</text>
</g>
<!-- aquatic_vertebrate&#45;&gt;vertebrate -->
<g id="edge2" class="edge">
<title>aquatic_vertebrate&#45;&gt;vertebrate</title>
<path fill="none" stroke="#000000" d="M75.3933,-647.8314C75.3933,-640.131 75.3933,-630.9743 75.3933,-622.4166"/>
<polygon fill="#000000" stroke="#000000" points="78.8934,-622.4132 75.3933,-612.4133 71.8934,-622.4133 78.8934,-622.4132"/>
</g>
<!-- chordate -->
<g id="node4" class="node">
<title>chordate</title>
<ellipse fill="#b2dfee" stroke="#b2dfee" cx="75.3933" cy="-522" rx="40.8928" ry="18"/>
<text text-anchor="middle" x="75.3933" y="-518.3" font-family="Times,serif" font-size="14.00" fill="#000000">chordate</text>
</g>
<!-- vertebrate&#45;&gt;chordate -->
<g id="edge3" class="edge">
<title>vertebrate&#45;&gt;chordate</title>
<path fill="none" stroke="#000000" d="M75.3933,-575.8314C75.3933,-568.131 75.3933,-558.9743 75.3933,-550.4166"/>
<polygon fill="#000000" stroke="#000000" points="78.8934,-550.4132 75.3933,-540.4133 71.8934,-550.4133 78.8934,-550.4132"/>
</g>
<!-- animal -->
<g id="node5" class="node">
<title>animal</title>
<ellipse fill="#b2dfee" stroke="#b2dfee" cx="75.3933" cy="-450" rx="35.194" ry="18"/>
<text text-anchor="middle" x="75.3933" y="-446.3" font-family="Times,serif" font-size="14.00" fill="#000000">animal</text>
</g>
<!-- chordate&#45;&gt;animal -->
<g id="edge4" class="edge">
<title>chordate&#45;&gt;animal</title>
<path fill="none" stroke="#000000" d="M75.3933,-503.8314C75.3933,-496.131 75.3933,-486.9743 75.3933,-478.4166"/>
<polygon fill="#000000" stroke="#000000" points="78.8934,-478.4132 75.3933,-468.4133 71.8934,-478.4133 78.8934,-478.4132"/>
</g>
<!-- organism -->
<g id="node6" class="node">
<title>organism</title>
<ellipse fill="#b2dfee" stroke="#b2dfee" cx="75.3933" cy="-378" rx="44.393" ry="18"/>
<text text-anchor="middle" x="75.3933" y="-374.3" font-family="Times,serif" font-size="14.00" fill="#000000">organism</text>
</g>
<!-- animal&#45;&gt;organism -->
<g id="edge5" class="edge">
<title>animal&#45;&gt;organism</title>
<path fill="none" stroke="#000000" d="M75.3933,-431.8314C75.3933,-424.131 75.3933,-414.9743 75.3933,-406.4166"/>
<polygon fill="#000000" stroke="#000000" points="78.8934,-406.4132 75.3933,-396.4133 71.8934,-406.4133 78.8934,-406.4132"/>
</g>
<!-- living_thing -->
<g id="node7" class="node">
<title>living_thing</title>
<ellipse fill="#b2dfee" stroke="#b2dfee" cx="75.3933" cy="-306" rx="53.8905" ry="18"/>
<text text-anchor="middle" x="75.3933" y="-302.3" font-family="Times,serif" font-size="14.00" fill="#000000">living_thing</text>
</g>
<!-- organism&#45;&gt;living_thing -->
<g id="edge6" class="edge">
<title>organism&#45;&gt;living_thing</title>
<path fill="none" stroke="#000000" d="M75.3933,-359.8314C75.3933,-352.131 75.3933,-342.9743 75.3933,-334.4166"/>
<polygon fill="#000000" stroke="#000000" points="78.8934,-334.4132 75.3933,-324.4133 71.8934,-334.4133 78.8934,-334.4132"/>
</g>
<!-- whole -->
<g id="node8" class="node">
<title>whole</title>
<ellipse fill="#b2dfee" stroke="#b2dfee" cx="75.3933" cy="-234" rx="32.4942" ry="18"/>
<text text-anchor="middle" x="75.3933" y="-230.3" font-family="Times,serif" font-size="14.00" fill="#000000">whole</text>
</g>
<!-- living_thing&#45;&gt;whole -->
<g id="edge7" class="edge">
<title>living_thing&#45;&gt;whole</title>
<path fill="none" stroke="#000000" d="M75.3933,-287.8314C75.3933,-280.131 75.3933,-270.9743 75.3933,-262.4166"/>
<polygon fill="#000000" stroke="#000000" points="78.8934,-262.4132 75.3933,-252.4133 71.8934,-262.4133 78.8934,-262.4132"/>
</g>
<!-- object -->
<g id="node9" class="node">
<title>object</title>
<ellipse fill="#b2dfee" stroke="#b2dfee" cx="75.3933" cy="-162" rx="32.4942" ry="18"/>
<text text-anchor="middle" x="75.3933" y="-158.3" font-family="Times,serif" font-size="14.00" fill="#000000">object</text>
</g>
<!-- whole&#45;&gt;object -->
<g id="edge8" class="edge">
<title>whole&#45;&gt;object</title>
<path fill="none" stroke="#000000" d="M75.3933,-215.8314C75.3933,-208.131 75.3933,-198.9743 75.3933,-190.4166"/>
<polygon fill="#000000" stroke="#000000" points="78.8934,-190.4132 75.3933,-180.4133 71.8934,-190.4133 78.8934,-190.4132"/>
</g>
<!-- physical_entity -->
<g id="node10" class="node">
<title>physical_entity</title>
<ellipse fill="#b2dfee" stroke="#b2dfee" cx="75.3933" cy="-90" rx="64.189" ry="18"/>
<text text-anchor="middle" x="75.3933" y="-86.3" font-family="Times,serif" font-size="14.00" fill="#000000">physical_entity</text>
</g>
<!-- object&#45;&gt;physical_entity -->
<g id="edge9" class="edge">
<title>object&#45;&gt;physical_entity</title>
<path fill="none" stroke="#000000" d="M75.3933,-143.8314C75.3933,-136.131 75.3933,-126.9743 75.3933,-118.4166"/>
<polygon fill="#000000" stroke="#000000" points="78.8934,-118.4132 75.3933,-108.4133 71.8934,-118.4133 78.8934,-118.4132"/>
</g>
<!-- entity -->
<g id="node11" class="node">
<title>entity</title>
<ellipse fill="#b2dfee" stroke="#b2dfee" cx="75.3933" cy="-18" rx="30.5947" ry="18"/>
<text text-anchor="middle" x="75.3933" y="-14.3" font-family="Times,serif" font-size="14.00" fill="#000000">entity</text>
</g>
<!-- physical_entity&#45;&gt;entity -->
<g id="edge10" class="edge">
<title>physical_entity&#45;&gt;entity</title>
<path fill="none" stroke="#000000" d="M75.3933,-71.8314C75.3933,-64.131 75.3933,-54.9743 75.3933,-46.4166"/>
<polygon fill="#000000" stroke="#000000" points="78.8934,-46.4132 75.3933,-36.4133 71.8934,-46.4133 78.8934,-46.4132"/>
</g>
</g>
</svg>
