<?xml version="1.0" encoding="UTF-8" standalone="no"?>
<!DOCTYPE svg PUBLIC "-//W3C//DTD SVG 1.1//EN"
 "http://www.w3.org/Graphics/SVG/1.1/DTD/svg11.dtd">
<!-- Generated by graphviz version 2.40.1 (20161225.0304)
 -->
<!-- Title: unix Pages: 1 -->
<svg width="79pt" height="188pt"
 viewBox="0.00 0.00 79.49 188.00" xmlns="http://www.w3.org/2000/svg" xmlns:xlink="http://www.w3.org/1999/xlink">
<g id="graph0" class="graph" transform="scale(1 1) rotate(0) translate(4 184)">
<title>unix</title>
<polygon fill="#ffffff" stroke="transparent" points="-4,4 -4,-184 75.4937,-184 75.4937,4 -4,4"/>
<!-- repair -->
<g id="node1" class="node">
<title>repair</title>
<ellipse fill="#b2dfee" stroke="#b2dfee" cx="35.7468" cy="-162" rx="31.3957" ry="18"/>
<text text-anchor="middle" x="35.7468" y="-158.3" font-family="Times,serif" font-size="14.00" fill="#000000">repair</text>
</g>
<!-- better -->
<g id="node2" class="node">
<title>better</title>
<ellipse fill="#b2dfee" stroke="#b2dfee" cx="35.7468" cy="-90" rx="30.5947" ry="18"/>
<text text-anchor="middle" x="35.7468" y="-86.3" font-family="Times,serif" font-size="14.00" fill="#000000">better</text>
</g>
<!-- repair&#45;&gt;better -->
<g id="edge1" class="edge">
<title>repair&#45;&gt;better</title>
<path fill="none" stroke="#000000" d="M35.7468,-143.8314C35.7468,-136.131 35.7468,-126.9743 35.7468,-118.4166"/>
<polygon fill="#000000" stroke="#000000" points="39.2469,-118.4132 35.7468,-108.4133 32.2469,-118.4133 39.2469,-118.4132"/>
</g>
<!-- change -->
<g id="node3" class="node">
<title>change</title>
<ellipse fill="#b2dfee" stroke="#b2dfee" cx="35.7468" cy="-18" rx="35.9954" ry="18"/>
<text text-anchor="middle" x="35.7468" y="-14.3" font-family="Times,serif" font-size="14.00" fill="#000000">change</text>
</g>
<!-- better&#45;&gt;change -->
<g id="edge2" class="edge">
<title>better&#45;&gt;change</title>
<path fill="none" stroke="#000000" d="M35.7468,-71.8314C35.7468,-64.131 35.7468,-54.9743 35.7468,-46.4166"/>
<polygon fill="#000000" stroke="#000000" points="39.2469,-46.4132 35.7468,-36.4133 32.2469,-46.4133 39.2469,-46.4132"/>
</g>
</g>
</svg>
