<?xml version="1.0" encoding="UTF-8" standalone="no"?>
<!DOCTYPE svg PUBLIC "-//W3C//DTD SVG 1.1//EN"
 "http://www.w3.org/Graphics/SVG/1.1/DTD/svg11.dtd">
<!-- Generated by graphviz version 2.40.1 (20161225.0304)
 -->
<!-- Title: unix Pages: 1 -->
<svg width="137pt" height="404pt"
 viewBox="0.00 0.00 136.69 404.00" xmlns="http://www.w3.org/2000/svg" xmlns:xlink="http://www.w3.org/1999/xlink">
<g id="graph0" class="graph" transform="scale(1 1) rotate(0) translate(4 400)">
<title>unix</title>
<polygon fill="#ffffff" stroke="transparent" points="-4,4 -4,-400 132.6886,-400 132.6886,4 -4,4"/>
<!-- flat -->
<g id="node1" class="node">
<title>flat</title>
<ellipse fill="#b2dfee" stroke="#b2dfee" cx="64.3443" cy="-378" rx="27" ry="18"/>
<text text-anchor="middle" x="64.3443" y="-374.3" font-family="Times,serif" font-size="14.00" fill="#000000">flat</text>
</g>
<!-- plain -->
<g id="node2" class="node">
<title>plain</title>
<ellipse fill="#b2dfee" stroke="#b2dfee" cx="64.3443" cy="-306" rx="28.6953" ry="18"/>
<text text-anchor="middle" x="64.3443" y="-302.3" font-family="Times,serif" font-size="14.00" fill="#000000">plain</text>
</g>
<!-- flat&#45;&gt;plain -->
<g id="edge1" class="edge">
<title>flat&#45;&gt;plain</title>
<path fill="none" stroke="#000000" d="M64.3443,-359.8314C64.3443,-352.131 64.3443,-342.9743 64.3443,-334.4166"/>
<polygon fill="#000000" stroke="#000000" points="67.8444,-334.4132 64.3443,-324.4133 60.8444,-334.4133 67.8444,-334.4132"/>
</g>
<!-- land -->
<g id="node3" class="node">
<title>land</title>
<ellipse fill="#b2dfee" stroke="#b2dfee" cx="64.3443" cy="-234" rx="27" ry="18"/>
<text text-anchor="middle" x="64.3443" y="-230.3" font-family="Times,serif" font-size="14.00" fill="#000000">land</text>
</g>
<!-- plain&#45;&gt;land -->
<g id="edge2" class="edge">
<title>plain&#45;&gt;land</title>
<path fill="none" stroke="#000000" d="M64.3443,-287.8314C64.3443,-280.131 64.3443,-270.9743 64.3443,-262.4166"/>
<polygon fill="#000000" stroke="#000000" points="67.8444,-262.4132 64.3443,-252.4133 60.8444,-262.4133 67.8444,-262.4132"/>
</g>
<!-- object -->
<g id="node4" class="node">
<title>object</title>
<ellipse fill="#b2dfee" stroke="#b2dfee" cx="64.3443" cy="-162" rx="32.4942" ry="18"/>
<text text-anchor="middle" x="64.3443" y="-158.3" font-family="Times,serif" font-size="14.00" fill="#000000">object</text>
</g>
<!-- land&#45;&gt;object -->
<g id="edge3" class="edge">
<title>land&#45;&gt;object</title>
<path fill="none" stroke="#000000" d="M64.3443,-215.8314C64.3443,-208.131 64.3443,-198.9743 64.3443,-190.4166"/>
<polygon fill="#000000" stroke="#000000" points="67.8444,-190.4132 64.3443,-180.4133 60.8444,-190.4133 67.8444,-190.4132"/>
</g>
<!-- physical_entity -->
<g id="node5" class="node">
<title>physical_entity</title>
<ellipse fill="#b2dfee" stroke="#b2dfee" cx="64.3443" cy="-90" rx="64.189" ry="18"/>
<text text-anchor="middle" x="64.3443" y="-86.3" font-family="Times,serif" font-size="14.00" fill="#000000">physical_entity</text>
</g>
<!-- object&#45;&gt;physical_entity -->
<g id="edge4" class="edge">
<title>object&#45;&gt;physical_entity</title>
<path fill="none" stroke="#000000" d="M64.3443,-143.8314C64.3443,-136.131 64.3443,-126.9743 64.3443,-118.4166"/>
<polygon fill="#000000" stroke="#000000" points="67.8444,-118.4132 64.3443,-108.4133 60.8444,-118.4133 67.8444,-118.4132"/>
</g>
<!-- entity -->
<g id="node6" class="node">
<title>entity</title>
<ellipse fill="#b2dfee" stroke="#b2dfee" cx="64.3443" cy="-18" rx="30.5947" ry="18"/>
<text text-anchor="middle" x="64.3443" y="-14.3" font-family="Times,serif" font-size="14.00" fill="#000000">entity</text>
</g>
<!-- physical_entity&#45;&gt;entity -->
<g id="edge5" class="edge">
<title>physical_entity&#45;&gt;entity</title>
<path fill="none" stroke="#000000" d="M64.3443,-71.8314C64.3443,-64.131 64.3443,-54.9743 64.3443,-46.4166"/>
<polygon fill="#000000" stroke="#000000" points="67.8444,-46.4132 64.3443,-36.4133 60.8444,-46.4133 67.8444,-46.4132"/>
</g>
</g>
</svg>
