<?xml version="1.0" encoding="UTF-8" standalone="no"?>
<!DOCTYPE svg PUBLIC "-//W3C//DTD SVG 1.1//EN"
 "http://www.w3.org/Graphics/SVG/1.1/DTD/svg11.dtd">
<!-- Generated by graphviz version 2.40.1 (20161225.0304)
 -->
<!-- Title: unix Pages: 1 -->
<svg width="99pt" height="432pt"
 viewBox="0.00 0.00 98.61 432.00" xmlns="http://www.w3.org/2000/svg" xmlns:xlink="http://www.w3.org/1999/xlink">
<g id="graph0" class="graph" transform="scale(.5654 .5654) rotate(0) translate(4 760)">
<title>unix</title>
<polygon fill="#ffffff" stroke="transparent" points="-4,4 -4,-760 170.3852,-760 170.3852,4 -4,4"/>
<!-- found -->
<g id="node1" class="node">
<title>found</title>
<ellipse fill="#b2dfee" stroke="#b2dfee" cx="83.1926" cy="-738" rx="31.3957" ry="18"/>
<text text-anchor="middle" x="83.1926" y="-734.3" font-family="Times,serif" font-size="14.00" fill="#000000">found</text>
</g>
<!-- wage -->
<g id="node2" class="node">
<title>wage</title>
<ellipse fill="#b2dfee" stroke="#b2dfee" cx="83.1926" cy="-666" rx="29.4969" ry="18"/>
<text text-anchor="middle" x="83.1926" y="-662.3" font-family="Times,serif" font-size="14.00" fill="#000000">wage</text>
</g>
<!-- found&#45;&gt;wage -->
<g id="edge1" class="edge">
<title>found&#45;&gt;wage</title>
<path fill="none" stroke="#000000" d="M83.1926,-719.8314C83.1926,-712.131 83.1926,-702.9743 83.1926,-694.4166"/>
<polygon fill="#000000" stroke="#000000" points="86.6927,-694.4132 83.1926,-684.4133 79.6927,-694.4133 86.6927,-694.4132"/>
</g>
<!-- regular_payment -->
<g id="node3" class="node">
<title>regular_payment</title>
<ellipse fill="#b2dfee" stroke="#b2dfee" cx="83.1926" cy="-594" rx="70.6878" ry="18"/>
<text text-anchor="middle" x="83.1926" y="-590.3" font-family="Times,serif" font-size="14.00" fill="#000000">regular_payment</text>
</g>
<!-- wage&#45;&gt;regular_payment -->
<g id="edge2" class="edge">
<title>wage&#45;&gt;regular_payment</title>
<path fill="none" stroke="#000000" d="M83.1926,-647.8314C83.1926,-640.131 83.1926,-630.9743 83.1926,-622.4166"/>
<polygon fill="#000000" stroke="#000000" points="86.6927,-622.4132 83.1926,-612.4133 79.6927,-622.4133 86.6927,-622.4132"/>
</g>
<!-- payment -->
<g id="node4" class="node">
<title>payment</title>
<ellipse fill="#b2dfee" stroke="#b2dfee" cx="83.1926" cy="-522" rx="41.6928" ry="18"/>
<text text-anchor="middle" x="83.1926" y="-518.3" font-family="Times,serif" font-size="14.00" fill="#000000">payment</text>
</g>
<!-- regular_payment&#45;&gt;payment -->
<g id="edge3" class="edge">
<title>regular_payment&#45;&gt;payment</title>
<path fill="none" stroke="#000000" d="M83.1926,-575.8314C83.1926,-568.131 83.1926,-558.9743 83.1926,-550.4166"/>
<polygon fill="#000000" stroke="#000000" points="86.6927,-550.4132 83.1926,-540.4133 79.6927,-550.4133 86.6927,-550.4132"/>
</g>
<!-- cost -->
<g id="node5" class="node">
<title>cost</title>
<ellipse fill="#b2dfee" stroke="#b2dfee" cx="83.1926" cy="-450" rx="27" ry="18"/>
<text text-anchor="middle" x="83.1926" y="-446.3" font-family="Times,serif" font-size="14.00" fill="#000000">cost</text>
</g>
<!-- payment&#45;&gt;cost -->
<g id="edge4" class="edge">
<title>payment&#45;&gt;cost</title>
<path fill="none" stroke="#000000" d="M83.1926,-503.8314C83.1926,-496.131 83.1926,-486.9743 83.1926,-478.4166"/>
<polygon fill="#000000" stroke="#000000" points="86.6927,-478.4132 83.1926,-468.4133 79.6927,-478.4133 86.6927,-478.4132"/>
</g>
<!-- outgo -->
<g id="node6" class="node">
<title>outgo</title>
<ellipse fill="#b2dfee" stroke="#b2dfee" cx="83.1926" cy="-378" rx="30.5947" ry="18"/>
<text text-anchor="middle" x="83.1926" y="-374.3" font-family="Times,serif" font-size="14.00" fill="#000000">outgo</text>
</g>
<!-- cost&#45;&gt;outgo -->
<g id="edge5" class="edge">
<title>cost&#45;&gt;outgo</title>
<path fill="none" stroke="#000000" d="M83.1926,-431.8314C83.1926,-424.131 83.1926,-414.9743 83.1926,-406.4166"/>
<polygon fill="#000000" stroke="#000000" points="86.6927,-406.4132 83.1926,-396.4133 79.6927,-406.4133 86.6927,-406.4132"/>
</g>
<!-- transferred_property -->
<g id="node7" class="node">
<title>transferred_property</title>
<ellipse fill="#b2dfee" stroke="#b2dfee" cx="83.1926" cy="-306" rx="83.3857" ry="18"/>
<text text-anchor="middle" x="83.1926" y="-302.3" font-family="Times,serif" font-size="14.00" fill="#000000">transferred_property</text>
</g>
<!-- outgo&#45;&gt;transferred_property -->
<g id="edge6" class="edge">
<title>outgo&#45;&gt;transferred_property</title>
<path fill="none" stroke="#000000" d="M83.1926,-359.8314C83.1926,-352.131 83.1926,-342.9743 83.1926,-334.4166"/>
<polygon fill="#000000" stroke="#000000" points="86.6927,-334.4132 83.1926,-324.4133 79.6927,-334.4133 86.6927,-334.4132"/>
</g>
<!-- possession -->
<g id="node8" class="node">
<title>possession</title>
<ellipse fill="#b2dfee" stroke="#b2dfee" cx="83.1926" cy="-234" rx="48.1917" ry="18"/>
<text text-anchor="middle" x="83.1926" y="-230.3" font-family="Times,serif" font-size="14.00" fill="#000000">possession</text>
</g>
<!-- transferred_property&#45;&gt;possession -->
<g id="edge7" class="edge">
<title>transferred_property&#45;&gt;possession</title>
<path fill="none" stroke="#000000" d="M83.1926,-287.8314C83.1926,-280.131 83.1926,-270.9743 83.1926,-262.4166"/>
<polygon fill="#000000" stroke="#000000" points="86.6927,-262.4132 83.1926,-252.4133 79.6927,-262.4133 86.6927,-262.4132"/>
</g>
<!-- relation -->
<g id="node9" class="node">
<title>relation</title>
<ellipse fill="#b2dfee" stroke="#b2dfee" cx="83.1926" cy="-162" rx="37.8943" ry="18"/>
<text text-anchor="middle" x="83.1926" y="-158.3" font-family="Times,serif" font-size="14.00" fill="#000000">relation</text>
</g>
<!-- possession&#45;&gt;relation -->
<g id="edge8" class="edge">
<title>possession&#45;&gt;relation</title>
<path fill="none" stroke="#000000" d="M83.1926,-215.8314C83.1926,-208.131 83.1926,-198.9743 83.1926,-190.4166"/>
<polygon fill="#000000" stroke="#000000" points="86.6927,-190.4132 83.1926,-180.4133 79.6927,-190.4133 86.6927,-190.4132"/>
</g>
<!-- abstraction -->
<g id="node10" class="node">
<title>abstraction</title>
<ellipse fill="#b2dfee" stroke="#b2dfee" cx="83.1926" cy="-90" rx="49.2915" ry="18"/>
<text text-anchor="middle" x="83.1926" y="-86.3" font-family="Times,serif" font-size="14.00" fill="#000000">abstraction</text>
</g>
<!-- relation&#45;&gt;abstraction -->
<g id="edge9" class="edge">
<title>relation&#45;&gt;abstraction</title>
<path fill="none" stroke="#000000" d="M83.1926,-143.8314C83.1926,-136.131 83.1926,-126.9743 83.1926,-118.4166"/>
<polygon fill="#000000" stroke="#000000" points="86.6927,-118.4132 83.1926,-108.4133 79.6927,-118.4133 86.6927,-118.4132"/>
</g>
<!-- entity -->
<g id="node11" class="node">
<title>entity</title>
<ellipse fill="#b2dfee" stroke="#b2dfee" cx="83.1926" cy="-18" rx="30.5947" ry="18"/>
<text text-anchor="middle" x="83.1926" y="-14.3" font-family="Times,serif" font-size="14.00" fill="#000000">entity</text>
</g>
<!-- abstraction&#45;&gt;entity -->
<g id="edge10" class="edge">
<title>abstraction&#45;&gt;entity</title>
<path fill="none" stroke="#000000" d="M83.1926,-71.8314C83.1926,-64.131 83.1926,-54.9743 83.1926,-46.4166"/>
<polygon fill="#000000" stroke="#000000" points="86.6927,-46.4132 83.1926,-36.4133 79.6927,-46.4133 86.6927,-46.4132"/>
</g>
</g>
</svg>
