<?xml version="1.0" encoding="UTF-8" standalone="no"?>
<!DOCTYPE svg PUBLIC "-//W3C//DTD SVG 1.1//EN"
 "http://www.w3.org/Graphics/SVG/1.1/DTD/svg11.dtd">
<!-- Generated by graphviz version 2.40.1 (20161225.0304)
 -->
<!-- Title: unix Pages: 1 -->
<svg width="142pt" height="432pt"
 viewBox="0.00 0.00 141.75 432.00" xmlns="http://www.w3.org/2000/svg" xmlns:xlink="http://www.w3.org/1999/xlink">
<g id="graph0" class="graph" transform="scale(.9076 .9076) rotate(0) translate(4 472)">
<title>unix</title>
<polygon fill="#ffffff" stroke="transparent" points="-4,4 -4,-472 152.1869,-472 152.1869,4 -4,4"/>
<!-- give -->
<g id="node1" class="node">
<title>give</title>
<ellipse fill="#b2dfee" stroke="#b2dfee" cx="74.0934" cy="-450" rx="27" ry="18"/>
<text text-anchor="middle" x="74.0934" y="-446.3" font-family="Times,serif" font-size="14.00" fill="#000000">give</text>
</g>
<!-- elasticity -->
<g id="node2" class="node">
<title>elasticity</title>
<ellipse fill="#b2dfee" stroke="#b2dfee" cx="74.0934" cy="-378" rx="42.4939" ry="18"/>
<text text-anchor="middle" x="74.0934" y="-374.3" font-family="Times,serif" font-size="14.00" fill="#000000">elasticity</text>
</g>
<!-- give&#45;&gt;elasticity -->
<g id="edge1" class="edge">
<title>give&#45;&gt;elasticity</title>
<path fill="none" stroke="#000000" d="M74.0934,-431.8314C74.0934,-424.131 74.0934,-414.9743 74.0934,-406.4166"/>
<polygon fill="#000000" stroke="#000000" points="77.5935,-406.4132 74.0934,-396.4133 70.5935,-406.4133 77.5935,-406.4132"/>
</g>
<!-- physical_property -->
<g id="node3" class="node">
<title>physical_property</title>
<ellipse fill="#b2dfee" stroke="#b2dfee" cx="74.0934" cy="-306" rx="74.187" ry="18"/>
<text text-anchor="middle" x="74.0934" y="-302.3" font-family="Times,serif" font-size="14.00" fill="#000000">physical_property</text>
</g>
<!-- elasticity&#45;&gt;physical_property -->
<g id="edge2" class="edge">
<title>elasticity&#45;&gt;physical_property</title>
<path fill="none" stroke="#000000" d="M74.0934,-359.8314C74.0934,-352.131 74.0934,-342.9743 74.0934,-334.4166"/>
<polygon fill="#000000" stroke="#000000" points="77.5935,-334.4132 74.0934,-324.4133 70.5935,-334.4133 77.5935,-334.4132"/>
</g>
<!-- property -->
<g id="node4" class="node">
<title>property</title>
<ellipse fill="#b2dfee" stroke="#b2dfee" cx="74.0934" cy="-234" rx="40.0939" ry="18"/>
<text text-anchor="middle" x="74.0934" y="-230.3" font-family="Times,serif" font-size="14.00" fill="#000000">property</text>
</g>
<!-- physical_property&#45;&gt;property -->
<g id="edge3" class="edge">
<title>physical_property&#45;&gt;property</title>
<path fill="none" stroke="#000000" d="M74.0934,-287.8314C74.0934,-280.131 74.0934,-270.9743 74.0934,-262.4166"/>
<polygon fill="#000000" stroke="#000000" points="77.5935,-262.4132 74.0934,-252.4133 70.5935,-262.4133 77.5935,-262.4132"/>
</g>
<!-- attribute -->
<g id="node5" class="node">
<title>attribute</title>
<ellipse fill="#b2dfee" stroke="#b2dfee" cx="74.0934" cy="-162" rx="40.0939" ry="18"/>
<text text-anchor="middle" x="74.0934" y="-158.3" font-family="Times,serif" font-size="14.00" fill="#000000">attribute</text>
</g>
<!-- property&#45;&gt;attribute -->
<g id="edge4" class="edge">
<title>property&#45;&gt;attribute</title>
<path fill="none" stroke="#000000" d="M74.0934,-215.8314C74.0934,-208.131 74.0934,-198.9743 74.0934,-190.4166"/>
<polygon fill="#000000" stroke="#000000" points="77.5935,-190.4132 74.0934,-180.4133 70.5935,-190.4133 77.5935,-190.4132"/>
</g>
<!-- abstraction -->
<g id="node6" class="node">
<title>abstraction</title>
<ellipse fill="#b2dfee" stroke="#b2dfee" cx="74.0934" cy="-90" rx="49.2915" ry="18"/>
<text text-anchor="middle" x="74.0934" y="-86.3" font-family="Times,serif" font-size="14.00" fill="#000000">abstraction</text>
</g>
<!-- attribute&#45;&gt;abstraction -->
<g id="edge5" class="edge">
<title>attribute&#45;&gt;abstraction</title>
<path fill="none" stroke="#000000" d="M74.0934,-143.8314C74.0934,-136.131 74.0934,-126.9743 74.0934,-118.4166"/>
<polygon fill="#000000" stroke="#000000" points="77.5935,-118.4132 74.0934,-108.4133 70.5935,-118.4133 77.5935,-118.4132"/>
</g>
<!-- entity -->
<g id="node7" class="node">
<title>entity</title>
<ellipse fill="#b2dfee" stroke="#b2dfee" cx="74.0934" cy="-18" rx="30.5947" ry="18"/>
<text text-anchor="middle" x="74.0934" y="-14.3" font-family="Times,serif" font-size="14.00" fill="#000000">entity</text>
</g>
<!-- abstraction&#45;&gt;entity -->
<g id="edge6" class="edge">
<title>abstraction&#45;&gt;entity</title>
<path fill="none" stroke="#000000" d="M74.0934,-71.8314C74.0934,-64.131 74.0934,-54.9743 74.0934,-46.4166"/>
<polygon fill="#000000" stroke="#000000" points="77.5935,-46.4132 74.0934,-36.4133 70.5935,-46.4133 77.5935,-46.4132"/>
</g>
</g>
</svg>
