<?xml version="1.0" encoding="UTF-8" standalone="no"?>
<!DOCTYPE svg PUBLIC "-//W3C//DTD SVG 1.1//EN"
 "http://www.w3.org/Graphics/SVG/1.1/DTD/svg11.dtd">
<!-- Generated by graphviz version 2.40.1 (20161225.0304)
 -->
<!-- Title: unix Pages: 1 -->
<svg width="151pt" height="432pt"
 viewBox="0.00 0.00 151.19 432.00" xmlns="http://www.w3.org/2000/svg" xmlns:xlink="http://www.w3.org/1999/xlink">
<g id="graph0" class="graph" transform="scale(.9076 .9076) rotate(0) translate(4 472)">
<title>unix</title>
<polygon fill="#ffffff" stroke="transparent" points="-4,4 -4,-472 162.5859,-472 162.5859,4 -4,4"/>
<!-- head -->
<g id="node1" class="node">
<title>head</title>
<ellipse fill="#b2dfee" stroke="#b2dfee" cx="79.293" cy="-450" rx="27.0966" ry="18"/>
<text text-anchor="middle" x="79.293" y="-446.3" font-family="Times,serif" font-size="14.00" fill="#000000">head</text>
</g>
<!-- external_body_part -->
<g id="node2" class="node">
<title>external_body_part</title>
<ellipse fill="#b2dfee" stroke="#b2dfee" cx="79.293" cy="-378" rx="79.0865" ry="18"/>
<text text-anchor="middle" x="79.293" y="-374.3" font-family="Times,serif" font-size="14.00" fill="#000000">external_body_part</text>
</g>
<!-- head&#45;&gt;external_body_part -->
<g id="edge1" class="edge">
<title>head&#45;&gt;external_body_part</title>
<path fill="none" stroke="#000000" d="M79.293,-431.8314C79.293,-424.131 79.293,-414.9743 79.293,-406.4166"/>
<polygon fill="#000000" stroke="#000000" points="82.7931,-406.4132 79.293,-396.4133 75.7931,-406.4133 82.7931,-406.4132"/>
</g>
<!-- body_part -->
<g id="node3" class="node">
<title>body_part</title>
<ellipse fill="#b2dfee" stroke="#b2dfee" cx="79.293" cy="-306" rx="46.2923" ry="18"/>
<text text-anchor="middle" x="79.293" y="-302.3" font-family="Times,serif" font-size="14.00" fill="#000000">body_part</text>
</g>
<!-- external_body_part&#45;&gt;body_part -->
<g id="edge2" class="edge">
<title>external_body_part&#45;&gt;body_part</title>
<path fill="none" stroke="#000000" d="M79.293,-359.8314C79.293,-352.131 79.293,-342.9743 79.293,-334.4166"/>
<polygon fill="#000000" stroke="#000000" points="82.7931,-334.4132 79.293,-324.4133 75.7931,-334.4133 82.7931,-334.4132"/>
</g>
<!-- part -->
<g id="node4" class="node">
<title>part</title>
<ellipse fill="#b2dfee" stroke="#b2dfee" cx="79.293" cy="-234" rx="27" ry="18"/>
<text text-anchor="middle" x="79.293" y="-230.3" font-family="Times,serif" font-size="14.00" fill="#000000">part</text>
</g>
<!-- body_part&#45;&gt;part -->
<g id="edge3" class="edge">
<title>body_part&#45;&gt;part</title>
<path fill="none" stroke="#000000" d="M79.293,-287.8314C79.293,-280.131 79.293,-270.9743 79.293,-262.4166"/>
<polygon fill="#000000" stroke="#000000" points="82.7931,-262.4132 79.293,-252.4133 75.7931,-262.4133 82.7931,-262.4132"/>
</g>
<!-- thing -->
<g id="node5" class="node">
<title>thing</title>
<ellipse fill="#b2dfee" stroke="#b2dfee" cx="79.293" cy="-162" rx="28.6953" ry="18"/>
<text text-anchor="middle" x="79.293" y="-158.3" font-family="Times,serif" font-size="14.00" fill="#000000">thing</text>
</g>
<!-- part&#45;&gt;thing -->
<g id="edge4" class="edge">
<title>part&#45;&gt;thing</title>
<path fill="none" stroke="#000000" d="M79.293,-215.8314C79.293,-208.131 79.293,-198.9743 79.293,-190.4166"/>
<polygon fill="#000000" stroke="#000000" points="82.7931,-190.4132 79.293,-180.4133 75.7931,-190.4133 82.7931,-190.4132"/>
</g>
<!-- physical_entity -->
<g id="node6" class="node">
<title>physical_entity</title>
<ellipse fill="#b2dfee" stroke="#b2dfee" cx="79.293" cy="-90" rx="64.189" ry="18"/>
<text text-anchor="middle" x="79.293" y="-86.3" font-family="Times,serif" font-size="14.00" fill="#000000">physical_entity</text>
</g>
<!-- thing&#45;&gt;physical_entity -->
<g id="edge5" class="edge">
<title>thing&#45;&gt;physical_entity</title>
<path fill="none" stroke="#000000" d="M79.293,-143.8314C79.293,-136.131 79.293,-126.9743 79.293,-118.4166"/>
<polygon fill="#000000" stroke="#000000" points="82.7931,-118.4132 79.293,-108.4133 75.7931,-118.4133 82.7931,-118.4132"/>
</g>
<!-- entity -->
<g id="node7" class="node">
<title>entity</title>
<ellipse fill="#b2dfee" stroke="#b2dfee" cx="79.293" cy="-18" rx="30.5947" ry="18"/>
<text text-anchor="middle" x="79.293" y="-14.3" font-family="Times,serif" font-size="14.00" fill="#000000">entity</text>
</g>
<!-- physical_entity&#45;&gt;entity -->
<g id="edge6" class="edge">
<title>physical_entity&#45;&gt;entity</title>
<path fill="none" stroke="#000000" d="M79.293,-71.8314C79.293,-64.131 79.293,-54.9743 79.293,-46.4166"/>
<polygon fill="#000000" stroke="#000000" points="82.7931,-46.4132 79.293,-36.4133 75.7931,-46.4133 82.7931,-46.4132"/>
</g>
</g>
</svg>
