<?xml version="1.0" encoding="UTF-8" standalone="no"?>
<!DOCTYPE svg PUBLIC "-//W3C//DTD SVG 1.1//EN"
 "http://www.w3.org/Graphics/SVG/1.1/DTD/svg11.dtd">
<!-- Generated by graphviz version 2.40.1 (20161225.0304)
 -->
<!-- Title: unix Pages: 1 -->
<svg width="137pt" height="432pt"
 viewBox="0.00 0.00 137.03 432.00" xmlns="http://www.w3.org/2000/svg" xmlns:xlink="http://www.w3.org/1999/xlink">
<g id="graph0" class="graph" transform="scale(.9076 .9076) rotate(0) translate(4 472)">
<title>unix</title>
<polygon fill="#ffffff" stroke="transparent" points="-4,4 -4,-472 146.9873,-472 146.9873,4 -4,4"/>
<!-- hello -->
<g id="node1" class="node">
<title>hello</title>
<ellipse fill="#b2dfee" stroke="#b2dfee" cx="71.4937" cy="-450" rx="28.6953" ry="18"/>
<text text-anchor="middle" x="71.4937" y="-446.3" font-family="Times,serif" font-size="14.00" fill="#000000">hello</text>
</g>
<!-- greeting -->
<g id="node2" class="node">
<title>greeting</title>
<ellipse fill="#b2dfee" stroke="#b2dfee" cx="71.4937" cy="-378" rx="39.7935" ry="18"/>
<text text-anchor="middle" x="71.4937" y="-374.3" font-family="Times,serif" font-size="14.00" fill="#000000">greeting</text>
</g>
<!-- hello&#45;&gt;greeting -->
<g id="edge1" class="edge">
<title>hello&#45;&gt;greeting</title>
<path fill="none" stroke="#000000" d="M71.4937,-431.8314C71.4937,-424.131 71.4937,-414.9743 71.4937,-406.4166"/>
<polygon fill="#000000" stroke="#000000" points="74.9938,-406.4132 71.4937,-396.4133 67.9938,-406.4133 74.9938,-406.4132"/>
</g>
<!-- acknowledgment -->
<g id="node3" class="node">
<title>acknowledgment</title>
<ellipse fill="#b2dfee" stroke="#b2dfee" cx="71.4937" cy="-306" rx="71.4873" ry="18"/>
<text text-anchor="middle" x="71.4937" y="-302.3" font-family="Times,serif" font-size="14.00" fill="#000000">acknowledgment</text>
</g>
<!-- greeting&#45;&gt;acknowledgment -->
<g id="edge2" class="edge">
<title>greeting&#45;&gt;acknowledgment</title>
<path fill="none" stroke="#000000" d="M71.4937,-359.8314C71.4937,-352.131 71.4937,-342.9743 71.4937,-334.4166"/>
<polygon fill="#000000" stroke="#000000" points="74.9938,-334.4132 71.4937,-324.4133 67.9938,-334.4133 74.9938,-334.4132"/>
</g>
<!-- message -->
<g id="node4" class="node">
<title>message</title>
<ellipse fill="#b2dfee" stroke="#b2dfee" cx="71.4937" cy="-234" rx="40.8928" ry="18"/>
<text text-anchor="middle" x="71.4937" y="-230.3" font-family="Times,serif" font-size="14.00" fill="#000000">message</text>
</g>
<!-- acknowledgment&#45;&gt;message -->
<g id="edge3" class="edge">
<title>acknowledgment&#45;&gt;message</title>
<path fill="none" stroke="#000000" d="M71.4937,-287.8314C71.4937,-280.131 71.4937,-270.9743 71.4937,-262.4166"/>
<polygon fill="#000000" stroke="#000000" points="74.9938,-262.4132 71.4937,-252.4133 67.9938,-262.4133 74.9938,-262.4132"/>
</g>
<!-- communication -->
<g id="node5" class="node">
<title>communication</title>
<ellipse fill="#b2dfee" stroke="#b2dfee" cx="71.4937" cy="-162" rx="66.0889" ry="18"/>
<text text-anchor="middle" x="71.4937" y="-158.3" font-family="Times,serif" font-size="14.00" fill="#000000">communication</text>
</g>
<!-- message&#45;&gt;communication -->
<g id="edge4" class="edge">
<title>message&#45;&gt;communication</title>
<path fill="none" stroke="#000000" d="M71.4937,-215.8314C71.4937,-208.131 71.4937,-198.9743 71.4937,-190.4166"/>
<polygon fill="#000000" stroke="#000000" points="74.9938,-190.4132 71.4937,-180.4133 67.9938,-190.4133 74.9938,-190.4132"/>
</g>
<!-- abstraction -->
<g id="node6" class="node">
<title>abstraction</title>
<ellipse fill="#b2dfee" stroke="#b2dfee" cx="71.4937" cy="-90" rx="49.2915" ry="18"/>
<text text-anchor="middle" x="71.4937" y="-86.3" font-family="Times,serif" font-size="14.00" fill="#000000">abstraction</text>
</g>
<!-- communication&#45;&gt;abstraction -->
<g id="edge5" class="edge">
<title>communication&#45;&gt;abstraction</title>
<path fill="none" stroke="#000000" d="M71.4937,-143.8314C71.4937,-136.131 71.4937,-126.9743 71.4937,-118.4166"/>
<polygon fill="#000000" stroke="#000000" points="74.9938,-118.4132 71.4937,-108.4133 67.9938,-118.4133 74.9938,-118.4132"/>
</g>
<!-- entity -->
<g id="node7" class="node">
<title>entity</title>
<ellipse fill="#b2dfee" stroke="#b2dfee" cx="71.4937" cy="-18" rx="30.5947" ry="18"/>
<text text-anchor="middle" x="71.4937" y="-14.3" font-family="Times,serif" font-size="14.00" fill="#000000">entity</text>
</g>
<!-- abstraction&#45;&gt;entity -->
<g id="edge6" class="edge">
<title>abstraction&#45;&gt;entity</title>
<path fill="none" stroke="#000000" d="M71.4937,-71.8314C71.4937,-64.131 71.4937,-54.9743 71.4937,-46.4166"/>
<polygon fill="#000000" stroke="#000000" points="74.9938,-46.4132 71.4937,-36.4133 67.9938,-46.4133 74.9938,-46.4132"/>
</g>
</g>
</svg>
