<?xml version="1.0" encoding="UTF-8" standalone="no"?>
<!DOCTYPE svg PUBLIC "-//W3C//DTD SVG 1.1//EN"
 "http://www.w3.org/Graphics/SVG/1.1/DTD/svg11.dtd">
<!-- Generated by graphviz version 2.40.1 (20161225.0304)
 -->
<!-- Title: unix Pages: 1 -->
<svg width="66pt" height="432pt"
 viewBox="0.00 0.00 66.27 432.00" xmlns="http://www.w3.org/2000/svg" xmlns:xlink="http://www.w3.org/1999/xlink">
<g id="graph0" class="graph" transform="scale(.4106 .4106) rotate(0) translate(4 1048)">
<title>unix</title>
<polygon fill="#ffffff" stroke="transparent" points="-4,4 -4,-1048 157.3864,-1048 157.3864,4 -4,4"/>
<!-- horse -->
<g id="node1" class="node">
<title>horse</title>
<ellipse fill="#b2dfee" stroke="#b2dfee" cx="76.6932" cy="-1026" rx="29.795" ry="18"/>
<text text-anchor="middle" x="76.6932" y="-1022.3" font-family="Times,serif" font-size="14.00" fill="#000000">horse</text>
</g>
<!-- equine -->
<g id="node2" class="node">
<title>equine</title>
<ellipse fill="#b2dfee" stroke="#b2dfee" cx="76.6932" cy="-954" rx="34.394" ry="18"/>
<text text-anchor="middle" x="76.6932" y="-950.3" font-family="Times,serif" font-size="14.00" fill="#000000">equine</text>
</g>
<!-- horse&#45;&gt;equine -->
<g id="edge1" class="edge">
<title>horse&#45;&gt;equine</title>
<path fill="none" stroke="#000000" d="M76.6932,-1007.8314C76.6932,-1000.131 76.6932,-990.9743 76.6932,-982.4166"/>
<polygon fill="#000000" stroke="#000000" points="80.1933,-982.4132 76.6932,-972.4133 73.1933,-982.4133 80.1933,-982.4132"/>
</g>
<!-- odd&#45;toed_ungulate -->
<g id="node3" class="node">
<title>odd&#45;toed_ungulate</title>
<ellipse fill="#b2dfee" stroke="#b2dfee" cx="76.6932" cy="-882" rx="76.8869" ry="18"/>
<text text-anchor="middle" x="76.6932" y="-878.3" font-family="Times,serif" font-size="14.00" fill="#000000">odd&#45;toed_ungulate</text>
</g>
<!-- equine&#45;&gt;odd&#45;toed_ungulate -->
<g id="edge2" class="edge">
<title>equine&#45;&gt;odd&#45;toed_ungulate</title>
<path fill="none" stroke="#000000" d="M76.6932,-935.8314C76.6932,-928.131 76.6932,-918.9743 76.6932,-910.4166"/>
<polygon fill="#000000" stroke="#000000" points="80.1933,-910.4132 76.6932,-900.4133 73.1933,-910.4133 80.1933,-910.4132"/>
</g>
<!-- ungulate -->
<g id="node4" class="node">
<title>ungulate</title>
<ellipse fill="#b2dfee" stroke="#b2dfee" cx="76.6932" cy="-810" rx="40.8928" ry="18"/>
<text text-anchor="middle" x="76.6932" y="-806.3" font-family="Times,serif" font-size="14.00" fill="#000000">ungulate</text>
</g>
<!-- odd&#45;toed_ungulate&#45;&gt;ungulate -->
<g id="edge3" class="edge">
<title>odd&#45;toed_ungulate&#45;&gt;ungulate</title>
<path fill="none" stroke="#000000" d="M76.6932,-863.8314C76.6932,-856.131 76.6932,-846.9743 76.6932,-838.4166"/>
<polygon fill="#000000" stroke="#000000" points="80.1933,-838.4132 76.6932,-828.4133 73.1933,-838.4133 80.1933,-838.4132"/>
</g>
<!-- placental -->
<g id="node5" class="node">
<title>placental</title>
<ellipse fill="#b2dfee" stroke="#b2dfee" cx="76.6932" cy="-738" rx="42.4939" ry="18"/>
<text text-anchor="middle" x="76.6932" y="-734.3" font-family="Times,serif" font-size="14.00" fill="#000000">placental</text>
</g>
<!-- ungulate&#45;&gt;placental -->
<g id="edge4" class="edge">
<title>ungulate&#45;&gt;placental</title>
<path fill="none" stroke="#000000" d="M76.6932,-791.8314C76.6932,-784.131 76.6932,-774.9743 76.6932,-766.4166"/>
<polygon fill="#000000" stroke="#000000" points="80.1933,-766.4132 76.6932,-756.4133 73.1933,-766.4133 80.1933,-766.4132"/>
</g>
<!-- mammal -->
<g id="node6" class="node">
<title>mammal</title>
<ellipse fill="#b2dfee" stroke="#b2dfee" cx="76.6932" cy="-666" rx="42.7926" ry="18"/>
<text text-anchor="middle" x="76.6932" y="-662.3" font-family="Times,serif" font-size="14.00" fill="#000000">mammal</text>
</g>
<!-- placental&#45;&gt;mammal -->
<g id="edge5" class="edge">
<title>placental&#45;&gt;mammal</title>
<path fill="none" stroke="#000000" d="M76.6932,-719.8314C76.6932,-712.131 76.6932,-702.9743 76.6932,-694.4166"/>
<polygon fill="#000000" stroke="#000000" points="80.1933,-694.4132 76.6932,-684.4133 73.1933,-694.4133 80.1933,-694.4132"/>
</g>
<!-- vertebrate -->
<g id="node7" class="node">
<title>vertebrate</title>
<ellipse fill="#b2dfee" stroke="#b2dfee" cx="76.6932" cy="-594" rx="46.2923" ry="18"/>
<text text-anchor="middle" x="76.6932" y="-590.3" font-family="Times,serif" font-size="14.00" fill="#000000">vertebrate</text>
</g>
<!-- mammal&#45;&gt;vertebrate -->
<g id="edge6" class="edge">
<title>mammal&#45;&gt;vertebrate</title>
<path fill="none" stroke="#000000" d="M76.6932,-647.8314C76.6932,-640.131 76.6932,-630.9743 76.6932,-622.4166"/>
<polygon fill="#000000" stroke="#000000" points="80.1933,-622.4132 76.6932,-612.4133 73.1933,-622.4133 80.1933,-622.4132"/>
</g>
<!-- chordate -->
<g id="node8" class="node">
<title>chordate</title>
<ellipse fill="#b2dfee" stroke="#b2dfee" cx="76.6932" cy="-522" rx="40.8928" ry="18"/>
<text text-anchor="middle" x="76.6932" y="-518.3" font-family="Times,serif" font-size="14.00" fill="#000000">chordate</text>
</g>
<!-- vertebrate&#45;&gt;chordate -->
<g id="edge7" class="edge">
<title>vertebrate&#45;&gt;chordate</title>
<path fill="none" stroke="#000000" d="M76.6932,-575.8314C76.6932,-568.131 76.6932,-558.9743 76.6932,-550.4166"/>
<polygon fill="#000000" stroke="#000000" points="80.1933,-550.4132 76.6932,-540.4133 73.1933,-550.4133 80.1933,-550.4132"/>
</g>
<!-- animal -->
<g id="node9" class="node">
<title>animal</title>
<ellipse fill="#b2dfee" stroke="#b2dfee" cx="76.6932" cy="-450" rx="35.194" ry="18"/>
<text text-anchor="middle" x="76.6932" y="-446.3" font-family="Times,serif" font-size="14.00" fill="#000000">animal</text>
</g>
<!-- chordate&#45;&gt;animal -->
<g id="edge8" class="edge">
<title>chordate&#45;&gt;animal</title>
<path fill="none" stroke="#000000" d="M76.6932,-503.8314C76.6932,-496.131 76.6932,-486.9743 76.6932,-478.4166"/>
<polygon fill="#000000" stroke="#000000" points="80.1933,-478.4132 76.6932,-468.4133 73.1933,-478.4133 80.1933,-478.4132"/>
</g>
<!-- organism -->
<g id="node10" class="node">
<title>organism</title>
<ellipse fill="#b2dfee" stroke="#b2dfee" cx="76.6932" cy="-378" rx="44.393" ry="18"/>
<text text-anchor="middle" x="76.6932" y="-374.3" font-family="Times,serif" font-size="14.00" fill="#000000">organism</text>
</g>
<!-- animal&#45;&gt;organism -->
<g id="edge9" class="edge">
<title>animal&#45;&gt;organism</title>
<path fill="none" stroke="#000000" d="M76.6932,-431.8314C76.6932,-424.131 76.6932,-414.9743 76.6932,-406.4166"/>
<polygon fill="#000000" stroke="#000000" points="80.1933,-406.4132 76.6932,-396.4133 73.1933,-406.4133 80.1933,-406.4132"/>
</g>
<!-- living_thing -->
<g id="node11" class="node">
<title>living_thing</title>
<ellipse fill="#b2dfee" stroke="#b2dfee" cx="76.6932" cy="-306" rx="53.8905" ry="18"/>
<text text-anchor="middle" x="76.6932" y="-302.3" font-family="Times,serif" font-size="14.00" fill="#000000">living_thing</text>
</g>
<!-- organism&#45;&gt;living_thing -->
<g id="edge10" class="edge">
<title>organism&#45;&gt;living_thing</title>
<path fill="none" stroke="#000000" d="M76.6932,-359.8314C76.6932,-352.131 76.6932,-342.9743 76.6932,-334.4166"/>
<polygon fill="#000000" stroke="#000000" points="80.1933,-334.4132 76.6932,-324.4133 73.1933,-334.4133 80.1933,-334.4132"/>
</g>
<!-- whole -->
<g id="node12" class="node">
<title>whole</title>
<ellipse fill="#b2dfee" stroke="#b2dfee" cx="76.6932" cy="-234" rx="32.4942" ry="18"/>
<text text-anchor="middle" x="76.6932" y="-230.3" font-family="Times,serif" font-size="14.00" fill="#000000">whole</text>
</g>
<!-- living_thing&#45;&gt;whole -->
<g id="edge11" class="edge">
<title>living_thing&#45;&gt;whole</title>
<path fill="none" stroke="#000000" d="M76.6932,-287.8314C76.6932,-280.131 76.6932,-270.9743 76.6932,-262.4166"/>
<polygon fill="#000000" stroke="#000000" points="80.1933,-262.4132 76.6932,-252.4133 73.1933,-262.4133 80.1933,-262.4132"/>
</g>
<!-- object -->
<g id="node13" class="node">
<title>object</title>
<ellipse fill="#b2dfee" stroke="#b2dfee" cx="76.6932" cy="-162" rx="32.4942" ry="18"/>
<text text-anchor="middle" x="76.6932" y="-158.3" font-family="Times,serif" font-size="14.00" fill="#000000">object</text>
</g>
<!-- whole&#45;&gt;object -->
<g id="edge12" class="edge">
<title>whole&#45;&gt;object</title>
<path fill="none" stroke="#000000" d="M76.6932,-215.8314C76.6932,-208.131 76.6932,-198.9743 76.6932,-190.4166"/>
<polygon fill="#000000" stroke="#000000" points="80.1933,-190.4132 76.6932,-180.4133 73.1933,-190.4133 80.1933,-190.4132"/>
</g>
<!-- physical_entity -->
<g id="node14" class="node">
<title>physical_entity</title>
<ellipse fill="#b2dfee" stroke="#b2dfee" cx="76.6932" cy="-90" rx="64.189" ry="18"/>
<text text-anchor="middle" x="76.6932" y="-86.3" font-family="Times,serif" font-size="14.00" fill="#000000">physical_entity</text>
</g>
<!-- object&#45;&gt;physical_entity -->
<g id="edge13" class="edge">
<title>object&#45;&gt;physical_entity</title>
<path fill="none" stroke="#000000" d="M76.6932,-143.8314C76.6932,-136.131 76.6932,-126.9743 76.6932,-118.4166"/>
<polygon fill="#000000" stroke="#000000" points="80.1933,-118.4132 76.6932,-108.4133 73.1933,-118.4133 80.1933,-118.4132"/>
</g>
<!-- entity -->
<g id="node15" class="node">
<title>entity</title>
<ellipse fill="#b2dfee" stroke="#b2dfee" cx="76.6932" cy="-18" rx="30.5947" ry="18"/>
<text text-anchor="middle" x="76.6932" y="-14.3" font-family="Times,serif" font-size="14.00" fill="#000000">entity</text>
</g>
<!-- physical_entity&#45;&gt;entity -->
<g id="edge14" class="edge">
<title>physical_entity&#45;&gt;entity</title>
<path fill="none" stroke="#000000" d="M76.6932,-71.8314C76.6932,-64.131 76.6932,-54.9743 76.6932,-46.4166"/>
<polygon fill="#000000" stroke="#000000" points="80.1933,-46.4132 76.6932,-36.4133 73.1933,-46.4133 80.1933,-46.4132"/>
</g>
</g>
</svg>
