<?xml version="1.0" encoding="UTF-8" standalone="no"?>
<!DOCTYPE svg PUBLIC "-//W3C//DTD SVG 1.1//EN"
 "http://www.w3.org/Graphics/SVG/1.1/DTD/svg11.dtd">
<!-- Generated by graphviz version 2.40.1 (20161225.0304)
 -->
<!-- Title: unix Pages: 1 -->
<svg width="128pt" height="432pt"
 viewBox="0.00 0.00 127.96 432.00" xmlns="http://www.w3.org/2000/svg" xmlns:xlink="http://www.w3.org/1999/xlink">
<g id="graph0" class="graph" transform="scale(.6968 .6968) rotate(0) translate(4 616)">
<title>unix</title>
<polygon fill="#ffffff" stroke="transparent" points="-4,4 -4,-616 179.643,-616 179.643,4 -4,4"/>
<!-- house -->
<g id="node1" class="node">
<title>house</title>
<ellipse fill="#b2dfee" stroke="#b2dfee" cx="88.2964" cy="-594" rx="31.3957" ry="18"/>
<text text-anchor="middle" x="88.2964" y="-590.3" font-family="Times,serif" font-size="14.00" fill="#000000">house</text>
</g>
<!-- building -->
<g id="node2" class="node">
<title>building</title>
<ellipse fill="#b2dfee" stroke="#b2dfee" cx="40.2964" cy="-450" rx="40.0939" ry="18"/>
<text text-anchor="middle" x="40.2964" y="-446.3" font-family="Times,serif" font-size="14.00" fill="#000000">building</text>
</g>
<!-- house&#45;&gt;building -->
<g id="edge1" class="edge">
<title>house&#45;&gt;building</title>
<path fill="none" stroke="#000000" d="M82.3142,-576.0535C74.0863,-551.3696 59.2001,-506.7111 49.5353,-477.7167"/>
<polygon fill="#000000" stroke="#000000" points="52.8367,-476.5527 46.354,-468.1727 46.1959,-478.7664 52.8367,-476.5527"/>
</g>
<!-- dwelling -->
<g id="node9" class="node">
<title>dwelling</title>
<ellipse fill="#b2dfee" stroke="#b2dfee" cx="130.2964" cy="-522" rx="41.6928" ry="18"/>
<text text-anchor="middle" x="130.2964" y="-518.3" font-family="Times,serif" font-size="14.00" fill="#000000">dwelling</text>
</g>
<!-- house&#45;&gt;dwelling -->
<g id="edge8" class="edge">
<title>house&#45;&gt;dwelling</title>
<path fill="none" stroke="#000000" d="M98.2498,-576.937C103.2132,-568.4284 109.3275,-557.9468 114.8801,-548.4279"/>
<polygon fill="#000000" stroke="#000000" points="117.9603,-550.0938 119.9758,-539.6924 111.9139,-546.5667 117.9603,-550.0938"/>
</g>
<!-- structure -->
<g id="node3" class="node">
<title>structure</title>
<ellipse fill="#b2dfee" stroke="#b2dfee" cx="88.2964" cy="-378" rx="41.6928" ry="18"/>
<text text-anchor="middle" x="88.2964" y="-374.3" font-family="Times,serif" font-size="14.00" fill="#000000">structure</text>
</g>
<!-- building&#45;&gt;structure -->
<g id="edge2" class="edge">
<title>building&#45;&gt;structure</title>
<path fill="none" stroke="#000000" d="M51.9159,-432.5708C57.6514,-423.9675 64.686,-413.4156 71.0357,-403.8911"/>
<polygon fill="#000000" stroke="#000000" points="73.9827,-405.7802 76.6176,-395.5182 68.1584,-401.8973 73.9827,-405.7802"/>
</g>
<!-- artifact -->
<g id="node4" class="node">
<title>artifact</title>
<ellipse fill="#b2dfee" stroke="#b2dfee" cx="88.2964" cy="-306" rx="35.9954" ry="18"/>
<text text-anchor="middle" x="88.2964" y="-302.3" font-family="Times,serif" font-size="14.00" fill="#000000">artifact</text>
</g>
<!-- structure&#45;&gt;artifact -->
<g id="edge3" class="edge">
<title>structure&#45;&gt;artifact</title>
<path fill="none" stroke="#000000" d="M88.2964,-359.8314C88.2964,-352.131 88.2964,-342.9743 88.2964,-334.4166"/>
<polygon fill="#000000" stroke="#000000" points="91.7965,-334.4132 88.2964,-324.4133 84.7965,-334.4133 91.7965,-334.4132"/>
</g>
<!-- whole -->
<g id="node5" class="node">
<title>whole</title>
<ellipse fill="#b2dfee" stroke="#b2dfee" cx="88.2964" cy="-234" rx="32.4942" ry="18"/>
<text text-anchor="middle" x="88.2964" y="-230.3" font-family="Times,serif" font-size="14.00" fill="#000000">whole</text>
</g>
<!-- artifact&#45;&gt;whole -->
<g id="edge4" class="edge">
<title>artifact&#45;&gt;whole</title>
<path fill="none" stroke="#000000" d="M88.2964,-287.8314C88.2964,-280.131 88.2964,-270.9743 88.2964,-262.4166"/>
<polygon fill="#000000" stroke="#000000" points="91.7965,-262.4132 88.2964,-252.4133 84.7965,-262.4133 91.7965,-262.4132"/>
</g>
<!-- object -->
<g id="node6" class="node">
<title>object</title>
<ellipse fill="#b2dfee" stroke="#b2dfee" cx="88.2964" cy="-162" rx="32.4942" ry="18"/>
<text text-anchor="middle" x="88.2964" y="-158.3" font-family="Times,serif" font-size="14.00" fill="#000000">object</text>
</g>
<!-- whole&#45;&gt;object -->
<g id="edge5" class="edge">
<title>whole&#45;&gt;object</title>
<path fill="none" stroke="#000000" d="M88.2964,-215.8314C88.2964,-208.131 88.2964,-198.9743 88.2964,-190.4166"/>
<polygon fill="#000000" stroke="#000000" points="91.7965,-190.4132 88.2964,-180.4133 84.7965,-190.4133 91.7965,-190.4132"/>
</g>
<!-- physical_entity -->
<g id="node7" class="node">
<title>physical_entity</title>
<ellipse fill="#b2dfee" stroke="#b2dfee" cx="88.2964" cy="-90" rx="64.189" ry="18"/>
<text text-anchor="middle" x="88.2964" y="-86.3" font-family="Times,serif" font-size="14.00" fill="#000000">physical_entity</text>
</g>
<!-- object&#45;&gt;physical_entity -->
<g id="edge6" class="edge">
<title>object&#45;&gt;physical_entity</title>
<path fill="none" stroke="#000000" d="M88.2964,-143.8314C88.2964,-136.131 88.2964,-126.9743 88.2964,-118.4166"/>
<polygon fill="#000000" stroke="#000000" points="91.7965,-118.4132 88.2964,-108.4133 84.7965,-118.4133 91.7965,-118.4132"/>
</g>
<!-- entity -->
<g id="node8" class="node">
<title>entity</title>
<ellipse fill="#b2dfee" stroke="#b2dfee" cx="88.2964" cy="-18" rx="30.5947" ry="18"/>
<text text-anchor="middle" x="88.2964" y="-14.3" font-family="Times,serif" font-size="14.00" fill="#000000">entity</text>
</g>
<!-- physical_entity&#45;&gt;entity -->
<g id="edge7" class="edge">
<title>physical_entity&#45;&gt;entity</title>
<path fill="none" stroke="#000000" d="M88.2964,-71.8314C88.2964,-64.131 88.2964,-54.9743 88.2964,-46.4166"/>
<polygon fill="#000000" stroke="#000000" points="91.7965,-46.4132 88.2964,-36.4133 84.7965,-46.4133 91.7965,-46.4132"/>
</g>
<!-- housing -->
<g id="node10" class="node">
<title>housing</title>
<ellipse fill="#b2dfee" stroke="#b2dfee" cx="137.2964" cy="-450" rx="38.1938" ry="18"/>
<text text-anchor="middle" x="137.2964" y="-446.3" font-family="Times,serif" font-size="14.00" fill="#000000">housing</text>
</g>
<!-- dwelling&#45;&gt;housing -->
<g id="edge9" class="edge">
<title>dwelling&#45;&gt;housing</title>
<path fill="none" stroke="#000000" d="M132.0628,-503.8314C132.8115,-496.131 133.7017,-486.9743 134.5337,-478.4166"/>
<polygon fill="#000000" stroke="#000000" points="138.0221,-478.7051 135.5062,-468.4133 131.0549,-478.0276 138.0221,-478.7051"/>
</g>
<!-- housing&#45;&gt;structure -->
<g id="edge10" class="edge">
<title>housing&#45;&gt;structure</title>
<path fill="none" stroke="#000000" d="M125.4349,-432.5708C119.5365,-423.9038 112.2923,-413.2592 105.7728,-403.6796"/>
<polygon fill="#000000" stroke="#000000" points="108.5685,-401.5666 100.0487,-395.2687 102.7815,-405.505 108.5685,-401.5666"/>
</g>
</g>
</svg>
