<?xml version="1.0" encoding="UTF-8" standalone="no"?>
<!DOCTYPE svg PUBLIC "-//W3C//DTD SVG 1.1//EN"
 "http://www.w3.org/Graphics/SVG/1.1/DTD/svg11.dtd">
<!-- Generated by graphviz version 2.40.1 (20161225.0304)
 -->
<!-- Title: unix Pages: 1 -->
<svg width="97pt" height="432pt"
 viewBox="0.00 0.00 96.92 432.00" xmlns="http://www.w3.org/2000/svg" xmlns:xlink="http://www.w3.org/1999/xlink">
<g id="graph0" class="graph" transform="scale(.9076 .9076) rotate(0) translate(4 472)">
<title>unix</title>
<polygon fill="#ffffff" stroke="transparent" points="-4,4 -4,-472 102.7912,-472 102.7912,4 -4,4"/>
<!-- support -->
<g id="node1" class="node">
<title>support</title>
<ellipse fill="#b2dfee" stroke="#b2dfee" cx="49.3956" cy="-450" rx="37.0935" ry="18"/>
<text text-anchor="middle" x="49.3956" y="-446.3" font-family="Times,serif" font-size="14.00" fill="#000000">support</text>
</g>
<!-- resource -->
<g id="node2" class="node">
<title>resource</title>
<ellipse fill="#b2dfee" stroke="#b2dfee" cx="49.3956" cy="-378" rx="40.0939" ry="18"/>
<text text-anchor="middle" x="49.3956" y="-374.3" font-family="Times,serif" font-size="14.00" fill="#000000">resource</text>
</g>
<!-- support&#45;&gt;resource -->
<g id="edge1" class="edge">
<title>support&#45;&gt;resource</title>
<path fill="none" stroke="#000000" d="M49.3956,-431.8314C49.3956,-424.131 49.3956,-414.9743 49.3956,-406.4166"/>
<polygon fill="#000000" stroke="#000000" points="52.8957,-406.4132 49.3956,-396.4133 45.8957,-406.4133 52.8957,-406.4132"/>
</g>
<!-- assets -->
<g id="node3" class="node">
<title>assets</title>
<ellipse fill="#b2dfee" stroke="#b2dfee" cx="49.3956" cy="-306" rx="31.3957" ry="18"/>
<text text-anchor="middle" x="49.3956" y="-302.3" font-family="Times,serif" font-size="14.00" fill="#000000">assets</text>
</g>
<!-- resource&#45;&gt;assets -->
<g id="edge2" class="edge">
<title>resource&#45;&gt;assets</title>
<path fill="none" stroke="#000000" d="M49.3956,-359.8314C49.3956,-352.131 49.3956,-342.9743 49.3956,-334.4166"/>
<polygon fill="#000000" stroke="#000000" points="52.8957,-334.4132 49.3956,-324.4133 45.8957,-334.4133 52.8957,-334.4132"/>
</g>
<!-- possession -->
<g id="node4" class="node">
<title>possession</title>
<ellipse fill="#b2dfee" stroke="#b2dfee" cx="49.3956" cy="-234" rx="48.1917" ry="18"/>
<text text-anchor="middle" x="49.3956" y="-230.3" font-family="Times,serif" font-size="14.00" fill="#000000">possession</text>
</g>
<!-- assets&#45;&gt;possession -->
<g id="edge3" class="edge">
<title>assets&#45;&gt;possession</title>
<path fill="none" stroke="#000000" d="M49.3956,-287.8314C49.3956,-280.131 49.3956,-270.9743 49.3956,-262.4166"/>
<polygon fill="#000000" stroke="#000000" points="52.8957,-262.4132 49.3956,-252.4133 45.8957,-262.4133 52.8957,-262.4132"/>
</g>
<!-- relation -->
<g id="node5" class="node">
<title>relation</title>
<ellipse fill="#b2dfee" stroke="#b2dfee" cx="49.3956" cy="-162" rx="37.8943" ry="18"/>
<text text-anchor="middle" x="49.3956" y="-158.3" font-family="Times,serif" font-size="14.00" fill="#000000">relation</text>
</g>
<!-- possession&#45;&gt;relation -->
<g id="edge4" class="edge">
<title>possession&#45;&gt;relation</title>
<path fill="none" stroke="#000000" d="M49.3956,-215.8314C49.3956,-208.131 49.3956,-198.9743 49.3956,-190.4166"/>
<polygon fill="#000000" stroke="#000000" points="52.8957,-190.4132 49.3956,-180.4133 45.8957,-190.4133 52.8957,-190.4132"/>
</g>
<!-- abstraction -->
<g id="node6" class="node">
<title>abstraction</title>
<ellipse fill="#b2dfee" stroke="#b2dfee" cx="49.3956" cy="-90" rx="49.2915" ry="18"/>
<text text-anchor="middle" x="49.3956" y="-86.3" font-family="Times,serif" font-size="14.00" fill="#000000">abstraction</text>
</g>
<!-- relation&#45;&gt;abstraction -->
<g id="edge5" class="edge">
<title>relation&#45;&gt;abstraction</title>
<path fill="none" stroke="#000000" d="M49.3956,-143.8314C49.3956,-136.131 49.3956,-126.9743 49.3956,-118.4166"/>
<polygon fill="#000000" stroke="#000000" points="52.8957,-118.4132 49.3956,-108.4133 45.8957,-118.4133 52.8957,-118.4132"/>
</g>
<!-- entity -->
<g id="node7" class="node">
<title>entity</title>
<ellipse fill="#b2dfee" stroke="#b2dfee" cx="49.3956" cy="-18" rx="30.5947" ry="18"/>
<text text-anchor="middle" x="49.3956" y="-14.3" font-family="Times,serif" font-size="14.00" fill="#000000">entity</text>
</g>
<!-- abstraction&#45;&gt;entity -->
<g id="edge6" class="edge">
<title>abstraction&#45;&gt;entity</title>
<path fill="none" stroke="#000000" d="M49.3956,-71.8314C49.3956,-64.131 49.3956,-54.9743 49.3956,-46.4166"/>
<polygon fill="#000000" stroke="#000000" points="52.8957,-46.4132 49.3956,-36.4133 45.8957,-46.4133 52.8957,-46.4132"/>
</g>
</g>
</svg>
