<?xml version="1.0" encoding="UTF-8" standalone="no"?>
<!DOCTYPE svg PUBLIC "-//W3C//DTD SVG 1.1//EN"
 "http://www.w3.org/Graphics/SVG/1.1/DTD/svg11.dtd">
<!-- Generated by graphviz version 2.40.1 (20161225.0304)
 -->
<!-- Title: unix Pages: 1 -->
<svg width="165pt" height="432pt"
 viewBox="0.00 0.00 165.14 432.00" xmlns="http://www.w3.org/2000/svg" xmlns:xlink="http://www.w3.org/1999/xlink">
<g id="graph0" class="graph" transform="scale(.7883 .7883) rotate(0) translate(4 544)">
<title>unix</title>
<polygon fill="#ffffff" stroke="transparent" points="-4,4 -4,-544 205.4821,-544 205.4821,4 -4,4"/>
<!-- know -->
<g id="node1" class="node">
<title>know</title>
<ellipse fill="#b2dfee" stroke="#b2dfee" cx="100.7411" cy="-522" rx="30.5947" ry="18"/>
<text text-anchor="middle" x="100.7411" y="-518.3" font-family="Times,serif" font-size="14.00" fill="#000000">know</text>
</g>
<!-- knowing -->
<g id="node2" class="node">
<title>knowing</title>
<ellipse fill="#b2dfee" stroke="#b2dfee" cx="100.7411" cy="-450" rx="41.6928" ry="18"/>
<text text-anchor="middle" x="100.7411" y="-446.3" font-family="Times,serif" font-size="14.00" fill="#000000">knowing</text>
</g>
<!-- know&#45;&gt;knowing -->
<g id="edge1" class="edge">
<title>know&#45;&gt;knowing</title>
<path fill="none" stroke="#000000" d="M100.7411,-503.8314C100.7411,-496.131 100.7411,-486.9743 100.7411,-478.4166"/>
<polygon fill="#000000" stroke="#000000" points="104.2412,-478.4132 100.7411,-468.4133 97.2412,-478.4133 104.2412,-478.4132"/>
</g>
<!-- higher_cognitive_process -->
<g id="node3" class="node">
<title>higher_cognitive_process</title>
<ellipse fill="#b2dfee" stroke="#b2dfee" cx="100.7411" cy="-378" rx="100.9827" ry="18"/>
<text text-anchor="middle" x="100.7411" y="-374.3" font-family="Times,serif" font-size="14.00" fill="#000000">higher_cognitive_process</text>
</g>
<!-- knowing&#45;&gt;higher_cognitive_process -->
<g id="edge2" class="edge">
<title>knowing&#45;&gt;higher_cognitive_process</title>
<path fill="none" stroke="#000000" d="M100.7411,-431.8314C100.7411,-424.131 100.7411,-414.9743 100.7411,-406.4166"/>
<polygon fill="#000000" stroke="#000000" points="104.2412,-406.4132 100.7411,-396.4133 97.2412,-406.4133 104.2412,-406.4132"/>
</g>
<!-- process -->
<g id="node4" class="node">
<title>process</title>
<ellipse fill="#b2dfee" stroke="#b2dfee" cx="100.7411" cy="-306" rx="37.0935" ry="18"/>
<text text-anchor="middle" x="100.7411" y="-302.3" font-family="Times,serif" font-size="14.00" fill="#000000">process</text>
</g>
<!-- higher_cognitive_process&#45;&gt;process -->
<g id="edge3" class="edge">
<title>higher_cognitive_process&#45;&gt;process</title>
<path fill="none" stroke="#000000" d="M100.7411,-359.8314C100.7411,-352.131 100.7411,-342.9743 100.7411,-334.4166"/>
<polygon fill="#000000" stroke="#000000" points="104.2412,-334.4132 100.7411,-324.4133 97.2412,-334.4133 104.2412,-334.4132"/>
</g>
<!-- cognition -->
<g id="node5" class="node">
<title>cognition</title>
<ellipse fill="#b2dfee" stroke="#b2dfee" cx="100.7411" cy="-234" rx="44.393" ry="18"/>
<text text-anchor="middle" x="100.7411" y="-230.3" font-family="Times,serif" font-size="14.00" fill="#000000">cognition</text>
</g>
<!-- process&#45;&gt;cognition -->
<g id="edge4" class="edge">
<title>process&#45;&gt;cognition</title>
<path fill="none" stroke="#000000" d="M100.7411,-287.8314C100.7411,-280.131 100.7411,-270.9743 100.7411,-262.4166"/>
<polygon fill="#000000" stroke="#000000" points="104.2412,-262.4132 100.7411,-252.4133 97.2412,-262.4133 104.2412,-262.4132"/>
</g>
<!-- psychological_feature -->
<g id="node6" class="node">
<title>psychological_feature</title>
<ellipse fill="#b2dfee" stroke="#b2dfee" cx="100.7411" cy="-162" rx="88.2844" ry="18"/>
<text text-anchor="middle" x="100.7411" y="-158.3" font-family="Times,serif" font-size="14.00" fill="#000000">psychological_feature</text>
</g>
<!-- cognition&#45;&gt;psychological_feature -->
<g id="edge5" class="edge">
<title>cognition&#45;&gt;psychological_feature</title>
<path fill="none" stroke="#000000" d="M100.7411,-215.8314C100.7411,-208.131 100.7411,-198.9743 100.7411,-190.4166"/>
<polygon fill="#000000" stroke="#000000" points="104.2412,-190.4132 100.7411,-180.4133 97.2412,-190.4133 104.2412,-190.4132"/>
</g>
<!-- abstraction -->
<g id="node7" class="node">
<title>abstraction</title>
<ellipse fill="#b2dfee" stroke="#b2dfee" cx="100.7411" cy="-90" rx="49.2915" ry="18"/>
<text text-anchor="middle" x="100.7411" y="-86.3" font-family="Times,serif" font-size="14.00" fill="#000000">abstraction</text>
</g>
<!-- psychological_feature&#45;&gt;abstraction -->
<g id="edge6" class="edge">
<title>psychological_feature&#45;&gt;abstraction</title>
<path fill="none" stroke="#000000" d="M100.7411,-143.8314C100.7411,-136.131 100.7411,-126.9743 100.7411,-118.4166"/>
<polygon fill="#000000" stroke="#000000" points="104.2412,-118.4132 100.7411,-108.4133 97.2412,-118.4133 104.2412,-118.4132"/>
</g>
<!-- entity -->
<g id="node8" class="node">
<title>entity</title>
<ellipse fill="#b2dfee" stroke="#b2dfee" cx="100.7411" cy="-18" rx="30.5947" ry="18"/>
<text text-anchor="middle" x="100.7411" y="-14.3" font-family="Times,serif" font-size="14.00" fill="#000000">entity</text>
</g>
<!-- abstraction&#45;&gt;entity -->
<g id="edge7" class="edge">
<title>abstraction&#45;&gt;entity</title>
<path fill="none" stroke="#000000" d="M100.7411,-71.8314C100.7411,-64.131 100.7411,-54.9743 100.7411,-46.4166"/>
<polygon fill="#000000" stroke="#000000" points="104.2412,-46.4132 100.7411,-36.4133 97.2412,-46.4133 104.2412,-46.4132"/>
</g>
</g>
</svg>
