<?xml version="1.0" encoding="UTF-8" standalone="no"?>
<!DOCTYPE svg PUBLIC "-//W3C//DTD SVG 1.1//EN"
 "http://www.w3.org/Graphics/SVG/1.1/DTD/svg11.dtd">
<!-- Generated by graphviz version 2.40.1 (20161225.0304)
 -->
<!-- Title: unix Pages: 1 -->
<svg width="121pt" height="432pt"
 viewBox="0.00 0.00 120.66 432.00" xmlns="http://www.w3.org/2000/svg" xmlns:xlink="http://www.w3.org/1999/xlink">
<g id="graph0" class="graph" transform="scale(.5654 .5654) rotate(0) translate(4 760)">
<title>unix</title>
<polygon fill="#ffffff" stroke="transparent" points="-4,4 -4,-760 209.3818,-760 209.3818,4 -4,4"/>
<!-- light -->
<g id="node1" class="node">
<title>light</title>
<ellipse fill="#b2dfee" stroke="#b2dfee" cx="102.6909" cy="-738" rx="27" ry="18"/>
<text text-anchor="middle" x="102.6909" y="-734.3" font-family="Times,serif" font-size="14.00" fill="#000000">light</text>
</g>
<!-- actinic_radiation -->
<g id="node2" class="node">
<title>actinic_radiation</title>
<ellipse fill="#b2dfee" stroke="#b2dfee" cx="102.6909" cy="-666" rx="69.5877" ry="18"/>
<text text-anchor="middle" x="102.6909" y="-662.3" font-family="Times,serif" font-size="14.00" fill="#000000">actinic_radiation</text>
</g>
<!-- light&#45;&gt;actinic_radiation -->
<g id="edge1" class="edge">
<title>light&#45;&gt;actinic_radiation</title>
<path fill="none" stroke="#000000" d="M102.6909,-719.8314C102.6909,-712.131 102.6909,-702.9743 102.6909,-694.4166"/>
<polygon fill="#000000" stroke="#000000" points="106.191,-694.4132 102.6909,-684.4133 99.191,-694.4133 106.191,-694.4132"/>
</g>
<!-- electromagnetic_radiation -->
<g id="node3" class="node">
<title>electromagnetic_radiation</title>
<ellipse fill="#b2dfee" stroke="#b2dfee" cx="102.6909" cy="-594" rx="102.8821" ry="18"/>
<text text-anchor="middle" x="102.6909" y="-590.3" font-family="Times,serif" font-size="14.00" fill="#000000">electromagnetic_radiation</text>
</g>
<!-- actinic_radiation&#45;&gt;electromagnetic_radiation -->
<g id="edge2" class="edge">
<title>actinic_radiation&#45;&gt;electromagnetic_radiation</title>
<path fill="none" stroke="#000000" d="M102.6909,-647.8314C102.6909,-640.131 102.6909,-630.9743 102.6909,-622.4166"/>
<polygon fill="#000000" stroke="#000000" points="106.191,-622.4132 102.6909,-612.4133 99.191,-622.4133 106.191,-622.4132"/>
</g>
<!-- radiation -->
<g id="node4" class="node">
<title>radiation</title>
<ellipse fill="#b2dfee" stroke="#b2dfee" cx="102.6909" cy="-522" rx="42.4939" ry="18"/>
<text text-anchor="middle" x="102.6909" y="-518.3" font-family="Times,serif" font-size="14.00" fill="#000000">radiation</text>
</g>
<!-- electromagnetic_radiation&#45;&gt;radiation -->
<g id="edge3" class="edge">
<title>electromagnetic_radiation&#45;&gt;radiation</title>
<path fill="none" stroke="#000000" d="M102.6909,-575.8314C102.6909,-568.131 102.6909,-558.9743 102.6909,-550.4166"/>
<polygon fill="#000000" stroke="#000000" points="106.191,-550.4132 102.6909,-540.4133 99.191,-550.4133 106.191,-550.4132"/>
</g>
<!-- energy -->
<g id="node5" class="node">
<title>energy</title>
<ellipse fill="#b2dfee" stroke="#b2dfee" cx="102.6909" cy="-450" rx="34.394" ry="18"/>
<text text-anchor="middle" x="102.6909" y="-446.3" font-family="Times,serif" font-size="14.00" fill="#000000">energy</text>
</g>
<!-- radiation&#45;&gt;energy -->
<g id="edge4" class="edge">
<title>radiation&#45;&gt;energy</title>
<path fill="none" stroke="#000000" d="M102.6909,-503.8314C102.6909,-496.131 102.6909,-486.9743 102.6909,-478.4166"/>
<polygon fill="#000000" stroke="#000000" points="106.191,-478.4132 102.6909,-468.4133 99.191,-478.4133 106.191,-478.4132"/>
</g>
<!-- physical_phenomenon -->
<g id="node6" class="node">
<title>physical_phenomenon</title>
<ellipse fill="#b2dfee" stroke="#b2dfee" cx="102.6909" cy="-378" rx="90.1842" ry="18"/>
<text text-anchor="middle" x="102.6909" y="-374.3" font-family="Times,serif" font-size="14.00" fill="#000000">physical_phenomenon</text>
</g>
<!-- energy&#45;&gt;physical_phenomenon -->
<g id="edge5" class="edge">
<title>energy&#45;&gt;physical_phenomenon</title>
<path fill="none" stroke="#000000" d="M102.6909,-431.8314C102.6909,-424.131 102.6909,-414.9743 102.6909,-406.4166"/>
<polygon fill="#000000" stroke="#000000" points="106.191,-406.4132 102.6909,-396.4133 99.191,-406.4133 106.191,-406.4132"/>
</g>
<!-- natural_phenomenon -->
<g id="node7" class="node">
<title>natural_phenomenon</title>
<ellipse fill="#b2dfee" stroke="#b2dfee" cx="102.6909" cy="-306" rx="85.2851" ry="18"/>
<text text-anchor="middle" x="102.6909" y="-302.3" font-family="Times,serif" font-size="14.00" fill="#000000">natural_phenomenon</text>
</g>
<!-- physical_phenomenon&#45;&gt;natural_phenomenon -->
<g id="edge6" class="edge">
<title>physical_phenomenon&#45;&gt;natural_phenomenon</title>
<path fill="none" stroke="#000000" d="M102.6909,-359.8314C102.6909,-352.131 102.6909,-342.9743 102.6909,-334.4166"/>
<polygon fill="#000000" stroke="#000000" points="106.191,-334.4132 102.6909,-324.4133 99.191,-334.4133 106.191,-334.4132"/>
</g>
<!-- phenomenon -->
<g id="node8" class="node">
<title>phenomenon</title>
<ellipse fill="#b2dfee" stroke="#b2dfee" cx="102.6909" cy="-234" rx="56.59" ry="18"/>
<text text-anchor="middle" x="102.6909" y="-230.3" font-family="Times,serif" font-size="14.00" fill="#000000">phenomenon</text>
</g>
<!-- natural_phenomenon&#45;&gt;phenomenon -->
<g id="edge7" class="edge">
<title>natural_phenomenon&#45;&gt;phenomenon</title>
<path fill="none" stroke="#000000" d="M102.6909,-287.8314C102.6909,-280.131 102.6909,-270.9743 102.6909,-262.4166"/>
<polygon fill="#000000" stroke="#000000" points="106.191,-262.4132 102.6909,-252.4133 99.191,-262.4133 106.191,-262.4132"/>
</g>
<!-- process -->
<g id="node9" class="node">
<title>process</title>
<ellipse fill="#b2dfee" stroke="#b2dfee" cx="102.6909" cy="-162" rx="37.0935" ry="18"/>
<text text-anchor="middle" x="102.6909" y="-158.3" font-family="Times,serif" font-size="14.00" fill="#000000">process</text>
</g>
<!-- phenomenon&#45;&gt;process -->
<g id="edge8" class="edge">
<title>phenomenon&#45;&gt;process</title>
<path fill="none" stroke="#000000" d="M102.6909,-215.8314C102.6909,-208.131 102.6909,-198.9743 102.6909,-190.4166"/>
<polygon fill="#000000" stroke="#000000" points="106.191,-190.4132 102.6909,-180.4133 99.191,-190.4133 106.191,-190.4132"/>
</g>
<!-- physical_entity -->
<g id="node10" class="node">
<title>physical_entity</title>
<ellipse fill="#b2dfee" stroke="#b2dfee" cx="102.6909" cy="-90" rx="64.189" ry="18"/>
<text text-anchor="middle" x="102.6909" y="-86.3" font-family="Times,serif" font-size="14.00" fill="#000000">physical_entity</text>
</g>
<!-- process&#45;&gt;physical_entity -->
<g id="edge9" class="edge">
<title>process&#45;&gt;physical_entity</title>
<path fill="none" stroke="#000000" d="M102.6909,-143.8314C102.6909,-136.131 102.6909,-126.9743 102.6909,-118.4166"/>
<polygon fill="#000000" stroke="#000000" points="106.191,-118.4132 102.6909,-108.4133 99.191,-118.4133 106.191,-118.4132"/>
</g>
<!-- entity -->
<g id="node11" class="node">
<title>entity</title>
<ellipse fill="#b2dfee" stroke="#b2dfee" cx="102.6909" cy="-18" rx="30.5947" ry="18"/>
<text text-anchor="middle" x="102.6909" y="-14.3" font-family="Times,serif" font-size="14.00" fill="#000000">entity</text>
</g>
<!-- physical_entity&#45;&gt;entity -->
<g id="edge10" class="edge">
<title>physical_entity&#45;&gt;entity</title>
<path fill="none" stroke="#000000" d="M102.6909,-71.8314C102.6909,-64.131 102.6909,-54.9743 102.6909,-46.4166"/>
<polygon fill="#000000" stroke="#000000" points="106.191,-46.4132 102.6909,-36.4133 99.191,-46.4133 106.191,-46.4132"/>
</g>
</g>
</svg>
