<?xml version="1.0" encoding="UTF-8" standalone="no"?>
<!DOCTYPE svg PUBLIC "-//W3C//DTD SVG 1.1//EN"
 "http://www.w3.org/Graphics/SVG/1.1/DTD/svg11.dtd">
<!-- Generated by graphviz version 2.40.1 (20161225.0304)
 -->
<!-- Title: unix Pages: 1 -->
<svg width="115pt" height="432pt"
 viewBox="0.00 0.00 115.36 432.00" xmlns="http://www.w3.org/2000/svg" xmlns:xlink="http://www.w3.org/1999/xlink">
<g id="graph0" class="graph" transform="scale(.6243 .6243) rotate(0) translate(4 688)">
<title>unix</title>
<polygon fill="#ffffff" stroke="transparent" points="-4,4 -4,-688 180.7843,-688 180.7843,4 -4,4"/>
<!-- like -->
<g id="node1" class="node">
<title>like</title>
<ellipse fill="#b2dfee" stroke="#b2dfee" cx="88.3922" cy="-666" rx="27" ry="18"/>
<text text-anchor="middle" x="88.3922" y="-662.3" font-family="Times,serif" font-size="14.00" fill="#000000">like</text>
</g>
<!-- kind -->
<g id="node2" class="node">
<title>kind</title>
<ellipse fill="#b2dfee" stroke="#b2dfee" cx="88.3922" cy="-594" rx="27" ry="18"/>
<text text-anchor="middle" x="88.3922" y="-590.3" font-family="Times,serif" font-size="14.00" fill="#000000">kind</text>
</g>
<!-- like&#45;&gt;kind -->
<g id="edge1" class="edge">
<title>like&#45;&gt;kind</title>
<path fill="none" stroke="#000000" d="M88.3922,-647.8314C88.3922,-640.131 88.3922,-630.9743 88.3922,-622.4166"/>
<polygon fill="#000000" stroke="#000000" points="91.8923,-622.4132 88.3922,-612.4133 84.8923,-622.4133 91.8923,-622.4132"/>
</g>
<!-- category -->
<g id="node3" class="node">
<title>category</title>
<ellipse fill="#b2dfee" stroke="#b2dfee" cx="88.3922" cy="-522" rx="40.8928" ry="18"/>
<text text-anchor="middle" x="88.3922" y="-518.3" font-family="Times,serif" font-size="14.00" fill="#000000">category</text>
</g>
<!-- kind&#45;&gt;category -->
<g id="edge2" class="edge">
<title>kind&#45;&gt;category</title>
<path fill="none" stroke="#000000" d="M88.3922,-575.8314C88.3922,-568.131 88.3922,-558.9743 88.3922,-550.4166"/>
<polygon fill="#000000" stroke="#000000" points="91.8923,-550.4132 88.3922,-540.4133 84.8923,-550.4133 91.8923,-550.4132"/>
</g>
<!-- concept -->
<g id="node4" class="node">
<title>concept</title>
<ellipse fill="#b2dfee" stroke="#b2dfee" cx="88.3922" cy="-450" rx="38.1938" ry="18"/>
<text text-anchor="middle" x="88.3922" y="-446.3" font-family="Times,serif" font-size="14.00" fill="#000000">concept</text>
</g>
<!-- category&#45;&gt;concept -->
<g id="edge3" class="edge">
<title>category&#45;&gt;concept</title>
<path fill="none" stroke="#000000" d="M88.3922,-503.8314C88.3922,-496.131 88.3922,-486.9743 88.3922,-478.4166"/>
<polygon fill="#000000" stroke="#000000" points="91.8923,-478.4132 88.3922,-468.4133 84.8923,-478.4133 91.8923,-478.4132"/>
</g>
<!-- idea -->
<g id="node5" class="node">
<title>idea</title>
<ellipse fill="#b2dfee" stroke="#b2dfee" cx="88.3922" cy="-378" rx="27" ry="18"/>
<text text-anchor="middle" x="88.3922" y="-374.3" font-family="Times,serif" font-size="14.00" fill="#000000">idea</text>
</g>
<!-- concept&#45;&gt;idea -->
<g id="edge4" class="edge">
<title>concept&#45;&gt;idea</title>
<path fill="none" stroke="#000000" d="M88.3922,-431.8314C88.3922,-424.131 88.3922,-414.9743 88.3922,-406.4166"/>
<polygon fill="#000000" stroke="#000000" points="91.8923,-406.4132 88.3922,-396.4133 84.8923,-406.4133 91.8923,-406.4132"/>
</g>
<!-- content -->
<g id="node6" class="node">
<title>content</title>
<ellipse fill="#b2dfee" stroke="#b2dfee" cx="88.3922" cy="-306" rx="36.2938" ry="18"/>
<text text-anchor="middle" x="88.3922" y="-302.3" font-family="Times,serif" font-size="14.00" fill="#000000">content</text>
</g>
<!-- idea&#45;&gt;content -->
<g id="edge5" class="edge">
<title>idea&#45;&gt;content</title>
<path fill="none" stroke="#000000" d="M88.3922,-359.8314C88.3922,-352.131 88.3922,-342.9743 88.3922,-334.4166"/>
<polygon fill="#000000" stroke="#000000" points="91.8923,-334.4132 88.3922,-324.4133 84.8923,-334.4133 91.8923,-334.4132"/>
</g>
<!-- cognition -->
<g id="node7" class="node">
<title>cognition</title>
<ellipse fill="#b2dfee" stroke="#b2dfee" cx="88.3922" cy="-234" rx="44.393" ry="18"/>
<text text-anchor="middle" x="88.3922" y="-230.3" font-family="Times,serif" font-size="14.00" fill="#000000">cognition</text>
</g>
<!-- content&#45;&gt;cognition -->
<g id="edge6" class="edge">
<title>content&#45;&gt;cognition</title>
<path fill="none" stroke="#000000" d="M88.3922,-287.8314C88.3922,-280.131 88.3922,-270.9743 88.3922,-262.4166"/>
<polygon fill="#000000" stroke="#000000" points="91.8923,-262.4132 88.3922,-252.4133 84.8923,-262.4133 91.8923,-262.4132"/>
</g>
<!-- psychological_feature -->
<g id="node8" class="node">
<title>psychological_feature</title>
<ellipse fill="#b2dfee" stroke="#b2dfee" cx="88.3922" cy="-162" rx="88.2844" ry="18"/>
<text text-anchor="middle" x="88.3922" y="-158.3" font-family="Times,serif" font-size="14.00" fill="#000000">psychological_feature</text>
</g>
<!-- cognition&#45;&gt;psychological_feature -->
<g id="edge7" class="edge">
<title>cognition&#45;&gt;psychological_feature</title>
<path fill="none" stroke="#000000" d="M88.3922,-215.8314C88.3922,-208.131 88.3922,-198.9743 88.3922,-190.4166"/>
<polygon fill="#000000" stroke="#000000" points="91.8923,-190.4132 88.3922,-180.4133 84.8923,-190.4133 91.8923,-190.4132"/>
</g>
<!-- abstraction -->
<g id="node9" class="node">
<title>abstraction</title>
<ellipse fill="#b2dfee" stroke="#b2dfee" cx="88.3922" cy="-90" rx="49.2915" ry="18"/>
<text text-anchor="middle" x="88.3922" y="-86.3" font-family="Times,serif" font-size="14.00" fill="#000000">abstraction</text>
</g>
<!-- psychological_feature&#45;&gt;abstraction -->
<g id="edge8" class="edge">
<title>psychological_feature&#45;&gt;abstraction</title>
<path fill="none" stroke="#000000" d="M88.3922,-143.8314C88.3922,-136.131 88.3922,-126.9743 88.3922,-118.4166"/>
<polygon fill="#000000" stroke="#000000" points="91.8923,-118.4132 88.3922,-108.4133 84.8923,-118.4133 91.8923,-118.4132"/>
</g>
<!-- entity -->
<g id="node10" class="node">
<title>entity</title>
<ellipse fill="#b2dfee" stroke="#b2dfee" cx="88.3922" cy="-18" rx="30.5947" ry="18"/>
<text text-anchor="middle" x="88.3922" y="-14.3" font-family="Times,serif" font-size="14.00" fill="#000000">entity</text>
</g>
<!-- abstraction&#45;&gt;entity -->
<g id="edge9" class="edge">
<title>abstraction&#45;&gt;entity</title>
<path fill="none" stroke="#000000" d="M88.3922,-71.8314C88.3922,-64.131 88.3922,-54.9743 88.3922,-46.4166"/>
<polygon fill="#000000" stroke="#000000" points="91.8923,-46.4132 88.3922,-36.4133 84.8923,-46.4133 91.8923,-46.4132"/>
</g>
</g>
</svg>
