<?xml version="1.0" encoding="UTF-8" standalone="no"?>
<!DOCTYPE svg PUBLIC "-//W3C//DTD SVG 1.1//EN"
 "http://www.w3.org/Graphics/SVG/1.1/DTD/svg11.dtd">
<!-- Generated by graphviz version 2.40.1 (20161225.0304)
 -->
<!-- Title: unix Pages: 1 -->
<svg width="106pt" height="432pt"
 viewBox="0.00 0.00 106.36 432.00" xmlns="http://www.w3.org/2000/svg" xmlns:xlink="http://www.w3.org/1999/xlink">
<g id="graph0" class="graph" transform="scale(.9076 .9076) rotate(0) translate(4 472)">
<title>unix</title>
<polygon fill="#ffffff" stroke="transparent" points="-4,4 -4,-472 113.1903,-472 113.1903,4 -4,4"/>
<!-- expression -->
<g id="node1" class="node">
<title>expression</title>
<ellipse fill="#b2dfee" stroke="#b2dfee" cx="54.5952" cy="-450" rx="48.1917" ry="18"/>
<text text-anchor="middle" x="54.5952" y="-446.3" font-family="Times,serif" font-size="14.00" fill="#000000">expression</text>
</g>
<!-- countenance -->
<g id="node2" class="node">
<title>countenance</title>
<ellipse fill="#b2dfee" stroke="#b2dfee" cx="54.5952" cy="-378" rx="54.6905" ry="18"/>
<text text-anchor="middle" x="54.5952" y="-374.3" font-family="Times,serif" font-size="14.00" fill="#000000">countenance</text>
</g>
<!-- expression&#45;&gt;countenance -->
<g id="edge1" class="edge">
<title>expression&#45;&gt;countenance</title>
<path fill="none" stroke="#000000" d="M54.5952,-431.8314C54.5952,-424.131 54.5952,-414.9743 54.5952,-406.4166"/>
<polygon fill="#000000" stroke="#000000" points="58.0953,-406.4132 54.5952,-396.4133 51.0953,-406.4133 58.0953,-406.4132"/>
</g>
<!-- appearance -->
<g id="node3" class="node">
<title>appearance</title>
<ellipse fill="#b2dfee" stroke="#b2dfee" cx="54.5952" cy="-306" rx="50.0912" ry="18"/>
<text text-anchor="middle" x="54.5952" y="-302.3" font-family="Times,serif" font-size="14.00" fill="#000000">appearance</text>
</g>
<!-- countenance&#45;&gt;appearance -->
<g id="edge2" class="edge">
<title>countenance&#45;&gt;appearance</title>
<path fill="none" stroke="#000000" d="M54.5952,-359.8314C54.5952,-352.131 54.5952,-342.9743 54.5952,-334.4166"/>
<polygon fill="#000000" stroke="#000000" points="58.0953,-334.4132 54.5952,-324.4133 51.0953,-334.4133 58.0953,-334.4132"/>
</g>
<!-- quality -->
<g id="node4" class="node">
<title>quality</title>
<ellipse fill="#b2dfee" stroke="#b2dfee" cx="54.5952" cy="-234" rx="35.194" ry="18"/>
<text text-anchor="middle" x="54.5952" y="-230.3" font-family="Times,serif" font-size="14.00" fill="#000000">quality</text>
</g>
<!-- appearance&#45;&gt;quality -->
<g id="edge3" class="edge">
<title>appearance&#45;&gt;quality</title>
<path fill="none" stroke="#000000" d="M54.5952,-287.8314C54.5952,-280.131 54.5952,-270.9743 54.5952,-262.4166"/>
<polygon fill="#000000" stroke="#000000" points="58.0953,-262.4132 54.5952,-252.4133 51.0953,-262.4133 58.0953,-262.4132"/>
</g>
<!-- attribute -->
<g id="node5" class="node">
<title>attribute</title>
<ellipse fill="#b2dfee" stroke="#b2dfee" cx="54.5952" cy="-162" rx="40.0939" ry="18"/>
<text text-anchor="middle" x="54.5952" y="-158.3" font-family="Times,serif" font-size="14.00" fill="#000000">attribute</text>
</g>
<!-- quality&#45;&gt;attribute -->
<g id="edge4" class="edge">
<title>quality&#45;&gt;attribute</title>
<path fill="none" stroke="#000000" d="M54.5952,-215.8314C54.5952,-208.131 54.5952,-198.9743 54.5952,-190.4166"/>
<polygon fill="#000000" stroke="#000000" points="58.0953,-190.4132 54.5952,-180.4133 51.0953,-190.4133 58.0953,-190.4132"/>
</g>
<!-- abstraction -->
<g id="node6" class="node">
<title>abstraction</title>
<ellipse fill="#b2dfee" stroke="#b2dfee" cx="54.5952" cy="-90" rx="49.2915" ry="18"/>
<text text-anchor="middle" x="54.5952" y="-86.3" font-family="Times,serif" font-size="14.00" fill="#000000">abstraction</text>
</g>
<!-- attribute&#45;&gt;abstraction -->
<g id="edge5" class="edge">
<title>attribute&#45;&gt;abstraction</title>
<path fill="none" stroke="#000000" d="M54.5952,-143.8314C54.5952,-136.131 54.5952,-126.9743 54.5952,-118.4166"/>
<polygon fill="#000000" stroke="#000000" points="58.0953,-118.4132 54.5952,-108.4133 51.0953,-118.4133 58.0953,-118.4132"/>
</g>
<!-- entity -->
<g id="node7" class="node">
<title>entity</title>
<ellipse fill="#b2dfee" stroke="#b2dfee" cx="54.5952" cy="-18" rx="30.5947" ry="18"/>
<text text-anchor="middle" x="54.5952" y="-14.3" font-family="Times,serif" font-size="14.00" fill="#000000">entity</text>
</g>
<!-- abstraction&#45;&gt;entity -->
<g id="edge6" class="edge">
<title>abstraction&#45;&gt;entity</title>
<path fill="none" stroke="#000000" d="M54.5952,-71.8314C54.5952,-64.131 54.5952,-54.9743 54.5952,-46.4166"/>
<polygon fill="#000000" stroke="#000000" points="58.0953,-46.4132 54.5952,-36.4133 51.0953,-46.4133 58.0953,-46.4132"/>
</g>
</g>
</svg>
