<?xml version="1.0" encoding="UTF-8" standalone="no"?>
<!DOCTYPE svg PUBLIC "-//W3C//DTD SVG 1.1//EN"
 "http://www.w3.org/Graphics/SVG/1.1/DTD/svg11.dtd">
<!-- Generated by graphviz version 2.40.1 (20161225.0304)
 -->
<!-- Title: unix Pages: 1 -->
<svg width="107pt" height="332pt"
 viewBox="0.00 0.00 106.79 332.00" xmlns="http://www.w3.org/2000/svg" xmlns:xlink="http://www.w3.org/1999/xlink">
<g id="graph0" class="graph" transform="scale(1 1) rotate(0) translate(4 328)">
<title>unix</title>
<polygon fill="#ffffff" stroke="transparent" points="-4,4 -4,-328 102.7912,-328 102.7912,4 -4,4"/>
<!-- doomed -->
<g id="node1" class="node">
<title>doomed</title>
<ellipse fill="#b2dfee" stroke="#b2dfee" cx="49.3956" cy="-306" rx="39.7935" ry="18"/>
<text text-anchor="middle" x="49.3956" y="-302.3" font-family="Times,serif" font-size="14.00" fill="#000000">doomed</text>
</g>
<!-- people -->
<g id="node2" class="node">
<title>people</title>
<ellipse fill="#b2dfee" stroke="#b2dfee" cx="49.3956" cy="-234" rx="34.394" ry="18"/>
<text text-anchor="middle" x="49.3956" y="-230.3" font-family="Times,serif" font-size="14.00" fill="#000000">people</text>
</g>
<!-- doomed&#45;&gt;people -->
<g id="edge1" class="edge">
<title>doomed&#45;&gt;people</title>
<path fill="none" stroke="#000000" d="M49.3956,-287.8314C49.3956,-280.131 49.3956,-270.9743 49.3956,-262.4166"/>
<polygon fill="#000000" stroke="#000000" points="52.8957,-262.4132 49.3956,-252.4133 45.8957,-262.4133 52.8957,-262.4132"/>
</g>
<!-- group -->
<g id="node3" class="node">
<title>group</title>
<ellipse fill="#b2dfee" stroke="#b2dfee" cx="49.3956" cy="-162" rx="31.3957" ry="18"/>
<text text-anchor="middle" x="49.3956" y="-158.3" font-family="Times,serif" font-size="14.00" fill="#000000">group</text>
</g>
<!-- people&#45;&gt;group -->
<g id="edge2" class="edge">
<title>people&#45;&gt;group</title>
<path fill="none" stroke="#000000" d="M49.3956,-215.8314C49.3956,-208.131 49.3956,-198.9743 49.3956,-190.4166"/>
<polygon fill="#000000" stroke="#000000" points="52.8957,-190.4132 49.3956,-180.4133 45.8957,-190.4133 52.8957,-190.4132"/>
</g>
<!-- abstraction -->
<g id="node4" class="node">
<title>abstraction</title>
<ellipse fill="#b2dfee" stroke="#b2dfee" cx="49.3956" cy="-90" rx="49.2915" ry="18"/>
<text text-anchor="middle" x="49.3956" y="-86.3" font-family="Times,serif" font-size="14.00" fill="#000000">abstraction</text>
</g>
<!-- group&#45;&gt;abstraction -->
<g id="edge3" class="edge">
<title>group&#45;&gt;abstraction</title>
<path fill="none" stroke="#000000" d="M49.3956,-143.8314C49.3956,-136.131 49.3956,-126.9743 49.3956,-118.4166"/>
<polygon fill="#000000" stroke="#000000" points="52.8957,-118.4132 49.3956,-108.4133 45.8957,-118.4133 52.8957,-118.4132"/>
</g>
<!-- entity -->
<g id="node5" class="node">
<title>entity</title>
<ellipse fill="#b2dfee" stroke="#b2dfee" cx="49.3956" cy="-18" rx="30.5947" ry="18"/>
<text text-anchor="middle" x="49.3956" y="-14.3" font-family="Times,serif" font-size="14.00" fill="#000000">entity</text>
</g>
<!-- abstraction&#45;&gt;entity -->
<g id="edge4" class="edge">
<title>abstraction&#45;&gt;entity</title>
<path fill="none" stroke="#000000" d="M49.3956,-71.8314C49.3956,-64.131 49.3956,-54.9743 49.3956,-46.4166"/>
<polygon fill="#000000" stroke="#000000" points="52.8957,-46.4132 49.3956,-36.4133 45.8957,-46.4133 52.8957,-46.4132"/>
</g>
</g>
</svg>
