<?xml version="1.0" encoding="UTF-8" standalone="no"?>
<!DOCTYPE svg PUBLIC "-//W3C//DTD SVG 1.1//EN"
 "http://www.w3.org/Graphics/SVG/1.1/DTD/svg11.dtd">
<!-- Generated by graphviz version 2.40.1 (20161225.0304)
 -->
<!-- Title: unix Pages: 1 -->
<svg width="180pt" height="432pt"
 viewBox="0.00 0.00 179.53 432.00" xmlns="http://www.w3.org/2000/svg" xmlns:xlink="http://www.w3.org/1999/xlink">
<g id="graph0" class="graph" transform="scale(.7883 .7883) rotate(0) translate(4 544)">
<title>unix</title>
<polygon fill="#ffffff" stroke="transparent" points="-4,4 -4,-544 223.7411,-544 223.7411,4 -4,4"/>
<!-- meter -->
<g id="node1" class="node">
<title>meter</title>
<ellipse fill="#b2dfee" stroke="#b2dfee" cx="107.7457" cy="-522" rx="31.3957" ry="18"/>
<text text-anchor="middle" x="107.7457" y="-518.3" font-family="Times,serif" font-size="14.00" fill="#000000">meter</text>
</g>
<!-- metric_linear_unit -->
<g id="node2" class="node">
<title>metric_linear_unit</title>
<ellipse fill="#b2dfee" stroke="#b2dfee" cx="107.7457" cy="-450" rx="76.0865" ry="18"/>
<text text-anchor="middle" x="107.7457" y="-446.3" font-family="Times,serif" font-size="14.00" fill="#000000">metric_linear_unit</text>
</g>
<!-- meter&#45;&gt;metric_linear_unit -->
<g id="edge1" class="edge">
<title>meter&#45;&gt;metric_linear_unit</title>
<path fill="none" stroke="#000000" d="M107.7457,-503.8314C107.7457,-496.131 107.7457,-486.9743 107.7457,-478.4166"/>
<polygon fill="#000000" stroke="#000000" points="111.2458,-478.4132 107.7457,-468.4133 104.2458,-478.4133 111.2458,-478.4132"/>
</g>
<!-- linear_unit -->
<g id="node3" class="node">
<title>linear_unit</title>
<ellipse fill="#b2dfee" stroke="#b2dfee" cx="48.7457" cy="-378" rx="48.9926" ry="18"/>
<text text-anchor="middle" x="48.7457" y="-374.3" font-family="Times,serif" font-size="14.00" fill="#000000">linear_unit</text>
</g>
<!-- metric_linear_unit&#45;&gt;linear_unit -->
<g id="edge2" class="edge">
<title>metric_linear_unit&#45;&gt;linear_unit</title>
<path fill="none" stroke="#000000" d="M93.1614,-432.2022C86.0353,-423.506 77.3334,-412.8867 69.5266,-403.3598"/>
<polygon fill="#000000" stroke="#000000" points="72.004,-400.861 62.9586,-395.3446 66.5897,-405.2978 72.004,-400.861"/>
</g>
<!-- metric_unit -->
<g id="node9" class="node">
<title>metric_unit</title>
<ellipse fill="#b2dfee" stroke="#b2dfee" cx="167.7457" cy="-378" rx="51.9908" ry="18"/>
<text text-anchor="middle" x="167.7457" y="-374.3" font-family="Times,serif" font-size="14.00" fill="#000000">metric_unit</text>
</g>
<!-- metric_linear_unit&#45;&gt;metric_unit -->
<g id="edge8" class="edge">
<title>metric_linear_unit&#45;&gt;metric_unit</title>
<path fill="none" stroke="#000000" d="M122.5771,-432.2022C129.8972,-423.4182 138.8523,-412.672 146.8528,-403.0714"/>
<polygon fill="#000000" stroke="#000000" points="149.5788,-405.2675 153.2919,-395.3446 144.2012,-400.7862 149.5788,-405.2675"/>
</g>
<!-- unit_of_measurement -->
<g id="node4" class="node">
<title>unit_of_measurement</title>
<ellipse fill="#b2dfee" stroke="#b2dfee" cx="107.7457" cy="-306" rx="88.2844" ry="18"/>
<text text-anchor="middle" x="107.7457" y="-302.3" font-family="Times,serif" font-size="14.00" fill="#000000">unit_of_measurement</text>
</g>
<!-- linear_unit&#45;&gt;unit_of_measurement -->
<g id="edge3" class="edge">
<title>linear_unit&#45;&gt;unit_of_measurement</title>
<path fill="none" stroke="#000000" d="M63.0279,-360.5708C70.1684,-351.857 78.947,-341.1441 86.8298,-331.5244"/>
<polygon fill="#000000" stroke="#000000" points="89.554,-333.7221 93.1851,-323.7689 84.1396,-329.2853 89.554,-333.7221"/>
</g>
<!-- definite_quantity -->
<g id="node5" class="node">
<title>definite_quantity</title>
<ellipse fill="#b2dfee" stroke="#b2dfee" cx="107.7457" cy="-234" rx="70.6878" ry="18"/>
<text text-anchor="middle" x="107.7457" y="-230.3" font-family="Times,serif" font-size="14.00" fill="#000000">definite_quantity</text>
</g>
<!-- unit_of_measurement&#45;&gt;definite_quantity -->
<g id="edge4" class="edge">
<title>unit_of_measurement&#45;&gt;definite_quantity</title>
<path fill="none" stroke="#000000" d="M107.7457,-287.8314C107.7457,-280.131 107.7457,-270.9743 107.7457,-262.4166"/>
<polygon fill="#000000" stroke="#000000" points="111.2458,-262.4132 107.7457,-252.4133 104.2458,-262.4133 111.2458,-262.4132"/>
</g>
<!-- measure -->
<g id="node6" class="node">
<title>measure</title>
<ellipse fill="#b2dfee" stroke="#b2dfee" cx="107.7457" cy="-162" rx="40.0939" ry="18"/>
<text text-anchor="middle" x="107.7457" y="-158.3" font-family="Times,serif" font-size="14.00" fill="#000000">measure</text>
</g>
<!-- definite_quantity&#45;&gt;measure -->
<g id="edge5" class="edge">
<title>definite_quantity&#45;&gt;measure</title>
<path fill="none" stroke="#000000" d="M107.7457,-215.8314C107.7457,-208.131 107.7457,-198.9743 107.7457,-190.4166"/>
<polygon fill="#000000" stroke="#000000" points="111.2458,-190.4132 107.7457,-180.4133 104.2458,-190.4133 111.2458,-190.4132"/>
</g>
<!-- abstraction -->
<g id="node7" class="node">
<title>abstraction</title>
<ellipse fill="#b2dfee" stroke="#b2dfee" cx="107.7457" cy="-90" rx="49.2915" ry="18"/>
<text text-anchor="middle" x="107.7457" y="-86.3" font-family="Times,serif" font-size="14.00" fill="#000000">abstraction</text>
</g>
<!-- measure&#45;&gt;abstraction -->
<g id="edge6" class="edge">
<title>measure&#45;&gt;abstraction</title>
<path fill="none" stroke="#000000" d="M107.7457,-143.8314C107.7457,-136.131 107.7457,-126.9743 107.7457,-118.4166"/>
<polygon fill="#000000" stroke="#000000" points="111.2458,-118.4132 107.7457,-108.4133 104.2458,-118.4133 111.2458,-118.4132"/>
</g>
<!-- entity -->
<g id="node8" class="node">
<title>entity</title>
<ellipse fill="#b2dfee" stroke="#b2dfee" cx="107.7457" cy="-18" rx="30.5947" ry="18"/>
<text text-anchor="middle" x="107.7457" y="-14.3" font-family="Times,serif" font-size="14.00" fill="#000000">entity</text>
</g>
<!-- abstraction&#45;&gt;entity -->
<g id="edge7" class="edge">
<title>abstraction&#45;&gt;entity</title>
<path fill="none" stroke="#000000" d="M107.7457,-71.8314C107.7457,-64.131 107.7457,-54.9743 107.7457,-46.4166"/>
<polygon fill="#000000" stroke="#000000" points="111.2458,-46.4132 107.7457,-36.4133 104.2458,-46.4133 111.2458,-46.4132"/>
</g>
<!-- metric_unit&#45;&gt;unit_of_measurement -->
<g id="edge9" class="edge">
<title>metric_unit&#45;&gt;unit_of_measurement</title>
<path fill="none" stroke="#000000" d="M153.2213,-360.5708C145.9598,-351.857 137.0325,-341.1441 129.016,-331.5244"/>
<polygon fill="#000000" stroke="#000000" points="131.6437,-329.2105 122.5531,-323.7689 126.2662,-333.6918 131.6437,-329.2105"/>
</g>
</g>
</svg>
