<?xml version="1.0" encoding="UTF-8" standalone="no"?>
<!DOCTYPE svg PUBLIC "-//W3C//DTD SVG 1.1//EN"
 "http://www.w3.org/Graphics/SVG/1.1/DTD/svg11.dtd">
<!-- Generated by graphviz version 2.40.1 (20161225.0304)
 -->
<!-- Title: unix Pages: 1 -->
<svg width="185pt" height="432pt"
 viewBox="0.00 0.00 184.74 432.00" xmlns="http://www.w3.org/2000/svg" xmlns:xlink="http://www.w3.org/1999/xlink">
<g id="graph0" class="graph" transform="scale(.6968 .6968) rotate(0) translate(4 616)">
<title>unix</title>
<polygon fill="#ffffff" stroke="transparent" points="-4,4 -4,-616 261.139,-616 261.139,4 -4,4"/>
<!-- milk -->
<g id="node1" class="node">
<title>milk</title>
<ellipse fill="#b2dfee" stroke="#b2dfee" cx="137.3443" cy="-594" rx="27.0966" ry="18"/>
<text text-anchor="middle" x="137.3443" y="-590.3" font-family="Times,serif" font-size="14.00" fill="#000000">milk</text>
</g>
<!-- beverage -->
<g id="node2" class="node">
<title>beverage</title>
<ellipse fill="#b2dfee" stroke="#b2dfee" cx="77.3443" cy="-522" rx="42.4939" ry="18"/>
<text text-anchor="middle" x="77.3443" y="-518.3" font-family="Times,serif" font-size="14.00" fill="#000000">beverage</text>
</g>
<!-- milk&#45;&gt;beverage -->
<g id="edge1" class="edge">
<title>milk&#45;&gt;beverage</title>
<path fill="none" stroke="#000000" d="M124.0283,-578.0209C116.4551,-568.933 106.8019,-557.3492 98.2412,-547.0763"/>
<polygon fill="#000000" stroke="#000000" points="100.7612,-544.633 91.6705,-539.1915 95.3836,-549.1144 100.7612,-544.633"/>
</g>
<!-- dairy_product -->
<g id="node13" class="node">
<title>dairy_product</title>
<ellipse fill="#b2dfee" stroke="#b2dfee" cx="197.3443" cy="-522" rx="59.5901" ry="18"/>
<text text-anchor="middle" x="197.3443" y="-518.3" font-family="Times,serif" font-size="14.00" fill="#000000">dairy_product</text>
</g>
<!-- milk&#45;&gt;dairy_product -->
<g id="edge15" class="edge">
<title>milk&#45;&gt;dairy_product</title>
<path fill="none" stroke="#000000" d="M150.6602,-578.0209C158.1245,-569.0637 167.6093,-557.682 176.0772,-547.5206"/>
<polygon fill="#000000" stroke="#000000" points="178.8791,-549.6254 182.5922,-539.7025 173.5015,-545.1441 178.8791,-549.6254"/>
</g>
<!-- food -->
<g id="node3" class="node">
<title>food</title>
<ellipse fill="#b2dfee" stroke="#b2dfee" cx="139.3443" cy="-378" rx="27" ry="18"/>
<text text-anchor="middle" x="139.3443" y="-374.3" font-family="Times,serif" font-size="14.00" fill="#000000">food</text>
</g>
<!-- beverage&#45;&gt;food -->
<g id="edge2" class="edge">
<title>beverage&#45;&gt;food</title>
<path fill="none" stroke="#000000" d="M88.1052,-504.3824C94.1922,-494.0099 101.6922,-480.5099 107.3443,-468 116.5766,-447.5658 124.9835,-423.6096 130.8613,-405.5527"/>
<polygon fill="#000000" stroke="#000000" points="134.2258,-406.5222 133.9362,-395.9313 127.558,-404.3912 134.2258,-406.5222"/>
</g>
<!-- liquid -->
<g id="node8" class="node">
<title>liquid</title>
<ellipse fill="#b2dfee" stroke="#b2dfee" cx="67.3443" cy="-450" rx="31.3957" ry="18"/>
<text text-anchor="middle" x="67.3443" y="-446.3" font-family="Times,serif" font-size="14.00" fill="#000000">liquid</text>
</g>
<!-- beverage&#45;&gt;liquid -->
<g id="edge7" class="edge">
<title>beverage&#45;&gt;liquid</title>
<path fill="none" stroke="#000000" d="M74.8209,-503.8314C73.7514,-496.131 72.4796,-486.9743 71.291,-478.4166"/>
<polygon fill="#000000" stroke="#000000" points="74.7442,-477.8367 69.9017,-468.4133 67.8107,-478.7997 74.7442,-477.8367"/>
</g>
<!-- substance -->
<g id="node4" class="node">
<title>substance</title>
<ellipse fill="#b2dfee" stroke="#b2dfee" cx="103.3443" cy="-306" rx="44.6926" ry="18"/>
<text text-anchor="middle" x="103.3443" y="-302.3" font-family="Times,serif" font-size="14.00" fill="#000000">substance</text>
</g>
<!-- food&#45;&gt;substance -->
<g id="edge3" class="edge">
<title>food&#45;&gt;substance</title>
<path fill="none" stroke="#000000" d="M130.6297,-360.5708C126.4906,-352.2927 121.4495,-342.2104 116.8319,-332.9752"/>
<polygon fill="#000000" stroke="#000000" points="119.8314,-331.1479 112.2287,-323.7689 113.5704,-334.2784 119.8314,-331.1479"/>
</g>
<!-- matter -->
<g id="node5" class="node">
<title>matter</title>
<ellipse fill="#b2dfee" stroke="#b2dfee" cx="103.3443" cy="-234" rx="33.5952" ry="18"/>
<text text-anchor="middle" x="103.3443" y="-230.3" font-family="Times,serif" font-size="14.00" fill="#000000">matter</text>
</g>
<!-- substance&#45;&gt;matter -->
<g id="edge4" class="edge">
<title>substance&#45;&gt;matter</title>
<path fill="none" stroke="#000000" d="M97.3919,-287.8314C96.6299,-280.0125 96.4139,-270.6923 96.7438,-262.0221"/>
<polygon fill="#000000" stroke="#000000" points="100.2447,-262.1239 97.417,-251.9134 93.2602,-261.6587 100.2447,-262.1239"/>
</g>
<!-- substance&#45;&gt;matter -->
<g id="edge10" class="edge">
<title>substance&#45;&gt;matter</title>
<path fill="none" stroke="#000000" d="M109.2967,-287.8314C110.0587,-280.0125 110.2747,-270.6923 109.9448,-262.0221"/>
<polygon fill="#000000" stroke="#000000" points="113.4284,-261.6587 109.2716,-251.9134 106.4439,-262.1239 113.4284,-261.6587"/>
</g>
<!-- part -->
<g id="node10" class="node">
<title>part</title>
<ellipse fill="#b2dfee" stroke="#b2dfee" cx="189.3443" cy="-234" rx="27" ry="18"/>
<text text-anchor="middle" x="189.3443" y="-230.3" font-family="Times,serif" font-size="14.00" fill="#000000">part</text>
</g>
<!-- substance&#45;&gt;part -->
<g id="edge11" class="edge">
<title>substance&#45;&gt;part</title>
<path fill="none" stroke="#000000" d="M122.859,-289.6621C135.2531,-279.2856 151.4023,-265.7654 164.6809,-254.6484"/>
<polygon fill="#000000" stroke="#000000" points="167.0977,-257.1898 172.5185,-248.0867 162.6041,-251.8225 167.0977,-257.1898"/>
</g>
<!-- physical_entity -->
<g id="node6" class="node">
<title>physical_entity</title>
<ellipse fill="#b2dfee" stroke="#b2dfee" cx="64.3443" cy="-90" rx="64.189" ry="18"/>
<text text-anchor="middle" x="64.3443" y="-86.3" font-family="Times,serif" font-size="14.00" fill="#000000">physical_entity</text>
</g>
<!-- matter&#45;&gt;physical_entity -->
<g id="edge5" class="edge">
<title>matter&#45;&gt;physical_entity</title>
<path fill="none" stroke="#000000" d="M98.4838,-216.0535C91.8277,-191.4774 79.8091,-147.1008 71.954,-118.0974"/>
<polygon fill="#000000" stroke="#000000" points="75.2586,-116.91 69.2661,-108.1727 68.502,-118.74 75.2586,-116.91"/>
</g>
<!-- entity -->
<g id="node7" class="node">
<title>entity</title>
<ellipse fill="#b2dfee" stroke="#b2dfee" cx="130.3443" cy="-18" rx="30.5947" ry="18"/>
<text text-anchor="middle" x="130.3443" y="-14.3" font-family="Times,serif" font-size="14.00" fill="#000000">entity</text>
</g>
<!-- physical_entity&#45;&gt;entity -->
<g id="edge6" class="edge">
<title>physical_entity&#45;&gt;entity</title>
<path fill="none" stroke="#000000" d="M80.6589,-72.2022C89.0927,-63.0017 99.4997,-51.6487 108.6064,-41.7141"/>
<polygon fill="#000000" stroke="#000000" points="111.3913,-43.8556 115.5686,-34.119 106.2312,-39.1255 111.3913,-43.8556"/>
</g>
<!-- fluid -->
<g id="node9" class="node">
<title>fluid</title>
<ellipse fill="#b2dfee" stroke="#b2dfee" cx="67.3443" cy="-378" rx="27.0966" ry="18"/>
<text text-anchor="middle" x="67.3443" y="-374.3" font-family="Times,serif" font-size="14.00" fill="#000000">fluid</text>
</g>
<!-- liquid&#45;&gt;fluid -->
<g id="edge8" class="edge">
<title>liquid&#45;&gt;fluid</title>
<path fill="none" stroke="#000000" d="M67.3443,-431.8314C67.3443,-424.131 67.3443,-414.9743 67.3443,-406.4166"/>
<polygon fill="#000000" stroke="#000000" points="70.8444,-406.4132 67.3443,-396.4133 63.8444,-406.4133 70.8444,-406.4132"/>
</g>
<!-- fluid&#45;&gt;substance -->
<g id="edge9" class="edge">
<title>fluid&#45;&gt;substance</title>
<path fill="none" stroke="#000000" d="M76.0589,-360.5708C80.198,-352.2927 85.2391,-342.2104 89.8567,-332.9752"/>
<polygon fill="#000000" stroke="#000000" points="93.1182,-334.2784 94.4599,-323.7689 86.8572,-331.1479 93.1182,-334.2784"/>
</g>
<!-- relation -->
<g id="node11" class="node">
<title>relation</title>
<ellipse fill="#b2dfee" stroke="#b2dfee" cx="192.3443" cy="-162" rx="37.8943" ry="18"/>
<text text-anchor="middle" x="192.3443" y="-158.3" font-family="Times,serif" font-size="14.00" fill="#000000">relation</text>
</g>
<!-- part&#45;&gt;relation -->
<g id="edge12" class="edge">
<title>part&#45;&gt;relation</title>
<path fill="none" stroke="#000000" d="M190.1013,-215.8314C190.4222,-208.131 190.8037,-198.9743 191.1603,-190.4166"/>
<polygon fill="#000000" stroke="#000000" points="194.6576,-190.5503 191.5771,-180.4133 187.6637,-190.2589 194.6576,-190.5503"/>
</g>
<!-- abstraction -->
<g id="node12" class="node">
<title>abstraction</title>
<ellipse fill="#b2dfee" stroke="#b2dfee" cx="196.3443" cy="-90" rx="49.2915" ry="18"/>
<text text-anchor="middle" x="196.3443" y="-86.3" font-family="Times,serif" font-size="14.00" fill="#000000">abstraction</text>
</g>
<!-- relation&#45;&gt;abstraction -->
<g id="edge13" class="edge">
<title>relation&#45;&gt;abstraction</title>
<path fill="none" stroke="#000000" d="M193.3537,-143.8314C193.7815,-136.131 194.2902,-126.9743 194.7656,-118.4166"/>
<polygon fill="#000000" stroke="#000000" points="198.2611,-118.592 195.3213,-108.4133 191.2719,-118.2037 198.2611,-118.592"/>
</g>
<!-- abstraction&#45;&gt;entity -->
<g id="edge14" class="edge">
<title>abstraction&#45;&gt;entity</title>
<path fill="none" stroke="#000000" d="M180.3675,-72.5708C171.9387,-63.3758 161.4696,-51.9548 152.2904,-41.9413"/>
<polygon fill="#000000" stroke="#000000" points="154.6065,-39.2882 145.2692,-34.2817 149.4464,-44.0183 154.6065,-39.2882"/>
</g>
<!-- foodstuff -->
<g id="node14" class="node">
<title>foodstuff</title>
<ellipse fill="#b2dfee" stroke="#b2dfee" cx="197.3443" cy="-450" rx="42.7926" ry="18"/>
<text text-anchor="middle" x="197.3443" y="-446.3" font-family="Times,serif" font-size="14.00" fill="#000000">foodstuff</text>
</g>
<!-- dairy_product&#45;&gt;foodstuff -->
<g id="edge16" class="edge">
<title>dairy_product&#45;&gt;foodstuff</title>
<path fill="none" stroke="#000000" d="M197.3443,-503.8314C197.3443,-496.131 197.3443,-486.9743 197.3443,-478.4166"/>
<polygon fill="#000000" stroke="#000000" points="200.8444,-478.4132 197.3443,-468.4133 193.8444,-478.4133 200.8444,-478.4132"/>
</g>
<!-- foodstuff&#45;&gt;food -->
<g id="edge17" class="edge">
<title>foodstuff&#45;&gt;food</title>
<path fill="none" stroke="#000000" d="M183.5991,-432.937C176.1666,-423.7104 166.8651,-412.1638 158.7103,-402.0405"/>
<polygon fill="#000000" stroke="#000000" points="161.1951,-399.5459 152.1961,-393.954 155.7438,-403.9372 161.1951,-399.5459"/>
</g>
</g>
</svg>
