<?xml version="1.0" encoding="UTF-8" standalone="no"?>
<!DOCTYPE svg PUBLIC "-//W3C//DTD SVG 1.1//EN"
 "http://www.w3.org/Graphics/SVG/1.1/DTD/svg11.dtd">
<!-- Generated by graphviz version 2.40.1 (20161225.0304)
 -->
<!-- Title: unix Pages: 1 -->
<svg width="153pt" height="432pt"
 viewBox="0.00 0.00 153.47 432.00" xmlns="http://www.w3.org/2000/svg" xmlns:xlink="http://www.w3.org/1999/xlink">
<g id="graph0" class="graph" transform="scale(.6243 .6243) rotate(0) translate(4 688)">
<title>unix</title>
<polygon fill="#ffffff" stroke="transparent" points="-4,4 -4,-688 241.8403,-688 241.8403,4 -4,4"/>
<!-- girl -->
<g id="node1" class="node">
<title>girl</title>
<ellipse fill="#b2dfee" stroke="#b2dfee" cx="119.895" cy="-666" rx="27" ry="18"/>
<text text-anchor="middle" x="119.895" y="-662.3" font-family="Times,serif" font-size="14.00" fill="#000000">girl</text>
</g>
<!-- woman -->
<g id="node2" class="node">
<title>woman</title>
<ellipse fill="#b2dfee" stroke="#b2dfee" cx="119.895" cy="-594" rx="37.0935" ry="18"/>
<text text-anchor="middle" x="119.895" y="-590.3" font-family="Times,serif" font-size="14.00" fill="#000000">woman</text>
</g>
<!-- girl&#45;&gt;woman -->
<g id="edge1" class="edge">
<title>girl&#45;&gt;woman</title>
<path fill="none" stroke="#000000" d="M119.895,-647.8314C119.895,-640.131 119.895,-630.9743 119.895,-622.4166"/>
<polygon fill="#000000" stroke="#000000" points="123.3951,-622.4132 119.895,-612.4133 116.3951,-622.4133 123.3951,-622.4132"/>
</g>
<!-- adult -->
<g id="node3" class="node">
<title>adult</title>
<ellipse fill="#b2dfee" stroke="#b2dfee" cx="78.895" cy="-522" rx="28.6953" ry="18"/>
<text text-anchor="middle" x="78.895" y="-518.3" font-family="Times,serif" font-size="14.00" fill="#000000">adult</text>
</g>
<!-- woman&#45;&gt;adult -->
<g id="edge2" class="edge">
<title>woman&#45;&gt;adult</title>
<path fill="none" stroke="#000000" d="M109.9701,-576.5708C105.0851,-567.9922 99.0968,-557.4762 93.6853,-547.9732"/>
<polygon fill="#000000" stroke="#000000" points="96.7185,-546.2266 88.7286,-539.2687 90.6356,-549.6905 96.7185,-546.2266"/>
</g>
<!-- female -->
<g id="node12" class="node">
<title>female</title>
<ellipse fill="#b2dfee" stroke="#b2dfee" cx="160.895" cy="-522" rx="35.194" ry="18"/>
<text text-anchor="middle" x="160.895" y="-518.3" font-family="Times,serif" font-size="14.00" fill="#000000">female</text>
</g>
<!-- woman&#45;&gt;female -->
<g id="edge12" class="edge">
<title>woman&#45;&gt;female</title>
<path fill="none" stroke="#000000" d="M129.82,-576.5708C134.6191,-568.1431 140.483,-557.8455 145.8187,-548.4755"/>
<polygon fill="#000000" stroke="#000000" points="149.0124,-549.9401 150.9194,-539.5182 142.9295,-546.4761 149.0124,-549.9401"/>
</g>
<!-- person -->
<g id="node4" class="node">
<title>person</title>
<ellipse fill="#b2dfee" stroke="#b2dfee" cx="119.895" cy="-450" rx="34.394" ry="18"/>
<text text-anchor="middle" x="119.895" y="-446.3" font-family="Times,serif" font-size="14.00" fill="#000000">person</text>
</g>
<!-- adult&#45;&gt;person -->
<g id="edge3" class="edge">
<title>adult&#45;&gt;person</title>
<path fill="none" stroke="#000000" d="M88.6115,-504.937C93.4925,-496.3654 99.5138,-485.7914 104.9662,-476.2165"/>
<polygon fill="#000000" stroke="#000000" points="108.0566,-477.8625 109.9635,-467.4407 101.9737,-474.3986 108.0566,-477.8625"/>
</g>
<!-- causal_agent -->
<g id="node5" class="node">
<title>causal_agent</title>
<ellipse fill="#b2dfee" stroke="#b2dfee" cx="55.895" cy="-306" rx="55.7903" ry="18"/>
<text text-anchor="middle" x="55.895" y="-302.3" font-family="Times,serif" font-size="14.00" fill="#000000">causal_agent</text>
</g>
<!-- person&#45;&gt;causal_agent -->
<g id="edge4" class="edge">
<title>person&#45;&gt;causal_agent</title>
<path fill="none" stroke="#000000" d="M112.0474,-432.3428C101.0716,-407.6472 81.0326,-362.5594 68.0992,-333.4592"/>
<polygon fill="#000000" stroke="#000000" points="71.2686,-331.9726 64.0088,-324.256 64.8719,-334.8156 71.2686,-331.9726"/>
</g>
<!-- organism -->
<g id="node8" class="node">
<title>organism</title>
<ellipse fill="#b2dfee" stroke="#b2dfee" cx="169.895" cy="-378" rx="44.393" ry="18"/>
<text text-anchor="middle" x="169.895" y="-374.3" font-family="Times,serif" font-size="14.00" fill="#000000">organism</text>
</g>
<!-- person&#45;&gt;organism -->
<g id="edge7" class="edge">
<title>person&#45;&gt;organism</title>
<path fill="none" stroke="#000000" d="M131.7443,-432.937C137.7582,-424.277 145.1915,-413.5731 151.8945,-403.9207"/>
<polygon fill="#000000" stroke="#000000" points="154.9543,-405.6508 157.7835,-395.4407 149.2047,-401.658 154.9543,-405.6508"/>
</g>
<!-- physical_entity -->
<g id="node6" class="node">
<title>physical_entity</title>
<ellipse fill="#b2dfee" stroke="#b2dfee" cx="119.895" cy="-90" rx="64.189" ry="18"/>
<text text-anchor="middle" x="119.895" y="-86.3" font-family="Times,serif" font-size="14.00" fill="#000000">physical_entity</text>
</g>
<!-- causal_agent&#45;&gt;physical_entity -->
<g id="edge5" class="edge">
<title>causal_agent&#45;&gt;physical_entity</title>
<path fill="none" stroke="#000000" d="M61.2416,-287.9555C72.418,-250.235 98.3191,-162.8188 111.6462,-117.8399"/>
<polygon fill="#000000" stroke="#000000" points="115.0336,-118.7274 114.5187,-108.1451 108.322,-116.7387 115.0336,-118.7274"/>
</g>
<!-- entity -->
<g id="node7" class="node">
<title>entity</title>
<ellipse fill="#b2dfee" stroke="#b2dfee" cx="119.895" cy="-18" rx="30.5947" ry="18"/>
<text text-anchor="middle" x="119.895" y="-14.3" font-family="Times,serif" font-size="14.00" fill="#000000">entity</text>
</g>
<!-- physical_entity&#45;&gt;entity -->
<g id="edge6" class="edge">
<title>physical_entity&#45;&gt;entity</title>
<path fill="none" stroke="#000000" d="M119.895,-71.8314C119.895,-64.131 119.895,-54.9743 119.895,-46.4166"/>
<polygon fill="#000000" stroke="#000000" points="123.3951,-46.4132 119.895,-36.4133 116.3951,-46.4133 123.3951,-46.4132"/>
</g>
<!-- living_thing -->
<g id="node9" class="node">
<title>living_thing</title>
<ellipse fill="#b2dfee" stroke="#b2dfee" cx="183.895" cy="-306" rx="53.8905" ry="18"/>
<text text-anchor="middle" x="183.895" y="-302.3" font-family="Times,serif" font-size="14.00" fill="#000000">living_thing</text>
</g>
<!-- organism&#45;&gt;living_thing -->
<g id="edge8" class="edge">
<title>organism&#45;&gt;living_thing</title>
<path fill="none" stroke="#000000" d="M173.4278,-359.8314C174.9251,-352.131 176.7056,-342.9743 178.3696,-334.4166"/>
<polygon fill="#000000" stroke="#000000" points="181.8416,-334.8975 180.3147,-324.4133 174.9703,-333.5614 181.8416,-334.8975"/>
</g>
<!-- whole -->
<g id="node10" class="node">
<title>whole</title>
<ellipse fill="#b2dfee" stroke="#b2dfee" cx="174.895" cy="-234" rx="32.4942" ry="18"/>
<text text-anchor="middle" x="174.895" y="-230.3" font-family="Times,serif" font-size="14.00" fill="#000000">whole</text>
</g>
<!-- living_thing&#45;&gt;whole -->
<g id="edge9" class="edge">
<title>living_thing&#45;&gt;whole</title>
<path fill="none" stroke="#000000" d="M181.624,-287.8314C180.6614,-280.131 179.5168,-270.9743 178.4471,-262.4166"/>
<polygon fill="#000000" stroke="#000000" points="181.9101,-261.9019 177.1967,-252.4133 174.9642,-262.7702 181.9101,-261.9019"/>
</g>
<!-- object -->
<g id="node11" class="node">
<title>object</title>
<ellipse fill="#b2dfee" stroke="#b2dfee" cx="166.895" cy="-162" rx="32.4942" ry="18"/>
<text text-anchor="middle" x="166.895" y="-158.3" font-family="Times,serif" font-size="14.00" fill="#000000">object</text>
</g>
<!-- whole&#45;&gt;object -->
<g id="edge10" class="edge">
<title>whole&#45;&gt;object</title>
<path fill="none" stroke="#000000" d="M172.8763,-215.8314C172.0207,-208.131 171.0033,-198.9743 170.0524,-190.4166"/>
<polygon fill="#000000" stroke="#000000" points="173.524,-189.9656 168.941,-180.4133 166.5668,-190.7386 173.524,-189.9656"/>
</g>
<!-- object&#45;&gt;physical_entity -->
<g id="edge11" class="edge">
<title>object&#45;&gt;physical_entity</title>
<path fill="none" stroke="#000000" d="M155.7567,-144.937C150.1868,-136.4043 143.3216,-125.8875 137.0939,-116.3472"/>
<polygon fill="#000000" stroke="#000000" points="140.0064,-114.4059 131.6093,-107.9453 134.1447,-118.2323 140.0064,-114.4059"/>
</g>
<!-- female&#45;&gt;person -->
<g id="edge13" class="edge">
<title>female&#45;&gt;person</title>
<path fill="none" stroke="#000000" d="M150.9701,-504.5708C146.0851,-495.9922 140.0968,-485.4762 134.6853,-475.9732"/>
<polygon fill="#000000" stroke="#000000" points="137.7185,-474.2266 129.7286,-467.2687 131.6356,-477.6905 137.7185,-474.2266"/>
</g>
</g>
</svg>
