<?xml version="1.0" encoding="UTF-8" standalone="no"?>
<!DOCTYPE svg PUBLIC "-//W3C//DTD SVG 1.1//EN"
 "http://www.w3.org/Graphics/SVG/1.1/DTD/svg11.dtd">
<!-- Generated by graphviz version 2.40.1 (20161225.0304)
 -->
<!-- Title: unix Pages: 1 -->
<svg width="207pt" height="404pt"
 viewBox="0.00 0.00 206.88 404.00" xmlns="http://www.w3.org/2000/svg" xmlns:xlink="http://www.w3.org/1999/xlink">
<g id="graph0" class="graph" transform="scale(1 1) rotate(0) translate(4 400)">
<title>unix</title>
<polygon fill="#ffffff" stroke="transparent" points="-4,4 -4,-400 202.8824,-400 202.8824,4 -4,4"/>
<!-- much -->
<g id="node1" class="node">
<title>much</title>
<ellipse fill="#b2dfee" stroke="#b2dfee" cx="99.4412" cy="-378" rx="30.5947" ry="18"/>
<text text-anchor="middle" x="99.4412" y="-374.3" font-family="Times,serif" font-size="14.00" fill="#000000">much</text>
</g>
<!-- large_indefinite_quantity -->
<g id="node2" class="node">
<title>large_indefinite_quantity</title>
<ellipse fill="#b2dfee" stroke="#b2dfee" cx="99.4412" cy="-306" rx="99.3824" ry="18"/>
<text text-anchor="middle" x="99.4412" y="-302.3" font-family="Times,serif" font-size="14.00" fill="#000000">large_indefinite_quantity</text>
</g>
<!-- much&#45;&gt;large_indefinite_quantity -->
<g id="edge1" class="edge">
<title>much&#45;&gt;large_indefinite_quantity</title>
<path fill="none" stroke="#000000" d="M99.4412,-359.8314C99.4412,-352.131 99.4412,-342.9743 99.4412,-334.4166"/>
<polygon fill="#000000" stroke="#000000" points="102.9413,-334.4132 99.4412,-324.4133 95.9413,-334.4133 102.9413,-334.4132"/>
</g>
<!-- indefinite_quantity -->
<g id="node3" class="node">
<title>indefinite_quantity</title>
<ellipse fill="#b2dfee" stroke="#b2dfee" cx="99.4412" cy="-234" rx="77.1866" ry="18"/>
<text text-anchor="middle" x="99.4412" y="-230.3" font-family="Times,serif" font-size="14.00" fill="#000000">indefinite_quantity</text>
</g>
<!-- large_indefinite_quantity&#45;&gt;indefinite_quantity -->
<g id="edge2" class="edge">
<title>large_indefinite_quantity&#45;&gt;indefinite_quantity</title>
<path fill="none" stroke="#000000" d="M99.4412,-287.8314C99.4412,-280.131 99.4412,-270.9743 99.4412,-262.4166"/>
<polygon fill="#000000" stroke="#000000" points="102.9413,-262.4132 99.4412,-252.4133 95.9413,-262.4133 102.9413,-262.4132"/>
</g>
<!-- measure -->
<g id="node4" class="node">
<title>measure</title>
<ellipse fill="#b2dfee" stroke="#b2dfee" cx="99.4412" cy="-162" rx="40.0939" ry="18"/>
<text text-anchor="middle" x="99.4412" y="-158.3" font-family="Times,serif" font-size="14.00" fill="#000000">measure</text>
</g>
<!-- indefinite_quantity&#45;&gt;measure -->
<g id="edge3" class="edge">
<title>indefinite_quantity&#45;&gt;measure</title>
<path fill="none" stroke="#000000" d="M99.4412,-215.8314C99.4412,-208.131 99.4412,-198.9743 99.4412,-190.4166"/>
<polygon fill="#000000" stroke="#000000" points="102.9413,-190.4132 99.4412,-180.4133 95.9413,-190.4133 102.9413,-190.4132"/>
</g>
<!-- abstraction -->
<g id="node5" class="node">
<title>abstraction</title>
<ellipse fill="#b2dfee" stroke="#b2dfee" cx="99.4412" cy="-90" rx="49.2915" ry="18"/>
<text text-anchor="middle" x="99.4412" y="-86.3" font-family="Times,serif" font-size="14.00" fill="#000000">abstraction</text>
</g>
<!-- measure&#45;&gt;abstraction -->
<g id="edge4" class="edge">
<title>measure&#45;&gt;abstraction</title>
<path fill="none" stroke="#000000" d="M99.4412,-143.8314C99.4412,-136.131 99.4412,-126.9743 99.4412,-118.4166"/>
<polygon fill="#000000" stroke="#000000" points="102.9413,-118.4132 99.4412,-108.4133 95.9413,-118.4133 102.9413,-118.4132"/>
</g>
<!-- entity -->
<g id="node6" class="node">
<title>entity</title>
<ellipse fill="#b2dfee" stroke="#b2dfee" cx="99.4412" cy="-18" rx="30.5947" ry="18"/>
<text text-anchor="middle" x="99.4412" y="-14.3" font-family="Times,serif" font-size="14.00" fill="#000000">entity</text>
</g>
<!-- abstraction&#45;&gt;entity -->
<g id="edge5" class="edge">
<title>abstraction&#45;&gt;entity</title>
<path fill="none" stroke="#000000" d="M99.4412,-71.8314C99.4412,-64.131 99.4412,-54.9743 99.4412,-46.4166"/>
<polygon fill="#000000" stroke="#000000" points="102.9413,-46.4132 99.4412,-36.4133 95.9413,-46.4133 102.9413,-46.4132"/>
</g>
</g>
</svg>
