<?xml version="1.0" encoding="UTF-8" standalone="no"?>
<!DOCTYPE svg PUBLIC "-//W3C//DTD SVG 1.1//EN"
 "http://www.w3.org/Graphics/SVG/1.1/DTD/svg11.dtd">
<!-- Generated by graphviz version 2.40.1 (20161225.0304)
 -->
<!-- Title: unix Pages: 1 -->
<svg width="147pt" height="432pt"
 viewBox="0.00 0.00 146.93 432.00" xmlns="http://www.w3.org/2000/svg" xmlns:xlink="http://www.w3.org/1999/xlink">
<g id="graph0" class="graph" transform="scale(.5167 .5167) rotate(0) translate(4 832)">
<title>unix</title>
<polygon fill="#ffffff" stroke="transparent" points="-4,4 -4,-832 280.3385,-832 280.3385,4 -4,4"/>
<!-- orange -->
<g id="node1" class="node">
<title>orange</title>
<ellipse fill="#b2dfee" stroke="#b2dfee" cx="163.342" cy="-810" rx="34.394" ry="18"/>
<text text-anchor="middle" x="163.342" y="-806.3" font-family="Times,serif" font-size="14.00" fill="#000000">orange</text>
</g>
<!-- citrus -->
<g id="node2" class="node">
<title>citrus</title>
<ellipse fill="#b2dfee" stroke="#b2dfee" cx="163.342" cy="-738" rx="30.5947" ry="18"/>
<text text-anchor="middle" x="163.342" y="-734.3" font-family="Times,serif" font-size="14.00" fill="#000000">citrus</text>
</g>
<!-- orange&#45;&gt;citrus -->
<g id="edge1" class="edge">
<title>orange&#45;&gt;citrus</title>
<path fill="none" stroke="#000000" d="M163.342,-791.8314C163.342,-784.131 163.342,-774.9743 163.342,-766.4166"/>
<polygon fill="#000000" stroke="#000000" points="166.8421,-766.4132 163.342,-756.4133 159.8421,-766.4133 166.8421,-766.4132"/>
</g>
<!-- edible_fruit -->
<g id="node3" class="node">
<title>edible_fruit</title>
<ellipse fill="#b2dfee" stroke="#b2dfee" cx="163.342" cy="-666" rx="51.9908" ry="18"/>
<text text-anchor="middle" x="163.342" y="-662.3" font-family="Times,serif" font-size="14.00" fill="#000000">edible_fruit</text>
</g>
<!-- citrus&#45;&gt;edible_fruit -->
<g id="edge2" class="edge">
<title>citrus&#45;&gt;edible_fruit</title>
<path fill="none" stroke="#000000" d="M163.342,-719.8314C163.342,-712.131 163.342,-702.9743 163.342,-694.4166"/>
<polygon fill="#000000" stroke="#000000" points="166.8421,-694.4132 163.342,-684.4133 159.8421,-694.4133 166.8421,-694.4132"/>
</g>
<!-- fruit -->
<g id="node4" class="node">
<title>fruit</title>
<ellipse fill="#b2dfee" stroke="#b2dfee" cx="136.342" cy="-594" rx="27" ry="18"/>
<text text-anchor="middle" x="136.342" y="-590.3" font-family="Times,serif" font-size="14.00" fill="#000000">fruit</text>
</g>
<!-- edible_fruit&#45;&gt;fruit -->
<g id="edge3" class="edge">
<title>edible_fruit&#45;&gt;fruit</title>
<path fill="none" stroke="#000000" d="M156.5287,-647.8314C153.5322,-639.8406 149.9477,-630.2819 146.6363,-621.4514"/>
<polygon fill="#000000" stroke="#000000" points="149.848,-620.0478 143.0595,-611.9134 143.2937,-622.5057 149.848,-620.0478"/>
</g>
<!-- produce -->
<g id="node13" class="node">
<title>produce</title>
<ellipse fill="#b2dfee" stroke="#b2dfee" cx="237.342" cy="-522" rx="38.9931" ry="18"/>
<text text-anchor="middle" x="237.342" y="-518.3" font-family="Times,serif" font-size="14.00" fill="#000000">produce</text>
</g>
<!-- edible_fruit&#45;&gt;produce -->
<g id="edge12" class="edge">
<title>edible_fruit&#45;&gt;produce</title>
<path fill="none" stroke="#000000" d="M172.5645,-648.0535C185.3743,-623.1263 208.6521,-577.8289 223.5368,-548.8641"/>
<polygon fill="#000000" stroke="#000000" points="226.778,-550.2144 228.2357,-539.7204 220.5519,-547.0149 226.778,-550.2144"/>
</g>
<!-- reproductive_structure -->
<g id="node5" class="node">
<title>reproductive_structure</title>
<ellipse fill="#b2dfee" stroke="#b2dfee" cx="90.342" cy="-522" rx="90.1842" ry="18"/>
<text text-anchor="middle" x="90.342" y="-518.3" font-family="Times,serif" font-size="14.00" fill="#000000">reproductive_structure</text>
</g>
<!-- fruit&#45;&gt;reproductive_structure -->
<g id="edge4" class="edge">
<title>fruit&#45;&gt;reproductive_structure</title>
<path fill="none" stroke="#000000" d="M125.673,-577.3008C120.1866,-568.7133 113.371,-558.0454 107.1939,-548.377"/>
<polygon fill="#000000" stroke="#000000" points="110.0905,-546.4097 101.7571,-539.8671 104.1916,-550.1785 110.0905,-546.4097"/>
</g>
<!-- plant_organ -->
<g id="node6" class="node">
<title>plant_organ</title>
<ellipse fill="#b2dfee" stroke="#b2dfee" cx="94.342" cy="-450" rx="52.7911" ry="18"/>
<text text-anchor="middle" x="94.342" y="-446.3" font-family="Times,serif" font-size="14.00" fill="#000000">plant_organ</text>
</g>
<!-- reproductive_structure&#45;&gt;plant_organ -->
<g id="edge5" class="edge">
<title>reproductive_structure&#45;&gt;plant_organ</title>
<path fill="none" stroke="#000000" d="M91.3514,-503.8314C91.7792,-496.131 92.2879,-486.9743 92.7633,-478.4166"/>
<polygon fill="#000000" stroke="#000000" points="96.2588,-478.592 93.319,-468.4133 89.2696,-478.2037 96.2588,-478.592"/>
</g>
<!-- plant_part -->
<g id="node7" class="node">
<title>plant_part</title>
<ellipse fill="#b2dfee" stroke="#b2dfee" cx="102.342" cy="-378" rx="46.2923" ry="18"/>
<text text-anchor="middle" x="102.342" y="-374.3" font-family="Times,serif" font-size="14.00" fill="#000000">plant_part</text>
</g>
<!-- plant_organ&#45;&gt;plant_part -->
<g id="edge6" class="edge">
<title>plant_organ&#45;&gt;plant_part</title>
<path fill="none" stroke="#000000" d="M96.3607,-431.8314C97.2163,-424.131 98.2337,-414.9743 99.1846,-406.4166"/>
<polygon fill="#000000" stroke="#000000" points="102.6703,-406.7386 100.2961,-396.4133 95.7131,-405.9656 102.6703,-406.7386"/>
</g>
<!-- natural_object -->
<g id="node8" class="node">
<title>natural_object</title>
<ellipse fill="#b2dfee" stroke="#b2dfee" cx="119.342" cy="-306" rx="61.1893" ry="18"/>
<text text-anchor="middle" x="119.342" y="-302.3" font-family="Times,serif" font-size="14.00" fill="#000000">natural_object</text>
</g>
<!-- plant_part&#45;&gt;natural_object -->
<g id="edge7" class="edge">
<title>plant_part&#45;&gt;natural_object</title>
<path fill="none" stroke="#000000" d="M106.6318,-359.8314C108.45,-352.131 110.6119,-342.9743 112.6325,-334.4166"/>
<polygon fill="#000000" stroke="#000000" points="116.1027,-334.95 114.9944,-324.4133 109.2901,-333.3414 116.1027,-334.95"/>
</g>
<!-- whole -->
<g id="node9" class="node">
<title>whole</title>
<ellipse fill="#b2dfee" stroke="#b2dfee" cx="145.342" cy="-234" rx="32.4942" ry="18"/>
<text text-anchor="middle" x="145.342" y="-230.3" font-family="Times,serif" font-size="14.00" fill="#000000">whole</text>
</g>
<!-- natural_object&#45;&gt;whole -->
<g id="edge8" class="edge">
<title>natural_object&#45;&gt;whole</title>
<path fill="none" stroke="#000000" d="M125.9029,-287.8314C128.7884,-279.8406 132.2402,-270.2819 135.429,-261.4514"/>
<polygon fill="#000000" stroke="#000000" points="138.7687,-262.5077 138.8733,-251.9134 132.1848,-260.1302 138.7687,-262.5077"/>
</g>
<!-- object -->
<g id="node10" class="node">
<title>object</title>
<ellipse fill="#b2dfee" stroke="#b2dfee" cx="152.342" cy="-162" rx="32.4942" ry="18"/>
<text text-anchor="middle" x="152.342" y="-158.3" font-family="Times,serif" font-size="14.00" fill="#000000">object</text>
</g>
<!-- whole&#45;&gt;object -->
<g id="edge9" class="edge">
<title>whole&#45;&gt;object</title>
<path fill="none" stroke="#000000" d="M147.1084,-215.8314C147.857,-208.131 148.7473,-198.9743 149.5793,-190.4166"/>
<polygon fill="#000000" stroke="#000000" points="153.0676,-190.7051 150.5518,-180.4133 146.1005,-190.0276 153.0676,-190.7051"/>
</g>
<!-- physical_entity -->
<g id="node11" class="node">
<title>physical_entity</title>
<ellipse fill="#b2dfee" stroke="#b2dfee" cx="182.342" cy="-90" rx="64.189" ry="18"/>
<text text-anchor="middle" x="182.342" y="-86.3" font-family="Times,serif" font-size="14.00" fill="#000000">physical_entity</text>
</g>
<!-- object&#45;&gt;physical_entity -->
<g id="edge10" class="edge">
<title>object&#45;&gt;physical_entity</title>
<path fill="none" stroke="#000000" d="M159.7577,-144.2022C163.1217,-136.1287 167.1763,-126.3976 170.9162,-117.422"/>
<polygon fill="#000000" stroke="#000000" points="174.1877,-118.6701 174.8032,-108.0931 167.7262,-115.9777 174.1877,-118.6701"/>
</g>
<!-- entity -->
<g id="node12" class="node">
<title>entity</title>
<ellipse fill="#b2dfee" stroke="#b2dfee" cx="182.342" cy="-18" rx="30.5947" ry="18"/>
<text text-anchor="middle" x="182.342" y="-14.3" font-family="Times,serif" font-size="14.00" fill="#000000">entity</text>
</g>
<!-- physical_entity&#45;&gt;entity -->
<g id="edge11" class="edge">
<title>physical_entity&#45;&gt;entity</title>
<path fill="none" stroke="#000000" d="M182.342,-71.8314C182.342,-64.131 182.342,-54.9743 182.342,-46.4166"/>
<polygon fill="#000000" stroke="#000000" points="185.8421,-46.4132 182.342,-36.4133 178.8421,-46.4133 185.8421,-46.4132"/>
</g>
<!-- food -->
<g id="node14" class="node">
<title>food</title>
<ellipse fill="#b2dfee" stroke="#b2dfee" cx="236.342" cy="-450" rx="27" ry="18"/>
<text text-anchor="middle" x="236.342" y="-446.3" font-family="Times,serif" font-size="14.00" fill="#000000">food</text>
</g>
<!-- produce&#45;&gt;food -->
<g id="edge13" class="edge">
<title>produce&#45;&gt;food</title>
<path fill="none" stroke="#000000" d="M237.0896,-503.8314C236.9827,-496.131 236.8555,-486.9743 236.7367,-478.4166"/>
<polygon fill="#000000" stroke="#000000" points="240.2364,-478.3637 236.5977,-468.4133 233.237,-478.4609 240.2364,-478.3637"/>
</g>
<!-- solid -->
<g id="node15" class="node">
<title>solid</title>
<ellipse fill="#b2dfee" stroke="#b2dfee" cx="234.342" cy="-378" rx="27.8951" ry="18"/>
<text text-anchor="middle" x="234.342" y="-374.3" font-family="Times,serif" font-size="14.00" fill="#000000">solid</text>
</g>
<!-- food&#45;&gt;solid -->
<g id="edge14" class="edge">
<title>food&#45;&gt;solid</title>
<path fill="none" stroke="#000000" d="M235.8373,-431.8314C235.6234,-424.131 235.369,-414.9743 235.1313,-406.4166"/>
<polygon fill="#000000" stroke="#000000" points="238.6299,-406.3122 234.8535,-396.4133 231.6326,-406.5066 238.6299,-406.3122"/>
</g>
<!-- matter -->
<g id="node16" class="node">
<title>matter</title>
<ellipse fill="#b2dfee" stroke="#b2dfee" cx="233.342" cy="-306" rx="33.5952" ry="18"/>
<text text-anchor="middle" x="233.342" y="-302.3" font-family="Times,serif" font-size="14.00" fill="#000000">matter</text>
</g>
<!-- solid&#45;&gt;matter -->
<g id="edge15" class="edge">
<title>solid&#45;&gt;matter</title>
<path fill="none" stroke="#000000" d="M234.0896,-359.8314C233.9827,-352.131 233.8555,-342.9743 233.7367,-334.4166"/>
<polygon fill="#000000" stroke="#000000" points="237.2364,-334.3637 233.5977,-324.4133 230.237,-334.4609 237.2364,-334.3637"/>
</g>
<!-- matter&#45;&gt;physical_entity -->
<g id="edge16" class="edge">
<title>matter&#45;&gt;physical_entity</title>
<path fill="none" stroke="#000000" d="M229.0815,-287.9555C220.194,-250.3144 199.6222,-163.1867 188.9825,-118.1246"/>
<polygon fill="#000000" stroke="#000000" points="192.3306,-117.0732 186.6262,-108.1451 185.5179,-118.6818 192.3306,-117.0732"/>
</g>
</g>
</svg>
