<?xml version="1.0" encoding="UTF-8" standalone="no"?>
<!DOCTYPE svg PUBLIC "-//W3C//DTD SVG 1.1//EN"
 "http://www.w3.org/Graphics/SVG/1.1/DTD/svg11.dtd">
<!-- Generated by graphviz version 2.40.1 (20161225.0304)
 -->
<!-- Title: unix Pages: 1 -->
<svg width="120pt" height="404pt"
 viewBox="0.00 0.00 119.79 404.00" xmlns="http://www.w3.org/2000/svg" xmlns:xlink="http://www.w3.org/1999/xlink">
<g id="graph0" class="graph" transform="scale(1 1) rotate(0) translate(4 400)">
<title>unix</title>
<polygon fill="#ffffff" stroke="transparent" points="-4,4 -4,-400 115.7901,-400 115.7901,4 -4,4"/>
<!-- party -->
<g id="node1" class="node">
<title>party</title>
<ellipse fill="#b2dfee" stroke="#b2dfee" cx="55.895" cy="-378" rx="28.6953" ry="18"/>
<text text-anchor="middle" x="55.895" y="-374.3" font-family="Times,serif" font-size="14.00" fill="#000000">party</text>
</g>
<!-- organization -->
<g id="node2" class="node">
<title>organization</title>
<ellipse fill="#b2dfee" stroke="#b2dfee" cx="55.895" cy="-306" rx="54.6905" ry="18"/>
<text text-anchor="middle" x="55.895" y="-302.3" font-family="Times,serif" font-size="14.00" fill="#000000">organization</text>
</g>
<!-- party&#45;&gt;organization -->
<g id="edge1" class="edge">
<title>party&#45;&gt;organization</title>
<path fill="none" stroke="#000000" d="M55.895,-359.8314C55.895,-352.131 55.895,-342.9743 55.895,-334.4166"/>
<polygon fill="#000000" stroke="#000000" points="59.3951,-334.4132 55.895,-324.4133 52.3951,-334.4133 59.3951,-334.4132"/>
</g>
<!-- social_group -->
<g id="node3" class="node">
<title>social_group</title>
<ellipse fill="#b2dfee" stroke="#b2dfee" cx="55.895" cy="-234" rx="55.7903" ry="18"/>
<text text-anchor="middle" x="55.895" y="-230.3" font-family="Times,serif" font-size="14.00" fill="#000000">social_group</text>
</g>
<!-- organization&#45;&gt;social_group -->
<g id="edge2" class="edge">
<title>organization&#45;&gt;social_group</title>
<path fill="none" stroke="#000000" d="M55.895,-287.8314C55.895,-280.131 55.895,-270.9743 55.895,-262.4166"/>
<polygon fill="#000000" stroke="#000000" points="59.3951,-262.4132 55.895,-252.4133 52.3951,-262.4133 59.3951,-262.4132"/>
</g>
<!-- group -->
<g id="node4" class="node">
<title>group</title>
<ellipse fill="#b2dfee" stroke="#b2dfee" cx="55.895" cy="-162" rx="31.3957" ry="18"/>
<text text-anchor="middle" x="55.895" y="-158.3" font-family="Times,serif" font-size="14.00" fill="#000000">group</text>
</g>
<!-- social_group&#45;&gt;group -->
<g id="edge3" class="edge">
<title>social_group&#45;&gt;group</title>
<path fill="none" stroke="#000000" d="M55.895,-215.8314C55.895,-208.131 55.895,-198.9743 55.895,-190.4166"/>
<polygon fill="#000000" stroke="#000000" points="59.3951,-190.4132 55.895,-180.4133 52.3951,-190.4133 59.3951,-190.4132"/>
</g>
<!-- abstraction -->
<g id="node5" class="node">
<title>abstraction</title>
<ellipse fill="#b2dfee" stroke="#b2dfee" cx="55.895" cy="-90" rx="49.2915" ry="18"/>
<text text-anchor="middle" x="55.895" y="-86.3" font-family="Times,serif" font-size="14.00" fill="#000000">abstraction</text>
</g>
<!-- group&#45;&gt;abstraction -->
<g id="edge4" class="edge">
<title>group&#45;&gt;abstraction</title>
<path fill="none" stroke="#000000" d="M55.895,-143.8314C55.895,-136.131 55.895,-126.9743 55.895,-118.4166"/>
<polygon fill="#000000" stroke="#000000" points="59.3951,-118.4132 55.895,-108.4133 52.3951,-118.4133 59.3951,-118.4132"/>
</g>
<!-- entity -->
<g id="node6" class="node">
<title>entity</title>
<ellipse fill="#b2dfee" stroke="#b2dfee" cx="55.895" cy="-18" rx="30.5947" ry="18"/>
<text text-anchor="middle" x="55.895" y="-14.3" font-family="Times,serif" font-size="14.00" fill="#000000">entity</text>
</g>
<!-- abstraction&#45;&gt;entity -->
<g id="edge5" class="edge">
<title>abstraction&#45;&gt;entity</title>
<path fill="none" stroke="#000000" d="M55.895,-71.8314C55.895,-64.131 55.895,-54.9743 55.895,-46.4166"/>
<polygon fill="#000000" stroke="#000000" points="59.3951,-46.4132 55.895,-36.4133 52.3951,-46.4133 59.3951,-46.4132"/>
</g>
</g>
</svg>
