<?xml version="1.0" encoding="UTF-8" standalone="no"?>
<!DOCTYPE svg PUBLIC "-//W3C//DTD SVG 1.1//EN"
 "http://www.w3.org/Graphics/SVG/1.1/DTD/svg11.dtd">
<!-- Generated by graphviz version 2.40.1 (20161225.0304)
 -->
<!-- Title: unix Pages: 1 -->
<svg width="181pt" height="432pt"
 viewBox="0.00 0.00 180.68 432.00" xmlns="http://www.w3.org/2000/svg" xmlns:xlink="http://www.w3.org/1999/xlink">
<g id="graph0" class="graph" transform="scale(.9076 .9076) rotate(0) translate(4 472)">
<title>unix</title>
<polygon fill="#ffffff" stroke="transparent" points="-4,4 -4,-472 195.083,-472 195.083,4 -4,4"/>
<!-- play -->
<g id="node1" class="node">
<title>play</title>
<ellipse fill="#b2dfee" stroke="#b2dfee" cx="95.5415" cy="-450" rx="27" ry="18"/>
<text text-anchor="middle" x="95.5415" y="-446.3" font-family="Times,serif" font-size="14.00" fill="#000000">play</text>
</g>
<!-- dramatic_composition -->
<g id="node2" class="node">
<title>dramatic_composition</title>
<ellipse fill="#b2dfee" stroke="#b2dfee" cx="95.5415" cy="-378" rx="90.1842" ry="18"/>
<text text-anchor="middle" x="95.5415" y="-374.3" font-family="Times,serif" font-size="14.00" fill="#000000">dramatic_composition</text>
</g>
<!-- play&#45;&gt;dramatic_composition -->
<g id="edge1" class="edge">
<title>play&#45;&gt;dramatic_composition</title>
<path fill="none" stroke="#000000" d="M95.5415,-431.8314C95.5415,-424.131 95.5415,-414.9743 95.5415,-406.4166"/>
<polygon fill="#000000" stroke="#000000" points="99.0416,-406.4132 95.5415,-396.4133 92.0416,-406.4133 99.0416,-406.4132"/>
</g>
<!-- writing -->
<g id="node3" class="node">
<title>writing</title>
<ellipse fill="#b2dfee" stroke="#b2dfee" cx="95.5415" cy="-306" rx="36.2938" ry="18"/>
<text text-anchor="middle" x="95.5415" y="-302.3" font-family="Times,serif" font-size="14.00" fill="#000000">writing</text>
</g>
<!-- dramatic_composition&#45;&gt;writing -->
<g id="edge2" class="edge">
<title>dramatic_composition&#45;&gt;writing</title>
<path fill="none" stroke="#000000" d="M95.5415,-359.8314C95.5415,-352.131 95.5415,-342.9743 95.5415,-334.4166"/>
<polygon fill="#000000" stroke="#000000" points="99.0416,-334.4132 95.5415,-324.4133 92.0416,-334.4133 99.0416,-334.4132"/>
</g>
<!-- written_communication -->
<g id="node4" class="node">
<title>written_communication</title>
<ellipse fill="#b2dfee" stroke="#b2dfee" cx="95.5415" cy="-234" rx="95.5831" ry="18"/>
<text text-anchor="middle" x="95.5415" y="-230.3" font-family="Times,serif" font-size="14.00" fill="#000000">written_communication</text>
</g>
<!-- writing&#45;&gt;written_communication -->
<g id="edge3" class="edge">
<title>writing&#45;&gt;written_communication</title>
<path fill="none" stroke="#000000" d="M95.5415,-287.8314C95.5415,-280.131 95.5415,-270.9743 95.5415,-262.4166"/>
<polygon fill="#000000" stroke="#000000" points="99.0416,-262.4132 95.5415,-252.4133 92.0416,-262.4133 99.0416,-262.4132"/>
</g>
<!-- communication -->
<g id="node5" class="node">
<title>communication</title>
<ellipse fill="#b2dfee" stroke="#b2dfee" cx="95.5415" cy="-162" rx="66.0889" ry="18"/>
<text text-anchor="middle" x="95.5415" y="-158.3" font-family="Times,serif" font-size="14.00" fill="#000000">communication</text>
</g>
<!-- written_communication&#45;&gt;communication -->
<g id="edge4" class="edge">
<title>written_communication&#45;&gt;communication</title>
<path fill="none" stroke="#000000" d="M95.5415,-215.8314C95.5415,-208.131 95.5415,-198.9743 95.5415,-190.4166"/>
<polygon fill="#000000" stroke="#000000" points="99.0416,-190.4132 95.5415,-180.4133 92.0416,-190.4133 99.0416,-190.4132"/>
</g>
<!-- abstraction -->
<g id="node6" class="node">
<title>abstraction</title>
<ellipse fill="#b2dfee" stroke="#b2dfee" cx="95.5415" cy="-90" rx="49.2915" ry="18"/>
<text text-anchor="middle" x="95.5415" y="-86.3" font-family="Times,serif" font-size="14.00" fill="#000000">abstraction</text>
</g>
<!-- communication&#45;&gt;abstraction -->
<g id="edge5" class="edge">
<title>communication&#45;&gt;abstraction</title>
<path fill="none" stroke="#000000" d="M95.5415,-143.8314C95.5415,-136.131 95.5415,-126.9743 95.5415,-118.4166"/>
<polygon fill="#000000" stroke="#000000" points="99.0416,-118.4132 95.5415,-108.4133 92.0416,-118.4133 99.0416,-118.4132"/>
</g>
<!-- entity -->
<g id="node7" class="node">
<title>entity</title>
<ellipse fill="#b2dfee" stroke="#b2dfee" cx="95.5415" cy="-18" rx="30.5947" ry="18"/>
<text text-anchor="middle" x="95.5415" y="-14.3" font-family="Times,serif" font-size="14.00" fill="#000000">entity</text>
</g>
<!-- abstraction&#45;&gt;entity -->
<g id="edge6" class="edge">
<title>abstraction&#45;&gt;entity</title>
<path fill="none" stroke="#000000" d="M95.5415,-71.8314C95.5415,-64.131 95.5415,-54.9743 95.5415,-46.4166"/>
<polygon fill="#000000" stroke="#000000" points="99.0416,-46.4132 95.5415,-36.4133 92.0416,-46.4133 99.0416,-46.4132"/>
</g>
</g>
</svg>
