<?xml version="1.0" encoding="UTF-8" standalone="no"?>
<!DOCTYPE svg PUBLIC "-//W3C//DTD SVG 1.1//EN"
 "http://www.w3.org/Graphics/SVG/1.1/DTD/svg11.dtd">
<!-- Generated by graphviz version 2.40.1 (20161225.0304)
 -->
<!-- Title: unix Pages: 1 -->
<svg width="141pt" height="432pt"
 viewBox="0.00 0.00 140.92 432.00" xmlns="http://www.w3.org/2000/svg" xmlns:xlink="http://www.w3.org/1999/xlink">
<g id="graph0" class="graph" transform="scale(.4758 .4758) rotate(0) translate(4 904)">
<title>unix</title>
<polygon fill="#ffffff" stroke="transparent" points="-4,4 -4,-904 292.1869,-904 292.1869,4 -4,4"/>
<!-- playing -->
<g id="node1" class="node">
<title>playing</title>
<ellipse fill="#b2dfee" stroke="#b2dfee" cx="129.7947" cy="-882" rx="37.0935" ry="18"/>
<text text-anchor="middle" x="129.7947" y="-878.3" font-family="Times,serif" font-size="14.00" fill="#000000">playing</text>
</g>
<!-- musical_performance -->
<g id="node2" class="node">
<title>musical_performance</title>
<ellipse fill="#b2dfee" stroke="#b2dfee" cx="129.7947" cy="-810" rx="87.9851" ry="18"/>
<text text-anchor="middle" x="129.7947" y="-806.3" font-family="Times,serif" font-size="14.00" fill="#000000">musical_performance</text>
</g>
<!-- playing&#45;&gt;musical_performance -->
<g id="edge1" class="edge">
<title>playing&#45;&gt;musical_performance</title>
<path fill="none" stroke="#000000" d="M129.7947,-863.8314C129.7947,-856.131 129.7947,-846.9743 129.7947,-838.4166"/>
<polygon fill="#000000" stroke="#000000" points="133.2948,-838.4132 129.7947,-828.4133 126.2948,-838.4133 133.2948,-838.4132"/>
</g>
<!-- performance -->
<g id="node3" class="node">
<title>performance</title>
<ellipse fill="#b2dfee" stroke="#b2dfee" cx="87.7947" cy="-738" rx="55.7903" ry="18"/>
<text text-anchor="middle" x="87.7947" y="-734.3" font-family="Times,serif" font-size="14.00" fill="#000000">performance</text>
</g>
<!-- musical_performance&#45;&gt;performance -->
<g id="edge2" class="edge">
<title>musical_performance&#45;&gt;performance</title>
<path fill="none" stroke="#000000" d="M119.1963,-791.8314C114.3847,-783.5829 108.5984,-773.6635 103.3109,-764.5992"/>
<polygon fill="#000000" stroke="#000000" points="106.3062,-762.7876 98.2442,-755.9134 100.2597,-766.3148 106.3062,-762.7876"/>
</g>
<!-- performing_arts -->
<g id="node14" class="node">
<title>performing_arts</title>
<ellipse fill="#b2dfee" stroke="#b2dfee" cx="199.7947" cy="-666" rx="67.6881" ry="18"/>
<text text-anchor="middle" x="199.7947" y="-662.3" font-family="Times,serif" font-size="14.00" fill="#000000">performing_arts</text>
</g>
<!-- musical_performance&#45;&gt;performing_arts -->
<g id="edge13" class="edge">
<title>musical_performance&#45;&gt;performing_arts</title>
<path fill="none" stroke="#000000" d="M138.5187,-792.0535C150.5702,-767.2618 172.4166,-722.3207 186.5055,-693.3378"/>
<polygon fill="#000000" stroke="#000000" points="189.7365,-694.6966 190.9607,-684.1727 183.441,-691.6362 189.7365,-694.6966"/>
</g>
<!-- presentation -->
<g id="node4" class="node">
<title>presentation</title>
<ellipse fill="#b2dfee" stroke="#b2dfee" cx="59.7947" cy="-666" rx="53.8905" ry="18"/>
<text text-anchor="middle" x="59.7947" y="-662.3" font-family="Times,serif" font-size="14.00" fill="#000000">presentation</text>
</g>
<!-- performance&#45;&gt;presentation -->
<g id="edge3" class="edge">
<title>performance&#45;&gt;presentation</title>
<path fill="none" stroke="#000000" d="M80.7291,-719.8314C77.6216,-711.8406 73.9043,-702.2819 70.4702,-693.4514"/>
<polygon fill="#000000" stroke="#000000" points="73.6476,-691.9649 66.761,-683.9134 67.1235,-694.502 73.6476,-691.9649"/>
</g>
<!-- show -->
<g id="node5" class="node">
<title>show</title>
<ellipse fill="#b2dfee" stroke="#b2dfee" cx="59.7947" cy="-594" rx="29.4969" ry="18"/>
<text text-anchor="middle" x="59.7947" y="-590.3" font-family="Times,serif" font-size="14.00" fill="#000000">show</text>
</g>
<!-- presentation&#45;&gt;show -->
<g id="edge4" class="edge">
<title>presentation&#45;&gt;show</title>
<path fill="none" stroke="#000000" d="M59.7947,-647.8314C59.7947,-640.131 59.7947,-630.9743 59.7947,-622.4166"/>
<polygon fill="#000000" stroke="#000000" points="63.2948,-622.4132 59.7947,-612.4133 56.2948,-622.4133 63.2948,-622.4132"/>
</g>
<!-- entertainment -->
<g id="node6" class="node">
<title>entertainment</title>
<ellipse fill="#b2dfee" stroke="#b2dfee" cx="59.7947" cy="-522" rx="59.5901" ry="18"/>
<text text-anchor="middle" x="59.7947" y="-518.3" font-family="Times,serif" font-size="14.00" fill="#000000">entertainment</text>
</g>
<!-- show&#45;&gt;entertainment -->
<g id="edge5" class="edge">
<title>show&#45;&gt;entertainment</title>
<path fill="none" stroke="#000000" d="M59.7947,-575.8314C59.7947,-568.131 59.7947,-558.9743 59.7947,-550.4166"/>
<polygon fill="#000000" stroke="#000000" points="63.2948,-550.4132 59.7947,-540.4133 56.2948,-550.4133 63.2948,-550.4132"/>
</g>
<!-- diversion -->
<g id="node7" class="node">
<title>diversion</title>
<ellipse fill="#b2dfee" stroke="#b2dfee" cx="58.7947" cy="-450" rx="43.5923" ry="18"/>
<text text-anchor="middle" x="58.7947" y="-446.3" font-family="Times,serif" font-size="14.00" fill="#000000">diversion</text>
</g>
<!-- entertainment&#45;&gt;diversion -->
<g id="edge6" class="edge">
<title>entertainment&#45;&gt;diversion</title>
<path fill="none" stroke="#000000" d="M59.5424,-503.8314C59.4354,-496.131 59.3082,-486.9743 59.1894,-478.4166"/>
<polygon fill="#000000" stroke="#000000" points="62.6891,-478.3637 59.0504,-468.4133 55.6897,-478.4609 62.6891,-478.3637"/>
</g>
<!-- activity -->
<g id="node8" class="node">
<title>activity</title>
<ellipse fill="#b2dfee" stroke="#b2dfee" cx="83.7947" cy="-378" rx="37.0935" ry="18"/>
<text text-anchor="middle" x="83.7947" y="-374.3" font-family="Times,serif" font-size="14.00" fill="#000000">activity</text>
</g>
<!-- diversion&#45;&gt;activity -->
<g id="edge7" class="edge">
<title>diversion&#45;&gt;activity</title>
<path fill="none" stroke="#000000" d="M65.1032,-431.8314C67.8778,-423.8406 71.1968,-414.2819 74.263,-405.4514"/>
<polygon fill="#000000" stroke="#000000" points="77.6009,-406.5082 77.5748,-395.9134 70.9882,-404.2121 77.6009,-406.5082"/>
</g>
<!-- act -->
<g id="node9" class="node">
<title>act</title>
<ellipse fill="#b2dfee" stroke="#b2dfee" cx="84.7947" cy="-306" rx="27" ry="18"/>
<text text-anchor="middle" x="84.7947" y="-302.3" font-family="Times,serif" font-size="14.00" fill="#000000">act</text>
</g>
<!-- activity&#45;&gt;act -->
<g id="edge8" class="edge">
<title>activity&#45;&gt;act</title>
<path fill="none" stroke="#000000" d="M84.047,-359.8314C84.154,-352.131 84.2812,-342.9743 84.4,-334.4166"/>
<polygon fill="#000000" stroke="#000000" points="87.8996,-334.4609 84.539,-324.4133 80.9003,-334.3637 87.8996,-334.4609"/>
</g>
<!-- event -->
<g id="node10" class="node">
<title>event</title>
<ellipse fill="#b2dfee" stroke="#b2dfee" cx="99.7947" cy="-234" rx="29.795" ry="18"/>
<text text-anchor="middle" x="99.7947" y="-230.3" font-family="Times,serif" font-size="14.00" fill="#000000">event</text>
</g>
<!-- act&#45;&gt;event -->
<g id="edge9" class="edge">
<title>act&#45;&gt;event</title>
<path fill="none" stroke="#000000" d="M88.5798,-287.8314C90.2267,-279.9266 92.1932,-270.4872 94.0163,-261.7365"/>
<polygon fill="#000000" stroke="#000000" points="97.4495,-262.4171 96.0627,-251.9134 90.5967,-260.9894 97.4495,-262.4171"/>
</g>
<!-- psychological_feature -->
<g id="node11" class="node">
<title>psychological_feature</title>
<ellipse fill="#b2dfee" stroke="#b2dfee" cx="128.7947" cy="-162" rx="88.2844" ry="18"/>
<text text-anchor="middle" x="128.7947" y="-158.3" font-family="Times,serif" font-size="14.00" fill="#000000">psychological_feature</text>
</g>
<!-- event&#45;&gt;psychological_feature -->
<g id="edge10" class="edge">
<title>event&#45;&gt;psychological_feature</title>
<path fill="none" stroke="#000000" d="M106.9632,-216.2022C110.2151,-208.1287 114.1345,-198.3976 117.7497,-189.422"/>
<polygon fill="#000000" stroke="#000000" points="121.0176,-190.6766 121.5072,-180.0931 114.5245,-188.0613 121.0176,-190.6766"/>
</g>
<!-- abstraction -->
<g id="node12" class="node">
<title>abstraction</title>
<ellipse fill="#b2dfee" stroke="#b2dfee" cx="128.7947" cy="-90" rx="49.2915" ry="18"/>
<text text-anchor="middle" x="128.7947" y="-86.3" font-family="Times,serif" font-size="14.00" fill="#000000">abstraction</text>
</g>
<!-- psychological_feature&#45;&gt;abstraction -->
<g id="edge11" class="edge">
<title>psychological_feature&#45;&gt;abstraction</title>
<path fill="none" stroke="#000000" d="M128.7947,-143.8314C128.7947,-136.131 128.7947,-126.9743 128.7947,-118.4166"/>
<polygon fill="#000000" stroke="#000000" points="132.2948,-118.4132 128.7947,-108.4133 125.2948,-118.4133 132.2948,-118.4132"/>
</g>
<!-- entity -->
<g id="node13" class="node">
<title>entity</title>
<ellipse fill="#b2dfee" stroke="#b2dfee" cx="128.7947" cy="-18" rx="30.5947" ry="18"/>
<text text-anchor="middle" x="128.7947" y="-14.3" font-family="Times,serif" font-size="14.00" fill="#000000">entity</text>
</g>
<!-- abstraction&#45;&gt;entity -->
<g id="edge12" class="edge">
<title>abstraction&#45;&gt;entity</title>
<path fill="none" stroke="#000000" d="M128.7947,-71.8314C128.7947,-64.131 128.7947,-54.9743 128.7947,-46.4166"/>
<polygon fill="#000000" stroke="#000000" points="132.2948,-46.4132 128.7947,-36.4133 125.2948,-46.4133 132.2948,-46.4132"/>
</g>
<!-- humanistic_discipline -->
<g id="node15" class="node">
<title>humanistic_discipline</title>
<ellipse fill="#b2dfee" stroke="#b2dfee" cx="199.7947" cy="-594" rx="88.2844" ry="18"/>
<text text-anchor="middle" x="199.7947" y="-590.3" font-family="Times,serif" font-size="14.00" fill="#000000">humanistic_discipline</text>
</g>
<!-- performing_arts&#45;&gt;humanistic_discipline -->
<g id="edge14" class="edge">
<title>performing_arts&#45;&gt;humanistic_discipline</title>
<path fill="none" stroke="#000000" d="M199.7947,-647.8314C199.7947,-640.131 199.7947,-630.9743 199.7947,-622.4166"/>
<polygon fill="#000000" stroke="#000000" points="203.2948,-622.4132 199.7947,-612.4133 196.2948,-622.4133 203.2948,-622.4132"/>
</g>
<!-- discipline -->
<g id="node16" class="node">
<title>discipline</title>
<ellipse fill="#b2dfee" stroke="#b2dfee" cx="199.7947" cy="-522" rx="44.6926" ry="18"/>
<text text-anchor="middle" x="199.7947" y="-518.3" font-family="Times,serif" font-size="14.00" fill="#000000">discipline</text>
</g>
<!-- humanistic_discipline&#45;&gt;discipline -->
<g id="edge15" class="edge">
<title>humanistic_discipline&#45;&gt;discipline</title>
<path fill="none" stroke="#000000" d="M199.7947,-575.8314C199.7947,-568.131 199.7947,-558.9743 199.7947,-550.4166"/>
<polygon fill="#000000" stroke="#000000" points="203.2948,-550.4132 199.7947,-540.4133 196.2948,-550.4133 203.2948,-550.4132"/>
</g>
<!-- knowledge_domain -->
<g id="node17" class="node">
<title>knowledge_domain</title>
<ellipse fill="#b2dfee" stroke="#b2dfee" cx="200.7947" cy="-450" rx="80.6858" ry="18"/>
<text text-anchor="middle" x="200.7947" y="-446.3" font-family="Times,serif" font-size="14.00" fill="#000000">knowledge_domain</text>
</g>
<!-- discipline&#45;&gt;knowledge_domain -->
<g id="edge16" class="edge">
<title>discipline&#45;&gt;knowledge_domain</title>
<path fill="none" stroke="#000000" d="M200.047,-503.8314C200.154,-496.131 200.2812,-486.9743 200.4,-478.4166"/>
<polygon fill="#000000" stroke="#000000" points="203.8996,-478.4609 200.539,-468.4133 196.9003,-478.3637 203.8996,-478.4609"/>
</g>
<!-- content -->
<g id="node18" class="node">
<title>content</title>
<ellipse fill="#b2dfee" stroke="#b2dfee" cx="187.7947" cy="-378" rx="36.2938" ry="18"/>
<text text-anchor="middle" x="187.7947" y="-374.3" font-family="Times,serif" font-size="14.00" fill="#000000">content</text>
</g>
<!-- knowledge_domain&#45;&gt;content -->
<g id="edge17" class="edge">
<title>knowledge_domain&#45;&gt;content</title>
<path fill="none" stroke="#000000" d="M197.5142,-431.8314C196.1239,-424.131 194.4706,-414.9743 192.9255,-406.4166"/>
<polygon fill="#000000" stroke="#000000" points="196.3405,-405.6322 191.1193,-396.4133 189.4519,-406.8761 196.3405,-405.6322"/>
</g>
<!-- cognition -->
<g id="node19" class="node">
<title>cognition</title>
<ellipse fill="#b2dfee" stroke="#b2dfee" cx="180.7947" cy="-306" rx="44.393" ry="18"/>
<text text-anchor="middle" x="180.7947" y="-302.3" font-family="Times,serif" font-size="14.00" fill="#000000">cognition</text>
</g>
<!-- content&#45;&gt;cognition -->
<g id="edge18" class="edge">
<title>content&#45;&gt;cognition</title>
<path fill="none" stroke="#000000" d="M186.0283,-359.8314C185.2796,-352.131 184.3894,-342.9743 183.5574,-334.4166"/>
<polygon fill="#000000" stroke="#000000" points="187.0362,-334.0276 182.5849,-324.4133 180.069,-334.7051 187.0362,-334.0276"/>
</g>
<!-- cognition&#45;&gt;psychological_feature -->
<g id="edge19" class="edge">
<title>cognition&#45;&gt;psychological_feature</title>
<path fill="none" stroke="#000000" d="M174.314,-288.0535C165.4004,-263.3696 149.2737,-218.7111 138.8035,-189.7167"/>
<polygon fill="#000000" stroke="#000000" points="142.0455,-188.3895 135.3571,-180.1727 135.4616,-190.767 142.0455,-188.3895"/>
</g>
</g>
</svg>
