<?xml version="1.0" encoding="UTF-8" standalone="no"?>
<!DOCTYPE svg PUBLIC "-//W3C//DTD SVG 1.1//EN"
 "http://www.w3.org/Graphics/SVG/1.1/DTD/svg11.dtd">
<!-- Generated by graphviz version 2.40.1 (20161225.0304)
 -->
<!-- Title: unix Pages: 1 -->
<svg width="273pt" height="432pt"
 viewBox="0.00 0.00 273.16 432.00" xmlns="http://www.w3.org/2000/svg" xmlns:xlink="http://www.w3.org/1999/xlink">
<g id="graph0" class="graph" transform="scale(.6968 .6968) rotate(0) translate(4 616)">
<title>unix</title>
<polygon fill="#ffffff" stroke="transparent" points="-4,4 -4,-616 388.0409,-616 388.0409,4 -4,4"/>
<!-- potato -->
<g id="node1" class="node">
<title>potato</title>
<ellipse fill="#b2dfee" stroke="#b2dfee" cx="235.0444" cy="-594" rx="32.4942" ry="18"/>
<text text-anchor="middle" x="235.0444" y="-590.3" font-family="Times,serif" font-size="14.00" fill="#000000">potato</text>
</g>
<!-- root_vegetable -->
<g id="node2" class="node">
<title>root_vegetable</title>
<ellipse fill="#b2dfee" stroke="#b2dfee" cx="63.0444" cy="-522" rx="63.0888" ry="18"/>
<text text-anchor="middle" x="63.0444" y="-518.3" font-family="Times,serif" font-size="14.00" fill="#000000">root_vegetable</text>
</g>
<!-- potato&#45;&gt;root_vegetable -->
<g id="edge1" class="edge">
<title>potato&#45;&gt;root_vegetable</title>
<path fill="none" stroke="#000000" d="M208.9213,-583.0647C182.264,-571.9059 140.3693,-554.3686 108.3027,-540.9454"/>
<polygon fill="#000000" stroke="#000000" points="109.2703,-537.5561 98.6943,-536.9232 106.5672,-544.0132 109.2703,-537.5561"/>
</g>
<!-- solanaceous_vegetable -->
<g id="node10" class="node">
<title>solanaceous_vegetable</title>
<ellipse fill="#b2dfee" stroke="#b2dfee" cx="235.0444" cy="-522" rx="90.9839" ry="18"/>
<text text-anchor="middle" x="235.0444" y="-518.3" font-family="Times,serif" font-size="14.00" fill="#000000">solanaceous_vegetable</text>
</g>
<!-- potato&#45;&gt;solanaceous_vegetable -->
<g id="edge9" class="edge">
<title>potato&#45;&gt;solanaceous_vegetable</title>
<path fill="none" stroke="#000000" d="M235.0444,-575.8314C235.0444,-568.131 235.0444,-558.9743 235.0444,-550.4166"/>
<polygon fill="#000000" stroke="#000000" points="238.5445,-550.4132 235.0444,-540.4133 231.5445,-550.4133 238.5445,-550.4132"/>
</g>
<!-- starches -->
<g id="node11" class="node">
<title>starches</title>
<ellipse fill="#b2dfee" stroke="#b2dfee" cx="345.0444" cy="-450" rx="38.9931" ry="18"/>
<text text-anchor="middle" x="345.0444" y="-446.3" font-family="Times,serif" font-size="14.00" fill="#000000">starches</text>
</g>
<!-- potato&#45;&gt;starches -->
<g id="edge11" class="edge">
<title>potato&#45;&gt;starches</title>
<path fill="none" stroke="#000000" d="M264.7055,-586.2049C287.8489,-578.4782 318.7213,-564.2131 335.0444,-540 347.1483,-522.0454 349.1225,-497.3585 348.3634,-478.3809"/>
<polygon fill="#000000" stroke="#000000" points="351.8442,-477.9762 347.6822,-468.2331 344.8599,-478.4451 351.8442,-477.9762"/>
</g>
<!-- vegetable -->
<g id="node3" class="node">
<title>vegetable</title>
<ellipse fill="#b2dfee" stroke="#b2dfee" cx="235.0444" cy="-450" rx="44.393" ry="18"/>
<text text-anchor="middle" x="235.0444" y="-446.3" font-family="Times,serif" font-size="14.00" fill="#000000">vegetable</text>
</g>
<!-- root_vegetable&#45;&gt;vegetable -->
<g id="edge2" class="edge">
<title>root_vegetable&#45;&gt;vegetable</title>
<path fill="none" stroke="#000000" d="M98.6829,-507.0816C126.6188,-495.3875 165.5013,-479.1111 194.6009,-466.9298"/>
<polygon fill="#000000" stroke="#000000" points="196.1916,-470.0583 204.0645,-462.9683 193.4886,-463.6012 196.1916,-470.0583"/>
</g>
<!-- produce -->
<g id="node4" class="node">
<title>produce</title>
<ellipse fill="#b2dfee" stroke="#b2dfee" cx="235.0444" cy="-378" rx="38.9931" ry="18"/>
<text text-anchor="middle" x="235.0444" y="-374.3" font-family="Times,serif" font-size="14.00" fill="#000000">produce</text>
</g>
<!-- vegetable&#45;&gt;produce -->
<g id="edge3" class="edge">
<title>vegetable&#45;&gt;produce</title>
<path fill="none" stroke="#000000" d="M235.0444,-431.8314C235.0444,-424.131 235.0444,-414.9743 235.0444,-406.4166"/>
<polygon fill="#000000" stroke="#000000" points="238.5445,-406.4132 235.0444,-396.4133 231.5445,-406.4133 238.5445,-406.4132"/>
</g>
<!-- food -->
<g id="node5" class="node">
<title>food</title>
<ellipse fill="#b2dfee" stroke="#b2dfee" cx="285.0444" cy="-306" rx="27" ry="18"/>
<text text-anchor="middle" x="285.0444" y="-302.3" font-family="Times,serif" font-size="14.00" fill="#000000">food</text>
</g>
<!-- produce&#45;&gt;food -->
<g id="edge4" class="edge">
<title>produce&#45;&gt;food</title>
<path fill="none" stroke="#000000" d="M247.148,-360.5708C253.2553,-351.7763 260.7766,-340.9457 267.5044,-331.2577"/>
<polygon fill="#000000" stroke="#000000" points="270.5674,-332.983 273.3966,-322.7729 264.8177,-328.9902 270.5674,-332.983"/>
</g>
<!-- solid -->
<g id="node6" class="node">
<title>solid</title>
<ellipse fill="#b2dfee" stroke="#b2dfee" cx="240.0444" cy="-234" rx="27.8951" ry="18"/>
<text text-anchor="middle" x="240.0444" y="-230.3" font-family="Times,serif" font-size="14.00" fill="#000000">solid</text>
</g>
<!-- food&#45;&gt;solid -->
<g id="edge5" class="edge">
<title>food&#45;&gt;solid</title>
<path fill="none" stroke="#000000" d="M274.6074,-289.3008C269.1209,-280.5224 262.2758,-269.5703 256.1281,-259.7339"/>
<polygon fill="#000000" stroke="#000000" points="259.0053,-257.7336 250.7373,-251.1086 253.0693,-261.4436 259.0053,-257.7336"/>
</g>
<!-- substance -->
<g id="node13" class="node">
<title>substance</title>
<ellipse fill="#b2dfee" stroke="#b2dfee" cx="331.0444" cy="-234" rx="44.6926" ry="18"/>
<text text-anchor="middle" x="331.0444" y="-230.3" font-family="Times,serif" font-size="14.00" fill="#000000">substance</text>
</g>
<!-- food&#45;&gt;substance -->
<g id="edge14" class="edge">
<title>food&#45;&gt;substance</title>
<path fill="none" stroke="#000000" d="M295.7134,-289.3008C301.2405,-280.6496 308.1164,-269.8873 314.3296,-260.1623"/>
<polygon fill="#000000" stroke="#000000" points="317.357,-261.9245 319.7915,-251.6132 311.4582,-258.1558 317.357,-261.9245"/>
</g>
<!-- matter -->
<g id="node7" class="node">
<title>matter</title>
<ellipse fill="#b2dfee" stroke="#b2dfee" cx="285.0444" cy="-162" rx="33.5952" ry="18"/>
<text text-anchor="middle" x="285.0444" y="-158.3" font-family="Times,serif" font-size="14.00" fill="#000000">matter</text>
</g>
<!-- solid&#45;&gt;matter -->
<g id="edge6" class="edge">
<title>solid&#45;&gt;matter</title>
<path fill="none" stroke="#000000" d="M250.4814,-217.3008C255.9679,-208.5224 262.813,-197.5703 268.9607,-187.7339"/>
<polygon fill="#000000" stroke="#000000" points="272.0195,-189.4436 274.3515,-179.1086 266.0835,-185.7336 272.0195,-189.4436"/>
</g>
<!-- physical_entity -->
<g id="node8" class="node">
<title>physical_entity</title>
<ellipse fill="#b2dfee" stroke="#b2dfee" cx="285.0444" cy="-90" rx="64.189" ry="18"/>
<text text-anchor="middle" x="285.0444" y="-86.3" font-family="Times,serif" font-size="14.00" fill="#000000">physical_entity</text>
</g>
<!-- matter&#45;&gt;physical_entity -->
<g id="edge7" class="edge">
<title>matter&#45;&gt;physical_entity</title>
<path fill="none" stroke="#000000" d="M285.0444,-143.8314C285.0444,-136.131 285.0444,-126.9743 285.0444,-118.4166"/>
<polygon fill="#000000" stroke="#000000" points="288.5445,-118.4132 285.0444,-108.4133 281.5445,-118.4133 288.5445,-118.4132"/>
</g>
<!-- entity -->
<g id="node9" class="node">
<title>entity</title>
<ellipse fill="#b2dfee" stroke="#b2dfee" cx="285.0444" cy="-18" rx="30.5947" ry="18"/>
<text text-anchor="middle" x="285.0444" y="-14.3" font-family="Times,serif" font-size="14.00" fill="#000000">entity</text>
</g>
<!-- physical_entity&#45;&gt;entity -->
<g id="edge8" class="edge">
<title>physical_entity&#45;&gt;entity</title>
<path fill="none" stroke="#000000" d="M285.0444,-71.8314C285.0444,-64.131 285.0444,-54.9743 285.0444,-46.4166"/>
<polygon fill="#000000" stroke="#000000" points="288.5445,-46.4132 285.0444,-36.4133 281.5445,-46.4133 288.5445,-46.4132"/>
</g>
<!-- solanaceous_vegetable&#45;&gt;vegetable -->
<g id="edge10" class="edge">
<title>solanaceous_vegetable&#45;&gt;vegetable</title>
<path fill="none" stroke="#000000" d="M235.0444,-503.8314C235.0444,-496.131 235.0444,-486.9743 235.0444,-478.4166"/>
<polygon fill="#000000" stroke="#000000" points="238.5445,-478.4132 235.0444,-468.4133 231.5445,-478.4133 238.5445,-478.4132"/>
</g>
<!-- foodstuff -->
<g id="node12" class="node">
<title>foodstuff</title>
<ellipse fill="#b2dfee" stroke="#b2dfee" cx="335.0444" cy="-378" rx="42.7926" ry="18"/>
<text text-anchor="middle" x="335.0444" y="-374.3" font-family="Times,serif" font-size="14.00" fill="#000000">foodstuff</text>
</g>
<!-- starches&#45;&gt;foodstuff -->
<g id="edge12" class="edge">
<title>starches&#45;&gt;foodstuff</title>
<path fill="none" stroke="#000000" d="M342.521,-431.8314C341.4515,-424.131 340.1797,-414.9743 338.9912,-406.4166"/>
<polygon fill="#000000" stroke="#000000" points="342.4443,-405.8367 337.6018,-396.4133 335.5109,-406.7997 342.4443,-405.8367"/>
</g>
<!-- foodstuff&#45;&gt;food -->
<g id="edge13" class="edge">
<title>foodstuff&#45;&gt;food</title>
<path fill="none" stroke="#000000" d="M322.9408,-360.5708C316.8335,-351.7763 309.3123,-340.9457 302.5845,-331.2577"/>
<polygon fill="#000000" stroke="#000000" points="305.2711,-328.9902 296.6923,-322.7729 299.5215,-332.983 305.2711,-328.9902"/>
</g>
<!-- substance&#45;&gt;matter -->
<g id="edge15" class="edge">
<title>substance&#45;&gt;matter</title>
<path fill="none" stroke="#000000" d="M319.6736,-216.2022C314.1896,-207.6186 307.5086,-197.1613 301.4832,-187.7303"/>
<polygon fill="#000000" stroke="#000000" points="304.301,-185.6398 295.9676,-179.0972 298.4021,-189.4086 304.301,-185.6398"/>
</g>
</g>
</svg>
