<?xml version="1.0" encoding="UTF-8" standalone="no"?>
<!DOCTYPE svg PUBLIC "-//W3C//DTD SVG 1.1//EN"
 "http://www.w3.org/Graphics/SVG/1.1/DTD/svg11.dtd">
<!-- Generated by graphviz version 2.40.1 (20161225.0304)
 -->
<!-- Title: unix Pages: 1 -->
<svg width="94pt" height="432pt"
 viewBox="0.00 0.00 94.34 432.00" xmlns="http://www.w3.org/2000/svg" xmlns:xlink="http://www.w3.org/1999/xlink">
<g id="graph0" class="graph" transform="scale(.6968 .6968) rotate(0) translate(4 616)">
<title>unix</title>
<polygon fill="#ffffff" stroke="transparent" points="-4,4 -4,-616 131.3887,-616 131.3887,4 -4,4"/>
<!-- imperativeness -->
<g id="node1" class="node">
<title>imperativeness</title>
<ellipse fill="#b2dfee" stroke="#b2dfee" cx="63.6943" cy="-594" rx="63.8893" ry="18"/>
<text text-anchor="middle" x="63.6943" y="-590.3" font-family="Times,serif" font-size="14.00" fill="#000000">imperativeness</text>
</g>
<!-- urgency -->
<g id="node2" class="node">
<title>urgency</title>
<ellipse fill="#b2dfee" stroke="#b2dfee" cx="63.6943" cy="-522" rx="38.9931" ry="18"/>
<text text-anchor="middle" x="63.6943" y="-518.3" font-family="Times,serif" font-size="14.00" fill="#000000">urgency</text>
</g>
<!-- imperativeness&#45;&gt;urgency -->
<g id="edge1" class="edge">
<title>imperativeness&#45;&gt;urgency</title>
<path fill="none" stroke="#000000" d="M63.6943,-575.8314C63.6943,-568.131 63.6943,-558.9743 63.6943,-550.4166"/>
<polygon fill="#000000" stroke="#000000" points="67.1944,-550.4132 63.6943,-540.4133 60.1944,-550.4133 67.1944,-550.4132"/>
</g>
<!-- necessity -->
<g id="node3" class="node">
<title>necessity</title>
<ellipse fill="#b2dfee" stroke="#b2dfee" cx="63.6943" cy="-450" rx="42.7926" ry="18"/>
<text text-anchor="middle" x="63.6943" y="-446.3" font-family="Times,serif" font-size="14.00" fill="#000000">necessity</text>
</g>
<!-- urgency&#45;&gt;necessity -->
<g id="edge2" class="edge">
<title>urgency&#45;&gt;necessity</title>
<path fill="none" stroke="#000000" d="M63.6943,-503.8314C63.6943,-496.131 63.6943,-486.9743 63.6943,-478.4166"/>
<polygon fill="#000000" stroke="#000000" points="67.1944,-478.4132 63.6943,-468.4133 60.1944,-478.4133 67.1944,-478.4132"/>
</g>
<!-- need -->
<g id="node4" class="node">
<title>need</title>
<ellipse fill="#b2dfee" stroke="#b2dfee" cx="63.6943" cy="-378" rx="27.0966" ry="18"/>
<text text-anchor="middle" x="63.6943" y="-374.3" font-family="Times,serif" font-size="14.00" fill="#000000">need</text>
</g>
<!-- necessity&#45;&gt;need -->
<g id="edge3" class="edge">
<title>necessity&#45;&gt;need</title>
<path fill="none" stroke="#000000" d="M63.6943,-431.8314C63.6943,-424.131 63.6943,-414.9743 63.6943,-406.4166"/>
<polygon fill="#000000" stroke="#000000" points="67.1944,-406.4132 63.6943,-396.4133 60.1944,-406.4133 67.1944,-406.4132"/>
</g>
<!-- condition -->
<g id="node5" class="node">
<title>condition</title>
<ellipse fill="#b2dfee" stroke="#b2dfee" cx="63.6943" cy="-306" rx="44.393" ry="18"/>
<text text-anchor="middle" x="63.6943" y="-302.3" font-family="Times,serif" font-size="14.00" fill="#000000">condition</text>
</g>
<!-- need&#45;&gt;condition -->
<g id="edge4" class="edge">
<title>need&#45;&gt;condition</title>
<path fill="none" stroke="#000000" d="M63.6943,-359.8314C63.6943,-352.131 63.6943,-342.9743 63.6943,-334.4166"/>
<polygon fill="#000000" stroke="#000000" points="67.1944,-334.4132 63.6943,-324.4133 60.1944,-334.4133 67.1944,-334.4132"/>
</g>
<!-- state -->
<g id="node6" class="node">
<title>state</title>
<ellipse fill="#b2dfee" stroke="#b2dfee" cx="63.6943" cy="-234" rx="27" ry="18"/>
<text text-anchor="middle" x="63.6943" y="-230.3" font-family="Times,serif" font-size="14.00" fill="#000000">state</text>
</g>
<!-- condition&#45;&gt;state -->
<g id="edge5" class="edge">
<title>condition&#45;&gt;state</title>
<path fill="none" stroke="#000000" d="M63.6943,-287.8314C63.6943,-280.131 63.6943,-270.9743 63.6943,-262.4166"/>
<polygon fill="#000000" stroke="#000000" points="67.1944,-262.4132 63.6943,-252.4133 60.1944,-262.4133 67.1944,-262.4132"/>
</g>
<!-- attribute -->
<g id="node7" class="node">
<title>attribute</title>
<ellipse fill="#b2dfee" stroke="#b2dfee" cx="63.6943" cy="-162" rx="40.0939" ry="18"/>
<text text-anchor="middle" x="63.6943" y="-158.3" font-family="Times,serif" font-size="14.00" fill="#000000">attribute</text>
</g>
<!-- state&#45;&gt;attribute -->
<g id="edge6" class="edge">
<title>state&#45;&gt;attribute</title>
<path fill="none" stroke="#000000" d="M63.6943,-215.8314C63.6943,-208.131 63.6943,-198.9743 63.6943,-190.4166"/>
<polygon fill="#000000" stroke="#000000" points="67.1944,-190.4132 63.6943,-180.4133 60.1944,-190.4133 67.1944,-190.4132"/>
</g>
<!-- abstraction -->
<g id="node8" class="node">
<title>abstraction</title>
<ellipse fill="#b2dfee" stroke="#b2dfee" cx="63.6943" cy="-90" rx="49.2915" ry="18"/>
<text text-anchor="middle" x="63.6943" y="-86.3" font-family="Times,serif" font-size="14.00" fill="#000000">abstraction</text>
</g>
<!-- attribute&#45;&gt;abstraction -->
<g id="edge7" class="edge">
<title>attribute&#45;&gt;abstraction</title>
<path fill="none" stroke="#000000" d="M63.6943,-143.8314C63.6943,-136.131 63.6943,-126.9743 63.6943,-118.4166"/>
<polygon fill="#000000" stroke="#000000" points="67.1944,-118.4132 63.6943,-108.4133 60.1944,-118.4133 67.1944,-118.4132"/>
</g>
<!-- entity -->
<g id="node9" class="node">
<title>entity</title>
<ellipse fill="#b2dfee" stroke="#b2dfee" cx="63.6943" cy="-18" rx="30.5947" ry="18"/>
<text text-anchor="middle" x="63.6943" y="-14.3" font-family="Times,serif" font-size="14.00" fill="#000000">entity</text>
</g>
<!-- abstraction&#45;&gt;entity -->
<g id="edge8" class="edge">
<title>abstraction&#45;&gt;entity</title>
<path fill="none" stroke="#000000" d="M63.6943,-71.8314C63.6943,-64.131 63.6943,-54.9743 63.6943,-46.4166"/>
<polygon fill="#000000" stroke="#000000" points="67.1944,-46.4132 63.6943,-36.4133 60.1944,-46.4133 67.1944,-46.4132"/>
</g>
</g>
</svg>
