<?xml version="1.0" encoding="UTF-8" standalone="no"?>
<!DOCTYPE svg PUBLIC "-//W3C//DTD SVG 1.1//EN"
 "http://www.w3.org/Graphics/SVG/1.1/DTD/svg11.dtd">
<!-- Generated by graphviz version 2.40.1 (20161225.0304)
 -->
<!-- Title: unix Pages: 1 -->
<svg width="60pt" height="432pt"
 viewBox="0.00 0.00 60.25 432.00" xmlns="http://www.w3.org/2000/svg" xmlns:xlink="http://www.w3.org/1999/xlink">
<g id="graph0" class="graph" transform="scale(.4408 .4408) rotate(0) translate(4 976)">
<title>unix</title>
<polygon fill="#ffffff" stroke="transparent" points="-4,4 -4,-976 132.6886,-976 132.6886,4 -4,4"/>
<!-- rabbit -->
<g id="node1" class="node">
<title>rabbit</title>
<ellipse fill="#b2dfee" stroke="#b2dfee" cx="64.3443" cy="-954" rx="31.3957" ry="18"/>
<text text-anchor="middle" x="64.3443" y="-950.3" font-family="Times,serif" font-size="14.00" fill="#000000">rabbit</text>
</g>
<!-- leporid -->
<g id="node2" class="node">
<title>leporid</title>
<ellipse fill="#b2dfee" stroke="#b2dfee" cx="64.3443" cy="-882" rx="35.9954" ry="18"/>
<text text-anchor="middle" x="64.3443" y="-878.3" font-family="Times,serif" font-size="14.00" fill="#000000">leporid</text>
</g>
<!-- rabbit&#45;&gt;leporid -->
<g id="edge1" class="edge">
<title>rabbit&#45;&gt;leporid</title>
<path fill="none" stroke="#000000" d="M64.3443,-935.8314C64.3443,-928.131 64.3443,-918.9743 64.3443,-910.4166"/>
<polygon fill="#000000" stroke="#000000" points="67.8444,-910.4132 64.3443,-900.4133 60.8444,-910.4133 67.8444,-910.4132"/>
</g>
<!-- lagomorph -->
<g id="node3" class="node">
<title>lagomorph</title>
<ellipse fill="#b2dfee" stroke="#b2dfee" cx="64.3443" cy="-810" rx="49.2915" ry="18"/>
<text text-anchor="middle" x="64.3443" y="-806.3" font-family="Times,serif" font-size="14.00" fill="#000000">lagomorph</text>
</g>
<!-- leporid&#45;&gt;lagomorph -->
<g id="edge2" class="edge">
<title>leporid&#45;&gt;lagomorph</title>
<path fill="none" stroke="#000000" d="M64.3443,-863.8314C64.3443,-856.131 64.3443,-846.9743 64.3443,-838.4166"/>
<polygon fill="#000000" stroke="#000000" points="67.8444,-838.4132 64.3443,-828.4133 60.8444,-838.4133 67.8444,-838.4132"/>
</g>
<!-- placental -->
<g id="node4" class="node">
<title>placental</title>
<ellipse fill="#b2dfee" stroke="#b2dfee" cx="64.3443" cy="-738" rx="42.4939" ry="18"/>
<text text-anchor="middle" x="64.3443" y="-734.3" font-family="Times,serif" font-size="14.00" fill="#000000">placental</text>
</g>
<!-- lagomorph&#45;&gt;placental -->
<g id="edge3" class="edge">
<title>lagomorph&#45;&gt;placental</title>
<path fill="none" stroke="#000000" d="M64.3443,-791.8314C64.3443,-784.131 64.3443,-774.9743 64.3443,-766.4166"/>
<polygon fill="#000000" stroke="#000000" points="67.8444,-766.4132 64.3443,-756.4133 60.8444,-766.4133 67.8444,-766.4132"/>
</g>
<!-- mammal -->
<g id="node5" class="node">
<title>mammal</title>
<ellipse fill="#b2dfee" stroke="#b2dfee" cx="64.3443" cy="-666" rx="42.7926" ry="18"/>
<text text-anchor="middle" x="64.3443" y="-662.3" font-family="Times,serif" font-size="14.00" fill="#000000">mammal</text>
</g>
<!-- placental&#45;&gt;mammal -->
<g id="edge4" class="edge">
<title>placental&#45;&gt;mammal</title>
<path fill="none" stroke="#000000" d="M64.3443,-719.8314C64.3443,-712.131 64.3443,-702.9743 64.3443,-694.4166"/>
<polygon fill="#000000" stroke="#000000" points="67.8444,-694.4132 64.3443,-684.4133 60.8444,-694.4133 67.8444,-694.4132"/>
</g>
<!-- vertebrate -->
<g id="node6" class="node">
<title>vertebrate</title>
<ellipse fill="#b2dfee" stroke="#b2dfee" cx="64.3443" cy="-594" rx="46.2923" ry="18"/>
<text text-anchor="middle" x="64.3443" y="-590.3" font-family="Times,serif" font-size="14.00" fill="#000000">vertebrate</text>
</g>
<!-- mammal&#45;&gt;vertebrate -->
<g id="edge5" class="edge">
<title>mammal&#45;&gt;vertebrate</title>
<path fill="none" stroke="#000000" d="M64.3443,-647.8314C64.3443,-640.131 64.3443,-630.9743 64.3443,-622.4166"/>
<polygon fill="#000000" stroke="#000000" points="67.8444,-622.4132 64.3443,-612.4133 60.8444,-622.4133 67.8444,-622.4132"/>
</g>
<!-- chordate -->
<g id="node7" class="node">
<title>chordate</title>
<ellipse fill="#b2dfee" stroke="#b2dfee" cx="64.3443" cy="-522" rx="40.8928" ry="18"/>
<text text-anchor="middle" x="64.3443" y="-518.3" font-family="Times,serif" font-size="14.00" fill="#000000">chordate</text>
</g>
<!-- vertebrate&#45;&gt;chordate -->
<g id="edge6" class="edge">
<title>vertebrate&#45;&gt;chordate</title>
<path fill="none" stroke="#000000" d="M64.3443,-575.8314C64.3443,-568.131 64.3443,-558.9743 64.3443,-550.4166"/>
<polygon fill="#000000" stroke="#000000" points="67.8444,-550.4132 64.3443,-540.4133 60.8444,-550.4133 67.8444,-550.4132"/>
</g>
<!-- animal -->
<g id="node8" class="node">
<title>animal</title>
<ellipse fill="#b2dfee" stroke="#b2dfee" cx="64.3443" cy="-450" rx="35.194" ry="18"/>
<text text-anchor="middle" x="64.3443" y="-446.3" font-family="Times,serif" font-size="14.00" fill="#000000">animal</text>
</g>
<!-- chordate&#45;&gt;animal -->
<g id="edge7" class="edge">
<title>chordate&#45;&gt;animal</title>
<path fill="none" stroke="#000000" d="M64.3443,-503.8314C64.3443,-496.131 64.3443,-486.9743 64.3443,-478.4166"/>
<polygon fill="#000000" stroke="#000000" points="67.8444,-478.4132 64.3443,-468.4133 60.8444,-478.4133 67.8444,-478.4132"/>
</g>
<!-- organism -->
<g id="node9" class="node">
<title>organism</title>
<ellipse fill="#b2dfee" stroke="#b2dfee" cx="64.3443" cy="-378" rx="44.393" ry="18"/>
<text text-anchor="middle" x="64.3443" y="-374.3" font-family="Times,serif" font-size="14.00" fill="#000000">organism</text>
</g>
<!-- animal&#45;&gt;organism -->
<g id="edge8" class="edge">
<title>animal&#45;&gt;organism</title>
<path fill="none" stroke="#000000" d="M64.3443,-431.8314C64.3443,-424.131 64.3443,-414.9743 64.3443,-406.4166"/>
<polygon fill="#000000" stroke="#000000" points="67.8444,-406.4132 64.3443,-396.4133 60.8444,-406.4133 67.8444,-406.4132"/>
</g>
<!-- living_thing -->
<g id="node10" class="node">
<title>living_thing</title>
<ellipse fill="#b2dfee" stroke="#b2dfee" cx="64.3443" cy="-306" rx="53.8905" ry="18"/>
<text text-anchor="middle" x="64.3443" y="-302.3" font-family="Times,serif" font-size="14.00" fill="#000000">living_thing</text>
</g>
<!-- organism&#45;&gt;living_thing -->
<g id="edge9" class="edge">
<title>organism&#45;&gt;living_thing</title>
<path fill="none" stroke="#000000" d="M64.3443,-359.8314C64.3443,-352.131 64.3443,-342.9743 64.3443,-334.4166"/>
<polygon fill="#000000" stroke="#000000" points="67.8444,-334.4132 64.3443,-324.4133 60.8444,-334.4133 67.8444,-334.4132"/>
</g>
<!-- whole -->
<g id="node11" class="node">
<title>whole</title>
<ellipse fill="#b2dfee" stroke="#b2dfee" cx="64.3443" cy="-234" rx="32.4942" ry="18"/>
<text text-anchor="middle" x="64.3443" y="-230.3" font-family="Times,serif" font-size="14.00" fill="#000000">whole</text>
</g>
<!-- living_thing&#45;&gt;whole -->
<g id="edge10" class="edge">
<title>living_thing&#45;&gt;whole</title>
<path fill="none" stroke="#000000" d="M64.3443,-287.8314C64.3443,-280.131 64.3443,-270.9743 64.3443,-262.4166"/>
<polygon fill="#000000" stroke="#000000" points="67.8444,-262.4132 64.3443,-252.4133 60.8444,-262.4133 67.8444,-262.4132"/>
</g>
<!-- object -->
<g id="node12" class="node">
<title>object</title>
<ellipse fill="#b2dfee" stroke="#b2dfee" cx="64.3443" cy="-162" rx="32.4942" ry="18"/>
<text text-anchor="middle" x="64.3443" y="-158.3" font-family="Times,serif" font-size="14.00" fill="#000000">object</text>
</g>
<!-- whole&#45;&gt;object -->
<g id="edge11" class="edge">
<title>whole&#45;&gt;object</title>
<path fill="none" stroke="#000000" d="M64.3443,-215.8314C64.3443,-208.131 64.3443,-198.9743 64.3443,-190.4166"/>
<polygon fill="#000000" stroke="#000000" points="67.8444,-190.4132 64.3443,-180.4133 60.8444,-190.4133 67.8444,-190.4132"/>
</g>
<!-- physical_entity -->
<g id="node13" class="node">
<title>physical_entity</title>
<ellipse fill="#b2dfee" stroke="#b2dfee" cx="64.3443" cy="-90" rx="64.189" ry="18"/>
<text text-anchor="middle" x="64.3443" y="-86.3" font-family="Times,serif" font-size="14.00" fill="#000000">physical_entity</text>
</g>
<!-- object&#45;&gt;physical_entity -->
<g id="edge12" class="edge">
<title>object&#45;&gt;physical_entity</title>
<path fill="none" stroke="#000000" d="M64.3443,-143.8314C64.3443,-136.131 64.3443,-126.9743 64.3443,-118.4166"/>
<polygon fill="#000000" stroke="#000000" points="67.8444,-118.4132 64.3443,-108.4133 60.8444,-118.4133 67.8444,-118.4132"/>
</g>
<!-- entity -->
<g id="node14" class="node">
<title>entity</title>
<ellipse fill="#b2dfee" stroke="#b2dfee" cx="64.3443" cy="-18" rx="30.5947" ry="18"/>
<text text-anchor="middle" x="64.3443" y="-14.3" font-family="Times,serif" font-size="14.00" fill="#000000">entity</text>
</g>
<!-- physical_entity&#45;&gt;entity -->
<g id="edge13" class="edge">
<title>physical_entity&#45;&gt;entity</title>
<path fill="none" stroke="#000000" d="M64.3443,-71.8314C64.3443,-64.131 64.3443,-54.9743 64.3443,-46.4166"/>
<polygon fill="#000000" stroke="#000000" points="67.8444,-46.4132 64.3443,-36.4133 60.8444,-46.4133 67.8444,-46.4132"/>
</g>
</g>
</svg>
