<?xml version="1.0" encoding="UTF-8" standalone="no"?>
<!DOCTYPE svg PUBLIC "-//W3C//DTD SVG 1.1//EN"
 "http://www.w3.org/Graphics/SVG/1.1/DTD/svg11.dtd">
<!-- Generated by graphviz version 2.40.1 (20161225.0304)
 -->
<!-- Title: unix Pages: 1 -->
<svg width="128pt" height="188pt"
 viewBox="0.00 0.00 127.59 188.00" xmlns="http://www.w3.org/2000/svg" xmlns:xlink="http://www.w3.org/1999/xlink">
<g id="graph0" class="graph" transform="scale(1 1) rotate(0) translate(4 184)">
<title>unix</title>
<polygon fill="#ffffff" stroke="transparent" points="-4,4 -4,-184 123.5894,-184 123.5894,4 -4,4"/>
<!-- run -->
<g id="node1" class="node">
<title>run</title>
<ellipse fill="#b2dfee" stroke="#b2dfee" cx="59.7947" cy="-162" rx="27" ry="18"/>
<text text-anchor="middle" x="59.7947" y="-158.3" font-family="Times,serif" font-size="14.00" fill="#000000">run</text>
</g>
<!-- travel_rapidly -->
<g id="node2" class="node">
<title>travel_rapidly</title>
<ellipse fill="#b2dfee" stroke="#b2dfee" cx="59.7947" cy="-90" rx="59.5901" ry="18"/>
<text text-anchor="middle" x="59.7947" y="-86.3" font-family="Times,serif" font-size="14.00" fill="#000000">travel_rapidly</text>
</g>
<!-- run&#45;&gt;travel_rapidly -->
<g id="edge1" class="edge">
<title>run&#45;&gt;travel_rapidly</title>
<path fill="none" stroke="#000000" d="M59.7947,-143.8314C59.7947,-136.131 59.7947,-126.9743 59.7947,-118.4166"/>
<polygon fill="#000000" stroke="#000000" points="63.2948,-118.4132 59.7947,-108.4133 56.2948,-118.4133 63.2948,-118.4132"/>
</g>
<!-- travel -->
<g id="node3" class="node">
<title>travel</title>
<ellipse fill="#b2dfee" stroke="#b2dfee" cx="59.7947" cy="-18" rx="30.5947" ry="18"/>
<text text-anchor="middle" x="59.7947" y="-14.3" font-family="Times,serif" font-size="14.00" fill="#000000">travel</text>
</g>
<!-- travel_rapidly&#45;&gt;travel -->
<g id="edge2" class="edge">
<title>travel_rapidly&#45;&gt;travel</title>
<path fill="none" stroke="#000000" d="M59.7947,-71.8314C59.7947,-64.131 59.7947,-54.9743 59.7947,-46.4166"/>
<polygon fill="#000000" stroke="#000000" points="63.2948,-46.4132 59.7947,-36.4133 56.2948,-46.4133 63.2948,-46.4132"/>
</g>
</g>
</svg>
