<?xml version="1.0" encoding="UTF-8" standalone="no"?>
<!DOCTYPE svg PUBLIC "-//W3C//DTD SVG 1.1//EN"
 "http://www.w3.org/Graphics/SVG/1.1/DTD/svg11.dtd">
<!-- Generated by graphviz version 2.40.1 (20161225.0304)
 -->
<!-- Title: unix Pages: 1 -->
<svg width="141pt" height="404pt"
 viewBox="0.00 0.00 140.59 404.00" xmlns="http://www.w3.org/2000/svg" xmlns:xlink="http://www.w3.org/1999/xlink">
<g id="graph0" class="graph" transform="scale(1 1) rotate(0) translate(4 400)">
<title>unix</title>
<polygon fill="#ffffff" stroke="transparent" points="-4,4 -4,-400 136.5882,-400 136.5882,4 -4,4"/>
<!-- record -->
<g id="node1" class="node">
<title>record</title>
<ellipse fill="#b2dfee" stroke="#b2dfee" cx="66.2941" cy="-378" rx="33.2948" ry="18"/>
<text text-anchor="middle" x="66.2941" y="-374.3" font-family="Times,serif" font-size="14.00" fill="#000000">record</text>
</g>
<!-- evidence -->
<g id="node2" class="node">
<title>evidence</title>
<ellipse fill="#b2dfee" stroke="#b2dfee" cx="66.2941" cy="-306" rx="42.4939" ry="18"/>
<text text-anchor="middle" x="66.2941" y="-302.3" font-family="Times,serif" font-size="14.00" fill="#000000">evidence</text>
</g>
<!-- record&#45;&gt;evidence -->
<g id="edge1" class="edge">
<title>record&#45;&gt;evidence</title>
<path fill="none" stroke="#000000" d="M66.2941,-359.8314C66.2941,-352.131 66.2941,-342.9743 66.2941,-334.4166"/>
<polygon fill="#000000" stroke="#000000" points="69.7942,-334.4132 66.2941,-324.4133 62.7942,-334.4133 69.7942,-334.4132"/>
</g>
<!-- indication -->
<g id="node3" class="node">
<title>indication</title>
<ellipse fill="#b2dfee" stroke="#b2dfee" cx="66.2941" cy="-234" rx="46.2923" ry="18"/>
<text text-anchor="middle" x="66.2941" y="-230.3" font-family="Times,serif" font-size="14.00" fill="#000000">indication</text>
</g>
<!-- evidence&#45;&gt;indication -->
<g id="edge2" class="edge">
<title>evidence&#45;&gt;indication</title>
<path fill="none" stroke="#000000" d="M66.2941,-287.8314C66.2941,-280.131 66.2941,-270.9743 66.2941,-262.4166"/>
<polygon fill="#000000" stroke="#000000" points="69.7942,-262.4132 66.2941,-252.4133 62.7942,-262.4133 69.7942,-262.4132"/>
</g>
<!-- communication -->
<g id="node4" class="node">
<title>communication</title>
<ellipse fill="#b2dfee" stroke="#b2dfee" cx="66.2941" cy="-162" rx="66.0889" ry="18"/>
<text text-anchor="middle" x="66.2941" y="-158.3" font-family="Times,serif" font-size="14.00" fill="#000000">communication</text>
</g>
<!-- indication&#45;&gt;communication -->
<g id="edge3" class="edge">
<title>indication&#45;&gt;communication</title>
<path fill="none" stroke="#000000" d="M66.2941,-215.8314C66.2941,-208.131 66.2941,-198.9743 66.2941,-190.4166"/>
<polygon fill="#000000" stroke="#000000" points="69.7942,-190.4132 66.2941,-180.4133 62.7942,-190.4133 69.7942,-190.4132"/>
</g>
<!-- abstraction -->
<g id="node5" class="node">
<title>abstraction</title>
<ellipse fill="#b2dfee" stroke="#b2dfee" cx="66.2941" cy="-90" rx="49.2915" ry="18"/>
<text text-anchor="middle" x="66.2941" y="-86.3" font-family="Times,serif" font-size="14.00" fill="#000000">abstraction</text>
</g>
<!-- communication&#45;&gt;abstraction -->
<g id="edge4" class="edge">
<title>communication&#45;&gt;abstraction</title>
<path fill="none" stroke="#000000" d="M66.2941,-143.8314C66.2941,-136.131 66.2941,-126.9743 66.2941,-118.4166"/>
<polygon fill="#000000" stroke="#000000" points="69.7942,-118.4132 66.2941,-108.4133 62.7942,-118.4133 69.7942,-118.4132"/>
</g>
<!-- entity -->
<g id="node6" class="node">
<title>entity</title>
<ellipse fill="#b2dfee" stroke="#b2dfee" cx="66.2941" cy="-18" rx="30.5947" ry="18"/>
<text text-anchor="middle" x="66.2941" y="-14.3" font-family="Times,serif" font-size="14.00" fill="#000000">entity</text>
</g>
<!-- abstraction&#45;&gt;entity -->
<g id="edge5" class="edge">
<title>abstraction&#45;&gt;entity</title>
<path fill="none" stroke="#000000" d="M66.2941,-71.8314C66.2941,-64.131 66.2941,-54.9743 66.2941,-46.4166"/>
<polygon fill="#000000" stroke="#000000" points="69.7942,-46.4132 66.2941,-36.4133 62.7942,-46.4133 69.7942,-46.4132"/>
</g>
</g>
</svg>
