<?xml version="1.0" encoding="UTF-8" standalone="no"?>
<!DOCTYPE svg PUBLIC "-//W3C//DTD SVG 1.1//EN"
 "http://www.w3.org/Graphics/SVG/1.1/DTD/svg11.dtd">
<!-- Generated by graphviz version 2.40.1 (20161225.0304)
 -->
<!-- Title: unix Pages: 1 -->
<svg width="214pt" height="432pt"
 viewBox="0.00 0.00 213.95 432.00" xmlns="http://www.w3.org/2000/svg" xmlns:xlink="http://www.w3.org/1999/xlink">
<g id="graph0" class="graph" transform="scale(.9076 .9076) rotate(0) translate(4 472)">
<title>unix</title>
<polygon fill="#ffffff" stroke="transparent" points="-4,4 -4,-472 231.7388,-472 231.7388,4 -4,4"/>
<!-- right -->
<g id="node1" class="node">
<title>right</title>
<ellipse fill="#b2dfee" stroke="#b2dfee" cx="125.3466" cy="-450" rx="27.0966" ry="18"/>
<text text-anchor="middle" x="125.3466" y="-446.3" font-family="Times,serif" font-size="14.00" fill="#000000">right</text>
</g>
<!-- abstraction -->
<g id="node2" class="node">
<title>abstraction</title>
<ellipse fill="#b2dfee" stroke="#b2dfee" cx="125.3466" cy="-378" rx="49.2915" ry="18"/>
<text text-anchor="middle" x="125.3466" y="-374.3" font-family="Times,serif" font-size="14.00" fill="#000000">abstraction</text>
</g>
<!-- right&#45;&gt;abstraction -->
<g id="edge1" class="edge">
<title>right&#45;&gt;abstraction</title>
<path fill="none" stroke="#000000" d="M125.3466,-431.8314C125.3466,-424.131 125.3466,-414.9743 125.3466,-406.4166"/>
<polygon fill="#000000" stroke="#000000" points="128.8467,-406.4132 125.3466,-396.4133 121.8467,-406.4133 128.8467,-406.4132"/>
</g>
<!-- concept -->
<g id="node3" class="node">
<title>concept</title>
<ellipse fill="#b2dfee" stroke="#b2dfee" cx="38.3466" cy="-306" rx="38.1938" ry="18"/>
<text text-anchor="middle" x="38.3466" y="-302.3" font-family="Times,serif" font-size="14.00" fill="#000000">concept</text>
</g>
<!-- abstraction&#45;&gt;concept -->
<g id="edge2" class="edge">
<title>abstraction&#45;&gt;concept</title>
<path fill="none" stroke="#000000" d="M105.1684,-361.3008C93.3918,-351.5546 78.3774,-339.1289 65.5652,-328.5257"/>
<polygon fill="#000000" stroke="#000000" points="67.4553,-325.5469 57.5199,-321.8675 62.9923,-330.9396 67.4553,-325.5469"/>
</g>
<!-- entity -->
<g id="node8" class="node">
<title>entity</title>
<ellipse fill="#b2dfee" stroke="#b2dfee" cx="125.3466" cy="-306" rx="30.5947" ry="18"/>
<text text-anchor="middle" x="125.3466" y="-302.3" font-family="Times,serif" font-size="14.00" fill="#000000">entity</text>
</g>
<!-- abstraction&#45;&gt;entity -->
<g id="edge8" class="edge">
<title>abstraction&#45;&gt;entity</title>
<path fill="none" stroke="#000000" d="M125.3466,-359.8314C125.3466,-352.131 125.3466,-342.9743 125.3466,-334.4166"/>
<polygon fill="#000000" stroke="#000000" points="128.8467,-334.4132 125.3466,-324.4133 121.8467,-334.4133 128.8467,-334.4132"/>
</g>
<!-- idea -->
<g id="node4" class="node">
<title>idea</title>
<ellipse fill="#b2dfee" stroke="#b2dfee" cx="56.3466" cy="-234" rx="27" ry="18"/>
<text text-anchor="middle" x="56.3466" y="-230.3" font-family="Times,serif" font-size="14.00" fill="#000000">idea</text>
</g>
<!-- concept&#45;&gt;idea -->
<g id="edge3" class="edge">
<title>concept&#45;&gt;idea</title>
<path fill="none" stroke="#000000" d="M42.8888,-287.8314C44.865,-279.9266 47.2248,-270.4872 49.4125,-261.7365"/>
<polygon fill="#000000" stroke="#000000" points="52.8383,-262.4637 51.8682,-251.9134 46.0473,-260.7659 52.8383,-262.4637"/>
</g>
<!-- content -->
<g id="node5" class="node">
<title>content</title>
<ellipse fill="#b2dfee" stroke="#b2dfee" cx="93.3466" cy="-162" rx="36.2938" ry="18"/>
<text text-anchor="middle" x="93.3466" y="-158.3" font-family="Times,serif" font-size="14.00" fill="#000000">content</text>
</g>
<!-- idea&#45;&gt;content -->
<g id="edge4" class="edge">
<title>idea&#45;&gt;content</title>
<path fill="none" stroke="#000000" d="M65.1151,-216.937C69.4425,-208.5161 74.763,-198.1627 79.6141,-188.7226"/>
<polygon fill="#000000" stroke="#000000" points="82.7969,-190.1865 84.2547,-179.6924 76.5709,-186.987 82.7969,-190.1865"/>
</g>
<!-- cognition -->
<g id="node6" class="node">
<title>cognition</title>
<ellipse fill="#b2dfee" stroke="#b2dfee" cx="103.3466" cy="-90" rx="44.393" ry="18"/>
<text text-anchor="middle" x="103.3466" y="-86.3" font-family="Times,serif" font-size="14.00" fill="#000000">cognition</text>
</g>
<!-- content&#45;&gt;cognition -->
<g id="edge5" class="edge">
<title>content&#45;&gt;cognition</title>
<path fill="none" stroke="#000000" d="M95.87,-143.8314C96.9395,-136.131 98.2113,-126.9743 99.3998,-118.4166"/>
<polygon fill="#000000" stroke="#000000" points="102.8802,-118.7997 100.7892,-108.4133 95.9467,-117.8367 102.8802,-118.7997"/>
</g>
<!-- psychological_feature -->
<g id="node7" class="node">
<title>psychological_feature</title>
<ellipse fill="#b2dfee" stroke="#b2dfee" cx="139.3466" cy="-18" rx="88.2844" ry="18"/>
<text text-anchor="middle" x="139.3466" y="-14.3" font-family="Times,serif" font-size="14.00" fill="#000000">psychological_feature</text>
</g>
<!-- cognition&#45;&gt;psychological_feature -->
<g id="edge6" class="edge">
<title>cognition&#45;&gt;psychological_feature</title>
<path fill="none" stroke="#000000" d="M112.2455,-72.2022C116.3252,-64.0428 121.2514,-54.1904 125.7787,-45.1358"/>
<polygon fill="#000000" stroke="#000000" points="128.9583,-46.6027 130.3,-36.0931 122.6973,-43.4721 128.9583,-46.6027"/>
</g>
<!-- psychological_feature&#45;&gt;abstraction -->
<g id="edge7" class="edge">
<title>psychological_feature&#45;&gt;abstraction</title>
<path fill="none" stroke="#000000" d="M148.8899,-36.0731C162.0993,-62.8156 184.3466,-114.8539 184.3466,-162 184.3466,-234 184.3466,-234 184.3466,-234 184.3466,-274.8816 182.1211,-286.7183 165.3466,-324 160.7756,-334.1591 154.0498,-344.2522 147.4124,-352.9152"/>
<polygon fill="#000000" stroke="#000000" points="144.6668,-350.7444 141.149,-360.7382 150.1312,-355.1194 144.6668,-350.7444"/>
</g>
</g>
</svg>
