<?xml version="1.0" encoding="UTF-8" standalone="no"?>
<!DOCTYPE svg PUBLIC "-//W3C//DTD SVG 1.1//EN"
 "http://www.w3.org/Graphics/SVG/1.1/DTD/svg11.dtd">
<!-- Generated by graphviz version 2.40.1 (20161225.0304)
 -->
<!-- Title: unix Pages: 1 -->
<svg width="88pt" height="432pt"
 viewBox="0.00 0.00 88.28 432.00" xmlns="http://www.w3.org/2000/svg" xmlns:xlink="http://www.w3.org/1999/xlink">
<g id="graph0" class="graph" transform="scale(.7883 .7883) rotate(0) translate(4 544)">
<title>unix</title>
<polygon fill="#ffffff" stroke="transparent" points="-4,4 -4,-544 107.9908,-544 107.9908,4 -4,4"/>
<!-- say -->
<g id="node1" class="node">
<title>say</title>
<ellipse fill="#b2dfee" stroke="#b2dfee" cx="51.9954" cy="-522" rx="27" ry="18"/>
<text text-anchor="middle" x="51.9954" y="-518.3" font-family="Times,serif" font-size="14.00" fill="#000000">say</text>
</g>
<!-- opportunity -->
<g id="node2" class="node">
<title>opportunity</title>
<ellipse fill="#b2dfee" stroke="#b2dfee" cx="51.9954" cy="-450" rx="51.9908" ry="18"/>
<text text-anchor="middle" x="51.9954" y="-446.3" font-family="Times,serif" font-size="14.00" fill="#000000">opportunity</text>
</g>
<!-- say&#45;&gt;opportunity -->
<g id="edge1" class="edge">
<title>say&#45;&gt;opportunity</title>
<path fill="none" stroke="#000000" d="M51.9954,-503.8314C51.9954,-496.131 51.9954,-486.9743 51.9954,-478.4166"/>
<polygon fill="#000000" stroke="#000000" points="55.4955,-478.4132 51.9954,-468.4133 48.4955,-478.4133 55.4955,-478.4132"/>
</g>
<!-- possibility -->
<g id="node3" class="node">
<title>possibility</title>
<ellipse fill="#b2dfee" stroke="#b2dfee" cx="51.9954" cy="-378" rx="47.3916" ry="18"/>
<text text-anchor="middle" x="51.9954" y="-374.3" font-family="Times,serif" font-size="14.00" fill="#000000">possibility</text>
</g>
<!-- opportunity&#45;&gt;possibility -->
<g id="edge2" class="edge">
<title>opportunity&#45;&gt;possibility</title>
<path fill="none" stroke="#000000" d="M51.9954,-431.8314C51.9954,-424.131 51.9954,-414.9743 51.9954,-406.4166"/>
<polygon fill="#000000" stroke="#000000" points="55.4955,-406.4132 51.9954,-396.4133 48.4955,-406.4133 55.4955,-406.4132"/>
</g>
<!-- being -->
<g id="node4" class="node">
<title>being</title>
<ellipse fill="#b2dfee" stroke="#b2dfee" cx="51.9954" cy="-306" rx="30.5947" ry="18"/>
<text text-anchor="middle" x="51.9954" y="-302.3" font-family="Times,serif" font-size="14.00" fill="#000000">being</text>
</g>
<!-- possibility&#45;&gt;being -->
<g id="edge3" class="edge">
<title>possibility&#45;&gt;being</title>
<path fill="none" stroke="#000000" d="M51.9954,-359.8314C51.9954,-352.131 51.9954,-342.9743 51.9954,-334.4166"/>
<polygon fill="#000000" stroke="#000000" points="55.4955,-334.4132 51.9954,-324.4133 48.4955,-334.4133 55.4955,-334.4132"/>
</g>
<!-- state -->
<g id="node5" class="node">
<title>state</title>
<ellipse fill="#b2dfee" stroke="#b2dfee" cx="51.9954" cy="-234" rx="27" ry="18"/>
<text text-anchor="middle" x="51.9954" y="-230.3" font-family="Times,serif" font-size="14.00" fill="#000000">state</text>
</g>
<!-- being&#45;&gt;state -->
<g id="edge4" class="edge">
<title>being&#45;&gt;state</title>
<path fill="none" stroke="#000000" d="M51.9954,-287.8314C51.9954,-280.131 51.9954,-270.9743 51.9954,-262.4166"/>
<polygon fill="#000000" stroke="#000000" points="55.4955,-262.4132 51.9954,-252.4133 48.4955,-262.4133 55.4955,-262.4132"/>
</g>
<!-- attribute -->
<g id="node6" class="node">
<title>attribute</title>
<ellipse fill="#b2dfee" stroke="#b2dfee" cx="51.9954" cy="-162" rx="40.0939" ry="18"/>
<text text-anchor="middle" x="51.9954" y="-158.3" font-family="Times,serif" font-size="14.00" fill="#000000">attribute</text>
</g>
<!-- state&#45;&gt;attribute -->
<g id="edge5" class="edge">
<title>state&#45;&gt;attribute</title>
<path fill="none" stroke="#000000" d="M51.9954,-215.8314C51.9954,-208.131 51.9954,-198.9743 51.9954,-190.4166"/>
<polygon fill="#000000" stroke="#000000" points="55.4955,-190.4132 51.9954,-180.4133 48.4955,-190.4133 55.4955,-190.4132"/>
</g>
<!-- abstraction -->
<g id="node7" class="node">
<title>abstraction</title>
<ellipse fill="#b2dfee" stroke="#b2dfee" cx="51.9954" cy="-90" rx="49.2915" ry="18"/>
<text text-anchor="middle" x="51.9954" y="-86.3" font-family="Times,serif" font-size="14.00" fill="#000000">abstraction</text>
</g>
<!-- attribute&#45;&gt;abstraction -->
<g id="edge6" class="edge">
<title>attribute&#45;&gt;abstraction</title>
<path fill="none" stroke="#000000" d="M51.9954,-143.8314C51.9954,-136.131 51.9954,-126.9743 51.9954,-118.4166"/>
<polygon fill="#000000" stroke="#000000" points="55.4955,-118.4132 51.9954,-108.4133 48.4955,-118.4133 55.4955,-118.4132"/>
</g>
<!-- entity -->
<g id="node8" class="node">
<title>entity</title>
<ellipse fill="#b2dfee" stroke="#b2dfee" cx="51.9954" cy="-18" rx="30.5947" ry="18"/>
<text text-anchor="middle" x="51.9954" y="-14.3" font-family="Times,serif" font-size="14.00" fill="#000000">entity</text>
</g>
<!-- abstraction&#45;&gt;entity -->
<g id="edge7" class="edge">
<title>abstraction&#45;&gt;entity</title>
<path fill="none" stroke="#000000" d="M51.9954,-71.8314C51.9954,-64.131 51.9954,-54.9743 51.9954,-46.4166"/>
<polygon fill="#000000" stroke="#000000" points="55.4955,-46.4132 51.9954,-36.4133 48.4955,-46.4133 55.4955,-46.4132"/>
</g>
</g>
</svg>
