<?xml version="1.0" encoding="UTF-8" standalone="no"?>
<!DOCTYPE svg PUBLIC "-//W3C//DTD SVG 1.1//EN"
 "http://www.w3.org/Graphics/SVG/1.1/DTD/svg11.dtd">
<!-- Generated by graphviz version 2.40.1 (20161225.0304)
 -->
<!-- Title: unix Pages: 1 -->
<svg width="143pt" height="404pt"
 viewBox="0.00 0.00 143.19 404.00" xmlns="http://www.w3.org/2000/svg" xmlns:xlink="http://www.w3.org/1999/xlink">
<g id="graph0" class="graph" transform="scale(1 1) rotate(0) translate(4 400)">
<title>unix</title>
<polygon fill="#ffffff" stroke="transparent" points="-4,4 -4,-400 139.188,-400 139.188,4 -4,4"/>
<!-- shape -->
<g id="node1" class="node">
<title>shape</title>
<ellipse fill="#b2dfee" stroke="#b2dfee" cx="67.594" cy="-378" rx="30.5947" ry="18"/>
<text text-anchor="middle" x="67.594" y="-374.3" font-family="Times,serif" font-size="14.00" fill="#000000">shape</text>
</g>
<!-- spatial_property -->
<g id="node2" class="node">
<title>spatial_property</title>
<ellipse fill="#b2dfee" stroke="#b2dfee" cx="67.594" cy="-306" rx="67.6881" ry="18"/>
<text text-anchor="middle" x="67.594" y="-302.3" font-family="Times,serif" font-size="14.00" fill="#000000">spatial_property</text>
</g>
<!-- shape&#45;&gt;spatial_property -->
<g id="edge1" class="edge">
<title>shape&#45;&gt;spatial_property</title>
<path fill="none" stroke="#000000" d="M67.594,-359.8314C67.594,-352.131 67.594,-342.9743 67.594,-334.4166"/>
<polygon fill="#000000" stroke="#000000" points="71.0941,-334.4132 67.594,-324.4133 64.0941,-334.4133 71.0941,-334.4132"/>
</g>
<!-- property -->
<g id="node3" class="node">
<title>property</title>
<ellipse fill="#b2dfee" stroke="#b2dfee" cx="67.594" cy="-234" rx="40.0939" ry="18"/>
<text text-anchor="middle" x="67.594" y="-230.3" font-family="Times,serif" font-size="14.00" fill="#000000">property</text>
</g>
<!-- spatial_property&#45;&gt;property -->
<g id="edge2" class="edge">
<title>spatial_property&#45;&gt;property</title>
<path fill="none" stroke="#000000" d="M67.594,-287.8314C67.594,-280.131 67.594,-270.9743 67.594,-262.4166"/>
<polygon fill="#000000" stroke="#000000" points="71.0941,-262.4132 67.594,-252.4133 64.0941,-262.4133 71.0941,-262.4132"/>
</g>
<!-- attribute -->
<g id="node4" class="node">
<title>attribute</title>
<ellipse fill="#b2dfee" stroke="#b2dfee" cx="67.594" cy="-162" rx="40.0939" ry="18"/>
<text text-anchor="middle" x="67.594" y="-158.3" font-family="Times,serif" font-size="14.00" fill="#000000">attribute</text>
</g>
<!-- property&#45;&gt;attribute -->
<g id="edge3" class="edge">
<title>property&#45;&gt;attribute</title>
<path fill="none" stroke="#000000" d="M67.594,-215.8314C67.594,-208.131 67.594,-198.9743 67.594,-190.4166"/>
<polygon fill="#000000" stroke="#000000" points="71.0941,-190.4132 67.594,-180.4133 64.0941,-190.4133 71.0941,-190.4132"/>
</g>
<!-- abstraction -->
<g id="node5" class="node">
<title>abstraction</title>
<ellipse fill="#b2dfee" stroke="#b2dfee" cx="67.594" cy="-90" rx="49.2915" ry="18"/>
<text text-anchor="middle" x="67.594" y="-86.3" font-family="Times,serif" font-size="14.00" fill="#000000">abstraction</text>
</g>
<!-- attribute&#45;&gt;abstraction -->
<g id="edge4" class="edge">
<title>attribute&#45;&gt;abstraction</title>
<path fill="none" stroke="#000000" d="M67.594,-143.8314C67.594,-136.131 67.594,-126.9743 67.594,-118.4166"/>
<polygon fill="#000000" stroke="#000000" points="71.0941,-118.4132 67.594,-108.4133 64.0941,-118.4133 71.0941,-118.4132"/>
</g>
<!-- entity -->
<g id="node6" class="node">
<title>entity</title>
<ellipse fill="#b2dfee" stroke="#b2dfee" cx="67.594" cy="-18" rx="30.5947" ry="18"/>
<text text-anchor="middle" x="67.594" y="-14.3" font-family="Times,serif" font-size="14.00" fill="#000000">entity</text>
</g>
<!-- abstraction&#45;&gt;entity -->
<g id="edge5" class="edge">
<title>abstraction&#45;&gt;entity</title>
<path fill="none" stroke="#000000" d="M67.594,-71.8314C67.594,-64.131 67.594,-54.9743 67.594,-46.4166"/>
<polygon fill="#000000" stroke="#000000" points="71.0941,-46.4132 67.594,-36.4133 64.0941,-46.4133 71.0941,-46.4132"/>
</g>
</g>
</svg>
