<?xml version="1.0" encoding="UTF-8" standalone="no"?>
<!DOCTYPE svg PUBLIC "-//W3C//DTD SVG 1.1//EN"
 "http://www.w3.org/Graphics/SVG/1.1/DTD/svg11.dtd">
<!-- Generated by graphviz version 2.40.1 (20161225.0304)
 -->
<!-- Title: unix Pages: 1 -->
<svg width="224pt" height="332pt"
 viewBox="0.00 0.00 223.79 332.00" xmlns="http://www.w3.org/2000/svg" xmlns:xlink="http://www.w3.org/1999/xlink">
<g id="graph0" class="graph" transform="scale(1 1) rotate(0) translate(4 328)">
<title>unix</title>
<polygon fill="#ffffff" stroke="transparent" points="-4,4 -4,-328 219.7912,-328 219.7912,4 -4,4"/>
<!-- sing -->
<g id="node1" class="node">
<title>sing</title>
<ellipse fill="#b2dfee" stroke="#b2dfee" cx="97.6465" cy="-306" rx="27" ry="18"/>
<text text-anchor="middle" x="97.6465" y="-302.3" font-family="Times,serif" font-size="14.00" fill="#000000">sing</text>
</g>
<!-- sing&#45;&gt;sing -->
<g id="edge3" class="edge">
<title>sing&#45;&gt;sing</title>
<path fill="none" stroke="#000000" d="M117.5415,-318.4321C130.3345,-321.6753 142.6465,-317.5313 142.6465,-306 142.6465,-297.6218 136.1471,-293.1433 127.686,-292.5644"/>
<polygon fill="#000000" stroke="#000000" points="127.1484,-289.1004 117.5415,-293.5679 127.8375,-296.0665 127.1484,-289.1004"/>
</g>
<!-- interpret -->
<g id="node2" class="node">
<title>interpret</title>
<ellipse fill="#b2dfee" stroke="#b2dfee" cx="55.6465" cy="-234" rx="40.0939" ry="18"/>
<text text-anchor="middle" x="55.6465" y="-230.3" font-family="Times,serif" font-size="14.00" fill="#000000">interpret</text>
</g>
<!-- sing&#45;&gt;interpret -->
<g id="edge1" class="edge">
<title>sing&#45;&gt;interpret</title>
<path fill="none" stroke="#000000" d="M87.6931,-288.937C82.6929,-280.3654 76.5248,-269.7914 70.9395,-260.2165"/>
<polygon fill="#000000" stroke="#000000" points="73.8822,-258.3149 65.8202,-251.4407 67.8357,-261.842 73.8822,-258.3149"/>
</g>
<!-- talk -->
<g id="node4" class="node">
<title>talk</title>
<ellipse fill="#b2dfee" stroke="#b2dfee" cx="148.6465" cy="-234" rx="27" ry="18"/>
<text text-anchor="middle" x="148.6465" y="-230.3" font-family="Times,serif" font-size="14.00" fill="#000000">talk</text>
</g>
<!-- sing&#45;&gt;talk -->
<g id="edge4" class="edge">
<title>sing&#45;&gt;talk</title>
<path fill="none" stroke="#000000" d="M109.2192,-289.6621C115.5837,-280.6768 123.618,-269.3343 130.7709,-259.2362"/>
<polygon fill="#000000" stroke="#000000" points="133.8415,-260.9562 136.7657,-250.7729 128.1294,-256.9101 133.8415,-260.9562"/>
</g>
<!-- perform -->
<g id="node3" class="node">
<title>perform</title>
<ellipse fill="#b2dfee" stroke="#b2dfee" cx="39.6465" cy="-162" rx="39.7935" ry="18"/>
<text text-anchor="middle" x="39.6465" y="-158.3" font-family="Times,serif" font-size="14.00" fill="#000000">perform</text>
</g>
<!-- interpret&#45;&gt;perform -->
<g id="edge2" class="edge">
<title>interpret&#45;&gt;perform</title>
<path fill="none" stroke="#000000" d="M51.609,-215.8314C49.8524,-207.9266 47.7548,-198.4872 45.8101,-189.7365"/>
<polygon fill="#000000" stroke="#000000" points="49.2133,-188.916 43.6272,-179.9134 42.38,-190.4346 49.2133,-188.916"/>
</g>
<!-- communicate -->
<g id="node5" class="node">
<title>communicate</title>
<ellipse fill="#b2dfee" stroke="#b2dfee" cx="156.6465" cy="-162" rx="59.2899" ry="18"/>
<text text-anchor="middle" x="156.6465" y="-158.3" font-family="Times,serif" font-size="14.00" fill="#000000">communicate</text>
</g>
<!-- talk&#45;&gt;communicate -->
<g id="edge5" class="edge">
<title>talk&#45;&gt;communicate</title>
<path fill="none" stroke="#000000" d="M150.6652,-215.8314C151.5208,-208.131 152.5382,-198.9743 153.4891,-190.4166"/>
<polygon fill="#000000" stroke="#000000" points="156.9748,-190.7386 154.6006,-180.4133 150.0176,-189.9656 156.9748,-190.7386"/>
</g>
<!-- interact -->
<g id="node6" class="node">
<title>interact</title>
<ellipse fill="#b2dfee" stroke="#b2dfee" cx="156.6465" cy="-90" rx="37.0935" ry="18"/>
<text text-anchor="middle" x="156.6465" y="-86.3" font-family="Times,serif" font-size="14.00" fill="#000000">interact</text>
</g>
<!-- communicate&#45;&gt;interact -->
<g id="edge6" class="edge">
<title>communicate&#45;&gt;interact</title>
<path fill="none" stroke="#000000" d="M156.6465,-143.8314C156.6465,-136.131 156.6465,-126.9743 156.6465,-118.4166"/>
<polygon fill="#000000" stroke="#000000" points="160.1466,-118.4132 156.6465,-108.4133 153.1466,-118.4133 160.1466,-118.4132"/>
</g>
<!-- act -->
<g id="node7" class="node">
<title>act</title>
<ellipse fill="#b2dfee" stroke="#b2dfee" cx="156.6465" cy="-18" rx="27" ry="18"/>
<text text-anchor="middle" x="156.6465" y="-14.3" font-family="Times,serif" font-size="14.00" fill="#000000">act</text>
</g>
<!-- interact&#45;&gt;act -->
<g id="edge7" class="edge">
<title>interact&#45;&gt;act</title>
<path fill="none" stroke="#000000" d="M156.6465,-71.8314C156.6465,-64.131 156.6465,-54.9743 156.6465,-46.4166"/>
<polygon fill="#000000" stroke="#000000" points="160.1466,-46.4132 156.6465,-36.4133 153.1466,-46.4133 160.1466,-46.4132"/>
</g>
</g>
</svg>
