<?xml version="1.0" encoding="UTF-8" standalone="no"?>
<!DOCTYPE svg PUBLIC "-//W3C//DTD SVG 1.1//EN"
 "http://www.w3.org/Graphics/SVG/1.1/DTD/svg11.dtd">
<!-- Generated by graphviz version 2.40.1 (20161225.0304)
 -->
<!-- Title: unix Pages: 1 -->
<svg width="148pt" height="432pt"
 viewBox="0.00 0.00 147.65 432.00" xmlns="http://www.w3.org/2000/svg" xmlns:xlink="http://www.w3.org/1999/xlink">
<g id="graph0" class="graph" transform="scale(.9076 .9076) rotate(0) translate(4 472)">
<title>unix</title>
<polygon fill="#ffffff" stroke="transparent" points="-4,4 -4,-472 158.6863,-472 158.6863,4 -4,4"/>
<!-- sleep -->
<g id="node1" class="node">
<title>sleep</title>
<ellipse fill="#b2dfee" stroke="#b2dfee" cx="77.3431" cy="-450" rx="28.6953" ry="18"/>
<text text-anchor="middle" x="77.3431" y="-446.3" font-family="Times,serif" font-size="14.00" fill="#000000">sleep</text>
</g>
<!-- physical_condition -->
<g id="node2" class="node">
<title>physical_condition</title>
<ellipse fill="#b2dfee" stroke="#b2dfee" cx="77.3431" cy="-378" rx="77.1866" ry="18"/>
<text text-anchor="middle" x="77.3431" y="-374.3" font-family="Times,serif" font-size="14.00" fill="#000000">physical_condition</text>
</g>
<!-- sleep&#45;&gt;physical_condition -->
<g id="edge1" class="edge">
<title>sleep&#45;&gt;physical_condition</title>
<path fill="none" stroke="#000000" d="M77.3431,-431.8314C77.3431,-424.131 77.3431,-414.9743 77.3431,-406.4166"/>
<polygon fill="#000000" stroke="#000000" points="80.8432,-406.4132 77.3431,-396.4133 73.8432,-406.4133 80.8432,-406.4132"/>
</g>
<!-- condition -->
<g id="node3" class="node">
<title>condition</title>
<ellipse fill="#b2dfee" stroke="#b2dfee" cx="77.3431" cy="-306" rx="44.393" ry="18"/>
<text text-anchor="middle" x="77.3431" y="-302.3" font-family="Times,serif" font-size="14.00" fill="#000000">condition</text>
</g>
<!-- physical_condition&#45;&gt;condition -->
<g id="edge2" class="edge">
<title>physical_condition&#45;&gt;condition</title>
<path fill="none" stroke="#000000" d="M77.3431,-359.8314C77.3431,-352.131 77.3431,-342.9743 77.3431,-334.4166"/>
<polygon fill="#000000" stroke="#000000" points="80.8432,-334.4132 77.3431,-324.4133 73.8432,-334.4133 80.8432,-334.4132"/>
</g>
<!-- state -->
<g id="node4" class="node">
<title>state</title>
<ellipse fill="#b2dfee" stroke="#b2dfee" cx="77.3431" cy="-234" rx="27" ry="18"/>
<text text-anchor="middle" x="77.3431" y="-230.3" font-family="Times,serif" font-size="14.00" fill="#000000">state</text>
</g>
<!-- condition&#45;&gt;state -->
<g id="edge3" class="edge">
<title>condition&#45;&gt;state</title>
<path fill="none" stroke="#000000" d="M77.3431,-287.8314C77.3431,-280.131 77.3431,-270.9743 77.3431,-262.4166"/>
<polygon fill="#000000" stroke="#000000" points="80.8432,-262.4132 77.3431,-252.4133 73.8432,-262.4133 80.8432,-262.4132"/>
</g>
<!-- attribute -->
<g id="node5" class="node">
<title>attribute</title>
<ellipse fill="#b2dfee" stroke="#b2dfee" cx="77.3431" cy="-162" rx="40.0939" ry="18"/>
<text text-anchor="middle" x="77.3431" y="-158.3" font-family="Times,serif" font-size="14.00" fill="#000000">attribute</text>
</g>
<!-- state&#45;&gt;attribute -->
<g id="edge4" class="edge">
<title>state&#45;&gt;attribute</title>
<path fill="none" stroke="#000000" d="M77.3431,-215.8314C77.3431,-208.131 77.3431,-198.9743 77.3431,-190.4166"/>
<polygon fill="#000000" stroke="#000000" points="80.8432,-190.4132 77.3431,-180.4133 73.8432,-190.4133 80.8432,-190.4132"/>
</g>
<!-- abstraction -->
<g id="node6" class="node">
<title>abstraction</title>
<ellipse fill="#b2dfee" stroke="#b2dfee" cx="77.3431" cy="-90" rx="49.2915" ry="18"/>
<text text-anchor="middle" x="77.3431" y="-86.3" font-family="Times,serif" font-size="14.00" fill="#000000">abstraction</text>
</g>
<!-- attribute&#45;&gt;abstraction -->
<g id="edge5" class="edge">
<title>attribute&#45;&gt;abstraction</title>
<path fill="none" stroke="#000000" d="M77.3431,-143.8314C77.3431,-136.131 77.3431,-126.9743 77.3431,-118.4166"/>
<polygon fill="#000000" stroke="#000000" points="80.8432,-118.4132 77.3431,-108.4133 73.8432,-118.4133 80.8432,-118.4132"/>
</g>
<!-- entity -->
<g id="node7" class="node">
<title>entity</title>
<ellipse fill="#b2dfee" stroke="#b2dfee" cx="77.3431" cy="-18" rx="30.5947" ry="18"/>
<text text-anchor="middle" x="77.3431" y="-14.3" font-family="Times,serif" font-size="14.00" fill="#000000">entity</text>
</g>
<!-- abstraction&#45;&gt;entity -->
<g id="edge6" class="edge">
<title>abstraction&#45;&gt;entity</title>
<path fill="none" stroke="#000000" d="M77.3431,-71.8314C77.3431,-64.131 77.3431,-54.9743 77.3431,-46.4166"/>
<polygon fill="#000000" stroke="#000000" points="80.8432,-46.4132 77.3431,-36.4133 73.8432,-46.4133 80.8432,-46.4132"/>
</g>
</g>
</svg>
