<?xml version="1.0" encoding="UTF-8" standalone="no"?>
<!DOCTYPE svg PUBLIC "-//W3C//DTD SVG 1.1//EN"
 "http://www.w3.org/Graphics/SVG/1.1/DTD/svg11.dtd">
<!-- Generated by graphviz version 2.40.1 (20161225.0304)
 -->
<!-- Title: unix Pages: 1 -->
<svg width="102pt" height="432pt"
 viewBox="0.00 0.00 101.61 432.00" xmlns="http://www.w3.org/2000/svg" xmlns:xlink="http://www.w3.org/1999/xlink">
<g id="graph0" class="graph" transform="scale(.7883 .7883) rotate(0) translate(4 544)">
<title>unix</title>
<polygon fill="#ffffff" stroke="transparent" points="-4,4 -4,-544 124.8893,-544 124.8893,4 -4,4"/>
<!-- sol -->
<g id="node1" class="node">
<title>sol</title>
<ellipse fill="#b2dfee" stroke="#b2dfee" cx="60.4446" cy="-522" rx="27" ry="18"/>
<text text-anchor="middle" x="60.4446" y="-518.3" font-family="Times,serif" font-size="14.00" fill="#000000">sol</text>
</g>
<!-- solfa_syllable -->
<g id="node2" class="node">
<title>solfa_syllable</title>
<ellipse fill="#b2dfee" stroke="#b2dfee" cx="60.4446" cy="-450" rx="59.5901" ry="18"/>
<text text-anchor="middle" x="60.4446" y="-446.3" font-family="Times,serif" font-size="14.00" fill="#000000">solfa_syllable</text>
</g>
<!-- sol&#45;&gt;solfa_syllable -->
<g id="edge1" class="edge">
<title>sol&#45;&gt;solfa_syllable</title>
<path fill="none" stroke="#000000" d="M60.4446,-503.8314C60.4446,-496.131 60.4446,-486.9743 60.4446,-478.4166"/>
<polygon fill="#000000" stroke="#000000" points="63.9447,-478.4132 60.4446,-468.4133 56.9447,-478.4133 63.9447,-478.4132"/>
</g>
<!-- syllable -->
<g id="node3" class="node">
<title>syllable</title>
<ellipse fill="#b2dfee" stroke="#b2dfee" cx="60.4446" cy="-378" rx="38.1938" ry="18"/>
<text text-anchor="middle" x="60.4446" y="-374.3" font-family="Times,serif" font-size="14.00" fill="#000000">syllable</text>
</g>
<!-- solfa_syllable&#45;&gt;syllable -->
<g id="edge2" class="edge">
<title>solfa_syllable&#45;&gt;syllable</title>
<path fill="none" stroke="#000000" d="M60.4446,-431.8314C60.4446,-424.131 60.4446,-414.9743 60.4446,-406.4166"/>
<polygon fill="#000000" stroke="#000000" points="63.9447,-406.4132 60.4446,-396.4133 56.9447,-406.4133 63.9447,-406.4132"/>
</g>
<!-- language_unit -->
<g id="node4" class="node">
<title>language_unit</title>
<ellipse fill="#b2dfee" stroke="#b2dfee" cx="60.4446" cy="-306" rx="60.3893" ry="18"/>
<text text-anchor="middle" x="60.4446" y="-302.3" font-family="Times,serif" font-size="14.00" fill="#000000">language_unit</text>
</g>
<!-- syllable&#45;&gt;language_unit -->
<g id="edge3" class="edge">
<title>syllable&#45;&gt;language_unit</title>
<path fill="none" stroke="#000000" d="M60.4446,-359.8314C60.4446,-352.131 60.4446,-342.9743 60.4446,-334.4166"/>
<polygon fill="#000000" stroke="#000000" points="63.9447,-334.4132 60.4446,-324.4133 56.9447,-334.4133 63.9447,-334.4132"/>
</g>
<!-- part -->
<g id="node5" class="node">
<title>part</title>
<ellipse fill="#b2dfee" stroke="#b2dfee" cx="60.4446" cy="-234" rx="27" ry="18"/>
<text text-anchor="middle" x="60.4446" y="-230.3" font-family="Times,serif" font-size="14.00" fill="#000000">part</text>
</g>
<!-- language_unit&#45;&gt;part -->
<g id="edge4" class="edge">
<title>language_unit&#45;&gt;part</title>
<path fill="none" stroke="#000000" d="M60.4446,-287.8314C60.4446,-280.131 60.4446,-270.9743 60.4446,-262.4166"/>
<polygon fill="#000000" stroke="#000000" points="63.9447,-262.4132 60.4446,-252.4133 56.9447,-262.4133 63.9447,-262.4132"/>
</g>
<!-- relation -->
<g id="node6" class="node">
<title>relation</title>
<ellipse fill="#b2dfee" stroke="#b2dfee" cx="60.4446" cy="-162" rx="37.8943" ry="18"/>
<text text-anchor="middle" x="60.4446" y="-158.3" font-family="Times,serif" font-size="14.00" fill="#000000">relation</text>
</g>
<!-- part&#45;&gt;relation -->
<g id="edge5" class="edge">
<title>part&#45;&gt;relation</title>
<path fill="none" stroke="#000000" d="M60.4446,-215.8314C60.4446,-208.131 60.4446,-198.9743 60.4446,-190.4166"/>
<polygon fill="#000000" stroke="#000000" points="63.9447,-190.4132 60.4446,-180.4133 56.9447,-190.4133 63.9447,-190.4132"/>
</g>
<!-- abstraction -->
<g id="node7" class="node">
<title>abstraction</title>
<ellipse fill="#b2dfee" stroke="#b2dfee" cx="60.4446" cy="-90" rx="49.2915" ry="18"/>
<text text-anchor="middle" x="60.4446" y="-86.3" font-family="Times,serif" font-size="14.00" fill="#000000">abstraction</text>
</g>
<!-- relation&#45;&gt;abstraction -->
<g id="edge6" class="edge">
<title>relation&#45;&gt;abstraction</title>
<path fill="none" stroke="#000000" d="M60.4446,-143.8314C60.4446,-136.131 60.4446,-126.9743 60.4446,-118.4166"/>
<polygon fill="#000000" stroke="#000000" points="63.9447,-118.4132 60.4446,-108.4133 56.9447,-118.4133 63.9447,-118.4132"/>
</g>
<!-- entity -->
<g id="node8" class="node">
<title>entity</title>
<ellipse fill="#b2dfee" stroke="#b2dfee" cx="60.4446" cy="-18" rx="30.5947" ry="18"/>
<text text-anchor="middle" x="60.4446" y="-14.3" font-family="Times,serif" font-size="14.00" fill="#000000">entity</text>
</g>
<!-- abstraction&#45;&gt;entity -->
<g id="edge7" class="edge">
<title>abstraction&#45;&gt;entity</title>
<path fill="none" stroke="#000000" d="M60.4446,-71.8314C60.4446,-64.131 60.4446,-54.9743 60.4446,-46.4166"/>
<polygon fill="#000000" stroke="#000000" points="63.9447,-46.4132 60.4446,-36.4133 56.9447,-46.4133 63.9447,-46.4132"/>
</g>
</g>
</svg>
