<?xml version="1.0" encoding="UTF-8" standalone="no"?>
<!DOCTYPE svg PUBLIC "-//W3C//DTD SVG 1.1//EN"
 "http://www.w3.org/Graphics/SVG/1.1/DTD/svg11.dtd">
<!-- Generated by graphviz version 2.40.1 (20161225.0304)
 -->
<!-- Title: unix Pages: 1 -->
<svg width="128pt" height="432pt"
 viewBox="0.00 0.00 128.04 432.00" xmlns="http://www.w3.org/2000/svg" xmlns:xlink="http://www.w3.org/1999/xlink">
<g id="graph0" class="graph" transform="scale(.5654 .5654) rotate(0) translate(4 760)">
<title>unix</title>
<polygon fill="#ffffff" stroke="transparent" points="-4,4 -4,-760 222.44,-760 222.44,4 -4,4"/>
<!-- sock -->
<g id="node1" class="node">
<title>sock</title>
<ellipse fill="#b2dfee" stroke="#b2dfee" cx="119.8437" cy="-738" rx="27" ry="18"/>
<text text-anchor="middle" x="119.8437" y="-734.3" font-family="Times,serif" font-size="14.00" fill="#000000">sock</text>
</g>
<!-- hosiery -->
<g id="node2" class="node">
<title>hosiery</title>
<ellipse fill="#b2dfee" stroke="#b2dfee" cx="119.8437" cy="-666" rx="36.2938" ry="18"/>
<text text-anchor="middle" x="119.8437" y="-662.3" font-family="Times,serif" font-size="14.00" fill="#000000">hosiery</text>
</g>
<!-- sock&#45;&gt;hosiery -->
<g id="edge1" class="edge">
<title>sock&#45;&gt;hosiery</title>
<path fill="none" stroke="#000000" d="M119.8437,-719.8314C119.8437,-712.131 119.8437,-702.9743 119.8437,-694.4166"/>
<polygon fill="#000000" stroke="#000000" points="123.3438,-694.4132 119.8437,-684.4133 116.3438,-694.4133 123.3438,-694.4132"/>
</g>
<!-- footwear -->
<g id="node3" class="node">
<title>footwear</title>
<ellipse fill="#b2dfee" stroke="#b2dfee" cx="119.8437" cy="-594" rx="42.4939" ry="18"/>
<text text-anchor="middle" x="119.8437" y="-590.3" font-family="Times,serif" font-size="14.00" fill="#000000">footwear</text>
</g>
<!-- hosiery&#45;&gt;footwear -->
<g id="edge2" class="edge">
<title>hosiery&#45;&gt;footwear</title>
<path fill="none" stroke="#000000" d="M119.8437,-647.8314C119.8437,-640.131 119.8437,-630.9743 119.8437,-622.4166"/>
<polygon fill="#000000" stroke="#000000" points="123.3438,-622.4132 119.8437,-612.4133 116.3438,-622.4133 123.3438,-622.4132"/>
</g>
<!-- clothing -->
<g id="node4" class="node">
<title>clothing</title>
<ellipse fill="#b2dfee" stroke="#b2dfee" cx="119.8437" cy="-522" rx="39.7935" ry="18"/>
<text text-anchor="middle" x="119.8437" y="-518.3" font-family="Times,serif" font-size="14.00" fill="#000000">clothing</text>
</g>
<!-- footwear&#45;&gt;clothing -->
<g id="edge3" class="edge">
<title>footwear&#45;&gt;clothing</title>
<path fill="none" stroke="#000000" d="M119.8437,-575.8314C119.8437,-568.131 119.8437,-558.9743 119.8437,-550.4166"/>
<polygon fill="#000000" stroke="#000000" points="123.3438,-550.4132 119.8437,-540.4133 116.3438,-550.4133 123.3438,-550.4132"/>
</g>
<!-- consumer_goods -->
<g id="node5" class="node">
<title>consumer_goods</title>
<ellipse fill="#b2dfee" stroke="#b2dfee" cx="70.8437" cy="-450" rx="70.6878" ry="18"/>
<text text-anchor="middle" x="70.8437" y="-446.3" font-family="Times,serif" font-size="14.00" fill="#000000">consumer_goods</text>
</g>
<!-- clothing&#45;&gt;consumer_goods -->
<g id="edge4" class="edge">
<title>clothing&#45;&gt;consumer_goods</title>
<path fill="none" stroke="#000000" d="M107.9822,-504.5708C102.1705,-496.0312 95.0523,-485.5719 88.6082,-476.1029"/>
<polygon fill="#000000" stroke="#000000" points="91.4562,-474.0668 82.9364,-467.7689 85.6692,-478.0052 91.4562,-474.0668"/>
</g>
<!-- covering -->
<g id="node12" class="node">
<title>covering</title>
<ellipse fill="#b2dfee" stroke="#b2dfee" cx="176.8437" cy="-378" rx="41.6928" ry="18"/>
<text text-anchor="middle" x="176.8437" y="-374.3" font-family="Times,serif" font-size="14.00" fill="#000000">covering</text>
</g>
<!-- clothing&#45;&gt;covering -->
<g id="edge11" class="edge">
<title>clothing&#45;&gt;covering</title>
<path fill="none" stroke="#000000" d="M131.2912,-504.5536C137.6903,-494.2381 145.4403,-480.7381 150.8437,-468 159.3916,-447.849 166.1379,-424.0109 170.6143,-405.932"/>
<polygon fill="#000000" stroke="#000000" points="174.0617,-406.5642 172.9841,-396.0243 167.2538,-404.9358 174.0617,-406.5642"/>
</g>
<!-- commodity -->
<g id="node6" class="node">
<title>commodity</title>
<ellipse fill="#b2dfee" stroke="#b2dfee" cx="64.8437" cy="-378" rx="51.9908" ry="18"/>
<text text-anchor="middle" x="64.8437" y="-374.3" font-family="Times,serif" font-size="14.00" fill="#000000">commodity</text>
</g>
<!-- consumer_goods&#45;&gt;commodity -->
<g id="edge5" class="edge">
<title>consumer_goods&#45;&gt;commodity</title>
<path fill="none" stroke="#000000" d="M69.3297,-431.8314C68.688,-424.131 67.9249,-414.9743 67.2118,-406.4166"/>
<polygon fill="#000000" stroke="#000000" points="70.6966,-406.088 66.3782,-396.4133 63.7208,-406.6694 70.6966,-406.088"/>
</g>
<!-- artifact -->
<g id="node7" class="node">
<title>artifact</title>
<ellipse fill="#b2dfee" stroke="#b2dfee" cx="120.8437" cy="-306" rx="35.9954" ry="18"/>
<text text-anchor="middle" x="120.8437" y="-302.3" font-family="Times,serif" font-size="14.00" fill="#000000">artifact</text>
</g>
<!-- commodity&#45;&gt;artifact -->
<g id="edge6" class="edge">
<title>commodity&#45;&gt;artifact</title>
<path fill="none" stroke="#000000" d="M78.3998,-360.5708C85.3097,-351.6866 93.8358,-340.7245 101.4292,-330.9615"/>
<polygon fill="#000000" stroke="#000000" points="104.4214,-332.8153 107.7981,-322.7729 98.8959,-328.5176 104.4214,-332.8153"/>
</g>
<!-- whole -->
<g id="node8" class="node">
<title>whole</title>
<ellipse fill="#b2dfee" stroke="#b2dfee" cx="120.8437" cy="-234" rx="32.4942" ry="18"/>
<text text-anchor="middle" x="120.8437" y="-230.3" font-family="Times,serif" font-size="14.00" fill="#000000">whole</text>
</g>
<!-- artifact&#45;&gt;whole -->
<g id="edge7" class="edge">
<title>artifact&#45;&gt;whole</title>
<path fill="none" stroke="#000000" d="M120.8437,-287.8314C120.8437,-280.131 120.8437,-270.9743 120.8437,-262.4166"/>
<polygon fill="#000000" stroke="#000000" points="124.3438,-262.4132 120.8437,-252.4133 117.3438,-262.4133 124.3438,-262.4132"/>
</g>
<!-- object -->
<g id="node9" class="node">
<title>object</title>
<ellipse fill="#b2dfee" stroke="#b2dfee" cx="120.8437" cy="-162" rx="32.4942" ry="18"/>
<text text-anchor="middle" x="120.8437" y="-158.3" font-family="Times,serif" font-size="14.00" fill="#000000">object</text>
</g>
<!-- whole&#45;&gt;object -->
<g id="edge8" class="edge">
<title>whole&#45;&gt;object</title>
<path fill="none" stroke="#000000" d="M120.8437,-215.8314C120.8437,-208.131 120.8437,-198.9743 120.8437,-190.4166"/>
<polygon fill="#000000" stroke="#000000" points="124.3438,-190.4132 120.8437,-180.4133 117.3438,-190.4133 124.3438,-190.4132"/>
</g>
<!-- physical_entity -->
<g id="node10" class="node">
<title>physical_entity</title>
<ellipse fill="#b2dfee" stroke="#b2dfee" cx="120.8437" cy="-90" rx="64.189" ry="18"/>
<text text-anchor="middle" x="120.8437" y="-86.3" font-family="Times,serif" font-size="14.00" fill="#000000">physical_entity</text>
</g>
<!-- object&#45;&gt;physical_entity -->
<g id="edge9" class="edge">
<title>object&#45;&gt;physical_entity</title>
<path fill="none" stroke="#000000" d="M120.8437,-143.8314C120.8437,-136.131 120.8437,-126.9743 120.8437,-118.4166"/>
<polygon fill="#000000" stroke="#000000" points="124.3438,-118.4132 120.8437,-108.4133 117.3438,-118.4133 124.3438,-118.4132"/>
</g>
<!-- entity -->
<g id="node11" class="node">
<title>entity</title>
<ellipse fill="#b2dfee" stroke="#b2dfee" cx="120.8437" cy="-18" rx="30.5947" ry="18"/>
<text text-anchor="middle" x="120.8437" y="-14.3" font-family="Times,serif" font-size="14.00" fill="#000000">entity</text>
</g>
<!-- physical_entity&#45;&gt;entity -->
<g id="edge10" class="edge">
<title>physical_entity&#45;&gt;entity</title>
<path fill="none" stroke="#000000" d="M120.8437,-71.8314C120.8437,-64.131 120.8437,-54.9743 120.8437,-46.4166"/>
<polygon fill="#000000" stroke="#000000" points="124.3438,-46.4132 120.8437,-36.4133 117.3438,-46.4133 124.3438,-46.4132"/>
</g>
<!-- covering&#45;&gt;artifact -->
<g id="edge12" class="edge">
<title>covering&#45;&gt;artifact</title>
<path fill="none" stroke="#000000" d="M163.5725,-360.937C156.5984,-351.9703 147.92,-340.8124 140.2099,-330.8993"/>
<polygon fill="#000000" stroke="#000000" points="142.9219,-328.6853 134.0197,-322.9405 137.3964,-332.9829 142.9219,-328.6853"/>
</g>
</g>
</svg>
