<?xml version="1.0" encoding="UTF-8" standalone="no"?>
<!DOCTYPE svg PUBLIC "-//W3C//DTD SVG 1.1//EN"
 "http://www.w3.org/Graphics/SVG/1.1/DTD/svg11.dtd">
<!-- Generated by graphviz version 2.40.1 (20161225.0304)
 -->
<!-- Title: unix Pages: 1 -->
<svg width="160pt" height="432pt"
 viewBox="0.00 0.00 160.41 432.00" xmlns="http://www.w3.org/2000/svg" xmlns:xlink="http://www.w3.org/1999/xlink">
<g id="graph0" class="graph" transform="scale(.5654 .5654) rotate(0) translate(4 760)">
<title>unix</title>
<polygon fill="#ffffff" stroke="transparent" points="-4,4 -4,-760 279.6886,-760 279.6886,4 -4,4"/>
<!-- square -->
<g id="node1" class="node">
<title>square</title>
<ellipse fill="#b2dfee" stroke="#b2dfee" cx="132.7947" cy="-738" rx="33.5952" ry="18"/>
<text text-anchor="middle" x="132.7947" y="-734.3" font-family="Times,serif" font-size="14.00" fill="#000000">square</text>
</g>
<!-- rectangle -->
<g id="node2" class="node">
<title>rectangle</title>
<ellipse fill="#b2dfee" stroke="#b2dfee" cx="97.7947" cy="-666" rx="42.7926" ry="18"/>
<text text-anchor="middle" x="97.7947" y="-662.3" font-family="Times,serif" font-size="14.00" fill="#000000">rectangle</text>
</g>
<!-- square&#45;&gt;rectangle -->
<g id="edge1" class="edge">
<title>square&#45;&gt;rectangle</title>
<path fill="none" stroke="#000000" d="M124.3222,-720.5708C120.2981,-712.2927 115.397,-702.2104 110.9076,-692.9752"/>
<polygon fill="#000000" stroke="#000000" points="113.9521,-691.2324 106.4323,-683.7689 107.6565,-694.2928 113.9521,-691.2324"/>
</g>
<!-- regular_polygon -->
<g id="node12" class="node">
<title>regular_polygon</title>
<ellipse fill="#b2dfee" stroke="#b2dfee" cx="206.7947" cy="-594" rx="68.7879" ry="18"/>
<text text-anchor="middle" x="206.7947" y="-590.3" font-family="Times,serif" font-size="14.00" fill="#000000">regular_polygon</text>
</g>
<!-- square&#45;&gt;regular_polygon -->
<g id="edge11" class="edge">
<title>square&#45;&gt;regular_polygon</title>
<path fill="none" stroke="#000000" d="M141.7208,-720.6302C154.4303,-695.8982 177.861,-650.3034 192.8666,-621.1034"/>
<polygon fill="#000000" stroke="#000000" points="196.147,-622.3772 197.6048,-611.8831 189.921,-619.1777 196.147,-622.3772"/>
</g>
<!-- parallelogram -->
<g id="node3" class="node">
<title>parallelogram</title>
<ellipse fill="#b2dfee" stroke="#b2dfee" cx="59.7947" cy="-594" rx="59.5901" ry="18"/>
<text text-anchor="middle" x="59.7947" y="-590.3" font-family="Times,serif" font-size="14.00" fill="#000000">parallelogram</text>
</g>
<!-- rectangle&#45;&gt;parallelogram -->
<g id="edge2" class="edge">
<title>rectangle&#45;&gt;parallelogram</title>
<path fill="none" stroke="#000000" d="M88.4014,-648.2022C84.0624,-639.981 78.8164,-630.041 74.0078,-620.9301"/>
<polygon fill="#000000" stroke="#000000" points="76.9746,-619.0527 69.2116,-611.8425 70.7839,-622.3201 76.9746,-619.0527"/>
</g>
<!-- quadrilateral -->
<g id="node4" class="node">
<title>quadrilateral</title>
<ellipse fill="#b2dfee" stroke="#b2dfee" cx="78.7947" cy="-522" rx="55.4913" ry="18"/>
<text text-anchor="middle" x="78.7947" y="-518.3" font-family="Times,serif" font-size="14.00" fill="#000000">quadrilateral</text>
</g>
<!-- parallelogram&#45;&gt;quadrilateral -->
<g id="edge3" class="edge">
<title>parallelogram&#45;&gt;quadrilateral</title>
<path fill="none" stroke="#000000" d="M64.5892,-575.8314C66.6436,-568.0463 69.0907,-558.7729 71.3703,-550.1347"/>
<polygon fill="#000000" stroke="#000000" points="74.7682,-550.9753 73.9356,-540.4133 67.9999,-549.1892 74.7682,-550.9753"/>
</g>
<!-- polygon -->
<g id="node5" class="node">
<title>polygon</title>
<ellipse fill="#b2dfee" stroke="#b2dfee" cx="132.7947" cy="-450" rx="39.7935" ry="18"/>
<text text-anchor="middle" x="132.7947" y="-446.3" font-family="Times,serif" font-size="14.00" fill="#000000">polygon</text>
</g>
<!-- quadrilateral&#45;&gt;polygon -->
<g id="edge4" class="edge">
<title>quadrilateral&#45;&gt;polygon</title>
<path fill="none" stroke="#000000" d="M92.143,-504.2022C98.7135,-495.4416 106.7477,-484.7293 113.9335,-475.1482"/>
<polygon fill="#000000" stroke="#000000" points="116.7717,-477.1973 119.9718,-467.0972 111.1717,-472.9972 116.7717,-477.1973"/>
</g>
<!-- plane_figure -->
<g id="node6" class="node">
<title>plane_figure</title>
<ellipse fill="#b2dfee" stroke="#b2dfee" cx="132.7947" cy="-378" rx="55.4913" ry="18"/>
<text text-anchor="middle" x="132.7947" y="-374.3" font-family="Times,serif" font-size="14.00" fill="#000000">plane_figure</text>
</g>
<!-- polygon&#45;&gt;plane_figure -->
<g id="edge5" class="edge">
<title>polygon&#45;&gt;plane_figure</title>
<path fill="none" stroke="#000000" d="M132.7947,-431.8314C132.7947,-424.131 132.7947,-414.9743 132.7947,-406.4166"/>
<polygon fill="#000000" stroke="#000000" points="136.2948,-406.4132 132.7947,-396.4133 129.2948,-406.4133 136.2948,-406.4132"/>
</g>
<!-- figure -->
<g id="node7" class="node">
<title>figure</title>
<ellipse fill="#b2dfee" stroke="#b2dfee" cx="132.7947" cy="-306" rx="31.6951" ry="18"/>
<text text-anchor="middle" x="132.7947" y="-302.3" font-family="Times,serif" font-size="14.00" fill="#000000">figure</text>
</g>
<!-- plane_figure&#45;&gt;figure -->
<g id="edge6" class="edge">
<title>plane_figure&#45;&gt;figure</title>
<path fill="none" stroke="#000000" d="M132.7947,-359.8314C132.7947,-352.131 132.7947,-342.9743 132.7947,-334.4166"/>
<polygon fill="#000000" stroke="#000000" points="136.2948,-334.4132 132.7947,-324.4133 129.2948,-334.4133 136.2948,-334.4132"/>
</g>
<!-- shape -->
<g id="node8" class="node">
<title>shape</title>
<ellipse fill="#b2dfee" stroke="#b2dfee" cx="132.7947" cy="-234" rx="30.5947" ry="18"/>
<text text-anchor="middle" x="132.7947" y="-230.3" font-family="Times,serif" font-size="14.00" fill="#000000">shape</text>
</g>
<!-- figure&#45;&gt;shape -->
<g id="edge7" class="edge">
<title>figure&#45;&gt;shape</title>
<path fill="none" stroke="#000000" d="M132.7947,-287.8314C132.7947,-280.131 132.7947,-270.9743 132.7947,-262.4166"/>
<polygon fill="#000000" stroke="#000000" points="136.2948,-262.4132 132.7947,-252.4133 129.2948,-262.4133 136.2948,-262.4132"/>
</g>
<!-- attribute -->
<g id="node9" class="node">
<title>attribute</title>
<ellipse fill="#b2dfee" stroke="#b2dfee" cx="132.7947" cy="-162" rx="40.0939" ry="18"/>
<text text-anchor="middle" x="132.7947" y="-158.3" font-family="Times,serif" font-size="14.00" fill="#000000">attribute</text>
</g>
<!-- shape&#45;&gt;attribute -->
<g id="edge8" class="edge">
<title>shape&#45;&gt;attribute</title>
<path fill="none" stroke="#000000" d="M132.7947,-215.8314C132.7947,-208.131 132.7947,-198.9743 132.7947,-190.4166"/>
<polygon fill="#000000" stroke="#000000" points="136.2948,-190.4132 132.7947,-180.4133 129.2948,-190.4133 136.2948,-190.4132"/>
</g>
<!-- abstraction -->
<g id="node10" class="node">
<title>abstraction</title>
<ellipse fill="#b2dfee" stroke="#b2dfee" cx="132.7947" cy="-90" rx="49.2915" ry="18"/>
<text text-anchor="middle" x="132.7947" y="-86.3" font-family="Times,serif" font-size="14.00" fill="#000000">abstraction</text>
</g>
<!-- attribute&#45;&gt;abstraction -->
<g id="edge9" class="edge">
<title>attribute&#45;&gt;abstraction</title>
<path fill="none" stroke="#000000" d="M132.7947,-143.8314C132.7947,-136.131 132.7947,-126.9743 132.7947,-118.4166"/>
<polygon fill="#000000" stroke="#000000" points="136.2948,-118.4132 132.7947,-108.4133 129.2948,-118.4133 136.2948,-118.4132"/>
</g>
<!-- entity -->
<g id="node11" class="node">
<title>entity</title>
<ellipse fill="#b2dfee" stroke="#b2dfee" cx="132.7947" cy="-18" rx="30.5947" ry="18"/>
<text text-anchor="middle" x="132.7947" y="-14.3" font-family="Times,serif" font-size="14.00" fill="#000000">entity</text>
</g>
<!-- abstraction&#45;&gt;entity -->
<g id="edge10" class="edge">
<title>abstraction&#45;&gt;entity</title>
<path fill="none" stroke="#000000" d="M132.7947,-71.8314C132.7947,-64.131 132.7947,-54.9743 132.7947,-46.4166"/>
<polygon fill="#000000" stroke="#000000" points="136.2948,-46.4132 132.7947,-36.4133 129.2948,-46.4133 136.2948,-46.4132"/>
</g>
<!-- isogon -->
<g id="node13" class="node">
<title>isogon</title>
<ellipse fill="#b2dfee" stroke="#b2dfee" cx="196.7947" cy="-522" rx="34.394" ry="18"/>
<text text-anchor="middle" x="196.7947" y="-518.3" font-family="Times,serif" font-size="14.00" fill="#000000">isogon</text>
</g>
<!-- regular_polygon&#45;&gt;isogon -->
<g id="edge12" class="edge">
<title>regular_polygon&#45;&gt;isogon</title>
<path fill="none" stroke="#000000" d="M204.2713,-575.8314C203.2018,-568.131 201.93,-558.9743 200.7414,-550.4166"/>
<polygon fill="#000000" stroke="#000000" points="204.1946,-549.8367 199.3521,-540.4133 197.2611,-550.7997 204.1946,-549.8367"/>
</g>
<!-- isogon&#45;&gt;polygon -->
<g id="edge13" class="edge">
<title>isogon&#45;&gt;polygon</title>
<path fill="none" stroke="#000000" d="M182.2721,-505.6621C174.0432,-496.4046 163.59,-484.6447 154.414,-474.3217"/>
<polygon fill="#000000" stroke="#000000" points="156.9636,-471.9217 147.7039,-466.7729 151.7317,-476.5723 156.9636,-471.9217"/>
</g>
</g>
</svg>
