<?xml version="1.0" encoding="UTF-8" standalone="no"?>
<!DOCTYPE svg PUBLIC "-//W3C//DTD SVG 1.1//EN"
 "http://www.w3.org/Graphics/SVG/1.1/DTD/svg11.dtd">
<!-- Generated by graphviz version 2.40.1 (20161225.0304)
 -->
<!-- Title: unix Pages: 1 -->
<svg width="132pt" height="432pt"
 viewBox="0.00 0.00 131.59 432.00" xmlns="http://www.w3.org/2000/svg" xmlns:xlink="http://www.w3.org/1999/xlink">
<g id="graph0" class="graph" transform="scale(.6243 .6243) rotate(0) translate(4 688)">
<title>unix</title>
<polygon fill="#ffffff" stroke="transparent" points="-4,4 -4,-688 206.782,-688 206.782,4 -4,4"/>
<!-- shop -->
<g id="node1" class="node">
<title>shop</title>
<ellipse fill="#b2dfee" stroke="#b2dfee" cx="101.391" cy="-666" rx="27.0966" ry="18"/>
<text text-anchor="middle" x="101.391" y="-662.3" font-family="Times,serif" font-size="14.00" fill="#000000">shop</text>
</g>
<!-- mercantile_establishment -->
<g id="node2" class="node">
<title>mercantile_establishment</title>
<ellipse fill="#b2dfee" stroke="#b2dfee" cx="101.391" cy="-594" rx="101.2821" ry="18"/>
<text text-anchor="middle" x="101.391" y="-590.3" font-family="Times,serif" font-size="14.00" fill="#000000">mercantile_establishment</text>
</g>
<!-- shop&#45;&gt;mercantile_establishment -->
<g id="edge1" class="edge">
<title>shop&#45;&gt;mercantile_establishment</title>
<path fill="none" stroke="#000000" d="M101.391,-647.8314C101.391,-640.131 101.391,-630.9743 101.391,-622.4166"/>
<polygon fill="#000000" stroke="#000000" points="104.8911,-622.4132 101.391,-612.4133 97.8911,-622.4133 104.8911,-622.4132"/>
</g>
<!-- place_of_business -->
<g id="node3" class="node">
<title>place_of_business</title>
<ellipse fill="#b2dfee" stroke="#b2dfee" cx="101.391" cy="-522" rx="75.2868" ry="18"/>
<text text-anchor="middle" x="101.391" y="-518.3" font-family="Times,serif" font-size="14.00" fill="#000000">place_of_business</text>
</g>
<!-- mercantile_establishment&#45;&gt;place_of_business -->
<g id="edge2" class="edge">
<title>mercantile_establishment&#45;&gt;place_of_business</title>
<path fill="none" stroke="#000000" d="M101.391,-575.8314C101.391,-568.131 101.391,-558.9743 101.391,-550.4166"/>
<polygon fill="#000000" stroke="#000000" points="104.8911,-550.4132 101.391,-540.4133 97.8911,-550.4133 104.8911,-550.4132"/>
</g>
<!-- establishment -->
<g id="node4" class="node">
<title>establishment</title>
<ellipse fill="#b2dfee" stroke="#b2dfee" cx="101.391" cy="-450" rx="59.5901" ry="18"/>
<text text-anchor="middle" x="101.391" y="-446.3" font-family="Times,serif" font-size="14.00" fill="#000000">establishment</text>
</g>
<!-- place_of_business&#45;&gt;establishment -->
<g id="edge3" class="edge">
<title>place_of_business&#45;&gt;establishment</title>
<path fill="none" stroke="#000000" d="M101.391,-503.8314C101.391,-496.131 101.391,-486.9743 101.391,-478.4166"/>
<polygon fill="#000000" stroke="#000000" points="104.8911,-478.4132 101.391,-468.4133 97.8911,-478.4133 104.8911,-478.4132"/>
</g>
<!-- structure -->
<g id="node5" class="node">
<title>structure</title>
<ellipse fill="#b2dfee" stroke="#b2dfee" cx="101.391" cy="-378" rx="41.6928" ry="18"/>
<text text-anchor="middle" x="101.391" y="-374.3" font-family="Times,serif" font-size="14.00" fill="#000000">structure</text>
</g>
<!-- establishment&#45;&gt;structure -->
<g id="edge4" class="edge">
<title>establishment&#45;&gt;structure</title>
<path fill="none" stroke="#000000" d="M101.391,-431.8314C101.391,-424.131 101.391,-414.9743 101.391,-406.4166"/>
<polygon fill="#000000" stroke="#000000" points="104.8911,-406.4132 101.391,-396.4133 97.8911,-406.4133 104.8911,-406.4132"/>
</g>
<!-- artifact -->
<g id="node6" class="node">
<title>artifact</title>
<ellipse fill="#b2dfee" stroke="#b2dfee" cx="101.391" cy="-306" rx="35.9954" ry="18"/>
<text text-anchor="middle" x="101.391" y="-302.3" font-family="Times,serif" font-size="14.00" fill="#000000">artifact</text>
</g>
<!-- structure&#45;&gt;artifact -->
<g id="edge5" class="edge">
<title>structure&#45;&gt;artifact</title>
<path fill="none" stroke="#000000" d="M101.391,-359.8314C101.391,-352.131 101.391,-342.9743 101.391,-334.4166"/>
<polygon fill="#000000" stroke="#000000" points="104.8911,-334.4132 101.391,-324.4133 97.8911,-334.4133 104.8911,-334.4132"/>
</g>
<!-- whole -->
<g id="node7" class="node">
<title>whole</title>
<ellipse fill="#b2dfee" stroke="#b2dfee" cx="101.391" cy="-234" rx="32.4942" ry="18"/>
<text text-anchor="middle" x="101.391" y="-230.3" font-family="Times,serif" font-size="14.00" fill="#000000">whole</text>
</g>
<!-- artifact&#45;&gt;whole -->
<g id="edge6" class="edge">
<title>artifact&#45;&gt;whole</title>
<path fill="none" stroke="#000000" d="M101.391,-287.8314C101.391,-280.131 101.391,-270.9743 101.391,-262.4166"/>
<polygon fill="#000000" stroke="#000000" points="104.8911,-262.4132 101.391,-252.4133 97.8911,-262.4133 104.8911,-262.4132"/>
</g>
<!-- object -->
<g id="node8" class="node">
<title>object</title>
<ellipse fill="#b2dfee" stroke="#b2dfee" cx="101.391" cy="-162" rx="32.4942" ry="18"/>
<text text-anchor="middle" x="101.391" y="-158.3" font-family="Times,serif" font-size="14.00" fill="#000000">object</text>
</g>
<!-- whole&#45;&gt;object -->
<g id="edge7" class="edge">
<title>whole&#45;&gt;object</title>
<path fill="none" stroke="#000000" d="M101.391,-215.8314C101.391,-208.131 101.391,-198.9743 101.391,-190.4166"/>
<polygon fill="#000000" stroke="#000000" points="104.8911,-190.4132 101.391,-180.4133 97.8911,-190.4133 104.8911,-190.4132"/>
</g>
<!-- physical_entity -->
<g id="node9" class="node">
<title>physical_entity</title>
<ellipse fill="#b2dfee" stroke="#b2dfee" cx="101.391" cy="-90" rx="64.189" ry="18"/>
<text text-anchor="middle" x="101.391" y="-86.3" font-family="Times,serif" font-size="14.00" fill="#000000">physical_entity</text>
</g>
<!-- object&#45;&gt;physical_entity -->
<g id="edge8" class="edge">
<title>object&#45;&gt;physical_entity</title>
<path fill="none" stroke="#000000" d="M101.391,-143.8314C101.391,-136.131 101.391,-126.9743 101.391,-118.4166"/>
<polygon fill="#000000" stroke="#000000" points="104.8911,-118.4132 101.391,-108.4133 97.8911,-118.4133 104.8911,-118.4132"/>
</g>
<!-- entity -->
<g id="node10" class="node">
<title>entity</title>
<ellipse fill="#b2dfee" stroke="#b2dfee" cx="101.391" cy="-18" rx="30.5947" ry="18"/>
<text text-anchor="middle" x="101.391" y="-14.3" font-family="Times,serif" font-size="14.00" fill="#000000">entity</text>
</g>
<!-- physical_entity&#45;&gt;entity -->
<g id="edge9" class="edge">
<title>physical_entity&#45;&gt;entity</title>
<path fill="none" stroke="#000000" d="M101.391,-71.8314C101.391,-64.131 101.391,-54.9743 101.391,-46.4166"/>
<polygon fill="#000000" stroke="#000000" points="104.8911,-46.4132 101.391,-36.4133 97.8911,-46.4133 104.8911,-46.4132"/>
</g>
</g>
</svg>
