<?xml version="1.0" encoding="UTF-8" standalone="no"?>
<!DOCTYPE svg PUBLIC "-//W3C//DTD SVG 1.1//EN"
 "http://www.w3.org/Graphics/SVG/1.1/DTD/svg11.dtd">
<!-- Generated by graphviz version 2.40.1 (20161225.0304)
 -->
<!-- Title: unix Pages: 1 -->
<svg width="85pt" height="260pt"
 viewBox="0.00 0.00 84.69 260.00" xmlns="http://www.w3.org/2000/svg" xmlns:xlink="http://www.w3.org/1999/xlink">
<g id="graph0" class="graph" transform="scale(1 1) rotate(0) translate(4 256)">
<title>unix</title>
<polygon fill="#ffffff" stroke="transparent" points="-4,4 -4,-256 80.6932,-256 80.6932,4 -4,4"/>
<!-- lodge -->
<g id="node1" class="node">
<title>lodge</title>
<ellipse fill="#b2dfee" stroke="#b2dfee" cx="38.3466" cy="-234" rx="30.5947" ry="18"/>
<text text-anchor="middle" x="38.3466" y="-230.3" font-family="Times,serif" font-size="14.00" fill="#000000">lodge</text>
</g>
<!-- fasten -->
<g id="node2" class="node">
<title>fasten</title>
<ellipse fill="#b2dfee" stroke="#b2dfee" cx="38.3466" cy="-162" rx="31.6951" ry="18"/>
<text text-anchor="middle" x="38.3466" y="-158.3" font-family="Times,serif" font-size="14.00" fill="#000000">fasten</text>
</g>
<!-- lodge&#45;&gt;fasten -->
<g id="edge1" class="edge">
<title>lodge&#45;&gt;fasten</title>
<path fill="none" stroke="#000000" d="M38.3466,-215.8314C38.3466,-208.131 38.3466,-198.9743 38.3466,-190.4166"/>
<polygon fill="#000000" stroke="#000000" points="41.8467,-190.4132 38.3466,-180.4133 34.8467,-190.4133 41.8467,-190.4132"/>
</g>
<!-- attach -->
<g id="node3" class="node">
<title>attach</title>
<ellipse fill="#b2dfee" stroke="#b2dfee" cx="38.3466" cy="-90" rx="31.6951" ry="18"/>
<text text-anchor="middle" x="38.3466" y="-86.3" font-family="Times,serif" font-size="14.00" fill="#000000">attach</text>
</g>
<!-- fasten&#45;&gt;attach -->
<g id="edge2" class="edge">
<title>fasten&#45;&gt;attach</title>
<path fill="none" stroke="#000000" d="M38.3466,-143.8314C38.3466,-136.131 38.3466,-126.9743 38.3466,-118.4166"/>
<polygon fill="#000000" stroke="#000000" points="41.8467,-118.4132 38.3466,-108.4133 34.8467,-118.4133 41.8467,-118.4132"/>
</g>
<!-- connect -->
<g id="node4" class="node">
<title>connect</title>
<ellipse fill="#b2dfee" stroke="#b2dfee" cx="38.3466" cy="-18" rx="38.1938" ry="18"/>
<text text-anchor="middle" x="38.3466" y="-14.3" font-family="Times,serif" font-size="14.00" fill="#000000">connect</text>
</g>
<!-- attach&#45;&gt;connect -->
<g id="edge3" class="edge">
<title>attach&#45;&gt;connect</title>
<path fill="none" stroke="#000000" d="M38.3466,-71.8314C38.3466,-64.131 38.3466,-54.9743 38.3466,-46.4166"/>
<polygon fill="#000000" stroke="#000000" points="41.8467,-46.4132 38.3466,-36.4133 34.8467,-46.4133 41.8467,-46.4132"/>
</g>
</g>
</svg>
