<?xml version="1.0" encoding="UTF-8" standalone="no"?>
<!DOCTYPE svg PUBLIC "-//W3C//DTD SVG 1.1//EN"
 "http://www.w3.org/Graphics/SVG/1.1/DTD/svg11.dtd">
<!-- Generated by graphviz version 2.40.1 (20161225.0304)
 -->
<!-- Title: unix Pages: 1 -->
<svg width="95pt" height="260pt"
 viewBox="0.00 0.00 95.09 260.00" xmlns="http://www.w3.org/2000/svg" xmlns:xlink="http://www.w3.org/1999/xlink">
<g id="graph0" class="graph" transform="scale(1 1) rotate(0) translate(4 256)">
<title>unix</title>
<polygon fill="#ffffff" stroke="transparent" points="-4,4 -4,-256 91.0923,-256 91.0923,4 -4,4"/>
<!-- suppose -->
<g id="node1" class="node">
<title>suppose</title>
<ellipse fill="#b2dfee" stroke="#b2dfee" cx="43.5461" cy="-234" rx="38.9931" ry="18"/>
<text text-anchor="middle" x="43.5461" y="-230.3" font-family="Times,serif" font-size="14.00" fill="#000000">suppose</text>
</g>
<!-- speculate -->
<g id="node2" class="node">
<title>speculate</title>
<ellipse fill="#b2dfee" stroke="#b2dfee" cx="43.5461" cy="-162" rx="43.5923" ry="18"/>
<text text-anchor="middle" x="43.5461" y="-158.3" font-family="Times,serif" font-size="14.00" fill="#000000">speculate</text>
</g>
<!-- suppose&#45;&gt;speculate -->
<g id="edge1" class="edge">
<title>suppose&#45;&gt;speculate</title>
<path fill="none" stroke="#000000" d="M43.5461,-215.8314C43.5461,-208.131 43.5461,-198.9743 43.5461,-190.4166"/>
<polygon fill="#000000" stroke="#000000" points="47.0462,-190.4132 43.5461,-180.4133 40.0462,-190.4133 47.0462,-190.4132"/>
</g>
<!-- reason -->
<g id="node3" class="node">
<title>reason</title>
<ellipse fill="#b2dfee" stroke="#b2dfee" cx="43.5461" cy="-90" rx="33.5952" ry="18"/>
<text text-anchor="middle" x="43.5461" y="-86.3" font-family="Times,serif" font-size="14.00" fill="#000000">reason</text>
</g>
<!-- speculate&#45;&gt;reason -->
<g id="edge2" class="edge">
<title>speculate&#45;&gt;reason</title>
<path fill="none" stroke="#000000" d="M43.5461,-143.8314C43.5461,-136.131 43.5461,-126.9743 43.5461,-118.4166"/>
<polygon fill="#000000" stroke="#000000" points="47.0462,-118.4132 43.5461,-108.4133 40.0462,-118.4133 47.0462,-118.4132"/>
</g>
<!-- think -->
<g id="node4" class="node">
<title>think</title>
<ellipse fill="#b2dfee" stroke="#b2dfee" cx="43.5461" cy="-18" rx="28.6953" ry="18"/>
<text text-anchor="middle" x="43.5461" y="-14.3" font-family="Times,serif" font-size="14.00" fill="#000000">think</text>
</g>
<!-- reason&#45;&gt;think -->
<g id="edge3" class="edge">
<title>reason&#45;&gt;think</title>
<path fill="none" stroke="#000000" d="M43.5461,-71.8314C43.5461,-64.131 43.5461,-54.9743 43.5461,-46.4166"/>
<polygon fill="#000000" stroke="#000000" points="47.0462,-46.4132 43.5461,-36.4133 40.0462,-46.4133 47.0462,-46.4132"/>
</g>
</g>
</svg>
