<?xml version="1.0" encoding="UTF-8" standalone="no"?>
<!DOCTYPE svg PUBLIC "-//W3C//DTD SVG 1.1//EN"
 "http://www.w3.org/Graphics/SVG/1.1/DTD/svg11.dtd">
<!-- Generated by graphviz version 2.40.1 (20161225.0304)
 -->
<!-- Title: unix Pages: 1 -->
<svg width="118pt" height="404pt"
 viewBox="0.00 0.00 118.49 404.00" xmlns="http://www.w3.org/2000/svg" xmlns:xlink="http://www.w3.org/1999/xlink">
<g id="graph0" class="graph" transform="scale(1 1) rotate(0) translate(4 400)">
<title>unix</title>
<polygon fill="#ffffff" stroke="transparent" points="-4,4 -4,-400 114.4902,-400 114.4902,4 -4,4"/>
<!-- table -->
<g id="node1" class="node">
<title>table</title>
<ellipse fill="#b2dfee" stroke="#b2dfee" cx="55.2451" cy="-378" rx="27.8951" ry="18"/>
<text text-anchor="middle" x="55.2451" y="-374.3" font-family="Times,serif" font-size="14.00" fill="#000000">table</text>
</g>
<!-- array -->
<g id="node2" class="node">
<title>array</title>
<ellipse fill="#b2dfee" stroke="#b2dfee" cx="55.2451" cy="-306" rx="28.6953" ry="18"/>
<text text-anchor="middle" x="55.2451" y="-302.3" font-family="Times,serif" font-size="14.00" fill="#000000">array</text>
</g>
<!-- table&#45;&gt;array -->
<g id="edge1" class="edge">
<title>table&#45;&gt;array</title>
<path fill="none" stroke="#000000" d="M55.2451,-359.8314C55.2451,-352.131 55.2451,-342.9743 55.2451,-334.4166"/>
<polygon fill="#000000" stroke="#000000" points="58.7452,-334.4132 55.2451,-324.4133 51.7452,-334.4133 58.7452,-334.4132"/>
</g>
<!-- arrangement -->
<g id="node3" class="node">
<title>arrangement</title>
<ellipse fill="#b2dfee" stroke="#b2dfee" cx="55.2451" cy="-234" rx="55.4913" ry="18"/>
<text text-anchor="middle" x="55.2451" y="-230.3" font-family="Times,serif" font-size="14.00" fill="#000000">arrangement</text>
</g>
<!-- array&#45;&gt;arrangement -->
<g id="edge2" class="edge">
<title>array&#45;&gt;arrangement</title>
<path fill="none" stroke="#000000" d="M55.2451,-287.8314C55.2451,-280.131 55.2451,-270.9743 55.2451,-262.4166"/>
<polygon fill="#000000" stroke="#000000" points="58.7452,-262.4132 55.2451,-252.4133 51.7452,-262.4133 58.7452,-262.4132"/>
</g>
<!-- group -->
<g id="node4" class="node">
<title>group</title>
<ellipse fill="#b2dfee" stroke="#b2dfee" cx="55.2451" cy="-162" rx="31.3957" ry="18"/>
<text text-anchor="middle" x="55.2451" y="-158.3" font-family="Times,serif" font-size="14.00" fill="#000000">group</text>
</g>
<!-- arrangement&#45;&gt;group -->
<g id="edge3" class="edge">
<title>arrangement&#45;&gt;group</title>
<path fill="none" stroke="#000000" d="M55.2451,-215.8314C55.2451,-208.131 55.2451,-198.9743 55.2451,-190.4166"/>
<polygon fill="#000000" stroke="#000000" points="58.7452,-190.4132 55.2451,-180.4133 51.7452,-190.4133 58.7452,-190.4132"/>
</g>
<!-- abstraction -->
<g id="node5" class="node">
<title>abstraction</title>
<ellipse fill="#b2dfee" stroke="#b2dfee" cx="55.2451" cy="-90" rx="49.2915" ry="18"/>
<text text-anchor="middle" x="55.2451" y="-86.3" font-family="Times,serif" font-size="14.00" fill="#000000">abstraction</text>
</g>
<!-- group&#45;&gt;abstraction -->
<g id="edge4" class="edge">
<title>group&#45;&gt;abstraction</title>
<path fill="none" stroke="#000000" d="M55.2451,-143.8314C55.2451,-136.131 55.2451,-126.9743 55.2451,-118.4166"/>
<polygon fill="#000000" stroke="#000000" points="58.7452,-118.4132 55.2451,-108.4133 51.7452,-118.4133 58.7452,-118.4132"/>
</g>
<!-- entity -->
<g id="node6" class="node">
<title>entity</title>
<ellipse fill="#b2dfee" stroke="#b2dfee" cx="55.2451" cy="-18" rx="30.5947" ry="18"/>
<text text-anchor="middle" x="55.2451" y="-14.3" font-family="Times,serif" font-size="14.00" fill="#000000">entity</text>
</g>
<!-- abstraction&#45;&gt;entity -->
<g id="edge5" class="edge">
<title>abstraction&#45;&gt;entity</title>
<path fill="none" stroke="#000000" d="M55.2451,-71.8314C55.2451,-64.131 55.2451,-54.9743 55.2451,-46.4166"/>
<polygon fill="#000000" stroke="#000000" points="58.7452,-46.4132 55.2451,-36.4133 51.7452,-46.4133 58.7452,-46.4132"/>
</g>
</g>
</svg>
