<?xml version="1.0" encoding="UTF-8" standalone="no"?>
<!DOCTYPE svg PUBLIC "-//W3C//DTD SVG 1.1//EN"
 "http://www.w3.org/Graphics/SVG/1.1/DTD/svg11.dtd">
<!-- Generated by graphviz version 2.40.1 (20161225.0304)
 -->
<!-- Title: unix Pages: 1 -->
<svg width="81pt" height="432pt"
 viewBox="0.00 0.00 81.27 432.00" xmlns="http://www.w3.org/2000/svg" xmlns:xlink="http://www.w3.org/1999/xlink">
<g id="graph0" class="graph" transform="scale(.6243 .6243) rotate(0) translate(4 688)">
<title>unix</title>
<polygon fill="#ffffff" stroke="transparent" points="-4,4 -4,-688 126.1892,-688 126.1892,4 -4,4"/>
<!-- return -->
<g id="node1" class="node">
<title>return</title>
<ellipse fill="#b2dfee" stroke="#b2dfee" cx="61.0946" cy="-666" rx="31.6951" ry="18"/>
<text text-anchor="middle" x="61.0946" y="-662.3" font-family="Times,serif" font-size="14.00" fill="#000000">return</text>
</g>
<!-- income -->
<g id="node2" class="node">
<title>income</title>
<ellipse fill="#b2dfee" stroke="#b2dfee" cx="61.0946" cy="-594" rx="37.0935" ry="18"/>
<text text-anchor="middle" x="61.0946" y="-590.3" font-family="Times,serif" font-size="14.00" fill="#000000">income</text>
</g>
<!-- return&#45;&gt;income -->
<g id="edge1" class="edge">
<title>return&#45;&gt;income</title>
<path fill="none" stroke="#000000" d="M61.0946,-647.8314C61.0946,-640.131 61.0946,-630.9743 61.0946,-622.4166"/>
<polygon fill="#000000" stroke="#000000" points="64.5947,-622.4132 61.0946,-612.4133 57.5947,-622.4133 64.5947,-622.4132"/>
</g>
<!-- financial_gain -->
<g id="node3" class="node">
<title>financial_gain</title>
<ellipse fill="#b2dfee" stroke="#b2dfee" cx="61.0946" cy="-522" rx="61.1893" ry="18"/>
<text text-anchor="middle" x="61.0946" y="-518.3" font-family="Times,serif" font-size="14.00" fill="#000000">financial_gain</text>
</g>
<!-- income&#45;&gt;financial_gain -->
<g id="edge2" class="edge">
<title>income&#45;&gt;financial_gain</title>
<path fill="none" stroke="#000000" d="M61.0946,-575.8314C61.0946,-568.131 61.0946,-558.9743 61.0946,-550.4166"/>
<polygon fill="#000000" stroke="#000000" points="64.5947,-550.4132 61.0946,-540.4133 57.5947,-550.4133 64.5947,-550.4132"/>
</g>
<!-- gain -->
<g id="node4" class="node">
<title>gain</title>
<ellipse fill="#b2dfee" stroke="#b2dfee" cx="61.0946" cy="-450" rx="27" ry="18"/>
<text text-anchor="middle" x="61.0946" y="-446.3" font-family="Times,serif" font-size="14.00" fill="#000000">gain</text>
</g>
<!-- financial_gain&#45;&gt;gain -->
<g id="edge3" class="edge">
<title>financial_gain&#45;&gt;gain</title>
<path fill="none" stroke="#000000" d="M61.0946,-503.8314C61.0946,-496.131 61.0946,-486.9743 61.0946,-478.4166"/>
<polygon fill="#000000" stroke="#000000" points="64.5947,-478.4132 61.0946,-468.4133 57.5947,-478.4133 64.5947,-478.4132"/>
</g>
<!-- sum -->
<g id="node5" class="node">
<title>sum</title>
<ellipse fill="#b2dfee" stroke="#b2dfee" cx="61.0946" cy="-378" rx="27" ry="18"/>
<text text-anchor="middle" x="61.0946" y="-374.3" font-family="Times,serif" font-size="14.00" fill="#000000">sum</text>
</g>
<!-- gain&#45;&gt;sum -->
<g id="edge4" class="edge">
<title>gain&#45;&gt;sum</title>
<path fill="none" stroke="#000000" d="M61.0946,-431.8314C61.0946,-424.131 61.0946,-414.9743 61.0946,-406.4166"/>
<polygon fill="#000000" stroke="#000000" points="64.5947,-406.4132 61.0946,-396.4133 57.5947,-406.4133 64.5947,-406.4132"/>
</g>
<!-- assets -->
<g id="node6" class="node">
<title>assets</title>
<ellipse fill="#b2dfee" stroke="#b2dfee" cx="61.0946" cy="-306" rx="31.3957" ry="18"/>
<text text-anchor="middle" x="61.0946" y="-302.3" font-family="Times,serif" font-size="14.00" fill="#000000">assets</text>
</g>
<!-- sum&#45;&gt;assets -->
<g id="edge5" class="edge">
<title>sum&#45;&gt;assets</title>
<path fill="none" stroke="#000000" d="M61.0946,-359.8314C61.0946,-352.131 61.0946,-342.9743 61.0946,-334.4166"/>
<polygon fill="#000000" stroke="#000000" points="64.5947,-334.4132 61.0946,-324.4133 57.5947,-334.4133 64.5947,-334.4132"/>
</g>
<!-- possession -->
<g id="node7" class="node">
<title>possession</title>
<ellipse fill="#b2dfee" stroke="#b2dfee" cx="61.0946" cy="-234" rx="48.1917" ry="18"/>
<text text-anchor="middle" x="61.0946" y="-230.3" font-family="Times,serif" font-size="14.00" fill="#000000">possession</text>
</g>
<!-- assets&#45;&gt;possession -->
<g id="edge6" class="edge">
<title>assets&#45;&gt;possession</title>
<path fill="none" stroke="#000000" d="M61.0946,-287.8314C61.0946,-280.131 61.0946,-270.9743 61.0946,-262.4166"/>
<polygon fill="#000000" stroke="#000000" points="64.5947,-262.4132 61.0946,-252.4133 57.5947,-262.4133 64.5947,-262.4132"/>
</g>
<!-- relation -->
<g id="node8" class="node">
<title>relation</title>
<ellipse fill="#b2dfee" stroke="#b2dfee" cx="61.0946" cy="-162" rx="37.8943" ry="18"/>
<text text-anchor="middle" x="61.0946" y="-158.3" font-family="Times,serif" font-size="14.00" fill="#000000">relation</text>
</g>
<!-- possession&#45;&gt;relation -->
<g id="edge7" class="edge">
<title>possession&#45;&gt;relation</title>
<path fill="none" stroke="#000000" d="M61.0946,-215.8314C61.0946,-208.131 61.0946,-198.9743 61.0946,-190.4166"/>
<polygon fill="#000000" stroke="#000000" points="64.5947,-190.4132 61.0946,-180.4133 57.5947,-190.4133 64.5947,-190.4132"/>
</g>
<!-- abstraction -->
<g id="node9" class="node">
<title>abstraction</title>
<ellipse fill="#b2dfee" stroke="#b2dfee" cx="61.0946" cy="-90" rx="49.2915" ry="18"/>
<text text-anchor="middle" x="61.0946" y="-86.3" font-family="Times,serif" font-size="14.00" fill="#000000">abstraction</text>
</g>
<!-- relation&#45;&gt;abstraction -->
<g id="edge8" class="edge">
<title>relation&#45;&gt;abstraction</title>
<path fill="none" stroke="#000000" d="M61.0946,-143.8314C61.0946,-136.131 61.0946,-126.9743 61.0946,-118.4166"/>
<polygon fill="#000000" stroke="#000000" points="64.5947,-118.4132 61.0946,-108.4133 57.5947,-118.4133 64.5947,-118.4132"/>
</g>
<!-- entity -->
<g id="node10" class="node">
<title>entity</title>
<ellipse fill="#b2dfee" stroke="#b2dfee" cx="61.0946" cy="-18" rx="30.5947" ry="18"/>
<text text-anchor="middle" x="61.0946" y="-14.3" font-family="Times,serif" font-size="14.00" fill="#000000">entity</text>
</g>
<!-- abstraction&#45;&gt;entity -->
<g id="edge9" class="edge">
<title>abstraction&#45;&gt;entity</title>
<path fill="none" stroke="#000000" d="M61.0946,-71.8314C61.0946,-64.131 61.0946,-54.9743 61.0946,-46.4166"/>
<polygon fill="#000000" stroke="#000000" points="64.5947,-46.4132 61.0946,-36.4133 57.5947,-46.4133 64.5947,-46.4132"/>
</g>
</g>
</svg>
