<?xml version="1.0" encoding="UTF-8" standalone="no"?>
<!DOCTYPE svg PUBLIC "-//W3C//DTD SVG 1.1//EN"
 "http://www.w3.org/Graphics/SVG/1.1/DTD/svg11.dtd">
<!-- Generated by graphviz version 2.40.1 (20161225.0304)
 -->
<!-- Title: unix Pages: 1 -->
<svg width="100pt" height="432pt"
 viewBox="0.00 0.00 99.56 432.00" xmlns="http://www.w3.org/2000/svg" xmlns:xlink="http://www.w3.org/1999/xlink">
<g id="graph0" class="graph" transform="scale(.7883 .7883) rotate(0) translate(4 544)">
<title>unix</title>
<polygon fill="#ffffff" stroke="transparent" points="-4,4 -4,-544 122.2895,-544 122.2895,4 -4,4"/>
<!-- thank -->
<g id="node1" class="node">
<title>thank</title>
<ellipse fill="#b2dfee" stroke="#b2dfee" cx="59.1448" cy="-522" rx="30.5947" ry="18"/>
<text text-anchor="middle" x="59.1448" y="-518.3" font-family="Times,serif" font-size="14.00" fill="#000000">thank</text>
</g>
<!-- convey -->
<g id="node2" class="node">
<title>convey</title>
<ellipse fill="#b2dfee" stroke="#b2dfee" cx="59.1448" cy="-450" rx="36.2938" ry="18"/>
<text text-anchor="middle" x="59.1448" y="-446.3" font-family="Times,serif" font-size="14.00" fill="#000000">convey</text>
</g>
<!-- thank&#45;&gt;convey -->
<g id="edge1" class="edge">
<title>thank&#45;&gt;convey</title>
<path fill="none" stroke="#000000" d="M59.1448,-503.8314C59.1448,-496.131 59.1448,-486.9743 59.1448,-478.4166"/>
<polygon fill="#000000" stroke="#000000" points="62.6449,-478.4132 59.1448,-468.4133 55.6449,-478.4133 62.6449,-478.4132"/>
</g>
<!-- impart -->
<g id="node3" class="node">
<title>impart</title>
<ellipse fill="#b2dfee" stroke="#b2dfee" cx="59.1448" cy="-378" rx="34.394" ry="18"/>
<text text-anchor="middle" x="59.1448" y="-374.3" font-family="Times,serif" font-size="14.00" fill="#000000">impart</text>
</g>
<!-- convey&#45;&gt;impart -->
<g id="edge2" class="edge">
<title>convey&#45;&gt;impart</title>
<path fill="none" stroke="#000000" d="M59.1448,-431.8314C59.1448,-424.131 59.1448,-414.9743 59.1448,-406.4166"/>
<polygon fill="#000000" stroke="#000000" points="62.6449,-406.4132 59.1448,-396.4133 55.6449,-406.4133 62.6449,-406.4132"/>
</g>
<!-- tell -->
<g id="node4" class="node">
<title>tell</title>
<ellipse fill="#b2dfee" stroke="#b2dfee" cx="59.1448" cy="-306" rx="27" ry="18"/>
<text text-anchor="middle" x="59.1448" y="-302.3" font-family="Times,serif" font-size="14.00" fill="#000000">tell</text>
</g>
<!-- impart&#45;&gt;tell -->
<g id="edge3" class="edge">
<title>impart&#45;&gt;tell</title>
<path fill="none" stroke="#000000" d="M59.1448,-359.8314C59.1448,-352.131 59.1448,-342.9743 59.1448,-334.4166"/>
<polygon fill="#000000" stroke="#000000" points="62.6449,-334.4132 59.1448,-324.4133 55.6449,-334.4133 62.6449,-334.4132"/>
</g>
<!-- inform -->
<g id="node5" class="node">
<title>inform</title>
<ellipse fill="#b2dfee" stroke="#b2dfee" cx="59.1448" cy="-234" rx="35.194" ry="18"/>
<text text-anchor="middle" x="59.1448" y="-230.3" font-family="Times,serif" font-size="14.00" fill="#000000">inform</text>
</g>
<!-- tell&#45;&gt;inform -->
<g id="edge4" class="edge">
<title>tell&#45;&gt;inform</title>
<path fill="none" stroke="#000000" d="M59.1448,-287.8314C59.1448,-280.131 59.1448,-270.9743 59.1448,-262.4166"/>
<polygon fill="#000000" stroke="#000000" points="62.6449,-262.4132 59.1448,-252.4133 55.6449,-262.4133 62.6449,-262.4132"/>
</g>
<!-- communicate -->
<g id="node6" class="node">
<title>communicate</title>
<ellipse fill="#b2dfee" stroke="#b2dfee" cx="59.1448" cy="-162" rx="59.2899" ry="18"/>
<text text-anchor="middle" x="59.1448" y="-158.3" font-family="Times,serif" font-size="14.00" fill="#000000">communicate</text>
</g>
<!-- inform&#45;&gt;communicate -->
<g id="edge5" class="edge">
<title>inform&#45;&gt;communicate</title>
<path fill="none" stroke="#000000" d="M59.1448,-215.8314C59.1448,-208.131 59.1448,-198.9743 59.1448,-190.4166"/>
<polygon fill="#000000" stroke="#000000" points="62.6449,-190.4132 59.1448,-180.4133 55.6449,-190.4133 62.6449,-190.4132"/>
</g>
<!-- interact -->
<g id="node7" class="node">
<title>interact</title>
<ellipse fill="#b2dfee" stroke="#b2dfee" cx="59.1448" cy="-90" rx="37.0935" ry="18"/>
<text text-anchor="middle" x="59.1448" y="-86.3" font-family="Times,serif" font-size="14.00" fill="#000000">interact</text>
</g>
<!-- communicate&#45;&gt;interact -->
<g id="edge6" class="edge">
<title>communicate&#45;&gt;interact</title>
<path fill="none" stroke="#000000" d="M59.1448,-143.8314C59.1448,-136.131 59.1448,-126.9743 59.1448,-118.4166"/>
<polygon fill="#000000" stroke="#000000" points="62.6449,-118.4132 59.1448,-108.4133 55.6449,-118.4133 62.6449,-118.4132"/>
</g>
<!-- act -->
<g id="node8" class="node">
<title>act</title>
<ellipse fill="#b2dfee" stroke="#b2dfee" cx="59.1448" cy="-18" rx="27" ry="18"/>
<text text-anchor="middle" x="59.1448" y="-14.3" font-family="Times,serif" font-size="14.00" fill="#000000">act</text>
</g>
<!-- interact&#45;&gt;act -->
<g id="edge7" class="edge">
<title>interact&#45;&gt;act</title>
<path fill="none" stroke="#000000" d="M59.1448,-71.8314C59.1448,-64.131 59.1448,-54.9743 59.1448,-46.4166"/>
<polygon fill="#000000" stroke="#000000" points="62.6449,-46.4132 59.1448,-36.4133 55.6449,-46.4133 62.6449,-46.4132"/>
</g>
</g>
</svg>
