<?xml version="1.0" encoding="UTF-8" standalone="no"?>
<!DOCTYPE svg PUBLIC "-//W3C//DTD SVG 1.1//EN"
 "http://www.w3.org/Graphics/SVG/1.1/DTD/svg11.dtd">
<!-- Generated by graphviz version 2.40.1 (20161225.0304)
 -->
<!-- Title: unix Pages: 1 -->
<svg width="74pt" height="188pt"
 viewBox="0.00 0.00 74.29 188.00" xmlns="http://www.w3.org/2000/svg" xmlns:xlink="http://www.w3.org/1999/xlink">
<g id="graph0" class="graph" transform="scale(1 1) rotate(0) translate(4 184)">
<title>unix</title>
<polygon fill="#ffffff" stroke="transparent" points="-4,4 -4,-184 70.2941,-184 70.2941,4 -4,4"/>
<!-- throw -->
<g id="node1" class="node">
<title>throw</title>
<ellipse fill="#b2dfee" stroke="#b2dfee" cx="33.1471" cy="-162" rx="31.3957" ry="18"/>
<text text-anchor="middle" x="33.1471" y="-158.3" font-family="Times,serif" font-size="14.00" fill="#000000">throw</text>
</g>
<!-- propel -->
<g id="node2" class="node">
<title>propel</title>
<ellipse fill="#b2dfee" stroke="#b2dfee" cx="33.1471" cy="-90" rx="33.2948" ry="18"/>
<text text-anchor="middle" x="33.1471" y="-86.3" font-family="Times,serif" font-size="14.00" fill="#000000">propel</text>
</g>
<!-- throw&#45;&gt;propel -->
<g id="edge1" class="edge">
<title>throw&#45;&gt;propel</title>
<path fill="none" stroke="#000000" d="M33.1471,-143.8314C33.1471,-136.131 33.1471,-126.9743 33.1471,-118.4166"/>
<polygon fill="#000000" stroke="#000000" points="36.6472,-118.4132 33.1471,-108.4133 29.6472,-118.4133 36.6472,-118.4132"/>
</g>
<!-- move -->
<g id="node3" class="node">
<title>move</title>
<ellipse fill="#b2dfee" stroke="#b2dfee" cx="33.1471" cy="-18" rx="30.5947" ry="18"/>
<text text-anchor="middle" x="33.1471" y="-14.3" font-family="Times,serif" font-size="14.00" fill="#000000">move</text>
</g>
<!-- propel&#45;&gt;move -->
<g id="edge2" class="edge">
<title>propel&#45;&gt;move</title>
<path fill="none" stroke="#000000" d="M33.1471,-71.8314C33.1471,-64.131 33.1471,-54.9743 33.1471,-46.4166"/>
<polygon fill="#000000" stroke="#000000" points="36.6472,-46.4132 33.1471,-36.4133 29.6472,-46.4133 36.6472,-46.4132"/>
</g>
</g>
</svg>
