<?xml version="1.0" encoding="UTF-8" standalone="no"?>
<!DOCTYPE svg PUBLIC "-//W3C//DTD SVG 1.1//EN"
 "http://www.w3.org/Graphics/SVG/1.1/DTD/svg11.dtd">
<!-- Generated by graphviz version 2.40.1 (20161225.0304)
 -->
<!-- Title: unix Pages: 1 -->
<svg width="126pt" height="432pt"
 viewBox="0.00 0.00 125.91 432.00" xmlns="http://www.w3.org/2000/svg" xmlns:xlink="http://www.w3.org/1999/xlink">
<g id="graph0" class="graph" transform="scale(.6243 .6243) rotate(0) translate(4 688)">
<title>unix</title>
<polygon fill="#ffffff" stroke="transparent" points="-4,4 -4,-688 197.6828,-688 197.6828,4 -4,4"/>
<!-- tickle -->
<g id="node1" class="node">
<title>tickle</title>
<ellipse fill="#b2dfee" stroke="#b2dfee" cx="96.8414" cy="-666" rx="30.5947" ry="18"/>
<text text-anchor="middle" x="96.8414" y="-662.3" font-family="Times,serif" font-size="14.00" fill="#000000">tickle</text>
</g>
<!-- cutaneous_sensation -->
<g id="node2" class="node">
<title>cutaneous_sensation</title>
<ellipse fill="#b2dfee" stroke="#b2dfee" cx="96.8414" cy="-594" rx="83.3857" ry="18"/>
<text text-anchor="middle" x="96.8414" y="-590.3" font-family="Times,serif" font-size="14.00" fill="#000000">cutaneous_sensation</text>
</g>
<!-- tickle&#45;&gt;cutaneous_sensation -->
<g id="edge1" class="edge">
<title>tickle&#45;&gt;cutaneous_sensation</title>
<path fill="none" stroke="#000000" d="M96.8414,-647.8314C96.8414,-640.131 96.8414,-630.9743 96.8414,-622.4166"/>
<polygon fill="#000000" stroke="#000000" points="100.3415,-622.4132 96.8414,-612.4133 93.3415,-622.4133 100.3415,-622.4132"/>
</g>
<!-- touch -->
<g id="node3" class="node">
<title>touch</title>
<ellipse fill="#b2dfee" stroke="#b2dfee" cx="96.8414" cy="-522" rx="30.5947" ry="18"/>
<text text-anchor="middle" x="96.8414" y="-518.3" font-family="Times,serif" font-size="14.00" fill="#000000">touch</text>
</g>
<!-- cutaneous_sensation&#45;&gt;touch -->
<g id="edge2" class="edge">
<title>cutaneous_sensation&#45;&gt;touch</title>
<path fill="none" stroke="#000000" d="M96.8414,-575.8314C96.8414,-568.131 96.8414,-558.9743 96.8414,-550.4166"/>
<polygon fill="#000000" stroke="#000000" points="100.3415,-550.4132 96.8414,-540.4133 93.3415,-550.4133 100.3415,-550.4132"/>
</g>
<!-- perception -->
<g id="node4" class="node">
<title>perception</title>
<ellipse fill="#b2dfee" stroke="#b2dfee" cx="96.8414" cy="-450" rx="48.1917" ry="18"/>
<text text-anchor="middle" x="96.8414" y="-446.3" font-family="Times,serif" font-size="14.00" fill="#000000">perception</text>
</g>
<!-- touch&#45;&gt;perception -->
<g id="edge3" class="edge">
<title>touch&#45;&gt;perception</title>
<path fill="none" stroke="#000000" d="M96.8414,-503.8314C96.8414,-496.131 96.8414,-486.9743 96.8414,-478.4166"/>
<polygon fill="#000000" stroke="#000000" points="100.3415,-478.4132 96.8414,-468.4133 93.3415,-478.4133 100.3415,-478.4132"/>
</g>
<!-- basic_cognitive_process -->
<g id="node5" class="node">
<title>basic_cognitive_process</title>
<ellipse fill="#b2dfee" stroke="#b2dfee" cx="96.8414" cy="-378" rx="96.6831" ry="18"/>
<text text-anchor="middle" x="96.8414" y="-374.3" font-family="Times,serif" font-size="14.00" fill="#000000">basic_cognitive_process</text>
</g>
<!-- perception&#45;&gt;basic_cognitive_process -->
<g id="edge4" class="edge">
<title>perception&#45;&gt;basic_cognitive_process</title>
<path fill="none" stroke="#000000" d="M96.8414,-431.8314C96.8414,-424.131 96.8414,-414.9743 96.8414,-406.4166"/>
<polygon fill="#000000" stroke="#000000" points="100.3415,-406.4132 96.8414,-396.4133 93.3415,-406.4133 100.3415,-406.4132"/>
</g>
<!-- process -->
<g id="node6" class="node">
<title>process</title>
<ellipse fill="#b2dfee" stroke="#b2dfee" cx="96.8414" cy="-306" rx="37.0935" ry="18"/>
<text text-anchor="middle" x="96.8414" y="-302.3" font-family="Times,serif" font-size="14.00" fill="#000000">process</text>
</g>
<!-- basic_cognitive_process&#45;&gt;process -->
<g id="edge5" class="edge">
<title>basic_cognitive_process&#45;&gt;process</title>
<path fill="none" stroke="#000000" d="M96.8414,-359.8314C96.8414,-352.131 96.8414,-342.9743 96.8414,-334.4166"/>
<polygon fill="#000000" stroke="#000000" points="100.3415,-334.4132 96.8414,-324.4133 93.3415,-334.4133 100.3415,-334.4132"/>
</g>
<!-- cognition -->
<g id="node7" class="node">
<title>cognition</title>
<ellipse fill="#b2dfee" stroke="#b2dfee" cx="96.8414" cy="-234" rx="44.393" ry="18"/>
<text text-anchor="middle" x="96.8414" y="-230.3" font-family="Times,serif" font-size="14.00" fill="#000000">cognition</text>
</g>
<!-- process&#45;&gt;cognition -->
<g id="edge6" class="edge">
<title>process&#45;&gt;cognition</title>
<path fill="none" stroke="#000000" d="M96.8414,-287.8314C96.8414,-280.131 96.8414,-270.9743 96.8414,-262.4166"/>
<polygon fill="#000000" stroke="#000000" points="100.3415,-262.4132 96.8414,-252.4133 93.3415,-262.4133 100.3415,-262.4132"/>
</g>
<!-- psychological_feature -->
<g id="node8" class="node">
<title>psychological_feature</title>
<ellipse fill="#b2dfee" stroke="#b2dfee" cx="96.8414" cy="-162" rx="88.2844" ry="18"/>
<text text-anchor="middle" x="96.8414" y="-158.3" font-family="Times,serif" font-size="14.00" fill="#000000">psychological_feature</text>
</g>
<!-- cognition&#45;&gt;psychological_feature -->
<g id="edge7" class="edge">
<title>cognition&#45;&gt;psychological_feature</title>
<path fill="none" stroke="#000000" d="M96.8414,-215.8314C96.8414,-208.131 96.8414,-198.9743 96.8414,-190.4166"/>
<polygon fill="#000000" stroke="#000000" points="100.3415,-190.4132 96.8414,-180.4133 93.3415,-190.4133 100.3415,-190.4132"/>
</g>
<!-- abstraction -->
<g id="node9" class="node">
<title>abstraction</title>
<ellipse fill="#b2dfee" stroke="#b2dfee" cx="96.8414" cy="-90" rx="49.2915" ry="18"/>
<text text-anchor="middle" x="96.8414" y="-86.3" font-family="Times,serif" font-size="14.00" fill="#000000">abstraction</text>
</g>
<!-- psychological_feature&#45;&gt;abstraction -->
<g id="edge8" class="edge">
<title>psychological_feature&#45;&gt;abstraction</title>
<path fill="none" stroke="#000000" d="M96.8414,-143.8314C96.8414,-136.131 96.8414,-126.9743 96.8414,-118.4166"/>
<polygon fill="#000000" stroke="#000000" points="100.3415,-118.4132 96.8414,-108.4133 93.3415,-118.4133 100.3415,-118.4132"/>
</g>
<!-- entity -->
<g id="node10" class="node">
<title>entity</title>
<ellipse fill="#b2dfee" stroke="#b2dfee" cx="96.8414" cy="-18" rx="30.5947" ry="18"/>
<text text-anchor="middle" x="96.8414" y="-14.3" font-family="Times,serif" font-size="14.00" fill="#000000">entity</text>
</g>
<!-- abstraction&#45;&gt;entity -->
<g id="edge9" class="edge">
<title>abstraction&#45;&gt;entity</title>
<path fill="none" stroke="#000000" d="M96.8414,-71.8314C96.8414,-64.131 96.8414,-54.9743 96.8414,-46.4166"/>
<polygon fill="#000000" stroke="#000000" points="100.3415,-46.4132 96.8414,-36.4133 93.3415,-46.4133 100.3415,-46.4132"/>
</g>
</g>
</svg>
