<?xml version="1.0" encoding="UTF-8" standalone="no"?>
<!DOCTYPE svg PUBLIC "-//W3C//DTD SVG 1.1//EN"
 "http://www.w3.org/Graphics/SVG/1.1/DTD/svg11.dtd">
<!-- Generated by graphviz version 2.40.1 (20161225.0304)
 -->
<!-- Title: unix Pages: 1 -->
<svg width="120pt" height="332pt"
 viewBox="0.00 0.00 119.79 332.00" xmlns="http://www.w3.org/2000/svg" xmlns:xlink="http://www.w3.org/1999/xlink">
<g id="graph0" class="graph" transform="scale(1 1) rotate(0) translate(4 328)">
<title>unix</title>
<polygon fill="#ffffff" stroke="transparent" points="-4,4 -4,-328 115.7901,-328 115.7901,4 -4,4"/>
<!-- tire -->
<g id="node1" class="node">
<title>tire</title>
<ellipse fill="#b2dfee" stroke="#b2dfee" cx="55.895" cy="-306" rx="27" ry="18"/>
<text text-anchor="middle" x="55.895" y="-302.3" font-family="Times,serif" font-size="14.00" fill="#000000">tire</text>
</g>
<!-- devolve -->
<g id="node2" class="node">
<title>devolve</title>
<ellipse fill="#b2dfee" stroke="#b2dfee" cx="55.895" cy="-234" rx="38.1938" ry="18"/>
<text text-anchor="middle" x="55.895" y="-230.3" font-family="Times,serif" font-size="14.00" fill="#000000">devolve</text>
</g>
<!-- tire&#45;&gt;devolve -->
<g id="edge1" class="edge">
<title>tire&#45;&gt;devolve</title>
<path fill="none" stroke="#000000" d="M55.895,-287.8314C55.895,-280.131 55.895,-270.9743 55.895,-262.4166"/>
<polygon fill="#000000" stroke="#000000" points="59.3951,-262.4132 55.895,-252.4133 52.3951,-262.4133 59.3951,-262.4132"/>
</g>
<!-- worsen -->
<g id="node3" class="node">
<title>worsen</title>
<ellipse fill="#b2dfee" stroke="#b2dfee" cx="55.895" cy="-162" rx="36.2938" ry="18"/>
<text text-anchor="middle" x="55.895" y="-158.3" font-family="Times,serif" font-size="14.00" fill="#000000">worsen</text>
</g>
<!-- devolve&#45;&gt;worsen -->
<g id="edge2" class="edge">
<title>devolve&#45;&gt;worsen</title>
<path fill="none" stroke="#000000" d="M55.895,-215.8314C55.895,-208.131 55.895,-198.9743 55.895,-190.4166"/>
<polygon fill="#000000" stroke="#000000" points="59.3951,-190.4132 55.895,-180.4133 52.3951,-190.4133 59.3951,-190.4132"/>
</g>
<!-- change_state -->
<g id="node4" class="node">
<title>change_state</title>
<ellipse fill="#b2dfee" stroke="#b2dfee" cx="55.895" cy="-90" rx="55.7903" ry="18"/>
<text text-anchor="middle" x="55.895" y="-86.3" font-family="Times,serif" font-size="14.00" fill="#000000">change_state</text>
</g>
<!-- worsen&#45;&gt;change_state -->
<g id="edge3" class="edge">
<title>worsen&#45;&gt;change_state</title>
<path fill="none" stroke="#000000" d="M55.895,-143.8314C55.895,-136.131 55.895,-126.9743 55.895,-118.4166"/>
<polygon fill="#000000" stroke="#000000" points="59.3951,-118.4132 55.895,-108.4133 52.3951,-118.4133 59.3951,-118.4132"/>
</g>
<!-- change -->
<g id="node5" class="node">
<title>change</title>
<ellipse fill="#b2dfee" stroke="#b2dfee" cx="55.895" cy="-18" rx="35.9954" ry="18"/>
<text text-anchor="middle" x="55.895" y="-14.3" font-family="Times,serif" font-size="14.00" fill="#000000">change</text>
</g>
<!-- change_state&#45;&gt;change -->
<g id="edge4" class="edge">
<title>change_state&#45;&gt;change</title>
<path fill="none" stroke="#000000" d="M55.895,-71.8314C55.895,-64.131 55.895,-54.9743 55.895,-46.4166"/>
<polygon fill="#000000" stroke="#000000" points="59.3951,-46.4132 55.895,-36.4133 52.3951,-46.4133 59.3951,-46.4132"/>
</g>
</g>
</svg>
