<?xml version="1.0" encoding="UTF-8" standalone="no"?>
<!DOCTYPE svg PUBLIC "-//W3C//DTD SVG 1.1//EN"
 "http://www.w3.org/Graphics/SVG/1.1/DTD/svg11.dtd">
<!-- Generated by graphviz version 2.40.1 (20161225.0304)
 -->
<!-- Title: unix Pages: 1 -->
<svg width="101pt" height="432pt"
 viewBox="0.00 0.00 100.68 432.00" xmlns="http://www.w3.org/2000/svg" xmlns:xlink="http://www.w3.org/1999/xlink">
<g id="graph0" class="graph" transform="scale(.6968 .6968) rotate(0) translate(4 616)">
<title>unix</title>
<polygon fill="#ffffff" stroke="transparent" points="-4,4 -4,-616 140.4879,-616 140.4879,4 -4,4"/>
<!-- train -->
<g id="node1" class="node">
<title>train</title>
<ellipse fill="#b2dfee" stroke="#b2dfee" cx="68.2439" cy="-594" rx="27" ry="18"/>
<text text-anchor="middle" x="68.2439" y="-590.3" font-family="Times,serif" font-size="14.00" fill="#000000">train</text>
</g>
<!-- public_transport -->
<g id="node2" class="node">
<title>public_transport</title>
<ellipse fill="#b2dfee" stroke="#b2dfee" cx="68.2439" cy="-522" rx="68.4888" ry="18"/>
<text text-anchor="middle" x="68.2439" y="-518.3" font-family="Times,serif" font-size="14.00" fill="#000000">public_transport</text>
</g>
<!-- train&#45;&gt;public_transport -->
<g id="edge1" class="edge">
<title>train&#45;&gt;public_transport</title>
<path fill="none" stroke="#000000" d="M68.2439,-575.8314C68.2439,-568.131 68.2439,-558.9743 68.2439,-550.4166"/>
<polygon fill="#000000" stroke="#000000" points="71.744,-550.4132 68.2439,-540.4133 64.744,-550.4133 71.744,-550.4132"/>
</g>
<!-- conveyance -->
<g id="node3" class="node">
<title>conveyance</title>
<ellipse fill="#b2dfee" stroke="#b2dfee" cx="68.2439" cy="-450" rx="51.9908" ry="18"/>
<text text-anchor="middle" x="68.2439" y="-446.3" font-family="Times,serif" font-size="14.00" fill="#000000">conveyance</text>
</g>
<!-- public_transport&#45;&gt;conveyance -->
<g id="edge2" class="edge">
<title>public_transport&#45;&gt;conveyance</title>
<path fill="none" stroke="#000000" d="M68.2439,-503.8314C68.2439,-496.131 68.2439,-486.9743 68.2439,-478.4166"/>
<polygon fill="#000000" stroke="#000000" points="71.744,-478.4132 68.2439,-468.4133 64.744,-478.4133 71.744,-478.4132"/>
</g>
<!-- instrumentality -->
<g id="node4" class="node">
<title>instrumentality</title>
<ellipse fill="#b2dfee" stroke="#b2dfee" cx="68.2439" cy="-378" rx="64.189" ry="18"/>
<text text-anchor="middle" x="68.2439" y="-374.3" font-family="Times,serif" font-size="14.00" fill="#000000">instrumentality</text>
</g>
<!-- conveyance&#45;&gt;instrumentality -->
<g id="edge3" class="edge">
<title>conveyance&#45;&gt;instrumentality</title>
<path fill="none" stroke="#000000" d="M68.2439,-431.8314C68.2439,-424.131 68.2439,-414.9743 68.2439,-406.4166"/>
<polygon fill="#000000" stroke="#000000" points="71.744,-406.4132 68.2439,-396.4133 64.744,-406.4133 71.744,-406.4132"/>
</g>
<!-- artifact -->
<g id="node5" class="node">
<title>artifact</title>
<ellipse fill="#b2dfee" stroke="#b2dfee" cx="68.2439" cy="-306" rx="35.9954" ry="18"/>
<text text-anchor="middle" x="68.2439" y="-302.3" font-family="Times,serif" font-size="14.00" fill="#000000">artifact</text>
</g>
<!-- instrumentality&#45;&gt;artifact -->
<g id="edge4" class="edge">
<title>instrumentality&#45;&gt;artifact</title>
<path fill="none" stroke="#000000" d="M68.2439,-359.8314C68.2439,-352.131 68.2439,-342.9743 68.2439,-334.4166"/>
<polygon fill="#000000" stroke="#000000" points="71.744,-334.4132 68.2439,-324.4133 64.744,-334.4133 71.744,-334.4132"/>
</g>
<!-- whole -->
<g id="node6" class="node">
<title>whole</title>
<ellipse fill="#b2dfee" stroke="#b2dfee" cx="68.2439" cy="-234" rx="32.4942" ry="18"/>
<text text-anchor="middle" x="68.2439" y="-230.3" font-family="Times,serif" font-size="14.00" fill="#000000">whole</text>
</g>
<!-- artifact&#45;&gt;whole -->
<g id="edge5" class="edge">
<title>artifact&#45;&gt;whole</title>
<path fill="none" stroke="#000000" d="M68.2439,-287.8314C68.2439,-280.131 68.2439,-270.9743 68.2439,-262.4166"/>
<polygon fill="#000000" stroke="#000000" points="71.744,-262.4132 68.2439,-252.4133 64.744,-262.4133 71.744,-262.4132"/>
</g>
<!-- object -->
<g id="node7" class="node">
<title>object</title>
<ellipse fill="#b2dfee" stroke="#b2dfee" cx="68.2439" cy="-162" rx="32.4942" ry="18"/>
<text text-anchor="middle" x="68.2439" y="-158.3" font-family="Times,serif" font-size="14.00" fill="#000000">object</text>
</g>
<!-- whole&#45;&gt;object -->
<g id="edge6" class="edge">
<title>whole&#45;&gt;object</title>
<path fill="none" stroke="#000000" d="M68.2439,-215.8314C68.2439,-208.131 68.2439,-198.9743 68.2439,-190.4166"/>
<polygon fill="#000000" stroke="#000000" points="71.744,-190.4132 68.2439,-180.4133 64.744,-190.4133 71.744,-190.4132"/>
</g>
<!-- physical_entity -->
<g id="node8" class="node">
<title>physical_entity</title>
<ellipse fill="#b2dfee" stroke="#b2dfee" cx="68.2439" cy="-90" rx="64.189" ry="18"/>
<text text-anchor="middle" x="68.2439" y="-86.3" font-family="Times,serif" font-size="14.00" fill="#000000">physical_entity</text>
</g>
<!-- object&#45;&gt;physical_entity -->
<g id="edge7" class="edge">
<title>object&#45;&gt;physical_entity</title>
<path fill="none" stroke="#000000" d="M68.2439,-143.8314C68.2439,-136.131 68.2439,-126.9743 68.2439,-118.4166"/>
<polygon fill="#000000" stroke="#000000" points="71.744,-118.4132 68.2439,-108.4133 64.744,-118.4133 71.744,-118.4132"/>
</g>
<!-- entity -->
<g id="node9" class="node">
<title>entity</title>
<ellipse fill="#b2dfee" stroke="#b2dfee" cx="68.2439" cy="-18" rx="30.5947" ry="18"/>
<text text-anchor="middle" x="68.2439" y="-14.3" font-family="Times,serif" font-size="14.00" fill="#000000">entity</text>
</g>
<!-- physical_entity&#45;&gt;entity -->
<g id="edge8" class="edge">
<title>physical_entity&#45;&gt;entity</title>
<path fill="none" stroke="#000000" d="M68.2439,-71.8314C68.2439,-64.131 68.2439,-54.9743 68.2439,-46.4166"/>
<polygon fill="#000000" stroke="#000000" points="71.744,-46.4132 68.2439,-36.4133 64.744,-46.4133 71.744,-46.4132"/>
</g>
</g>
</svg>
