<?xml version="1.0" encoding="UTF-8" standalone="no"?>
<!DOCTYPE svg PUBLIC "-//W3C//DTD SVG 1.1//EN"
 "http://www.w3.org/Graphics/SVG/1.1/DTD/svg11.dtd">
<!-- Generated by graphviz version 2.40.1 (20161225.0304)
 -->
<!-- Title: unix Pages: 1 -->
<svg width="131pt" height="432pt"
 viewBox="0.00 0.00 131.12 432.00" xmlns="http://www.w3.org/2000/svg" xmlns:xlink="http://www.w3.org/1999/xlink">
<g id="graph0" class="graph" transform="scale(.5167 .5167) rotate(0) translate(4 832)">
<title>unix</title>
<polygon fill="#ffffff" stroke="transparent" points="-4,4 -4,-832 249.7399,-832 249.7399,4 -4,4"/>
<!-- uracil -->
<g id="node1" class="node">
<title>uracil</title>
<ellipse fill="#b2dfee" stroke="#b2dfee" cx="142.3443" cy="-810" rx="30.5947" ry="18"/>
<text text-anchor="middle" x="142.3443" y="-806.3" font-family="Times,serif" font-size="14.00" fill="#000000">uracil</text>
</g>
<!-- nucleotide -->
<g id="node2" class="node">
<title>nucleotide</title>
<ellipse fill="#b2dfee" stroke="#b2dfee" cx="142.3443" cy="-738" rx="47.3916" ry="18"/>
<text text-anchor="middle" x="142.3443" y="-734.3" font-family="Times,serif" font-size="14.00" fill="#000000">nucleotide</text>
</g>
<!-- uracil&#45;&gt;nucleotide -->
<g id="edge1" class="edge">
<title>uracil&#45;&gt;nucleotide</title>
<path fill="none" stroke="#000000" d="M142.3443,-791.8314C142.3443,-784.131 142.3443,-774.9743 142.3443,-766.4166"/>
<polygon fill="#000000" stroke="#000000" points="145.8444,-766.4132 142.3443,-756.4133 138.8444,-766.4133 145.8444,-766.4132"/>
</g>
<!-- ester -->
<g id="node3" class="node">
<title>ester</title>
<ellipse fill="#b2dfee" stroke="#b2dfee" cx="142.3443" cy="-666" rx="27.0966" ry="18"/>
<text text-anchor="middle" x="142.3443" y="-662.3" font-family="Times,serif" font-size="14.00" fill="#000000">ester</text>
</g>
<!-- nucleotide&#45;&gt;ester -->
<g id="edge2" class="edge">
<title>nucleotide&#45;&gt;ester</title>
<path fill="none" stroke="#000000" d="M142.3443,-719.8314C142.3443,-712.131 142.3443,-702.9743 142.3443,-694.4166"/>
<polygon fill="#000000" stroke="#000000" points="145.8444,-694.4132 142.3443,-684.4133 138.8444,-694.4133 145.8444,-694.4132"/>
</g>
<!-- organic_compound -->
<g id="node4" class="node">
<title>organic_compound</title>
<ellipse fill="#b2dfee" stroke="#b2dfee" cx="142.3443" cy="-594" rx="79.0865" ry="18"/>
<text text-anchor="middle" x="142.3443" y="-590.3" font-family="Times,serif" font-size="14.00" fill="#000000">organic_compound</text>
</g>
<!-- ester&#45;&gt;organic_compound -->
<g id="edge3" class="edge">
<title>ester&#45;&gt;organic_compound</title>
<path fill="none" stroke="#000000" d="M142.3443,-647.8314C142.3443,-640.131 142.3443,-630.9743 142.3443,-622.4166"/>
<polygon fill="#000000" stroke="#000000" points="145.8444,-622.4132 142.3443,-612.4133 138.8444,-622.4133 145.8444,-622.4132"/>
</g>
<!-- compound -->
<g id="node5" class="node">
<title>compound</title>
<ellipse fill="#b2dfee" stroke="#b2dfee" cx="142.3443" cy="-522" rx="48.1917" ry="18"/>
<text text-anchor="middle" x="142.3443" y="-518.3" font-family="Times,serif" font-size="14.00" fill="#000000">compound</text>
</g>
<!-- organic_compound&#45;&gt;compound -->
<g id="edge4" class="edge">
<title>organic_compound&#45;&gt;compound</title>
<path fill="none" stroke="#000000" d="M142.3443,-575.8314C142.3443,-568.131 142.3443,-558.9743 142.3443,-550.4166"/>
<polygon fill="#000000" stroke="#000000" points="145.8444,-550.4132 142.3443,-540.4133 138.8444,-550.4133 145.8444,-550.4132"/>
</g>
<!-- chemical -->
<g id="node6" class="node">
<title>chemical</title>
<ellipse fill="#b2dfee" stroke="#b2dfee" cx="142.3443" cy="-450" rx="42.7926" ry="18"/>
<text text-anchor="middle" x="142.3443" y="-446.3" font-family="Times,serif" font-size="14.00" fill="#000000">chemical</text>
</g>
<!-- compound&#45;&gt;chemical -->
<g id="edge5" class="edge">
<title>compound&#45;&gt;chemical</title>
<path fill="none" stroke="#000000" d="M142.3443,-503.8314C142.3443,-496.131 142.3443,-486.9743 142.3443,-478.4166"/>
<polygon fill="#000000" stroke="#000000" points="145.8444,-478.4132 142.3443,-468.4133 138.8444,-478.4133 145.8444,-478.4132"/>
</g>
<!-- material -->
<g id="node7" class="node">
<title>material</title>
<ellipse fill="#b2dfee" stroke="#b2dfee" cx="142.3443" cy="-378" rx="40.0939" ry="18"/>
<text text-anchor="middle" x="142.3443" y="-374.3" font-family="Times,serif" font-size="14.00" fill="#000000">material</text>
</g>
<!-- chemical&#45;&gt;material -->
<g id="edge6" class="edge">
<title>chemical&#45;&gt;material</title>
<path fill="none" stroke="#000000" d="M142.3443,-431.8314C142.3443,-424.131 142.3443,-414.9743 142.3443,-406.4166"/>
<polygon fill="#000000" stroke="#000000" points="145.8444,-406.4132 142.3443,-396.4133 138.8444,-406.4133 145.8444,-406.4132"/>
</g>
<!-- substance -->
<g id="node8" class="node">
<title>substance</title>
<ellipse fill="#b2dfee" stroke="#b2dfee" cx="142.3443" cy="-306" rx="44.6926" ry="18"/>
<text text-anchor="middle" x="142.3443" y="-302.3" font-family="Times,serif" font-size="14.00" fill="#000000">substance</text>
</g>
<!-- material&#45;&gt;substance -->
<g id="edge7" class="edge">
<title>material&#45;&gt;substance</title>
<path fill="none" stroke="#000000" d="M142.3443,-359.8314C142.3443,-352.131 142.3443,-342.9743 142.3443,-334.4166"/>
<polygon fill="#000000" stroke="#000000" points="145.8444,-334.4132 142.3443,-324.4133 138.8444,-334.4133 145.8444,-334.4132"/>
</g>
<!-- matter -->
<g id="node9" class="node">
<title>matter</title>
<ellipse fill="#b2dfee" stroke="#b2dfee" cx="103.3443" cy="-234" rx="33.5952" ry="18"/>
<text text-anchor="middle" x="103.3443" y="-230.3" font-family="Times,serif" font-size="14.00" fill="#000000">matter</text>
</g>
<!-- substance&#45;&gt;matter -->
<g id="edge8" class="edge">
<title>substance&#45;&gt;matter</title>
<path fill="none" stroke="#000000" d="M132.7038,-288.2022C128.1361,-279.7695 122.5889,-269.5285 117.5515,-260.2288"/>
<polygon fill="#000000" stroke="#000000" points="120.5797,-258.4705 112.7393,-251.3446 114.4246,-261.8045 120.5797,-258.4705"/>
</g>
<!-- part -->
<g id="node12" class="node">
<title>part</title>
<ellipse fill="#b2dfee" stroke="#b2dfee" cx="189.3443" cy="-234" rx="27" ry="18"/>
<text text-anchor="middle" x="189.3443" y="-230.3" font-family="Times,serif" font-size="14.00" fill="#000000">part</text>
</g>
<!-- substance&#45;&gt;part -->
<g id="edge11" class="edge">
<title>substance&#45;&gt;part</title>
<path fill="none" stroke="#000000" d="M153.7217,-288.5708C159.4625,-279.7763 166.5325,-268.9457 172.8566,-259.2577"/>
<polygon fill="#000000" stroke="#000000" points="175.8599,-261.0599 178.3953,-250.7729 169.9982,-257.2335 175.8599,-261.0599"/>
</g>
<!-- physical_entity -->
<g id="node10" class="node">
<title>physical_entity</title>
<ellipse fill="#b2dfee" stroke="#b2dfee" cx="64.3443" cy="-90" rx="64.189" ry="18"/>
<text text-anchor="middle" x="64.3443" y="-86.3" font-family="Times,serif" font-size="14.00" fill="#000000">physical_entity</text>
</g>
<!-- matter&#45;&gt;physical_entity -->
<g id="edge9" class="edge">
<title>matter&#45;&gt;physical_entity</title>
<path fill="none" stroke="#000000" d="M98.4838,-216.0535C91.8277,-191.4774 79.8091,-147.1008 71.954,-118.0974"/>
<polygon fill="#000000" stroke="#000000" points="75.2586,-116.91 69.2661,-108.1727 68.502,-118.74 75.2586,-116.91"/>
</g>
<!-- entity -->
<g id="node11" class="node">
<title>entity</title>
<ellipse fill="#b2dfee" stroke="#b2dfee" cx="130.3443" cy="-18" rx="30.5947" ry="18"/>
<text text-anchor="middle" x="130.3443" y="-14.3" font-family="Times,serif" font-size="14.00" fill="#000000">entity</text>
</g>
<!-- physical_entity&#45;&gt;entity -->
<g id="edge10" class="edge">
<title>physical_entity&#45;&gt;entity</title>
<path fill="none" stroke="#000000" d="M80.6589,-72.2022C89.0927,-63.0017 99.4997,-51.6487 108.6064,-41.7141"/>
<polygon fill="#000000" stroke="#000000" points="111.3913,-43.8556 115.5686,-34.119 106.2312,-39.1255 111.3913,-43.8556"/>
</g>
<!-- relation -->
<g id="node13" class="node">
<title>relation</title>
<ellipse fill="#b2dfee" stroke="#b2dfee" cx="192.3443" cy="-162" rx="37.8943" ry="18"/>
<text text-anchor="middle" x="192.3443" y="-158.3" font-family="Times,serif" font-size="14.00" fill="#000000">relation</text>
</g>
<!-- part&#45;&gt;relation -->
<g id="edge12" class="edge">
<title>part&#45;&gt;relation</title>
<path fill="none" stroke="#000000" d="M190.1013,-215.8314C190.4222,-208.131 190.8037,-198.9743 191.1603,-190.4166"/>
<polygon fill="#000000" stroke="#000000" points="194.6576,-190.5503 191.5771,-180.4133 187.6637,-190.2589 194.6576,-190.5503"/>
</g>
<!-- abstraction -->
<g id="node14" class="node">
<title>abstraction</title>
<ellipse fill="#b2dfee" stroke="#b2dfee" cx="196.3443" cy="-90" rx="49.2915" ry="18"/>
<text text-anchor="middle" x="196.3443" y="-86.3" font-family="Times,serif" font-size="14.00" fill="#000000">abstraction</text>
</g>
<!-- relation&#45;&gt;abstraction -->
<g id="edge13" class="edge">
<title>relation&#45;&gt;abstraction</title>
<path fill="none" stroke="#000000" d="M193.3537,-143.8314C193.7815,-136.131 194.2902,-126.9743 194.7656,-118.4166"/>
<polygon fill="#000000" stroke="#000000" points="198.2611,-118.592 195.3213,-108.4133 191.2719,-118.2037 198.2611,-118.592"/>
</g>
<!-- abstraction&#45;&gt;entity -->
<g id="edge14" class="edge">
<title>abstraction&#45;&gt;entity</title>
<path fill="none" stroke="#000000" d="M180.3675,-72.5708C171.9387,-63.3758 161.4696,-51.9548 152.2904,-41.9413"/>
<polygon fill="#000000" stroke="#000000" points="154.6065,-39.2882 145.2692,-34.2817 149.4464,-44.0183 154.6065,-39.2882"/>
</g>
</g>
</svg>
