<?xml version="1.0" encoding="UTF-8" standalone="no"?>
<!DOCTYPE svg PUBLIC "-//W3C//DTD SVG 1.1//EN"
 "http://www.w3.org/Graphics/SVG/1.1/DTD/svg11.dtd">
<!-- Generated by graphviz version 2.40.1 (20161225.0304)
 -->
<!-- Title: unix Pages: 1 -->
<svg width="87pt" height="188pt"
 viewBox="0.00 0.00 87.29 188.00" xmlns="http://www.w3.org/2000/svg" xmlns:xlink="http://www.w3.org/1999/xlink">
<g id="graph0" class="graph" transform="scale(1 1) rotate(0) translate(4 184)">
<title>unix</title>
<polygon fill="#ffffff" stroke="transparent" points="-4,4 -4,-184 83.293,-184 83.293,4 -4,4"/>
<!-- up -->
<g id="node1" class="node">
<title>up</title>
<ellipse fill="#b2dfee" stroke="#b2dfee" cx="39.6465" cy="-162" rx="27" ry="18"/>
<text text-anchor="middle" x="39.6465" y="-158.3" font-family="Times,serif" font-size="14.00" fill="#000000">up</text>
</g>
<!-- increase -->
<g id="node2" class="node">
<title>increase</title>
<ellipse fill="#b2dfee" stroke="#b2dfee" cx="39.6465" cy="-90" rx="39.7935" ry="18"/>
<text text-anchor="middle" x="39.6465" y="-86.3" font-family="Times,serif" font-size="14.00" fill="#000000">increase</text>
</g>
<!-- up&#45;&gt;increase -->
<g id="edge1" class="edge">
<title>up&#45;&gt;increase</title>
<path fill="none" stroke="#000000" d="M39.6465,-143.8314C39.6465,-136.131 39.6465,-126.9743 39.6465,-118.4166"/>
<polygon fill="#000000" stroke="#000000" points="43.1466,-118.4132 39.6465,-108.4133 36.1466,-118.4133 43.1466,-118.4132"/>
</g>
<!-- change -->
<g id="node3" class="node">
<title>change</title>
<ellipse fill="#b2dfee" stroke="#b2dfee" cx="39.6465" cy="-18" rx="35.9954" ry="18"/>
<text text-anchor="middle" x="39.6465" y="-14.3" font-family="Times,serif" font-size="14.00" fill="#000000">change</text>
</g>
<!-- increase&#45;&gt;change -->
<g id="edge2" class="edge">
<title>increase&#45;&gt;change</title>
<path fill="none" stroke="#000000" d="M39.6465,-71.8314C39.6465,-64.131 39.6465,-54.9743 39.6465,-46.4166"/>
<polygon fill="#000000" stroke="#000000" points="43.1466,-46.4132 39.6465,-36.4133 36.1466,-46.4133 43.1466,-46.4132"/>
</g>
</g>
</svg>
