<?xml version="1.0" encoding="UTF-8" standalone="no"?>
<!DOCTYPE svg PUBLIC "-//W3C//DTD SVG 1.1//EN"
 "http://www.w3.org/Graphics/SVG/1.1/DTD/svg11.dtd">
<!-- Generated by graphviz version 2.40.1 (20161225.0304)
 -->
<!-- Title: unix Pages: 1 -->
<svg width="126pt" height="432pt"
 viewBox="0.00 0.00 126.41 432.00" xmlns="http://www.w3.org/2000/svg" xmlns:xlink="http://www.w3.org/1999/xlink">
<g id="graph0" class="graph" transform="scale(.9076 .9076) rotate(0) translate(4 472)">
<title>unix</title>
<polygon fill="#ffffff" stroke="transparent" points="-4,4 -4,-472 135.2884,-472 135.2884,4 -4,4"/>
<!-- voice -->
<g id="node1" class="node">
<title>voice</title>
<ellipse fill="#b2dfee" stroke="#b2dfee" cx="65.6442" cy="-450" rx="29.795" ry="18"/>
<text text-anchor="middle" x="65.6442" y="-446.3" font-family="Times,serif" font-size="14.00" fill="#000000">voice</text>
</g>
<!-- sound -->
<g id="node2" class="node">
<title>sound</title>
<ellipse fill="#b2dfee" stroke="#b2dfee" cx="65.6442" cy="-378" rx="31.6951" ry="18"/>
<text text-anchor="middle" x="65.6442" y="-374.3" font-family="Times,serif" font-size="14.00" fill="#000000">sound</text>
</g>
<!-- voice&#45;&gt;sound -->
<g id="edge1" class="edge">
<title>voice&#45;&gt;sound</title>
<path fill="none" stroke="#000000" d="M65.6442,-431.8314C65.6442,-424.131 65.6442,-414.9743 65.6442,-406.4166"/>
<polygon fill="#000000" stroke="#000000" points="69.1443,-406.4132 65.6442,-396.4133 62.1443,-406.4133 69.1443,-406.4132"/>
</g>
<!-- sound_property -->
<g id="node3" class="node">
<title>sound_property</title>
<ellipse fill="#b2dfee" stroke="#b2dfee" cx="65.6442" cy="-306" rx="65.7887" ry="18"/>
<text text-anchor="middle" x="65.6442" y="-302.3" font-family="Times,serif" font-size="14.00" fill="#000000">sound_property</text>
</g>
<!-- sound&#45;&gt;sound_property -->
<g id="edge2" class="edge">
<title>sound&#45;&gt;sound_property</title>
<path fill="none" stroke="#000000" d="M65.6442,-359.8314C65.6442,-352.131 65.6442,-342.9743 65.6442,-334.4166"/>
<polygon fill="#000000" stroke="#000000" points="69.1443,-334.4132 65.6442,-324.4133 62.1443,-334.4133 69.1443,-334.4132"/>
</g>
<!-- property -->
<g id="node4" class="node">
<title>property</title>
<ellipse fill="#b2dfee" stroke="#b2dfee" cx="65.6442" cy="-234" rx="40.0939" ry="18"/>
<text text-anchor="middle" x="65.6442" y="-230.3" font-family="Times,serif" font-size="14.00" fill="#000000">property</text>
</g>
<!-- sound_property&#45;&gt;property -->
<g id="edge3" class="edge">
<title>sound_property&#45;&gt;property</title>
<path fill="none" stroke="#000000" d="M65.6442,-287.8314C65.6442,-280.131 65.6442,-270.9743 65.6442,-262.4166"/>
<polygon fill="#000000" stroke="#000000" points="69.1443,-262.4132 65.6442,-252.4133 62.1443,-262.4133 69.1443,-262.4132"/>
</g>
<!-- attribute -->
<g id="node5" class="node">
<title>attribute</title>
<ellipse fill="#b2dfee" stroke="#b2dfee" cx="65.6442" cy="-162" rx="40.0939" ry="18"/>
<text text-anchor="middle" x="65.6442" y="-158.3" font-family="Times,serif" font-size="14.00" fill="#000000">attribute</text>
</g>
<!-- property&#45;&gt;attribute -->
<g id="edge4" class="edge">
<title>property&#45;&gt;attribute</title>
<path fill="none" stroke="#000000" d="M65.6442,-215.8314C65.6442,-208.131 65.6442,-198.9743 65.6442,-190.4166"/>
<polygon fill="#000000" stroke="#000000" points="69.1443,-190.4132 65.6442,-180.4133 62.1443,-190.4133 69.1443,-190.4132"/>
</g>
<!-- abstraction -->
<g id="node6" class="node">
<title>abstraction</title>
<ellipse fill="#b2dfee" stroke="#b2dfee" cx="65.6442" cy="-90" rx="49.2915" ry="18"/>
<text text-anchor="middle" x="65.6442" y="-86.3" font-family="Times,serif" font-size="14.00" fill="#000000">abstraction</text>
</g>
<!-- attribute&#45;&gt;abstraction -->
<g id="edge5" class="edge">
<title>attribute&#45;&gt;abstraction</title>
<path fill="none" stroke="#000000" d="M65.6442,-143.8314C65.6442,-136.131 65.6442,-126.9743 65.6442,-118.4166"/>
<polygon fill="#000000" stroke="#000000" points="69.1443,-118.4132 65.6442,-108.4133 62.1443,-118.4133 69.1443,-118.4132"/>
</g>
<!-- entity -->
<g id="node7" class="node">
<title>entity</title>
<ellipse fill="#b2dfee" stroke="#b2dfee" cx="65.6442" cy="-18" rx="30.5947" ry="18"/>
<text text-anchor="middle" x="65.6442" y="-14.3" font-family="Times,serif" font-size="14.00" fill="#000000">entity</text>
</g>
<!-- abstraction&#45;&gt;entity -->
<g id="edge6" class="edge">
<title>abstraction&#45;&gt;entity</title>
<path fill="none" stroke="#000000" d="M65.6442,-71.8314C65.6442,-64.131 65.6442,-54.9743 65.6442,-46.4166"/>
<polygon fill="#000000" stroke="#000000" points="69.1443,-46.4132 65.6442,-36.4133 62.1443,-46.4133 69.1443,-46.4132"/>
</g>
</g>
</svg>
