<?xml version="1.0" encoding="UTF-8" standalone="no"?>
<!DOCTYPE svg PUBLIC "-//W3C//DTD SVG 1.1//EN"
 "http://www.w3.org/Graphics/SVG/1.1/DTD/svg11.dtd">
<!-- Generated by graphviz version 2.40.1 (20161225.0304)
 -->
<!-- Title: unix Pages: 1 -->
<svg width="124pt" height="404pt"
 viewBox="0.00 0.00 123.69 404.00" xmlns="http://www.w3.org/2000/svg" xmlns:xlink="http://www.w3.org/1999/xlink">
<g id="graph0" class="graph" transform="scale(1 1) rotate(0) translate(4 400)">
<title>unix</title>
<polygon fill="#ffffff" stroke="transparent" points="-4,4 -4,-400 119.6897,-400 119.6897,4 -4,4"/>
<!-- delay -->
<g id="node1" class="node">
<title>delay</title>
<ellipse fill="#b2dfee" stroke="#b2dfee" cx="57.8449" cy="-378" rx="29.795" ry="18"/>
<text text-anchor="middle" x="57.8449" y="-374.3" font-family="Times,serif" font-size="14.00" fill="#000000">delay</text>
</g>
<!-- pause -->
<g id="node2" class="node">
<title>pause</title>
<ellipse fill="#b2dfee" stroke="#b2dfee" cx="57.8449" cy="-306" rx="30.5947" ry="18"/>
<text text-anchor="middle" x="57.8449" y="-302.3" font-family="Times,serif" font-size="14.00" fill="#000000">pause</text>
</g>
<!-- delay&#45;&gt;pause -->
<g id="edge1" class="edge">
<title>delay&#45;&gt;pause</title>
<path fill="none" stroke="#000000" d="M57.8449,-359.8314C57.8449,-352.131 57.8449,-342.9743 57.8449,-334.4166"/>
<polygon fill="#000000" stroke="#000000" points="61.345,-334.4132 57.8449,-324.4133 54.345,-334.4133 61.345,-334.4132"/>
</g>
<!-- time_interval -->
<g id="node3" class="node">
<title>time_interval</title>
<ellipse fill="#b2dfee" stroke="#b2dfee" cx="57.8449" cy="-234" rx="57.6901" ry="18"/>
<text text-anchor="middle" x="57.8449" y="-230.3" font-family="Times,serif" font-size="14.00" fill="#000000">time_interval</text>
</g>
<!-- pause&#45;&gt;time_interval -->
<g id="edge2" class="edge">
<title>pause&#45;&gt;time_interval</title>
<path fill="none" stroke="#000000" d="M57.8449,-287.8314C57.8449,-280.131 57.8449,-270.9743 57.8449,-262.4166"/>
<polygon fill="#000000" stroke="#000000" points="61.345,-262.4132 57.8449,-252.4133 54.345,-262.4133 61.345,-262.4132"/>
</g>
<!-- measure -->
<g id="node4" class="node">
<title>measure</title>
<ellipse fill="#b2dfee" stroke="#b2dfee" cx="57.8449" cy="-162" rx="40.0939" ry="18"/>
<text text-anchor="middle" x="57.8449" y="-158.3" font-family="Times,serif" font-size="14.00" fill="#000000">measure</text>
</g>
<!-- time_interval&#45;&gt;measure -->
<g id="edge3" class="edge">
<title>time_interval&#45;&gt;measure</title>
<path fill="none" stroke="#000000" d="M57.8449,-215.8314C57.8449,-208.131 57.8449,-198.9743 57.8449,-190.4166"/>
<polygon fill="#000000" stroke="#000000" points="61.345,-190.4132 57.8449,-180.4133 54.345,-190.4133 61.345,-190.4132"/>
</g>
<!-- abstraction -->
<g id="node5" class="node">
<title>abstraction</title>
<ellipse fill="#b2dfee" stroke="#b2dfee" cx="57.8449" cy="-90" rx="49.2915" ry="18"/>
<text text-anchor="middle" x="57.8449" y="-86.3" font-family="Times,serif" font-size="14.00" fill="#000000">abstraction</text>
</g>
<!-- measure&#45;&gt;abstraction -->
<g id="edge4" class="edge">
<title>measure&#45;&gt;abstraction</title>
<path fill="none" stroke="#000000" d="M57.8449,-143.8314C57.8449,-136.131 57.8449,-126.9743 57.8449,-118.4166"/>
<polygon fill="#000000" stroke="#000000" points="61.345,-118.4132 57.8449,-108.4133 54.345,-118.4133 61.345,-118.4132"/>
</g>
<!-- entity -->
<g id="node6" class="node">
<title>entity</title>
<ellipse fill="#b2dfee" stroke="#b2dfee" cx="57.8449" cy="-18" rx="30.5947" ry="18"/>
<text text-anchor="middle" x="57.8449" y="-14.3" font-family="Times,serif" font-size="14.00" fill="#000000">entity</text>
</g>
<!-- abstraction&#45;&gt;entity -->
<g id="edge5" class="edge">
<title>abstraction&#45;&gt;entity</title>
<path fill="none" stroke="#000000" d="M57.8449,-71.8314C57.8449,-64.131 57.8449,-54.9743 57.8449,-46.4166"/>
<polygon fill="#000000" stroke="#000000" points="61.345,-46.4132 57.8449,-36.4133 54.345,-46.4133 61.345,-46.4132"/>
</g>
</g>
</svg>
