<?xml version="1.0" encoding="UTF-8" standalone="no"?>
<!DOCTYPE svg PUBLIC "-//W3C//DTD SVG 1.1//EN"
 "http://www.w3.org/Graphics/SVG/1.1/DTD/svg11.dtd">
<!-- Generated by graphviz version 2.40.1 (20161225.0304)
 -->
<!-- Title: unix Pages: 1 -->
<svg width="131pt" height="432pt"
 viewBox="0.00 0.00 131.32 432.00" xmlns="http://www.w3.org/2000/svg" xmlns:xlink="http://www.w3.org/1999/xlink">
<g id="graph0" class="graph" transform="scale(.7883 .7883) rotate(0) translate(4 544)">
<title>unix</title>
<polygon fill="#ffffff" stroke="transparent" points="-4,4 -4,-544 162.5859,-544 162.5859,4 -4,4"/>
<!-- privation -->
<g id="node1" class="node">
<title>privation</title>
<ellipse fill="#b2dfee" stroke="#b2dfee" cx="79.293" cy="-522" rx="42.4939" ry="18"/>
<text text-anchor="middle" x="79.293" y="-518.3" font-family="Times,serif" font-size="14.00" fill="#000000">privation</text>
</g>
<!-- poverty -->
<g id="node2" class="node">
<title>poverty</title>
<ellipse fill="#b2dfee" stroke="#b2dfee" cx="79.293" cy="-450" rx="37.8943" ry="18"/>
<text text-anchor="middle" x="79.293" y="-446.3" font-family="Times,serif" font-size="14.00" fill="#000000">poverty</text>
</g>
<!-- privation&#45;&gt;poverty -->
<g id="edge1" class="edge">
<title>privation&#45;&gt;poverty</title>
<path fill="none" stroke="#000000" d="M79.293,-503.8314C79.293,-496.131 79.293,-486.9743 79.293,-478.4166"/>
<polygon fill="#000000" stroke="#000000" points="82.7931,-478.4132 79.293,-468.4133 75.7931,-478.4133 82.7931,-478.4132"/>
</g>
<!-- financial_condition -->
<g id="node3" class="node">
<title>financial_condition</title>
<ellipse fill="#b2dfee" stroke="#b2dfee" cx="79.293" cy="-378" rx="79.0865" ry="18"/>
<text text-anchor="middle" x="79.293" y="-374.3" font-family="Times,serif" font-size="14.00" fill="#000000">financial_condition</text>
</g>
<!-- poverty&#45;&gt;financial_condition -->
<g id="edge2" class="edge">
<title>poverty&#45;&gt;financial_condition</title>
<path fill="none" stroke="#000000" d="M79.293,-431.8314C79.293,-424.131 79.293,-414.9743 79.293,-406.4166"/>
<polygon fill="#000000" stroke="#000000" points="82.7931,-406.4132 79.293,-396.4133 75.7931,-406.4133 82.7931,-406.4132"/>
</g>
<!-- condition -->
<g id="node4" class="node">
<title>condition</title>
<ellipse fill="#b2dfee" stroke="#b2dfee" cx="79.293" cy="-306" rx="44.393" ry="18"/>
<text text-anchor="middle" x="79.293" y="-302.3" font-family="Times,serif" font-size="14.00" fill="#000000">condition</text>
</g>
<!-- financial_condition&#45;&gt;condition -->
<g id="edge3" class="edge">
<title>financial_condition&#45;&gt;condition</title>
<path fill="none" stroke="#000000" d="M79.293,-359.8314C79.293,-352.131 79.293,-342.9743 79.293,-334.4166"/>
<polygon fill="#000000" stroke="#000000" points="82.7931,-334.4132 79.293,-324.4133 75.7931,-334.4133 82.7931,-334.4132"/>
</g>
<!-- state -->
<g id="node5" class="node">
<title>state</title>
<ellipse fill="#b2dfee" stroke="#b2dfee" cx="79.293" cy="-234" rx="27" ry="18"/>
<text text-anchor="middle" x="79.293" y="-230.3" font-family="Times,serif" font-size="14.00" fill="#000000">state</text>
</g>
<!-- condition&#45;&gt;state -->
<g id="edge4" class="edge">
<title>condition&#45;&gt;state</title>
<path fill="none" stroke="#000000" d="M79.293,-287.8314C79.293,-280.131 79.293,-270.9743 79.293,-262.4166"/>
<polygon fill="#000000" stroke="#000000" points="82.7931,-262.4132 79.293,-252.4133 75.7931,-262.4133 82.7931,-262.4132"/>
</g>
<!-- attribute -->
<g id="node6" class="node">
<title>attribute</title>
<ellipse fill="#b2dfee" stroke="#b2dfee" cx="79.293" cy="-162" rx="40.0939" ry="18"/>
<text text-anchor="middle" x="79.293" y="-158.3" font-family="Times,serif" font-size="14.00" fill="#000000">attribute</text>
</g>
<!-- state&#45;&gt;attribute -->
<g id="edge5" class="edge">
<title>state&#45;&gt;attribute</title>
<path fill="none" stroke="#000000" d="M79.293,-215.8314C79.293,-208.131 79.293,-198.9743 79.293,-190.4166"/>
<polygon fill="#000000" stroke="#000000" points="82.7931,-190.4132 79.293,-180.4133 75.7931,-190.4133 82.7931,-190.4132"/>
</g>
<!-- abstraction -->
<g id="node7" class="node">
<title>abstraction</title>
<ellipse fill="#b2dfee" stroke="#b2dfee" cx="79.293" cy="-90" rx="49.2915" ry="18"/>
<text text-anchor="middle" x="79.293" y="-86.3" font-family="Times,serif" font-size="14.00" fill="#000000">abstraction</text>
</g>
<!-- attribute&#45;&gt;abstraction -->
<g id="edge6" class="edge">
<title>attribute&#45;&gt;abstraction</title>
<path fill="none" stroke="#000000" d="M79.293,-143.8314C79.293,-136.131 79.293,-126.9743 79.293,-118.4166"/>
<polygon fill="#000000" stroke="#000000" points="82.7931,-118.4132 79.293,-108.4133 75.7931,-118.4133 82.7931,-118.4132"/>
</g>
<!-- entity -->
<g id="node8" class="node">
<title>entity</title>
<ellipse fill="#b2dfee" stroke="#b2dfee" cx="79.293" cy="-18" rx="30.5947" ry="18"/>
<text text-anchor="middle" x="79.293" y="-14.3" font-family="Times,serif" font-size="14.00" fill="#000000">entity</text>
</g>
<!-- abstraction&#45;&gt;entity -->
<g id="edge7" class="edge">
<title>abstraction&#45;&gt;entity</title>
<path fill="none" stroke="#000000" d="M79.293,-71.8314C79.293,-64.131 79.293,-54.9743 79.293,-46.4166"/>
<polygon fill="#000000" stroke="#000000" points="82.7931,-46.4132 79.293,-36.4133 75.7931,-46.4133 82.7931,-46.4132"/>
</g>
</g>
</svg>
