<?xml version="1.0" encoding="UTF-8" standalone="no"?>
<!DOCTYPE svg PUBLIC "-//W3C//DTD SVG 1.1//EN"
 "http://www.w3.org/Graphics/SVG/1.1/DTD/svg11.dtd">
<!-- Generated by graphviz version 2.40.1 (20161225.0304)
 -->
<!-- Title: unix Pages: 1 -->
<svg width="170pt" height="432pt"
 viewBox="0.00 0.00 169.80 432.00" xmlns="http://www.w3.org/2000/svg" xmlns:xlink="http://www.w3.org/1999/xlink">
<g id="graph0" class="graph" transform="scale(.6243 .6243) rotate(0) translate(4 688)">
<title>unix</title>
<polygon fill="#ffffff" stroke="transparent" points="-4,4 -4,-688 267.9919,-688 267.9919,4 -4,4"/>
<!-- wash -->
<g id="node1" class="node">
<title>wash</title>
<ellipse fill="#b2dfee" stroke="#b2dfee" cx="105.5963" cy="-666" rx="28.6953" ry="18"/>
<text text-anchor="middle" x="105.5963" y="-662.3" font-family="Times,serif" font-size="14.00" fill="#000000">wash</text>
</g>
<!-- water&#45;base_paint -->
<g id="node2" class="node">
<title>water&#45;base_paint</title>
<ellipse fill="#b2dfee" stroke="#b2dfee" cx="105.5963" cy="-594" rx="70.6878" ry="18"/>
<text text-anchor="middle" x="105.5963" y="-590.3" font-family="Times,serif" font-size="14.00" fill="#000000">water&#45;base_paint</text>
</g>
<!-- wash&#45;&gt;water&#45;base_paint -->
<g id="edge1" class="edge">
<title>wash&#45;&gt;water&#45;base_paint</title>
<path fill="none" stroke="#000000" d="M105.5963,-647.8314C105.5963,-640.131 105.5963,-630.9743 105.5963,-622.4166"/>
<polygon fill="#000000" stroke="#000000" points="109.0964,-622.4132 105.5963,-612.4133 102.0964,-622.4133 109.0964,-622.4132"/>
</g>
<!-- paint -->
<g id="node3" class="node">
<title>paint</title>
<ellipse fill="#b2dfee" stroke="#b2dfee" cx="105.5963" cy="-522" rx="28.6953" ry="18"/>
<text text-anchor="middle" x="105.5963" y="-518.3" font-family="Times,serif" font-size="14.00" fill="#000000">paint</text>
</g>
<!-- water&#45;base_paint&#45;&gt;paint -->
<g id="edge2" class="edge">
<title>water&#45;base_paint&#45;&gt;paint</title>
<path fill="none" stroke="#000000" d="M105.5963,-575.8314C105.5963,-568.131 105.5963,-558.9743 105.5963,-550.4166"/>
<polygon fill="#000000" stroke="#000000" points="109.0964,-550.4132 105.5963,-540.4133 102.0964,-550.4133 109.0964,-550.4132"/>
</g>
<!-- coating -->
<g id="node4" class="node">
<title>coating</title>
<ellipse fill="#b2dfee" stroke="#b2dfee" cx="41.5963" cy="-450" rx="36.2938" ry="18"/>
<text text-anchor="middle" x="41.5963" y="-446.3" font-family="Times,serif" font-size="14.00" fill="#000000">coating</text>
</g>
<!-- paint&#45;&gt;coating -->
<g id="edge3" class="edge">
<title>paint&#45;&gt;coating</title>
<path fill="none" stroke="#000000" d="M91.3926,-506.0209C83.1171,-496.7109 72.5133,-484.7817 63.2192,-474.3258"/>
<polygon fill="#000000" stroke="#000000" points="65.6871,-471.8339 56.4275,-466.6851 60.4552,-476.4845 65.6871,-471.8339"/>
</g>
<!-- coloring_material -->
<g id="node11" class="node">
<title>coloring_material</title>
<ellipse fill="#b2dfee" stroke="#b2dfee" cx="169.5963" cy="-450" rx="73.387" ry="18"/>
<text text-anchor="middle" x="169.5963" y="-446.3" font-family="Times,serif" font-size="14.00" fill="#000000">coloring_material</text>
</g>
<!-- paint&#45;&gt;coloring_material -->
<g id="edge10" class="edge">
<title>paint&#45;&gt;coloring_material</title>
<path fill="none" stroke="#000000" d="M119.8,-506.0209C127.8407,-496.975 138.0795,-485.4564 147.1793,-475.2191"/>
<polygon fill="#000000" stroke="#000000" points="149.833,-477.5019 153.8607,-467.7025 144.6011,-472.8513 149.833,-477.5019"/>
</g>
<!-- covering -->
<g id="node5" class="node">
<title>covering</title>
<ellipse fill="#b2dfee" stroke="#b2dfee" cx="41.5963" cy="-378" rx="41.6928" ry="18"/>
<text text-anchor="middle" x="41.5963" y="-374.3" font-family="Times,serif" font-size="14.00" fill="#000000">covering</text>
</g>
<!-- coating&#45;&gt;covering -->
<g id="edge4" class="edge">
<title>coating&#45;&gt;covering</title>
<path fill="none" stroke="#000000" d="M41.5963,-431.8314C41.5963,-424.131 41.5963,-414.9743 41.5963,-406.4166"/>
<polygon fill="#000000" stroke="#000000" points="45.0964,-406.4132 41.5963,-396.4133 38.0964,-406.4133 45.0964,-406.4132"/>
</g>
<!-- artifact -->
<g id="node6" class="node">
<title>artifact</title>
<ellipse fill="#b2dfee" stroke="#b2dfee" cx="41.5963" cy="-306" rx="35.9954" ry="18"/>
<text text-anchor="middle" x="41.5963" y="-302.3" font-family="Times,serif" font-size="14.00" fill="#000000">artifact</text>
</g>
<!-- covering&#45;&gt;artifact -->
<g id="edge5" class="edge">
<title>covering&#45;&gt;artifact</title>
<path fill="none" stroke="#000000" d="M41.5963,-359.8314C41.5963,-352.131 41.5963,-342.9743 41.5963,-334.4166"/>
<polygon fill="#000000" stroke="#000000" points="45.0964,-334.4132 41.5963,-324.4133 38.0964,-334.4133 45.0964,-334.4132"/>
</g>
<!-- whole -->
<g id="node7" class="node">
<title>whole</title>
<ellipse fill="#b2dfee" stroke="#b2dfee" cx="41.5963" cy="-234" rx="32.4942" ry="18"/>
<text text-anchor="middle" x="41.5963" y="-230.3" font-family="Times,serif" font-size="14.00" fill="#000000">whole</text>
</g>
<!-- artifact&#45;&gt;whole -->
<g id="edge6" class="edge">
<title>artifact&#45;&gt;whole</title>
<path fill="none" stroke="#000000" d="M41.5963,-287.8314C41.5963,-280.131 41.5963,-270.9743 41.5963,-262.4166"/>
<polygon fill="#000000" stroke="#000000" points="45.0964,-262.4132 41.5963,-252.4133 38.0964,-262.4133 45.0964,-262.4132"/>
</g>
<!-- object -->
<g id="node8" class="node">
<title>object</title>
<ellipse fill="#b2dfee" stroke="#b2dfee" cx="41.5963" cy="-162" rx="32.4942" ry="18"/>
<text text-anchor="middle" x="41.5963" y="-158.3" font-family="Times,serif" font-size="14.00" fill="#000000">object</text>
</g>
<!-- whole&#45;&gt;object -->
<g id="edge7" class="edge">
<title>whole&#45;&gt;object</title>
<path fill="none" stroke="#000000" d="M41.5963,-215.8314C41.5963,-208.131 41.5963,-198.9743 41.5963,-190.4166"/>
<polygon fill="#000000" stroke="#000000" points="45.0964,-190.4132 41.5963,-180.4133 38.0964,-190.4133 45.0964,-190.4132"/>
</g>
<!-- physical_entity -->
<g id="node9" class="node">
<title>physical_entity</title>
<ellipse fill="#b2dfee" stroke="#b2dfee" cx="82.5963" cy="-90" rx="64.189" ry="18"/>
<text text-anchor="middle" x="82.5963" y="-86.3" font-family="Times,serif" font-size="14.00" fill="#000000">physical_entity</text>
</g>
<!-- object&#45;&gt;physical_entity -->
<g id="edge8" class="edge">
<title>object&#45;&gt;physical_entity</title>
<path fill="none" stroke="#000000" d="M51.5213,-144.5708C56.2493,-136.2679 62.0108,-126.1502 67.2825,-116.8925"/>
<polygon fill="#000000" stroke="#000000" points="70.4276,-118.4424 72.3346,-108.0206 64.3447,-114.9785 70.4276,-118.4424"/>
</g>
<!-- entity -->
<g id="node10" class="node">
<title>entity</title>
<ellipse fill="#b2dfee" stroke="#b2dfee" cx="148.5963" cy="-18" rx="30.5947" ry="18"/>
<text text-anchor="middle" x="148.5963" y="-14.3" font-family="Times,serif" font-size="14.00" fill="#000000">entity</text>
</g>
<!-- physical_entity&#45;&gt;entity -->
<g id="edge9" class="edge">
<title>physical_entity&#45;&gt;entity</title>
<path fill="none" stroke="#000000" d="M98.9109,-72.2022C107.3447,-63.0017 117.7517,-51.6487 126.8584,-41.7141"/>
<polygon fill="#000000" stroke="#000000" points="129.6433,-43.8556 133.8206,-34.119 124.4833,-39.1255 129.6433,-43.8556"/>
</g>
<!-- material -->
<g id="node12" class="node">
<title>material</title>
<ellipse fill="#b2dfee" stroke="#b2dfee" cx="169.5963" cy="-378" rx="40.0939" ry="18"/>
<text text-anchor="middle" x="169.5963" y="-374.3" font-family="Times,serif" font-size="14.00" fill="#000000">material</text>
</g>
<!-- coloring_material&#45;&gt;material -->
<g id="edge11" class="edge">
<title>coloring_material&#45;&gt;material</title>
<path fill="none" stroke="#000000" d="M169.5963,-431.8314C169.5963,-424.131 169.5963,-414.9743 169.5963,-406.4166"/>
<polygon fill="#000000" stroke="#000000" points="173.0964,-406.4132 169.5963,-396.4133 166.0964,-406.4133 173.0964,-406.4132"/>
</g>
<!-- substance -->
<g id="node13" class="node">
<title>substance</title>
<ellipse fill="#b2dfee" stroke="#b2dfee" cx="169.5963" cy="-306" rx="44.6926" ry="18"/>
<text text-anchor="middle" x="169.5963" y="-302.3" font-family="Times,serif" font-size="14.00" fill="#000000">substance</text>
</g>
<!-- material&#45;&gt;substance -->
<g id="edge12" class="edge">
<title>material&#45;&gt;substance</title>
<path fill="none" stroke="#000000" d="M169.5963,-359.8314C169.5963,-352.131 169.5963,-342.9743 169.5963,-334.4166"/>
<polygon fill="#000000" stroke="#000000" points="173.0964,-334.4132 169.5963,-324.4133 166.0964,-334.4133 173.0964,-334.4132"/>
</g>
<!-- matter -->
<g id="node14" class="node">
<title>matter</title>
<ellipse fill="#b2dfee" stroke="#b2dfee" cx="125.5963" cy="-162" rx="33.5952" ry="18"/>
<text text-anchor="middle" x="125.5963" y="-158.3" font-family="Times,serif" font-size="14.00" fill="#000000">matter</text>
</g>
<!-- substance&#45;&gt;matter -->
<g id="edge13" class="edge">
<title>substance&#45;&gt;matter</title>
<path fill="none" stroke="#000000" d="M164.1126,-288.0535C156.6033,-263.4774 143.0438,-219.1008 134.1816,-190.0974"/>
<polygon fill="#000000" stroke="#000000" points="137.4186,-188.7134 131.1491,-180.1727 130.7241,-190.759 137.4186,-188.7134"/>
</g>
<!-- part -->
<g id="node15" class="node">
<title>part</title>
<ellipse fill="#b2dfee" stroke="#b2dfee" cx="205.5963" cy="-234" rx="27" ry="18"/>
<text text-anchor="middle" x="205.5963" y="-230.3" font-family="Times,serif" font-size="14.00" fill="#000000">part</text>
</g>
<!-- substance&#45;&gt;part -->
<g id="edge15" class="edge">
<title>substance&#45;&gt;part</title>
<path fill="none" stroke="#000000" d="M178.4952,-288.2022C182.6985,-279.7955 187.8004,-269.5917 192.4389,-260.3149"/>
<polygon fill="#000000" stroke="#000000" points="195.706,-261.6068 197.0477,-251.0972 189.445,-258.4762 195.706,-261.6068"/>
</g>
<!-- matter&#45;&gt;physical_entity -->
<g id="edge14" class="edge">
<title>matter&#45;&gt;physical_entity</title>
<path fill="none" stroke="#000000" d="M115.1872,-144.5708C110.1392,-136.1184 103.968,-125.7851 98.3588,-116.3931"/>
<polygon fill="#000000" stroke="#000000" points="101.3406,-114.5597 93.2083,-107.7689 95.3308,-118.1489 101.3406,-114.5597"/>
</g>
<!-- relation -->
<g id="node16" class="node">
<title>relation</title>
<ellipse fill="#b2dfee" stroke="#b2dfee" cx="214.5963" cy="-162" rx="37.8943" ry="18"/>
<text text-anchor="middle" x="214.5963" y="-158.3" font-family="Times,serif" font-size="14.00" fill="#000000">relation</text>
</g>
<!-- part&#45;&gt;relation -->
<g id="edge16" class="edge">
<title>part&#45;&gt;relation</title>
<path fill="none" stroke="#000000" d="M207.8674,-215.8314C208.8299,-208.131 209.9745,-198.9743 211.0442,-190.4166"/>
<polygon fill="#000000" stroke="#000000" points="214.5272,-190.7702 212.2947,-180.4133 207.5812,-189.9019 214.5272,-190.7702"/>
</g>
<!-- abstraction -->
<g id="node17" class="node">
<title>abstraction</title>
<ellipse fill="#b2dfee" stroke="#b2dfee" cx="214.5963" cy="-90" rx="49.2915" ry="18"/>
<text text-anchor="middle" x="214.5963" y="-86.3" font-family="Times,serif" font-size="14.00" fill="#000000">abstraction</text>
</g>
<!-- relation&#45;&gt;abstraction -->
<g id="edge17" class="edge">
<title>relation&#45;&gt;abstraction</title>
<path fill="none" stroke="#000000" d="M214.5963,-143.8314C214.5963,-136.131 214.5963,-126.9743 214.5963,-118.4166"/>
<polygon fill="#000000" stroke="#000000" points="218.0964,-118.4132 214.5963,-108.4133 211.0964,-118.4133 218.0964,-118.4132"/>
</g>
<!-- abstraction&#45;&gt;entity -->
<g id="edge18" class="edge">
<title>abstraction&#45;&gt;entity</title>
<path fill="none" stroke="#000000" d="M198.6196,-72.5708C190.1907,-63.3758 179.7216,-51.9548 170.5425,-41.9413"/>
<polygon fill="#000000" stroke="#000000" points="172.8585,-39.2882 163.5212,-34.2817 167.6984,-44.0183 172.8585,-39.2882"/>
</g>
</g>
</svg>
