<?xml version="1.0" encoding="UTF-8" standalone="no"?>
<!DOCTYPE svg PUBLIC "-//W3C//DTD SVG 1.1//EN"
 "http://www.w3.org/Graphics/SVG/1.1/DTD/svg11.dtd">
<!-- Generated by graphviz version 2.40.1 (20161225.0304)
 -->
<!-- Title: unix Pages: 1 -->
<svg width="159pt" height="432pt"
 viewBox="0.00 0.00 159.03 432.00" xmlns="http://www.w3.org/2000/svg" xmlns:xlink="http://www.w3.org/1999/xlink">
<g id="graph0" class="graph" transform="scale(.6243 .6243) rotate(0) translate(4 688)">
<title>unix</title>
<polygon fill="#ffffff" stroke="transparent" points="-4,4 -4,-688 250.7376,-688 250.7376,4 -4,4"/>
<!-- water -->
<g id="node1" class="node">
<title>water</title>
<ellipse fill="#b2dfee" stroke="#b2dfee" cx="126.3933" cy="-666" rx="30.5947" ry="18"/>
<text text-anchor="middle" x="126.3933" y="-662.3" font-family="Times,serif" font-size="14.00" fill="#000000">water</text>
</g>
<!-- binary_compound -->
<g id="node2" class="node">
<title>binary_compound</title>
<ellipse fill="#b2dfee" stroke="#b2dfee" cx="75.3933" cy="-594" rx="75.2868" ry="18"/>
<text text-anchor="middle" x="75.3933" y="-590.3" font-family="Times,serif" font-size="14.00" fill="#000000">binary_compound</text>
</g>
<!-- water&#45;&gt;binary_compound -->
<g id="edge1" class="edge">
<title>water&#45;&gt;binary_compound</title>
<path fill="none" stroke="#000000" d="M114.5647,-649.3008C108.4198,-640.6256 100.7711,-629.8275 93.8676,-620.0813"/>
<polygon fill="#000000" stroke="#000000" points="96.6855,-618.0043 88.0492,-611.8671 90.9733,-622.0505 96.6855,-618.0043"/>
</g>
<!-- liquid -->
<g id="node13" class="node">
<title>liquid</title>
<ellipse fill="#b2dfee" stroke="#b2dfee" cx="178.3933" cy="-522" rx="31.3957" ry="18"/>
<text text-anchor="middle" x="178.3933" y="-518.3" font-family="Times,serif" font-size="14.00" fill="#000000">liquid</text>
</g>
<!-- water&#45;&gt;liquid -->
<g id="edge13" class="edge">
<title>water&#45;&gt;liquid</title>
<path fill="none" stroke="#000000" d="M138.6728,-649.279C145.6905,-638.9909 154.1179,-625.2732 159.3933,-612 167.3315,-592.0271 172.1744,-568.1798 174.9826,-550.0522"/>
<polygon fill="#000000" stroke="#000000" points="178.4529,-550.5081 176.4089,-540.1123 171.5239,-549.5138 178.4529,-550.5081"/>
</g>
<!-- compound -->
<g id="node3" class="node">
<title>compound</title>
<ellipse fill="#b2dfee" stroke="#b2dfee" cx="75.3933" cy="-522" rx="48.1917" ry="18"/>
<text text-anchor="middle" x="75.3933" y="-518.3" font-family="Times,serif" font-size="14.00" fill="#000000">compound</text>
</g>
<!-- binary_compound&#45;&gt;compound -->
<g id="edge2" class="edge">
<title>binary_compound&#45;&gt;compound</title>
<path fill="none" stroke="#000000" d="M75.3933,-575.8314C75.3933,-568.131 75.3933,-558.9743 75.3933,-550.4166"/>
<polygon fill="#000000" stroke="#000000" points="78.8934,-550.4132 75.3933,-540.4133 71.8934,-550.4133 78.8934,-550.4132"/>
</g>
<!-- chemical -->
<g id="node4" class="node">
<title>chemical</title>
<ellipse fill="#b2dfee" stroke="#b2dfee" cx="75.3933" cy="-450" rx="42.7926" ry="18"/>
<text text-anchor="middle" x="75.3933" y="-446.3" font-family="Times,serif" font-size="14.00" fill="#000000">chemical</text>
</g>
<!-- compound&#45;&gt;chemical -->
<g id="edge3" class="edge">
<title>compound&#45;&gt;chemical</title>
<path fill="none" stroke="#000000" d="M75.3933,-503.8314C75.3933,-496.131 75.3933,-486.9743 75.3933,-478.4166"/>
<polygon fill="#000000" stroke="#000000" points="78.8934,-478.4132 75.3933,-468.4133 71.8934,-478.4133 78.8934,-478.4132"/>
</g>
<!-- material -->
<g id="node5" class="node">
<title>material</title>
<ellipse fill="#b2dfee" stroke="#b2dfee" cx="75.3933" cy="-378" rx="40.0939" ry="18"/>
<text text-anchor="middle" x="75.3933" y="-374.3" font-family="Times,serif" font-size="14.00" fill="#000000">material</text>
</g>
<!-- chemical&#45;&gt;material -->
<g id="edge4" class="edge">
<title>chemical&#45;&gt;material</title>
<path fill="none" stroke="#000000" d="M75.3933,-431.8314C75.3933,-424.131 75.3933,-414.9743 75.3933,-406.4166"/>
<polygon fill="#000000" stroke="#000000" points="78.8934,-406.4132 75.3933,-396.4133 71.8934,-406.4133 78.8934,-406.4132"/>
</g>
<!-- substance -->
<g id="node6" class="node">
<title>substance</title>
<ellipse fill="#b2dfee" stroke="#b2dfee" cx="75.3933" cy="-306" rx="44.6926" ry="18"/>
<text text-anchor="middle" x="75.3933" y="-302.3" font-family="Times,serif" font-size="14.00" fill="#000000">substance</text>
</g>
<!-- material&#45;&gt;substance -->
<g id="edge5" class="edge">
<title>material&#45;&gt;substance</title>
<path fill="none" stroke="#000000" d="M75.3933,-359.8314C75.3933,-352.131 75.3933,-342.9743 75.3933,-334.4166"/>
<polygon fill="#000000" stroke="#000000" points="78.8934,-334.4132 75.3933,-324.4133 71.8934,-334.4133 78.8934,-334.4132"/>
</g>
<!-- matter -->
<g id="node7" class="node">
<title>matter</title>
<ellipse fill="#b2dfee" stroke="#b2dfee" cx="178.3933" cy="-234" rx="33.5952" ry="18"/>
<text text-anchor="middle" x="178.3933" y="-230.3" font-family="Times,serif" font-size="14.00" fill="#000000">matter</text>
</g>
<!-- substance&#45;&gt;matter -->
<g id="edge6" class="edge">
<title>substance&#45;&gt;matter</title>
<path fill="none" stroke="#000000" d="M97.7428,-290.3771C112.8191,-279.8383 132.865,-265.8256 149.1998,-254.4071"/>
<polygon fill="#000000" stroke="#000000" points="151.647,-256.9669 157.8378,-248.3689 147.6365,-251.2296 151.647,-256.9669"/>
</g>
<!-- part -->
<g id="node10" class="node">
<title>part</title>
<ellipse fill="#b2dfee" stroke="#b2dfee" cx="68.3933" cy="-234" rx="27" ry="18"/>
<text text-anchor="middle" x="68.3933" y="-230.3" font-family="Times,serif" font-size="14.00" fill="#000000">part</text>
</g>
<!-- substance&#45;&gt;part -->
<g id="edge9" class="edge">
<title>substance&#45;&gt;part</title>
<path fill="none" stroke="#000000" d="M73.6269,-287.8314C72.8783,-280.131 71.988,-270.9743 71.156,-262.4166"/>
<polygon fill="#000000" stroke="#000000" points="74.6348,-262.0276 70.1835,-252.4133 67.6677,-262.7051 74.6348,-262.0276"/>
</g>
<!-- physical_entity -->
<g id="node8" class="node">
<title>physical_entity</title>
<ellipse fill="#b2dfee" stroke="#b2dfee" cx="182.3933" cy="-90" rx="64.189" ry="18"/>
<text text-anchor="middle" x="182.3933" y="-86.3" font-family="Times,serif" font-size="14.00" fill="#000000">physical_entity</text>
</g>
<!-- matter&#45;&gt;physical_entity -->
<g id="edge7" class="edge">
<title>matter&#45;&gt;physical_entity</title>
<path fill="none" stroke="#000000" d="M178.8999,-215.7623C179.5822,-191.201 180.8031,-147.2474 181.6057,-118.3541"/>
<polygon fill="#000000" stroke="#000000" points="185.1117,-118.183 181.8908,-108.0896 178.1144,-117.9885 185.1117,-118.183"/>
</g>
<!-- entity -->
<g id="node9" class="node">
<title>entity</title>
<ellipse fill="#b2dfee" stroke="#b2dfee" cx="116.3933" cy="-18" rx="30.5947" ry="18"/>
<text text-anchor="middle" x="116.3933" y="-14.3" font-family="Times,serif" font-size="14.00" fill="#000000">entity</text>
</g>
<!-- physical_entity&#45;&gt;entity -->
<g id="edge8" class="edge">
<title>physical_entity&#45;&gt;entity</title>
<path fill="none" stroke="#000000" d="M166.0787,-72.2022C157.6449,-63.0017 147.2379,-51.6487 138.1312,-41.7141"/>
<polygon fill="#000000" stroke="#000000" points="140.5064,-39.1255 131.169,-34.119 135.3463,-43.8556 140.5064,-39.1255"/>
</g>
<!-- relation -->
<g id="node11" class="node">
<title>relation</title>
<ellipse fill="#b2dfee" stroke="#b2dfee" cx="54.3933" cy="-162" rx="37.8943" ry="18"/>
<text text-anchor="middle" x="54.3933" y="-158.3" font-family="Times,serif" font-size="14.00" fill="#000000">relation</text>
</g>
<!-- part&#45;&gt;relation -->
<g id="edge10" class="edge">
<title>part&#45;&gt;relation</title>
<path fill="none" stroke="#000000" d="M64.8605,-215.8314C63.3632,-208.131 61.5828,-198.9743 59.9188,-190.4166"/>
<polygon fill="#000000" stroke="#000000" points="63.3181,-189.5614 57.9737,-180.4133 56.4468,-190.8975 63.3181,-189.5614"/>
</g>
<!-- abstraction -->
<g id="node12" class="node">
<title>abstraction</title>
<ellipse fill="#b2dfee" stroke="#b2dfee" cx="50.3933" cy="-90" rx="49.2915" ry="18"/>
<text text-anchor="middle" x="50.3933" y="-86.3" font-family="Times,serif" font-size="14.00" fill="#000000">abstraction</text>
</g>
<!-- relation&#45;&gt;abstraction -->
<g id="edge11" class="edge">
<title>relation&#45;&gt;abstraction</title>
<path fill="none" stroke="#000000" d="M53.3839,-143.8314C52.9561,-136.131 52.4474,-126.9743 51.972,-118.4166"/>
<polygon fill="#000000" stroke="#000000" points="55.4657,-118.2037 51.4163,-108.4133 48.4765,-118.592 55.4657,-118.2037"/>
</g>
<!-- abstraction&#45;&gt;entity -->
<g id="edge12" class="edge">
<title>abstraction&#45;&gt;entity</title>
<path fill="none" stroke="#000000" d="M66.3701,-72.5708C74.7989,-63.3758 85.268,-51.9548 94.4472,-41.9413"/>
<polygon fill="#000000" stroke="#000000" points="97.2912,-44.0183 101.4684,-34.2817 92.1311,-39.2882 97.2912,-44.0183"/>
</g>
<!-- fluid -->
<g id="node14" class="node">
<title>fluid</title>
<ellipse fill="#b2dfee" stroke="#b2dfee" cx="178.3933" cy="-450" rx="27.0966" ry="18"/>
<text text-anchor="middle" x="178.3933" y="-446.3" font-family="Times,serif" font-size="14.00" fill="#000000">fluid</text>
</g>
<!-- liquid&#45;&gt;fluid -->
<g id="edge14" class="edge">
<title>liquid&#45;&gt;fluid</title>
<path fill="none" stroke="#000000" d="M178.3933,-503.8314C178.3933,-496.131 178.3933,-486.9743 178.3933,-478.4166"/>
<polygon fill="#000000" stroke="#000000" points="181.8934,-478.4132 178.3933,-468.4133 174.8934,-478.4133 181.8934,-478.4132"/>
</g>
<!-- fluid&#45;&gt;matter -->
<g id="edge15" class="edge">
<title>fluid&#45;&gt;matter</title>
<path fill="none" stroke="#000000" d="M178.3933,-431.9555C178.3933,-394.3938 178.3933,-307.5541 178.3933,-262.4103"/>
<polygon fill="#000000" stroke="#000000" points="181.8934,-262.145 178.3933,-252.1451 174.8934,-262.1451 181.8934,-262.145"/>
</g>
</g>
</svg>
