<?xml version="1.0" encoding="UTF-8" standalone="no"?>
<!DOCTYPE svg PUBLIC "-//W3C//DTD SVG 1.1//EN"
 "http://www.w3.org/Graphics/SVG/1.1/DTD/svg11.dtd">
<!-- Generated by graphviz version 2.40.1 (20161225.0304)
 -->
<!-- Title: unix Pages: 1 -->
<svg width="83pt" height="432pt"
 viewBox="0.00 0.00 83.47 432.00" xmlns="http://www.w3.org/2000/svg" xmlns:xlink="http://www.w3.org/1999/xlink">
<g id="graph0" class="graph" transform="scale(.6968 .6968) rotate(0) translate(4 616)">
<title>unix</title>
<polygon fill="#ffffff" stroke="transparent" points="-4,4 -4,-616 115.7901,-616 115.7901,4 -4,4"/>
<!-- wear -->
<g id="node1" class="node">
<title>wear</title>
<ellipse fill="#b2dfee" stroke="#b2dfee" cx="55.895" cy="-594" rx="27.8951" ry="18"/>
<text text-anchor="middle" x="55.895" y="-590.3" font-family="Times,serif" font-size="14.00" fill="#000000">wear</text>
</g>
<!-- deterioration -->
<g id="node2" class="node">
<title>deterioration</title>
<ellipse fill="#b2dfee" stroke="#b2dfee" cx="55.895" cy="-522" rx="55.7903" ry="18"/>
<text text-anchor="middle" x="55.895" y="-518.3" font-family="Times,serif" font-size="14.00" fill="#000000">deterioration</text>
</g>
<!-- wear&#45;&gt;deterioration -->
<g id="edge1" class="edge">
<title>wear&#45;&gt;deterioration</title>
<path fill="none" stroke="#000000" d="M55.895,-575.8314C55.895,-568.131 55.895,-558.9743 55.895,-550.4166"/>
<polygon fill="#000000" stroke="#000000" points="59.3951,-550.4132 55.895,-540.4133 52.3951,-550.4133 59.3951,-550.4132"/>
</g>
<!-- decay -->
<g id="node3" class="node">
<title>decay</title>
<ellipse fill="#b2dfee" stroke="#b2dfee" cx="55.895" cy="-450" rx="31.3957" ry="18"/>
<text text-anchor="middle" x="55.895" y="-446.3" font-family="Times,serif" font-size="14.00" fill="#000000">decay</text>
</g>
<!-- deterioration&#45;&gt;decay -->
<g id="edge2" class="edge">
<title>deterioration&#45;&gt;decay</title>
<path fill="none" stroke="#000000" d="M55.895,-503.8314C55.895,-496.131 55.895,-486.9743 55.895,-478.4166"/>
<polygon fill="#000000" stroke="#000000" points="59.3951,-478.4132 55.895,-468.4133 52.3951,-478.4133 59.3951,-478.4132"/>
</g>
<!-- unsoundness -->
<g id="node4" class="node">
<title>unsoundness</title>
<ellipse fill="#b2dfee" stroke="#b2dfee" cx="55.895" cy="-378" rx="55.7903" ry="18"/>
<text text-anchor="middle" x="55.895" y="-374.3" font-family="Times,serif" font-size="14.00" fill="#000000">unsoundness</text>
</g>
<!-- decay&#45;&gt;unsoundness -->
<g id="edge3" class="edge">
<title>decay&#45;&gt;unsoundness</title>
<path fill="none" stroke="#000000" d="M55.895,-431.8314C55.895,-424.131 55.895,-414.9743 55.895,-406.4166"/>
<polygon fill="#000000" stroke="#000000" points="59.3951,-406.4132 55.895,-396.4133 52.3951,-406.4133 59.3951,-406.4132"/>
</g>
<!-- condition -->
<g id="node5" class="node">
<title>condition</title>
<ellipse fill="#b2dfee" stroke="#b2dfee" cx="55.895" cy="-306" rx="44.393" ry="18"/>
<text text-anchor="middle" x="55.895" y="-302.3" font-family="Times,serif" font-size="14.00" fill="#000000">condition</text>
</g>
<!-- unsoundness&#45;&gt;condition -->
<g id="edge4" class="edge">
<title>unsoundness&#45;&gt;condition</title>
<path fill="none" stroke="#000000" d="M55.895,-359.8314C55.895,-352.131 55.895,-342.9743 55.895,-334.4166"/>
<polygon fill="#000000" stroke="#000000" points="59.3951,-334.4132 55.895,-324.4133 52.3951,-334.4133 59.3951,-334.4132"/>
</g>
<!-- state -->
<g id="node6" class="node">
<title>state</title>
<ellipse fill="#b2dfee" stroke="#b2dfee" cx="55.895" cy="-234" rx="27" ry="18"/>
<text text-anchor="middle" x="55.895" y="-230.3" font-family="Times,serif" font-size="14.00" fill="#000000">state</text>
</g>
<!-- condition&#45;&gt;state -->
<g id="edge5" class="edge">
<title>condition&#45;&gt;state</title>
<path fill="none" stroke="#000000" d="M55.895,-287.8314C55.895,-280.131 55.895,-270.9743 55.895,-262.4166"/>
<polygon fill="#000000" stroke="#000000" points="59.3951,-262.4132 55.895,-252.4133 52.3951,-262.4133 59.3951,-262.4132"/>
</g>
<!-- attribute -->
<g id="node7" class="node">
<title>attribute</title>
<ellipse fill="#b2dfee" stroke="#b2dfee" cx="55.895" cy="-162" rx="40.0939" ry="18"/>
<text text-anchor="middle" x="55.895" y="-158.3" font-family="Times,serif" font-size="14.00" fill="#000000">attribute</text>
</g>
<!-- state&#45;&gt;attribute -->
<g id="edge6" class="edge">
<title>state&#45;&gt;attribute</title>
<path fill="none" stroke="#000000" d="M55.895,-215.8314C55.895,-208.131 55.895,-198.9743 55.895,-190.4166"/>
<polygon fill="#000000" stroke="#000000" points="59.3951,-190.4132 55.895,-180.4133 52.3951,-190.4133 59.3951,-190.4132"/>
</g>
<!-- abstraction -->
<g id="node8" class="node">
<title>abstraction</title>
<ellipse fill="#b2dfee" stroke="#b2dfee" cx="55.895" cy="-90" rx="49.2915" ry="18"/>
<text text-anchor="middle" x="55.895" y="-86.3" font-family="Times,serif" font-size="14.00" fill="#000000">abstraction</text>
</g>
<!-- attribute&#45;&gt;abstraction -->
<g id="edge7" class="edge">
<title>attribute&#45;&gt;abstraction</title>
<path fill="none" stroke="#000000" d="M55.895,-143.8314C55.895,-136.131 55.895,-126.9743 55.895,-118.4166"/>
<polygon fill="#000000" stroke="#000000" points="59.3951,-118.4132 55.895,-108.4133 52.3951,-118.4133 59.3951,-118.4132"/>
</g>
<!-- entity -->
<g id="node9" class="node">
<title>entity</title>
<ellipse fill="#b2dfee" stroke="#b2dfee" cx="55.895" cy="-18" rx="30.5947" ry="18"/>
<text text-anchor="middle" x="55.895" y="-14.3" font-family="Times,serif" font-size="14.00" fill="#000000">entity</text>
</g>
<!-- abstraction&#45;&gt;entity -->
<g id="edge8" class="edge">
<title>abstraction&#45;&gt;entity</title>
<path fill="none" stroke="#000000" d="M55.895,-71.8314C55.895,-64.131 55.895,-54.9743 55.895,-46.4166"/>
<polygon fill="#000000" stroke="#000000" points="59.3951,-46.4132 55.895,-36.4133 52.3951,-46.4133 59.3951,-46.4132"/>
</g>
</g>
</svg>
