<?xml version="1.0" encoding="UTF-8" standalone="no"?>
<!DOCTYPE svg PUBLIC "-//W3C//DTD SVG 1.1//EN"
 "http://www.w3.org/Graphics/SVG/1.1/DTD/svg11.dtd">
<!-- Generated by graphviz version 2.40.1 (20161225.0304)
 -->
<!-- Title: unix Pages: 1 -->
<svg width="189pt" height="432pt"
 viewBox="0.00 0.00 188.94 432.00" xmlns="http://www.w3.org/2000/svg" xmlns:xlink="http://www.w3.org/1999/xlink">
<g id="graph0" class="graph" transform="scale(.9076 .9076) rotate(0) translate(4 472)">
<title>unix</title>
<polygon fill="#ffffff" stroke="transparent" points="-4,4 -4,-472 204.1822,-472 204.1822,4 -4,4"/>
<!-- whoop -->
<g id="node1" class="node">
<title>whoop</title>
<ellipse fill="#b2dfee" stroke="#b2dfee" cx="100.0911" cy="-450" rx="34.394" ry="18"/>
<text text-anchor="middle" x="100.0911" y="-446.3" font-family="Times,serif" font-size="14.00" fill="#000000">whoop</text>
</g>
<!-- cry -->
<g id="node2" class="node">
<title>cry</title>
<ellipse fill="#b2dfee" stroke="#b2dfee" cx="100.0911" cy="-378" rx="27" ry="18"/>
<text text-anchor="middle" x="100.0911" y="-374.3" font-family="Times,serif" font-size="14.00" fill="#000000">cry</text>
</g>
<!-- whoop&#45;&gt;cry -->
<g id="edge1" class="edge">
<title>whoop&#45;&gt;cry</title>
<path fill="none" stroke="#000000" d="M100.0911,-431.8314C100.0911,-424.131 100.0911,-414.9743 100.0911,-406.4166"/>
<polygon fill="#000000" stroke="#000000" points="103.5912,-406.4132 100.0911,-396.4133 96.5912,-406.4133 103.5912,-406.4132"/>
</g>
<!-- utterance -->
<g id="node3" class="node">
<title>utterance</title>
<ellipse fill="#b2dfee" stroke="#b2dfee" cx="100.0911" cy="-306" rx="42.7926" ry="18"/>
<text text-anchor="middle" x="100.0911" y="-302.3" font-family="Times,serif" font-size="14.00" fill="#000000">utterance</text>
</g>
<!-- cry&#45;&gt;utterance -->
<g id="edge2" class="edge">
<title>cry&#45;&gt;utterance</title>
<path fill="none" stroke="#000000" d="M100.0911,-359.8314C100.0911,-352.131 100.0911,-342.9743 100.0911,-334.4166"/>
<polygon fill="#000000" stroke="#000000" points="103.5912,-334.4132 100.0911,-324.4133 96.5912,-334.4133 103.5912,-334.4132"/>
</g>
<!-- auditory_communication -->
<g id="node4" class="node">
<title>auditory_communication</title>
<ellipse fill="#b2dfee" stroke="#b2dfee" cx="100.0911" cy="-234" rx="100.1823" ry="18"/>
<text text-anchor="middle" x="100.0911" y="-230.3" font-family="Times,serif" font-size="14.00" fill="#000000">auditory_communication</text>
</g>
<!-- utterance&#45;&gt;auditory_communication -->
<g id="edge3" class="edge">
<title>utterance&#45;&gt;auditory_communication</title>
<path fill="none" stroke="#000000" d="M100.0911,-287.8314C100.0911,-280.131 100.0911,-270.9743 100.0911,-262.4166"/>
<polygon fill="#000000" stroke="#000000" points="103.5912,-262.4132 100.0911,-252.4133 96.5912,-262.4133 103.5912,-262.4132"/>
</g>
<!-- communication -->
<g id="node5" class="node">
<title>communication</title>
<ellipse fill="#b2dfee" stroke="#b2dfee" cx="100.0911" cy="-162" rx="66.0889" ry="18"/>
<text text-anchor="middle" x="100.0911" y="-158.3" font-family="Times,serif" font-size="14.00" fill="#000000">communication</text>
</g>
<!-- auditory_communication&#45;&gt;communication -->
<g id="edge4" class="edge">
<title>auditory_communication&#45;&gt;communication</title>
<path fill="none" stroke="#000000" d="M100.0911,-215.8314C100.0911,-208.131 100.0911,-198.9743 100.0911,-190.4166"/>
<polygon fill="#000000" stroke="#000000" points="103.5912,-190.4132 100.0911,-180.4133 96.5912,-190.4133 103.5912,-190.4132"/>
</g>
<!-- abstraction -->
<g id="node6" class="node">
<title>abstraction</title>
<ellipse fill="#b2dfee" stroke="#b2dfee" cx="100.0911" cy="-90" rx="49.2915" ry="18"/>
<text text-anchor="middle" x="100.0911" y="-86.3" font-family="Times,serif" font-size="14.00" fill="#000000">abstraction</text>
</g>
<!-- communication&#45;&gt;abstraction -->
<g id="edge5" class="edge">
<title>communication&#45;&gt;abstraction</title>
<path fill="none" stroke="#000000" d="M100.0911,-143.8314C100.0911,-136.131 100.0911,-126.9743 100.0911,-118.4166"/>
<polygon fill="#000000" stroke="#000000" points="103.5912,-118.4132 100.0911,-108.4133 96.5912,-118.4133 103.5912,-118.4132"/>
</g>
<!-- entity -->
<g id="node7" class="node">
<title>entity</title>
<ellipse fill="#b2dfee" stroke="#b2dfee" cx="100.0911" cy="-18" rx="30.5947" ry="18"/>
<text text-anchor="middle" x="100.0911" y="-14.3" font-family="Times,serif" font-size="14.00" fill="#000000">entity</text>
</g>
<!-- abstraction&#45;&gt;entity -->
<g id="edge6" class="edge">
<title>abstraction&#45;&gt;entity</title>
<path fill="none" stroke="#000000" d="M100.0911,-71.8314C100.0911,-64.131 100.0911,-54.9743 100.0911,-46.4166"/>
<polygon fill="#000000" stroke="#000000" points="103.5912,-46.4132 100.0911,-36.4133 96.5912,-46.4133 103.5912,-46.4132"/>
</g>
</g>
</svg>
