<?xml version="1.0" encoding="UTF-8" standalone="no"?>
<!DOCTYPE svg PUBLIC "-//W3C//DTD SVG 1.1//EN"
 "http://www.w3.org/Graphics/SVG/1.1/DTD/svg11.dtd">
<!-- Generated by graphviz version 2.40.1 (20161225.0304)
 -->
<!-- Title: unix Pages: 1 -->
<svg width="146pt" height="432pt"
 viewBox="0.00 0.00 145.67 432.00" xmlns="http://www.w3.org/2000/svg" xmlns:xlink="http://www.w3.org/1999/xlink">
<g id="graph0" class="graph" transform="scale(.7883 .7883) rotate(0) translate(4 544)">
<title>unix</title>
<polygon fill="#ffffff" stroke="transparent" points="-4,4 -4,-544 180.7843,-544 180.7843,4 -4,4"/>
<!-- win -->
<g id="node1" class="node">
<title>win</title>
<ellipse fill="#b2dfee" stroke="#b2dfee" cx="88.3922" cy="-522" rx="27" ry="18"/>
<text text-anchor="middle" x="88.3922" y="-518.3" font-family="Times,serif" font-size="14.00" fill="#000000">win</text>
</g>
<!-- victory -->
<g id="node2" class="node">
<title>victory</title>
<ellipse fill="#b2dfee" stroke="#b2dfee" cx="88.3922" cy="-450" rx="35.9954" ry="18"/>
<text text-anchor="middle" x="88.3922" y="-446.3" font-family="Times,serif" font-size="14.00" fill="#000000">victory</text>
</g>
<!-- win&#45;&gt;victory -->
<g id="edge1" class="edge">
<title>win&#45;&gt;victory</title>
<path fill="none" stroke="#000000" d="M88.3922,-503.8314C88.3922,-496.131 88.3922,-486.9743 88.3922,-478.4166"/>
<polygon fill="#000000" stroke="#000000" points="91.8923,-478.4132 88.3922,-468.4133 84.8923,-478.4133 91.8923,-478.4132"/>
</g>
<!-- ending -->
<g id="node3" class="node">
<title>ending</title>
<ellipse fill="#b2dfee" stroke="#b2dfee" cx="44.3922" cy="-378" rx="34.394" ry="18"/>
<text text-anchor="middle" x="44.3922" y="-374.3" font-family="Times,serif" font-size="14.00" fill="#000000">ending</text>
</g>
<!-- victory&#45;&gt;ending -->
<g id="edge2" class="edge">
<title>victory&#45;&gt;ending</title>
<path fill="none" stroke="#000000" d="M77.741,-432.5708C72.4985,-423.9922 66.0721,-413.4762 60.2647,-403.9732"/>
<polygon fill="#000000" stroke="#000000" points="63.1463,-401.9764 54.9452,-395.2687 57.1733,-405.6266 63.1463,-401.9764"/>
</g>
<!-- success -->
<g id="node9" class="node">
<title>success</title>
<ellipse fill="#b2dfee" stroke="#b2dfee" cx="133.3922" cy="-378" rx="37.0935" ry="18"/>
<text text-anchor="middle" x="133.3922" y="-374.3" font-family="Times,serif" font-size="14.00" fill="#000000">success</text>
</g>
<!-- victory&#45;&gt;success -->
<g id="edge8" class="edge">
<title>victory&#45;&gt;success</title>
<path fill="none" stroke="#000000" d="M99.2854,-432.5708C104.647,-423.9922 111.2195,-413.4762 117.1589,-403.9732"/>
<polygon fill="#000000" stroke="#000000" points="120.2672,-405.6037 122.5992,-395.2687 114.3312,-401.8937 120.2672,-405.6037"/>
</g>
<!-- happening -->
<g id="node4" class="node">
<title>happening</title>
<ellipse fill="#b2dfee" stroke="#b2dfee" cx="88.3922" cy="-306" rx="47.3916" ry="18"/>
<text text-anchor="middle" x="88.3922" y="-302.3" font-family="Times,serif" font-size="14.00" fill="#000000">happening</text>
</g>
<!-- ending&#45;&gt;happening -->
<g id="edge3" class="edge">
<title>ending&#45;&gt;happening</title>
<path fill="none" stroke="#000000" d="M55.0433,-360.5708C60.2087,-352.1184 66.5235,-341.7851 72.2631,-332.3931"/>
<polygon fill="#000000" stroke="#000000" points="75.3053,-334.1268 77.5334,-323.7689 69.3324,-330.4766 75.3053,-334.1268"/>
</g>
<!-- event -->
<g id="node5" class="node">
<title>event</title>
<ellipse fill="#b2dfee" stroke="#b2dfee" cx="88.3922" cy="-234" rx="29.795" ry="18"/>
<text text-anchor="middle" x="88.3922" y="-230.3" font-family="Times,serif" font-size="14.00" fill="#000000">event</text>
</g>
<!-- happening&#45;&gt;event -->
<g id="edge4" class="edge">
<title>happening&#45;&gt;event</title>
<path fill="none" stroke="#000000" d="M88.3922,-287.8314C88.3922,-280.131 88.3922,-270.9743 88.3922,-262.4166"/>
<polygon fill="#000000" stroke="#000000" points="91.8923,-262.4132 88.3922,-252.4133 84.8923,-262.4133 91.8923,-262.4132"/>
</g>
<!-- psychological_feature -->
<g id="node6" class="node">
<title>psychological_feature</title>
<ellipse fill="#b2dfee" stroke="#b2dfee" cx="88.3922" cy="-162" rx="88.2844" ry="18"/>
<text text-anchor="middle" x="88.3922" y="-158.3" font-family="Times,serif" font-size="14.00" fill="#000000">psychological_feature</text>
</g>
<!-- event&#45;&gt;psychological_feature -->
<g id="edge5" class="edge">
<title>event&#45;&gt;psychological_feature</title>
<path fill="none" stroke="#000000" d="M88.3922,-215.8314C88.3922,-208.131 88.3922,-198.9743 88.3922,-190.4166"/>
<polygon fill="#000000" stroke="#000000" points="91.8923,-190.4132 88.3922,-180.4133 84.8923,-190.4133 91.8923,-190.4132"/>
</g>
<!-- abstraction -->
<g id="node7" class="node">
<title>abstraction</title>
<ellipse fill="#b2dfee" stroke="#b2dfee" cx="88.3922" cy="-90" rx="49.2915" ry="18"/>
<text text-anchor="middle" x="88.3922" y="-86.3" font-family="Times,serif" font-size="14.00" fill="#000000">abstraction</text>
</g>
<!-- psychological_feature&#45;&gt;abstraction -->
<g id="edge6" class="edge">
<title>psychological_feature&#45;&gt;abstraction</title>
<path fill="none" stroke="#000000" d="M88.3922,-143.8314C88.3922,-136.131 88.3922,-126.9743 88.3922,-118.4166"/>
<polygon fill="#000000" stroke="#000000" points="91.8923,-118.4132 88.3922,-108.4133 84.8923,-118.4133 91.8923,-118.4132"/>
</g>
<!-- entity -->
<g id="node8" class="node">
<title>entity</title>
<ellipse fill="#b2dfee" stroke="#b2dfee" cx="88.3922" cy="-18" rx="30.5947" ry="18"/>
<text text-anchor="middle" x="88.3922" y="-14.3" font-family="Times,serif" font-size="14.00" fill="#000000">entity</text>
</g>
<!-- abstraction&#45;&gt;entity -->
<g id="edge7" class="edge">
<title>abstraction&#45;&gt;entity</title>
<path fill="none" stroke="#000000" d="M88.3922,-71.8314C88.3922,-64.131 88.3922,-54.9743 88.3922,-46.4166"/>
<polygon fill="#000000" stroke="#000000" points="91.8923,-46.4132 88.3922,-36.4133 84.8923,-46.4133 91.8923,-46.4132"/>
</g>
<!-- success&#45;&gt;happening -->
<g id="edge9" class="edge">
<title>success&#45;&gt;happening</title>
<path fill="none" stroke="#000000" d="M122.4989,-360.5708C117.1767,-352.0553 110.6614,-341.6308 104.7565,-332.183"/>
<polygon fill="#000000" stroke="#000000" points="107.6091,-330.1432 99.3411,-323.5182 101.6731,-333.8532 107.6091,-330.1432"/>
</g>
</g>
</svg>
