<?xml version="1.0" encoding="UTF-8" standalone="no"?>
<!DOCTYPE svg PUBLIC "-//W3C//DTD SVG 1.1//EN"
 "http://www.w3.org/Graphics/SVG/1.1/DTD/svg11.dtd">
<!-- Generated by graphviz version 2.40.1 (20161225.0304)
 -->
<!-- Title: unix Pages: 1 -->
<svg width="138pt" height="188pt"
 viewBox="0.00 0.00 137.99 188.00" xmlns="http://www.w3.org/2000/svg" xmlns:xlink="http://www.w3.org/1999/xlink">
<g id="graph0" class="graph" transform="scale(1 1) rotate(0) translate(4 184)">
<title>unix</title>
<polygon fill="#ffffff" stroke="transparent" points="-4,4 -4,-184 133.9885,-184 133.9885,4 -4,4"/>
<!-- write -->
<g id="node1" class="node">
<title>write</title>
<ellipse fill="#b2dfee" stroke="#b2dfee" cx="64.9942" cy="-162" rx="28.6953" ry="18"/>
<text text-anchor="middle" x="64.9942" y="-158.3" font-family="Times,serif" font-size="14.00" fill="#000000">write</text>
</g>
<!-- create_verbally -->
<g id="node2" class="node">
<title>create_verbally</title>
<ellipse fill="#b2dfee" stroke="#b2dfee" cx="64.9942" cy="-90" rx="64.9885" ry="18"/>
<text text-anchor="middle" x="64.9942" y="-86.3" font-family="Times,serif" font-size="14.00" fill="#000000">create_verbally</text>
</g>
<!-- write&#45;&gt;create_verbally -->
<g id="edge1" class="edge">
<title>write&#45;&gt;create_verbally</title>
<path fill="none" stroke="#000000" d="M64.9942,-143.8314C64.9942,-136.131 64.9942,-126.9743 64.9942,-118.4166"/>
<polygon fill="#000000" stroke="#000000" points="68.4943,-118.4132 64.9942,-108.4133 61.4943,-118.4133 68.4943,-118.4132"/>
</g>
<!-- make -->
<g id="node3" class="node">
<title>make</title>
<ellipse fill="#b2dfee" stroke="#b2dfee" cx="64.9942" cy="-18" rx="30.5947" ry="18"/>
<text text-anchor="middle" x="64.9942" y="-14.3" font-family="Times,serif" font-size="14.00" fill="#000000">make</text>
</g>
<!-- create_verbally&#45;&gt;make -->
<g id="edge2" class="edge">
<title>create_verbally&#45;&gt;make</title>
<path fill="none" stroke="#000000" d="M64.9942,-71.8314C64.9942,-64.131 64.9942,-54.9743 64.9942,-46.4166"/>
<polygon fill="#000000" stroke="#000000" points="68.4943,-46.4132 64.9942,-36.4133 61.4943,-46.4133 68.4943,-46.4132"/>
</g>
</g>
</svg>
