<?xml version="1.0" encoding="UTF-8" standalone="no"?>
<!DOCTYPE svg PUBLIC "-//W3C//DTD SVG 1.1//EN"
 "http://www.w3.org/Graphics/SVG/1.1/DTD/svg11.dtd">
<!-- Generated by graphviz version 2.40.1 (20161225.0304)
 -->
<!-- Title: unix Pages: 1 -->
<svg width="113pt" height="432pt"
 viewBox="0.00 0.00 112.88 432.00" xmlns="http://www.w3.org/2000/svg" xmlns:xlink="http://www.w3.org/1999/xlink">
<g id="graph0" class="graph" transform="scale(.7883 .7883) rotate(0) translate(4 544)">
<title>unix</title>
<polygon fill="#ffffff" stroke="transparent" points="-4,4 -4,-544 139.188,-544 139.188,4 -4,4"/>
<!-- wrong -->
<g id="node1" class="node">
<title>wrong</title>
<ellipse fill="#b2dfee" stroke="#b2dfee" cx="67.594" cy="-522" rx="33.2948" ry="18"/>
<text text-anchor="middle" x="67.594" y="-518.3" font-family="Times,serif" font-size="14.00" fill="#000000">wrong</text>
</g>
<!-- injustice -->
<g id="node2" class="node">
<title>injustice</title>
<ellipse fill="#b2dfee" stroke="#b2dfee" cx="67.594" cy="-450" rx="40.0939" ry="18"/>
<text text-anchor="middle" x="67.594" y="-446.3" font-family="Times,serif" font-size="14.00" fill="#000000">injustice</text>
</g>
<!-- wrong&#45;&gt;injustice -->
<g id="edge1" class="edge">
<title>wrong&#45;&gt;injustice</title>
<path fill="none" stroke="#000000" d="M67.594,-503.8314C67.594,-496.131 67.594,-486.9743 67.594,-478.4166"/>
<polygon fill="#000000" stroke="#000000" points="71.0941,-478.4132 67.594,-468.4133 64.0941,-478.4133 71.0941,-478.4132"/>
</g>
<!-- unrighteousness -->
<g id="node3" class="node">
<title>unrighteousness</title>
<ellipse fill="#b2dfee" stroke="#b2dfee" cx="67.594" cy="-378" rx="67.6881" ry="18"/>
<text text-anchor="middle" x="67.594" y="-374.3" font-family="Times,serif" font-size="14.00" fill="#000000">unrighteousness</text>
</g>
<!-- injustice&#45;&gt;unrighteousness -->
<g id="edge2" class="edge">
<title>injustice&#45;&gt;unrighteousness</title>
<path fill="none" stroke="#000000" d="M67.594,-431.8314C67.594,-424.131 67.594,-414.9743 67.594,-406.4166"/>
<polygon fill="#000000" stroke="#000000" points="71.0941,-406.4132 67.594,-396.4133 64.0941,-406.4133 71.0941,-406.4132"/>
</g>
<!-- immorality -->
<g id="node4" class="node">
<title>immorality</title>
<ellipse fill="#b2dfee" stroke="#b2dfee" cx="67.594" cy="-306" rx="50.8918" ry="18"/>
<text text-anchor="middle" x="67.594" y="-302.3" font-family="Times,serif" font-size="14.00" fill="#000000">immorality</text>
</g>
<!-- unrighteousness&#45;&gt;immorality -->
<g id="edge3" class="edge">
<title>unrighteousness&#45;&gt;immorality</title>
<path fill="none" stroke="#000000" d="M67.594,-359.8314C67.594,-352.131 67.594,-342.9743 67.594,-334.4166"/>
<polygon fill="#000000" stroke="#000000" points="71.0941,-334.4132 67.594,-324.4133 64.0941,-334.4133 71.0941,-334.4132"/>
</g>
<!-- quality -->
<g id="node5" class="node">
<title>quality</title>
<ellipse fill="#b2dfee" stroke="#b2dfee" cx="67.594" cy="-234" rx="35.194" ry="18"/>
<text text-anchor="middle" x="67.594" y="-230.3" font-family="Times,serif" font-size="14.00" fill="#000000">quality</text>
</g>
<!-- immorality&#45;&gt;quality -->
<g id="edge4" class="edge">
<title>immorality&#45;&gt;quality</title>
<path fill="none" stroke="#000000" d="M67.594,-287.8314C67.594,-280.131 67.594,-270.9743 67.594,-262.4166"/>
<polygon fill="#000000" stroke="#000000" points="71.0941,-262.4132 67.594,-252.4133 64.0941,-262.4133 71.0941,-262.4132"/>
</g>
<!-- attribute -->
<g id="node6" class="node">
<title>attribute</title>
<ellipse fill="#b2dfee" stroke="#b2dfee" cx="67.594" cy="-162" rx="40.0939" ry="18"/>
<text text-anchor="middle" x="67.594" y="-158.3" font-family="Times,serif" font-size="14.00" fill="#000000">attribute</text>
</g>
<!-- quality&#45;&gt;attribute -->
<g id="edge5" class="edge">
<title>quality&#45;&gt;attribute</title>
<path fill="none" stroke="#000000" d="M67.594,-215.8314C67.594,-208.131 67.594,-198.9743 67.594,-190.4166"/>
<polygon fill="#000000" stroke="#000000" points="71.0941,-190.4132 67.594,-180.4133 64.0941,-190.4133 71.0941,-190.4132"/>
</g>
<!-- abstraction -->
<g id="node7" class="node">
<title>abstraction</title>
<ellipse fill="#b2dfee" stroke="#b2dfee" cx="67.594" cy="-90" rx="49.2915" ry="18"/>
<text text-anchor="middle" x="67.594" y="-86.3" font-family="Times,serif" font-size="14.00" fill="#000000">abstraction</text>
</g>
<!-- attribute&#45;&gt;abstraction -->
<g id="edge6" class="edge">
<title>attribute&#45;&gt;abstraction</title>
<path fill="none" stroke="#000000" d="M67.594,-143.8314C67.594,-136.131 67.594,-126.9743 67.594,-118.4166"/>
<polygon fill="#000000" stroke="#000000" points="71.0941,-118.4132 67.594,-108.4133 64.0941,-118.4133 71.0941,-118.4132"/>
</g>
<!-- entity -->
<g id="node8" class="node">
<title>entity</title>
<ellipse fill="#b2dfee" stroke="#b2dfee" cx="67.594" cy="-18" rx="30.5947" ry="18"/>
<text text-anchor="middle" x="67.594" y="-14.3" font-family="Times,serif" font-size="14.00" fill="#000000">entity</text>
</g>
<!-- abstraction&#45;&gt;entity -->
<g id="edge7" class="edge">
<title>abstraction&#45;&gt;entity</title>
<path fill="none" stroke="#000000" d="M67.594,-71.8314C67.594,-64.131 67.594,-54.9743 67.594,-46.4166"/>
<polygon fill="#000000" stroke="#000000" points="71.0941,-46.4132 67.594,-36.4133 64.0941,-46.4133 71.0941,-46.4132"/>
</g>
</g>
</svg>
