<?xml version="1.0" encoding="UTF-8" standalone="no"?>
<!DOCTYPE svg PUBLIC "-//W3C//DTD SVG 1.1//EN"
 "http://www.w3.org/Graphics/SVG/1.1/DTD/svg11.dtd">
<!-- Generated by graphviz version 2.40.1 (20161225.0304)
 -->
<!-- Title: unix Pages: 1 -->
<svg width="88pt" height="432pt"
 viewBox="0.00 0.00 87.77 432.00" xmlns="http://www.w3.org/2000/svg" xmlns:xlink="http://www.w3.org/1999/xlink">
<g id="graph0" class="graph" transform="scale(.6243 .6243) rotate(0) translate(4 688)">
<title>unix</title>
<polygon fill="#ffffff" stroke="transparent" points="-4,4 -4,-688 136.5882,-688 136.5882,4 -4,4"/>
<!-- yes -->
<g id="node1" class="node">
<title>yes</title>
<ellipse fill="#b2dfee" stroke="#b2dfee" cx="66.2941" cy="-666" rx="27" ry="18"/>
<text text-anchor="middle" x="66.2941" y="-662.3" font-family="Times,serif" font-size="14.00" fill="#000000">yes</text>
</g>
<!-- affirmative -->
<g id="node2" class="node">
<title>affirmative</title>
<ellipse fill="#b2dfee" stroke="#b2dfee" cx="66.2941" cy="-594" rx="50.0912" ry="18"/>
<text text-anchor="middle" x="66.2941" y="-590.3" font-family="Times,serif" font-size="14.00" fill="#000000">affirmative</text>
</g>
<!-- yes&#45;&gt;affirmative -->
<g id="edge1" class="edge">
<title>yes&#45;&gt;affirmative</title>
<path fill="none" stroke="#000000" d="M66.2941,-647.8314C66.2941,-640.131 66.2941,-630.9743 66.2941,-622.4166"/>
<polygon fill="#000000" stroke="#000000" points="69.7942,-622.4132 66.2941,-612.4133 62.7942,-622.4133 69.7942,-622.4132"/>
</g>
<!-- avowal -->
<g id="node3" class="node">
<title>avowal</title>
<ellipse fill="#b2dfee" stroke="#b2dfee" cx="66.2941" cy="-522" rx="36.2938" ry="18"/>
<text text-anchor="middle" x="66.2941" y="-518.3" font-family="Times,serif" font-size="14.00" fill="#000000">avowal</text>
</g>
<!-- affirmative&#45;&gt;avowal -->
<g id="edge2" class="edge">
<title>affirmative&#45;&gt;avowal</title>
<path fill="none" stroke="#000000" d="M66.2941,-575.8314C66.2941,-568.131 66.2941,-558.9743 66.2941,-550.4166"/>
<polygon fill="#000000" stroke="#000000" points="69.7942,-550.4132 66.2941,-540.4133 62.7942,-550.4133 69.7942,-550.4132"/>
</g>
<!-- assertion -->
<g id="node4" class="node">
<title>assertion</title>
<ellipse fill="#b2dfee" stroke="#b2dfee" cx="66.2941" cy="-450" rx="42.4939" ry="18"/>
<text text-anchor="middle" x="66.2941" y="-446.3" font-family="Times,serif" font-size="14.00" fill="#000000">assertion</text>
</g>
<!-- avowal&#45;&gt;assertion -->
<g id="edge3" class="edge">
<title>avowal&#45;&gt;assertion</title>
<path fill="none" stroke="#000000" d="M66.2941,-503.8314C66.2941,-496.131 66.2941,-486.9743 66.2941,-478.4166"/>
<polygon fill="#000000" stroke="#000000" points="69.7942,-478.4132 66.2941,-468.4133 62.7942,-478.4133 69.7942,-478.4132"/>
</g>
<!-- declaration -->
<g id="node5" class="node">
<title>declaration</title>
<ellipse fill="#b2dfee" stroke="#b2dfee" cx="66.2941" cy="-378" rx="50.0912" ry="18"/>
<text text-anchor="middle" x="66.2941" y="-374.3" font-family="Times,serif" font-size="14.00" fill="#000000">declaration</text>
</g>
<!-- assertion&#45;&gt;declaration -->
<g id="edge4" class="edge">
<title>assertion&#45;&gt;declaration</title>
<path fill="none" stroke="#000000" d="M66.2941,-431.8314C66.2941,-424.131 66.2941,-414.9743 66.2941,-406.4166"/>
<polygon fill="#000000" stroke="#000000" points="69.7942,-406.4132 66.2941,-396.4133 62.7942,-406.4133 69.7942,-406.4132"/>
</g>
<!-- statement -->
<g id="node6" class="node">
<title>statement</title>
<ellipse fill="#b2dfee" stroke="#b2dfee" cx="66.2941" cy="-306" rx="44.6926" ry="18"/>
<text text-anchor="middle" x="66.2941" y="-302.3" font-family="Times,serif" font-size="14.00" fill="#000000">statement</text>
</g>
<!-- declaration&#45;&gt;statement -->
<g id="edge5" class="edge">
<title>declaration&#45;&gt;statement</title>
<path fill="none" stroke="#000000" d="M66.2941,-359.8314C66.2941,-352.131 66.2941,-342.9743 66.2941,-334.4166"/>
<polygon fill="#000000" stroke="#000000" points="69.7942,-334.4132 66.2941,-324.4133 62.7942,-334.4133 69.7942,-334.4132"/>
</g>
<!-- message -->
<g id="node7" class="node">
<title>message</title>
<ellipse fill="#b2dfee" stroke="#b2dfee" cx="66.2941" cy="-234" rx="40.8928" ry="18"/>
<text text-anchor="middle" x="66.2941" y="-230.3" font-family="Times,serif" font-size="14.00" fill="#000000">message</text>
</g>
<!-- statement&#45;&gt;message -->
<g id="edge6" class="edge">
<title>statement&#45;&gt;message</title>
<path fill="none" stroke="#000000" d="M66.2941,-287.8314C66.2941,-280.131 66.2941,-270.9743 66.2941,-262.4166"/>
<polygon fill="#000000" stroke="#000000" points="69.7942,-262.4132 66.2941,-252.4133 62.7942,-262.4133 69.7942,-262.4132"/>
</g>
<!-- communication -->
<g id="node8" class="node">
<title>communication</title>
<ellipse fill="#b2dfee" stroke="#b2dfee" cx="66.2941" cy="-162" rx="66.0889" ry="18"/>
<text text-anchor="middle" x="66.2941" y="-158.3" font-family="Times,serif" font-size="14.00" fill="#000000">communication</text>
</g>
<!-- message&#45;&gt;communication -->
<g id="edge7" class="edge">
<title>message&#45;&gt;communication</title>
<path fill="none" stroke="#000000" d="M66.2941,-215.8314C66.2941,-208.131 66.2941,-198.9743 66.2941,-190.4166"/>
<polygon fill="#000000" stroke="#000000" points="69.7942,-190.4132 66.2941,-180.4133 62.7942,-190.4133 69.7942,-190.4132"/>
</g>
<!-- abstraction -->
<g id="node9" class="node">
<title>abstraction</title>
<ellipse fill="#b2dfee" stroke="#b2dfee" cx="66.2941" cy="-90" rx="49.2915" ry="18"/>
<text text-anchor="middle" x="66.2941" y="-86.3" font-family="Times,serif" font-size="14.00" fill="#000000">abstraction</text>
</g>
<!-- communication&#45;&gt;abstraction -->
<g id="edge8" class="edge">
<title>communication&#45;&gt;abstraction</title>
<path fill="none" stroke="#000000" d="M66.2941,-143.8314C66.2941,-136.131 66.2941,-126.9743 66.2941,-118.4166"/>
<polygon fill="#000000" stroke="#000000" points="69.7942,-118.4132 66.2941,-108.4133 62.7942,-118.4133 69.7942,-118.4132"/>
</g>
<!-- entity -->
<g id="node10" class="node">
<title>entity</title>
<ellipse fill="#b2dfee" stroke="#b2dfee" cx="66.2941" cy="-18" rx="30.5947" ry="18"/>
<text text-anchor="middle" x="66.2941" y="-14.3" font-family="Times,serif" font-size="14.00" fill="#000000">entity</text>
</g>
<!-- abstraction&#45;&gt;entity -->
<g id="edge9" class="edge">
<title>abstraction&#45;&gt;entity</title>
<path fill="none" stroke="#000000" d="M66.2941,-71.8314C66.2941,-64.131 66.2941,-54.9743 66.2941,-46.4166"/>
<polygon fill="#000000" stroke="#000000" points="69.7942,-46.4132 66.2941,-36.4133 62.7942,-46.4133 69.7942,-46.4132"/>
</g>
</g>
</svg>
